<svg width="1324" height="1132" viewBox="0 0 1324 1132" fill="none" xmlns="http://www.w3.org/2000/svg">
<path opacity="0.08" d="M1286.25 937.584L1282.72 948.118L1281.11 947.436C1260.19 998.928 1225.06 1043.45 1179.78 1075.84C1134.5 1108.24 1080.93 1127.19 1025.25 1130.5C969.567 1133.81 914.064 1121.34 865.159 1094.55C816.253 1067.75 775.944 1027.71 748.896 979.072C721.848 930.431 709.166 875.173 712.318 819.692C715.469 764.21 734.325 710.773 766.705 665.563C799.084 620.353 843.663 585.218 895.283 564.223C946.903 543.228 1003.46 537.232 1058.4 546.928C1072.81 549.467 1086.27 554.094 1099.69 558.516C1097.86 542.789 1095.94 526.782 1090.98 511.83C1087.1 490.696 1078.62 471.474 1070.23 452.134C1063.96 431.708 1049.32 416.048 1039.73 397.826C1029.47 379.951 1013.58 366.462 1001.83 351.046C990.443 335.096 973.594 325.156 960.919 313.097C947.427 301.889 936.033 290.121 922.861 283.153L890.528 262.718L862.115 244.633L915.404 125.27L952.372 141.342C964.177 146.609 978.608 152.869 994.982 160.202C1011.94 166.508 1029.07 178.622 1048.47 190.34C1067.35 203.159 1090.13 213.48 1109.64 232.123C1129.41 250.08 1153.02 266.322 1172.34 289.114C1190.84 312.359 1214.33 333.826 1229.52 361.867C1246.8 388.681 1263.61 416.609 1275.11 447.054C1289.43 476.667 1297.22 507.785 1305.77 538.707C1313.03 569.4 1317.78 600.317 1320.87 630.077C1326.19 689.579 1323.54 744.755 1318.06 791.397C1312.11 838.025 1304.05 876.245 1296.43 903.588C1293.48 915.047 1290.08 926.387 1286.25 937.584ZM575.001 812.31L571.479 822.844L569.866 822.162C548.95 873.654 513.82 918.174 468.54 950.57C423.261 982.967 369.681 1001.92 314.002 1005.23C258.323 1008.54 202.82 996.071 153.914 969.272C105.009 942.474 64.7 902.439 37.6519 853.798C10.6037 805.157 -2.07826 749.899 1.07329 694.418C4.22484 638.936 23.0811 585.499 55.4603 540.289C87.8396 495.079 132.418 459.944 184.039 438.949C235.659 417.954 292.211 411.958 347.151 421.654C361.57 424.193 375.021 428.82 388.442 433.242C386.612 417.515 384.699 401.508 379.732 386.557C375.855 365.423 367.374 346.2 358.981 326.86C352.713 306.434 338.071 290.774 328.481 272.552C318.23 254.677 302.34 241.188 290.589 225.772C279.199 209.822 262.35 199.882 249.675 187.823C236.183 176.615 224.789 164.848 211.617 157.88L179.284 137.444C161.217 126.095 150.912 119.499 150.912 119.499L204.202 0.135863L241.17 16.2086C252.975 21.4751 267.405 27.7352 283.78 35.0681C300.735 41.3745 317.867 53.4888 337.269 65.2062C356.144 78.0258 378.925 88.3462 398.441 106.989C418.211 124.946 441.816 141.189 461.134 163.98C479.639 187.226 503.124 208.692 518.318 236.733C535.594 263.547 552.407 291.475 563.911 321.92C578.228 351.533 586.013 382.651 594.567 413.573C601.827 444.267 606.581 475.183 609.672 504.944C614.991 564.445 612.34 619.621 606.857 666.264C600.911 712.891 592.846 751.111 585.23 778.455C582.226 789.858 578.814 801.15 575.001 812.31Z" fill="url(#paint0_linear_2731_953)"/>
<defs>
<linearGradient id="paint0_linear_2731_953" x1="1676.13" y1="627.752" x2="35.7137" y2="343.053" gradientUnits="userSpaceOnUse">
<stop stop-color="#FF835B"/>
<stop offset="1" stop-color="#F2709C"/>
</linearGradient>
</defs>
</svg>
