<svg width="126" height="253" viewBox="0 0 126 253" fill="none" xmlns="http://www.w3.org/2000/svg">
<path fill-rule="evenodd" clip-rule="evenodd" d="M0 0.00206231C4.35071 0.691396 8.70777 1.60923 13.0574 2.76351C81.6518 20.9666 122.426 91.0779 104.13 159.362C90.6154 209.798 48.6537 245.13 0 252.818V222.356C35.3235 215.035 65.2352 188.607 75.1333 151.667C89.1131 99.4935 57.9796 45.7229 5.29284 31.7413C3.5294 31.2733 1.76461 30.856 0 30.4883V0.00206231Z" fill="url(#paint0_linear_9623_3207)"/>
<g filter="url(#filter0_d_9623_3207)">
<circle r="37.5" transform="matrix(0 -1 -1 0 81.5 78.5)" fill="white"/>
</g>
<path d="M72.447 90.496C71.083 90.496 69.8534 90.217 68.758 89.659C67.6627 89.0803 66.7224 88.295 65.937 87.303C65.1724 86.311 64.5834 85.1433 64.17 83.8C63.7567 82.436 63.55 80.9687 63.55 79.398C63.55 77.8273 63.7567 76.3703 64.17 75.027C64.5834 73.663 65.1724 72.485 65.937 71.493C66.7224 70.501 67.6627 69.726 68.758 69.168C69.8534 68.5893 71.083 68.3 72.447 68.3C73.811 68.3 75.0407 68.5893 76.136 69.168C77.2314 69.726 78.1614 70.501 78.926 71.493C79.7114 72.485 80.3107 73.663 80.724 75.027C81.1374 76.3703 81.344 77.8273 81.344 79.398C81.344 80.9687 81.1374 82.436 80.724 83.8C80.3107 85.1433 79.7114 86.311 78.926 87.303C78.1614 88.295 77.2314 89.0803 76.136 89.659C75.0407 90.217 73.811 90.496 72.447 90.496ZM72.447 86.652C73.191 86.652 73.8627 86.4763 74.462 86.125C75.0614 85.753 75.5677 85.2467 75.981 84.606C76.415 83.9447 76.7354 83.1697 76.942 82.281C77.1694 81.3923 77.283 80.4313 77.283 79.398C77.283 78.344 77.1694 77.383 76.942 76.515C76.7354 75.6263 76.415 74.8617 75.981 74.221C75.5677 73.5597 75.0614 73.0533 74.462 72.702C73.8627 72.33 73.191 72.144 72.447 72.144C71.6824 72.144 71.0004 72.33 70.401 72.702C69.8017 73.0533 69.2954 73.5597 68.882 74.221C68.4687 74.8617 68.1484 75.6263 67.921 76.515C67.7144 77.383 67.611 78.344 67.611 79.398C67.611 80.4313 67.7144 81.3923 67.921 82.281C68.1484 83.1697 68.4687 83.9447 68.882 84.606C69.2954 85.2467 69.8017 85.753 70.401 86.125C71.0004 86.4763 71.6824 86.652 72.447 86.652ZM93.7474 90V86.094H83.9514V82.808L93.3754 68.796H97.7774V82.312H100.443V86.094H97.7774V90H93.7474ZM93.7474 74.841H93.4994L88.4464 82.312H93.7474V74.841Z" fill="#F2709C"/>
<defs>
<filter id="filter0_d_9623_3207" x="37" y="34" width="89" height="89" filterUnits="userSpaceOnUse" color-interpolation-filters="sRGB">
<feFlood flood-opacity="0" result="BackgroundImageFix"/>
<feColorMatrix in="SourceAlpha" type="matrix" values="0 0 0 0 0 0 0 0 0 0 0 0 0 0 0 0 0 0 127 0" result="hardAlpha"/>
<feMorphology radius="1" operator="dilate" in="SourceAlpha" result="effect1_dropShadow_9623_3207"/>
<feOffset/>
<feGaussianBlur stdDeviation="3"/>
<feComposite in2="hardAlpha" operator="out"/>
<feColorMatrix type="matrix" values="0 0 0 0 0 0 0 0 0 0 0 0 0 0 0 0 0 0 0.25 0"/>
<feBlend mode="normal" in2="BackgroundImageFix" result="effect1_dropShadow_9623_3207"/>
<feBlend mode="normal" in="SourceGraphic" in2="effect1_dropShadow_9623_3207" result="shape"/>
</filter>
<linearGradient id="paint0_linear_9623_3207" x1="-26.6213" y1="159.101" x2="110.549" y2="158.992" gradientUnits="userSpaceOnUse">
<stop stop-color="#FF835B"/>
<stop offset="1" stop-color="#F2709C"/>
</linearGradient>
</defs>
</svg>
