<svg width="126" height="254" viewBox="0 0 126 254" fill="none" xmlns="http://www.w3.org/2000/svg">
<path fill-rule="evenodd" clip-rule="evenodd" d="M-1.00897 0C3.52428 0.705627 8.06486 1.66112 12.5971 2.87555C80.9313 21.1861 121.484 91.4271 103.174 159.763C89.6206 210.346 47.6154 245.706 -1.00897 253.239V222.762C34.2643 215.562 64.2448 189.138 74.1961 151.998C88.2182 99.6657 57.1624 45.8754 4.83268 31.8534C2.88677 31.332 0.93885 30.8729 -1.00897 30.4749V0Z" fill="url(#paint0_linear_933_11269)"/>
<g filter="url(#filter0_d_933_11269)">
<ellipse rx="37.5" ry="37.499" transform="matrix(-4.37102e-08 -1 -1 4.37125e-08 80.5147 78.75)" fill="white"/>
</g>
<path d="M72.7014 89.496C71.3374 89.496 70.1078 89.217 69.0124 88.659C67.9171 88.0803 66.9768 87.295 66.1914 86.303C65.4268 85.311 64.8378 84.1433 64.4244 82.8C64.0111 81.436 63.8044 79.9687 63.8044 78.398C63.8044 76.8273 64.0111 75.3703 64.4244 74.027C64.8378 72.663 65.4268 71.485 66.1914 70.493C66.9768 69.501 67.9171 68.726 69.0124 68.168C70.1078 67.5893 71.3374 67.3 72.7014 67.3C74.0654 67.3 75.2951 67.5893 76.3904 68.168C77.4858 68.726 78.4158 69.501 79.1804 70.493C79.9658 71.485 80.5651 72.663 80.9784 74.027C81.3918 75.3703 81.5984 76.8273 81.5984 78.398C81.5984 79.9687 81.3918 81.436 80.9784 82.8C80.5651 84.1433 79.9658 85.311 79.1804 86.303C78.4158 87.295 77.4858 88.0803 76.3904 88.659C75.2951 89.217 74.0654 89.496 72.7014 89.496ZM72.7014 85.652C73.4454 85.652 74.1171 85.4763 74.7164 85.125C75.3158 84.753 75.8221 84.2467 76.2354 83.606C76.6694 82.9447 76.9898 82.1697 77.1964 81.281C77.4238 80.3923 77.5374 79.4313 77.5374 78.398C77.5374 77.344 77.4238 76.383 77.1964 75.515C76.9898 74.6263 76.6694 73.8617 76.2354 73.221C75.8221 72.5597 75.3158 72.0533 74.7164 71.702C74.1171 71.33 73.4454 71.144 72.7014 71.144C71.9368 71.144 71.2548 71.33 70.6554 71.702C70.0561 72.0533 69.5498 72.5597 69.1364 73.221C68.7231 73.8617 68.4028 74.6263 68.1754 75.515C67.9688 76.383 67.8654 77.344 67.8654 78.398C67.8654 79.4313 67.9688 80.3923 68.1754 81.281C68.4028 82.1697 68.7231 82.9447 69.1364 83.606C69.5498 84.2467 70.0561 84.753 70.6554 85.125C71.2548 85.4763 71.9368 85.652 72.7014 85.652ZM84.0891 89V85.311C85.3084 84.1123 86.4348 82.9963 87.4681 81.963C87.9021 81.529 88.3464 81.0847 88.8011 80.63C89.2558 80.1753 89.6794 79.7517 90.0721 79.359C90.4648 78.9663 90.8161 78.615 91.1261 78.305C91.4361 77.9743 91.6738 77.716 91.8391 77.53C92.1698 77.1373 92.4591 76.786 92.7071 76.476C92.9758 76.166 93.1824 75.8663 93.3271 75.577C93.4924 75.267 93.6164 74.9673 93.6991 74.678C93.7818 74.368 93.8231 74.0373 93.8231 73.686C93.8231 73.004 93.5544 72.415 93.0171 71.919C92.4798 71.4023 91.7461 71.144 90.8161 71.144C89.8861 71.144 89.1628 71.4127 88.6461 71.95C88.1294 72.4667 87.7781 73.0557 87.5921 73.717L83.9031 72.198C84.0684 71.64 84.3371 71.0717 84.7091 70.493C85.0811 69.8937 85.5564 69.3667 86.1351 68.912C86.7138 68.4367 87.3958 68.0543 88.1811 67.765C88.9871 67.455 89.8861 67.3 90.8781 67.3C91.9528 67.3 92.9241 67.4653 93.7921 67.796C94.6601 68.106 95.3938 68.54 95.9931 69.098C96.5924 69.656 97.0574 70.3173 97.3881 71.082C97.7188 71.826 97.8841 72.632 97.8841 73.5C97.8841 74.8227 97.5534 76.042 96.8921 77.158C96.2514 78.2533 95.4661 79.2763 94.5361 80.227L91.8701 82.893C91.1674 83.5957 90.3718 84.381 89.4831 85.249L89.6071 85.435H98.1941V89H84.0891Z" fill="#F2709C"/>
<defs>
<filter id="filter0_d_933_11269" x="36.0156" y="34.25" width="88.998" height="89" filterUnits="userSpaceOnUse" color-interpolation-filters="sRGB">
<feFlood flood-opacity="0" result="BackgroundImageFix"/>
<feColorMatrix in="SourceAlpha" type="matrix" values="0 0 0 0 0 0 0 0 0 0 0 0 0 0 0 0 0 0 127 0" result="hardAlpha"/>
<feMorphology radius="1" operator="dilate" in="SourceAlpha" result="effect1_dropShadow_933_11269"/>
<feOffset/>
<feGaussianBlur stdDeviation="3"/>
<feComposite in2="hardAlpha" operator="out"/>
<feColorMatrix type="matrix" values="0 0 0 0 0 0 0 0 0 0 0 0 0 0 0 0 0 0 0.25 0"/>
<feBlend mode="normal" in2="BackgroundImageFix" result="effect1_dropShadow_933_11269"/>
<feBlend mode="normal" in="SourceGraphic" in2="effect1_dropShadow_933_11269" result="shape"/>
</filter>
<linearGradient id="paint0_linear_933_11269" x1="-27.6488" y1="159.366" x2="109.616" y2="159.256" gradientUnits="userSpaceOnUse">
<stop stop-color="#FF835B"/>
<stop offset="1" stop-color="#F2709C"/>
</linearGradient>
</defs>
</svg>
