<svg width="126" height="254" viewBox="0 0 126 254" fill="none" xmlns="http://www.w3.org/2000/svg">
<path fill-rule="evenodd" clip-rule="evenodd" d="M126 0.998536C121.649 1.68798 117.292 2.60597 112.942 3.76042C44.3479 21.9651 3.57379 92.0778 21.8703 160.361C35.3847 210.798 77.3464 246.129 126 253.816V223.354C90.6765 216.034 60.7647 189.606 50.8665 152.666C36.8867 100.493 68.0199 46.7211 120.706 32.7382C122.47 32.2701 124.235 31.8527 126 31.485V0.998536Z" fill="url(#paint0_linear_9623_3218)"/>
<g filter="url(#filter0_d_9623_3218)">
<circle cx="44.5" cy="73.5" r="37.5" transform="rotate(-90 44.5 73.5)" fill="white"/>
</g>
<path d="M35.0979 84.496C33.7339 84.496 32.5042 84.217 31.4089 83.659C30.3136 83.0803 29.3732 82.295 28.5879 81.303C27.8232 80.311 27.2342 79.1433 26.8209 77.8C26.4076 76.436 26.2009 74.9687 26.2009 73.398C26.2009 71.8273 26.4076 70.3703 26.8209 69.027C27.2342 67.663 27.8232 66.485 28.5879 65.493C29.3732 64.501 30.3136 63.726 31.4089 63.168C32.5042 62.5893 33.7339 62.3 35.0979 62.3C36.4619 62.3 37.6916 62.5893 38.7869 63.168C39.8822 63.726 40.8122 64.501 41.5769 65.493C42.3622 66.485 42.9616 67.663 43.3749 69.027C43.7882 70.3703 43.9949 71.8273 43.9949 73.398C43.9949 74.9687 43.7882 76.436 43.3749 77.8C42.9616 79.1433 42.3622 80.311 41.5769 81.303C40.8122 82.295 39.8822 83.0803 38.7869 83.659C37.6916 84.217 36.4619 84.496 35.0979 84.496ZM35.0979 80.652C35.8419 80.652 36.5136 80.4763 37.1129 80.125C37.7122 79.753 38.2186 79.2467 38.6319 78.606C39.0659 77.9447 39.3862 77.1697 39.5929 76.281C39.8202 75.3923 39.9339 74.4313 39.9339 73.398C39.9339 72.344 39.8202 71.383 39.5929 70.515C39.3862 69.6263 39.0659 68.8617 38.6319 68.221C38.2186 67.5597 37.7122 67.0533 37.1129 66.702C36.5136 66.33 35.8419 66.144 35.0979 66.144C34.3332 66.144 33.6512 66.33 33.0519 66.702C32.4526 67.0533 31.9462 67.5597 31.5329 68.221C31.1196 68.8617 30.7992 69.6263 30.5719 70.515C30.3652 71.383 30.2619 72.344 30.2619 73.398C30.2619 74.4313 30.3652 75.3923 30.5719 76.281C30.7992 77.1697 31.1196 77.9447 31.5329 78.606C31.9462 79.2467 32.4526 79.753 33.0519 80.125C33.6512 80.4763 34.3332 80.652 35.0979 80.652ZM54.1353 84.496C53.3293 84.496 52.5233 84.3823 51.7173 84.155C50.932 83.9277 50.1983 83.5763 49.5163 83.101C48.8343 82.6257 48.235 82.0367 47.7183 81.334C47.2223 80.6107 46.8503 79.753 46.6023 78.761L50.2913 77.335C50.5186 78.3683 50.9526 79.195 51.5933 79.815C52.2546 80.435 53.0916 80.745 54.1043 80.745C54.6003 80.745 55.055 80.6623 55.4683 80.497C55.9023 80.311 56.2743 80.063 56.5843 79.753C56.915 79.443 57.163 79.0813 57.3283 78.668C57.5143 78.234 57.6073 77.7587 57.6073 77.242C57.6073 76.746 57.5143 76.2913 57.3283 75.878C57.163 75.444 56.9253 75.072 56.6153 74.762C56.3053 74.4313 55.9333 74.1833 55.4993 74.018C55.086 73.832 54.621 73.739 54.1043 73.739C53.4636 73.739 52.8953 73.8837 52.3993 74.173C51.9033 74.4417 51.4796 74.7827 51.1283 75.196L47.1913 73.398L48.4313 62.796H60.3663V66.361H51.8103L51.0043 71.321L51.2523 71.383C51.6656 71.0317 52.172 70.732 52.7713 70.484C53.3706 70.236 54.094 70.112 54.9413 70.112C55.83 70.112 56.6773 70.2877 57.4833 70.639C58.2893 70.9697 59.0023 71.445 59.6223 72.065C60.2423 72.685 60.7383 73.4393 61.1103 74.328C61.4823 75.196 61.6683 76.1673 61.6683 77.242C61.6683 78.296 61.4823 79.2673 61.1103 80.156C60.7383 81.0447 60.2113 81.8093 59.5293 82.45C58.868 83.0907 58.0723 83.597 57.1423 83.969C56.233 84.3203 55.2306 84.496 54.1353 84.496Z" fill="#F98386"/>
<defs>
<filter id="filter0_d_9623_3218" x="0" y="29" width="89" height="89" filterUnits="userSpaceOnUse" color-interpolation-filters="sRGB">
<feFlood flood-opacity="0" result="BackgroundImageFix"/>
<feColorMatrix in="SourceAlpha" type="matrix" values="0 0 0 0 0 0 0 0 0 0 0 0 0 0 0 0 0 0 127 0" result="hardAlpha"/>
<feMorphology radius="1" operator="dilate" in="SourceAlpha" result="effect1_dropShadow_9623_3218"/>
<feOffset/>
<feGaussianBlur stdDeviation="3"/>
<feComposite in2="hardAlpha" operator="out"/>
<feColorMatrix type="matrix" values="0 0 0 0 0 0 0 0 0 0 0 0 0 0 0 0 0 0 0.25 0"/>
<feBlend mode="normal" in2="BackgroundImageFix" result="effect1_dropShadow_9623_3218"/>
<feBlend mode="normal" in="SourceGraphic" in2="effect1_dropShadow_9623_3218" result="shape"/>
</filter>
<linearGradient id="paint0_linear_9623_3218" x1="152.621" y1="160.099" x2="15.4514" y2="159.989" gradientUnits="userSpaceOnUse">
<stop stop-color="#FF835B"/>
<stop offset="1" stop-color="#F2709C"/>
</linearGradient>
</defs>
</svg>
