<svg xmlns="http://www.w3.org/2000/svg" xmlns:xlink="http://www.w3.org/1999/xlink" viewBox="0 0 136.36 445.43">
    <defs>
        <style>
            .cls-1{fill:url(#New_Gradient_Swatch_1);stroke:url(#New_Gradient_Swatch_1);}
            .cls-2{fill:url(#New_Gradient_Swatch_1-2);stroke:url(#New_Gradient_Swatch_1-2);}
            .cls-3{fill:url(#New_Gradient_Swatch_1-3);stroke:url(#New_Gradient_Swatch_1-3);}
            .cls-4{fill:url(#New_Gradient_Swatch_1-4);stroke:url(#New_Gradient_Swatch_1-4);}
            .cls-5{fill:url(#New_Gradient_Swatch_1-5);stroke:url(#New_Gradient_Swatch_1-5);}
            .cls-6{fill:url(#New_Gradient_Swatch_1-6);stroke:url(#New_Gradient_Swatch_1-6);}
            .cls-7{fill:url(#New_Gradient_Swatch_1-7);stroke:url(#New_Gradient_Swatch_1-7);}
            .cls-8{fill:url(#New_Gradient_Swatch_1-8);stroke:url(#New_Gradient_Swatch_1-8);}
            .cls-9{fill:url(#New_Gradient_Swatch_1-9);stroke:url(#New_Gradient_Swatch_1-9);}
            .cls-10{fill:url(#New_Gradient_Swatch_1-10);stroke:url(#New_Gradient_Swatch_1-10);}
            .cls-11{fill:url(#New_Gradient_Swatch_1-11);stroke:url(#New_Gradient_Swatch_1-11);}
            .cls-12{fill:url(#New_Gradient_Swatch_1-12);stroke:url(#New_Gradient_Swatch_1-12);}
            .cls-13{fill:url(#New_Gradient_Swatch_1-13);stroke:url(#New_Gradient_Swatch_1-13);}
            .cls-14{fill:url(#New_Gradient_Swatch_1-14);stroke:url(#New_Gradient_Swatch_1-14);}
        </style>
        <linearGradient id="New_Gradient_Swatch_1" x1="23.52" y1="159.91" x2="131.3" y2="52.12"
                        gradientUnits="userSpaceOnUse">
            <stop offset="0" stop-color="#ff9472"/>
            <stop offset="0.55" stop-color="#f88287"/>
            <stop offset="1" stop-color="#f2709c"/>
        </linearGradient>
        <linearGradient id="New_Gradient_Swatch_1-2" x1="32.51" y1="326.23" x2="122.52" y2="236.22"
                        xlink:href="#New_Gradient_Swatch_1"/>
        <linearGradient id="New_Gradient_Swatch_1-3" x1="14.92" y1="224.6" x2="51.39" y2="224.6"
                        xlink:href="#New_Gradient_Swatch_1"/>
        <linearGradient id="New_Gradient_Swatch_1-4" x1="28.43" y1="251.69" x2="39.26" y2="251.69"
                        xlink:href="#New_Gradient_Swatch_1"/>
        <linearGradient id="New_Gradient_Swatch_1-5" x1="87.87" y1="89.3" x2="124.34" y2="89.3"
                        xlink:href="#New_Gradient_Swatch_1"/>
        <linearGradient id="New_Gradient_Swatch_1-6" x1="101.37" y1="116.39" x2="112.21" y2="116.39"
                        xlink:href="#New_Gradient_Swatch_1"/>
        <linearGradient id="New_Gradient_Swatch_1-7" x1="32.26" y1="106.79" x2="52.25" y2="106.79"
                        xlink:href="#New_Gradient_Swatch_1"/>
        <linearGradient id="New_Gradient_Swatch_1-8" x1="39.66" y1="121.63" x2="45.6" y2="121.63"
                        xlink:href="#New_Gradient_Swatch_1"/>
        <linearGradient id="New_Gradient_Swatch_1-9" x1="89.43" y1="260.03" x2="136.36" y2="260.03"
                        xlink:href="#New_Gradient_Swatch_1"/>
        <linearGradient id="New_Gradient_Swatch_1-10" x1="106.81" y1="294.88" x2="120.75" y2="294.88"
                        xlink:href="#New_Gradient_Swatch_1"/>
        <linearGradient id="New_Gradient_Swatch_1-11" x1="0" y1="159.8" x2="23.96" y2="159.8"
                        xlink:href="#New_Gradient_Swatch_1"/>
        <linearGradient id="New_Gradient_Swatch_1-12" x1="8.87" y1="177.6" x2="15.99" y2="177.6"
                        xlink:href="#New_Gradient_Swatch_1"/>
        <linearGradient id="New_Gradient_Swatch_1-13" x1="109.61" y1="195.71" x2="133.57" y2="195.71"
                        xlink:href="#New_Gradient_Swatch_1"/>
        <linearGradient id="New_Gradient_Swatch_1-14" x1="118.48" y1="213.51" x2="125.6" y2="213.51"
                        xlink:href="#New_Gradient_Swatch_1"/>
    </defs>
    <g id="Layer_2" data-name="Layer 2">
        <g id="Layer_1-2" data-name="Layer 1">
            <path class="cls-1"
                  d="M91.3,199.84H63.45V187.93a11.23,11.23,0,0,1,1.6-5.76,25.52,25.52,0,0,1,3.7-4.78c1.42-1.47,3-2.93,4.55-4.34a59.82,59.82,0,0,0,4.33-4.23,22.8,22.8,0,0,0,3.2-4.37A9,9,0,0,0,82,159.94a9.79,9.79,0,0,0-.53-3.19,7.3,7.3,0,0,0-3.91-4.36,7.27,7.27,0,0,0-3.22-.67,7.75,7.75,0,0,0-3.86.81,6,6,0,0,0-2.2,2.11,8.74,8.74,0,0,0-1.13,3.21,25.42,25.42,0,0,0-.33,4.11v1.91a11.83,11.83,0,0,0,.12,1.67l.29,2H37.37L37.21,166c-.09-.92-.19-1.81-.28-2.67a26.28,26.28,0,0,1-.15-2.86,28.33,28.33,0,0,1,3.13-13.35A30.28,30.28,0,0,1,48.51,137a39.4,39.4,0,0,1,12.88-6.3,56,56,0,0,1,14.32-2.14V0h3.47V132H77.45a54.14,54.14,0,0,0-15.08,2,36.24,36.24,0,0,0-11.76,5.74A26.79,26.79,0,0,0,43,148.7a25,25,0,0,0-2.73,11.73,22.17,22.17,0,0,0,.13,2.49l.12,1.13h22.8V162a30,30,0,0,1,.37-4.67,12.36,12.36,0,0,1,1.59-4.45,9.46,9.46,0,0,1,3.44-3.32,11.1,11.1,0,0,1,5.6-1.28,10.79,10.79,0,0,1,4.72,1,11,11,0,0,1,3.5,2.6,10.81,10.81,0,0,1,2.2,3.76,13.2,13.2,0,0,1,.72,4.33,12.58,12.58,0,0,1-1.58,6.21,26.28,26.28,0,0,1-3.68,5,62.82,62.82,0,0,1-4.59,4.48c-1.53,1.35-3,2.74-4.35,4.15a22.34,22.34,0,0,0-3.2,4.13,7.58,7.58,0,0,0-1.12,4v8.43H87.82V192a6.94,6.94,0,0,1,2.32-4.92,41,41,0,0,1,4.73-4c1.81-1.32,3.75-2.76,5.83-4.34a39.42,39.42,0,0,0,5.6-5.17,27.44,27.44,0,0,0,4.26-6.38,18.16,18.16,0,0,0,1.63-7.88,25.27,25.27,0,0,0-2.47-11.24,24.82,24.82,0,0,0-7-8.6,33.26,33.26,0,0,0-11-5.55l1-3.32a36.45,36.45,0,0,1,12.09,6.14,28.23,28.23,0,0,1,7.94,9.79,28.87,28.87,0,0,1,2.82,12.78,21.55,21.55,0,0,1-2,9.39,30.87,30.87,0,0,1-4.8,7.2,43,43,0,0,1-6.1,5.62Q99.66,184,96.92,186a37.62,37.62,0,0,0-4.32,3.62A3.67,3.67,0,0,0,91.3,192Z"/>
            <polygon class="cls-2"
                     points="79.18 369.43 75.71 369.43 75.71 231.81 63.53 231.81 63.53 205.34 91.64 205.34 91.64 230.07 88.16 230.07 88.16 208.81 67.01 208.81 67.01 228.34 79.18 228.34 79.18 369.43"/>
            <path class="cls-3"
                  d="M28.39,241.3v-5.08a4,4,0,0,1,.57-2.05,11.12,11.12,0,0,1,1.63-2.1c.69-.72,1.43-1.42,2.2-2.11a29,29,0,0,0,2.31-2.25A13.14,13.14,0,0,0,37,225.18a6.32,6.32,0,0,0,.78-3.1,6.57,6.57,0,0,0-.36-2.16,5.3,5.3,0,0,0-1.09-1.87,5.56,5.56,0,0,0-1.75-1.3,5.4,5.4,0,0,0-2.35-.5,5.46,5.46,0,0,0-2.79.64,4.6,4.6,0,0,0-1.71,1.65,6.12,6.12,0,0,0-.79,2.22,13.94,13.94,0,0,0-.19,2.34v1.13H15.05L15,223.6a10.35,10.35,0,0,1-.07-1.27,12.69,12.69,0,0,1,1.39-6,13.52,13.52,0,0,1,3.87-4.53,18.21,18.21,0,0,1,6-2.91,27.18,27.18,0,0,1,7.63-1,25.17,25.17,0,0,1,7.28,1,16.87,16.87,0,0,1,5.55,2.82,12.43,12.43,0,0,1,3.54,4.36,12.9,12.9,0,0,1,1.25,5.71,9.24,9.24,0,0,1-.83,4,13.37,13.37,0,0,1-2.16,3.24,20,20,0,0,1-2.84,2.62q-1.58,1.2-2.94,2.19a19.17,19.17,0,0,0-2.38,2,3.4,3.4,0,0,0-1.15,2.43v3Z"/>
            <rect class="cls-4" x="28.43" y="246.69" width="10.83" height="10.01"/>
            <path class="cls-5"
                  d="M101.33,106v-5.08a3.88,3.88,0,0,1,.58-2,11.38,11.38,0,0,1,1.62-2.1c.69-.71,1.43-1.42,2.21-2.1s1.59-1.48,2.31-2.26a13.19,13.19,0,0,0,1.85-2.53,6.29,6.29,0,0,0,.79-3.09,6.63,6.63,0,0,0-.36-2.17,5.5,5.5,0,0,0-2.84-3.17,5.43,5.43,0,0,0-2.35-.5,5.58,5.58,0,0,0-2.8.64,4.75,4.75,0,0,0-1.71,1.65,6.38,6.38,0,0,0-.79,2.22,15.21,15.21,0,0,0-.18,2.35v1.13H88c0-.22,0-.43-.07-.64,0-.4-.06-.83-.06-1.27a12.64,12.64,0,0,1,1.38-6,13.78,13.78,0,0,1,3.87-4.54,18.46,18.46,0,0,1,6-2.91,27.08,27.08,0,0,1,7.63-1,25.1,25.1,0,0,1,7.27,1,16.83,16.83,0,0,1,5.56,2.82,12.74,12.74,0,0,1,3.54,4.36,12.9,12.9,0,0,1,1.25,5.71,9.11,9.11,0,0,1-.84,4,14,14,0,0,1-2.15,3.24,21.15,21.15,0,0,1-2.84,2.62l-3,2.19a21.85,21.85,0,0,0-2.38,2A3.46,3.46,0,0,0,112,103v3Z"/>
            <rect class="cls-6" x="101.37" y="111.38" width="10.83" height="10.01"/>
            <path class="cls-7"
                  d="M39.64,115.93v-2.78A2.07,2.07,0,0,1,40,112a6.14,6.14,0,0,1,.89-1.15c.37-.39.78-.78,1.2-1.15a16.58,16.58,0,0,0,1.27-1.24,6.82,6.82,0,0,0,1-1.39,3.38,3.38,0,0,0,.44-1.69,3.67,3.67,0,0,0-.2-1.19,3.06,3.06,0,0,0-.6-1,2.73,2.73,0,0,0-1-.71,2.84,2.84,0,0,0-1.29-.28,3.06,3.06,0,0,0-1.53.35,2.59,2.59,0,0,0-.93.9,3.48,3.48,0,0,0-.44,1.22,9.1,9.1,0,0,0-.1,1.29v.61H32.34c0-.11,0-.23,0-.34a5.27,5.27,0,0,1,0-.7,7,7,0,0,1,.76-3.26,7.41,7.41,0,0,1,2.12-2.48,10.08,10.08,0,0,1,3.27-1.6,15,15,0,0,1,4.18-.56,13.89,13.89,0,0,1,4,.55,9.26,9.26,0,0,1,3,1.54,7,7,0,0,1,1.94,2.39,7.15,7.15,0,0,1,.69,3.13,5.09,5.09,0,0,1-.46,2.2,8,8,0,0,1-1.18,1.78,11.65,11.65,0,0,1-1.56,1.43c-.58.44-1.11.84-1.61,1.2a11.26,11.26,0,0,0-1.31,1.1,1.89,1.89,0,0,0-.63,1.33v1.64Z"/>
            <rect class="cls-8" x="39.66" y="118.89" width="5.94" height="5.48"/>
            <path class="cls-9"
                  d="M106.76,281.51V275a5,5,0,0,1,.74-2.64,14.54,14.54,0,0,1,2.09-2.7c.89-.92,1.84-1.82,2.84-2.7s2-1.91,3-2.9a17.48,17.48,0,0,0,2.38-3.26,8.06,8.06,0,0,0,1-4,8.4,8.4,0,0,0-.46-2.78,6.91,6.91,0,0,0-1.41-2.41,7.07,7.07,0,0,0-2.24-1.67,6.91,6.91,0,0,0-3-.65,7.17,7.17,0,0,0-3.59.82,5.93,5.93,0,0,0-2.2,2.13,7.75,7.75,0,0,0-1,2.85,18.93,18.93,0,0,0-.24,3v1.45h-15c0-.28,0-.55-.08-.82a14.05,14.05,0,0,1-.09-1.63,16.21,16.21,0,0,1,1.79-7.66,17.46,17.46,0,0,1,5-5.83,23.35,23.35,0,0,1,7.67-3.74,34.71,34.71,0,0,1,9.82-1.32,31.88,31.88,0,0,1,9.35,1.29,21.77,21.77,0,0,1,7.15,3.62,16.15,16.15,0,0,1,4.55,5.62,16.53,16.53,0,0,1,1.62,7.35,11.72,11.72,0,0,1-1.08,5.16,17.68,17.68,0,0,1-2.78,4.16,25.23,25.23,0,0,1-3.65,3.38q-2,1.53-3.79,2.81a26.91,26.91,0,0,0-3.06,2.57,4.44,4.44,0,0,0-1.48,3.13v3.87Z"/>
            <rect class="cls-10" x="106.81" y="288.45" width="13.94" height="12.87"/>
            <path class="cls-11"
                  d="M8.85,170.77v-3.33a2.53,2.53,0,0,1,.38-1.35,7,7,0,0,1,1.06-1.38c.46-.47.94-.93,1.45-1.38s1-1,1.52-1.48a8.58,8.58,0,0,0,1.22-1.67,4.13,4.13,0,0,0,.51-2,4.49,4.49,0,0,0-.23-1.42,3.55,3.55,0,0,0-1.87-2.08,3.48,3.48,0,0,0-1.54-.33,3.74,3.74,0,0,0-1.84.41,3.08,3.08,0,0,0-1.12,1.09,4.1,4.1,0,0,0-.52,1.46,9.8,9.8,0,0,0-.12,1.54v.74H.09c0-.14,0-.28,0-.42a7.33,7.33,0,0,1,0-.83,8.35,8.35,0,0,1,.91-3.91,9,9,0,0,1,2.54-3,11.94,11.94,0,0,1,3.92-1.91,17.72,17.72,0,0,1,5-.67,16.57,16.57,0,0,1,4.77.65,11.35,11.35,0,0,1,3.66,1.85A8.18,8.18,0,0,1,24,158a6.1,6.1,0,0,1-.54,2.64A9.42,9.42,0,0,1,22,162.73a13.72,13.72,0,0,1-1.87,1.72l-1.93,1.44a13.23,13.23,0,0,0-1.57,1.31,2.26,2.26,0,0,0-.75,1.6v2Z"/>
            <rect class="cls-12" x="8.87" y="174.32" width="7.12" height="6.57"/>
            <path class="cls-13"
                  d="M118.45,206.68v-3.34a2.63,2.63,0,0,1,.38-1.35,7.79,7.79,0,0,1,1.07-1.38c.45-.46.94-.93,1.45-1.38a19.37,19.37,0,0,0,1.52-1.48,9.23,9.23,0,0,0,1.21-1.66,4.07,4.07,0,0,0,.52-2,4.32,4.32,0,0,0-.24-1.42,3.67,3.67,0,0,0-.71-1.23,3.91,3.91,0,0,0-1.15-.85,3.56,3.56,0,0,0-1.55-.33,3.62,3.62,0,0,0-1.83.42,3,3,0,0,0-1.13,1.09,4.17,4.17,0,0,0-.52,1.45,9.89,9.89,0,0,0-.12,1.54v.75h-7.66c0-.15,0-.28,0-.42a7.33,7.33,0,0,1,0-.83,8.27,8.27,0,0,1,.91-3.92,8.93,8.93,0,0,1,2.54-3,12.14,12.14,0,0,1,3.92-1.91,18.07,18.07,0,0,1,5-.67,16.29,16.29,0,0,1,4.78.66,10.82,10.82,0,0,1,3.65,1.85,8.28,8.28,0,0,1,2.33,2.87,8.5,8.5,0,0,1,.82,3.75,6,6,0,0,1-.55,2.64,8.84,8.84,0,0,1-1.42,2.12,12.6,12.6,0,0,1-1.86,1.73c-.69.52-1.34,1-1.94,1.43a14.07,14.07,0,0,0-1.56,1.32,2.27,2.27,0,0,0-.76,1.59v2Z"/>
            <rect class="cls-14" x="118.48" y="210.22" width="7.12" height="6.57"/>
            <line class="cls-2" x1="77.5" y1="250" x2="77.5" y2="440" fill='none' stroke-width="4.50"/>
            <line class="cls-5" x1="75.5" y1="439" x2="110" y2="439" fill='none' stroke-width="4.50"/>
        </g>
    </g>
</svg>