<?xml version="1.0" encoding="utf-8"?>
<!-- Generator: Adobe Illustrator 25.2.0, SVG Export Plug-In . SVG Version: 6.00 Build 0)  -->
<svg version="1.1" id="Layer_1" xmlns="http://www.w3.org/2000/svg" xmlns:xlink="http://www.w3.org/1999/xlink" x="0px" y="0px"
	 viewBox="0 0 1666.7 1000" style="enable-background:new 0 0 791.2 500;" xml:space="preserve">
<style type="text/css">
	.st0{fill:#D7EFFF;}
	.st1{fill:#3A9E32;}
	.st2{fill:#1F753D;}
	.st3{fill:#504C56;}
	.st4{fill:#FFFFFF;}
	.st5{fill:#FDB997;}
	.st6{fill:#1C191F;}
	.st7{fill:#A1AEC3;}
	.st8{fill:#FFA982;}
	.st9{fill:#DC658D;}
	.st10{fill:#F87097;}
	.st11{fill:#FD947D;}
	.st12{fill:#3A363F;}
	.st13{fill:#2E2E47;}
	.st14{fill:#F2836D;}
	.st15{fill:#919EAF;}
	.st16{fill:#DDDAD9;}
</style>
<path class="st0" d="M1167.3,820.5c0,10.3-12.7,17.4-26,26.7c-8.6,6-16.4,17.9-29.8,23.4c-10.5,4.2-24.6,1.6-37.7,5.5
	c-11.2,3.3-21.5,13.2-34.5,16.1c-11.6,2.6-25.2-1.8-38.1,0.4c-11.8,2.1-23,11-35.8,12.8c-12,1.7-25.2-3.7-38-2.3
	c-12.1,1.4-23.8,9.6-36.5,10.7c-12.2,1-25.1-5.1-37.8-4.3c-12.2,0.8-24.3,8.4-37,9c-12.3,0.5-25-6.2-37.6-5.9
	c-12.3,0.2-24.7,7.4-37.3,7.4c-12.6,0-25-7.2-37.3-7.4c-12.6-0.3-25.3,6.4-37.6,5.9c-12.7-0.5-24.8-8.2-37-9
	c-12.7-0.8-25.6,5.3-37.8,4.3c-12.7-1.1-24.4-9.3-36.5-10.7c-12.7-1.4-26,4-38,2.3c-12.8-1.8-24-10.7-35.8-12.8
	c-12.8-2.3-26.5,2.2-38.1-0.4c-12.9-2.9-23.3-12.8-34.5-16.1c-13.1-3.8-27.2-1.2-37.7-5.5c-13.4-5.4-21.2-17.3-29.8-23.4
	c-13.3-9.3-26-16.4-26-26.7s12.7-17.4,26-26.7c8.6-6,16.4-17.9,29.8-23.4c10.5-4.2,24.6-1.6,37.7-5.5c11.2-3.3,21.5-13.2,34.5-16.1
	c11.6-2.6,25.2,1.8,38.1-0.4c11.8-2.1,23-11,35.8-12.8c12-1.7,25.2,3.7,38,2.3c12.1-1.4,23.8-9.6,36.5-10.7
	c12.2-1,25.1,5.1,37.8,4.3c12.2-0.8,24.3-8.4,37-9c12.3-0.5,25,6.2,37.6,5.9c12.3-0.2,24.7-7.4,37.3-7.4c12.6,0,25,7.2,37.3,7.4
	c12.6,0.3,25.3-6.4,37.6-5.9c12.7,0.5,24.8,8.2,37,9c12.7,0.8,25.6-5.3,37.8-4.3c12.7,1.1,24.4,9.3,36.5,10.7c12.7,1.4,26-4,38-2.3
	c12.8,1.8,24,10.7,35.8,12.8c12.8,2.3,26.5-2.2,38.1,0.4c12.9,2.9,23.3,12.8,34.5,16.1c13.1,3.8,27.2,1.2,37.7,5.5
	c13.4,5.4,21.2,17.3,29.8,23.4C1154.6,803.1,1167.3,810.1,1167.3,820.5z"/>
<path class="st1" d="M187.7,807.2l16.1-96.9c0,0,28-19.9,43.3-42.8c25.2-37.6,38.5-222.8,23.5-228.2c-15-5.4-81.8,116.1-94.7,182.1
	c-10.2,52.1,17.9,83,17.5,86.6c-0.4,3.6-14.8,95.7-14.8,95.7L187.7,807.2z"/>
<path class="st2" d="M140.1,813.3c0,0-6.6-43.2-7.6-46.2c-1-3.1-13.4-71.2-13.4-71.2s6.3-46.2-1.8-96.6
	c-8.1-50.4-50.6-131.5-56.8-124.8c-6.2,6.7-3.4,160.8,14.7,190.5c18.2,29.6,38.4,35.8,38.4,35.8s16.1,89.7,16.8,97.3
	s1.4,15.4,1.4,15.4L140.1,813.3L140.1,813.3z"/>
<path class="st1" d="M158.5,788.7c0,0-2.3-27.8-2.3-30.8c0-6-11.6-42.5-8.4-55.1c3.1-12.6-33.1-165.3-45.3-163
	c-12.2,2.2-19.6,65.5,14.8,171.8c3,9.3,16,3.4,22.1,14.9s10.8,62.3,10.8,62.3L158.5,788.7L158.5,788.7z"/>
<path class="st2" d="M172.5,791.1c0,0-3.3-84.9-2.8-91.9s11.8-46,20-65.8c8.2-19.8-15.7-257.7-33.6-255.6s-42.6,166.7-49.6,201.3
	s50.5,107.5,52.6,112.9c2.1,5.4,6.1,99.1,6.1,99.1L172.5,791.1L172.5,791.1z"/>
<path class="st3" d="M113.1,784.6h103.9c0,0,11.3,56.2-19.1,87.3h-60C137.8,871.9,104.2,851,113.1,784.6z"/>
<path class="st4" d="M158.5,477.1c-0.4,0-0.7-0.3-0.7-0.7c-0.7-17.6-2.4-88.3-2.4-89c0-0.4,0.3-0.7,0.7-0.7c0.4,0,0.7,0.3,0.7,0.7
	c0,0.7,1.7,71.4,2.4,89C159.3,476.7,159,477,158.5,477.1C158.6,477.1,158.6,477.1,158.5,477.1z M158.5,565.4c-0.4,0-0.7-0.3-0.7-0.7
	v-73.3c0-0.4,0.3-0.7,0.7-0.7c0.4,0,0.7,0.3,0.7,0.7v73.3C159.3,565.1,159,565.4,158.5,565.4z M164.4,685.6c-0.4,0-0.7-0.3-0.7-0.7
	c0-0.2-2.1-19-2.4-31.9c-0.3-12.9-3.4-74.7-3.4-75.3c0-0.4,0.3-0.7,0.7-0.8c0.4,0,0.7,0.3,0.8,0.7c0,0.6,3.1,62.5,3.4,75.4
	c0.3,12.8,2.4,31.6,2.4,31.8C165.1,685.2,164.8,685.6,164.4,685.6C164.4,685.6,164.4,685.6,164.4,685.6z M152.2,555.8
	c-0.1,0-0.2,0-0.4-0.1L117,535.9c-0.4-0.2-0.5-0.6-0.3-1c0.2-0.4,0.6-0.5,1-0.3l34.8,19.8c0.4,0.2,0.5,0.6,0.3,1
	C152.7,555.7,152.5,555.8,152.2,555.8z M162.5,555.8c-0.2,0-0.4-0.1-0.5-0.2c-0.3-0.3-0.3-0.7-0.1-1l20-22.1c0.3-0.3,0.7-0.3,1,0
	c0.3,0.3,0.3,0.7,0.1,1l-20,22.1C162.9,555.7,162.7,555.8,162.5,555.8z M155.8,500.1c-0.1,0-0.2,0-0.3-0.1l-30.3-12.6
	c-0.4-0.2-0.6-0.6-0.4-1c0.2-0.4,0.6-0.5,1-0.4l30.3,12.6c0.4,0.2,0.6,0.6,0.4,1C156.4,499.9,156.1,500.1,155.8,500.1z M163.6,490
	c-0.2,0-0.4-0.1-0.5-0.2c-0.3-0.3-0.3-0.7,0-1l10-10.8c0.3-0.3,0.7-0.3,1,0c0.3,0.3,0.3,0.7,0,1l-10,10.8
	C164,490,163.8,490,163.6,490z M134.8,598.7c-0.1,0-0.3,0-0.4-0.1l-13.1-7.7c-0.3-0.2-0.5-0.7-0.3-1c0.2-0.3,0.7-0.5,1-0.3l13.1,7.7
	c0.3,0.2,0.5,0.7,0.3,1C135.3,598.6,135,598.7,134.8,598.7z"/>
<path class="st4" d="M158.5,609.5c-0.1,0-0.2,0-0.3,0l-18.4-6.9c-0.4-0.1-0.6-0.6-0.4-0.9c0.1-0.4,0.6-0.6,0.9-0.4l18.4,6.9
	c0.4,0.1,0.6,0.6,0.4,0.9C159.1,609.3,158.8,609.5,158.5,609.5z M163.6,606c-0.2,0-0.3-0.1-0.5-0.2c-0.3-0.3-0.3-0.7-0.1-1L182,583
	c0.3-0.3,0.7-0.3,1-0.1c0.3,0.3,0.3,0.7,0.1,1l-18.9,21.8C164,605.9,163.8,606,163.6,606z M138.1,628.2c-0.1,0-0.2,0-0.2,0
	l-14.9-5.3c-0.4-0.1-0.6-0.6-0.4-0.9c0.1-0.4,0.6-0.6,0.9-0.4l14.9,5.3c0.4,0.1,0.6,0.6,0.4,0.9C138.7,628,138.4,628.2,138.1,628.2z
	 M160.9,636.7c-0.1,0-0.2,0-0.3,0l-19-7.1c-0.4-0.1-0.6-0.6-0.4-0.9c0.1-0.4,0.6-0.6,0.9-0.4l19,7.1c0.4,0.1,0.6,0.6,0.4,0.9
	C161.5,636.5,161.2,636.7,160.9,636.7z M161.7,646.6c-0.2,0-0.4-0.1-0.5-0.2c-0.3-0.3-0.3-0.8,0-1l16.7-15.9c0.3-0.3,0.8-0.3,1,0
	s0.3,0.8,0,1l-16.7,15.9C162.1,646.5,161.9,646.6,161.7,646.6z M180.5,628.2c-0.2,0-0.4-0.1-0.5-0.2c-0.3-0.3-0.2-0.8,0-1l9-8.2
	c0.3-0.3,0.8-0.2,1,0c0.3,0.3,0.2,0.8,0,1l-9,8.2C180.8,628.1,180.6,628.2,180.5,628.2z M199.5,703c-0.1,0-0.1,0-0.2,0
	c-0.4-0.1-0.6-0.5-0.5-0.9l31.1-127.2c0.1-0.4,0.5-0.6,0.9-0.5c0.4,0.1,0.6,0.5,0.5,0.9l-31.1,127.2
	C200.1,702.8,199.8,703,199.5,703z M258.4,474.7c-0.1,0-0.1,0-0.2,0c-0.4-0.1-0.6-0.5-0.5-0.9l6.1-22.6c0.1-0.4,0.5-0.6,0.9-0.5
	c0.4,0.1,0.6,0.5,0.5,0.9l-6.1,22.6C259,474.4,258.7,474.7,258.4,474.7z M248.7,510.8c-0.1,0-0.1,0-0.2,0c-0.4-0.1-0.6-0.5-0.5-0.9
	l6.6-24.4c0.1-0.4,0.5-0.6,0.9-0.5c0.4,0.1,0.6,0.5,0.5,0.9l-6.6,24.4C249.3,510.6,249,510.8,248.7,510.8z M234,565.4
	c-0.1,0-0.1,0-0.2,0c-0.4-0.1-0.6-0.5-0.5-0.9l11.6-43.3c0.1-0.4,0.5-0.6,0.9-0.5c0.4,0.1,0.6,0.5,0.5,0.9l-11.6,43.3
	C234.6,565.2,234.3,565.4,234,565.4z"/>
<g>
	<path class="st5" d="M358.8,583.7c2,1.1,4.4,5.2,3.4,10.6s-6.7,6.2-6.7,6.2l19.9,2.6l5.8-29.9c0,0-14-0.5-17.5-2.3
		c-0.3-0.2-0.7-0.4-1-0.7c-2.7,2.9-7.6,8.5-8,11.6C354,586.1,356.8,582.6,358.8,583.7z"/>
	<path class="st6" d="M329.4,633.7c6.7-8.6,26.1-33.1,26.1-33.1s5.7-0.8,6.7-6.2c1-5.4-1.4-9.5-3.4-10.6s-4.8,2.3-4.2-1.9
		c0.4-3.1,5.4-8.7,8-11.6c-3.4-2.5-8-8.3-14.3-9.1c-7-0.8-48.9,52.3-46.6,69.3C304.1,647.4,322.8,642.3,329.4,633.7z"/>
	<path class="st7" d="M310,640.1c-0.3,0-0.6-0.2-0.7-0.5c-3.2-8.2,1.8-19.6,10.9-35.4c8.8-15.2,32.7-41.4,32.9-41.7
		c0.3-0.3,0.7-0.3,1,0s0.3,0.7,0,1c-0.2,0.3-24,26.3-32.7,41.4c-12,20.7-13,28.6-10.8,34.1c0.1,0.4,0,0.8-0.4,0.9
		C310.2,640.1,310.1,640.1,310,640.1z"/>
	<path class="st6" d="M737.2,215l5.8,33.9c0,0-36.9-0.3-37.6-1.3c-0.7-1,7.3-50.9,16.4-50.1C730.9,198.3,737.2,215,737.2,215z
		 M681.9,164.8c0,0-29.4,35.3-38.1,43.7c-8.8,8.4-67.4,62.9-78.3,81.3l13.4,13.4l7-6l-2.9,10.1l45.2,26.9c0,0,35.7-55.6,47.1-74
		C686.6,241.9,681.9,164.8,681.9,164.8z M560.1,404c-0.7,0-10.2,7.2-10.2,7.2s-8.8,9.5-2.7,21.4c6.2,11.8,110.5,29.9,101.9,11.8
		C640.7,426.3,593.8,403,560.1,404z"/>
	<path class="st5" d="M652.2,834.3c0.9-2.1,4.6-5,10.1-4.6s7,5.9,7,5.9l0.3-20.1l-30.4-2.2c0,0,1.1,13.9-0.3,17.6
		c-0.1,0.4-0.3,0.7-0.5,1.1c3.2,2.3,9.3,6.6,12.4,6.7C655.1,838.8,651.3,836.4,652.2,834.3z"/>
	<path class="st6" d="M705.2,857.7c-9.3-5.6-35.9-22.1-35.9-22.1s-1.5-5.5-7-5.9s-9.3,2.5-10.1,4.6s2.9,4.5-1.4,4.4
		c-3.1-0.1-9.3-4.3-12.4-6.7c-2,3.7-7.3,8.9-7.3,15.3c0,7,57.6,42.4,74.2,38.2C721.8,881.3,714.5,863.3,705.2,857.7z"/>
	<path class="st3" d="M565.1,411.4C545.2,424.1,523.8,535,519,561.7c-0.5,2.8-3.6,4.2-6,2.7l0,0c-5-3-11.2-2.8-16,0.5l-3.5,2.5
		L374.9,567l-10.1,95.5c0,0,63.8,0.7,126.6-5.3c5.2-0.5,21.7,11.3,26.5,9.8c23.6-7.3,32.9,5,44.1-0.5c34.3-17,60.9-100.5,60.9-100.5
		s1.1,37.3,1.3,60.5c0.1,11.2-3.5,65.2-4.3,76.4c-0.7,10-8.8,28.8-10.5,38.6c-3.5,20.1-6.3,81.4-6.3,81.4l92.3,5l16.1-194.9l0.7-8.4
		l13.6-164.5C725.8,460.3,581.1,401.3,565.1,411.4z"/>
	<path class="st4" d="M557.2,407.8c0,0-8,7.2-7.2,12.7c0.7,5.5,19.7,0.1,31.3,5.9c11.5,5.8,46,36.5,60.3,39.3
		c14.3,2.8,36.2,0,36.2,0s43.2,14.6,54.1,11.3c10.9-3.3,0-18,0-18s-75.5-18.8-93-28.8C621.3,420.3,574.5,405.4,557.2,407.8z"/>
	<path class="st7" d="M675.9,227.9c0,0-32.3,2.7-53.3,32.1c-21,29.4-72.7,151.1-72.7,151.1s19.2-2.6,40.2,5
		c14.2,5.2,43.2,29.1,66,37.2c61.6,22,81,8,81,8c14.5-65.6,48.6-160.4,10.1-224.2C742.1,228.6,725.4,221.4,675.9,227.9z"/>
	<path class="st8" d="M1102.9,703.5c4.1,2.3,11.7,6.7,13.6,0.4s-10-10.3-9.3-13.1s4.6-9.5,4.6-9.5c0,0,0,0,0,0c0,0,0,0,0,0l-12.4-6
		l-12.8,26c0,0,7.7,4.5,9.3,5.5C1096,706.8,1098.8,701.2,1102.9,703.5z"/>
	<path class="st7" d="M1179.5,651c-4.9-0.2-12.6,11.4-17.2,14.1c-4.6,2.7-40.9,4-45.8,10.4c-3.9,5-4.5,5.8-4.5,5.9
		c0,0-3.9,6.7-4.6,9.5s11.2,6.8,9.3,13.1c-1.9,6.3-9.5,1.9-13.6-0.4c-4.1-2.3-7,3.3-7,3.3c1.6,1,2.2,14.1,5.8,18.4s5.1,6.7,5.1,6.7
		s2.1,7.1,6.9,15.1c4.8,8,18.3-2.9,23.3-8.3c5-5.4,0.2-9.5,4.4-13c4.2-3.5,5.2,2.3,8.3-1.2c3.1-3.5,33.3-42.8,37.1-50.4
		C1190.8,666.4,1184.4,651.2,1179.5,651z"/>
	<path class="st6" d="M1114.2,687.6c0,0,5.1-12.3,7.5-13c2.4-0.7,16.3-4,17.5-3.4c1.2,0.6-1.9,13.3-5.2,13.9
		C1130.7,685.6,1114.2,687.6,1114.2,687.6z"/>
	<path class="st8" d="M830.8,833.3c0.7,4.7,1.8,13.3,8,11c6.2-2.3,2-14.2,4.7-15.3c2.7-1.2,10.3-2.2,10.3-2.2c0,0,0,0,0,0
		c0,0,0,0,0,0l-2.8-13.5l-28.4,5.8c0,0,1.2,8.8,1.3,10.7C823.9,829.8,830.1,828.6,830.8,833.3z"/>
	<path class="st7" d="M861.2,826.8c-6.4,0-7.3,0-7.4,0c0,0-7.7,1-10.3,2.2c-2.7,1.2,1.5,13-4.7,15.3c-6.2,2.3-7.3-6.3-8-11
		c-0.7-4.7-6.8-3.5-6.8-3.5c0.2,1.8-9.8,10.3-11,15.9c-0.3,1.3-0.5,2.5-0.8,3.5c-0.7,2.8-0.8,5.7-0.3,8.5c0.5,2.9,0.7,7.1-1.1,11.9
		c-3.3,8.7,14,14,21.4,14.7c7.3,0.7-0.5-8,4.8-6.8c2.6,0.6,1.5,5.1,7,8.6c5.7,3.7,19.3,8.2,38.6,5.2c14.2-2.2,22.7-24.4,8-29.7
		C871.5,854.6,865.6,826.8,861.2,826.8z"/>
	<path class="st6" d="M851.1,834.9c-0.5-1.4,0.4-2.8,1.8-3.1c3.2-0.7,8.6-1.7,9.9-0.6c2,1.5,6.8,12.2,7,13.5
		c0.2,1.4-10.4,5.5-12.9,3.2C855.1,846.3,852.4,838.9,851.1,834.9z"/>
	<path class="st6" d="M798.6,153.9c0,0,4,6.8,10.2,12.8s7.8,8.3,8.5,14.7c0.7,6.3-2.4,16.8,2.7,21.1c5.1,4.3,19.8,14,17.1,27
		c-2.6,13-30.2,13.5-40.3,8.1s-14.9-30.4-15.4-34.9C781,198.2,780.1,143.4,798.6,153.9z"/>
	<path class="st9" d="M832.6,217.1c0,0,120,35.1,133.5,85.6s-40.7,58.9-61.5,45.3C874.4,328.2,835,236.6,832.6,217.1z"/>
	<path class="st6" d="M848.1,236.2c0,0,33.6,43,41.7,59.2c5.8,11.5,16.1,49.1,16.1,49.1s-22.9-20.8-28.9-26.3
		S849.3,250.8,848.1,236.2z M901.5,367.3l124.2,163.2c1.8,2.3,3.2,4.8,4.4,7.5l0,0c3.9,8.9,9.2,17.2,15.7,24.4l63.7,70.6l7.5,2.1
		l10.6,21.1c0,0-2.6,14.5-15.7,30.5c-7.4,9.1-36.5,29-36.5,29l-26.8-23.5l4.2-9.7l-62.4-47.2c-4.5-3.4-8.4-7.7-11.5-12.4
		c-5.2-8.2-13.7-21-18.4-25.6c-3.8-3.8-17.8-12.3-17.8-12.3l-59.1-58.7l0.8,137.1l6.2,33.7l-5.8,29.4l0.3,48.9c0,2.6,1,5.1,2.7,7.1
		l4.1,4.7c1.8,2.1,2.7,4.8,2.7,7.5l-0.8,23.7c0,0-18.3,5.9-44.5,5.5c-28.8-0.4-50.6-5.5-50.6-5.5l-1.6-21.1
		c-0.3-4.2,10.7-15.6,10.7-15.6s-16.6-112.9-29.7-208c-1.3-9.3-13.3-23-15.8-41.3c-3.4-24.4,0-38.5,0-54.1c0-35,7.7-56.1,7.7-56.1
		L901.5,367.3z"/>
	<path class="st10" d="M738.7,260.1c-11.9,20.2-7.3,87.9,5.9,128.9C750.3,407,770,422,770,422s18.2-4.9,71.7-20
		c47.4-13.3,59.7-34.7,59.7-34.7s2.8-15.5,0-20.7c-4.8-8.9-25.4-35.7-25.4-35.7s-23.5-102.1-60.2-100.1
		c-23.7,1.3-32.5,10.2-47.7,20.5c-3.4,2.3-11.1,6.2-14,8.7C747.2,246.3,744,251.2,738.7,260.1z"/>
	<path class="st9" d="M763,365.1c0-5.6-0.1-11.3-2.6-16.5c-9.1-18.8-11.7-31.8-9.1-44.8c3-14.9,2.9-45.7,2.6-63.5
		c-2.3,2.1-4.2,4-5.9,6c0.2,17.9,0,43.6-2.6,56.3c-2.8,14.3,0,28.8,9.6,48.6c1.9,4,2,8.8,2,14c0,5.2,0.1,10.5,2.1,15.5
		c5.2,12.9,11.4,28,16.3,39.9c1.6-0.4,3.5-1,5.8-1.6c-4.9-11.9-11.3-27.4-16.5-40.5C763,374.5,763,370,763,365.1z M802.2,402
		c-4.4-11.2-12.7-32-16.6-51.1l-0.1-0.6c-5.6-27.1-7.1-34.4-8.3-51.1c-0.9-12.8-0.8-54.6-0.7-73.8c-1.9,1.4-3.9,2.8-6,4.2
		c-0.1,20.6-0.1,57.7,0.8,70c1.2,17.1,2.7,24.5,8.4,51.9l0.1,0.6c4.1,19.6,12.4,40.7,16.9,52.1c1.3,3.3,2.5,6.3,2.8,7.4
		c0,0.5,0,1.2,0,2.2c1.9-0.5,3.9-1.1,6-1.7C805.7,410.9,805.3,409.8,802.2,402z M821.3,377.4c-3-19.1-6.6-43-12.5-62
		c-7.9-25.4-16.7-78.5-19.7-97.9c-1.9,1-3.8,2.1-5.6,3.2c3.4,21.1,11.8,71.3,19.6,96.5c5.7,18.6,9.4,42.1,12.3,61.1
		c2.1,13.5,3.7,24.1,5.6,29.5c1.9-0.5,3.8-1.1,5.8-1.6c0-0.1,0-0.1-0.1-0.2C824.9,401.2,823.2,390.2,821.3,377.4z M840.9,320
		c-7.8-26.7-13.9-47.8-24.3-66.1c-7.8-13.7-13.6-31.3-16.3-40.8c-2,0.6-3.9,1.2-5.7,1.9c2.9,9.7,8.7,27.6,16.8,41.8
		c10.1,17.7,16.1,38.5,23.8,64.8c0.9,3.1,1.8,6.2,2.8,9.4c6.8,23.2,13.3,52.8,16.3,67c2-0.7,3.9-1.4,5.7-2.1
		c-3.1-14.6-9.5-43.7-16.2-66.5C842.7,326.2,841.8,323,840.9,320z M874.6,323.9c-2.4-7.4-5.1-15.8-8.1-25.9
		c-7.3-24.8-16.3-36.3-24.2-46.5c-3.1-4.1-6.1-7.9-8.7-12.2c-5.6-9.5-14.6-20.8-20.9-28.3c-2.5,0.2-4.9,0.5-7.1,0.9
		c6,7.1,16.7,20.1,22.8,30.5c2.7,4.7,5.8,8.6,9.1,12.8c7.6,9.7,16.1,20.8,23.1,44.5c3,10.2,5.7,18.6,8.1,26c5.6,17.5,9,28,9.3,39.6
		c0.1,6.7,1.1,14,2.2,20.5c2-1.2,3.8-2.4,5.5-3.6c-0.9-5.6-1.6-11.5-1.7-17C883.9,352.8,880.2,341.3,874.6,323.9z"/>
	<path class="st5" d="M807.5,228.5c-5.6-2.7-9.3-4.6-14.1-13c-7.3-12.9-28.4-19.3-28.4-19.3s9.7,15.1,8.7,22.5
		c-0.7,5-2.4,7.9-5.2,10.5c-4.4,4.1-0.9,11.4,5,10.7C789.9,237.8,810.3,232.9,807.5,228.5z"/>
	<path class="st11" d="M793.3,215.5c-0.9-1.6-2-3-3.2-4.4l-14.5-1.4c0,0,5.3,4.8,10.2,6.2c2.6,0.7,5.9,1,8.5,1.1
		C793.9,216.6,793.6,216.1,793.3,215.5z"/>
	<path class="st5" d="M760.1,197.7c0,0-3,1.1-6.3-0.9c-2.6-1.5-4.2-8-2.5-10.5s4.4-3,5-3.3s-3.8-11.2-1.7-18.8
		c2.1-7.6,7.5-15.5,18.7-17.2c11.2-1.7,18.1,3.1,22.8,7c4.7,3.9,7.1,13.5,8.5,18c1.4,4.5,2.8,5.6,4.2,7.9c3.2,5.3,4.9,9.1,4.6,16
		c-0.3,6.9-5.7,14.8-16.5,17C786,215.1,767.6,213.8,760.1,197.7z"/>
	<path class="st12" d="M794.9,189.9c-0.3,0-0.6-0.2-0.7-0.5c-0.1-0.4,0.1-0.8,0.5-0.9c1.5-0.4,2.6-1.3,3-2.4c0.3-1-0.2-2.2-1.3-3.3
		c-1.1-1.1-2.1-2.1-3-3c-2-2-3.1-3.1-3.4-3.9c-0.2-0.4-1.5-3.7-0.3-6.1c0.6-1.2,1.8-2.1,3.4-2.4c1.5-0.4,6.8-1.9,8.4-1.1
		c0.4,0.2,0.5,0.6,0.3,1c-0.2,0.4-0.6,0.5-1,0.3c-0.7-0.4-4.4,0.3-7.4,1.2c-1.2,0.3-2,0.8-2.5,1.7c-1,1.9,0.3,4.9,0.3,4.9l0,0.1
		c0.1,0.5,1.6,2,3,3.3c0.9,0.9,2,1.9,3,3c1.9,2,1.9,3.6,1.6,4.7c-0.4,1.6-1.9,2.9-4,3.4C795,189.9,795,189.9,794.9,189.9z
		 M773.5,177.9c-0.2,0-0.4-0.1-0.6-0.3c-0.3-0.3-0.2-0.8,0.1-1c0.1-0.1,3.7-3,8.8-4.1c0.4-0.1,0.8,0.2,0.9,0.6
		c0.1,0.4-0.2,0.8-0.6,0.9c-4.7,1-8.1,3.7-8.1,3.8C773.9,177.9,773.7,177.9,773.5,177.9z M778.6,184.7
		C778.5,184.7,778.5,184.7,778.6,184.7c-0.4,0-0.7-0.3-0.7-0.7c0-0.1,0.1-2.5,3.4-3.7c3.4-1.2,4.5-0.2,4.8,0.3
		c0.2,0.3,0.1,0.8-0.2,1c-0.3,0.2-0.8,0.1-1-0.2c0,0-0.6-0.6-3.1,0.3c-2.4,0.9-2.4,2.3-2.4,2.3C779.3,184.4,779,184.7,778.6,184.7z"
		/>
	<path class="st13" d="M795.3,177.4C795.3,177.4,795.2,177.4,795.3,177.4c-0.5-0.1-0.8-0.4-0.7-0.8c0-0.1,0.3-2.4,3.8-3.3
		c3.5-0.9,4.5,0.2,4.8,0.8c0.2,0.4,0,0.8-0.3,1c-0.4,0.2-0.8,0-1-0.3c0,0-0.5-0.7-3.1,0c-2.4,0.6-2.7,2-2.7,2.1
		C796,177.2,795.7,177.4,795.3,177.4z"/>
	<path class="st14" d="M783.8,183.6c0,0-8.3,1.8-9.1,5.2s8.4,1.4,12.1-1.3C790.5,184.9,785.9,183.1,783.8,183.6z"/>
	<path class="st6" d="M765.8,309.6c0,0,16.9,56.6,51.2,79.4c34.3,22.8,72.7,17.2,85.8,9.9C915.8,391.5,765.8,309.6,765.8,309.6z"/>
	<path class="st14" d="M806.4,176.9c0,0-6.1,1.1-6.4,4.1s6.5,1.7,9.1-0.5S807.9,176.5,806.4,176.9z"/>
	<path class="st4" d="M793.2,193.9c0,0,2.9-1.9,5-2.8c2.1-0.9,6.2-0.5,6.2-0.5s1,3.8-2.2,5.6C799,198.1,794.3,195.3,793.2,193.9z
		 M801.9,184.3c-0.3,0-0.6,0-0.9-0.1c-1.1-0.2-1.9-0.9-2.4-1.9c-0.8-1.5-0.7-3.7,0.1-5.7c1.4-3.5,4.6-5.8,7.3-5.2
		c1.1,0.2,1.9,0.9,2.4,1.9c0.8,1.5,0.7,3.7-0.1,5.7l0,0C807,182.2,804.3,184.3,801.9,184.3z M805.1,172.8c-1.8,0-4,1.8-5,4.3
		c-0.7,1.7-0.7,3.4-0.2,4.5c0.3,0.6,0.8,1,1.4,1.2c1.9,0.5,4.5-1.5,5.6-4.3l0,0c0.7-1.7,0.7-3.4,0.2-4.5c-0.3-0.6-0.8-1-1.4-1.2
		C805.4,172.8,805.3,172.8,805.1,172.8z M782.9,190.2c-0.7,0-1.4-0.1-2-0.3c-1.5-0.5-2.6-1.6-3.1-3c-0.6-1.8-0.3-4,1-6
		c2.3-3.6,6.9-5.6,10.3-4.5c1.5,0.5,2.6,1.6,3.1,3c0.6,1.8,0.3,4-1,6l0,0C789.3,188.4,785.9,190.2,782.9,190.2z M787,177.6
		c-2.5,0-5.4,1.6-7,4.1c-1,1.6-1.4,3.3-0.9,4.7c0.4,1,1.1,1.7,2.2,2.1c2.8,0.9,6.6-0.8,8.6-3.9l0,0c1-1.6,1.4-3.3,0.9-4.7
		c-0.4-1-1.1-1.7-2.2-2.1C788.1,177.7,787.6,177.6,787,177.6z M790.6,185.1L790.6,185.1L790.6,185.1z"/>
	<path class="st9" d="M960.7,290.5c0,0-45.3-72-56.1-69.7c-10.8,2.3-18.7,16.1-12.9,36.4c7.5,26.4,20,72.7,53.3,75.6
		C945.1,332.7,967.3,317.5,960.7,290.5z"/>
	<path class="st4" d="M791.8,181c-0.2,0-0.4-0.1-0.6-0.3c-0.3-0.3-0.2-0.8,0.1-1c0.2-0.1,4.3-3.5,7.5-2.2c0.4,0.2,0.5,0.6,0.4,1
		s-0.6,0.5-1,0.4c-2-0.8-5,1.1-6,2C792.2,181,792,181,791.8,181z"/>
	<path class="st6" d="M912.5,249l7.2,104.3c9.4,1.4,20.2,0.2,29.3-4.2c0.5-8.3-0.2-20.2-3.9-36.4C935.9,273.1,912.5,249,912.5,249z"
		/>
	<path class="st5" d="M901.1,238.5c0,0,6.6-0.7,8.5-5.3c1.9-4.6-1-25.6-3.3-28c-2.3-2.4-14.6-6.8-17.4-5.3
		C886.2,201.3,892.5,237,901.1,238.5z"/>
	<path class="st10" d="M745.7,263.1c0,0,30.5,6,67.6,23.4c25.9,12.1,66.2,36.5,66.2,36.5l-2.4-74c0,0-4.7-16.9,6.9-20.4
		c12.6-3.7,21.2,8.4,21.2,8.4s58.1,86.1,24.9,138.2C883.3,449,772.7,356.7,745.7,263.1z"/>
	<path class="st9" d="M806.5,306.3c13.7,7.1,24.7,15,36.3,23.3c7,5,14.3,10.2,22.2,15.2c7.1,4.5,14.2,6.9,20.5,6.9
		c2.6,0,5-0.4,7.3-1.2c5-1.8,8.7-5.4,10.3-10.2c2.7-8-2.1-27.9-6.8-45.8c-0.9-3.5-1.6-6.2-1.9-7.5c-0.2-1-0.6-2.9-1.2-5.4
		c-2.6-11.8-9.2-41.8-8.1-53.3c-0.4,0.1-0.7,0.2-1.1,0.3c-1.9,0.6-3.4,1.5-4.5,2.6c0,11.9,4.1,32.3,8.4,51.5
		c0.5,2.4,0.9,4.3,1.1,5.3c0.3,1.5,1,4.2,2,7.9c3,11.6,9.3,35.6,6.9,42.7c-1.1,3.2-3.5,5.6-6.9,6.8c-6.1,2.1-14.5,0.3-23-5.1
		c-7.8-4.9-15-10.1-21.9-15.1c-11.3-8.1-23-16.4-37-23.7c-12.9-6.7-28.3-21.1-38.8-31.7c-4-1.2-7.6-2.3-10.7-3.2
		C769.1,276.8,789.5,297.5,806.5,306.3z"/>
	<path class="st9" d="M758.7,296.3c16,8.5,38.9,22.5,52,38.2c22.4,26.8,55.9,41,76.7,41c0.4,0,0.7,0,1,0c20.3-0.5,27.6-16,31.1-23.5
		c0.3-0.6,0.6-1.2,0.8-1.8c4.5-9.2,2-28.8,0.4-41.8c-0.3-2.7-0.6-5-0.8-6.8c-0.6-6-3.7-15.2-6.7-24.1c-2.4-6.9-4.8-14.1-5.9-19.2
		c-1.2-5.8-2.4-14.5-3.2-22.7c-1.2-1.3-3.3-3.4-6-5c1,11.2,2.8,23.7,3.9,28.7c1.1,5.5,3.6,12.8,6,19.9c2.9,8.6,6,17.4,6.5,22.8
		c0.2,1.9,0.5,4.2,0.8,7c1.5,11.6,3.9,31,0.1,38.7c-0.3,0.6-0.6,1.2-0.9,1.9c-3.5,7.5-9.4,20-26.2,20.4c-19.4,0.5-51.7-13.1-73.4-39
		c-15.7-18.9-44.2-34.9-60.1-42.9C756,290.8,757.3,293.6,758.7,296.3z"/>
	<path class="st9" d="M930.8,365.8c3-4.7,7.8-21.7,8.6-44c-1.3-9.8-3.8-19.4-6.9-28.6c2.4,17.6,1.5,33,0.2,43.4
		c-1.9,15.1-5.2,24.2-6.5,26.2c-3.4,5.2-18.5,19.8-29.8,23.2c-10.8,3.3-43.9-1.4-64.4-13.4c-11.7-6.9-31.6-22-46.2-33.5
		c6.2,7.9,12.9,15.3,19.8,22.1c8.8,6.5,17.3,12.4,23.6,16.2c16.4,9.6,41.5,15.2,57.9,15.2c4.4,0,8.2-0.4,11-1.3
		C911.2,387.2,927.2,371.3,930.8,365.8z"/>
	<path class="st13" d="M881.1,233.8c0,0-2.3,0.2-2.6,3.5c-0.4,3.3,10.7,7.8,16.2,7.2c5.4-0.7,9.7-2.7,6.4-5.9
		C897.8,235.4,895,230.3,881.1,233.8z"/>
	<polygon class="st9" points="791.8,227 796.1,215.6 814,228.6 807.7,240.6 795.8,235.6 786.7,251.5 753,235.1 758.6,224.6 	"/>
	<path class="st4" d="M756.2,183.7c-0.4,0-0.7-0.3-0.7-0.7c0-0.4,0.3-0.8,0.7-0.8l23.2-1.6c0.4,0,0.8,0.3,0.8,0.7
		c0,0.4-0.3,0.8-0.7,0.8L756.2,183.7C756.2,183.7,756.2,183.7,756.2,183.7z"/>
	<path class="st6" d="M778.4,134.8c9.9,3,10.5,3.4,17.1,7.5c6.6,4.2,5,6.7,7.7,8.7c2.7,2,3.3,1.6,2,4.7c-1.3,3-13.2,8.8-12.4,6.8
		c0.8-2-0.7-4-0.7-4s0.1,5.9-2.3,6.5c-2.4,0.5-8,2.8-10.4,3.8c-2.4,1-2.3-0.9-1.9-3.1s-2.2,1-3,2.4c-0.8,1.4-4.6,5.1-5,5.4
		c-0.3,0.3-2.2,3.5-3.3,3.3c-1.2-0.3-2.2,0.4-1.8-1.8s-3.1,6.2-2.2,10.2c1,4,6.2,11.2,9.7,17.5s7.7,10.8,5.6,15.4s-3.4,8.8-1.3,12.7
		c2.2,3.8,6.6,6.5,4.4,10.5c-2.1,4-14.5,9.3-14.3,16.4s1.5,12.5-0.3,16.4c-1.8,3.8-9,6.2-13.7,8.2c-3,1.3-10.5,3.9-14.2,2.6
		c-10.4-3.5-15.1-9.8-11.4-21.9c2-6.5,8.6-12.4,9.1-14.9c0.5-2.5-8.7-8-4.2-24.1c1-3.6,5.5-11.5,5.5-15.5c0-4-3.2-5.9-4.3-11.6
		c-3.2-17.6,3.6-21.4,2.3-26.5c-2.4-9-2.2-21.1,9.5-27.5c5.3-2.9,10.2-2,10.2-2S760.3,129.3,778.4,134.8z"/>
	<path class="st5" d="M882,209.8c-0.4-2.9-3.2-8.3-5.9-7.4s0.1,5.2,0.2,9.9c0.1,4.4-1.6,8.8-1.3,12c0.3,3.1,3.7,9.1,3.9,9.5
		l5.2-19.2C882.8,214.9,882.4,212.5,882,209.8z"/>
	<path class="st6" d="M824.2,184.6l2.5-5.7c0.8-1.9,2.9-3,5-2.5l6.8,1.6c2.6,0.6,5.1,1.6,7.4,2.9l8.8,5.2l-5.9,13.4l-8.7-2
		c-2.9-0.7-5.7-1.9-8.2-3.5l-6.1-3.9C824,188.9,823.3,186.6,824.2,184.6z"/>
	<path class="st7" d="M866.4,196.4l-2.5,5.6c-0.8,1.8,0,4,1.8,4.8l37.6,16.6c1.8,0.8,4,0,4.8-1.8l2.5-5.6c0.8-1.8,0-4-1.8-4.8
		l-37.6-16.6C869.3,193.7,867.2,194.5,866.4,196.4z"/>
	<path class="st15" d="M855.2,179.5l-11.3,25.6c-0.5,1.2,0,2.6,1.2,3.1l21.3,9.4l13.2-29.9l-21.3-9.4
		C857.1,177.8,855.8,178.3,855.2,179.5z"/>
	<polygon class="st6" points="871,209 878.5,197.8 875.7,196.5 870.3,208.7 	"/>
	<path class="st16" d="M838.5,189.8c-0.2,0.4-0.4,0.9-0.6,1.3c-1.1,2.4-2.5,5.3-2.5,5.3l-1.2-0.6c0,0,1.3-3,2.5-5.4
		c0.8-1.6,1.4-3.1,1.9-4.5c0.4-1,0.7-1.8,1-2.5c0.7-1.5,2.3-5.1,2.3-5.2l1.2,0.5c-0.1,0.2-1.6,3.7-2.3,5.2c-0.3,0.6-0.6,1.5-1,2.4
		C839.4,187.5,839,188.6,838.5,189.8z"/>
	<path class="st5" d="M903.4,206.6c-1-1.2-3.3-1.8-3.3-1.8s-0.7-2.4-1.9-3.2c-1.2-0.8-4.9-1.3-4.9-1.3s-2.1-3.8-6.8-2.4
		c-2.8,0.8-1.3,15.8-3.2,16.7c-0.2,0.1-0.3,0.1-0.4,0.1l-4.1,19.1c0,0,0,0,0,0c0.3,5.8,11.7,10.7,15.6,7.5s9.2-24.8,9.9-28.3
		C905,209.6,904.4,207.8,903.4,206.6z"/>
	<path class="st13" d="M885.8,377.5c-0.1,0-0.2,0-0.3,0c-1.5-0.3-2-2.7-2.7-6.1c-0.3-1.3-0.6-2.7-0.9-3.9c-0.8-2.6-1-5.5-1.2-8.5
		c-0.2-2.8-0.4-5.7-1.1-8.6c-1.4-5.6-0.9-23.9-0.9-27c-2.9-1.7-21.3-12.5-31.1-18.9c-6.2-4-10.7-6.1-15.5-8.3
		c-3.4-1.6-6.9-3.2-11-5.5c-9.6-5.5-29.4-12.6-29.6-12.7c-0.4-0.1-0.6-0.6-0.4-0.9s0.6-0.6,0.9-0.4c0.2,0.1,20.2,7.3,29.9,12.8
		c4.1,2.3,7.5,3.9,10.9,5.5c4.6,2.1,9.4,4.4,15.7,8.4c10.6,6.9,31.2,19,31.4,19.1l0.4,0.2l0,0.4c0,0.2-0.6,21.2,0.8,27
		c0.7,3,0.9,6,1.1,8.9c0.2,2.9,0.4,5.7,1.1,8.1c0.4,1.3,0.7,2.7,1,4c0.4,1.8,1,4.7,1.6,4.9c0,0,0.3-0.1,0.9-0.9
		c2.1-2.9,0.1-20.8-1.6-32.1c-0.1-0.4,0.2-0.8,0.6-0.8c0.4-0.1,0.8,0.2,0.8,0.6c0.5,2.9,4.4,28.8,1.4,33.2
		C887.5,376.6,886.7,377.5,885.8,377.5z"/>
	<g>
		<path class="st13" d="M878.8,323l-1.8-54.6c0-1,0-2.6,0.1-4.3c0.2-5.1,0.6-12.8-1.2-17.5c-2.5-6.4-2.7-9.1,0.5-13.8
			c0.2-0.3,0.7-0.4,1-0.2c0.3,0.2,0.4,0.7,0.2,1c-2.7,4-2.8,6.1-0.3,12.5c1.9,5,1.6,12.9,1.3,18.1c-0.1,1.7-0.1,3.2-0.1,4.2
			l1.8,54.6L878.8,323z"/>
	</g>
	<g>
		<path class="st3" d="M777.6,435.5c-6.3,0-10.8-0.4-10.9-0.4c-0.4,0-0.7-0.4-0.7-0.8c0-0.4,0.4-0.7,0.8-0.7
			c0.2,0,19.4,1.6,33.3-1.8c6.4-1.6,12.9-3.8,18.6-5.8c7.1-2.5,13.2-4.6,17.3-4.8c3.1-0.2,5.2-1,7.7-1.9c3.1-1.2,6.9-2.6,14.1-3.3
			c10.3-1,23.5-6.8,30.6-9.9c1.6-0.7,2.9-1.3,3.8-1.6c4.5-1.7,26.6-9.3,26.8-9.4c0.4-0.1,0.8,0.1,0.9,0.5c0.1,0.4-0.1,0.8-0.5,0.9
			c-0.2,0.1-22.3,7.7-26.8,9.4c-0.8,0.3-2.1,0.9-3.7,1.6c-7.2,3.1-20.5,9-31,10c-7,0.7-10.5,2-13.7,3.2c-2.5,1-4.8,1.8-8.1,2
			c-3.9,0.2-9.9,2.3-16.9,4.7c-5.7,2-12.3,4.2-18.7,5.8C793.1,435.1,784.3,435.5,777.6,435.5z"/>
	</g>
	<g>
		<path class="st6" d="M863.8,881c-8.2,0-14.5-4.3-21.2-8.8l-1.4-0.9c-7.6-5.1-10.6-5.2-16.1-4.9c-5.9,0.3-10.5-3.7-10.7-3.9
			c-0.3-0.3-0.3-0.7-0.1-1s0.7-0.3,1-0.1c0,0,4.3,3.8,9.6,3.5c5.7-0.3,9-0.3,17,5.1l1.4,0.9c7.1,4.8,13.8,9.4,22.7,8.5
			c6.2-0.6,7.7-4.3,9.2-7.9c0.7-1.6,1.3-3.2,2.4-4.3c3.4-3.4,10.6-3.2,10.9-3.2c0.4,0,0.7,0.3,0.7,0.7c0,0.4-0.3,0.7-0.7,0.7
			c-0.1,0-6.9-0.1-9.8,2.8c-0.9,0.9-1.5,2.3-2.1,3.8c-1.5,3.6-3.3,8-10.4,8.8C865.4,881,864.6,881,863.8,881z"/>
	</g>
	<g>
		<path class="st6" d="M1108.1,727.9c-0.4,0-0.7-0.3-0.7-0.7c0-0.4,0.3-0.7,0.7-0.7c0.2,0,17-0.3,21.2-5.2c1.8-2.1,5.5-4.6,9.9-7.6
			c6.8-4.6,15.3-10.4,18.8-16.3c1.2-2.1,2.4-3.9,3.4-5.4c3.6-5.7,5.7-8.8,5.3-16.5c-0.5-10.2,2-13.6,2.2-13.7c0.2-0.3,0.7-0.4,1-0.1
			c0.3,0.2,0.4,0.7,0.1,1c0,0.1-2.3,3.2-1.9,12.7c0.4,8.1-1.8,11.6-5.5,17.3c-1,1.6-2.1,3.3-3.4,5.4c-3.7,6.2-12.3,12.1-19.3,16.8
			c-4.3,2.9-7.9,5.4-9.6,7.3C1125.7,727.6,1108.8,727.9,1108.1,727.9C1108.1,727.9,1108.1,727.9,1108.1,727.9z"/>
	</g>
	<g>
		<path class="st3" d="M783.2,446.5C783.2,446.5,783.2,446.5,783.2,446.5c-0.4,0-0.7-0.4-0.7-0.8c0.1-2.8,0.2-4.4,0.2-4.4
			c0-0.4,0.4-0.7,0.8-0.7c0.4,0,0.7,0.4,0.7,0.8c0,0-0.1,1.6-0.2,4.4C783.9,446.1,783.6,446.5,783.2,446.5z M817.8,767.2
			c-0.4,0-0.7-0.3-0.7-0.7c0-0.3-0.1-0.7-0.1-1.1c-0.1-1-0.4-3.5-0.9-7.9c0-0.4,0.2-0.8,0.6-0.8c0.4-0.1,0.8,0.2,0.8,0.6
			c0.5,4.4,0.8,6.9,0.9,7.9c0,0.4,0.1,0.7,0.1,1.1C818.6,766.8,818.3,767.1,817.8,767.2C817.9,767.2,817.8,767.2,817.8,767.2z
			 M815.8,749.3c-0.4,0-0.7-0.3-0.7-0.6l-1-8.9c0-0.4,0.2-0.8,0.6-0.8c0.4,0,0.8,0.2,0.8,0.6l1,8.9
			C816.6,748.9,816.3,749.2,815.8,749.3C815.9,749.3,815.9,749.3,815.8,749.3z M813.7,731.4c-0.4,0-0.7-0.3-0.7-0.6l-1-8.9
			c0-0.4,0.2-0.8,0.6-0.8c0.4,0,0.8,0.2,0.8,0.6l1,8.9C814.5,731,814.2,731.4,813.7,731.4C813.8,731.4,813.8,731.4,813.7,731.4z
			 M811.7,713.6c-0.4,0-0.7-0.3-0.7-0.6c-0.3-2.9-0.7-5.9-1-8.9c0-0.4,0.2-0.8,0.6-0.8c0.4,0,0.8,0.2,0.8,0.6c0.3,3,0.7,6,1,8.9
			C812.4,713.2,812.2,713.5,811.7,713.6C811.7,713.6,811.7,713.6,811.7,713.6z M809.6,695.7c-0.4,0-0.7-0.3-0.7-0.7
			c-0.3-2.9-0.7-5.9-1-8.9c0-0.4,0.2-0.8,0.6-0.8c0.4,0,0.8,0.2,0.8,0.6c0.3,3,0.7,6,1,8.9C810.4,695.3,810.1,695.7,809.6,695.7
			C809.7,695.7,809.7,695.7,809.6,695.7z M807.6,677.9c-0.4,0-0.7-0.3-0.7-0.7c-0.3-3-0.7-6-1-8.9c0-0.4,0.2-0.8,0.6-0.8
			c0.4,0,0.8,0.2,0.8,0.6c0.3,3,0.6,6,1,8.9C808.4,677.4,808.1,677.8,807.6,677.9C807.7,677.9,807.7,677.9,807.6,677.9z M805.7,660
			c-0.4,0-0.7-0.3-0.7-0.7c-0.3-3-0.6-6-0.9-8.9c0-0.4,0.3-0.8,0.7-0.8c0.4,0,0.8,0.3,0.8,0.7c0.3,3,0.6,5.9,0.9,8.9
			C806.5,659.6,806.2,659.9,805.7,660C805.7,660,805.7,660,805.7,660z M803.9,642.1c-0.4,0-0.7-0.3-0.7-0.7c-0.3-3-0.6-6-0.9-8.9
			c0-0.4,0.3-0.8,0.7-0.8c0.4,0,0.8,0.3,0.8,0.7c0.3,2.9,0.6,5.9,0.9,8.9C804.6,641.7,804.3,642.1,803.9,642.1
			C803.9,642.1,803.9,642.1,803.9,642.1z M802.1,624.2c-0.4,0-0.7-0.3-0.7-0.7c-0.3-3.1-0.6-6.1-0.8-9c0-0.4,0.3-0.8,0.7-0.8
			c0.4,0,0.8,0.3,0.8,0.7c0.2,2.9,0.5,5.9,0.8,8.9C802.9,623.8,802.6,624.2,802.1,624.2C802.2,624.2,802.1,624.2,802.1,624.2z
			 M800.6,606.3c-0.4,0-0.7-0.3-0.7-0.7c-0.3-3.1-0.5-6.1-0.8-8.9c0-0.4,0.3-0.8,0.7-0.8c0.4,0,0.8,0.3,0.8,0.7
			c0.3,2.8,0.6,5.8,0.8,8.9C801.3,605.9,801,606.3,800.6,606.3C800.6,606.3,800.6,606.3,800.6,606.3z M798.8,588.5
			c-0.4,0-0.7-0.3-0.7-0.6c-0.4-3.1-0.8-6.1-1.2-8.9c-0.1-0.4,0.2-0.8,0.6-0.8c0.4-0.1,0.8,0.2,0.8,0.6c0.4,2.8,0.8,5.8,1.2,8.9
			C799.6,588.1,799.3,588.4,798.8,588.5C798.9,588.5,798.8,588.5,798.8,588.5z M796.2,570.8c-0.3,0-0.7-0.2-0.7-0.6
			c-0.5-2.9-1.1-5.8-1.8-8.7c-0.1-0.4,0.2-0.8,0.6-0.9c0.4-0.1,0.8,0.2,0.9,0.6c0.7,3,1.3,5.9,1.8,8.8c0.1,0.4-0.2,0.8-0.6,0.9
			C796.3,570.8,796.2,570.8,796.2,570.8z M792.3,553.3c-0.3,0-0.6-0.2-0.7-0.6l-0.1-0.5c-0.6-2.6-1.3-5.4-2-8.2
			c-0.1-0.4,0.2-0.8,0.6-0.9c0.4-0.1,0.8,0.2,0.9,0.6c0.7,2.9,1.3,5.6,2,8.2l0.1,0.5c0.1,0.4-0.1,0.8-0.5,0.9
			C792.4,553.3,792.4,553.3,792.3,553.3z M788.4,535.8c-0.3,0-0.7-0.2-0.7-0.6c-0.5-2.9-1-5.8-1.5-8.9c-0.1-0.4,0.2-0.8,0.6-0.8
			c0.4-0.1,0.8,0.2,0.8,0.6c0.5,3.1,0.9,6,1.5,8.8c0.1,0.4-0.2,0.8-0.6,0.9C788.5,535.8,788.5,535.8,788.4,535.8z M785.8,518.1
			c-0.4,0-0.7-0.3-0.7-0.6l0-0.3c-0.3-2.8-0.6-5.7-0.9-8.6c0-0.4,0.3-0.8,0.7-0.8c0.4-0.1,0.8,0.3,0.8,0.7c0.3,2.9,0.6,5.8,0.9,8.6
			l0,0.3C786.6,517.7,786.3,518.1,785.8,518.1C785.8,518.1,785.8,518.1,785.8,518.1z M784.1,500.3c-0.4,0-0.7-0.3-0.7-0.7
			c-0.2-2.9-0.4-5.9-0.6-9c0-0.4,0.3-0.7,0.7-0.8c0.4,0,0.7,0.3,0.8,0.7c0.2,3,0.3,6,0.6,8.9C784.8,499.9,784.5,500.2,784.1,500.3
			C784.1,500.3,784.1,500.3,784.1,500.3z M783.1,482.3c-0.4,0-0.7-0.3-0.7-0.7c-0.1-3-0.2-6-0.2-9c0-0.4,0.3-0.7,0.7-0.7
			c0.4,0,0.7,0.3,0.7,0.7c0,3,0.1,6,0.2,9C783.9,482,783.5,482.3,783.1,482.3C783.1,482.3,783.1,482.3,783.1,482.3z M782.8,464.4
			L782.8,464.4c-0.4,0-0.7-0.3-0.7-0.7c0-3,0-6,0.1-9c0-0.4,0.3-0.7,0.7-0.7c0.4,0,0.7,0.3,0.7,0.7c-0.1,2.9-0.1,6-0.1,9
			C783.6,464.1,783.2,464.4,782.8,464.4z M817.7,780.4C817.7,780.4,817.7,780.4,817.7,780.4c-0.5,0-0.8-0.4-0.7-0.8
			c0,0,0.2-1.7,0.3-4.3c0-0.4,0.4-0.7,0.8-0.7c0.4,0,0.7,0.3,0.7,0.8c-0.1,2.7-0.3,4.4-0.3,4.4C818.4,780.2,818.1,780.4,817.7,780.4
			z"/>
	</g>
	<g>
		<path class="st3" d="M1051.6,670.3c-0.2,0-0.3-0.1-0.5-0.2c-1.3-1-2.7-2.3-4.3-3.7c-0.6-0.5-1.4-1.3-2.3-2.1
			c-0.3-0.3-0.3-0.7-0.1-1c0.3-0.3,0.7-0.3,1-0.1c1,0.9,1.8,1.6,2.3,2.1c1.6,1.4,3,2.6,4.2,3.6c0.3,0.3,0.4,0.7,0.1,1
			C1052,670.2,1051.8,670.3,1051.6,670.3z M1038.5,658.6c-0.2,0-0.3-0.1-0.5-0.2c-2-1.8-4.2-3.8-6.6-5.9c-0.3-0.3-0.3-0.7-0.1-1
			c0.3-0.3,0.7-0.3,1-0.1c2.3,2.1,4.6,4.1,6.6,5.9c0.3,0.3,0.3,0.7,0.1,1C1038.9,658.5,1038.7,658.6,1038.5,658.6z M1025.3,646.9
			c-0.2,0-0.3-0.1-0.5-0.2c-2.2-1.9-4.4-3.9-6.6-5.8c-0.3-0.3-0.3-0.7-0.1-1c0.3-0.3,0.7-0.3,1-0.1c2.2,1.9,4.5,3.9,6.6,5.8
			c0.3,0.3,0.3,0.7,0.1,1C1025.7,646.8,1025.5,646.9,1025.3,646.9z M1012,635.5c-0.2,0-0.3-0.1-0.5-0.2c-2.5-2.1-4.8-3.9-6.8-5.6
			c-0.3-0.3-0.4-0.7-0.1-1s0.7-0.4,1-0.1c2,1.6,4.3,3.5,6.8,5.6c0.3,0.3,0.4,0.7,0.1,1C1012.4,635.4,1012.2,635.5,1012,635.5z
			 M998.1,624.6c-0.1,0-0.3,0-0.4-0.1c-0.5-0.4-1-0.7-1.5-1c-2.1-1.4-4-2.8-5.6-4.4c-0.3-0.3-0.3-0.7,0-1c0.3-0.3,0.7-0.3,1,0
			c1.6,1.5,3.3,2.9,5.4,4.2c0.5,0.3,1,0.7,1.5,1c0.3,0.2,0.4,0.7,0.2,1C998.6,624.5,998.3,624.6,998.1,624.6z M985.8,612.4
			c-0.3,0-0.5-0.1-0.6-0.4c-1.3-2.3-2.4-4.9-3.5-8.2c-0.1-0.4,0.1-0.8,0.5-0.9c0.4-0.1,0.8,0.1,0.9,0.5c1.1,3.2,2.2,5.7,3.4,7.9
			c0.2,0.4,0.1,0.8-0.3,1C986,612.4,985.9,612.4,985.8,612.4z M979.8,595.9c-0.3,0-0.6-0.2-0.7-0.5c-0.3-1.1-0.6-2.3-1-3.6
			c-0.4-1.4-0.8-2.9-1.2-4.5l-0.1-0.4c-0.1-0.4,0.1-0.8,0.5-0.9c0.4-0.1,0.8,0.1,0.9,0.5l0.1,0.4c0.4,1.6,0.8,3,1.2,4.5
			c0.3,1.2,0.7,2.4,1,3.6c0.1,0.4-0.1,0.8-0.5,0.9C979.9,595.9,979.9,595.9,979.8,595.9z M973.6,579.7c-0.2,0-0.4-0.1-0.5-0.2
			c-1.9-1.9-4.1-2.4-7.6-2.9c-0.4-0.1-0.7-0.4-0.6-0.8s0.4-0.7,0.8-0.6c3.1,0.5,6.1,0.9,8.4,3.3c0.3,0.3,0.3,0.8,0,1
			C974,579.6,973.8,579.7,973.6,579.7z M957,574.8c-0.1,0-0.1,0-0.2,0c-2.7-0.9-5.4-2.1-8.1-3.6c-0.4-0.2-0.5-0.6-0.3-1
			c0.2-0.4,0.6-0.5,1-0.3c2.6,1.5,5.2,2.6,7.9,3.5c0.4,0.1,0.6,0.5,0.5,0.9C957.6,574.6,957.4,574.8,957,574.8z M941.8,566.4
			c-0.2,0-0.3,0-0.4-0.1c-2.2-1.6-4.5-3.5-6.9-5.5c-0.3-0.3-0.4-0.7-0.1-1c0.3-0.3,0.7-0.4,1-0.1c2.4,2,4.7,3.8,6.9,5.4
			c0.3,0.2,0.4,0.7,0.1,1C942.2,566.3,942,566.4,941.8,566.4z M928.2,555.2c-0.2,0-0.3-0.1-0.5-0.2c-2.1-1.9-4.3-3.9-6.5-5.9
			c-0.3-0.3-0.3-0.7,0-1c0.3-0.3,0.7-0.3,1,0c2.2,2.1,4.4,4.1,6.5,5.9c0.3,0.3,0.3,0.7,0.1,1C928.6,555.1,928.4,555.2,928.2,555.2z
			 M915.4,543.2c-0.2,0-0.4-0.1-0.5-0.2c-2.1-2-4.1-4.1-6.2-6.2c-0.3-0.3-0.3-0.8,0-1c0.3-0.3,0.8-0.3,1,0c2.1,2.1,4.2,4.2,6.2,6.2
			c0.3,0.3,0.3,0.7,0,1C915.8,543.1,915.6,543.2,915.4,543.2z M903.1,530.6c-0.2,0-0.4-0.1-0.5-0.2c-3.3-3.5-5.5-6-6-6.6
			c-0.2-0.3-0.2-0.8,0.1-1c0.3-0.2,0.8-0.2,1,0.1c0.4,0.6,2.6,3,5.9,6.5c0.3,0.3,0.3,0.8,0,1C903.4,530.5,903.3,530.6,903.1,530.6z"
			/>
	</g>
	<g>
		<path class="st3" d="M1053,683.1c-0.3,0-0.5-0.1-0.6-0.4c-0.2-0.4-0.1-0.8,0.3-1c0.3-0.1,25.7-13.8,31.6-20.2
			c6-6.5,28.6-24.2,29.6-24.9c0.3-0.2,0.8-0.2,1,0.1c0.2,0.3,0.2,0.8-0.1,1c-0.2,0.2-23.5,18.4-29.4,24.8
			c-6,6.5-30.9,19.9-31.9,20.4C1053.2,683.1,1053.1,683.1,1053,683.1z"/>
	</g>
	<g>
		<path class="st3" d="M876.4,790.7c-3.4,0-6.8-0.1-9.3-0.3c-2-0.2-3.7-0.3-5.4-0.5c-4.8-0.5-9.7-1-21.2-1.5
			c-15.5-0.7-32.5,0-32.6,0c-0.4,0-0.7-0.3-0.8-0.7c0-0.4,0.3-0.7,0.7-0.8c0.2,0,17.2-0.7,32.8,0c11.6,0.5,16.6,1,21.3,1.5
			c1.7,0.2,3.4,0.3,5.4,0.5c7.5,0.7,22.4,0,22.6,0c0.4,0,0.7,0.3,0.8,0.7s-0.3,0.7-0.7,0.8C889.8,790.5,883.1,790.7,876.4,790.7z"/>
	</g>
	<g>
		<path class="st3" d="M867.1,734.1c-0.1,0-0.2,0-0.3-0.1c-0.4-0.2-0.5-0.6-0.3-1c10.3-20.9,22.7-33,22.8-33.1c0.3-0.3,0.8-0.3,1,0
			c0.3,0.3,0.3,0.8,0,1c-0.1,0.1-12.4,12.1-22.5,32.7C867.7,733.9,867.4,734.1,867.1,734.1z"/>
	</g>
	<g>
		<path class="st3" d="M987.6,593.6c-0.1,0-0.2,0-0.3,0c-0.4-0.1-0.6-0.6-0.4-0.9c0.4-0.9,8.8-23,17.2-31.3c8.3-8.2,18.3-16,18.4-16
			c0.3-0.2,0.8-0.2,1,0.1c0.2,0.3,0.2,0.8-0.1,1c-0.1,0.1-10.1,7.7-18.3,15.9c-8.1,8.1-16.8,30.6-16.9,30.8
			C988.2,593.4,987.9,593.6,987.6,593.6z"/>
	</g>
	<g>
		<path class="st3" d="M955.9,555.8c-0.2,0-0.3-0.1-0.4-0.1c-0.3-0.2-0.4-0.7-0.2-1c0.2-0.2,0.5-0.3,0.7-0.3
			c2.6-0.3,35-12.4,56.3-20.6c0.4-0.1,0.8,0,0.9,0.4c0.1,0.4,0,0.8-0.4,0.9c-0.1,0.1-14.1,5.4-28,10.6
			C961.5,554.5,957,555.8,955.9,555.8z M956.3,554.5C956.3,554.5,956.3,554.5,956.3,554.5C956.3,554.5,956.3,554.5,956.3,554.5z
			 M956.3,554.5C956.3,554.5,956.3,554.5,956.3,554.5C956.3,554.5,956.3,554.5,956.3,554.5z"/>
	</g>
	<g>
		<path class="st3" d="M883.8,526.9C883.8,526.9,883.8,526.9,883.8,526.9c-0.4,0-0.7-0.3-0.7-0.8c0-0.2,0.9-23.2,16.9-37
			c5-4.3,17-13.9,20.2-11.2c1.1,0.9,0.9,2.6-0.5,5.1c-3.9,7-18.4,21.9-19.1,22.5c-0.3,0.3-0.7,0.3-1,0c-0.3-0.3-0.3-0.7,0-1
			c0.1-0.2,15-15.4,18.8-22.2c1.2-2.2,1.1-3.1,0.9-3.3c-0.7-0.6-5.6,0.3-18.4,11.2c-15.6,13.3-16.4,35.7-16.4,35.9
			C884.5,526.6,884.2,526.9,883.8,526.9z"/>
	</g>
	<g>
		<path class="st3" d="M812.8,528.8c-0.4,0-0.7-0.3-0.7-0.6c0-0.4,0.2-0.8,0.6-0.8l64-8c0.4,0,0.8,0.2,0.8,0.6s-0.2,0.8-0.6,0.8
			L812.8,528.8C812.9,528.8,812.8,528.8,812.8,528.8z"/>
	</g>
	<g>
		<path class="st3" d="M825.1,535.2c-0.4,0-0.7-0.3-0.7-0.6c-0.1-0.4,0.2-0.8,0.6-0.8l37.5-6.3c0.4-0.1,0.8,0.2,0.8,0.6
			s-0.2,0.8-0.6,0.8l-37.5,6.3C825.2,535.2,825.1,535.2,825.1,535.2z"/>
	</g>
	<g>
		<path class="st7" d="M705.7,878.7c-7.3,0-16.8-3.3-28.7-8.5c-16.2-7-44.9-27.7-45.2-27.9c-0.3-0.2-0.4-0.7-0.2-1
			c0.2-0.3,0.7-0.4,1-0.2c0.3,0.2,28.9,20.8,44.9,27.7c22,9.5,30,9.6,35.2,6.8c0.4-0.2,0.8-0.1,1,0.3c0.2,0.4,0.1,0.8-0.3,1
			C711.2,878.1,708.7,878.7,705.7,878.7z"/>
	</g>
	<path class="st5" d="M714.8,249.5c13.7-3,12.5-14.8,12.5-21.6c-9-7.1-3.4-11.7-3.4-11.8c0.4-15.2-15.7-22-15.7-22
		s-4.8,13.6-14.1,24c-3.5,3.9-11.5,8.3-16.4,10.2C679.7,234,697.4,253.4,714.8,249.5z"/>
	<path class="st11" d="M724.4,225.1c-4.7-5.5-0.5-8.9-0.5-9c0-1.4-0.1-2.6-0.3-3.9l-14.5-6.9C709.2,205.3,712.3,222.8,724.4,225.1z"
		/>
	<path class="st5" d="M705.9,194.6c0,0-3.3,0-5.8-3c-2-2.4-1.2-9.2,1.2-11c2.5-1.8,5.3-1.4,5.9-1.5s0.2-12.2,4.9-18.8
		s12.6-12.4,24-10.1c11.4,2.2,16.4,9.3,19.5,14.7c3.2,5.4,2.2,15.5,2,20.3s0.7,6.4,1.3,9.1c1.3,6.2,1.5,10.5-1.1,17
		c-2.7,6.5-10.6,12.3-21.8,10.7C724.9,220.4,707.6,212.8,705.9,194.6z"/>
	<g>
		<path class="st6" d="M741.8,197.3c-0.4,0-0.8,0-1.1-0.1c-1.3-0.3-1.5-1.1-1.5-1.4c0-0.4,0.2-0.8,0.6-0.8c0.4,0,0.8,0.2,0.8,0.6
			c0.1,0.1,0.6,0.3,1.6,0.2c1.5-0.1,3.3-0.9,3.9-2c0.3-0.7,0.1-1.6-0.6-2.7c-1.3-1.8-2.9-4.8-2.6-8.8c0-0.5-0.2-4,1.8-6
			c1-1,2.4-1.4,4.1-1.1c1.6,0.1,7.2,0.6,8.4,1.8c0.3,0.3,0.3,0.7,0,1c-0.3,0.3-0.7,0.3-1,0c-0.6-0.6-4.4-1.2-7.5-1.4
			c-1.3-0.2-2.3,0.1-3,0.8c-1.6,1.5-1.4,4.8-1.4,4.9l0,0.1l0,0.1c-0.3,3.5,1.1,6.2,2.3,7.8c1.5,2.1,1.1,3.7,0.5,4.6
			C746,196.5,743.6,197.3,741.8,197.3z"/>
	</g>
	<g>
		<path class="st6" d="M727.6,175.3c-0.3,0-0.6-0.2-0.7-0.5c-0.1-0.4,0.1-0.8,0.4-0.9c0.2-0.1,4.6-1.6,9.8-0.9
			c0.4,0.1,0.7,0.4,0.6,0.8s-0.4,0.7-0.8,0.6c-4.9-0.7-9.1,0.8-9.2,0.8C727.8,175.3,727.7,175.3,727.6,175.3z"/>
	</g>
	<path class="st4" d="M746.3,203c0,0-0.4,3.8-3.9,4c-3.6,0.2-6.1-5-6.1-5L746.3,203z"/>
	<g>
		<path class="st6" d="M736,186.4c-0.4,0-0.7-0.3-0.7-0.6c-0.1-0.4-0.4-1.7-2.9-1.9c-3-0.3-4.9,0-4.9,0c-0.4,0.1-0.8-0.2-0.8-0.6
			c-0.1-0.4,0.2-0.8,0.6-0.8c0.1,0,2.1-0.3,5.3,0c3.5,0.3,4.1,2.5,4.2,3.2C736.8,186,736.5,186.3,736,186.4
			C736.1,186.4,736,186.4,736,186.4z"/>
	</g>
	<g>
		<path class="st6" d="M754.9,187.8c-0.2,0-0.5-0.1-0.6-0.3c0,0-0.7-0.9-2.8-1.4c-2.1-0.4-3.4,0.4-3.7,0.5c-0.2,0.3-0.6,0.4-0.9,0.3
			c-0.4-0.2-0.5-0.6-0.4-1c0.3-0.8,2.6-1.9,5.3-1.3c2.7,0.6,3.6,1.8,3.7,1.9c0.2,0.3,0.1,0.8-0.2,1
			C755.2,187.7,755,187.8,754.9,187.8z M747.8,186.7L747.8,186.7L747.8,186.7z M747.9,186.6C747.9,186.6,747.9,186.6,747.9,186.6
			C747.9,186.6,747.9,186.6,747.9,186.6z"/>
	</g>
	<path class="st11" d="M732.1,191.1c0,0-7.5-2.8-9.9-0.5s6,5.4,10.3,5.2C736.8,195.5,734,191.7,732.1,191.1z M758.9,194.1
		c0,0-7.5-2.8-9.9-0.5s6,5.4,10.3,5.2C763.6,198.6,760.8,194.7,758.9,194.1z"/>
	<path class="st5" d="M646.9,250l60.9,112.2c0,0,27.2-100.6,53.1-98.5c11,0.9,7.8,31.7,4.9,65.7c-3.8,45.8-13.6,98-50.5,97
		C610.2,423.8,646.9,250,646.9,250z"/>
	<path class="st5" d="M747.7,270.3c0,0,15.3-16.6,20.8-19.1s15.1-6,16-4.4c0.9,1.6-11.3,7-11.3,7s15.4-4.5,16.2-3.3
		c0.7,1.2-0.8,2.2-0.8,2.2s2.6-0.1,2.6,1.1s-10.8,7.4-10.8,7.4s9.6-3.1,9.3-1.1c-0.4,2-17.9,11.6-17.9,11.6s-12.4,13.1-17.9,11.1
		C748.1,280.9,744.1,274.1,747.7,270.3z"/>
	<path class="st5" d="M751.8,268.3c-2.4-4.1,9.6-14.2,10.6-18c0.9-3.8,3.4-4.4,3.5-2.8c0.1,1.7,0,6.4-2.5,11.5
		C760.9,264.1,753.5,271.3,751.8,268.3z"/>
	<path class="st6" d="M743.1,436.6c2.6-10.5,5.4-21.6,8.1-32.9c-0.1-1.4-0.4-2.9-0.6-4.4c-8.1,3.8-32.5,12.2-53.2-10.9
		c-25.4-28.2-52.9-108.8-52.9-108.8s-11.5,42.1-5.1,101.7C643.7,422,686,439,714,443.7C722.4,445.1,734.9,440.2,743.1,436.6z
		 M743.4,165.4c0,0-11.3,1.1-20.8,11.8c-9.5,10.6-23.4,40.9-31.9,47.2s-39.9,11.5-39.9,11.5s8.1-32.4,22.4-56.1
		c5.8-9.7,18.9-35.9,32.1-40.1c18.1-5.8,18.8-0.6,18.8-0.6s5.4-4.8,10.6-3c5.2,1.8,23.5,22.1,24.8,31.8c1.3,9.6-1.8,16.5-1.8,16.5
		S753.2,168.5,743.4,165.4z"/>
	<path class="st4" d="M720,325.8c0,0,2.1-9.4,2.9-9.4s10,4.1,15.2,6s31.8,1.2,31.7,3.4c-0.1,2.2-4.6,9.4-4.6,9.4s-1.2,3.5-7.2,3.8
		C752.1,339.4,724.4,333.7,720,325.8z"/>
	<g>
		<path class="st7" d="M720,324.2c-7.5,20.4-12.2,38-12.2,38s-12.8-58.5-31.5-88.5c-12.6-20.3-29.4-23.6-29.4-23.6
			s-10.3,48.8-4.4,95.1c1.2,9.1-0.3,27.4,2.4,35.9c4.8,15.5,15.5,20,27,29.9c10.7,9.3,24.9,15.1,43.4,15.5
			c18.2,0.5,39-2.7,39.8-22.2c0.4-10.8,9.3-16.7,9.8-18c2.8-7.7-5.8-10.3-4-19.2c2-10.3,3.4-21.2,4.4-31.8c-5.5,0-12.9-0.4-22.3-1.6
			C728.8,331.8,722.6,327.3,720,324.2z"/>
	</g>
	<g>
		<path class="st13" d="M706.9,406.9c-1.1,0-1.9-1.4-2.2-1.8c-5.5-9.1,1.5-39.7,2.3-42.9c-1.1-2.9-13.2-33.9-14.9-38.8
			c-0.5-1.4-1.2-2.6-2-3.9c-1.9-3.2-4.3-7.2-5.9-18c-1.1-7.3-0.8-11.3-0.6-14.2c0.2-3,0.4-4.7-1.3-7.9c-3.4-6.4-12.4-18.7-12.5-18.8
			c-0.2-0.3-0.2-0.8,0.2-1c0.3-0.2,0.8-0.2,1,0.2c0.4,0.5,9.1,12.5,12.6,19c1.9,3.6,1.7,5.6,1.5,8.7c-0.2,2.8-0.5,6.7,0.5,13.8
			c1.6,10.5,3.9,14.3,5.7,17.4c0.8,1.3,1.5,2.6,2.1,4.1c1.9,5,14.9,38.6,15,39c0.1,0.1,0.1,0.3,0,0.4c-0.1,0.3-7.8,33.1-2.5,42
			c0.6,1.1,1,1.1,1,1.1c1.6-0.4,2.8-13.9,2.5-29.3c0-0.3,0.1-0.5,0.4-0.7c0.2-0.1,0.5-0.1,0.8,0c0.2,0.1,22,14,40.6,17.3
			c5.1,0.9,8.8,0.2,10.6-2c1.2-1.5,1.4-3.7,0.4-5.9c-1.3-3.3-5.3-7.3-11.9-8.1c-6.2-0.7-14.9-2.4-22.5-4.3
			c-13.1-3.4-13.1-4.9-13.1-5.5c0-1.1,1.5-1.4,2-1.5c7.9-1.2,37.3,4.7,38.5,4.9c0.4,0.1,0.7,0.5,0.6,0.9c-0.1,0.4-0.5,0.7-0.9,0.6
			c-0.3-0.1-30.4-6.1-38-4.9c-0.3,0-0.4,0.1-0.6,0.1c2.7,2,21.5,6.9,34.1,8.3c7.3,0.8,11.6,5.3,13.1,9c1.1,2.8,0.9,5.5-0.6,7.4
			c-2.1,2.6-6.3,3.5-12,2.5c-16.5-2.9-35.3-13.9-40-16.8c0,2.4,0,7.9-0.2,13.3c-0.6,13.5-2,15.7-3.4,16.1
			C707.2,406.9,707.1,406.9,706.9,406.9z"/>
	</g>
	<g>
		<path class="st13" d="M710.2,354.5c-0.1,0-0.1,0-0.2,0c-0.4-0.1-0.6-0.5-0.5-0.9c0.1-0.4,13.4-42.5,28-68.5c0.2-0.4,0.6-0.5,1-0.3
			c0.4,0.2,0.5,0.6,0.3,1c-14.5,25.9-27.8,67.8-27.9,68.2C710.8,354.3,710.5,354.5,710.2,354.5z"/>
	</g>
	<g>
		<path class="st6" d="M622.9,566.8c0,0-0.1,0-0.2,0c-0.4-0.1-0.6-0.5-0.6-0.9c0.5-2.4,12.5-58.5,22.3-64.4
			c7.6-4.5,30.7-12.8,35.3-8.7c0.7,0.6,1.3,1.8,0.4,3.9c-4.2,9.6-30.7,13.3-31.9,13.4c-0.4,0-0.8-0.2-0.8-0.6
			c-0.1-0.4,0.2-0.8,0.6-0.8c0.3,0,26.8-3.7,30.7-12.6c0.7-1.5,0.1-2-0.1-2.2c-1.6-1.4-7.2-0.9-15,1.4c-6.9,2-14.5,5.1-18.6,7.5
			c-2.6,1.6-7.3,8.7-14.3,33.7c-4.2,15.1-7.3,29.6-7.4,29.7C623.5,566.6,623.2,566.8,622.9,566.8z"/>
	</g>
	<g>
		<path class="st6" d="M644.9,519.4c-0.3,0-0.6-0.2-0.7-0.5c-0.1-0.4,0.1-0.8,0.5-0.9c1.3-0.4,31.9-9,41.1-10.4
			c0.4-0.1,0.8,0.2,0.8,0.6c0.1,0.4-0.2,0.8-0.6,0.8c-9.2,1.3-40.6,10.2-40.9,10.3C645,519.4,645,519.4,644.9,519.4z"/>
	</g>
	<g>
		<path class="st6" d="M626.8,515.7c-0.2,0-0.5-0.1-0.6-0.3c-1.2-1.8-28.9-25.4-47.2-40.9c-0.3-0.3-0.3-0.7-0.1-1
			c0.3-0.3,0.7-0.3,1-0.1c4.7,4,45.7,38.7,47.4,41.2c0.2,0.3,0.2,0.8-0.2,1C627.1,515.6,626.9,515.7,626.8,515.7z"/>
	</g>
	<g>
		<path class="st6" d="M622.9,524.8c-0.1,0-0.3,0-0.4-0.1L549.6,482c-0.3-0.2-0.5-0.7-0.3-1c0.2-0.4,0.7-0.5,1-0.3l72.9,42.7
			c0.3,0.2,0.5,0.7,0.3,1C623.4,524.7,623.1,524.8,622.9,524.8z"/>
	</g>
	<g>
		<path class="st6" d="M537.4,644.3c-0.3,0-0.6-0.2-0.7-0.5c-0.2-0.4-0.8-1.5-1.5-2.8c-5.3-9.1-21.3-36.9-17.5-78
			c0-0.4,0.4-0.7,0.8-0.7c0.4,0,0.7,0.4,0.7,0.8c-3.6,39,10.9,65.9,16.7,76l-11.6-59.5c-0.1-0.4,0.2-0.8,0.6-0.9
			c0.4-0.1,0.8,0.2,0.9,0.6l12.5,64.1c0.1,0.4-0.2,0.7-0.5,0.8C537.6,644.3,537.5,644.3,537.4,644.3z"/>
	</g>
	<g>
		<path class="st6" d="M632.3,764.9c-0.3,0-0.6-0.2-0.7-0.6l-12.4-61.2c-0.1-0.4,0.2-0.8,0.6-0.9c0.4-0.1,0.8,0.2,0.9,0.6L633,764
			c0.1,0.4-0.2,0.8-0.6,0.9C632.4,764.9,632.3,764.9,632.3,764.9z"/>
	</g>
	<g>
		<path class="st6" d="M378.9,663.3C378.9,663.3,378.9,663.3,378.9,663.3c-0.5,0-0.8-0.4-0.7-0.8l8.3-92.3c0-0.4,0.4-0.7,0.8-0.7
			c0.4,0,0.7,0.4,0.7,0.8l-8.3,92.3C379.6,663,379.3,663.3,378.9,663.3z"/>
	</g>
	<g>
		<path class="st6" d="M696.6,815.5C696.5,815.5,696.5,815.5,696.6,815.5l-92.7-6.7c-0.4,0-0.7-0.4-0.7-0.8c0-0.4,0.4-0.7,0.8-0.7
			l92.7,6.7c0.4,0,0.7,0.4,0.7,0.8C697.3,815.2,696.9,815.5,696.6,815.5z"/>
	</g>
</g>
<g>
	<polygon class="st3" points="1237.3,650.1 1237.3,881.4 1299.5,924.9 1626.7,859.1 1632.7,634.4 	"/>
	<polygon class="st7" points="1237.3,650.1 1556.8,596.9 1632.7,634.4 1303,691.8 	"/>
	<path class="st6" d="M1571.1,397.1l-299.5,50.3c-8.6,0-15.7,8.2-15.7,18.3v140.2v6.9c0,10.1,4,20.5,15.7,18.3l299.5-50.3
		c9.4-3.7,15.7-8.2,15.7-18.3v-14.8V415.4C1586.8,405.4,1579.7,397.1,1571.1,397.1z"/>
	<polygon class="st6" points="1298.4,622.4 1298.4,661.4 1316.8,658.4 1316.8,617.4 	"/>
	<polygon class="st6" points="1530.7,581 1530.7,620 1549.1,617 1549.1,576 	"/>
	<path class="st4" d="M1533.7,525.1c-0.5,0-1-0.4-1.1-0.9c-0.1-0.6,0.3-1.2,0.8-1.3l33.1-7c0.6-0.1,1.2,0.3,1.3,0.8
		c0.1,0.6-0.3,1.2-0.8,1.3l-33.1,7C1533.9,525.1,1533.8,525.1,1533.7,525.1z M1534.7,543.4c-0.5,0-1-0.4-1.1-0.9
		c-0.1-0.6,0.3-1.2,0.8-1.3l33.1-7c0.6-0.1,1.2,0.3,1.3,0.8c0.1,0.6-0.3,1.2-0.8,1.3l-33.1,7
		C1534.8,543.4,1534.7,543.4,1534.7,543.4z M1534.7,534.5c-0.5,0-0.9-0.3-1.1-0.8c-0.1-0.6,0.2-1.2,0.8-1.3l32.2-7.5
		c0.6-0.1,1.2,0.2,1.3,0.8s-0.2,1.2-0.8,1.3l-32.2,7.5C1534.9,534.5,1534.8,534.5,1534.7,534.5z"/>
	<g>
		<path class="st4" d="M1276.4,569.5c-0.5,0-1-0.4-1.1-0.9c-0.1-0.6,0.3-1.2,0.8-1.3l33.1-7c0.6-0.1,1.2,0.3,1.3,0.8
			c0.1,0.6-0.3,1.2-0.8,1.3l-33.1,7C1276.6,569.5,1276.5,569.5,1276.4,569.5z M1277.3,587.8c-0.5,0-1-0.4-1.1-0.9
			c-0.1-0.6,0.3-1.2,0.8-1.3l33.1-7c0.6-0.1,1.2,0.3,1.3,0.8c0.1,0.6-0.3,1.2-0.8,1.3l-33.1,7
			C1277.5,587.8,1277.4,587.8,1277.3,587.8z M1277.4,578.9c-0.5,0-0.9-0.3-1.1-0.8c-0.1-0.6,0.2-1.2,0.8-1.3l32.2-7.5
			c0.6-0.1,1.2,0.2,1.3,0.8s-0.2,1.2-0.8,1.3l-32.2,7.5C1277.6,578.9,1277.5,578.9,1277.4,578.9z"/>
	</g>
	<g>
		<path class="st4" d="M1299.5,926C1299.5,926,1299.5,926,1299.5,926c-0.6,0-1.1-0.5-1.1-1.1l3.5-233c0-0.6,0.5-1.1,1.1-1.1
			c0.6,0,1.1,0.5,1.1,1.1l-3.5,233C1300.6,925.5,1300.1,926,1299.5,926z"/>
	</g>
</g>
</svg>
