<svg width="27" height="27" viewBox="0 0 27 27" fill="none" xmlns="http://www.w3.org/2000/svg">
<path d="M16.9721 16.3648L9.34461 8.7373L8.9607 9.5473L14.4704 15.057C14.6613 15.2483 14.8034 15.4827 14.8848 15.7404C14.9662 15.9981 14.9845 16.2716 14.9382 16.5379C14.8919 16.8041 14.7823 17.0554 14.6187 17.2705C14.455 17.4856 14.2421 17.6582 13.9979 17.7739L9.94789 19.6934C9.49642 19.9076 9.00328 20.0197 8.50355 20.0217C8.00383 20.0237 7.50981 19.9155 7.05666 19.7048C6.60351 19.4942 6.20236 19.1862 5.88176 18.8029C5.56117 18.4195 5.329 17.9703 5.2018 17.487L1.29102 25.7346L18.2968 17.6895L16.9721 16.3648Z" fill="#F98188"/>
<path d="M17.3939 16.7861L12.6225 12.0147L8.33629 10.8672L6.86816 13.968L17.3939 16.7861Z" fill="#F3719A"/>
<path d="M14.4748 19.4993L5.40025 17.0693L3.93213 20.1659L9.76244 21.7311L14.4748 19.4993Z" fill="#F3719A"/>
<path d="M1.29102 25.7427L5.04992 23.9624L2.46383 23.2705L1.29102 25.7427Z" fill="#F3719A"/>
<path d="M19.4066 18.2036C19.4444 18.0616 19.4444 17.9121 19.4067 17.77C19.3689 17.628 19.2947 17.4982 19.1914 17.3936L9.64017 7.8466C9.5356 7.74328 9.40585 7.66908 9.26377 7.63134C9.1217 7.5936 8.97223 7.59364 8.83017 7.63145C8.86279 7.50778 8.9218 7.39264 9.00314 7.29395C8.86582 7.45549 8.79434 7.66281 8.80294 7.87465C8.81154 8.0865 8.89958 8.28735 9.04955 8.43723L18.5924 17.9843C18.7424 18.1354 18.9442 18.2242 19.157 18.2328C19.3698 18.2414 19.5781 18.1692 19.7399 18.0307C19.6424 18.1115 19.5288 18.1705 19.4066 18.2036Z" fill="#F98188"/>
<path d="M25.148 1.88613L24.4392 3.97863L25.7597 5.75051L23.5533 5.72098L22.275 7.52238L21.6211 5.41301L19.5117 4.7591L21.3131 3.48504L21.2836 1.27441L23.0555 2.59488L25.148 1.88613Z" fill="#F98188"/>
<path d="M10.5468 6.94808C10.3068 6.72452 9.9895 6.60281 9.66162 6.6086C9.33374 6.61438 9.0209 6.74721 8.78901 6.97909C8.55713 7.21098 8.4243 7.52381 8.41852 7.8517C8.41273 8.17958 8.53444 8.49691 8.758 8.73683L8.84659 8.82542L7.6991 11.247L6.49675 13.7782L2.09659 23.0595L0.911126 25.5612C0.882416 25.6251 0.870049 25.6951 0.875141 25.7649C0.880232 25.8347 0.902622 25.9022 0.940291 25.9612C0.97796 26.0202 1.02972 26.0689 1.09092 26.1029C1.15211 26.1369 1.22081 26.1552 1.29081 26.156C1.35377 26.1566 1.41596 26.1421 1.47222 26.1139L12.0866 21.0935L14.6516 19.8785L18.2038 18.191L18.2924 18.2796C18.4082 18.404 18.548 18.5037 18.7032 18.5729C18.8585 18.6421 19.0261 18.6793 19.196 18.6823C19.3659 18.6853 19.5347 18.654 19.6923 18.5903C19.8499 18.5267 19.9931 18.4319 20.1133 18.3118C20.2334 18.1916 20.3282 18.0484 20.3918 17.8908C20.4555 17.7332 20.4867 17.5644 20.4837 17.3945C20.4808 17.2246 20.4436 17.057 20.3744 16.9017C20.3052 16.7465 20.2055 16.6068 20.0811 16.4909L10.5468 6.94808ZM15.9847 15.972L7.46706 13.6896L8.56816 11.3651L12.403 12.3903L13.9893 13.9765L15.9847 15.972ZM8.93519 10.5889L9.47097 9.45823L11.2091 11.2006L8.93519 10.5889ZM10.5805 20.8742L9.73675 21.296L4.54769 19.9039L5.64878 17.5793L13.2721 19.6212L10.5805 20.8742ZM5.01175 23.5151L3.06269 22.992L4.16378 20.6717L8.54285 21.8445L5.01175 23.5151ZM2.17675 24.8567L2.69566 23.7682L3.8305 24.072L2.17675 24.8567ZM14.4322 19.0517L5.99472 16.7904L7.09581 14.4659L17.1702 17.1659L17.571 17.5625L14.4322 19.0517ZM19.4947 17.689C19.4555 17.7286 19.4088 17.7599 19.3574 17.7814C19.306 17.8028 19.2509 17.8138 19.1952 17.8138C19.1395 17.8138 19.0844 17.8028 19.0329 17.7814C18.9815 17.7599 18.9349 17.7286 18.8957 17.689L18.5961 17.3895L14.12 12.9134L9.34441 8.14198C9.30487 8.10277 9.27348 8.05611 9.25206 8.0047C9.23065 7.95329 9.21962 7.89815 9.21962 7.84245C9.21962 7.78676 9.23065 7.73162 9.25206 7.68021C9.27348 7.6288 9.30487 7.58214 9.34441 7.54292C9.38363 7.50338 9.43029 7.47199 9.4817 7.45058C9.5331 7.42916 9.58825 7.41813 9.64394 7.41813C9.69963 7.41813 9.75477 7.42916 9.80618 7.45058C9.85759 7.47199 9.90425 7.50338 9.94347 7.54292L19.4905 17.09C19.53 17.1292 19.5614 17.1758 19.5828 17.2272C19.6043 17.2786 19.6153 17.3338 19.6153 17.3895C19.6153 17.4452 19.6043 17.5003 19.5828 17.5517C19.5614 17.6031 19.53 17.6498 19.4905 17.689H19.4947Z" fill="#3D3D3D"/>
<path d="M19.4061 5.1598L21.3045 5.75043L21.8952 7.64886C21.9186 7.72405 21.9627 7.79117 22.0223 7.84262C22.082 7.89406 22.1548 7.92778 22.2327 7.93996H22.2959C22.3636 7.94032 22.4303 7.92441 22.4905 7.89358C22.5507 7.86274 22.6026 7.81788 22.6419 7.76277L23.7894 6.14277H25.7764C25.8553 6.14744 25.9337 6.12819 26.0015 6.08754C26.0692 6.0469 26.1231 5.98674 26.1561 5.91496C26.1862 5.84462 26.1966 5.76742 26.1862 5.69162C26.1758 5.61582 26.145 5.54427 26.097 5.48465L24.9116 3.90262L25.5486 2.02105C25.5742 1.94638 25.5783 1.86603 25.5605 1.78914C25.5426 1.71225 25.5036 1.6419 25.4478 1.58609C25.392 1.53028 25.3216 1.49125 25.2447 1.47342C25.1678 1.4556 25.0875 1.45971 25.0128 1.48527L23.1313 2.10965L21.5366 0.936834C21.4745 0.891408 21.4011 0.863832 21.3245 0.857091C21.2478 0.85035 21.1708 0.8647 21.1017 0.898589C21.0326 0.932478 20.9741 0.984614 20.9325 1.04936C20.891 1.1141 20.8679 1.18898 20.8658 1.2659L20.8911 3.25293L19.2669 4.40043C19.1992 4.4464 19.1463 4.51105 19.1147 4.58652C19.0832 4.66199 19.0742 4.74502 19.0889 4.8255C19.1037 4.90597 19.1415 4.98042 19.1978 5.03978C19.2542 5.09913 19.3265 5.14083 19.4061 5.1598ZM21.5577 3.82668C21.6134 3.78704 21.6586 3.73445 21.6894 3.67346C21.7203 3.61246 21.7359 3.54488 21.7349 3.47652V2.1223L22.8022 2.9534C22.8602 2.9933 22.9272 3.01807 22.9972 3.02544C23.0672 3.03281 23.138 3.02254 23.203 2.99558L24.4686 2.57371L24.0467 3.83933C24.025 3.9043 24.0194 3.9736 24.0304 4.04122C24.0414 4.10885 24.0687 4.17277 24.11 4.22746L24.92 5.31168H23.5658C23.4957 5.30805 23.4258 5.32197 23.3625 5.35218C23.2991 5.38238 23.2443 5.42791 23.203 5.48465L22.4225 6.58152L22.0217 5.29058C22.0015 5.22503 21.9655 5.16541 21.917 5.11689C21.8685 5.06837 21.8088 5.03241 21.7433 5.01215L20.4523 4.59027L21.5577 3.82668Z" fill="#3D3D3D"/>
<path d="M12.8921 7.82168C12.8108 7.86773 12.7472 7.93945 12.711 8.0256C12.6749 8.11175 12.6684 8.20745 12.6925 8.29769C12.7167 8.38793 12.7701 8.46762 12.8444 8.52424C12.9187 8.58087 13.0096 8.61124 13.103 8.61058C13.1769 8.61109 13.2497 8.59218 13.314 8.55574C13.9379 8.19569 14.4847 7.71626 14.9233 7.14485C15.3618 6.57343 15.6836 5.92122 15.87 5.22545C16.0565 4.52969 16.1041 3.804 16.0101 3.08984C15.9161 2.37568 15.6823 1.68704 15.3221 1.06324C15.2957 1.01282 15.2594 0.968263 15.2154 0.932239C15.1714 0.896215 15.1205 0.869473 15.0658 0.85362C15.0112 0.837767 14.9539 0.833132 14.8974 0.839992C14.8409 0.846853 14.7864 0.865069 14.7372 0.893543C14.6879 0.922017 14.6449 0.960162 14.6108 1.00568C14.5766 1.0512 14.5521 1.10316 14.5385 1.15842C14.525 1.21368 14.5228 1.27112 14.532 1.32726C14.5412 1.3834 14.5617 1.4371 14.5923 1.48511C15.2067 2.55094 15.3727 3.81713 15.0539 5.00535C14.7351 6.19356 13.9575 7.20656 12.8921 7.82168Z" fill="#3D3D3D"/>
<path d="M26.1268 12.2894C26.1547 12.2413 26.1728 12.1881 26.18 12.1329C26.1872 12.0777 26.1835 12.0217 26.169 11.968C26.1545 11.9142 26.1295 11.8639 26.0955 11.8199C26.0614 11.7759 26.019 11.739 25.9707 11.7115C25.3469 11.3513 24.6582 11.1175 23.9441 11.0235C23.2299 10.9295 22.5042 10.9771 21.8085 11.1635C21.1127 11.35 20.4605 11.6717 19.8891 12.1103C19.3176 12.5489 18.8382 13.0957 18.4782 13.7196C18.4222 13.8169 18.4072 13.9325 18.4365 14.0409C18.4658 14.1493 18.5369 14.2416 18.6343 14.2976C18.7316 14.3535 18.8472 14.3685 18.9556 14.3392C19.064 14.3099 19.1563 14.2388 19.2122 14.1415C19.8294 13.0805 20.8418 12.3072 22.0278 11.9909C23.2138 11.6747 24.4768 11.8412 25.5404 12.454C25.5894 12.4829 25.6437 12.5016 25.7001 12.5089C25.7566 12.5163 25.8139 12.5121 25.8687 12.4968C25.9234 12.4814 25.9745 12.4551 26.0189 12.4195C26.0633 12.3838 26.0999 12.3396 26.1268 12.2894Z" fill="#3D3D3D"/>
<path d="M16.179 10.855C16.2184 10.8941 16.2652 10.925 16.3166 10.946C16.368 10.967 16.423 10.9776 16.4785 10.9773C16.534 10.9776 16.5891 10.967 16.6405 10.946C16.6919 10.925 16.7386 10.8941 16.7781 10.855L19.7312 7.90184C19.8106 7.8224 19.8552 7.71466 19.8552 7.60231C19.8552 7.48997 19.8106 7.38222 19.7312 7.30278C19.6517 7.22334 19.544 7.17871 19.4316 7.17871C19.3193 7.17871 19.2116 7.22334 19.1321 7.30278L16.179 10.2559C16.1394 10.2951 16.1081 10.3418 16.0866 10.3932C16.0652 10.4446 16.0542 10.4997 16.0542 10.5554C16.0542 10.6111 16.0652 10.6663 16.0866 10.7177C16.1081 10.7691 16.1394 10.8157 16.179 10.855Z" fill="#3D3D3D"/>
<path d="M11.6818 6.32827C11.7315 6.34791 11.7845 6.35793 11.8379 6.3578C11.9224 6.35788 12.005 6.33259 12.0749 6.28521C12.1449 6.23782 12.199 6.17052 12.2302 6.09202L13.074 3.98264C13.0945 3.93112 13.1046 3.87607 13.1039 3.82062C13.1031 3.76517 13.0914 3.71042 13.0694 3.6595C13.0475 3.60857 13.0158 3.56246 12.976 3.52381C12.9362 3.48515 12.8893 3.45471 12.8377 3.43421C12.7862 3.41371 12.7312 3.40356 12.6757 3.40434C12.6203 3.40512 12.5655 3.41681 12.5146 3.43875C12.4637 3.46069 12.4176 3.49244 12.3789 3.5322C12.3402 3.57195 12.3098 3.61893 12.2893 3.67046L11.4456 5.77983C11.425 5.83135 11.4148 5.88642 11.4156 5.94188C11.4163 5.99734 11.428 6.0521 11.4499 6.10304C11.4719 6.15398 11.5037 6.2001 11.5434 6.23874C11.5832 6.27739 11.6302 6.30781 11.6818 6.32827Z" fill="#3D3D3D"/>
<path d="M22.6506 14.3821L20.5413 15.2258C20.4548 15.265 20.3841 15.3321 20.3406 15.4164C20.297 15.5007 20.2831 15.5972 20.3012 15.6904C20.3192 15.7835 20.3681 15.8679 20.44 15.9298C20.5119 15.9917 20.6026 16.0276 20.6974 16.0316C20.7508 16.0324 20.8039 16.0224 20.8535 16.0021L22.9628 15.1583C23.0669 15.117 23.1502 15.0359 23.1945 14.9331C23.2388 14.8302 23.2405 14.714 23.1991 14.6099C23.1577 14.5059 23.0766 14.4225 22.9738 14.3782C22.8709 14.3339 22.7547 14.3323 22.6506 14.3737V14.3821Z" fill="#3D3D3D"/>
<path d="M24.4941 10.125C24.606 10.125 24.7133 10.0806 24.7924 10.0014C24.8716 9.92232 24.916 9.81501 24.916 9.70312V9.28125H25.3379C25.4498 9.28125 25.5571 9.2368 25.6362 9.15769C25.7153 9.07857 25.7598 8.97126 25.7598 8.85938C25.7598 8.74749 25.7153 8.64018 25.6362 8.56106C25.5571 8.48195 25.4498 8.4375 25.3379 8.4375H24.916V8.01562C24.916 7.90374 24.8716 7.79643 24.7924 7.71731C24.7133 7.6382 24.606 7.59375 24.4941 7.59375C24.3823 7.59375 24.2749 7.6382 24.1958 7.71731C24.1167 7.79643 24.0723 7.90374 24.0723 8.01562V8.4375H23.6504C23.5385 8.4375 23.4312 8.48195 23.3521 8.56106C23.273 8.64018 23.2285 8.74749 23.2285 8.85938C23.2285 8.97126 23.273 9.07857 23.3521 9.15769C23.4312 9.2368 23.5385 9.28125 23.6504 9.28125H24.0723V9.70312C24.0723 9.81501 24.1167 9.92232 24.1958 10.0014C24.2749 10.0806 24.3823 10.125 24.4941 10.125Z" fill="#3D3D3D"/>
<path d="M17.0983 3.26141C17.1769 3.33935 17.283 3.38329 17.3937 3.38376C17.4492 3.38408 17.5042 3.37344 17.5556 3.35244C17.607 3.33145 17.6538 3.30051 17.6932 3.26141L17.9927 2.95344L18.288 3.25298C18.3275 3.29208 18.3742 3.32301 18.4256 3.344C18.477 3.365 18.532 3.37564 18.5876 3.37532C18.6431 3.37564 18.6981 3.365 18.7495 3.344C18.8009 3.32301 18.8477 3.29208 18.8871 3.25298C18.9266 3.21376 18.958 3.1671 18.9794 3.11569C19.0009 3.06428 19.0119 3.00914 19.0119 2.95344C19.0119 2.89775 19.0009 2.84261 18.9794 2.7912C18.958 2.73979 18.9266 2.69313 18.8871 2.65391L18.5876 2.35438L18.8871 2.05907C18.9665 1.97963 19.0112 1.87188 19.0112 1.75954C19.0112 1.64719 18.9665 1.53945 18.8871 1.46001C18.8077 1.38057 18.6999 1.33594 18.5876 1.33594C18.4752 1.33594 18.3675 1.38057 18.288 1.46001L17.9927 1.75954L17.6932 1.46001C17.6141 1.38143 17.5072 1.33733 17.3958 1.33733C17.2843 1.33733 17.1774 1.38143 17.0983 1.46001C17.0588 1.49923 17.0274 1.54589 17.006 1.5973C16.9846 1.6487 16.9736 1.70385 16.9736 1.75954C16.9736 1.81523 16.9846 1.87037 17.006 1.92178C17.0274 1.97319 17.0588 2.01985 17.0983 2.05907L17.3937 2.35438L17.0983 2.65391C17.0575 2.69327 17.025 2.74045 17.0029 2.79264C16.9807 2.84483 16.9692 2.90096 16.9692 2.95766C16.9692 3.01437 16.9807 3.0705 17.0029 3.12269C17.025 3.17488 17.0575 3.22206 17.0983 3.26141Z" fill="#3D3D3D"/>
<path d="M19.4313 10.1249C19.4283 10.1803 19.4361 10.2358 19.4545 10.2881C19.4729 10.3405 19.5014 10.3887 19.5385 10.43C19.5755 10.4713 19.6203 10.505 19.6703 10.529C19.7203 10.553 19.7746 10.5669 19.83 10.57C19.8854 10.573 19.9408 10.5651 19.9932 10.5467C20.0455 10.5284 20.0937 10.4998 20.1351 10.4628C20.1764 10.4258 20.21 10.381 20.2341 10.331C20.2581 10.281 20.272 10.2267 20.275 10.1713C20.2812 10.0594 20.2427 9.94966 20.1679 9.8662C20.0931 9.78273 19.9883 9.73238 19.8764 9.72622C19.7645 9.72007 19.6547 9.75862 19.5713 9.83338C19.4878 9.90815 19.4375 10.013 19.4313 10.1249Z" fill="#3D3D3D"/>
<path d="M17.3223 6.75879C17.5553 6.75879 17.7441 6.56991 17.7441 6.33691C17.7441 6.10392 17.5553 5.91504 17.3223 5.91504C17.0893 5.91504 16.9004 6.10392 16.9004 6.33691C16.9004 6.56991 17.0893 6.75879 17.3223 6.75879Z" fill="#3D3D3D"/>
<path d="M12.6816 2.11816C12.9146 2.11816 13.1035 1.92928 13.1035 1.69629C13.1035 1.46329 12.9146 1.27441 12.6816 1.27441C12.4486 1.27441 12.2598 1.46329 12.2598 1.69629C12.2598 1.92928 12.4486 2.11816 12.6816 2.11816Z" fill="#3D3D3D"/>
<path d="M25.7598 14.7744C25.9928 14.7744 26.1816 14.5855 26.1816 14.3525C26.1816 14.1195 25.9928 13.9307 25.7598 13.9307C25.5268 13.9307 25.3379 14.1195 25.3379 14.3525C25.3379 14.5855 25.5268 14.7744 25.7598 14.7744Z" fill="#3D3D3D"/>
<path d="M15.6348 9.29004C15.8678 9.29004 16.0566 9.10116 16.0566 8.86816C16.0566 8.63517 15.8678 8.44629 15.6348 8.44629C15.4018 8.44629 15.2129 8.63517 15.2129 8.86816C15.2129 9.10116 15.4018 9.29004 15.6348 9.29004Z" fill="#3D3D3D"/>
</svg>
