<svg width="27" height="27" viewBox="0 0 27 27" fill="none" xmlns="http://www.w3.org/2000/svg">
<g clip-path="url(#clip0_150_111)">
<path d="M13.5002 24.9767C13.0112 24.9767 12.5311 24.8454 12.1101 24.5965C8.75832 22.6121 0.934651 17.1187 0.67889 8.98709C0.649102 8.06126 0.804584 7.1388 1.13621 6.27389C1.46783 5.40897 1.96891 4.61903 2.61002 3.95043C3.81448 2.70695 5.40494 2.02246 7.08664 2.02246C9.56991 2.0309 11.8385 3.50482 12.8874 5.77662C12.9415 5.89376 13.028 5.99295 13.1367 6.06248C13.2454 6.13201 13.3717 6.16895 13.5007 6.16895C13.6297 6.16895 13.7561 6.13201 13.8648 6.06248C13.9734 5.99295 14.0599 5.89376 14.114 5.77662C15.1624 3.50482 17.431 2.03248 19.8921 2.02246C21.5965 2.02246 23.1859 2.70801 24.3909 3.95043C25.032 4.61926 25.5329 5.40941 25.8645 6.2745C26.196 7.13959 26.3514 8.06219 26.3215 8.98814C26.0652 17.1187 18.2415 22.6121 14.8903 24.5975C14.4692 24.8461 13.9891 24.977 13.5002 24.9767Z" fill="white"/>
<path d="M13.4997 24.9769C13.0103 24.9763 12.53 24.8443 12.1091 24.5946C9.51457 23.0589 3.43957 18.9182 1.38135 12.8243H8.41242L10.1247 15.3914L12.7414 11.4658L15.4714 16.927L17.9331 12.8243H25.6196C23.563 18.9151 17.4917 23.0547 14.8914 24.5951C14.47 24.8447 13.9894 24.9765 13.4997 24.9769Z" fill="url(#paint0_linear_150_111)"/>
<path d="M19.9132 1.34766H19.8889C17.0639 1.35768 14.6276 3.05098 13.4996 5.49416C12.3722 3.0515 9.93583 1.35768 7.11033 1.34766H7.08607C3.04609 1.34766 -0.125885 4.8893 0.00384146 9.00943C0.246947 16.7292 6.91521 22.096 10.7854 24.5745L10.8191 24.5961L10.9383 24.6715L11.0037 24.7132L11.1092 24.7781L11.1867 24.8266L11.2785 24.8835L11.3655 24.9363L11.4456 24.9853L11.5442 25.0449L11.6096 25.0845L11.7562 25.172L11.7684 25.1794C11.9005 25.2576 12.0377 25.3269 12.1792 25.3866L12.2155 25.4014C13.0406 25.7401 13.966 25.7401 14.7911 25.4014L14.8233 25.3887H14.8285C14.9683 25.3295 15.104 25.2609 15.2346 25.1836H15.2388L15.3944 25.0908L15.4555 25.0539L15.561 24.9911L15.6375 24.9447L15.7292 24.8883L15.8162 24.8355L15.9017 24.7828L15.9971 24.7232L16.0762 24.6731L16.1817 24.6062L16.2466 24.5645C16.4547 24.4309 16.6702 24.2892 16.8931 24.1395L16.9147 24.1247L17.0808 24.0118L17.1056 23.995L17.2786 23.8758L17.2933 23.8652C21.2073 21.1473 26.7771 16.0605 26.9991 9.01893C27.1262 4.88877 23.9547 1.34713 19.9132 1.34766ZM14.8032 23.8615L14.7505 23.8932L14.6772 23.937L14.5601 24.0066L14.5469 24.0145C14.2295 24.2011 13.8679 24.2996 13.4996 24.2996C13.1314 24.2996 12.7698 24.2011 12.4523 24.0145L12.4391 24.0066L12.3221 23.937L12.2488 23.8927L12.196 23.8615C9.68851 22.3417 4.52845 18.7131 2.35738 13.5003H8.05269L9.00191 14.9241L10.1251 16.6116L11.2489 14.9241L12.6564 12.8095L14.3165 16.1317L15.4165 18.3318L16.6821 16.2224L18.3153 13.5003H24.6434L24.6382 13.5135C22.465 18.7162 17.3165 22.3391 14.8032 23.8615ZM3.0946 4.42049C4.17144 3.3099 5.58999 2.69766 7.08712 2.69766H7.10663C9.30671 2.70557 11.3354 4.02498 12.2746 6.05947C12.3827 6.29363 12.5557 6.49191 12.773 6.63089C12.9902 6.76987 13.2428 6.84373 13.5007 6.84373C13.7586 6.84373 14.0111 6.76987 14.2284 6.63089C14.4457 6.49191 14.6186 6.29363 14.7268 6.05947C15.666 4.02498 17.6941 2.70504 19.8947 2.69766H19.9148C21.4124 2.69766 22.8304 3.30937 23.9068 4.41996C24.4851 5.0237 24.9369 5.73691 25.2358 6.51771C25.5346 7.2985 25.6744 8.13114 25.647 8.96672C25.6117 10.0458 25.4367 11.1157 25.1265 12.1498H17.5512L15.5257 15.5248L12.8251 10.1253L10.1251 14.1753L8.77462 12.1498H1.87433C1.56395 11.1152 1.38899 10.0447 1.35384 8.96514C1.32677 8.12987 1.46681 7.29761 1.76573 6.5172C2.06466 5.73678 2.51645 5.02393 3.0946 4.42049Z" fill="#3D3D3D"/>
<g opacity="0.14">
<path opacity="0.14" d="M19.8892 1.3477C19.1287 1.35105 18.3738 1.47914 17.6548 1.72686C20.8299 2.79526 23.0611 5.9841 22.9478 9.58586C22.7099 17.1316 16.7641 22.5865 12.5591 25.5164C13.0045 25.6454 13.4716 25.6819 13.9317 25.6237C14.3918 25.5655 14.835 25.4137 15.2343 25.1778C18.8202 23.0563 26.7304 17.4317 26.9967 9.00948C27.1259 4.8809 23.9413 1.33346 19.8892 1.3477Z" fill="#3D3D3D"/>
</g>
</g>
<defs>
<linearGradient id="paint0_linear_150_111" x1="31.5665" y1="19.9685" x2="0.924911" y2="19.8661" gradientUnits="userSpaceOnUse">
<stop stop-color="#FF835B"/>
<stop offset="1" stop-color="#F2709C"/>
</linearGradient>
<clipPath id="clip0_150_111">
<rect width="27" height="27" fill="white"/>
</clipPath>
</defs>
</svg>
