<svg width="30" height="30" viewBox="0 0 30 30" fill="none" xmlns="http://www.w3.org/2000/svg">
<path d="M3.06348 7.60156H23.9358V22.1214C23.9358 22.8733 23.3264 23.4827 22.5748 23.4827H4.42482C3.67287 23.4827 3.06348 22.8733 3.06348 22.1214V7.60156Z" fill="#3D3D3D"/>
<path d="M22.5745 23.9361H4.42458C3.4218 23.9361 2.60938 23.1239 2.60938 22.1211V16.4174C2.60938 16.1679 2.81376 15.9635 3.06324 15.9635C3.31272 15.9635 3.51685 16.1679 3.51685 16.4174V22.1209C3.51685 22.6198 3.92508 23.0283 4.42458 23.0283H22.5745C23.0735 23.0283 23.482 22.6198 23.482 22.1209V8.05466H3.51711V12.787C3.51711 13.0364 3.31299 13.2408 3.06351 13.2408C2.81403 13.2408 2.60964 13.0364 2.60964 12.787V7.60106C2.60964 7.48307 2.65932 7.36481 2.7414 7.27895C2.82726 7.19687 2.94066 7.14746 3.06351 7.14746H23.9359C24.0582 7.14746 24.1716 7.19255 24.258 7.27895C24.3438 7.36481 24.3895 7.47848 24.3895 7.60106V22.1209C24.3895 23.1239 23.5773 23.9361 22.5745 23.9361ZM3.06324 15.056C2.81376 15.056 2.60938 14.8516 2.60938 14.6022C2.60938 14.3527 2.81376 14.1486 3.06324 14.1486C3.31272 14.1486 3.51685 14.3527 3.51685 14.6022C3.51685 14.8516 3.31272 15.056 3.06324 15.056Z" fill="#3D3D3D"/>
<path d="M23.9359 8.05493H3.06324C2.81241 8.05493 2.60938 7.85189 2.60938 7.60106V5.33252C2.60938 4.33163 3.42342 3.51758 4.42458 3.51758H22.5745C23.5754 3.51758 24.3895 4.33163 24.3895 5.33252V7.60133C24.3895 7.85216 24.1867 8.05493 23.9359 8.05493ZM3.51711 7.14746H23.4823V5.33252C23.4823 4.83248 23.0751 4.42505 22.5748 4.42505H4.42458C3.92427 4.42505 3.51685 4.83248 3.51685 5.33252V7.14746H3.51711Z" fill="#3D3D3D"/>
<path d="M5.78661 5.33202C5.53578 5.33202 5.33301 5.12925 5.33301 4.87842V3.51708C5.33301 3.26625 5.53578 3.06348 5.78661 3.06348C6.03744 3.06348 6.24048 3.26625 6.24048 3.51708V4.87842C6.24021 5.12898 6.03744 5.33202 5.78661 5.33202ZM7.60155 5.33202C7.35099 5.33202 7.14795 5.12925 7.14795 4.87842V3.51708C7.14795 3.26625 7.35099 3.06348 7.60155 3.06348C7.85238 3.06348 8.05542 3.26625 8.05542 3.51708V4.87842C8.05515 5.12898 7.85238 5.33202 7.60155 5.33202ZM9.41649 5.33202C9.16566 5.33202 8.96262 5.12925 8.96262 4.87842V3.51708C8.96262 3.26625 9.16566 3.06348 9.41649 3.06348C9.66732 3.06348 9.87009 3.26625 9.87009 3.51708V4.87842C9.87036 5.12898 9.66732 5.33202 9.41649 5.33202ZM11.2314 5.33202C10.9806 5.33202 10.7776 5.12925 10.7776 4.87842V3.51708C10.7776 3.26625 10.9806 3.06348 11.2314 3.06348C11.4823 3.06348 11.685 3.26625 11.685 3.51708V4.87842C11.6853 5.12898 11.4823 5.33202 11.2314 5.33202ZM17.584 5.33202C17.3332 5.33202 17.1301 5.12925 17.1301 4.87842V3.51708C17.1301 3.26625 17.3332 3.06348 17.584 3.06348C17.8348 3.06348 18.0376 3.26625 18.0376 3.51708V4.87842C18.0376 5.12898 17.8348 5.33202 17.584 5.33202ZM15.769 5.33202C15.5185 5.33202 15.3154 5.12925 15.3154 4.87842V3.51708C15.3154 3.26625 15.5185 3.06348 15.769 3.06348C16.0199 3.06348 16.2229 3.26625 16.2229 3.51708V4.87842C16.2226 5.12898 16.0199 5.33202 15.769 5.33202ZM19.3989 5.33202C19.1481 5.33202 18.9451 5.12925 18.9451 4.87842V3.51708C18.9451 3.26625 19.1481 3.06348 19.3989 3.06348C19.6498 3.06348 19.8525 3.26625 19.8525 3.51708V4.87842C19.8528 5.12898 19.6498 5.33202 19.3989 5.33202ZM21.2141 5.33202C20.9633 5.33202 20.7605 5.12925 20.7605 4.87842V3.51708C20.7605 3.26625 20.9633 3.06348 21.2141 3.06348C21.465 3.06348 21.668 3.26625 21.668 3.51708V4.87842C21.6677 5.12898 21.4647 5.33202 21.2141 5.33202Z" fill="#F2709C"/>
<path d="M22.1206 17.584H13.9531V20.7603C13.9531 21.2614 14.3595 21.6677 14.8606 21.6677H21.2134C21.7145 21.6677 22.1209 21.2614 22.1209 20.7603V17.584H22.1206Z" fill="white"/>
<path d="M21.2136 22.1208H14.8611C14.1105 22.1208 13.5 21.5101 13.5 20.7595V17.5835C13.5 17.3329 13.7028 17.1299 13.9536 17.1299H22.1211C22.3719 17.1299 22.575 17.3329 22.575 17.5835V20.7598C22.5747 21.5104 21.9642 22.1208 21.2136 22.1208ZM14.4072 18.0371V20.7595C14.4072 21.0098 14.6105 21.2134 14.8608 21.2134H21.2136C21.4639 21.2134 21.6675 21.0098 21.6675 20.7595V18.0371H14.4072Z" fill="url(#paint0_linear_8250_1484)"/>
<path d="M22.1206 17.5835H13.9531V16.676C13.9531 16.1749 14.3595 15.7686 14.8606 15.7686H21.2134C21.7145 15.7686 22.1209 16.1749 22.1209 16.676V17.5835H22.1206Z" fill="white"/>
<path d="M22.1211 18.0369H13.9536C13.7028 18.0369 13.5 17.8338 13.5 17.583V16.6755C13.5 15.9249 14.1107 15.3145 14.8611 15.3145H21.2139C21.9645 15.3145 22.5752 15.9252 22.5752 16.6755V17.583C22.575 17.8341 22.3719 18.0369 22.1211 18.0369ZM14.4075 17.1294H21.6675V16.6755C21.6675 16.4252 21.4642 16.2219 21.2136 16.2219H14.8613C14.6111 16.2219 14.4077 16.4252 14.4077 16.6755V17.1294H14.4075Z" fill="url(#paint1_linear_8250_1484)"/>
<path d="M15.769 18.6753C15.5185 18.6753 15.3154 18.4723 15.3154 18.2217V17.314C15.3154 17.0634 15.5185 16.8604 15.769 16.8604C16.0199 16.8604 16.2229 17.0634 16.2229 17.314V18.2217C16.2226 18.4723 16.0199 18.6753 15.769 18.6753Z" fill="url(#paint2_linear_8250_1484)"/>
<path d="M20.3064 18.6753C20.0556 18.6753 19.8525 18.4723 19.8525 18.2217V17.314C19.8525 17.0634 20.0556 16.8604 20.3064 16.8604C20.5572 16.8604 20.7603 17.0634 20.7603 17.314V18.2217C20.7603 18.4723 20.5572 18.6753 20.3064 18.6753Z" fill="url(#paint3_linear_8250_1484)"/>
<path d="M18.9451 13.9541H17.1301C16.629 13.9541 16.2227 14.3605 16.2227 14.8616V15.769H19.8525V14.8616C19.8525 14.3602 19.4462 13.9541 18.9451 13.9541Z" fill="white"/>
<path d="M19.8526 16.2227H16.2224C15.9716 16.2227 15.7686 16.0196 15.7686 15.7688V14.8613C15.7686 14.1107 16.3793 13.5 17.1299 13.5H18.9448C19.6954 13.5 20.3062 14.1107 20.3062 14.8613V15.7688C20.3062 16.0199 20.1034 16.2227 19.8526 16.2227ZM16.6763 15.3152H19.3987V14.8613C19.3987 14.611 19.1954 14.4077 18.9448 14.4077H17.1299C16.8796 14.4077 16.6763 14.611 16.6763 14.8613V15.3152Z" fill="url(#paint4_linear_8250_1484)"/>
<path d="M4.87891 9.86989C4.87891 9.62041 5.0833 9.41602 5.33278 9.41602C5.58226 9.41602 5.78638 9.62041 5.78638 9.86989C5.78638 10.1194 5.58226 10.3238 5.33278 10.3238C5.0833 10.3235 4.87891 10.1191 4.87891 9.86989ZM7.60159 9.86989C7.60159 9.62041 7.80598 9.41602 8.05546 9.41602C8.30494 9.41602 8.50933 9.62041 8.50933 9.86989C8.50933 10.1194 8.30494 10.3238 8.05546 10.3238C7.80571 10.3235 7.60159 10.1191 7.60159 9.86989ZM10.324 9.86989C10.324 9.62041 10.5281 9.41602 10.7776 9.41602C11.0271 9.41602 11.2315 9.62041 11.2315 9.86989C11.2315 10.1194 11.0271 10.3238 10.7776 10.3238C10.5284 10.3235 10.324 10.1191 10.324 9.86989ZM13.0464 9.86989C13.0464 9.62041 13.2508 9.41602 13.5003 9.41602C13.7498 9.41602 13.9539 9.62041 13.9539 9.86989C13.9539 10.1194 13.7498 10.3238 13.5003 10.3238C13.2508 10.3235 13.0464 10.1191 13.0464 9.86989ZM15.7691 9.86989C15.7691 9.62041 15.9735 9.41602 16.223 9.41602C16.4724 9.41602 16.6768 9.62041 16.6768 9.86989C16.6768 10.1194 16.4724 10.3238 16.223 10.3238C15.9732 10.3235 15.7691 10.1191 15.7691 9.86989ZM18.4915 9.86989C18.4915 9.62041 18.6956 9.41602 18.9451 9.41602C19.1946 9.41602 19.399 9.62041 19.399 9.86989C19.399 10.1194 19.1946 10.3238 18.9451 10.3238C18.6959 10.3235 18.4915 10.1191 18.4915 9.86989ZM21.2142 9.86989C21.2142 9.62041 21.4186 9.41602 21.668 9.41602C21.9175 9.41602 22.1216 9.62041 22.1216 9.86989C22.1216 10.1194 21.9175 10.3238 21.668 10.3238C21.4183 10.3235 21.2142 10.1191 21.2142 9.86989Z" fill="white"/>
<path d="M4.87891 12.1384C4.87891 11.889 5.0833 11.6846 5.33278 11.6846C5.58226 11.6846 5.78638 11.889 5.78638 12.1384C5.78638 12.3879 5.58226 12.592 5.33278 12.592C5.0833 12.5923 4.87891 12.3879 4.87891 12.1384ZM7.60159 12.1384C7.60159 11.889 7.80598 11.6846 8.05546 11.6846C8.30494 11.6846 8.50933 11.889 8.50933 12.1384C8.50933 12.3879 8.30494 12.592 8.05546 12.592C7.80571 12.5923 7.60159 12.3879 7.60159 12.1384ZM10.324 12.1384C10.324 11.889 10.5281 11.6846 10.7776 11.6846C11.0271 11.6846 11.2315 11.889 11.2315 12.1384C11.2315 12.3879 11.0271 12.592 10.7776 12.592C10.5284 12.5923 10.324 12.3879 10.324 12.1384ZM13.0464 12.1384C13.0464 11.889 13.2508 11.6846 13.5003 11.6846C13.7498 11.6846 13.9539 11.889 13.9539 12.1384C13.9539 12.3879 13.7498 12.592 13.5003 12.592C13.2508 12.5923 13.0464 12.3879 13.0464 12.1384ZM15.7691 12.1384C15.7691 11.889 15.9735 11.6846 16.223 11.6846C16.4724 11.6846 16.6768 11.889 16.6768 12.1384C16.6768 12.3879 16.4724 12.592 16.223 12.592C15.9732 12.5923 15.7691 12.3879 15.7691 12.1384ZM18.4915 12.1384C18.4915 11.889 18.6956 11.6846 18.9451 11.6846C19.1946 11.6846 19.399 11.889 19.399 12.1384C19.399 12.3879 19.1946 12.592 18.9451 12.592C18.6959 12.5923 18.4915 12.3879 18.4915 12.1384ZM21.2142 12.1384C21.2142 11.889 21.4186 11.6846 21.668 11.6846C21.9175 11.6846 22.1216 11.889 22.1216 12.1384C22.1216 12.3879 21.9175 12.592 21.668 12.592C21.4183 12.5923 21.2142 12.3879 21.2142 12.1384Z" fill="white"/>
<path d="M4.87891 14.407C4.87891 14.1575 5.0833 13.9531 5.33278 13.9531C5.58226 13.9531 5.78638 14.1575 5.78638 14.407C5.78638 14.6565 5.58226 14.8606 5.33278 14.8606C5.0833 14.8609 4.87891 14.6565 4.87891 14.407ZM7.60159 14.407C7.60159 14.1575 7.80598 13.9531 8.05546 13.9531C8.30494 13.9531 8.50933 14.1575 8.50933 14.407C8.50933 14.6565 8.30494 14.8606 8.05546 14.8606C7.80571 14.8609 7.60159 14.6565 7.60159 14.407ZM10.324 14.407C10.324 14.1575 10.5281 13.9531 10.7776 13.9531C11.0271 13.9531 11.2315 14.1575 11.2315 14.407C11.2315 14.6565 11.0271 14.8606 10.7776 14.8606C10.5284 14.8609 10.324 14.6565 10.324 14.407ZM13.0464 14.407C13.0464 14.1575 13.2508 13.9531 13.5003 13.9531C13.7498 13.9531 13.9539 14.1575 13.9539 14.407C13.9539 14.6565 13.7498 14.8606 13.5003 14.8606C13.2508 14.8609 13.0464 14.6565 13.0464 14.407Z" fill="white"/>
<path d="M4.87891 17.1297C4.87891 16.8802 5.0833 16.6758 5.33278 16.6758C5.58226 16.6758 5.78638 16.8802 5.78638 17.1297C5.78638 17.3791 5.58226 17.5833 5.33278 17.5833C5.0833 17.5835 4.87891 17.3791 4.87891 17.1297ZM7.60159 17.1297C7.60159 16.8802 7.80598 16.6758 8.05546 16.6758C8.30494 16.6758 8.50933 16.8802 8.50933 17.1297C8.50933 17.3791 8.30494 17.5833 8.05546 17.5833C7.80571 17.5835 7.60159 17.3791 7.60159 17.1297ZM10.324 17.1297C10.324 16.8802 10.5281 16.6758 10.7776 16.6758C11.0271 16.6758 11.2315 16.8802 11.2315 17.1297C11.2315 17.3791 11.0271 17.5833 10.7776 17.5833C10.5284 17.5835 10.324 17.3791 10.324 17.1297Z" fill="white"/>
<path d="M10.324 20.3059H5.78661C5.53578 20.3059 5.33301 20.1029 5.33301 19.852C5.33301 19.6012 5.53578 19.3984 5.78661 19.3984H10.3242C10.5751 19.3984 10.7778 19.6012 10.7778 19.852C10.7778 20.1031 10.5748 20.3059 10.324 20.3059Z" fill="#F2709C"/>
<path d="M8.50902 22.1213H5.78661C5.53578 22.1213 5.33301 21.9183 5.33301 21.6675C5.33301 21.4169 5.53578 21.2139 5.78661 21.2139H8.50929C8.75985 21.2139 8.96289 21.4169 8.96289 21.6675C8.96262 21.9186 8.75985 22.1213 8.50902 22.1213Z" fill="#F2709C"/>
<defs>
<linearGradient id="paint0_linear_8250_1484" x1="24.8015" y1="20.2707" x2="13.3291" y2="20.2319" gradientUnits="userSpaceOnUse">
<stop stop-color="#FF835B"/>
<stop offset="1" stop-color="#F2709C"/>
</linearGradient>
<linearGradient id="paint1_linear_8250_1484" x1="24.8018" y1="17.0277" x2="13.3294" y2="16.9565" gradientUnits="userSpaceOnUse">
<stop stop-color="#FF835B"/>
<stop offset="1" stop-color="#F2709C"/>
</linearGradient>
<linearGradient id="paint2_linear_8250_1484" x1="16.4455" y1="18.0025" x2="15.2983" y2="18.0014" gradientUnits="userSpaceOnUse">
<stop stop-color="#FF835B"/>
<stop offset="1" stop-color="#F2709C"/>
</linearGradient>
<linearGradient id="paint3_linear_8250_1484" x1="20.983" y1="18.0025" x2="19.8354" y2="18.0014" gradientUnits="userSpaceOnUse">
<stop stop-color="#FF835B"/>
<stop offset="1" stop-color="#F2709C"/>
</linearGradient>
<linearGradient id="paint4_linear_8250_1484" x1="21.4195" y1="15.2134" x2="15.6831" y2="15.1956" gradientUnits="userSpaceOnUse">
<stop stop-color="#FF835B"/>
<stop offset="1" stop-color="#F2709C"/>
</linearGradient>
</defs>
</svg>
