<svg width="365" height="376" viewBox="0 0 365 376" fill="none" xmlns="http://www.w3.org/2000/svg">
<circle cx="183" cy="175" r="155" stroke="url(#paint0_linear_444_706)" stroke-width="40"/>
<g filter="url(#filter0_d_444_706)">
<circle cx="50" cy="89" r="43" fill="white"/>
</g>
<g filter="url(#filter1_d_444_706)">
<circle cx="315" cy="89" r="43" fill="white"/>
</g>
<g filter="url(#filter2_d_444_706)">
<circle cx="183" cy="326" r="43" fill="white"/>
</g>
<path d="M43.5803 100.496C42.2163 100.496 40.9867 100.217 39.8913 99.659C38.796 99.0803 37.8557 98.295 37.0703 97.303C36.3057 96.311 35.7167 95.1433 35.3033 93.8C34.89 92.436 34.6833 90.9687 34.6833 89.398C34.6833 87.8273 34.89 86.3703 35.3033 85.027C35.7167 83.663 36.3057 82.485 37.0703 81.493C37.8557 80.501 38.796 79.726 39.8913 79.168C40.9867 78.5893 42.2163 78.3 43.5803 78.3C44.9443 78.3 46.174 78.5893 47.2693 79.168C48.3647 79.726 49.2947 80.501 50.0593 81.493C50.8447 82.485 51.444 83.663 51.8573 85.027C52.2707 86.3703 52.4773 87.8273 52.4773 89.398C52.4773 90.9687 52.2707 92.436 51.8573 93.8C51.444 95.1433 50.8447 96.311 50.0593 97.303C49.2947 98.295 48.3647 99.0803 47.2693 99.659C46.174 100.217 44.9443 100.496 43.5803 100.496ZM43.5803 96.652C44.3243 96.652 44.996 96.4763 45.5953 96.125C46.1947 95.753 46.701 95.2467 47.1143 94.606C47.5483 93.9447 47.8687 93.1697 48.0753 92.281C48.3027 91.3923 48.4163 90.4313 48.4163 89.398C48.4163 88.344 48.3027 87.383 48.0753 86.515C47.8687 85.6263 47.5483 84.8617 47.1143 84.221C46.701 83.5597 46.1947 83.0533 45.5953 82.702C44.996 82.33 44.3243 82.144 43.5803 82.144C42.8157 82.144 42.1337 82.33 41.5343 82.702C40.935 83.0533 40.4287 83.5597 40.0153 84.221C39.602 84.8617 39.2817 85.6263 39.0543 86.515C38.8477 87.383 38.7443 88.344 38.7443 89.398C38.7443 90.4313 38.8477 91.3923 39.0543 92.281C39.2817 93.1697 39.602 93.9447 40.0153 94.606C40.4287 95.2467 40.935 95.753 41.5343 96.125C42.1337 96.4763 42.8157 96.652 43.5803 96.652ZM60.021 100V83.57L56.27 85.151L54.782 81.71L61.013 78.796H64.082V100H60.021Z" fill="#FF9472"/>
<path d="M306.703 100.496C305.339 100.496 304.11 100.217 303.014 99.659C301.919 99.0803 300.979 98.295 300.193 97.303C299.429 96.311 298.84 95.1433 298.426 93.8C298.013 92.436 297.806 90.9687 297.806 89.398C297.806 87.8273 298.013 86.3703 298.426 85.027C298.84 83.663 299.429 82.485 300.193 81.493C300.979 80.501 301.919 79.726 303.014 79.168C304.11 78.5893 305.339 78.3 306.703 78.3C308.067 78.3 309.297 78.5893 310.392 79.168C311.488 79.726 312.418 80.501 313.182 81.493C313.968 82.485 314.567 83.663 314.98 85.027C315.394 86.3703 315.6 87.8273 315.6 89.398C315.6 90.9687 315.394 92.436 314.98 93.8C314.567 95.1433 313.968 96.311 313.182 97.303C312.418 98.295 311.488 99.0803 310.392 99.659C309.297 100.217 308.067 100.496 306.703 100.496ZM306.703 96.652C307.447 96.652 308.119 96.4763 308.718 96.125C309.318 95.753 309.824 95.2467 310.237 94.606C310.671 93.9447 310.992 93.1697 311.198 92.281C311.426 91.3923 311.539 90.4313 311.539 89.398C311.539 88.344 311.426 87.383 311.198 86.515C310.992 85.6263 310.671 84.8617 310.237 84.221C309.824 83.5597 309.318 83.0533 308.718 82.702C308.119 82.33 307.447 82.144 306.703 82.144C305.939 82.144 305.257 82.33 304.657 82.702C304.058 83.0533 303.552 83.5597 303.138 84.221C302.725 84.8617 302.405 85.6263 302.177 86.515C301.971 87.383 301.867 88.344 301.867 89.398C301.867 90.4313 301.971 91.3923 302.177 92.281C302.405 93.1697 302.725 93.9447 303.138 94.606C303.552 95.2467 304.058 95.753 304.657 96.125C305.257 96.4763 305.939 96.652 306.703 96.652ZM318.091 100V96.311C319.31 95.1123 320.437 93.9963 321.47 92.963C321.904 92.529 322.348 92.0847 322.803 91.63C323.258 91.1753 323.681 90.7517 324.074 90.359C324.467 89.9663 324.818 89.615 325.128 89.305C325.438 88.9743 325.676 88.716 325.841 88.53C326.172 88.1373 326.461 87.786 326.709 87.476C326.978 87.166 327.184 86.8663 327.329 86.577C327.494 86.267 327.618 85.9673 327.701 85.678C327.784 85.368 327.825 85.0373 327.825 84.686C327.825 84.004 327.556 83.415 327.019 82.919C326.482 82.4023 325.748 82.144 324.818 82.144C323.888 82.144 323.165 82.4127 322.648 82.95C322.131 83.4667 321.78 84.0557 321.594 84.717L317.905 83.198C318.07 82.64 318.339 82.0717 318.711 81.493C319.083 80.8937 319.558 80.3667 320.137 79.912C320.716 79.4367 321.398 79.0543 322.183 78.765C322.989 78.455 323.888 78.3 324.88 78.3C325.955 78.3 326.926 78.4653 327.794 78.796C328.662 79.106 329.396 79.54 329.995 80.098C330.594 80.656 331.059 81.3173 331.39 82.082C331.721 82.826 331.886 83.632 331.886 84.5C331.886 85.8227 331.555 87.042 330.894 88.158C330.253 89.2533 329.468 90.2763 328.538 91.227L325.872 93.893C325.169 94.5957 324.374 95.381 323.485 96.249L323.609 96.435H332.196V100H318.091Z" fill="#F2709C"/>
<path d="M174.325 337.496C172.961 337.496 171.731 337.217 170.636 336.659C169.541 336.08 168.6 335.295 167.815 334.303C167.05 333.311 166.461 332.143 166.048 330.8C165.635 329.436 165.428 327.969 165.428 326.398C165.428 324.827 165.635 323.37 166.048 322.027C166.461 320.663 167.05 319.485 167.815 318.493C168.6 317.501 169.541 316.726 170.636 316.168C171.731 315.589 172.961 315.3 174.325 315.3C175.689 315.3 176.919 315.589 178.014 316.168C179.109 316.726 180.039 317.501 180.804 318.493C181.589 319.485 182.189 320.663 182.602 322.027C183.015 323.37 183.222 324.827 183.222 326.398C183.222 327.969 183.015 329.436 182.602 330.8C182.189 332.143 181.589 333.311 180.804 334.303C180.039 335.295 179.109 336.08 178.014 336.659C176.919 337.217 175.689 337.496 174.325 337.496ZM174.325 333.652C175.069 333.652 175.741 333.476 176.34 333.125C176.939 332.753 177.446 332.247 177.859 331.606C178.293 330.945 178.613 330.17 178.82 329.281C179.047 328.392 179.161 327.431 179.161 326.398C179.161 325.344 179.047 324.383 178.82 323.515C178.613 322.626 178.293 321.862 177.859 321.221C177.446 320.56 176.939 320.053 176.34 319.702C175.741 319.33 175.069 319.144 174.325 319.144C173.56 319.144 172.878 319.33 172.279 319.702C171.68 320.053 171.173 320.56 170.76 321.221C170.347 321.862 170.026 322.626 169.799 323.515C169.592 324.383 169.489 325.344 169.489 326.398C169.489 327.431 169.592 328.392 169.799 329.281C170.026 330.17 170.347 330.945 170.76 331.606C171.173 332.247 171.68 332.753 172.279 333.125C172.878 333.476 173.56 333.652 174.325 333.652ZM193.3 337.496C192.432 337.496 191.595 337.382 190.789 337.155C190.004 336.928 189.281 336.587 188.619 336.132C187.958 335.657 187.369 335.068 186.852 334.365C186.356 333.662 185.974 332.846 185.705 331.916L189.518 330.397C189.787 331.43 190.242 332.216 190.882 332.753C191.523 333.27 192.329 333.528 193.3 333.528C193.734 333.528 194.148 333.466 194.54 333.342C194.933 333.197 195.274 333.001 195.563 332.753C195.853 332.505 196.08 332.216 196.245 331.885C196.431 331.534 196.524 331.141 196.524 330.707C196.524 329.798 196.183 329.085 195.501 328.568C194.84 328.051 193.92 327.793 192.742 327.793H190.913V324.104H192.587C193.001 324.104 193.404 324.052 193.796 323.949C194.189 323.846 194.53 323.691 194.819 323.484C195.129 323.257 195.367 322.978 195.532 322.647C195.718 322.296 195.811 321.893 195.811 321.438C195.811 320.735 195.563 320.167 195.067 319.733C194.571 319.278 193.9 319.051 193.052 319.051C192.143 319.051 191.44 319.299 190.944 319.795C190.469 320.27 190.138 320.808 189.952 321.407L186.232 319.888C186.418 319.371 186.697 318.844 187.069 318.307C187.441 317.749 187.906 317.253 188.464 316.819C189.043 316.364 189.715 316.003 190.479 315.734C191.244 315.445 192.122 315.3 193.114 315.3C194.127 315.3 195.047 315.445 195.873 315.734C196.721 316.023 197.444 316.426 198.043 316.943C198.643 317.439 199.108 318.038 199.438 318.741C199.769 319.423 199.934 320.167 199.934 320.973C199.934 321.593 199.852 322.151 199.686 322.647C199.542 323.143 199.345 323.587 199.097 323.98C198.849 324.373 198.56 324.714 198.229 325.003C197.919 325.272 197.599 325.489 197.268 325.654V325.902C198.26 326.295 199.077 326.925 199.717 327.793C200.379 328.661 200.709 329.756 200.709 331.079C200.709 332.009 200.534 332.867 200.182 333.652C199.831 334.417 199.325 335.088 198.663 335.667C198.023 336.246 197.248 336.69 196.338 337C195.429 337.331 194.416 337.496 193.3 337.496Z" fill="#F98386"/>
<defs>
<filter id="filter0_d_444_706" x="0" y="39" width="100" height="100" filterUnits="userSpaceOnUse" color-interpolation-filters="sRGB">
<feFlood flood-opacity="0" result="BackgroundImageFix"/>
<feColorMatrix in="SourceAlpha" type="matrix" values="0 0 0 0 0 0 0 0 0 0 0 0 0 0 0 0 0 0 127 0" result="hardAlpha"/>
<feMorphology radius="1" operator="dilate" in="SourceAlpha" result="effect1_dropShadow_444_706"/>
<feOffset/>
<feGaussianBlur stdDeviation="3"/>
<feComposite in2="hardAlpha" operator="out"/>
<feColorMatrix type="matrix" values="0 0 0 0 0 0 0 0 0 0 0 0 0 0 0 0 0 0 0.25 0"/>
<feBlend mode="normal" in2="BackgroundImageFix" result="effect1_dropShadow_444_706"/>
<feBlend mode="normal" in="SourceGraphic" in2="effect1_dropShadow_444_706" result="shape"/>
</filter>
<filter id="filter1_d_444_706" x="265" y="39" width="100" height="100" filterUnits="userSpaceOnUse" color-interpolation-filters="sRGB">
<feFlood flood-opacity="0" result="BackgroundImageFix"/>
<feColorMatrix in="SourceAlpha" type="matrix" values="0 0 0 0 0 0 0 0 0 0 0 0 0 0 0 0 0 0 127 0" result="hardAlpha"/>
<feMorphology radius="1" operator="dilate" in="SourceAlpha" result="effect1_dropShadow_444_706"/>
<feOffset/>
<feGaussianBlur stdDeviation="3"/>
<feComposite in2="hardAlpha" operator="out"/>
<feColorMatrix type="matrix" values="0 0 0 0 0 0 0 0 0 0 0 0 0 0 0 0 0 0 0.25 0"/>
<feBlend mode="normal" in2="BackgroundImageFix" result="effect1_dropShadow_444_706"/>
<feBlend mode="normal" in="SourceGraphic" in2="effect1_dropShadow_444_706" result="shape"/>
</filter>
<filter id="filter2_d_444_706" x="133" y="276" width="100" height="100" filterUnits="userSpaceOnUse" color-interpolation-filters="sRGB">
<feFlood flood-opacity="0" result="BackgroundImageFix"/>
<feColorMatrix in="SourceAlpha" type="matrix" values="0 0 0 0 0 0 0 0 0 0 0 0 0 0 0 0 0 0 127 0" result="hardAlpha"/>
<feMorphology radius="1" operator="dilate" in="SourceAlpha" result="effect1_dropShadow_444_706"/>
<feOffset/>
<feGaussianBlur stdDeviation="3"/>
<feComposite in2="hardAlpha" operator="out"/>
<feColorMatrix type="matrix" values="0 0 0 0 0 0 0 0 0 0 0 0 0 0 0 0 0 0 0.25 0"/>
<feBlend mode="normal" in2="BackgroundImageFix" result="effect1_dropShadow_444_706"/>
<feBlend mode="normal" in="SourceGraphic" in2="effect1_dropShadow_444_706" result="shape"/>
</filter>
<linearGradient id="paint0_linear_444_706" x1="443.872" y1="220.258" x2="1.40567" y2="219.434" gradientUnits="userSpaceOnUse">
<stop stop-color="#FF835B"/>
<stop offset="1" stop-color="#F2709C"/>
</linearGradient>
</defs>
</svg>
