<svg width="126" height="254" viewBox="0 0 126 254" fill="none" xmlns="http://www.w3.org/2000/svg">
<path fill-rule="evenodd" clip-rule="evenodd" d="M126.024 0C121.49 0.705627 116.949 1.66112 112.417 2.87556C44.0811 21.1861 3.52745 91.4271 21.838 159.763C35.3916 210.346 77.3979 245.706 126.024 253.239V222.762C90.7487 215.562 60.7673 189.138 50.8158 151.999C36.7935 99.6665 67.8497 45.8757 120.182 31.8533C122.128 31.3319 124.076 30.8728 126.024 30.4748V0Z" fill="url(#paint0_linear_933_11304)"/>
<g filter="url(#filter0_d_933_11304)">
<circle cx="44.5" cy="72.5" r="37.5" transform="rotate(-90 44.5 72.5)" fill="white"/>
</g>
<path d="M36.325 84.496C34.961 84.496 33.7313 84.217 32.636 83.659C31.5406 83.0803 30.6003 82.295 29.815 81.303C29.0503 80.311 28.4613 79.1433 28.048 77.8C27.6346 76.436 27.428 74.9687 27.428 73.398C27.428 71.8273 27.6346 70.3703 28.048 69.027C28.4613 67.663 29.0503 66.485 29.815 65.493C30.6003 64.501 31.5406 63.726 32.636 63.168C33.7313 62.5893 34.961 62.3 36.325 62.3C37.689 62.3 38.9186 62.5893 40.014 63.168C41.1093 63.726 42.0393 64.501 42.804 65.493C43.5893 66.485 44.1886 67.663 44.602 69.027C45.0153 70.3703 45.222 71.8273 45.222 73.398C45.222 74.9687 45.0153 76.436 44.602 77.8C44.1886 79.1433 43.5893 80.311 42.804 81.303C42.0393 82.295 41.1093 83.0803 40.014 83.659C38.9186 84.217 37.689 84.496 36.325 84.496ZM36.325 80.652C37.069 80.652 37.7406 80.4763 38.34 80.125C38.9393 79.753 39.4456 79.2467 39.859 78.606C40.293 77.9447 40.6133 77.1697 40.82 76.281C41.0473 75.3923 41.161 74.4313 41.161 73.398C41.161 72.344 41.0473 71.383 40.82 70.515C40.6133 69.6263 40.293 68.8617 39.859 68.221C39.4456 67.5597 38.9393 67.0533 38.34 66.702C37.7406 66.33 37.069 66.144 36.325 66.144C35.5603 66.144 34.8783 66.33 34.279 66.702C33.6796 67.0533 33.1733 67.5597 32.76 68.221C32.3466 68.8617 32.0263 69.6263 31.799 70.515C31.5923 71.383 31.489 72.344 31.489 73.398C31.489 74.4313 31.5923 75.3923 31.799 76.281C32.0263 77.1697 32.3466 77.9447 32.76 78.606C33.1733 79.2467 33.6796 79.753 34.279 80.125C34.8783 80.4763 35.5603 80.652 36.325 80.652ZM55.3004 84.496C54.4324 84.496 53.5954 84.3823 52.7894 84.155C52.004 83.9277 51.2807 83.5867 50.6194 83.132C49.958 82.6567 49.369 82.0677 48.8524 81.365C48.3564 80.6623 47.974 79.846 47.7054 78.916L51.5184 77.397C51.787 78.4303 52.2417 79.2157 52.8824 79.753C53.523 80.2697 54.329 80.528 55.3004 80.528C55.7344 80.528 56.1477 80.466 56.5404 80.342C56.933 80.1973 57.274 80.001 57.5634 79.753C57.8527 79.505 58.08 79.2157 58.2454 78.885C58.4314 78.5337 58.5244 78.141 58.5244 77.707C58.5244 76.7977 58.1834 76.0847 57.5014 75.568C56.84 75.0513 55.9204 74.793 54.7424 74.793H52.9134V71.104H54.5874C55.0007 71.104 55.4037 71.0523 55.7964 70.949C56.189 70.8457 56.53 70.6907 56.8194 70.484C57.1294 70.2567 57.367 69.9777 57.5324 69.647C57.7184 69.2957 57.8114 68.8927 57.8114 68.438C57.8114 67.7353 57.5634 67.167 57.0674 66.733C56.5714 66.2783 55.8997 66.051 55.0524 66.051C54.143 66.051 53.4404 66.299 52.9444 66.795C52.469 67.2703 52.1384 67.8077 51.9524 68.407L48.2324 66.888C48.4184 66.3713 48.6974 65.8443 49.0694 65.307C49.4414 64.749 49.9064 64.253 50.4644 63.819C51.043 63.3643 51.7147 63.0027 52.4794 62.734C53.244 62.4447 54.1224 62.3 55.1144 62.3C56.127 62.3 57.0467 62.4447 57.8734 62.734C58.7207 63.0233 59.444 63.4263 60.0434 63.943C60.6427 64.439 61.1077 65.0383 61.4384 65.741C61.769 66.423 61.9344 67.167 61.9344 67.973C61.9344 68.593 61.8517 69.151 61.6864 69.647C61.5417 70.143 61.3454 70.5873 61.0974 70.98C60.8494 71.3727 60.56 71.7137 60.2294 72.003C59.9194 72.2717 59.599 72.4887 59.2684 72.654V72.902C60.2604 73.2947 61.0767 73.925 61.7174 74.793C62.3787 75.661 62.7094 76.7563 62.7094 78.079C62.7094 79.009 62.5337 79.8667 62.1824 80.652C61.831 81.4167 61.3247 82.0883 60.6634 82.667C60.0227 83.2457 59.2477 83.69 58.3384 84C57.429 84.3307 56.4164 84.496 55.3004 84.496Z" fill="#F98386"/>
<defs>
<filter id="filter0_d_933_11304" x="0" y="28" width="89" height="89" filterUnits="userSpaceOnUse" color-interpolation-filters="sRGB">
<feFlood flood-opacity="0" result="BackgroundImageFix"/>
<feColorMatrix in="SourceAlpha" type="matrix" values="0 0 0 0 0 0 0 0 0 0 0 0 0 0 0 0 0 0 127 0" result="hardAlpha"/>
<feMorphology radius="1" operator="dilate" in="SourceAlpha" result="effect1_dropShadow_933_11304"/>
<feOffset/>
<feGaussianBlur stdDeviation="3"/>
<feComposite in2="hardAlpha" operator="out"/>
<feColorMatrix type="matrix" values="0 0 0 0 0 0 0 0 0 0 0 0 0 0 0 0 0 0 0.25 0"/>
<feBlend mode="normal" in2="BackgroundImageFix" result="effect1_dropShadow_933_11304"/>
<feBlend mode="normal" in="SourceGraphic" in2="effect1_dropShadow_933_11304" result="shape"/>
</filter>
<linearGradient id="paint0_linear_933_11304" x1="152.664" y1="159.366" x2="15.3952" y2="159.256" gradientUnits="userSpaceOnUse">
<stop stop-color="#FF835B"/>
<stop offset="1" stop-color="#F2709C"/>
</linearGradient>
</defs>
</svg>
