<svg width="126" height="253" viewBox="0 0 126 253" fill="none" xmlns="http://www.w3.org/2000/svg">
<path fill-rule="evenodd" clip-rule="evenodd" d="M126 0C121.472 0.70496 116.937 1.65955 112.411 2.87284C44.1608 21.1661 3.65826 91.3407 21.9458 159.612C35.4823 210.147 77.4356 245.474 126 253V222.52C90.7892 215.326 60.8592 188.94 50.9229 151.845C36.9204 99.5707 67.9342 45.853 120.173 31.8512C122.114 31.331 124.057 30.8729 126 30.4757V0Z" fill="url(#paint0_linear_933_11270)"/>
<g filter="url(#filter0_d_933_11270)">
<ellipse cx="44.5797" cy="72.8597" rx="37.4646" ry="37.4528" transform="rotate(-90 44.5797 72.8597)" fill="white"/>
</g>
<path d="M38.2327 84.4452C36.8687 84.4452 35.6391 84.1662 34.5437 83.6082C33.4484 83.0296 32.5081 82.2442 31.7227 81.2522C30.9581 80.2602 30.3691 79.0926 29.9557 77.7492C29.5424 76.3852 29.3357 74.9179 29.3357 73.3472C29.3357 71.7766 29.5424 70.3196 29.9557 68.9762C30.3691 67.6122 30.9581 66.4342 31.7227 65.4422C32.5081 64.4502 33.4484 63.6752 34.5437 63.1172C35.6391 62.5386 36.8687 62.2492 38.2327 62.2492C39.5967 62.2492 40.8264 62.5386 41.9217 63.1172C43.0171 63.6752 43.9471 64.4502 44.7117 65.4422C45.4971 66.4342 46.0964 67.6122 46.5097 68.9762C46.9231 70.3196 47.1297 71.7766 47.1297 73.3472C47.1297 74.9179 46.9231 76.3852 46.5097 77.7492C46.0964 79.0926 45.4971 80.2602 44.7117 81.2522C43.9471 82.2442 43.0171 83.0296 41.9217 83.6082C40.8264 84.1662 39.5967 84.4452 38.2327 84.4452ZM38.2327 80.6012C38.9767 80.6012 39.6484 80.4256 40.2477 80.0742C40.8471 79.7022 41.3534 79.1959 41.7667 78.5552C42.2007 77.8939 42.5211 77.1189 42.7277 76.2302C42.9551 75.3416 43.0687 74.3806 43.0687 73.3472C43.0687 72.2932 42.9551 71.3322 42.7277 70.4642C42.5211 69.5756 42.2007 68.8109 41.7667 68.1702C41.3534 67.5089 40.8471 67.0026 40.2477 66.6512C39.6484 66.2792 38.9767 66.0932 38.2327 66.0932C37.4681 66.0932 36.7861 66.2792 36.1867 66.6512C35.5874 67.0026 35.0811 67.5089 34.6677 68.1702C34.2544 68.8109 33.9341 69.5756 33.7067 70.4642C33.5001 71.3322 33.3967 72.2932 33.3967 73.3472C33.3967 74.3806 33.5001 75.3416 33.7067 76.2302C33.9341 77.1189 34.2544 77.8939 34.6677 78.5552C35.0811 79.1959 35.5874 79.7022 36.1867 80.0742C36.7861 80.4256 37.4681 80.6012 38.2327 80.6012ZM54.6734 83.9492V67.5192L50.9224 69.1002L49.4344 65.6592L55.6654 62.7452H58.7344V83.9492H54.6734Z" fill="#FF9472"/>
<defs>
<filter id="filter0_d_933_11270" x="0.126953" y="28.3955" width="88.9053" height="88.9287" filterUnits="userSpaceOnUse" color-interpolation-filters="sRGB">
<feFlood flood-opacity="0" result="BackgroundImageFix"/>
<feColorMatrix in="SourceAlpha" type="matrix" values="0 0 0 0 0 0 0 0 0 0 0 0 0 0 0 0 0 0 127 0" result="hardAlpha"/>
<feMorphology radius="1" operator="dilate" in="SourceAlpha" result="effect1_dropShadow_933_11270"/>
<feOffset/>
<feGaussianBlur stdDeviation="3"/>
<feComposite in2="hardAlpha" operator="out"/>
<feColorMatrix type="matrix" values="0 0 0 0 0 0 0 0 0 0 0 0 0 0 0 0 0 0 0.25 0"/>
<feBlend mode="normal" in2="BackgroundImageFix" result="effect1_dropShadow_933_11270"/>
<feBlend mode="normal" in="SourceGraphic" in2="effect1_dropShadow_933_11270" result="shape"/>
</filter>
<linearGradient id="paint0_linear_933_11270" x1="152.607" y1="159.215" x2="15.5111" y2="159.106" gradientUnits="userSpaceOnUse">
<stop stop-color="#FF835B"/>
<stop offset="1" stop-color="#F2709C"/>
</linearGradient>
</defs>
</svg>
