<svg width="27" height="32" viewBox="0 0 27 32" fill="none" xmlns="http://www.w3.org/2000/svg">
<path d="M0.335131 16.5887C-0.492353 17.9238 0.473045 19.8113 0.473045 19.8113C0.473045 19.8113 1.16262 21.7909 2.72564 22.0671C4.47255 22.3894 14.3104 17.9698 25.8033 21.1003L21.2061 10.6038L16.563 0.15332C11.1384 10.788 1.30053 15.0694 0.335131 16.5887Z" fill="#FF88AB"/>
<path d="M10.265 8.71777C10.265 8.71777 9.75931 14.9328 15.092 20.135H13.529C13.529 20.135 8.83988 16.0838 9.11571 9.7306L10.265 8.71777Z" fill="#3D3D3D"/>
<path d="M4.8863 13.1816C2.49579 14.885 0.702902 15.9439 0.335131 16.5424C-0.492353 17.8775 0.473045 19.765 0.473045 19.765C0.473045 19.765 1.16262 21.7446 2.72564 22.0208C3.41521 22.1589 5.34601 21.5604 8.15026 20.962C5.2081 17.7393 4.8863 13.1816 4.8863 13.1816Z" fill="#3D3D3D"/>
<path d="M22.3551 13.2292C20.6542 12.6768 19.413 12.3545 19.413 12.3545C18.2177 18.6156 9.62106 19.3522 6.03529 20.6873C2.44953 22.0223 1.02441 20.8254 1.02441 20.8254C1.39218 21.3318 1.94384 21.8842 2.72535 22.0223C4.47227 22.3446 14.3101 17.925 25.803 21.0556L22.3551 13.2292Z" fill="#F98188"/>
<path opacity="0.7" d="M2.4502 15.6232C2.4502 15.6232 10.2653 10.8353 11.9663 7.79688L12.7018 10.9274C12.7018 10.8814 7.92079 14.4263 2.4502 15.6232Z" fill="white"/>
<path d="M16.6998 0.108398L13.252 4.20573C13.252 4.20573 13.4358 13.6894 20.6074 20.9173L25.8941 21.0554L16.6998 0.108398Z" fill="#FF9472"/>
<path d="M24.6535 9.08486C27.1819 14.8856 27.7795 20.2259 25.8947 21.0546C24.0558 21.8833 20.4701 17.832 17.9417 12.0773C15.4132 6.27658 14.8616 0.936242 16.7004 0.107568C18.5393 -0.721105 22.125 3.33019 24.6535 9.08486Z" fill="#3D3D3D"/>
<path d="M23.8715 9.45441C26.17 14.6566 26.9056 19.3064 25.5724 19.9049C24.2392 20.5034 21.2971 16.7744 19.0445 11.5721C16.7459 6.3699 16.0104 1.72012 17.3435 1.12164C18.6307 0.569189 21.5729 4.29822 23.8715 9.45441Z" fill="#FF9472"/>
<g opacity="0.4">
<path opacity="0.4" d="M25.5725 18.5696C24.2853 19.122 21.3891 15.4851 19.1825 10.4209C17.6195 6.83002 16.792 3.51532 16.8839 1.67383C16.2863 3.14703 17.1138 7.19832 19.0446 11.5719C21.3431 16.7741 24.2393 20.4571 25.5725 19.9046C26.1242 19.6745 26.308 18.7537 26.1701 17.4186C26.1242 18.0171 25.9403 18.4314 25.5725 18.5696Z" fill="#AA710A"/>
</g>
<path d="M21.7566 16.633L22.7679 14.0549L19.9637 7.83984L17.6191 7.88588C17.6191 7.88588 18.8604 12.2594 21.7566 16.633Z" fill="white"/>
<path d="M22.5378 10.419C23.3193 12.1224 23.4113 13.7798 22.7677 14.056C22.1241 14.3322 20.9748 13.1813 20.1933 11.4319C19.4117 9.72847 19.3198 8.07112 19.9634 7.7949C20.607 7.56471 21.7563 8.71564 22.5378 10.419Z" fill="#414042"/>
<path d="M8.60996 29.2329C8.7019 29.7393 8.42607 30.2917 7.96636 30.4759L6.81708 30.9823C6.35736 31.1664 5.89765 30.9362 5.75974 30.4298L3.27728 19.611C3.18534 19.1046 3.46117 18.7363 3.96685 18.7363L5.52988 18.7824C6.03556 18.7824 6.54125 19.1967 6.63319 19.7031L8.60996 29.2329Z" fill="#FF9472"/>
<path opacity="0.3" d="M5.52974 18.7824L3.96672 18.7363C3.46103 18.7363 3.13923 19.1046 3.27715 19.611L3.78283 21.7288C4.74823 20.762 5.7596 21.6367 6.4032 22.5574C7.0468 23.4782 8.47191 28.3581 8.47191 28.3581L6.67903 19.7031C6.54111 19.2427 6.03543 18.8284 5.52974 18.7824Z" fill="#FF9472"/>
<path d="M5.34551 19.8412C5.43745 20.0714 5.34551 20.3936 5.06968 20.4857C4.83982 20.5778 4.51802 20.4857 4.42608 20.2095C4.33414 19.9793 4.42608 19.657 4.70191 19.565C4.97774 19.4729 5.25356 19.611 5.34551 19.8412Z" fill="#3D3D3D"/>
</svg>
