<svg width="27" height="20" viewBox="0 0 27 20" fill="none" xmlns="http://www.w3.org/2000/svg">
<path d="M19.8451 6.92046C19.1694 5.8515 17.3747 5.51543 16.2164 5.40461C14.5289 5.24372 12.8772 5.18652 11.1468 5.18652C9.21269 5.18652 7.25351 5.40818 5.44092 6.10176C3.42097 6.87756 3.37449 8.50782 3.39594 8.683C3.4317 8.94399 3.4746 9.10844 3.52465 9.373L3.74273 10.2453C3.73916 10.2167 3.73916 10.1917 3.73916 10.1631C4.93325 15.6438 11.7153 15.1897 15.8052 13.6453C17.3318 13.0697 18.8334 12.2438 19.5734 10.7316C19.863 10.1417 20.0632 9.3301 20.1562 8.67228C20.1848 8.47564 20.2455 8.25756 20.2348 8.06093C20.2169 7.64621 20.0561 7.25652 19.8451 6.92046Z" fill="#2B2422"/>
<path d="M19.5382 8.14485C19.5453 7.74443 19.1592 7.5049 18.7945 7.4906C18.9483 6.67189 17.8686 7.16169 17.7077 6.66832C17.5861 6.2965 18.058 6.3108 17.7971 5.92469C17.6398 5.68873 17.3394 5.62438 17.175 5.4063C16.9641 5.12386 17.007 5.02376 16.6065 4.92723C16.3313 4.8593 16.0774 5.00231 15.9487 4.66624C15.8415 4.38023 16.0524 4.14785 15.8093 3.83681C15.6484 3.62946 15.366 3.49003 15.1336 3.3935C14.7689 3.24334 14.5079 3.23262 14.1755 3.45785C13.8465 3.67951 13.6213 4.0263 13.1637 3.85111C12.8276 3.72241 12.7561 3.44355 12.3343 3.44712C11.9696 3.4507 11.7658 3.64376 11.4298 3.65448C11.2867 3.65806 11.1437 3.54723 10.9721 3.65091C10.8327 3.73313 10.872 3.98697 10.7219 4.04775C10.5109 4.13355 10.2178 3.81179 9.93535 3.79391C9.09162 3.74028 8.5196 4.45889 8.13706 5.09526C7.36483 4.88433 6.69628 4.97371 6.19576 5.75308C5.94908 6.13562 6.07778 6.27148 6.10996 6.66832C6.15643 7.23319 6.02415 7.05086 5.66306 7.10448C5.46286 7.13308 4.93016 7.18314 4.79073 7.32257C4.6513 7.45842 4.79788 7.63003 4.70493 7.76231C4.6084 7.89816 4.51545 7.85884 4.39747 7.93391C4.09001 8.13055 3.90767 8.1234 3.87192 8.58816C3.85047 8.8563 3.87907 9.27101 4.0471 9.4605L4.39747 10.247C4.44394 11.0657 5.37705 12.0989 6.05633 12.4815C6.71415 12.8533 7.51498 13.0178 8.25146 13.1572C9.73157 13.4396 11.3547 13.6684 12.8598 13.4646C14.4758 13.2501 16.3384 12.6567 17.7685 11.8558C18.6908 11.341 19.3379 10.7833 19.6955 9.77511C19.8492 9.33537 20.221 8.33433 19.5382 8.14485Z" fill="#FF9373"/>
<path d="M20.2385 8.0625C20.0561 8.56659 19.6915 8.88836 19.3518 9.19939C18.905 9.61411 18.4402 9.91799 17.886 10.1969C16.4703 10.9083 14.8364 11.155 13.2848 11.2908C11.1898 11.4732 9.11981 11.3445 7.14991 10.6974C5.79851 10.2541 4.47214 9.59266 3.39245 8.68457C3.28519 9.84292 3.4711 10.8261 3.59265 11.5912C3.85364 13.2393 4.52219 15.1055 5.71986 16.2746C5.99514 16.5427 6.27758 16.7787 6.56717 16.9789C6.7495 20.3753 12.1515 19.8032 13.9999 19.7317C15.3084 19.6817 16.5132 19.0239 16.9172 18.4161C17.1817 17.8905 17.2139 17.4186 17.1817 16.961C18.0541 16.3389 18.7798 15.5238 19.2589 14.5549C20.0025 13.0605 19.9668 11.4803 20.1705 9.86794C20.2456 9.31737 20.2599 8.6381 20.2385 8.0625Z" fill="#3D3D3D"/>
<path d="M19.2626 14.5549C20.0062 13.0605 19.9705 11.4803 20.1743 9.86794C20.2458 9.3138 20.2601 8.63452 20.2386 8.0625C19.8596 8.6667 19.6702 8.93126 19.3341 9.24587C18.8872 9.66058 18.4439 9.92157 17.8897 10.1969C17.6717 10.3041 17.45 10.4042 17.2248 10.4936C17.1211 10.9441 17.0317 11.3909 16.928 11.8128C16.4347 13.7899 15.3157 15.842 13.3744 16.6893C13.0883 16.8144 11.4795 16.9288 11.6261 17.3221C11.694 17.5044 12.2017 17.5545 12.3268 17.7976C12.4591 18.0586 12.3912 18.5519 12.3376 18.8344C12.2875 19.0989 12.1159 19.46 12.2053 19.7603C12.9239 19.7746 13.5638 19.7496 14.0036 19.7317C15.3121 19.6817 16.5169 19.0239 16.9209 18.4161C17.1854 17.8905 17.2176 17.4186 17.1854 16.961C18.0542 16.3389 18.7835 15.5238 19.2626 14.5549Z" fill="#3D3D3D"/>
<path d="M3.60326 10.1906C3.74627 10.1763 3.9 10.1763 4.0287 10.2442C4.12881 10.2978 4.20389 10.3872 4.26466 10.4837C4.43984 10.7554 4.5614 11.0486 4.83311 11.2416C5.36223 11.6206 6.03793 11.1987 6.58492 11.5134C6.73508 11.5992 6.86736 11.7243 6.99964 11.8387C7.12477 11.9459 7.2499 12.0568 7.38218 12.164C7.62529 12.3607 7.88627 12.5394 8.19016 12.6324C8.5441 12.7432 8.91234 12.7075 9.26985 12.6216C9.58804 12.5466 9.89907 12.4071 10.2244 12.3785C10.3889 12.3642 10.5462 12.3821 10.7035 12.4357C10.9001 12.5037 11.0717 12.6252 11.2576 12.7146C11.6187 12.8934 12.0084 13.0185 12.4124 13.0328C12.8271 13.0435 13.2311 12.9255 13.5922 12.7218C13.8889 12.5537 14.2 12.3785 14.5396 12.3249C14.8077 12.282 15.0759 12.3392 15.3333 12.4071C15.655 12.4929 15.9839 12.6324 16.32 12.5895C16.8384 12.5251 17.0887 12.0568 17.4247 11.7171C17.6071 11.5312 17.8216 11.3847 18.079 11.3382C18.2971 11.3024 18.5116 11.3525 18.7296 11.3596C18.9513 11.3668 19.1551 11.2953 19.3052 11.1237C19.4161 10.9985 19.4983 10.8484 19.5627 10.6911C19.6163 10.5659 19.6306 10.4301 19.6735 10.3014C19.7128 10.187 19.7772 10.1477 19.8951 10.1548C19.8951 10.0833 19.8951 10.0154 19.8951 9.94387C19.8165 9.9546 19.7486 9.98677 19.6878 10.0404C19.5841 10.1298 19.7343 10.2799 19.8379 10.1906C19.8522 10.1798 19.8773 10.1584 19.8951 10.1548C20.0274 10.1405 20.0346 9.95102 19.8951 9.94387C19.7521 9.93315 19.6163 9.97963 19.5341 10.1048C19.4626 10.212 19.4411 10.3479 19.4089 10.473C19.3517 10.7054 19.2087 11.0164 18.9728 11.1129C18.8012 11.1844 18.5902 11.1344 18.4043 11.1201C18.1469 11.1022 17.8931 11.138 17.6678 11.2631C17.4354 11.3918 17.2531 11.5849 17.0851 11.7851C16.9421 11.9567 16.8027 12.1462 16.6132 12.2677C16.3879 12.4143 16.1234 12.4071 15.8731 12.3392C15.5549 12.2534 15.2403 12.1426 14.9114 12.1068C14.6325 12.0782 14.3573 12.1283 14.0999 12.2355C13.7173 12.3893 13.3848 12.6431 12.9844 12.7539C12.6019 12.8612 12.205 12.8326 11.8261 12.7146C11.6259 12.6538 11.4364 12.568 11.254 12.4715C11.0717 12.375 10.9001 12.2677 10.6963 12.2105C10.3817 12.1211 10.0671 12.1748 9.75964 12.2641C9.4057 12.3678 9.04461 12.4929 8.6728 12.4929C7.9971 12.4894 7.51803 11.9924 7.03539 11.5849C6.90311 11.474 6.77083 11.3561 6.60995 11.2845C6.46337 11.2202 6.30964 11.1844 6.14876 11.1773C5.8556 11.163 5.55886 11.2452 5.26928 11.1916C4.92964 11.1308 4.74373 10.8663 4.58642 10.5838C4.45772 10.355 4.32187 10.1226 4.06446 10.0225C3.92503 9.9689 3.76772 9.96532 3.61756 9.97963C3.47098 9.99035 3.46741 10.2013 3.60326 10.1906Z" fill="#FF9373"/>
<path d="M3.8611 11.2652C4.00411 11.2187 4.14711 11.2151 4.27582 11.3045C4.38665 11.3832 4.4653 11.5047 4.5368 11.6227C4.68338 11.8587 4.78349 12.159 5.00515 12.3413C5.1267 12.4414 5.26971 12.4915 5.42344 12.5093C5.59862 12.5308 5.76665 12.4879 5.93468 12.4414C6.10271 12.3949 6.27432 12.352 6.44592 12.4128C6.59608 12.4664 6.71406 12.5558 6.81774 12.6774C7.01795 12.9133 7.15738 13.2065 7.42909 13.3709C7.57924 13.4639 7.76515 13.5282 7.94391 13.5318C8.09764 13.5318 8.24064 13.4818 8.38007 13.4174C8.68396 13.278 8.98069 13.11 9.32748 13.1386C9.59919 13.16 9.83515 13.3137 10.0604 13.4496C10.3392 13.6176 10.6324 13.7892 10.9506 13.8643C11.2831 13.943 11.6191 13.875 11.9373 13.7642C12.2448 13.6569 12.5523 13.5104 12.8847 13.5032C13.2029 13.4961 13.5068 13.6212 13.7857 13.7606C14.0216 13.8786 14.2576 14.0073 14.5293 14.018C14.8868 14.0323 15.2229 13.8464 15.5196 13.6677C15.6769 13.5711 15.8342 13.4675 16.0058 13.3995C16.1882 13.328 16.3776 13.3137 16.5707 13.3388C16.7566 13.3638 16.9425 13.4103 17.132 13.3924C17.3251 13.3745 17.5038 13.2994 17.6504 13.1743C17.8935 12.9669 17.9686 12.6452 18.1616 12.3985C18.251 12.2841 18.3761 12.1804 18.5191 12.1411C18.6479 12.1053 18.7873 12.0982 18.9196 12.0732C19.1448 12.0303 19.3414 11.9016 19.5309 11.7764C19.6346 11.7049 19.7383 11.6298 19.8312 11.544C19.8991 11.4833 19.9706 11.4189 20.01 11.3367C20.0493 11.2545 20.0386 11.1544 19.9528 11.1079C19.8348 11.04 19.7275 11.2259 19.8455 11.2902C19.8634 11.3009 19.8312 11.2759 19.8312 11.2723C19.8062 11.2223 19.8491 11.2938 19.8241 11.2437C19.8241 11.2437 19.8169 11.2223 19.8241 11.233C19.8276 11.2366 19.8098 11.2616 19.8241 11.2366C19.8062 11.2723 19.7955 11.2831 19.7633 11.3152C19.6882 11.3975 19.5988 11.4654 19.5095 11.5297C19.345 11.6477 19.1448 11.7907 18.9625 11.8444C18.8266 11.8837 18.6872 11.8908 18.5513 11.9159C18.4155 11.9409 18.2939 11.9945 18.1867 12.0803C17.9221 12.2877 17.8291 12.5916 17.6504 12.8597C17.5574 12.9955 17.4252 13.1064 17.2679 13.1529C17.0855 13.2065 16.9032 13.1779 16.7173 13.1493C16.5242 13.1171 16.3347 13.1028 16.1417 13.1421C15.9629 13.1779 15.7985 13.2601 15.6412 13.3495C15.3409 13.5247 15.0334 13.7571 14.6795 13.8035C14.4185 13.8393 14.1897 13.7285 13.9609 13.614C13.6856 13.4746 13.4031 13.3495 13.0957 13.3066C12.7668 13.2601 12.4521 13.3566 12.1447 13.4675C11.8444 13.5783 11.5405 13.7034 11.2152 13.6891C10.8898 13.6748 10.5824 13.5104 10.3106 13.3495C10.0711 13.2101 9.83873 13.0492 9.57059 12.9705C9.27385 12.8847 8.96639 12.9312 8.68753 13.0456C8.39795 13.1636 8.11194 13.3888 7.78302 13.2959C7.62214 13.2494 7.48271 13.1707 7.36831 13.0492C7.26463 12.9383 7.1824 12.8096 7.09302 12.6881C6.90354 12.4307 6.66401 12.2019 6.32794 12.1733C5.98116 12.1411 5.67012 12.3771 5.32333 12.2769C5.05162 12.1983 4.94794 11.9159 4.82281 11.6871C4.69053 11.4439 4.52965 11.1615 4.25794 11.0578C4.11136 11.0042 3.95406 11.0185 3.81105 11.065C3.6752 11.1007 3.7324 11.3045 3.8611 11.2652Z" fill="#FF9373"/>
<path opacity="0.1" d="M7.89015 11.6197C7.56839 11.3909 7.21445 11.2265 6.84979 11.0548C6.46725 10.8725 5.42331 10.1789 5.08725 10.633C3.65362 11.0584 4.91564 13.5753 5.50196 14.4226C5.86663 14.9517 7.23233 16.0672 7.8258 15.1805C8.03673 14.8659 7.95808 14.3547 7.98668 13.9972C8.02243 13.5753 8.01886 13.1463 8.08321 12.7316C8.16186 12.2418 8.35492 11.9558 7.89015 11.6197Z" fill="white"/>
<path d="M7.89717 8.2837C7.65048 8.06204 7.50748 8.37665 7.26795 8.2837C6.99981 8.18002 7.22147 7.96551 7.36447 7.85468C7.49675 7.75458 7.85069 7.71168 7.46458 7.47214C7.32872 7.38634 6.91401 7.42567 6.771 7.46499C6.46354 7.54364 6.1811 7.74385 6.21686 8.08349C5.85577 8.14427 5.4911 7.82966 5.15862 8.08706C4.75105 8.40168 5.19794 8.81639 5.26945 8.55183C5.70919 8.48748 5.67344 8.87002 6.02737 9.0023C6.23831 9.08095 6.42779 8.96655 6.61727 9.13815C6.77815 9.28474 6.8282 9.50282 6.81748 9.71733C7.11064 9.27043 7.68266 9.44204 7.95795 8.93437C8.05805 8.74489 8.0938 8.45888 7.89717 8.2837Z" fill="white"/>
<path d="M10.5033 6.03554C10.4175 6.02481 10.01 6.16067 9.91344 6.09632C9.66318 5.93186 9.81334 5.34554 10.0493 5.24543C9.89914 5.0488 9.50945 5.06668 9.32354 5.21326C9.21986 5.29191 9.12333 5.44922 9.20199 5.51357C8.8552 5.44207 8.36541 5.29549 8.08655 5.40632C7.96499 5.45279 7.93997 5.60295 7.82199 5.64585C7.72546 5.6816 7.63965 5.62797 7.561 5.64227C7.33577 5.68875 7.12484 5.67803 7.17131 6.02124C7.26069 6.01409 7.37152 6.04626 7.45732 6.03196C7.25712 6.12849 6.7709 6.23575 6.74587 6.54678C6.728 6.79704 7.03188 6.95077 7.19634 6.74342H6.96753C7.28572 6.62186 8.09012 6.29652 7.93997 6.96865C8.29748 6.66119 8.53701 7.41554 7.95427 7.60145C8.17592 7.80166 8.36541 7.53352 8.57277 7.88746C8.67644 8.06264 8.81945 8.36653 8.69074 8.50596C9.00178 8.13414 9.92774 8.38083 9.70966 7.56212C9.631 7.26538 9.25561 7.14383 9.68463 6.91502C10.1029 6.68979 10.1673 7.02228 10.464 7.08305C10.9359 7.17601 11.1254 6.10704 10.5033 6.03554Z" fill="white"/>
<path d="M10.5458 4.55501C10.2884 4.19392 9.79865 3.85071 9.42683 4.22967C9.31958 4.33692 9.13725 4.54071 9.06574 4.66226C8.95849 4.85532 9.00854 5.16278 9.29455 4.9161L9.16227 4.88392C9.39823 4.65154 9.45543 4.75521 9.68782 4.72304C9.88087 4.69444 10.0918 4.49423 10.267 4.72661C10.3778 4.87319 10.1848 5.33439 10.4958 5.27003C10.7961 5.20926 10.6495 4.70159 10.5458 4.55501Z" fill="white"/>
<path d="M15.1832 4.52367C15.1153 4.26268 14.84 4.05533 14.5611 4.16258C14.2894 4.26983 14.3144 4.6202 13.9391 4.563C13.7996 4.54154 13.6781 4.38424 13.5458 4.35564C13.3563 4.31631 13.3456 4.39854 13.1847 4.42357C12.7879 4.48077 12.9023 4.30559 12.5626 4.1018C12.273 3.92662 11.0039 4.03388 11.222 4.6202C11.247 4.6917 11.3078 4.72388 11.3828 4.74175C11.3364 4.8061 11.3042 4.87761 11.2863 4.94553C11.1934 5.34237 11.5902 5.24227 11.5902 5.53543C11.5902 5.68916 11.39 5.69631 11.4794 5.87149C11.5294 5.96802 11.7546 5.96087 11.8333 6.06455C11.9978 6.28263 11.9334 6.65087 11.7368 6.80103C11.5008 6.98336 11.2041 6.92616 11.1862 7.33372C11.1648 7.80922 11.676 7.75916 11.9799 7.53036C12.3767 7.23362 12.2981 6.5901 12.7164 6.35771C13.0024 6.19683 13.4314 6.39346 13.6959 6.24688C14.057 6.04667 14.0356 5.53543 13.8711 5.24942C14.2322 5.07781 14.5147 5.55331 14.8471 5.47108C15.1474 5.39958 15.2547 4.7918 15.1832 4.52367Z" fill="white"/>
<path d="M12.9918 7.8589C12.8309 7.48351 12.3125 7.64082 12.073 7.8589C11.762 8.14134 11.8406 8.39517 11.3544 8.25932C10.9897 8.15921 10.7931 8.00191 10.8932 7.60507C10.7609 7.52999 10.6537 7.57647 10.5679 7.66227C10.3426 7.63725 10.028 7.86248 10.1103 8.12346C10.1818 8.34512 10.5107 8.27362 10.2783 8.5203C10.0066 8.80989 9.13425 8.4774 9.19503 8.97435C9.13068 8.84207 8.78031 9.17098 8.71954 9.30683C8.75171 9.31398 8.79461 9.32828 8.83394 9.33543C8.64803 9.63932 8.36917 9.96108 8.90902 9.98611C9.29871 10.004 9.52752 9.62502 9.91721 9.68937C10.3355 9.76087 10.1889 10.1577 10.4642 10.3186C10.7145 10.4652 11.0541 10.1899 11.1363 9.95751C11.2579 9.60714 10.8289 9.29968 11.1077 8.99937C11.5403 8.5346 11.5939 9.31756 11.8764 9.39621C12.048 9.44269 12.2375 9.24963 12.4019 9.23175C12.57 9.2103 12.6593 9.31398 12.7845 9.19958C12.9167 9.0816 12.9203 8.74196 12.8488 8.49528C12.9739 8.3344 13.0526 7.99833 12.9918 7.8589Z" fill="white"/>
<path d="M15.9019 5.39811C15.4836 5.37308 15.3156 5.44101 15.1761 5.8593C15.0403 5.78422 14.7078 5.74132 14.5648 5.8307C14.2931 5.99873 14.5576 6.14531 14.5576 6.38127C14.3503 6.43847 13.1061 6.68873 13.503 7.04267C13.3492 7.02479 12.8487 7.0534 12.7915 7.23573C12.6807 7.59324 13.2098 7.43951 13.3492 7.53246C13.6138 7.70407 13.3778 7.96863 13.4779 8.22246C13.5745 8.46557 13.8891 8.5478 14.1286 8.50847C14.2001 8.31184 14.2001 8.07231 14.0357 7.92573C14.0357 7.30365 14.2966 7.29293 14.6971 7.04267C14.8687 6.93542 14.8472 6.79599 15.1153 6.84604C15.2977 6.87821 15.3942 7.01407 15.5336 7.11775C15.6266 7.18568 15.6695 7.38231 15.7982 7.26433C15.9376 7.13562 15.6516 6.58505 15.6373 6.45635C15.5801 5.9165 16.17 5.54826 16.5812 5.92723C16.6634 5.44459 16.2916 5.42314 15.9019 5.39811Z" fill="white"/>
<path d="M13.8746 10.7683L13.9067 10.6718C13.8674 10.6575 13.8317 10.6432 13.7995 10.6289C13.7852 10.679 13.8031 10.729 13.8746 10.7683Z" fill="white"/>
<path d="M14.6291 9.88659C14.436 9.83654 13.4135 10.0153 13.8747 9.52908C14.1607 9.22519 14.722 9.26809 15.076 9.29312C14.9937 9.18586 14.8758 9.03213 14.7506 8.97851C14.5361 8.88913 14.4682 9.02498 14.268 9.04643C13.9462 9.07861 13.6602 8.8212 13.3242 9.01068C13.3778 9.22519 13.4958 9.30742 13.3599 9.4683C13.2241 9.63275 13.056 9.52907 12.8951 9.58985C12.4876 9.74716 12.8058 10.1833 12.2087 10.0403C11.0396 9.75788 11.5652 11.3417 12.3732 10.6338C12.5841 10.8912 12.9309 10.5408 13.1597 10.4729C13.4743 10.38 13.5923 10.523 13.8068 10.6266C13.8318 10.5408 13.9498 10.455 14.0428 10.4157C14.2215 10.3478 14.4217 10.4801 14.5719 10.4658C15.0223 10.43 15.076 10.0046 14.6291 9.88659Z" fill="white"/>
<path d="M26.9556 0.536781C26.7625 -0.0495408 26.119 -0.0388157 25.6078 0.0362621C24.9392 0.136366 24.3386 0.686936 23.8738 1.16243C23.5342 1.50922 22.6797 2.06694 22.93 2.62466C23.0158 3.20025 23.9704 3.15378 24.3708 3.05367C25.0465 2.88207 25.6542 2.42445 26.1726 1.94896C26.5874 1.56999 27.163 1.166 26.9556 0.536781Z" fill="#3D3D3D"/>
<path d="M26.942 0.53705C26.8633 0.297516 26.7096 0.158086 26.5201 0.0830078C26.5416 0.125909 26.5487 0.175961 26.5773 0.218863C26.9992 0.801609 26.4236 1.23778 26.0124 1.61316C25.4941 2.08866 24.7719 2.66425 24.0926 2.83586C23.8423 2.90021 23.2775 2.84301 22.9414 2.72503C23.113 3.20052 23.9818 3.15405 24.3572 3.05752C25.0329 2.88591 25.6406 2.42829 26.159 1.9528C26.5737 1.57026 27.1493 1.16627 26.942 0.53705Z" fill="#3D3D3D"/>
<path d="M18.2216 7.4006L23.0587 2.6564C23.0587 2.6564 23.1231 2.51697 23.334 2.5992C23.6701 2.73148 23.6379 2.88878 23.6379 2.88878L18.7865 7.77241C18.7865 7.77241 18.4683 7.77241 18.2359 7.59723C18.1751 7.55433 18.2216 7.4006 18.2216 7.4006Z" fill="#9B9B9B"/>
<path opacity="0.1" d="M23.4881 2.43143C22.7909 2.2491 23.8957 1.45542 24.078 1.32671C24.2675 1.19086 25.2614 0.254172 25.3543 0.761841C25.3972 0.997799 25.0969 1.1265 24.9539 1.24448C24.7358 1.41967 24.6429 1.56982 24.5463 1.8165C24.3926 2.20262 24.0601 2.81397 23.5238 2.52796C23.1842 2.34562 23.245 1.97739 23.5882 1.80935L23.4881 2.43143Z" fill="white"/>
<path d="M3.63397 11.8683C3.07887 11.9082 2.89793 12.2149 2.20175 12.3314C2.11895 12.3437 2.22322 12.5123 2.20789 12.5951C2.18642 12.7117 2.47777 12.7056 2.57591 12.77C2.67405 12.8374 2.79365 12.862 2.90713 12.8834C3.54196 13 4.49575 13.141 5.08765 12.819C5.23486 12.7393 6.21932 12.2915 6.03837 12.1689C5.52621 11.8192 4.83617 12.1321 4.64296 12.1014C4.2228 12.037 4.20747 11.8284 3.63397 11.8683Z" fill="url(#paint0_linear_402_1335)"/>
<path d="M4.25416 12.758C5.04541 12.7641 6.07893 11.5405 7.10939 12.5771C8.13985 13.6137 8.15518 16.3278 7.47741 17.5239C6.79657 18.72 4.99634 19.045 3.81867 19.0665C2.44166 19.088 0.396073 18.4439 0.150726 16.199C-0.0639532 14.2332 0.411407 12.482 2.12884 12.3379C3.17463 12.252 2.95689 12.7488 4.25416 12.758Z" fill="url(#paint1_linear_402_1335)"/>
<path d="M7.10881 12.5658C6.76839 12.2224 6.4249 12.1273 6.09368 12.1549C6.93093 13.3172 6.90333 15.7584 6.26849 16.8748C5.58766 18.0708 3.78742 18.3959 2.60975 18.4174C2.17733 18.4235 1.6805 18.3652 1.19287 18.215C1.96265 18.8529 3.00537 19.0706 3.81502 19.0583C4.99269 19.0399 6.79599 18.7118 7.47376 17.5157C8.15154 16.3197 8.13927 13.6024 7.10881 12.5658Z" fill="#F47458"/>
<path d="M4.47154 12.7341C4.47154 12.7341 4.32126 11.7528 4.12805 11.2774C3.93484 10.802 3.36134 10.0752 3.36134 10.0752L3.01172 10.2837C3.01172 10.2837 3.54228 10.71 3.81216 11.3142C3.99924 11.7344 4.25379 12.7617 4.25379 12.7617L4.47154 12.7341Z" fill="#60443E"/>
<path d="M3.81208 11.3148C3.81208 11.3148 2.8951 10.5112 2.03638 10.545C0.886317 10.591 0 10.9743 0 10.9743C0 10.9743 0.806579 12.0263 1.7389 12.1152C2.67122 12.2041 3.92862 11.6214 3.92862 11.6214L3.81208 11.3148Z" fill="#436B49"/>
<path opacity="0.27" d="M2.39861 11.0103C2.41088 11.0226 2.42315 11.0379 2.42621 11.0563C2.42928 11.0809 2.41395 11.1024 2.39554 11.1208C2.33421 11.1852 2.23914 11.2158 2.1502 11.222C2.06126 11.2281 1.97232 11.2158 1.88338 11.2066C1.6779 11.1882 1.46629 11.1944 1.25775 11.2312C1.18414 11.2434 1.10747 11.2588 1.03693 11.2496C0.813054 11.2158 0.911193 11.0042 1.0308 10.8938C1.14121 10.7926 1.26081 10.7895 1.40495 10.7865C1.74231 10.7834 2.17166 10.7681 2.39861 11.0103Z" fill="white"/>
<path opacity="0.27" d="M1.09496 13.4769C0.889483 13.8327 0.806678 14.2467 0.782144 14.6576C0.769876 14.8846 0.772943 15.1238 0.89255 15.317C1.00909 15.5102 1.27591 15.6298 1.47218 15.5194C1.64086 15.4244 1.69606 15.2097 1.7482 15.0226C1.81567 14.7865 1.90154 14.5534 2.01195 14.3326C2.09169 14.17 2.18369 14.0136 2.31556 13.8879C2.4137 13.7928 2.53024 13.7192 2.62532 13.6241C2.72039 13.529 2.79706 13.3972 2.77866 13.2622C2.74492 12.9617 2.23583 12.7501 1.96901 12.7838C1.60406 12.8298 1.2667 13.1794 1.09496 13.4769Z" fill="white"/>
<defs>
<linearGradient id="paint0_linear_402_1335" x1="7.01516" y1="12.5893" x2="2.0963" y2="12.5584" gradientUnits="userSpaceOnUse">
<stop stop-color="#93503B"/>
<stop offset="1" stop-color="#F2709C"/>
</linearGradient>
<linearGradient id="paint1_linear_402_1335" x1="9.86554" y1="16.5067" x2="-0.045156" y2="16.4858" gradientUnits="userSpaceOnUse">
<stop stop-color="#FF835B"/>
<stop offset="1" stop-color="#F2709C"/>
</linearGradient>
</defs>
</svg>
