<?xml version="1.0" encoding="utf-8"?>
<!-- Generator: Adobe Illustrator 25.2.0, SVG Export Plug-In . SVG Version: 6.00 Build 0)  -->
<svg version="1.1" xmlns="http://www.w3.org/2000/svg" xmlns:xlink="http://www.w3.org/1999/xlink" x="0px" y="0px"
	 viewBox="0 0 194.6 209.2" style="enable-background:new 0 0 194.6 209.2;" xml:space="preserve">
<style type="text/css">
	.st0{fill:#FFFFFF;}
	.st1{fill:#F88287;}
	.st2{fill:#3D3D3D;}
	.st3{fill:#F8C9D8;}
	.st4{fill:url(#SVGID_1_);}
	.st5{fill:url(#SVGID_2_);}
	.st6{fill:url(#SVGID_3_);}
	.st7{fill:url(#SVGID_4_);}
	.st8{fill:url(#SVGID_5_);}
	.st9{fill:url(#SVGID_6_);}
	.st10{fill:url(#SVGID_7_);}
	.st11{fill:url(#SVGID_8_);}
	.st12{fill:url(#SVGID_9_);}
	.st13{fill:url(#SVGID_10_);}
	.st14{fill:url(#SVGID_11_);}
	.st15{fill:url(#SVGID_12_);}
	.st16{fill:url(#SVGID_13_);}
	.st17{fill:url(#SVGID_14_);}
	.st18{fill:url(#SVGID_15_);}
</style>
<g id="BACKGROUND">
</g>
<g id="OBJECTS">
	<g>
		<g>
			<g>
				<g>
					<path class="st0" d="M87,88.9C86.1,113.7,81,117,98.1,117c18.2,0,13.5-4.5,12.1-28.1"/>
					<g>
						<path class="st1" d="M86.2,88.9c-0.2,4.2-0.5,8.3-0.8,12.5c-0.2,2.7-0.6,5.4-0.6,8.2c0,1.7,0.1,3.5,1,4.9
							c0.8,1.4,2.2,2.2,3.7,2.6c2.3,0.7,4.9,0.7,7.3,0.7c3,0,6.1,0,9.1-0.5c1.8-0.3,3.7-0.9,5-2.2c1.2-1.2,1.7-2.9,1.9-4.5
							c0.3-2.8,0-5.6-0.3-8.4c-0.4-4.5-0.9-8.9-1.1-13.4c-0.1-1.1-1.8-1.1-1.8,0c0.2,3.8,0.6,7.7,1,11.5c0.3,2.6,0.6,5.3,0.6,7.9
							c0,1.6,0,3.4-0.8,4.8c-0.7,1.3-2.1,1.9-3.5,2.3c-2.5,0.7-5.1,0.7-7.6,0.7c-2.6,0-5.3,0.1-7.8-0.4c-1.3-0.2-2.8-0.6-3.7-1.7
							c-0.8-1-1-2.6-1-3.9c-0.1-2.7,0.3-5.5,0.5-8.2c0.4-4.3,0.7-8.7,0.9-13.1C88,87.8,86.2,87.8,86.2,88.9L86.2,88.9z"/>
					</g>
				</g>
				<g>
					<path class="st0" d="M66,39.9c0,25.9-10.3,63.1,31.9,62c36.1-1,32.2-26.9,28.7-62"/>
					<g>
						<path class="st1" d="M65.1,39.9c0,10.5-1.5,21-1,31.6c0.4,9.2,2.5,19.3,10.2,25.3c4.3,3.4,9.7,5,15,5.6
							c6.7,0.8,14,0.5,20.5-1.2c4.8-1.2,9.3-3.5,12.7-7.2c3.1-3.4,4.9-7.8,5.9-12.2c1.2-5.4,1.3-11,1.1-16.5
							c-0.2-6.7-0.9-13.3-1.6-20c-0.2-1.8-0.4-3.7-0.6-5.5c-0.1-1.1-1.9-1.1-1.8,0c0.7,6.7,1.4,13.4,1.8,20.1
							c0.4,5.6,0.6,11.3-0.1,16.9c-0.5,4.6-1.6,9.2-4.1,13.1c-2.4,3.8-6.1,6.6-10.2,8.3c-5.9,2.3-12.4,2.9-18.7,2.7
							c-5.8-0.2-11.7-1.1-16.8-4.1C69.5,92.2,66.7,83,66,74c-0.8-10.2,0.5-20.4,0.8-30.6c0-1.2,0.1-2.3,0.1-3.5
							C66.9,38.8,65.1,38.8,65.1,39.9L65.1,39.9z"/>
					</g>
				</g>
				<g>
					<g>
						<path class="st0" d="M66.8,62.3c-7.4-1-10.9,1.3-10.9,6.7c0,4.3,3.6,7.2,11.7,5.6"/>
						<g>
							<path class="st1" d="M66.8,61.4c-4.1-0.5-9.5-0.3-11.2,4.2c-0.7,1.7-0.8,4-0.2,5.7c0.6,1.8,2,3.1,3.7,3.8
								c2.7,1.1,5.9,0.8,8.7,0.3c1.1-0.2,0.6-1.9-0.5-1.7c-3.2,0.6-8.6,1-10.2-2.6c-0.6-1.3-0.5-3.1-0.1-4.5c0.4-1.4,1.3-2.4,2.7-3
								c2.2-0.9,4.8-0.7,7.1-0.4c0.5,0.1,0.9-0.4,0.9-0.9C67.7,61.7,67.2,61.4,66.8,61.4L66.8,61.4z"/>
						</g>
					</g>
					<g>
						<path class="st0" d="M126.7,62.3c7.4-1,10.9,1.3,10.9,6.7c0,4.3-3.6,7.2-11.7,5.6"/>
						<g>
							<path class="st1" d="M126.7,63.1c3.2-0.4,8-0.7,9.5,2.9c0.6,1.4,0.7,3.2,0.2,4.7c-0.4,1.3-1.4,2.3-2.8,2.8
								c-2.4,0.9-5.1,0.7-7.6,0.2c-1.1-0.2-1.6,1.5-0.5,1.7c4,0.8,10.1,1,12.1-3.4c1.6-3.4,0.4-8.2-3.1-9.9
								c-2.5-1.2-5.4-1.1-8.1-0.7c-0.5,0.1-0.9,0.4-0.9,0.9C125.9,62.7,126.3,63.2,126.7,63.1L126.7,63.1z"/>
						</g>
					</g>
				</g>
				<g>
					<g>
						<g>
							<g>
								<path class="st2" d="M68.4,35c34.3,35.8,73.2-0.6,73.2-0.6C126,0.9,68.4-15.3,68.4,26"/>
							</g>
							<g>
								<path class="st2" d="M77.9,40c-5,10-8.3,21-11.7,31.7c-6.3-14-15.3-33.9-9-49.5c3.9-9.6,20.7-13.5,22.3-0.2"/>
							</g>
							<g>
								<path class="st2" d="M118.3,45.4c3.3,7.7,8,18.3,10,26.3c3-7,6.5-26.3,3.8-34.7"/>
							</g>
						</g>
					</g>
					<g>
						<g>
							<g>
								<g>
									<path class="st1" d="M80.5,28.8c2.4,5,6.2,9.1,11.2,11.5c5,2.4,10.6,3.1,16,2.8c0.4,0,0.7-0.6,0.4-0.9
										c-2.4-2.1-4.7-4.2-6.1-7.1c-0.3,0.2-0.5,0.4-0.8,0.6c3.1,3.1,7.8,4.3,12,4.8c4.4,0.5,9.2,0.3,13.5-1
										c0.3-0.1,0.5-0.6,0.2-0.8c-2.8-2.5-6-4.7-8.1-7.9c-0.2,0.2-0.5,0.5-0.7,0.7c5,2.3,10.3,2.7,15.8,2.2c0.6-0.1,0.6-1.1,0-1
										c-5.2,0.5-10.4,0.1-15.2-2.1c-0.4-0.2-1,0.2-0.7,0.7c2.2,3.3,5.3,5.5,8.2,8.1c0.1-0.3,0.1-0.6,0.2-0.8
										c-4,1.2-8.4,1.4-12.5,1c-4.2-0.4-8.9-1.4-12-4.5c-0.4-0.4-1,0.1-0.8,0.6c1.5,3,3.8,5.1,6.2,7.3c0.1-0.3,0.2-0.6,0.4-0.9
										c-5.3,0.3-10.7-0.3-15.5-2.6c-4.9-2.3-8.5-6.3-10.9-11.1C81.1,27.7,80.2,28.2,80.5,28.8L80.5,28.8z"/>
								</g>
							</g>
							<g>
								<g>
									<path class="st1" d="M86.4,18.5c1.8,2.5,3.6,5,6.2,6.8c2.6,1.9,5.8,2.7,9,3.2c0.5,0.1,0.7-0.3,0.6-0.7
										c-1-2.3-2.1-4.4-2.4-6.9c-0.2,0.2-0.5,0.4-0.7,0.6c5,2.3,11.4,5.8,17.1,3.7c0.2-0.1,0.4-0.3,0.3-0.6
										c-0.7-1.8-2.2-3.3-2.5-5.2c-0.3,0.1-0.5,0.3-0.8,0.4c3.1,1.5,6.5,2.7,9.9,2.7c0.6,0,0.6-1,0-1c-3.3-0.1-6.5-1.2-9.4-2.6
										c-0.3-0.1-0.8,0-0.8,0.4c0.3,2.1,1.8,3.5,2.5,5.5c0.1-0.2,0.2-0.4,0.3-0.6c-5.4,2-11.5-1.5-16.3-3.6
										c-0.4-0.2-0.8,0.1-0.7,0.6c0.4,2.6,1.5,4.8,2.6,7.1c0.2-0.2,0.4-0.5,0.6-0.7c-3-0.5-6-1.3-8.5-3c-2.5-1.7-4.3-4.2-6-6.6
										C86.9,17.5,86.1,18,86.4,18.5L86.4,18.5z"/>
								</g>
							</g>
						</g>
					</g>
				</g>
				<g>
					<g>
						<g>
							<path class="st1" d="M88.7,62.9c2.5,2.7-1.4,6.1-3.6,4.1C81.8,63.9,86.6,60.4,88.7,62.9"/>
						</g>
						<g>
							<path class="st1" d="M108.7,62.9c2.5,2.7-1.4,6.1-3.6,4.1C101.8,63.9,106.6,60.4,108.7,62.9"/>
						</g>
					</g>
					<g>
						<path class="st0" d="M96.8,64.4c0.5,3,1.8,5.5,2.5,8.5c-1.5,0-3,0-4.5,0"/>
						<g>
							<path class="st1" d="M95.9,64.7c0.5,2.9,1.8,5.6,2.5,8.5c0.3-0.4,0.6-0.7,0.8-1.1c-1.5,0-3,0-4.5,0c-1.1,0-1.1,1.8,0,1.8
								c1.5,0,3,0,4.5,0c0.6,0,1-0.6,0.8-1.1c-0.7-2.9-2-5.6-2.5-8.5c-0.1-0.5-0.7-0.7-1.1-0.6C96,63.7,95.8,64.2,95.9,64.7
								L95.9,64.7z"/>
						</g>
					</g>
					<g>
						<g>
							<path class="st3" d="M83.4,74.5c5,5.4-2.7,12.1-7.1,8.1C69.6,76.6,79.3,69.5,83.4,74.5"/>
						</g>
						<g>
							<path class="st3" d="M118.4,74.5c5,5.4-2.7,12.1-7.1,8.1C104.6,76.6,114.3,69.5,118.4,74.5"/>
						</g>
					</g>
					<g>
						<g>
							<g>
								<path class="st0" d="M80.9,59.7c2.7-1.3,5.7-1.8,8.5-0.5"/>
								<g>
									<path class="st1" d="M81.4,60.4c2.4-1.2,5.1-1.6,7.6-0.5c0.4,0.2,0.9,0.1,1.2-0.3c0.2-0.4,0.1-1-0.3-1.2
										c-1.5-0.7-3.1-1-4.8-0.9c-1.6,0.1-3.2,0.6-4.6,1.4c-0.4,0.2-0.5,0.8-0.3,1.2C80.4,60.6,80.9,60.7,81.4,60.4L81.4,60.4z"/>
								</g>
							</g>
							<g>
								<path class="st0" d="M100.6,58.4c3.8-2.3,7.3-3.5,11.2-0.5"/>
								<g>
									<path class="st1" d="M101,59.1c1.6-1,3.3-1.9,5.1-2.1c1.9-0.2,3.6,0.5,5.1,1.6c0.4,0.3,1,0.1,1.2-0.3
										c0.3-0.5,0.1-0.9-0.3-1.2c-1.7-1.3-3.8-2.1-6-1.9c-2.2,0.2-4.2,1.2-6,2.4C99.2,58.2,100.1,59.7,101,59.1L101,59.1z"/>
								</g>
							</g>
						</g>
					</g>
					<g>
						<path class="st0" d="M90.1,78.9c2.3-0.7,6-0.8,7.7,1"/>
						<g>
							<path class="st1" d="M90.3,79.7c1.3-0.4,2.4-0.5,3.7-0.4c1.1,0.1,2.3,0.4,3.1,1.2c0.8,0.8,2-0.4,1.2-1.2
								c-1.1-1.1-2.6-1.6-4.1-1.7c-1.5-0.1-3,0.1-4.4,0.5C88.8,78.3,89.2,80,90.3,79.7L90.3,79.7z"/>
						</g>
					</g>
				</g>
			</g>
			<g>
				<g>
					<g>
						<path class="st0" d="M35.6,72c0.4-1.1,0.5-2.9,0.9-4.3c0.6-1.9,1.3-3.7,1.8-5.6c1.1-4.3,2.7-8.6,4.3-12.6
							c2.2-5.7,7.7-10.3,13.9-10.6c2.5-0.1,6.1,0.8,8.5,1.7c2.4,0.8,4.1,3,3.5,5c-0.8,2.5-9.1,1.6-9.1,1.6c3.1-0.3,5.7,2.4,5.8,5.2
							c0.1,3.1-1.1,6.4-2,9.4c-1.1,3.4-3.3,5.8-7.2,6.3c-1.9,0.3-3.3,0-4.4,1.6c-1.6,2.1-1.3,5-1.9,7.4"/>
						<g>
							<path class="st1" d="M36.4,72.3c0.4-1,0.4-2.1,0.6-3.2c0.2-1.3,0.7-2.5,1.1-3.7c0.9-2.7,1.5-5.4,2.4-8.1
								c1.6-4.7,3-9.8,6.7-13.3c3.3-3.2,7.7-4.8,12.2-4c2.1,0.4,4.9,0.8,6.7,2.1c1.1,0.8,2.5,3,0.6,3.8c-2.2,0.9-5.1,0.6-7.5,0.4
								c0,0.6,0,1.2,0,1.8c1.8-0.1,3.4,0.7,4.3,2.3c0.9,1.6,0.7,3.5,0.3,5.3c-0.4,1.9-1,3.8-1.6,5.7c-0.5,1.4-1.1,2.8-2.2,3.9
								c-1,1-2.3,1.6-3.7,1.9c-1.4,0.3-3,0.1-4.4,0.9c-3,1.8-2.6,5.9-3.3,8.8c-0.3,1.1,1.4,1.6,1.7,0.5c0.5-2,0.4-4.3,1.3-6.2
								c0.9-2.1,2.6-1.9,4.5-2.2c3.1-0.5,5.7-2.3,7.1-5.2c0.8-1.7,1.3-3.7,1.8-5.5c0.5-2,1.1-4.1,0.9-6.2c-0.3-3.3-3.3-5.9-6.7-5.7
								c-1.1,0.1-1.1,1.6,0,1.8c2.5,0.3,5.5,0.4,8-0.5c1.6-0.6,2.4-1.8,2.1-3.5c-0.4-2.3-2.5-3.8-4.5-4.5c-4.9-1.7-10-2.3-14.7,0.2
								c-2.2,1.1-4.2,2.8-5.7,4.8c-1.7,2.1-2.6,4.5-3.6,7c-1.4,3.6-2.6,7.2-3.6,10.9c-0.5,1.8-1.2,3.4-1.7,5.2
								c-0.4,1.4-0.4,2.9-0.9,4.3C34.4,72.9,36.1,73.3,36.4,72.3L36.4,72.3z"/>
						</g>
					</g>
					<g>
						<g>
							<linearGradient id="SVGID_1_" gradientUnits="userSpaceOnUse" x1="57.4274" y1="53.2776" x2="64.2609" y2="53.2776">
								<stop  offset="0" style="stop-color:#F98484"/>
								<stop  offset="0.4052" style="stop-color:#F88088"/>
								<stop  offset="0.8338" style="stop-color:#F47695"/>
								<stop  offset="1" style="stop-color:#F2709C"/>
							</linearGradient>
							<path class="st4" d="M57.4,52.4c2.3,0,4.8,0.7,6.8,1.8"/>
						</g>
						<g>
							<linearGradient id="SVGID_2_" gradientUnits="userSpaceOnUse" x1="55.9274" y1="58.5281" x2="63.0939" y2="58.5281">
								<stop  offset="0" style="stop-color:#F98484"/>
								<stop  offset="0.4052" style="stop-color:#F88088"/>
								<stop  offset="0.8338" style="stop-color:#F47695"/>
								<stop  offset="1" style="stop-color:#F2709C"/>
							</linearGradient>
							<path class="st5" d="M55.9,57.5c2.2,0.2,5.7,0.5,7.2,2"/>
						</g>
						<g>
							<linearGradient id="SVGID_3_" gradientUnits="userSpaceOnUse" x1="56.0939" y1="62.6946" x2="61.2609" y2="62.6946">
								<stop  offset="0" style="stop-color:#F98484"/>
								<stop  offset="0.4052" style="stop-color:#F88088"/>
								<stop  offset="0.8338" style="stop-color:#F47695"/>
								<stop  offset="1" style="stop-color:#F2709C"/>
							</linearGradient>
							<path class="st6" d="M56.1,62c1.8,0.3,3.5,0.8,5.2,1.3"/>
						</g>
					</g>
				</g>
			</g>
			<g>
				<g>
					<g>
						<path class="st2" d="M151.4,203.9c0.3-63.5,1.5-88.6-36.8-93.2c-3.6,4.1-10.5,4.9-15.6,4.9c-5.1,0-12.9,0.2-15.9-4.9
							C37.4,116,43.7,146,42,203.9"/>
					</g>
					<g>
						<path class="st2" d="M134.7,165.4c0.8,16.3,0,39.1,0,39.1s19.4,0,28.4,0l0,0c1.7-33.8,0.8-89.8-42.6-92.8"/>
					</g>
					<g>
						<path class="st2" d="M75.5,112c-18.5,2.2-26.7,10-32.1,18.2c3.2-10.9,10.6-43.2,11.8-55.7c0,0-13.9-3.8-22.9-4.5
							c-9,19.9-22.3,54.4-20.4,76.9c1.9,19.9,21.2,21.8,38.5,21.8"/>
					</g>
					<g>
						<path class="st2" d="M30.9,75.8c4.2,1.3,8.8,1.8,13.2,2.3c3.5,0.5,6.7,1.7,10.2,2"/>
					</g>
				</g>
			</g>
			<g>
				<g>
					<g>
						<linearGradient id="SVGID_4_" gradientUnits="userSpaceOnUse" x1="77.4192" y1="120.6092" x2="99.5423" y2="120.6092">
							<stop  offset="0" style="stop-color:#F98484"/>
							<stop  offset="0.4052" style="stop-color:#F88088"/>
							<stop  offset="0.8338" style="stop-color:#F47695"/>
							<stop  offset="1" style="stop-color:#F2709C"/>
						</linearGradient>
						<path class="st7" d="M82.6,109.2c3,1.2,5.8,2.3,8.8,3.3c1.7,0.7,4.3,1.4,7.5,3c0,0-4.3,12.8-5.8,16.5
							c-5.2-4-10.5-8.3-16.3-11.3C79.5,117,80.5,113.7,82.6,109.2"/>
					</g>
					<g>
						<linearGradient id="SVGID_5_" gradientUnits="userSpaceOnUse" x1="117.9128" y1="116.5332" x2="94.2087" y2="127.0613">
							<stop  offset="0" style="stop-color:#F98484"/>
							<stop  offset="0.5097" style="stop-color:#F67A90"/>
							<stop  offset="0.8863" style="stop-color:#F2709C"/>
						</linearGradient>
						<path class="st8" d="M115.1,109.2c-3,1.2-5.8,2.3-8.8,3.3c-1.7,0.7-4.3,1.4-7.5,3c0,0,4.3,12.8,5.8,16.5
							c5.2-4,10.5-8.3,16.3-11.3C118.1,117,117.1,113.7,115.1,109.2"/>
					</g>
				</g>
			</g>
		</g>
		<g>
			<g>
				<path class="st1" d="M23.3,205.3c19.1,0,38.2,0,57.3,0c19.1,0,38.2,0,57.3,0c10.8,0,21.6,0,32.4,0c1.1,0,1.1-1.8,0-1.8
					c-19.1,0-38.2,0-57.3,0c-19.1,0-38.2,0-57.3,0c-10.8,0-21.6,0-32.4,0C22.1,203.6,22.1,205.3,23.3,205.3L23.3,205.3z"/>
			</g>
		</g>
		<g>
			<g>
				<g>
					<g>
						<linearGradient id="SVGID_6_" gradientUnits="userSpaceOnUse" x1="22.2445" y1="32.8108" x2="38.4426" y2="32.8108">
							<stop  offset="0" style="stop-color:#F98484"/>
							<stop  offset="0.5097" style="stop-color:#F67A90"/>
							<stop  offset="0.8863" style="stop-color:#F2709C"/>
						</linearGradient>
						<path class="st9" d="M23,20.9c3.1-2.1,7-2.9,10.4-1c3,1.8,4.2,5.2,3.1,8.5c-1,2.9-3.2,5.4-5.9,6.7c-1.7,0.8-3.7,1.2-4.9,2.9
							c-2,2.8-0.7,7.3,0,10.3c0.4,1.6,2.8,0.9,2.4-0.7c-0.5-2.1-1-4.2-0.9-6.3c0-1,0.3-1.8,1-2.3c1.4-1.1,3.8-1.6,5.5-2.7
							c3.1-2.2,5.5-5.9,5.8-9.7c0.3-3.6-1.6-7.1-4.7-8.9c-4.1-2.4-9.1-1.6-12.9,1C20.4,19.7,21.7,21.8,23,20.9L23,20.9z"/>
					</g>
				</g>
				<g>
					<g>
						<linearGradient id="SVGID_7_" gradientUnits="userSpaceOnUse" x1="25.6691" y1="54.4617" x2="28.0841" y2="54.4617">
							<stop  offset="0" style="stop-color:#F98484"/>
							<stop  offset="0.5097" style="stop-color:#F67A90"/>
							<stop  offset="0.8863" style="stop-color:#F2709C"/>
						</linearGradient>
						<path class="st10" d="M26.9,55.7c1.6,0,1.6-2.5,0-2.5C25.3,53.2,25.3,55.7,26.9,55.7L26.9,55.7z"/>
					</g>
				</g>
			</g>
			<g>
				<g>
					<g>
						<linearGradient id="SVGID_8_" gradientUnits="userSpaceOnUse" x1="151.1148" y1="72.3162" x2="168.788" y2="72.3162">
							<stop  offset="0" style="stop-color:#F98484"/>
							<stop  offset="0.5097" style="stop-color:#F67A90"/>
							<stop  offset="0.8863" style="stop-color:#F2709C"/>
						</linearGradient>
						<path class="st11" d="M152.6,65.1c0.3-3.4,2.1-6.9,5.9-7.3c3.1-0.3,6.3,1.5,7.8,4.2c1.9,3.4,0.8,8.1-1.7,10.9
							c-2.3,2.6-5.8,3-8.8,4.3c-1.7,0.7-3.2,1.7-4.1,3.3c-1.3,2.3-1.2,5.1-0.9,7.6c0.2,1.6,2.7,1.6,2.5,0c-0.3-2.1-0.5-4.8,0.8-6.7
							c0.8-1.2,2.2-1.8,3.6-2.3c3.9-1.3,7.6-2.4,9.9-6c2.4-3.8,3.2-9,0.7-12.9c-2-3.1-5.8-5.2-9.6-4.9c-5.3,0.4-8,4.9-8.5,9.8
							C150,66.7,152.5,66.7,152.6,65.1L152.6,65.1z"/>
					</g>
				</g>
				<g>
					<g>
						<linearGradient id="SVGID_9_" gradientUnits="userSpaceOnUse" x1="150.7975" y1="95.5642" x2="153.2125" y2="95.5642">
							<stop  offset="0" style="stop-color:#F98484"/>
							<stop  offset="0.5097" style="stop-color:#F67A90"/>
							<stop  offset="0.8863" style="stop-color:#F2709C"/>
						</linearGradient>
						<path class="st12" d="M152,96.8c1.6,0,1.6-2.5,0-2.5C150.4,94.3,150.4,96.8,152,96.8L152,96.8z"/>
					</g>
				</g>
			</g>
			<g>
				<g>
					<g>
						<linearGradient id="SVGID_10_" gradientUnits="userSpaceOnUse" x1="150.4734" y1="26.0129" x2="165.1988" y2="26.0129">
							<stop  offset="0" style="stop-color:#F98484"/>
							<stop  offset="0.5097" style="stop-color:#F67A90"/>
							<stop  offset="0.8863" style="stop-color:#F2709C"/>
						</linearGradient>
						<path class="st13" d="M151.6,19.7c1.9-2.4,4.8-4.5,8-3.2c2.5,1,4,3.7,4.1,6.3c0,2.5-1.2,4.8-3.4,5.9c-2,1-4.2,1.2-6.2,2.1
							c-2.8,1.2-4.3,3.4-4.6,6.4c-0.1,1.6,2.4,1.6,2.5,0c0.2-2.6,1.7-3.8,4-4.5c2.4-0.8,5-1.2,7.1-2.8c5.3-4.2,3.6-13.3-2.6-15.8
							c-4-1.6-8.1,0.6-10.6,3.8c-0.4,0.5-0.5,1.2,0,1.8C150.3,20.1,151.2,20.2,151.6,19.7L151.6,19.7z"/>
					</g>
				</g>
				<g>
					<g>
						<linearGradient id="SVGID_11_" gradientUnits="userSpaceOnUse" x1="148.8742" y1="42.3592" x2="151.2892" y2="42.3592">
							<stop  offset="0" style="stop-color:#F98484"/>
							<stop  offset="0.5097" style="stop-color:#F67A90"/>
							<stop  offset="0.8863" style="stop-color:#F2709C"/>
						</linearGradient>
						<path class="st14" d="M150.1,43.6c1.6,0,1.6-2.5,0-2.5C148.5,41.1,148.5,43.6,150.1,43.6L150.1,43.6z"/>
					</g>
				</g>
			</g>
			<g>
				<g>
					<g>
						<linearGradient id="SVGID_12_" gradientUnits="userSpaceOnUse" x1="4.6495" y1="70.672" x2="17.0011" y2="70.672">
							<stop  offset="0" style="stop-color:#F98484"/>
							<stop  offset="0.5097" style="stop-color:#F67A90"/>
							<stop  offset="0.8863" style="stop-color:#F2709C"/>
						</linearGradient>
						<path class="st15" d="M5.4,62.7c3.1-1.5,11.1-1.4,10,3.9c-0.4,2-1.6,3.7-3.3,4.4c-1.6,0.7-3.4,0.9-4.7,2.1
							c-2.3,1.9-2.3,5.2-2,7.8c0.2,1.6,2.7,1.6,2.5,0c-0.2-1.5-0.3-3.2,0.2-4.6c0.3-0.8,0.7-1.2,1.3-1.6c1.4-0.8,3.4-1.1,5-2
							c2.2-1.5,3.6-4.3,3.6-6.9c0-2.9-2-4.9-4.6-5.8c-3-1.1-6.5-0.7-9.3,0.7C2.7,61.3,3.9,63.4,5.4,62.7L5.4,62.7z"/>
					</g>
				</g>
				<g>
					<g>
						<linearGradient id="SVGID_13_" gradientUnits="userSpaceOnUse" x1="6.1178" y1="86.9949" x2="8.5328" y2="86.9949">
							<stop  offset="0" style="stop-color:#F98484"/>
							<stop  offset="0.5097" style="stop-color:#F67A90"/>
							<stop  offset="0.8863" style="stop-color:#F2709C"/>
						</linearGradient>
						<path class="st16" d="M7.3,88.2c1.6,0,1.6-2.5,0-2.5C5.7,85.7,5.7,88.2,7.3,88.2L7.3,88.2z"/>
					</g>
				</g>
			</g>
			<g>
				<g>
					<g>
						<linearGradient id="SVGID_14_" gradientUnits="userSpaceOnUse" x1="179.4367" y1="39.4981" x2="191.7882" y2="39.4981">
							<stop  offset="0" style="stop-color:#F98484"/>
							<stop  offset="0.5097" style="stop-color:#F67A90"/>
							<stop  offset="0.8863" style="stop-color:#F2709C"/>
						</linearGradient>
						<path class="st17" d="M180.2,31.5c3.1-1.5,11.1-1.4,10,3.9c-0.4,2-1.6,3.7-3.3,4.4c-1.6,0.7-3.4,0.9-4.7,2.1
							c-2.3,1.9-2.3,5.2-2,7.8c0.2,1.6,2.7,1.6,2.5,0c-0.2-1.5-0.3-3.2,0.2-4.6c0.3-0.8,0.7-1.2,1.3-1.6c1.4-0.8,3.4-1.1,5-2
							c2.2-1.5,3.6-4.3,3.6-6.9c0-2.9-2-4.9-4.6-5.8c-3-1.1-6.5-0.7-9.3,0.7C177.5,30.1,178.7,32.2,180.2,31.5L180.2,31.5z"/>
					</g>
				</g>
				<g>
					<g>
						<linearGradient id="SVGID_15_" gradientUnits="userSpaceOnUse" x1="180.9049" y1="55.8211" x2="183.3199" y2="55.8211">
							<stop  offset="0" style="stop-color:#F98484"/>
							<stop  offset="0.5097" style="stop-color:#F67A90"/>
							<stop  offset="0.8863" style="stop-color:#F2709C"/>
						</linearGradient>
						<path class="st18" d="M182.1,57.1c1.6,0,1.6-2.5,0-2.5C180.5,54.6,180.5,57.1,182.1,57.1L182.1,57.1z"/>
					</g>
				</g>
			</g>
		</g>
	</g>
</g>
</svg>
