<svg xmlns="http://www.w3.org/2000/svg" xmlns:xlink="http://www.w3.org/1999/xlink" viewBox="0 0 363.25 363.24"><defs><style>.cls-1{fill:url(#New_Gradient_Swatch_1);}.cls-2{fill:url(#New_Gradient_Swatch_1-2);}.cls-3{fill:url(#New_Gradient_Swatch_1-3);}.cls-4{fill:url(#New_Gradient_Swatch_1-4);}.cls-5{fill:url(#New_Gradient_Swatch_1-5);}.cls-6{fill:url(#New_Gradient_Swatch_1-6);}.cls-7{fill:url(#New_Gradient_Swatch_1-7);}.cls-8{fill:url(#New_Gradient_Swatch_1-8);}.cls-9{fill:url(#New_Gradient_Swatch_1-9);}.cls-10{fill:url(#New_Gradient_Swatch_1-10);}.cls-11{fill:url(#New_Gradient_Swatch_1-11);}</style><linearGradient id="New_Gradient_Swatch_1" y1="181.62" x2="363.24" y2="181.62" gradientUnits="userSpaceOnUse"><stop offset="0" stop-color="#ff9472"/><stop offset="1" stop-color="#f2709c"/></linearGradient><linearGradient id="New_Gradient_Swatch_1-2" x1="0" y1="245.99" x2="10.38" y2="245.99" xlink:href="#New_Gradient_Swatch_1"/><linearGradient id="New_Gradient_Swatch_1-3" x1="0" y1="194.44" x2="10.38" y2="194.44" xlink:href="#New_Gradient_Swatch_1"/><linearGradient id="New_Gradient_Swatch_1-4" x1="0" y1="83.03" x2="363.25" y2="83.03" xlink:href="#New_Gradient_Swatch_1"/><linearGradient id="New_Gradient_Swatch_1-5" x1="293.17" y1="44.11" x2="332.11" y2="44.11" xlink:href="#New_Gradient_Swatch_1"/><linearGradient id="New_Gradient_Swatch_1-6" x1="240.2" y1="44.11" x2="279.14" y2="44.11" xlink:href="#New_Gradient_Swatch_1"/><linearGradient id="New_Gradient_Swatch_1-7" x1="187.27" y1="44.11" x2="226.21" y2="44.11" xlink:href="#New_Gradient_Swatch_1"/><linearGradient id="New_Gradient_Swatch_1-8" x1="31.16" y1="44.11" x2="165.54" y2="44.11" xlink:href="#New_Gradient_Swatch_1"/><linearGradient id="New_Gradient_Swatch_1-9" x1="224.15" y1="215.3" x2="274.84" y2="215.3" xlink:href="#New_Gradient_Swatch_1"/><linearGradient id="New_Gradient_Swatch_1-10" x1="88.43" y1="215.3" x2="139.11" y2="215.3" xlink:href="#New_Gradient_Swatch_1"/><linearGradient id="New_Gradient_Swatch_1-11" x1="148.52" y1="215.34" x2="214.78" y2="215.34" xlink:href="#New_Gradient_Swatch_1"/></defs><g id="Layer_2" data-name="Layer 2"><g id="Layer_1-2" data-name="Layer 1"><path class="cls-1" d="M347.68,363.24H15.57A15.57,15.57,0,0,1,0,347.68V290c0-6.92,10.38-6.92,10.38,0v57.71a5.18,5.18,0,0,0,5.19,5.18H347.68a5.18,5.18,0,0,0,5.18-5.18V15.57a5.18,5.18,0,0,0-5.18-5.19H15.57a5.19,5.19,0,0,0-5.19,5.19V150.48c0,6.93-10.38,6.93-10.38,0V15.57A15.57,15.57,0,0,1,15.57,0H347.68a15.57,15.57,0,0,1,15.56,15.57V347.68a15.56,15.56,0,0,1-15.56,15.56Z"/><path class="cls-2" d="M5.19,258.79A5.2,5.2,0,0,1,0,253.59v-15.2c0-6.92,10.38-6.92,10.38,0v15.2a5.19,5.19,0,0,1-5.19,5.2Z"/><path class="cls-3" d="M5.19,207.25A5.19,5.19,0,0,1,0,202.07V186.81c0-6.92,10.38-6.92,10.38,0v15.26a5.18,5.18,0,0,1-5.19,5.18Z"/><path class="cls-4" d="M358.06,88.21H5.19c-6.92,0-6.92-10.37,0-10.37H358.06c6.91,0,6.91,10.37,0,10.37Z"/><path class="cls-5" d="M312.61,63.58a19.47,19.47,0,1,1,19.5-19.47,19.47,19.47,0,0,1-19.5,19.47Zm0-28.54a9,9,0,1,0,6.45,2.63A9.08,9.08,0,0,0,312.61,35Z"/><path class="cls-6" d="M259.68,63.58a19.47,19.47,0,1,1,19.46-19.47,19.48,19.48,0,0,1-19.46,19.47Zm0-28.54a9.09,9.09,0,1,0,9.08,9.07A9.1,9.1,0,0,0,259.68,35Z"/><path class="cls-7" d="M206.74,63.58a19.47,19.47,0,1,1,19.47-19.47,19.47,19.47,0,0,1-19.47,19.47Zm0-28.54a9.09,9.09,0,1,0,9.09,9.07A9.08,9.08,0,0,0,206.74,35Z"/><path class="cls-8" d="M160.35,49.3h-124c-6.92,0-6.92-10.38,0-10.38h124c6.92,0,6.92,10.38,0,10.38Z"/><path class="cls-9" d="M229.43,254.74a5.18,5.18,0,0,1-3.36-9.14l35.55-30.25L226.07,185.1c-5.28-4.5,1.47-12.4,6.74-7.9L273,211.4a5.19,5.19,0,0,1,0,7.91l-40.2,34.2a5.15,5.15,0,0,1-3.38,1.23Z"/><path class="cls-10" d="M133.81,254.74a5.23,5.23,0,0,1-3.36-1.23l-40.19-34.2a5.19,5.19,0,0,1,0-7.91l40.19-34.2c5.27-4.5,12,3.4,6.75,7.9l-35.57,30.25,35.55,30.25a5.19,5.19,0,0,1-3.37,9.14Z"/><path class="cls-11" d="M153.71,295.79a5.36,5.36,0,0,1-1.81-.33,5.19,5.19,0,0,1-3.05-6.67L204.67,138.3c2.42-6.48,12.15-2.85,9.73,3.63L158.58,292.42a5.2,5.2,0,0,1-4.87,3.37Z"/></g></g></svg>