<svg xmlns="http://www.w3.org/2000/svg" xmlns:xlink="http://www.w3.org/1999/xlink" viewBox="0 0 384 343.12"><defs><style>.cls-1{fill:url(#New_Gradient_Swatch_1);}</style><linearGradient id="New_Gradient_Swatch_1" y1="171.56" x2="384" y2="171.56" gradientUnits="userSpaceOnUse"><stop offset="0" stop-color="#ff9472"/><stop offset="1" stop-color="#f2709c"/></linearGradient></defs><g id="Layer_2" data-name="Layer 2"><g id="Layer_1-2" data-name="Layer 1"><path class="cls-1" d="M91.5,201.77A5.26,5.26,0,0,1,86.25,207h-15c-7,0-7-10.5,0-10.5h15a5.25,5.25,0,0,1,5.25,5.25ZM384,5.25V222.58a23.28,23.28,0,0,1-23.25,23.25h-112v50h14.34a23.62,23.62,0,1,1,0,47.24H120.93a23.62,23.62,0,1,1,0-47.24h14.35v-50h-112A23.28,23.28,0,0,1,0,222.58V5.25A5.25,5.25,0,0,1,5.25,0h373.5A5.25,5.25,0,0,1,384,5.25ZM263.06,306.38H120.93a13.12,13.12,0,1,0,0,26.24H263.06a13.12,13.12,0,1,0,0-26.24Zm-24.84-60.55H145.78v50h92.44ZM373.5,222.58V207H119.62c-7,0-7-10.5,0-10.5H373.5v-186H10.5v186H37.88c7,0,7,10.5,0,10.5H10.5v15.56a12.76,12.76,0,0,0,12.75,12.75h337.5a12.76,12.76,0,0,0,12.75-12.75Zm-248-119.07a66.47,66.47,0,0,1,120.3-39,5.25,5.25,0,1,1-8.5,6.16,55.93,55.93,0,1,0-90.21,66.14,31.6,31.6,0,0,1,29.81-21.28H207a31.58,31.58,0,0,1,29.81,21.28A55.56,55.56,0,0,0,248,103.51c0-7,10.5-7,10.5,0a66.47,66.47,0,0,1-132.93,0Zm30.4,42.73a55.76,55.76,0,0,0,72.14,0,21.09,21.09,0,0,0-21-20.18H177a21.08,21.08,0,0,0-21,20.18ZM192,59a20.79,20.79,0,0,1,20.76,20.76v6.11a20.76,20.76,0,1,1-41.52,0V79.78A20.79,20.79,0,0,1,192,59Zm0,10.5a10.28,10.28,0,0,0-10.26,10.26v6.11a10.26,10.26,0,1,0,20.52,0V79.78A10.28,10.28,0,0,0,192,69.52Z"/></g></g></svg>