<svg xmlns="http://www.w3.org/2000/svg" xmlns:xlink="http://www.w3.org/1999/xlink" viewBox="0 0 384 384"><defs><style>.cls-1{fill:url(#New_Gradient_Swatch_1);}.cls-2{fill:url(#New_Gradient_Swatch_1-2);}.cls-3{fill:url(#New_Gradient_Swatch_1-3);}.cls-4{fill:url(#New_Gradient_Swatch_1-4);}</style><linearGradient id="New_Gradient_Swatch_1" y1="24.75" x2="87.18" y2="24.75" gradientUnits="userSpaceOnUse"><stop offset="0" stop-color="#ff9472"/><stop offset="1" stop-color="#f2709c"/></linearGradient><linearGradient id="New_Gradient_Swatch_1-2" y1="108.38" x2="384" y2="108.38" xlink:href="#New_Gradient_Swatch_1"/><linearGradient id="New_Gradient_Swatch_1-3" x1="317.89" y1="149.89" x2="384" y2="149.89" xlink:href="#New_Gradient_Swatch_1"/><linearGradient id="New_Gradient_Swatch_1-4" x1="112.83" y1="222.38" x2="271.17" y2="222.38" xlink:href="#New_Gradient_Swatch_1"/></defs><g id="Layer_2" data-name="Layer 2"><g id="Layer_1-2" data-name="Layer 1"><path class="cls-1" d="M9.38,49.5H40.12a9.39,9.39,0,0,0,9.38-9.38V30.38H81.56a5.63,5.63,0,0,0,0-11.26H49.5V9.38A9.39,9.39,0,0,0,40.12,0H9.38A9.39,9.39,0,0,0,0,9.38V40.12A9.39,9.39,0,0,0,9.38,49.5Zm1.87-38.25h27v27h-27Z"/><path class="cls-2" d="M374.62,0H343.88a9.39,9.39,0,0,0-9.38,9.38v9.74H216.1a24.75,24.75,0,0,0-48.2,0H107.73a5.63,5.63,0,0,0,0,11.26h23A172.86,172.86,0,0,0,20.85,167.56a24.73,24.73,0,1,0,11.25.8C42.39,98.54,98.54,42.39,168.36,32.1a24.76,24.76,0,0,0,47.28,0,160.11,160.11,0,0,1,86.25,41.38,6,6,0,0,0,7.95-.3,5.63,5.63,0,0,0-.3-8,172,172,0,0,0-56-34.85H334.5v9.74a9.39,9.39,0,0,0,9.38,9.38h30.74A9.39,9.39,0,0,0,384,40.12V9.38A9.39,9.39,0,0,0,374.62,0ZM38.25,192a13.5,13.5,0,1,1-13.5-13.5A13.51,13.51,0,0,1,38.25,192ZM192,38.25a13.5,13.5,0,1,1,13.5-13.5A13.51,13.51,0,0,1,192,38.25Zm180.75,0h-27v-27h27Z"/><path class="cls-3" d="M363.15,167.56a172.11,172.11,0,0,0-35.22-82.38,5.63,5.63,0,0,0-8.84,7,161,161,0,0,1,32.82,76.22,24.76,24.76,0,1,0,11.24-.8Zm-3.9,37.94a13.5,13.5,0,1,1,13.5-13.5,13.51,13.51,0,0,1-13.5,13.5Z"/><path class="cls-4" d="M267.73,212.58a13.12,13.12,0,0,0,1.84-15.12L207.77,83.63a16.88,16.88,0,1,0-31.54,0l-61.8,113.83a13.12,13.12,0,0,0,1.85,15.13,138.25,138.25,0,0,1,20.18,28.83c1.33,2,4.07,4.07,7.58,2.4a5.63,5.63,0,0,0,2.4-7.59A150.2,150.2,0,0,0,124.57,205a1.84,1.84,0,0,1-.25-2.15L184.18,92.57a16.63,16.63,0,0,0,2.2,1v84.76a28,28,0,1,0,11.24,0V93.53a16.63,16.63,0,0,0,2.2-1l59.87,110.26a1.87,1.87,0,0,1-.25,2.15c-10.53,11.48-35,42.44-35,81.77v12.72H212.89a5.63,5.63,0,0,0,0,11.25h39.86a4.14,4.14,0,0,1,4.13,4.12v6.75a4.14,4.14,0,0,1-4.13,4.13H131.25a4.14,4.14,0,0,1-4.13-4.13v-6.75a4.14,4.14,0,0,1,4.13-4.12h55.64a5.63,5.63,0,1,0,0-11.25H159.62V286.75a99.93,99.93,0,0,0-3.26-25,5.62,5.62,0,1,0-10.89,2.82,88.75,88.75,0,0,1,2.9,22.16v12.72H131.25a15.39,15.39,0,0,0-15.37,15.37v6.75a15.37,15.37,0,0,0,10.5,14.57v34.72A13.13,13.13,0,0,0,139.5,384h105a13.13,13.13,0,0,0,13.12-13.12V336.16a15.37,15.37,0,0,0,10.5-14.57v-6.75a15.39,15.39,0,0,0-15.37-15.37H235.66V286.75c0-35.37,22.43-63.65,32.07-74.17ZM192,72a5.63,5.63,0,1,1-5.62,5.62A5.62,5.62,0,0,1,192,72Zm16.7,133.68A16.7,16.7,0,1,1,192,189a16.72,16.72,0,0,1,16.7,16.7Zm35.8,167.07h-105a1.88,1.88,0,0,1-1.88-1.87v-10.4h46.26a5.63,5.63,0,0,0,0-11.25H137.62V337H246.38v12.26H230.79a5.63,5.63,0,0,0,0,11.25h15.59v10.4a1.88,1.88,0,0,1-1.88,1.87Z"/></g></g></svg>