<svg xmlns="http://www.w3.org/2000/svg" xmlns:xlink="http://www.w3.org/1999/xlink" viewBox="0 0 258.73 384"><defs><style>.cls-1{fill:url(#linear-gradient);}.cls-2{fill:url(#New_Gradient_Swatch_1);}</style><linearGradient id="linear-gradient" x1="44.92" y1="151.49" x2="212.24" y2="244.09" gradientUnits="userSpaceOnUse"><stop offset="0" stop-color="#ff9472"/><stop offset="0.57" stop-color="#f88188"/><stop offset="1" stop-color="#f2709c"/></linearGradient><linearGradient id="New_Gradient_Swatch_1" x1="36.67" y1="146.71" x2="221.74" y2="249.61" gradientUnits="userSpaceOnUse"><stop offset="0" stop-color="#ff9472"/><stop offset="1" stop-color="#f2709c"/></linearGradient></defs><g id="Layer_2" data-name="Layer 2"><g id="Layer_1-2" data-name="Layer 1"><path class="cls-1" d="M185.61,78.76h-135A28.15,28.15,0,0,0,22.5,106.88V277.12a28.15,28.15,0,0,0,28.12,28.13h135a28.16,28.16,0,0,0,28.13-28.13V106.88a28.15,28.15,0,0,0-28.13-28.12ZM50.62,90h135a16.9,16.9,0,0,1,16.88,16.88V249H33.75V106.88A16.89,16.89,0,0,1,50.62,90Zm135,204h-135a16.89,16.89,0,0,1-16.87-16.88V260.25H202.49v16.87A16.9,16.9,0,0,1,185.61,294Z"/><path class="cls-2" d="M236,101.77a50.7,50.7,0,0,0-22.25-37A34.62,34.62,0,0,1,199,42.93l-4.22-20.48A28.22,28.22,0,0,0,167.28,0H69A28.23,28.23,0,0,0,41.41,22.45L37.2,42.93A34.57,34.57,0,0,1,22.5,64.79,50.61,50.61,0,0,0,0,106.88V277.12A50.64,50.64,0,0,0,22.51,319.2,34.62,34.62,0,0,1,37.2,341.07c1,5.12,4.21,20.48,4.21,20.48A28.23,28.23,0,0,0,69,384h98.32a28.22,28.22,0,0,0,27.54-22.45S198,346.19,199,341.07a34.51,34.51,0,0,1,14.7-21.86,50.68,50.68,0,0,0,22.5-42.09v-69a5.63,5.63,0,0,0-11.25,0v69a39.42,39.42,0,0,1-39.38,39.37h-135a39.41,39.41,0,0,1-39.37-39.37V106.88A39.42,39.42,0,0,1,50.62,67.5h135A39.43,39.43,0,0,1,225,106.88v78.75a5.62,5.62,0,0,0,5.62,5.62,28.15,28.15,0,0,0,28.12-28.13V129.38A28.17,28.17,0,0,0,236,101.77Zm-50.37,226a50.13,50.13,0,0,0,6.41-.42,46.09,46.09,0,0,0-4,11.48l-4.22,20.48a16.93,16.93,0,0,1-16.52,13.47H69a16.94,16.94,0,0,1-16.53-13.47L48.21,338.8a46.07,46.07,0,0,0-4-11.48,50.09,50.09,0,0,0,6.4.42ZM50.62,56.26a50.09,50.09,0,0,0-6.4.42,46.07,46.07,0,0,0,4-11.48l4.22-20.48A16.94,16.94,0,0,1,69,11.25h98.32A16.93,16.93,0,0,1,183.8,24.72L188,45.2a46.4,46.4,0,0,0,4,11.47,51.7,51.7,0,0,0-6.39-.41ZM247.49,163.12A16.91,16.91,0,0,1,236.24,179V113.47a16.9,16.9,0,0,1,11.25,15.91Z"/></g></g></svg>