<svg xmlns="http://www.w3.org/2000/svg" xmlns:xlink="http://www.w3.org/1999/xlink" viewBox="0 0 384 307.5"><defs><style>.cls-1{fill:url(#New_Gradient_Swatch_1);}</style><linearGradient id="New_Gradient_Swatch_1" y1="153.75" x2="384" y2="153.75" gradientUnits="userSpaceOnUse"><stop offset="0" stop-color="#ff9472"/><stop offset="1" stop-color="#f2709c"/></linearGradient></defs><g id="Layer_2" data-name="Layer 2"><g id="Layer_1-2" data-name="Layer 1"><path class="cls-1" d="M86.81,302.25a5.25,5.25,0,0,1-5.25,5.25H67.5c-7,0-7-10.5,0-10.5H81.56a5.25,5.25,0,0,1,5.25,5.25ZM360.75,0c-7,0-7,10.5,0,10.5A12.76,12.76,0,0,1,373.5,23.26V49.51H10.5V23.25A12.76,12.76,0,0,1,23.25,10.5H329.62c7,0,7-10.5,0-10.5H23.25A23.28,23.28,0,0,0,0,23.25v279a5.25,5.25,0,0,0,5.25,5.25H36c7,0,7-10.5,0-10.5H10.5V60h363V297H113.06c-7,0-7,10.5,0,10.5H378.75a5.24,5.24,0,0,0,5.25-5.24v-279A23.27,23.27,0,0,0,360.75,0ZM28.88,24.75c-7,0-7,10.5,0,10.5H43.12c7,0,7-10.5,0-10.5Zm36,0c-7,0-7,10.5,0,10.5H79.12c7,0,7-10.5,0-10.5Zm36,0c-7,0-7,10.5,0,10.5h14.25c7,0,7-10.5,0-10.5ZM150.75,30A5.25,5.25,0,0,0,156,35.25H348.73c7,0,7-10.5,0-10.5H156A5.26,5.26,0,0,0,150.75,30Zm-39.4,186.68a89,89,0,0,1,0-76.36,5.46,5.46,0,0,1,.27-.6,89.23,89.23,0,0,1,160.75,0,4.11,4.11,0,0,1,.28.6,89,89,0,0,1,0,76.36,4.53,4.53,0,0,1-.28.59,89.23,89.23,0,0,1-160.75,0,6.28,6.28,0,0,1-.27-.59Zm2.1-43.43h39.8a205.15,205.15,0,0,1,2.18-25.84H119.66a78,78,0,0,0-6.22,25.84Zm54.74-36.34h47.62c-5.43-23-15-37.16-23.81-37.16s-18.38,14.15-23.81,37.16Zm-2.09,10.5a189.57,189.57,0,0,0-2.34,25.84h56.48a188,188,0,0,0-2.35-25.84Zm104.45,36.34h-39.8a205.15,205.15,0,0,1-2.18,25.84h35.77a78,78,0,0,0,6.21-25.84Zm-54.74,36.34H168.19c5.43,23,14.95,37.16,23.81,37.16s18.38-14.15,23.81-37.16Zm2.08-10.5a188,188,0,0,0,2.35-25.84H163.76a189.57,189.57,0,0,0,2.34,25.84Zm46.45-62.18H228.57a205.15,205.15,0,0,1,2.18,25.84h39.8a78,78,0,0,0-6.21-25.84Zm-150.9,36.34a78,78,0,0,0,6.22,25.84h35.77a205.15,205.15,0,0,1-2.18-25.84ZM171,254.39a96.41,96.41,0,0,1-13.63-34.3h-32.2A79.07,79.07,0,0,0,171,254.39Zm87.83-34.3H226.62A96.21,96.21,0,0,1,213,254.39a79.07,79.07,0,0,0,45.83-34.3ZM213,102.61a96.41,96.41,0,0,1,13.63,34.3h32.2A79.07,79.07,0,0,0,213,102.61Zm-87.83,34.3h32.2A96.41,96.41,0,0,1,171,102.61a79.07,79.07,0,0,0-45.83,34.3Z"/></g></g></svg>