<svg id="Layer_1" data-name="Layer 1" xmlns="http://www.w3.org/2000/svg" viewBox="0 0 180.25 151.79"><defs><style>.cls-1{fill:#f7a491;}.cls-2{fill:#f47458;}.cls-3{fill:#3d3d3d;}.cls-4{fill:#fff;}.cls-5{fill:#f98386;}.cls-6{fill:#13375b;}.cls-7{fill:#b75742;}.cls-8{fill:#184655;}.cls-9{fill:#07345a;}.cls-10{fill:#f48484;}.cls-11{fill:#f76b6b;}.cls-12{fill:#f48c7f;}.cls-13{fill:#fa8584;}.cls-14{fill:#f79c8d;}.cls-15{fill:#6b6b6b;}.cls-16{fill:#f88188;}.cls-17{fill:#f27a6a;}.cls-18{fill:#ff9373;}.cls-19{fill:#fae0b2;}.cls-20{fill:#ff9472;}</style></defs><path class="cls-1" d="M66.2,41.15a40.8,40.8,0,0,0,.27,5.46c.13.33.77.86,1.24,1.8a12,12,0,0,1,.92,3.68l1.48,5.37,2.3-3.28s-.77-3.24-.94-4.34a16.38,16.38,0,0,1-.21-3.25,10,10,0,0,1-1.51-1.69,13.11,13.11,0,0,0-1.81-3.38c-.58-.57.28,3.51.28,3.51S67.5,40.52,67,40.52s0,2.86,0,2.86S67,40.86,66.2,41.15Z" transform="translate(0 -3.95)"/><path class="cls-1" d="M103.14,37.69c-.28,0-.4.2-.45.54-.1-.56-.24-1-.44-1s-.31,1.56-.28,2.84c-.08-1-.21-2-.43-1.65a18.73,18.73,0,0,0-.73,4.16,1.07,1.07,0,0,1-.6.84s-.45-3-.9-2.29.41,6,.41,6L100,51.8l2.81.39.13-2.75a6.09,6.09,0,0,1-.15-2.7,13.3,13.3,0,0,1,1.28-3.65C104.54,42.38,103.14,37.69,103.14,37.69Z" transform="translate(0 -3.95)"/><path class="cls-2" d="M103.29,39.74a4.07,4.07,0,0,1-.36,2.13,8.83,8.83,0,0,1-2.6,2l-.16-.45Z" transform="translate(0 -3.95)"/><path class="cls-3" d="M107.15,27.37c0,2.52-2.38,4.64-3.12,6.91s-.11,5.47-1.55,7.43S97.87,44,95.89,45.47s-3.26,4.36-5.61,5.12-5-.84-7.55-.84-5.27,1.58-7.55.84-3.56-4-5.53-5.42S64.42,43.7,63,41.72s-.78-5.07-1.55-7.43-3.12-4.39-3.12-6.91,2.38-4.64,3.12-6.92S61.54,15,63,13s4.61-2.31,6.59-3.76,3.26-4.36,5.61-5.12,5,.84,7.55.84S88,3.42,90.28,4.15s3.64,3.68,5.61,5.12S101,11,102.48,13s.78,5.08,1.55,7.43S107.15,24.84,107.15,27.37Z" transform="translate(0 -3.95)"/><path class="cls-4" d="M96.41,41.05a19.35,19.35,0,1,0-27.37,0A19.35,19.35,0,0,0,96.41,41.05Z" transform="translate(0 -3.95)"/><path class="cls-5" d="M92.81,17.22a1.35,1.35,0,0,1-.2.5,5.68,5.68,0,0,0-.53.57h.35a4.85,4.85,0,0,1,3,1,2.52,2.52,0,0,1,1.12,2,2.51,2.51,0,0,1-1.12,2,5.33,5.33,0,0,1-6.06,0,3.12,3.12,0,0,1-.18.42,1.11,1.11,0,0,0-.66,1,1.09,1.09,0,0,0,2.11.37,6.68,6.68,0,0,0,1.76.23c2.89,0,5.23-1.8,5.23-4S95.52,17.36,92.81,17.22Z" transform="translate(0 -3.95)"/><path class="cls-5" d="M72.56,17.22a1.35,1.35,0,0,0,.2.5,5.68,5.68,0,0,1,.53.57h-.35a4.83,4.83,0,0,0-3,1,2.31,2.31,0,0,0,0,4,5.33,5.33,0,0,0,6.06,0,3.12,3.12,0,0,0,.18.42,1.11,1.11,0,0,1,.66,1A1.09,1.09,0,0,1,74.7,25a6.68,6.68,0,0,1-1.76.23c-2.89,0-5.23-1.8-5.23-4S69.85,17.36,72.56,17.22Z" transform="translate(0 -3.95)"/><path class="cls-5" d="M92.81,17.22a1.35,1.35,0,0,1-.2.5,5.68,5.68,0,0,0-.53.57h.35a4.85,4.85,0,0,1,3,1,2.52,2.52,0,0,1,1.12,2,2.51,2.51,0,0,1-1.12,2,5.33,5.33,0,0,1-6.06,0,3.12,3.12,0,0,1-.18.42,1.11,1.11,0,0,0-.66,1,1.09,1.09,0,0,0,2.11.37,6.68,6.68,0,0,0,1.76.23c2.89,0,5.23-1.8,5.23-4S95.52,17.36,92.81,17.22Z" transform="translate(0 -3.95)"/><path class="cls-5" d="M72.56,17.22a1.35,1.35,0,0,0,.2.5,5.68,5.68,0,0,1,.53.57h-.35a4.83,4.83,0,0,0-3,1,2.31,2.31,0,0,0,0,4,5.33,5.33,0,0,0,6.06,0,3.12,3.12,0,0,0,.18.42,1.11,1.11,0,0,1,.66,1A1.09,1.09,0,0,1,74.7,25a6.68,6.68,0,0,1-1.76.23c-2.89,0-5.23-1.8-5.23-4S69.85,17.36,72.56,17.22Z" transform="translate(0 -3.95)"/><path class="cls-5" d="M93,16.44v1.11a9.05,9.05,0,0,1-9.06,9.06H81.51a9.07,9.07,0,0,1-1.57-.13,9.7,9.7,0,0,1-1.52-.4l-.55-.23A9,9,0,0,1,75.17,24l-.32-.33c-.19-.2-.37-.42-.55-.64a9,9,0,0,1-1.86-5.51V16.44Z" transform="translate(0 -3.95)"/><path class="cls-5" d="M81.13,16.44l-3.26,9.4A9,9,0,0,1,75.17,24l2.63-7.58Z" transform="translate(0 -3.95)"/><path class="cls-5" d="M83.42,16.44l-3.48,10a9.7,9.7,0,0,1-1.52-.4l3.34-9.63h1.66Z" transform="translate(0 -3.95)"/><path class="cls-5" d="M77.37,16.44,74.85,23.7c-.19-.2-.37-.42-.55-.64l2.3-6.62Z" transform="translate(0 -3.95)"/><path class="cls-5" d="M92.1,15.82H73.39c-.69,0-1.24.37-1.28.85H93.39C93.34,16.19,92.79,15.82,92.1,15.82Z" transform="translate(0 -3.95)"/><path class="cls-5" d="M79.24,26.34l1.07,5.44h4.63l1.31-5.44Z" transform="translate(0 -3.95)"/><path class="cls-5" d="M86.25,26.34,86,27.58H79.49l-.25-1.24Z" transform="translate(0 -3.95)"/><path class="cls-5" d="M86.25,38.5h-7l.54-2.7.53-2.73h4.63l.65,2.73Z" transform="translate(0 -3.95)"/><path class="cls-5" d="M86.25,38.5h-7l.54-2.7h5.81Z" transform="translate(0 -3.95)"/><path class="cls-5" d="M85.78,33.07H79.47a.47.47,0,0,1-.47-.46v-.36a.48.48,0,0,1,.47-.47h6.31a.48.48,0,0,1,.47.47v.36A.47.47,0,0,1,85.78,33.07Z" transform="translate(0 -3.95)"/><path class="cls-5" d="M88.13,38.13h-11v-.56a1.21,1.21,0,0,1,1.21-1.21h8.58a1.21,1.21,0,0,1,1.21,1.21Z" transform="translate(0 -3.95)"/><path class="cls-5" d="M91.76,39.19v.54H73.49v-.54a1.13,1.13,0,0,1,1.13-1.13h16A1.13,1.13,0,0,1,91.76,39.19Z" transform="translate(0 -3.95)"/><path class="cls-5" d="M77.8,38.07l-.58,1.66h-.76L77,38.07Z" transform="translate(0 -3.95)"/><path class="cls-5" d="M76.71,38.07l-.58,1.66h-.76L76,38.07Z" transform="translate(0 -3.95)"/><path class="cls-5" d="M78.77,38.07l-.58,1.66h-.77L78,38.07Z" transform="translate(0 -3.95)"/><path class="cls-5" d="M88.61,25.32v.41A1.27,1.27,0,0,1,87.34,27H78.12a1.27,1.27,0,0,1-1.27-1.28v-.41Z" transform="translate(0 -3.95)"/><path class="cls-5" d="M88.61,25.72a1.27,1.27,0,0,1-.24.78,1.33,1.33,0,0,1-.68.48,1.47,1.47,0,0,1-.42.05H78.19a1.51,1.51,0,0,1-.42-.05,1.32,1.32,0,0,1-.68-.48,1.21,1.21,0,0,1-.25-.78,1.35,1.35,0,0,0,.27.76,1.28,1.28,0,0,0,.67.44,1.75,1.75,0,0,0,.4,0h.41l.82,0H86l.82,0h.41a1.1,1.1,0,0,0,.4,0,1.3,1.3,0,0,0,.67-.44A1.26,1.26,0,0,0,88.61,25.72Z" transform="translate(0 -3.95)"/><path class="cls-1" d="M99.64,40.8c-1,.73.08,6.31.08,6.31L101,43.48a.74.74,0,0,1-.66-.44C99.85,42.12,100.27,40.31,99.64,40.8Z" transform="translate(0 -3.95)"/><path class="cls-6" d="M18.31,155a.71.71,0,0,0,.64.75H179.61a.7.7,0,0,0,.64-.75.71.71,0,0,0-.64-.76H19A.71.71,0,0,0,18.31,155Z" transform="translate(0 -3.95)"/><path class="cls-3" d="M89.48,58.82a2,2,0,0,0-3.36.42,1.49,1.49,0,0,0-2,.51s-2.09-.63-2.6,2.5c0,0-1.07-.2-1.22,1.08a3.16,3.16,0,0,0,.51,2.13,1.55,1.55,0,0,0-.33,1.63,1.47,1.47,0,0,0,1.06,1.16s.23,1.69,1,2.19a2.34,2.34,0,0,0,1.72.26,1.15,1.15,0,0,0,1.12.84c.86-.08,1.91-.89,2.87-.54a10.07,10.07,0,0,0,3.43,0,3.45,3.45,0,0,0,1.94-4.07,2.07,2.07,0,0,0,.18-2.9s.93-2.48-.91-3.94A4.85,4.85,0,0,0,89.48,58.82Z" transform="translate(0 -3.95)"/><path class="cls-1" d="M68.73,128.36a26.7,26.7,0,0,1-3.75-.63c-.54-.27-3.24,2.32-2.7,3.61.3.73,1.25.63,1.25.63l.78-.76,4.09.86Z" transform="translate(0 -3.95)"/><path class="cls-1" d="M87.1,141.93A28,28,0,0,1,85,145.06c-.47.38.73,3.91,2.13,4,.79,0,1.11-.87,1.11-.87l-.35-1,2.5-3.35Z" transform="translate(0 -3.95)"/><path class="cls-3" d="M85.05,145a21.57,21.57,0,0,0,1.51,1.73c.69.63,1.57,1.27,1.57,1.27s1,1.81,1.26,2.43c.61,1.4,1.29,3,1.19,3.75,0,.26-.6.52-1.07.38-2-.6-7-5.2-7.62-6.44C81.14,146.66,85.05,145,85.05,145Z" transform="translate(0 -3.95)"/><path class="cls-7" d="M99.38,102.89c-.17-.51-.35-1-.52-1.43L92,102.93l-.3,8.91c0-.69,1.82,14.2,1.82,14.2s-5,9.85-8.18,16a12.94,12.94,0,0,0,4.26,3.49c5-6,11.41-16.59,11.68-18.42C101.43,126,101.57,109,99.38,102.89Z" transform="translate(0 -3.95)"/><path class="cls-2" d="M80.73,105.47c.57,6.17,1.51,15.51,1.68,18.65-4,.58-13.41,3.41-15.17,3.41a7.16,7.16,0,0,0-.58,4.78c.09.29,18.6.88,23.38-2.16,1.24-.8,1.63-9.32,1.64-18.31l.3-8.91C87.94,103.8,84.22,104.64,80.73,105.47Z" transform="translate(0 -3.95)"/><path class="cls-4" d="M94,73.84l-4.54.69-4.34.07c-.08,0-3.64,17.38-4.51,23.91s-.2,7.7-.2,7.7a42.56,42.56,0,0,0,10.5,1,34.44,34.44,0,0,0,9.88-2.93s-4.5-12.47-5.29-16.39S94,73.84,94,73.84Z" transform="translate(0 -3.95)"/><path class="cls-3" d="M103.36,49.61s-.4,16.1-.89,17.08c-.71,1.45-5.78,11.72-5.78,11.72s3.81,16,5.42,21.5c.17.56.88,4.16.88,4.5,0,.78-3.37,1.77-3.78,1.7S95.9,90.85,94,83.4a21,21,0,0,0-3.23-7l-1.31-1.87,7.76-9.39s1.68-14.86,1.68-15.79C98.91,49.1,102.87,48.7,103.36,49.61Z" transform="translate(0 -3.95)"/><path class="cls-3" d="M85.14,74.6,77.37,62.87s-5-12.31-5.18-12.76-4.08.06-5.34-.06c-.4,0,4.47,13,5.07,15.13.71,2.56,5.32,12.51,5.32,12.51s2.62,6,2.21,10.6c-.67,7.68-2,18.74-1.69,19.07,2,1.29,8.43,1.24,8.93.45C92.16,99,85.14,74.6,85.14,74.6Z" transform="translate(0 -3.95)"/><path class="cls-1" d="M89.17,72.19l.33,2.51s.76,3.61-.22,4.31-4.14-4.41-4.14-4.41l.33-6.35Z" transform="translate(0 -3.95)"/><path class="cls-2" d="M85.37,70.3a7.19,7.19,0,0,0,4.09,4l-.29-2.13-3.69-4Z" transform="translate(0 -3.95)"/><path class="cls-3" d="M80.3,63.92c0,1,.55,1.75,1.23,1.75s1.23-.79,1.23-1.75-.55-1.76-1.23-1.76S80.3,63,80.3,63.92Z" transform="translate(0 -3.95)"/><path class="cls-3" d="M84,60.15c0,.56.67,1,1.5,1s1.5-.45,1.5-1-.66-1-1.5-1S84,59.6,84,60.15Z" transform="translate(0 -3.95)"/><path class="cls-1" d="M87.73,61.56a3.36,3.36,0,0,1,4.38,2.68,23.55,23.55,0,0,1,.27,3.22c.05,2.93-1.47,5.79-2.8,5.79a6.28,6.28,0,0,1-5.14-6.06C84.37,64.61,85.65,62.28,87.73,61.56Z" transform="translate(0 -3.95)"/><path class="cls-1" d="M85.44,67.5a1,1,0,1,1-1-1.16A1.08,1.08,0,0,1,85.44,67.5Z" transform="translate(0 -3.95)"/><path class="cls-3" d="M93.49,60.11c1.38,1.09,1.85,2.74,1.08,3.7s-2.54.84-3.9-.25-1.86-2.74-1.08-3.69S92.12,59,93.49,60.11Z" transform="translate(0 -3.95)"/><path class="cls-3" d="M89.9,61c0,.47-.56.85-1.27.85s-1.28-.39-1.28-.85.56-.86,1.28-.86S89.9,60.52,89.9,61Z" transform="translate(0 -3.95)"/><path class="cls-3" d="M93.7,64.64a1.09,1.09,0,1,1-1.09-1.1A1.09,1.09,0,0,1,93.7,64.64Z" transform="translate(0 -3.95)"/><path class="cls-3" d="M65.12,127.78a21.25,21.25,0,0,0-.93,2.1,17.08,17.08,0,0,0-.48,2S62.5,133.5,62,134c-1,1.15-2.25,2.5-3,2.73-.24.08-.93-.12-.92-.65,0-2.05,2-8.76,2.86-9.86C61.92,125,65.12,127.78,65.12,127.78Z" transform="translate(0 -3.95)"/><path class="cls-5" d="M57.38,54.1a.5.5,0,0,1-.42-.37l-1.11-3.62a.57.57,0,0,1,.13-.56,8.1,8.1,0,0,0,1.46-3.35L54,43a7.62,7.62,0,0,0-3.1,1.8.49.49,0,0,1-.52.19l-3.59-.8a.51.51,0,0,1-.4-.4,7.82,7.82,0,0,0-2.09-3l-4.48,1.48a8.08,8.08,0,0,0,0,3.66.57.57,0,0,1-.1.57l-2.49,2.82a.5.5,0,0,1-.53.15,7.4,7.4,0,0,0-3.53.39l-1,4.73a7.55,7.55,0,0,0,3,1.86.5.5,0,0,1,.42.37l1.11,3.62a.57.57,0,0,1-.13.56,8,8,0,0,0-1.45,3.35l3.46,3.24a7.41,7.41,0,0,0,3.1-1.81.52.52,0,0,1,.52-.19l3.6.8a.54.54,0,0,1,.4.4,7.76,7.76,0,0,0,2.08,3l4.48-1.48a8.08,8.08,0,0,0,0-3.66.59.59,0,0,1,.1-.57l2.49-2.82a.5.5,0,0,1,.53-.15,7.39,7.39,0,0,0,3.53-.39l1-4.73A7.42,7.42,0,0,0,57.38,54.1Z" transform="translate(0 -3.95)"/><path class="cls-4" d="M44.19,64.48a9.44,9.44,0,1,1,11.28-7.13A9.45,9.45,0,0,1,44.19,64.48Z" transform="translate(0 -3.95)"/><path class="cls-3" d="M50.65,60.89,50,56.7l3.1-2.87a.58.58,0,0,0-.3-1l-4.16-.71L46.9,48.27a.58.58,0,0,0-1,0l-2,3.74-4.2.5a.58.58,0,0,0-.34,1l2.95,3-.82,4.14a.58.58,0,0,0,.82.64l3.79-1.87,3.69,2.07A.59.59,0,0,0,50.65,60.89Z" transform="translate(0 -3.95)"/><path class="cls-1" d="M124.54,99.63A44.18,44.18,0,0,1,121.92,94c-.32-1.38.09-7.1.17-7.56s1.76-1.55,1.54-1.93a6,6,0,0,0-2.68-.83c-.37,0-1.37-.24-1.37.16s.52,1.79.48,2c-.27,1.77-1.81,7.35-1.62,8.91.22,1.8,3.49,7.8,3.49,7.8Z" transform="translate(0 -3.95)"/><path class="cls-8" d="M133.57,91.84a8,8,0,0,1-.28,6.63,5.23,5.23,0,0,1-2.88,1.53l-3,.93a23.08,23.08,0,0,1-2.74-4.85,4.73,4.73,0,0,1,0-2.73c.34-2,.85-3,3-3.25S132.33,89.63,133.57,91.84Z" transform="translate(0 -3.95)"/><path class="cls-1" d="M124,96.74c.1.67.57,1.15,1,1.09s.75-.67.65-1.33-.57-1.16-1-1.09S123.93,96.07,124,96.74Z" transform="translate(0 -3.95)"/><path class="cls-1" d="M136.37,142.28a8.11,8.11,0,0,0,1.72,1.58,52,52,0,0,1-5.1,4.51s-.48-.51-.26-1,1.3-3.36.81-4.3a22.91,22.91,0,0,0-1.88-3.12,32.2,32.2,0,0,0,3.17-1.37C135.45,139.9,136.27,142.09,136.37,142.28Z" transform="translate(0 -3.95)"/><path class="cls-9" d="M136.62,142.62a45.86,45.86,0,0,1-3.41,3.36c-.45.27-1,3.49-.39,3.59s5.46-4.82,5.6-5.5S136.62,142.62,136.62,142.62Z" transform="translate(0 -3.95)"/><path class="cls-1" d="M122.52,135.38a8.57,8.57,0,0,0,1.86,1.48,51.83,51.83,0,0,1-4.69,4.82s-.53-.48-.35-1,1-3.43.42-4.35a22.93,22.93,0,0,0-2.16-3,26.41,26.41,0,0,0,3-1.57C121.39,133.07,122.41,135.19,122.52,135.38Z" transform="translate(0 -3.95)"/><path class="cls-9" d="M123.09,136a46.93,46.93,0,0,1-3.38,3.34c-.44.26-1,3.5-.37,3.59s5.68-4.5,5.83-5.17S123.09,136,123.09,136Z" transform="translate(0 -3.95)"/><path class="cls-10" d="M124.47,117.17s-10.06,4.32-10.82,7.59c-.4,1.78,4.71,11.14,4.71,11.14l4-1.66a38.47,38.47,0,0,0-1.89-5.72c-.49-1.06-.81-1.67-.81-1.67.82-.69,10.28-3.54,10.28-3.54l-1.69-5.6Z" transform="translate(0 -3.95)"/><path class="cls-11" d="M136.29,117.17s.81,1.28-.68,4.71c-1,2.24-4.05,8.8-4,8.94,2.18,3.68,5.05,9.17,5.05,9.17L132,142.3c-.07.12-6-8-6.24-10.44-.18-1.88,1.4-14.27,1.4-14.27Z" transform="translate(0 -3.95)"/><path class="cls-1" d="M140.91,94.15a47,47,0,0,0,3.43-5.86,3.25,3.25,0,0,1,.4-1.84c.36-.73.4-2.19.81-1.9s-.12,1.6.24,1.5,1.69-2.74,2.07-2.49-1,2.69-.69,2.6,1.38-2.43,1.91-2-1.48,2.64-1.19,2.84,1.52-1.27,2-1-1.78,1.92-1.58,1.87,1.59-.49,1.67-.21-3.36,1.81-3.66,2.48c-.55,1.79-1.53,5.06-2.9,6.75-1.69,2.08-5.4,6.7-5.4,6.7L134.6,101S139.82,95.41,140.91,94.15Z" transform="translate(0 -3.95)"/><path class="cls-12" d="M146,86.73a1.7,1.7,0,0,1,.29.55,1.61,1.61,0,0,1-.18,1.32A2.58,2.58,0,0,0,146,86.73Z" transform="translate(0 -3.95)"/><path class="cls-3" d="M136.29,98.56s3.61,3.17,3.59,3.24c-.19.57-3.91,3-3.91,4.53,0,1.7,1.18,13.24,1.18,13.24a17.22,17.22,0,0,1-7.24.48,17.71,17.71,0,0,1-6.72-2.46s.24-3.14.24-6a34.74,34.74,0,0,0-.44-5.39l-3-6.81,3.77-2.09s2.62,5,3.31,5a32.72,32.72,0,0,0,4.2-.34Z" transform="translate(0 -3.95)"/><path class="cls-1" d="M127.32,99.76s.44,3.17-.5,4,3.62.65,3.94-.83a24.16,24.16,0,0,0-.45-4.37Z" transform="translate(0 -3.95)"/><path class="cls-12" d="M130.31,98.57l-3,1.19a12.44,12.44,0,0,1,.1,1.67,3.87,3.87,0,0,0,2.46-.56,5.07,5.07,0,0,0,.72-.49C130.46,99.42,130.31,98.57,130.31,98.57Z" transform="translate(0 -3.95)"/><path class="cls-1" d="M129.17,91.89a4.19,4.19,0,0,1,2.25,1.7c.83,1.33,1.29,5.19-1.68,6.88s-5.12-.92-5.06-3.4S125.86,91.43,129.17,91.89Z" transform="translate(0 -3.95)"/><path class="cls-1" d="M129.17,91.89a4.19,4.19,0,0,1,2.25,1.7c.83,1.33,1.29,5.19-1.68,6.88s-5.12-.92-5.06-3.4S125.86,91.43,129.17,91.89Z" transform="translate(0 -3.95)"/><path class="cls-1" d="M131.33,97c-.24.63-.07,1.28.38,1.43s1-.23,1.22-.86.06-1.28-.38-1.44S131.56,96.4,131.33,97Z" transform="translate(0 -3.95)"/><path class="cls-13" d="M132.15,71.48a.52.52,0,0,0,.42.35,7.27,7.27,0,0,1,3,1.74l-.87,4.62a7,7,0,0,1-3.43.45.5.5,0,0,0-.52.17l-2.35,2.78a.52.52,0,0,0-.09.56,7.93,7.93,0,0,1,0,3.56l-4.3,1.54A7.43,7.43,0,0,1,122,84.41a.54.54,0,0,0-.4-.37l-3.52-.7a.51.51,0,0,0-.51.2,7.19,7.19,0,0,1-3,1.82l-3.44-3.08A7.78,7.78,0,0,1,112.46,79a.53.53,0,0,0,.12-.55L111.42,75a.53.53,0,0,0-.42-.36,7.15,7.15,0,0,1-3-1.73l.87-4.62a7.1,7.1,0,0,1,3.43-.46.5.5,0,0,0,.52-.16l2.35-2.79a.53.53,0,0,0,.09-.55,7.83,7.83,0,0,1,0-3.57l4.3-1.53A7.47,7.47,0,0,1,121.6,62a.55.55,0,0,0,.4.38l3.52.7a.55.55,0,0,0,.51-.2,7.09,7.09,0,0,1,3-1.82l3.44,3.07a7.82,7.82,0,0,1-1.33,3.29A.54.54,0,0,0,131,68Z" transform="translate(0 -3.95)"/><path class="cls-4" d="M119.72,82a8.94,8.94,0,1,1,10.53-7A8.94,8.94,0,0,1,119.72,82Z" transform="translate(0 -3.95)"/><path class="cls-3" d="M128.22,74.91a1.32,1.32,0,0,0-.36-1.85,32.37,32.37,0,0,0-9.5-5.85,1.3,1.3,0,0,0-1.81.55,39.55,39.55,0,0,0-1.77,5.78,1.37,1.37,0,0,0,2.56.92c.16-.36.33-.7.5-1.06a.85.85,0,0,1,1.16-.33,26.92,26.92,0,0,1,3.43,2.07.84.84,0,0,1,.26,1.18l-.7.92a1.34,1.34,0,0,0,.23,1.81,1.38,1.38,0,0,0,1.77,0C124.49,78.61,127.32,75.84,128.22,74.91Z" transform="translate(0 -3.95)"/><path class="cls-4" d="M119.5,69.37a.89.89,0,0,1,.35.37l.39-.65-.84-.51-.39.64A1.22,1.22,0,0,1,119.5,69.37Z" transform="translate(0 -3.95)"/><path class="cls-4" d="M118.18,69.69a.86.86,0,0,1,.37-.34L117.9,69l-.51.83.65.39A1.1,1.1,0,0,1,118.18,69.69Z" transform="translate(0 -3.95)"/><path class="cls-4" d="M118.5,71a1,1,0,0,1-.34-.36l-.39.64.83.51.39-.64A1.16,1.16,0,0,1,118.5,71Z" transform="translate(0 -3.95)"/><path class="cls-4" d="M120,70.2a.81.81,0,0,1-.15.49.79.79,0,0,1-.36.34l.64.39.51-.83Z" transform="translate(0 -3.95)"/><path class="cls-4" d="M126.17,74.8a1.26,1.26,0,1,1-.43-1.72A1.26,1.26,0,0,1,126.17,74.8Z" transform="translate(0 -3.95)"/><path class="cls-5" d="M22,51.68l-1.12-2.15-2.41-.29a.34.34,0,0,1-.2-.57l1.7-1.73-.47-2.39a.34.34,0,0,1,.48-.36l2.18,1.08,2.12-1.18a.33.33,0,0,1,.49.34l-.36,2.41,1.78,1.66a.33.33,0,0,1-.17.57l-2.4.41-1,2.21A.34.34,0,0,1,22,51.68Z" transform="translate(0 -3.95)"/><path class="cls-3" d="M151.37,50.13l-6.57,3.13a1.57,1.57,0,0,1-2.08-.74L141,48.83a1.56,1.56,0,0,1,.73-2.08l6.57-3.13a1.57,1.57,0,0,1,2.08.73l1.76,3.7A1.56,1.56,0,0,1,151.37,50.13Z" transform="translate(0 -3.95)"/><path class="cls-3" d="M142.12,50.5l-1.41,4.19,3.13-2.31Z" transform="translate(0 -3.95)"/><path class="cls-4" d="M144.44,48.88l.83-.42s.68-1.3.57-1.6-.57-.8-.43-1a.6.6,0,0,1,.84-.12c.29.18.63,1.23.77,1.25a5.94,5.94,0,0,0,.92-.39.68.68,0,0,1,.71.07.36.36,0,0,1,.12.44l-.11.25.24.12a.36.36,0,0,1,.16.49l-.09.19.16.06a.37.37,0,0,1,.17.52l-.09.16,0,0a.37.37,0,0,1,.1.49l-.09.16-2.21,1.12a1.9,1.9,0,0,1-.67.18l-.84.26a.19.19,0,0,1-.23-.1l-1-1.95A.19.19,0,0,1,144.44,48.88Z" transform="translate(0 -3.95)"/><path class="cls-12" d="M4.14,75.47l-1.62.32.2,1.53-1.59.39V79.2L0,79.68l.24.58,1.54-.65V78.2l1.65-.4-.2-1.51L4.69,76Z" transform="translate(0 -3.95)"/><path class="cls-14" d="M117.78,24l-1.62.32.2,1.54-1.59.4v1.48l-1.14.48.24.58,1.54-.65V26.73l1.65-.41-.2-1.5,1.47-.3Z" transform="translate(0 -3.95)"/><path class="cls-1" d="M121.59,83.09c.18.33-1.14.94-1.51,1.42l-.44-.86C120,83.48,121.38,82.74,121.59,83.09Z" transform="translate(0 -3.95)"/><path class="cls-12" d="M39.21,104.39A4.2,4.2,0,0,1,42,107.5c.68,2.6,1,8.66,1.61,9.29s4.43,3.93,5.12,3.81,2.24-2.07,2.72-2.07.42.47.18.74-.54.55-.39.71l.14.15s1.65-.49,2-.26-.5,1.41-.54,1.84-1.11,1.29-1.3,1.49-.86.42-3.18.09A11.09,11.09,0,0,1,41.1,119c-2.08-2.79-2.93-11.35-2.88-12.23C38.34,104.53,39.21,104.39,39.21,104.39Z" transform="translate(0 -3.95)"/><path class="cls-2" d="M42.4,107.14a3.65,3.65,0,0,0-3.12-2.74s-1.17.15-1.31,2.35a40.82,40.82,0,0,0,1,6.94,11.81,11.81,0,0,1,4.47-1.79A40.72,40.72,0,0,0,42.4,107.14Z" transform="translate(0 -3.95)"/><path class="cls-1" d="M47.31,144s1.39,5.68,2.43,6.57,4.42,2.6,3.53,2.78-7.44.33-7.26-.75.37-1.79.37-1.79l-1.73-4.05Z" transform="translate(0 -3.95)"/><path class="cls-2" d="M53.71,153.55a59.66,59.66,0,0,1-7.62.16s-.26-.06-.08-1.14c.05-.27.09-.51.13-.72,1.24.32,3.92-.37,5-.52A29.23,29.23,0,0,0,54,152.78C54.62,152.88,54.6,153.47,53.71,153.55Z" transform="translate(0 -3.95)"/><path class="cls-1" d="M32.24,148s.26,2.3.26,2.93-.59,2.42-.31,2.69,8.07.24,8.07,0-1.38-1-3.25-1.58-1.41-2.79-1.65-4H32.24Z" transform="translate(0 -3.95)"/><path class="cls-2" d="M40.39,153.78c0-.6-1.27-1.17-2.93-1.68-1.76.6-4.22.1-5.14-.07-.28.74-.4,1.73-.2,1.79S40.39,153.89,40.39,153.78Z" transform="translate(0 -3.95)"/><path class="cls-3" d="M42.81,120.25l6.64,27.42-4.2.94-10-26.79Z" transform="translate(0 -3.95)"/><path class="cls-15" d="M41.26,121.54l-2.17,6.38L36.35,149l-4.17-.26s-1.41-21-.92-26.74Z" transform="translate(0 -3.95)"/><path class="cls-3" d="M44.44,121.64c-.89-3.36-2.06-7.92-2.38-9.89a36,36,0,0,0-2.33-7.35,20.28,20.28,0,0,0-3.46-.23,59.85,59.85,0,0,0-6.91,1l1.4,18.49C35.24,123.53,40.17,123.14,44.44,121.64Z" transform="translate(0 -3.95)"/><path class="cls-16" d="M56.1,111.06a.45.45,0,0,0,.44.24,6.54,6.54,0,0,1,3,1l0,4.26a6.47,6.47,0,0,1-3,1,.46.46,0,0,0-.43.25l-1.6,2.89a.49.49,0,0,0,0,.51,7.19,7.19,0,0,1,.68,3.17l-3.56,2.13a6.83,6.83,0,0,1-2.37-2.14.46.46,0,0,0-.42-.27H45.67a.43.43,0,0,0-.41.27,6.8,6.8,0,0,1-2.32,2.15l-3.61-2.12a6.91,6.91,0,0,1,.6-3.16.49.49,0,0,0,0-.51l-1.66-2.9a.44.44,0,0,0-.43-.24,6.46,6.46,0,0,1-3-1l0-4.26a6.47,6.47,0,0,1,3-1,.46.46,0,0,0,.44-.25l1.6-2.89a.52.52,0,0,0,0-.51,7.32,7.32,0,0,1-.67-3.17l3.56-2.13a6.83,6.83,0,0,1,2.37,2.14.45.45,0,0,0,.42.27h3.25a.43.43,0,0,0,.41-.27,6.71,6.71,0,0,1,2.32-2.15l3.61,2.12a6.91,6.91,0,0,1-.6,3.16.51.51,0,0,0,0,.52Z" transform="translate(0 -3.95)"/><path class="cls-8" d="M29.85,95.27c0,1.73.53,2.47,1.61,3.82a25.38,25.38,0,0,0,3,3l5.32-3.4s0-.73-.24-2.89C38.73,87,29.87,93.94,29.85,95.27Z" transform="translate(0 -3.95)"/><path class="cls-1" d="M31.19,98.89c.21.68.75,1.1,1.21,1s.65-.81.43-1.49-.75-1.1-1.21-1S31,98.22,31.19,98.89Z" transform="translate(0 -3.95)"/><path class="cls-1" d="M38.49,97.66c-.19.68,0,1.33.47,1.48s1-.3,1.19-1,0-1.33-.47-1.48S38.69,97,38.49,97.66Z" transform="translate(0 -3.95)"/><path class="cls-1" d="M33.65,101l-.2,3.6s.44,1.22,2.41,1.22c1.46,0,1.29-3.24,1.29-3.24L37,101Z" transform="translate(0 -3.95)"/><path class="cls-17" d="M37.1,103.69h0a10.56,10.56,0,0,0,0-1.13L37.05,101H33.66l0,.48A4.34,4.34,0,0,0,37.1,103.69Z" transform="translate(0 -3.95)"/><path class="cls-1" d="M35.1,92.74a3.75,3.75,0,0,0-2.58,2c-1.2,2-.22,4.83.1,5.48a4.43,4.43,0,0,0,3.6,2.36c2,0,3.12-2.28,3.28-4,.23-2.33-.19-4.76-2.42-5.57A4.26,4.26,0,0,0,35.1,92.74Z" transform="translate(0 -3.95)"/><path class="cls-8" d="M32,97.39s.56-3.1,2.33-3.8,4.37-.51,5.18,2.52c0,0-.5-3.66-1.45-4.62a5.25,5.25,0,0,0-2.91-1.07l.64.65A5.91,5.91,0,0,0,34,90.83c-1.05,0-1.25.26-1.25.26s.72.11.72.34-1.89.31-1.89.31a4.54,4.54,0,0,1-.77,2.17C30.17,94.53,32,97.39,32,97.39Z" transform="translate(0 -3.95)"/><path class="cls-4" d="M55.22,115.66A8.11,8.11,0,1,0,46,122.48,8.12,8.12,0,0,0,55.22,115.66Z" transform="translate(0 -3.95)"/><path class="cls-18" d="M46.54,110.31a3.55,3.55,0,0,1,3.14,5.59,2.2,2.2,0,0,0-.45,1.49l.12,1.87a.92.92,0,0,1-.83,1l-1.11.1a1,1,0,0,1-1.09-.82c-.41-1.86-.43-2.56-1.25-3.22C42.66,114.38,43.6,110.56,46.54,110.31Z" transform="translate(0 -3.95)"/><path class="cls-4" d="M46,114.29a2.61,2.61,0,0,1-.43-.13c-.8-.34-.74-1.08-.38-1.27a.62.62,0,0,1,.77.19,2.27,2.27,0,0,1,.34.89,4.21,4.21,0,0,0,1.46.06c0-.92.45-1.29.85-1.12a.69.69,0,0,1,.39.69c0,.17-.12.57-.83.75.2,1.61.61,3.8.61,3.81l-.37,0s-.4-2.17-.62-3.78a4.33,4.33,0,0,1-1.39,0c.45,2,.74,3.64.75,3.69l-.38,0C46.73,118,46.46,116.38,46,114.29Zm-.63-1.05c-.1.08-.12.42.53.62C45.76,113.41,45.68,113.25,45.33,113.24Zm2.78.71c.27-.08.57-.24.47-.52S48.1,113.29,48.11,114Z" transform="translate(0 -3.95)"/><path class="cls-3" d="M49.23,117.34v0l.12,1.87a.9.9,0,0,1-.83,1l-1.11.1a1,1,0,0,1-1.09-.82c-.17-.82-.29-1.42-.42-1.89Z" transform="translate(0 -3.95)"/><path class="cls-19" d="M40.75,112.73l1.09.2c.29,0,.71.21,1,0a.16.16,0,0,0,.06-.21c-.2-.25-.62-.26-.91-.32l-1.09-.2C40.55,112.2,40.44,112.67,40.75,112.73Z" transform="translate(0 -3.95)"/><path class="cls-19" d="M42.25,109.29c1.45,1.42,1.4,1.4,1.59,1.45s.28-.12.24-.27,0-.13-1.5-1.54C42.36,108.71,42,109.07,42.25,109.29Z" transform="translate(0 -3.95)"/><path class="cls-19" d="M46.94,109c0-.38,0-.74.05-1.12a2.23,2.23,0,0,0-.05-1c-.06-.14-.25-.1-.32,0a2.42,2.42,0,0,0-.12,1c0,.38,0,.75,0,1.12S46.93,109.34,46.94,109Z" transform="translate(0 -3.95)"/><path class="cls-19" d="M51.31,112.3A15.8,15.8,0,0,0,53,112c.29-.08.16-.5-.13-.44-.56.11-1.1.24-1.67.34C50.89,111.91,51,112.34,51.31,112.3Z" transform="translate(0 -3.95)"/><path class="cls-19" d="M49.9,110.11l.79-.66c.23-.2.57-.41.68-.71.06-.15-.13-.28-.26-.24s-.19.1-.75.59c-.25.22-.51.43-.75.65S49.69,110.27,49.9,110.11Z" transform="translate(0 -3.95)"/><path class="cls-1" d="M29.35,105.16a4.38,4.38,0,0,1,3,3.11c.73,2.59,1.1,8.66,1.73,9.29s4.78,3.93,5.52,3.81S42,119.3,42.5,119.3s.46.47.2.74-.58.55-.42.71.1.14.16.15c.75.2,2.31-.61,2.69-.38s-.37.77-.37,1.16.1.38,0,.81a1.66,1.66,0,0,1-.35,1,10.74,10.74,0,0,1-5.26.6,12.18,12.18,0,0,1-7.8-4.33c-2.26-2.79-3.17-11.35-3.11-12.23C28.41,105.29,29.35,105.16,29.35,105.16Z" transform="translate(0 -3.95)"/><path class="cls-20" d="M32.47,107.9a3.64,3.64,0,0,0-3.12-2.74s-1.18.14-1.31,2.35a39.48,39.48,0,0,0,.94,6.94,12,12,0,0,1,4.47-1.8A41.15,41.15,0,0,0,32.47,107.9Z" transform="translate(0 -3.95)"/><path class="cls-1" d="M104,41.26s-.54-3.89-1-4-.59.59-.41,1.2a14.46,14.46,0,0,1,.2,3.8C102.71,43.12,104,41.26,104,41.26Z" transform="translate(0 -3.95)"/><path class="cls-1" d="M66.29,45a14.63,14.63,0,0,1,.36-4c.07-.13.2-.28.34.06A16.43,16.43,0,0,1,67,44s0-4,.56-4,.27,1.37.27,1.91,0,2.41,0,2.41.22-4.21.28-4.45.47-.32.6.09.17,4.45.17,4.45-.24-4.17.35-4.17.25,5.19.8,5.74l1.23,1.23Z" transform="translate(0 -3.95)"/></svg>