<?xml version="1.0" encoding="utf-8"?>
<!-- Generator: Adobe Illustrator 25.2.0, SVG Export Plug-In . SVG Version: 6.00 Build 0)  -->
<svg version="1.1" id="Layer_1" xmlns="http://www.w3.org/2000/svg" xmlns:xlink="http://www.w3.org/1999/xlink" x="0px" y="0px"
	 viewBox="0 0 195 129" style="enable-background:new 0 0 195 129;" xml:space="preserve">
<style type="text/css">
	.st0{clip-path:url(#SVGID_2_);}
	.st1{fill:#E0E0E0;}
	.st2{fill:none;stroke:#263238;stroke-width:0.4;stroke-miterlimit:10;}
	.st3{fill:#EBEBEB;}
	.st4{fill:#F5F5F5;}
	.st5{fill:#FAFAFA;}
	.st6{fill:#263238;}
	.st7{fill:#FFFFFF;}
	.st8{fill:#D67098;}
	.st9{opacity:0.2;}
	.st10{opacity:0.2;enable-background:new    ;}
	.st11{fill:#455A64;}
	.st12{fill:#3F3F3F;}
	.st13{fill:#E8505B;}
	.st14{fill:#B78876;}
	.st15{fill:#AA6550;}
	.st16{opacity:0.4;}
	.st17{opacity:0.4;enable-background:new    ;}
	.st18{fill:#5B5B5B;}
	.st19{fill:#FFBE9D;}
	.st20{opacity:0.5;}
	.st21{opacity:0.5;fill:#FFFFFF;enable-background:new    ;}
	.st22{opacity:0.4;fill:#FFFFFF;enable-background:new    ;}
	.st23{fill:#E69274;}
	.st24{fill:#D77197;}
	.st25{fill:#EB996E;}
	.st26{fill:#E08581;}
	.st27{fill:#777777;}
</style>
<g>
	<defs>
		<rect id="SVGID_1_" width="195" height="128.7"/>
	</defs>
	<clipPath id="SVGID_2_">
		<use xlink:href="#SVGID_1_"  style="overflow:visible;"/>
	</clipPath>
	<g class="st0">
		<path class="st1" d="M112.5,89c0,0,0.2,0,0.5-0.3c0.1-0.1,0.2-0.4,0.2-0.6c0-0.1,0-0.3-0.1-0.4c0-0.2-0.1-0.3-0.1-0.5
			c-0.3-1.4-0.9-3.4-1.5-5.9c-0.2-0.6-0.3-1.3-0.5-1.9c-0.1-0.3-0.2-0.7-0.3-1c-0.1-0.2-0.1-0.4-0.2-0.5c-0.1-0.2-0.2-0.3-0.3-0.4
			c-0.2-0.1-0.3-0.1-0.5-0.1c-0.2,0-0.4,0.1-0.5,0.1c-0.4,0.1-0.8,0.2-1.1,0.3c-0.8,0.2-1.6,0.4-2.4,0.6c-3.3,0.8-6.9,1.8-10.7,2.8
			c-0.4,0.1-0.7,0.6-0.7,1c0.1,0.5,0.2,0.9,0.3,1.4c0.2,0.9,0.4,1.8,0.7,2.7c0.4,1.8,0.9,3.5,1.2,5.1c0.1,0.2,0.1,0.4,0.2,0.6
			s0.1,0.4,0.3,0.5c0.1,0.1,0.3,0.2,0.5,0.2c0.2,0,0.4,0,0.6-0.1c0.8-0.2,1.5-0.4,2.3-0.6c1.5-0.4,2.8-0.7,4.1-1
			c2.5-0.6,4.5-1.1,5.9-1.5c0.7-0.2,1.2-0.3,1.6-0.4c0.2-0.1,0.3-0.1,0.4-0.1C112.4,89,112.5,89,112.5,89s-0.1,0-0.1,0.1
			c-0.1,0-0.2,0.1-0.4,0.1c-0.4,0.1-0.9,0.2-1.6,0.4c-1.4,0.4-3.4,0.9-5.9,1.5c-1.2,0.3-2.6,0.7-4.1,1.1c-0.7,0.2-1.5,0.4-2.3,0.6
			c-0.2,0.1-0.4,0.1-0.6,0.1c-0.2,0-0.4-0.1-0.6-0.3c-0.2-0.2-0.3-0.4-0.3-0.6c-0.1-0.2-0.1-0.4-0.2-0.6c-0.4-1.6-0.8-3.3-1.3-5.1
			c-0.2-0.9-0.4-1.8-0.7-2.7c-0.1-0.5-0.2-0.9-0.3-1.4c-0.1-0.5,0.2-1.1,0.8-1.2c3.8-1,7.4-1.9,10.7-2.7c0.8-0.2,1.6-0.4,2.4-0.6
			c0.4-0.1,0.8-0.2,1.1-0.3c0.2-0.1,0.4-0.1,0.6-0.1c0.2,0,0.4,0.1,0.6,0.2c0.2,0.1,0.3,0.3,0.4,0.4c0.1,0.2,0.1,0.4,0.2,0.5
			c0.1,0.4,0.2,0.7,0.3,1c0.2,0.7,0.3,1.3,0.5,2c0.6,2.5,1.1,4.5,1.4,5.9c0.1,0.2,0.1,0.3,0.1,0.5c0,0.2,0.1,0.3,0.1,0.4
			c0,0.3-0.1,0.5-0.3,0.6c-0.1,0.2-0.3,0.2-0.4,0.3C112.5,89,112.5,89,112.5,89z"/>
		<line class="st2" x1="30.9" y1="127.9" x2="179.5" y2="127.9"/>
		<path class="st1" d="M104.1,83.9l2.3,0.7l-1.7,1.7l-1.7,1.7l-0.6-2.4l-0.6-2.4L104.1,83.9z"/>
		<path class="st3" d="M109.9,5.5l-4,11.8l14.9,5l4-11.8L109.9,5.5z"/>
		<path class="st4" d="M110.1,6.4l-3.5,10.3l13.8,4.6l3.5-10.3L110.1,6.4z"/>
		<path class="st1" d="M106.6,16.7l7-4.8l1.6,5l2.8-1.4l2.4,5.9L106.6,16.7z"/>
		<path class="st1" d="M118.1,12.6c-0.2,0.6-0.9,0.9-1.5,0.7c-0.6-0.2-0.9-0.8-0.7-1.4s0.9-0.9,1.5-0.7
			C118,11.4,118.4,12,118.1,12.6z"/>
		<path class="st1" d="M159.4,26.8c4.1-4,4.1-10.6,0-14.6c-4.1-4-10.7-4-14.8,0c-4.1,4-4.1,10.6,0,14.6S155.3,30.8,159.4,26.8z"/>
		<path class="st5" d="M156.7,19.8c0,0-0.1,0-0.4,0c-0.3,0-0.6,0-1,0c-0.9,0-2.1,0-3.4,0h-0.1v-0.1c0-0.2,0-0.4,0-0.7
			c0-1.5,0-2.9,0-3.8c0-0.5,0-0.9,0-1.2s0-0.4,0-0.4s0,0.2,0,0.4c0,0.3,0,0.7,0,1.2c0,1,0,2.3,0,3.8c0,0.2,0,0.5,0,0.7l-0.1-0.1
			c1.4,0,2.5,0,3.4,0c0.4,0,0.8,0,1,0C156.6,19.8,156.7,19.8,156.7,19.8z"/>
		<path class="st5" d="M151.9,10.8c0,0,0.1,0.4,0.1,0.9c0,0.5,0,0.9-0.1,0.9s-0.1-0.4-0.1-0.9C151.9,11.2,151.9,10.8,151.9,10.8z"/>
		<path class="st5" d="M156.7,12.2c0,0-0.2,0.3-0.6,0.6c-0.3,0.3-0.6,0.6-0.7,0.6c0,0,0.2-0.3,0.6-0.6
			C156.4,12.5,156.7,12.2,156.7,12.2z"/>
		<path class="st5" d="M159.5,15.2c0,0-0.3,0.2-0.7,0.5c-0.4,0.2-0.7,0.4-0.8,0.4c0,0,0.3-0.3,0.7-0.5
			C159.1,15.4,159.5,15.2,159.5,15.2z"/>
		<path class="st5" d="M161.1,19.7c0,0-0.5,0.1-1.2,0.1c-0.6,0-1.2,0-1.2-0.1c0,0,0.5-0.1,1.2-0.1C160.6,19.6,161.1,19.7,161.1,19.7
			z"/>
		<path class="st5" d="M144.5,19.6c0,0-0.5,0.1-1.1,0.1c-0.6,0-1.1,0-1.1-0.1c0-0.1,0.5-0.1,1.1-0.1C144,19.5,144.5,19.5,144.5,19.6
			z"/>
		<path class="st5" d="M145.7,22.9c0,0-0.4,0.4-0.9,0.8c-0.5,0.4-0.9,0.7-0.9,0.7c0,0,0.4-0.4,0.9-0.8
			C145.2,23.2,145.7,22.9,145.7,22.9z"/>
		<path class="st5" d="M148.6,25.5c0,0-0.3,0.5-0.6,1c-0.3,0.5-0.6,1-0.6,1c0,0,0.2-0.5,0.5-1.1C148.2,25.8,148.6,25.5,148.6,25.5z"
			/>
		<path class="st5" d="M151.9,28.8c0,0-0.1-0.5-0.1-1.2c0-0.6,0-1.2,0.1-1.2s0.1,0.5,0.1,1.2C152,28.3,152,28.8,151.9,28.8z"/>
		<path class="st5" d="M157.1,27.2c0,0-0.5-0.2-1-0.7c-0.5-0.4-0.8-0.8-0.8-0.9c0,0,0.4,0.4,0.9,0.8
			C156.7,26.9,157.1,27.2,157.1,27.2z"/>
		<path class="st5" d="M159.5,24.6c0,0-0.4-0.3-0.8-0.7c-0.4-0.4-0.7-0.8-0.7-0.8c0,0,0.4,0.3,0.8,0.7
			C159.2,24.2,159.6,24.6,159.5,24.6z"/>
		<path class="st5" d="M145.6,16.4c0,0-0.3-0.2-0.7-0.6c-0.4-0.4-0.6-0.7-0.6-0.7c0,0,0.3,0.2,0.7,0.6
			C145.3,16,145.6,16.3,145.6,16.4z"/>
		<path class="st5" d="M148.6,13.3c0,0-0.3-0.2-0.7-0.6c-0.4-0.4-0.6-0.6-0.6-0.7c0,0,0.3,0.2,0.7,0.6
			C148.3,12.9,148.6,13.2,148.6,13.3z"/>
		<path class="st3" d="M14.2,10.1l-3,22.2l28,3.7l3-22.2L14.2,10.1z"/>
		<path class="st6" d="M42.2,13.8c0,0-0.1,0-0.1,0c-0.1,0-0.2,0-0.4-0.1c-0.3,0-0.8-0.1-1.5-0.2c-1.3-0.2-3.3-0.4-5.7-0.7
			c-4.9-0.7-11.9-1.6-20.2-2.6l0.1-0.1c-0.9,6.6-1.9,14.2-3,22.2l-0.1-0.1c10.4,1.4,20,2.7,28,3.7L39.1,36
			c0.9-6.7,1.7-12.2,2.2-16.1c0.3-1.9,0.5-3.5,0.6-4.5c0.1-0.5,0.1-0.9,0.2-1.2C42.1,13.9,42.2,13.8,42.2,13.8s0,0.1,0,0.4
			c0,0.3-0.1,0.7-0.2,1.2c-0.1,1-0.3,2.6-0.6,4.5c-0.5,3.9-1.3,9.4-2.2,16.1v0.1h-0.1c-8-1.1-17.6-2.3-28-3.7h-0.1v-0.1
			c1.1-8,2.1-15.6,3-22.1v-0.1h0.1c8.3,1.1,15.3,2.1,20.3,2.7c2.5,0.3,4.4,0.6,5.7,0.8c0.7,0.1,1.2,0.2,1.5,0.2c0.2,0,0.3,0,0.4,0.1
			C42.1,13.8,42.2,13.8,42.2,13.8z"/>
		<path class="st7" d="M15,11.6l-2.6,19.4l26,3.5L41,15L15,11.6z"/>
		<path class="st8" d="M12.3,30.9L23,20.1l4.6,8.3l4.4-3.5l6.3,9.5L12.3,30.9z"/>
		<path class="st8" d="M31.3,19.7c-0.2,1.1-1.2,1.9-2.3,1.7s-1.9-1.2-1.8-2.3c0.2-1.1,1.2-1.9,2.3-1.7
			C30.6,17.6,31.4,18.6,31.3,19.7z"/>
		<g class="st9">
			<path class="st10" d="M12.3,30.9L23,20.1l4.6,8.3l4.4-3.5l6.3,9.5L12.3,30.9z"/>
		</g>
		<g class="st9">
			<g class="st9">
				<g class="st9">
					<path class="st10" d="M31.3,19.7c-0.2,1.1-1.2,1.9-2.3,1.7s-1.9-1.2-1.8-2.3c0.2-1.1,1.2-1.9,2.3-1.7
						C30.6,17.6,31.4,18.6,31.3,19.7z"/>
				</g>
			</g>
		</g>
		<path class="st5" d="M159.9-15H44.3V60h115.6V-15z"/>
		<path class="st6" d="M153.8,54.6c0-0.5,0-20.9-0.1-54.3l0.1,0.1c-27.4,0-63.8,0-103.6,0l0.1-0.1c0,19.2,0,37.6,0,54.3l-0.1-0.1
			C110.7,54.5,153.1,54.6,153.8,54.6c-0.7,0-43,0-103.6,0.1h-0.1v-0.1c0-16.8,0-35.2,0-54.3V0.1h0.1c39.8,0,76.2,0,103.6,0h0.1v0.1
			C153.8,33.7,153.8,54.1,153.8,54.6z"/>
		<path class="st6" d="M62.9,54.5c0,0,0-12.2,0-27.2c0-15,0.1-27.2,0.2-27.2c0,0,0,12.2,0,27.2C63,42.3,62.9,54.5,62.9,54.5z"/>
		<path class="st6" d="M78.3,54.5c0,0,0-12.2,0-27.2c0-15,0.1-27.2,0.2-27.2c0,0,0,12.2,0,27.2C78.4,42.3,78.3,54.5,78.3,54.5z"/>
		<path class="st6" d="M93.6,54.5c0,0,0-12.2,0-27.2c0-15,0.1-27.2,0.2-27.2c0,0,0,12.2,0,27.2C93.8,42.4,93.7,54.5,93.6,54.5z"/>
		<path class="st6" d="M109,54.6c0,0,0-12.2,0-27.2c0-15,0.1-27.2,0.2-27.2c0,0,0,12.2,0,27.2C109.2,42.4,109.1,54.6,109,54.6z"/>
		<path class="st6" d="M124.4,54.6c0,0,0-12.2,0-27.2c0-15,0.1-27.2,0.2-27.2c0,0,0,12.2,0,27.2C124.5,42.5,124.4,54.6,124.4,54.6z"
			/>
		<path class="st6" d="M139.8,54.7c0,0,0-12.2,0-27.2c0-15,0.1-27.2,0.2-27.2c0,0,0,12.2,0,27.2C139.9,42.5,139.8,54.7,139.8,54.7z"
			/>
		<path class="st6" d="M153.8,13.4c0,0-23.2,0.1-51.7,0.1c-28.6,0-51.7,0-51.7-0.1c0-0.1,23.2-0.1,51.7-0.1
			C130.6,13.3,153.8,13.3,153.8,13.4z"/>
		<path class="st6" d="M153.8,27.3c0,0-23.2,0.1-51.7,0.1c-28.6,0-51.7,0-51.7-0.1c0-0.1,23.2-0.1,51.7-0.1
			C130.6,27.2,153.8,27.3,153.8,27.3z"/>
		<path class="st6" d="M153.8,41.2c0,0-23.2,0.1-51.7,0.1c-28.6,0-51.7,0-51.7-0.1c0-0.1,23.2-0.1,51.7-0.1
			C130.6,41.2,153.8,41.2,153.8,41.2z"/>
		<path class="st8" d="M51.2,42.5c0,0-1.2,7.9,0.1,12.8l12.3-0.4c0,0-2.5-7.8-0.9-11.8L51.2,42.5z"/>
		<path class="st8" d="M51.2,42.2c0,0,0.1,9.7,0.6,12.6l12.3-0.6c0,0-1.1-9.5-0.7-12.1H51.2z"/>
		<path class="st7" d="M61.6,46.2c0,0-1.8,0.2-4.1,0.3c-2.3,0.1-4.1,0.2-4.1,0.2c0,0,1.8-0.2,4.1-0.3C59.7,46.3,61.6,46.2,61.6,46.2
			z"/>
		<path class="st7" d="M61.6,48.3c0,0-1.8,0.2-4.1,0.3c-2.3,0.1-4.1,0.2-4.1,0.2c0,0,1.8-0.2,4.1-0.3C59.7,48.3,61.6,48.3,61.6,48.3
			z"/>
		<path class="st7" d="M59.5,50.3c0,0-0.3,0.1-0.7,0.1c-0.4,0-1,0.1-1.7,0.1c-0.7,0-1.2,0.1-1.7,0.1s-0.7,0-0.7,0
			c0,0,0.3-0.1,0.7-0.1c0.4,0,1-0.1,1.7-0.1c0.7,0,1.2-0.1,1.7-0.1S59.5,50.3,59.5,50.3z"/>
		<path class="st8" d="M79.3,1.6c0,0-1,8.2,0.3,13.1l12-0.6c0,0-2.5-8-0.9-11.9L79.3,1.6z"/>
		<path class="st8" d="M79.3,1.3c0,0,0.1,9.7,0.6,12.6l12.3-0.6c0,0-1.1-9.5-0.7-12.1H79.3z"/>
		<path class="st7" d="M89.7,5.4c0,0-1.8,0.2-4.1,0.3c-2.3,0.1-4.1,0.2-4.1,0.2c0,0,1.8-0.2,4.1-0.3C87.8,5.4,89.7,5.3,89.7,5.4z"/>
		<path class="st7" d="M89.7,7.4c0,0-1.8,0.2-4.1,0.3c-2.3,0.1-4.1,0.2-4.1,0.2c0,0,1.8-0.2,4.1-0.3C87.8,7.5,89.7,7.4,89.7,7.4z"/>
		<path class="st7" d="M87.6,9.5c0,0-0.3,0.1-0.7,0.1c-0.4,0-1,0.1-1.7,0.1c-0.7,0-1.2,0.1-1.7,0.1c-0.4,0-0.7,0-0.7,0
			c0,0,0.3-0.1,0.7-0.1c0.4,0,1-0.1,1.7-0.1c0.7,0,1.2-0.1,1.7-0.1C87.3,9.4,87.6,9.4,87.6,9.5z"/>
		<path class="st8" d="M95.4,41.9c0,0-1,9,0.3,13.9l12.1-0.5c0,0-2.6-8.8-1-12.8L95.4,41.9z"/>
		<path class="st8" d="M95.5,41.6c0,0,0.1,9.7,0.6,12.6l12.3-0.6c0,0-1.1-9.5-0.7-12.1H95.5z"/>
		<path class="st7" d="M105.8,45.7c0,0-1.8,0.2-4.1,0.3c-2.3,0.1-4.1,0.2-4.1,0.2c0,0,1.8-0.2,4.1-0.3
			C104,45.7,105.8,45.6,105.8,45.7z"/>
		<path class="st7" d="M105.8,47.8c0,0-1.8,0.2-4.1,0.3c-2.3,0.1-4.1,0.2-4.1,0.2c0,0,1.8-0.2,4.1-0.3
			C104,47.8,105.8,47.7,105.8,47.8z"/>
		<path class="st7" d="M103.7,49.7c0,0-0.3,0.1-0.7,0.1c-0.4,0-1,0.1-1.7,0.1c-0.7,0-1.2,0.1-1.7,0.1c-0.4,0-0.7,0-0.7,0
			c0,0,0.3-0.1,0.7-0.1c0.4,0,1-0.1,1.7-0.1c0.7,0,1.2-0.1,1.7-0.1C103.5,49.7,103.7,49.7,103.7,49.7z"/>
		<path class="st8" d="M141.7,14.6c0,0-1.3,7.7,0,12.6L154,27c0,0-2.5-7.8-0.9-11.8L141.7,14.6z"/>
		<path class="st8" d="M141.7,14.3c0,0,0.1,9.7,0.6,12.6l12.3-0.6c0,0-1.1-9.5-0.7-12.1H141.7L141.7,14.3z"/>
		<path class="st5" d="M152.1,18.4c0,0-1.8,0.2-4.1,0.3c-2.3,0.1-4.1,0.2-4.1,0.2c0,0,1.8-0.2,4.1-0.3
			C150.2,18.4,152.1,18.4,152.1,18.4z"/>
		<path class="st5" d="M152.1,20.4c0,0-1.8,0.2-4.1,0.3c-2.3,0.1-4.1,0.2-4.1,0.2c0,0,1.8-0.2,4.1-0.3
			C150.2,20.5,152.1,20.4,152.1,20.4z"/>
		<path class="st5" d="M150,22.5c0,0-0.3,0.1-0.7,0.1c-0.4,0-1,0.1-1.7,0.1c-0.7,0-1.2,0.1-1.7,0.1c-0.4,0-0.7,0-0.7,0
			c0,0,0.3-0.1,0.7-0.1c0.4,0,1-0.1,1.7-0.1c0.7,0,1.2-0.1,1.7-0.1C149.7,22.4,150,22.4,150,22.5z"/>
		<path class="st8" d="M110.5,28.7c0,0-1.3,7.7,0,12.6l12.3-0.2c0,0-2.5-7.8-0.9-11.8L110.5,28.7z"/>
		<path class="st8" d="M110.6,28.5c0,0,0.1,9.7,0.6,12.6l12.3-0.6c0,0-1.1-9.5-0.7-12.1H110.6L110.6,28.5z"/>
		<path class="st7" d="M120.9,32.5c0,0-1.8,0.2-4.1,0.3c-2.3,0.1-4.1,0.2-4.1,0.2c0,0,1.8-0.2,4.1-0.3
			C119.1,32.5,120.9,32.5,120.9,32.5z"/>
		<path class="st7" d="M120.9,34.6c0,0-1.8,0.2-4.1,0.3c-2.3,0.1-4.1,0.2-4.1,0.2c0,0,1.8-0.2,4.1-0.3
			C119.1,34.6,120.9,34.5,120.9,34.6z"/>
		<path class="st7" d="M118.8,36.6c0,0-0.3,0.1-0.7,0.1c-0.4,0-1,0.1-1.7,0.1c-0.7,0-1.2,0.1-1.7,0.1c-0.4,0-0.7,0-0.7,0
			c0,0,0.3-0.1,0.7-0.1c0.4,0,1-0.1,1.7-0.1c0.7,0,1.2-0.1,1.7-0.1C118.6,36.5,118.8,36.5,118.8,36.6z"/>
		<path class="st3" d="M138.9,17.5l-6.5,3.3l-3.1-0.4l1.7-3l6.9-2.4L138.9,17.5z"/>
		<path class="st11" d="M128.9,19.8l1.6-2.5l7-2.6l1.4,2.8l-6.8,2.7L128.9,19.8z"/>
		<path class="st7" d="M136.8,16.3c0,0-0.3,0.1-0.7,0.3c-0.4,0.2-1,0.4-1.7,0.7c-0.6,0.2-1.2,0.4-1.7,0.6c-0.4,0.2-0.7,0.2-0.7,0.2
			c-0.1-0.1,1-0.5,2.3-1C135.7,16.7,136.8,16.3,136.8,16.3z"/>
		<path class="st7" d="M135.7,17.6c0,0-0.7,0.4-1.5,0.7c-0.9,0.3-1.6,0.5-1.6,0.4c0,0,0.7-0.3,1.6-0.6
			C135,17.8,135.7,17.6,135.7,17.6z"/>
		<path class="st1" d="M51.2,14.2c0,0-1.1,10.8,0.4,13.1L63,26.6l-0.6-12.1L51.2,14.2z"/>
		<path class="st12" d="M51.2,14.2c0,0,0.1,9.4,0.6,12.3l12-0.6c0,0-1-9.3-0.7-11.8L51.2,14.2L51.2,14.2z"/>
		<path class="st7" d="M57.1,15.5C57.1,15.5,57.1,15.5,57.1,15.5c0.1,0,0.1,0,0.2,0c0.1,0,0.3,0,0.5,0c0.2,0,0.5,0.1,0.8,0.2
			c0.3,0.1,0.6,0.3,0.8,0.7c0.3,0.3,0.5,0.7,0.6,1.2c0.1,0.5,0.1,1-0.1,1.5c-0.1,0.2-0.2,0.5-0.3,0.7c-0.1,0.2-0.3,0.5-0.4,0.7
			c-0.2,0.5-0.4,1.1-0.5,1.7v0h0c-0.4,0-0.8,0-1.2,0c-0.4,0-0.8,0-1.2,0h0v0c0-0.6-0.3-1.2-0.6-1.6c-0.2-0.2-0.3-0.5-0.4-0.7
			c-0.2-0.2-0.3-0.4-0.4-0.7c-0.2-0.5-0.3-1-0.2-1.4c0.1-0.4,0.3-0.9,0.5-1.2c0.2-0.3,0.5-0.6,0.8-0.7c0.3-0.2,0.5-0.2,0.7-0.3
			c0.2-0.1,0.4-0.1,0.5-0.1C57.1,15.6,57.1,15.6,57.1,15.5C57.1,15.5,57.1,15.5,57.1,15.5S57.1,15.5,57.1,15.5c-0.1,0-0.1,0-0.2,0
			c-0.1,0-0.3,0-0.5,0.1c-0.2,0.1-0.4,0.1-0.7,0.3c-0.3,0.2-0.5,0.4-0.8,0.7c-0.2,0.3-0.3,0.7-0.4,1.2c-0.1,0.4,0,0.9,0.2,1.4
			c0.1,0.2,0.3,0.4,0.4,0.7c0.2,0.2,0.3,0.5,0.4,0.7c0.3,0.5,0.6,1,0.6,1.7l0,0c0.4,0,0.8,0,1.2,0c0.4,0,0.8,0,1.2,0l0,0
			c0.1-0.6,0.3-1.2,0.5-1.7c0.1-0.2,0.3-0.5,0.4-0.7s0.3-0.5,0.3-0.7c0.2-0.5,0.2-1,0.1-1.4c-0.1-0.4-0.3-0.8-0.5-1.1
			c-0.3-0.3-0.5-0.5-0.8-0.7c-0.3-0.1-0.5-0.2-0.8-0.2c-0.2,0-0.4,0-0.5,0c-0.1,0-0.1,0-0.1,0C57.1,15.5,57.1,15.5,57.1,15.5z"/>
		<path class="st7" d="M57.7,22.1C57.7,22.1,57.7,22.1,57.7,22.1c0-0.1,0-0.1,0-0.2c0-0.1,0-0.2-0.1-0.4c-0.1-0.4-0.1-0.9-0.2-1.6
			c0-0.2,0-0.3,0-0.5c0-0.2,0-0.4,0-0.6c0-0.2,0-0.4,0.1-0.6c0.1-0.2,0.3-0.4,0.4-0.5c0.2-0.1,0.5,0,0.7,0.1
			c0.1,0.1,0.2,0.2,0.1,0.3c0,0.1-0.1,0.2-0.1,0.3c-0.1,0.1-0.2,0.2-0.3,0.2c-0.1,0.1-0.2,0.1-0.3,0.1C57.8,19,57.5,19,57.3,19
			c-0.3,0-0.5,0-0.8,0c-0.1,0-0.3-0.1-0.3-0.1c-0.1-0.1-0.2-0.1-0.3-0.2c-0.1-0.1-0.2-0.2-0.2-0.3c0-0.1,0-0.2,0-0.3
			c0.1-0.1,0.1-0.2,0.3-0.2c0.1,0,0.3,0,0.3,0c0.1,0.1,0.2,0.1,0.3,0.2c0.1,0.1,0.1,0.2,0.1,0.3c0.1,0.2,0.1,0.4,0.1,0.6
			c0,0.4,0,0.7,0.1,1.1c0,0.7,0.1,1.2,0.1,1.6c0,0.2,0,0.3,0,0.4c0,0.1,0,0.1,0,0.1c0,0,0,0,0,0s0,0,0,0c0,0,0-0.1,0-0.1
			c0-0.1,0-0.2,0-0.4c0-0.4-0.1-0.9-0.1-1.6c0-0.3,0-0.7-0.1-1.1c0-0.2,0-0.4-0.1-0.6c0-0.1-0.1-0.2-0.1-0.3
			c-0.1-0.1-0.2-0.2-0.3-0.2c-0.1,0-0.2-0.1-0.3,0c-0.1,0-0.2,0.1-0.2,0.2c-0.1,0.1-0.1,0.2,0,0.3c0,0.1,0.1,0.2,0.2,0.3
			c0.2,0.2,0.4,0.3,0.6,0.3c0.3,0,0.5,0,0.8,0c0.3,0,0.5,0,0.8-0.1c0.1,0,0.3-0.1,0.3-0.1c0.1-0.1,0.2-0.1,0.3-0.2
			c0.1-0.1,0.1-0.2,0.1-0.3c0-0.1-0.1-0.2-0.1-0.3c-0.2-0.2-0.4-0.2-0.6-0.1c-0.2,0.1-0.3,0.2-0.4,0.4c-0.1,0.2-0.1,0.4-0.1,0.6
			c0,0.2,0,0.4,0,0.6s0,0.3,0,0.5c0.1,0.7,0.1,1.2,0.2,1.6c0,0.2,0,0.3,0.1,0.4C57.8,22,57.8,22.1,57.7,22.1
			C57.7,22.1,57.7,22.1,57.7,22.1z"/>
		<path class="st7" d="M56.2,22.2c0,0,0,0.2,0,0.4c0,0.3,0,0.6,0.1,1v0c0.3,0.3,0.5,0.6,0.8,0.9l0,0c0.3,0,0.6,0,0.9-0.1l0,0
			c0.2-0.2,0.3-0.4,0.5-0.6c0.1-0.1,0.2-0.2,0.2-0.3v0c0-0.5,0-1.1,0-1.5l0.1,0.1c-0.7,0-1.3,0-1.7,0c-0.2,0-0.3,0-0.5,0
			C56.2,22.2,56.2,22.2,56.2,22.2s0.1,0,0.2,0c0.2,0,0.3,0,0.5,0c0.5,0,1.1,0,1.8-0.1h0.1v0.1c0,0.5,0,1,0,1.5v0v0
			c-0.1,0.1-0.2,0.2-0.2,0.3c-0.2,0.2-0.3,0.4-0.5,0.6v0h0c-0.3,0-0.6,0-0.9,0h0l0,0c-0.3-0.3-0.6-0.7-0.8-0.9c0-0.4,0-0.7,0-1.1
			C56.2,22.3,56.2,22.1,56.2,22.2z"/>
		<path class="st7" d="M58.5,23.5C58.5,23.5,58.5,23.5,58.5,23.5c-0.2-0.1-0.2-0.1-0.3-0.1c-0.2-0.1-0.5-0.1-0.8-0.1
			c-0.3,0-0.6,0.1-0.8,0.2c-0.1,0-0.2,0.1-0.2,0.1c-0.1,0-0.1,0-0.1,0s0,0,0.1-0.1c0.1,0,0.1-0.1,0.2-0.1c0.2-0.1,0.5-0.2,0.8-0.2
			c0.3,0,0.6,0.1,0.8,0.1C58.3,23.3,58.4,23.4,58.5,23.5C58.5,23.5,58.5,23.5,58.5,23.5z"/>
		<path class="st7" d="M58.5,23.1C58.5,23.1,58.5,23.1,58.5,23.1c-0.2-0.1-0.2-0.1-0.3-0.1c-0.2-0.1-0.5-0.1-0.8-0.1
			c-0.3,0-0.6,0.1-0.8,0.2c-0.1,0-0.2,0.1-0.2,0.1c-0.1,0-0.1,0-0.1,0s0,0,0.1-0.1c0.1,0,0.1-0.1,0.2-0.1c0.2-0.1,0.5-0.2,0.8-0.2
			s0.6,0.1,0.8,0.1C58.3,23,58.4,23,58.5,23.1C58.5,23.1,58.5,23.1,58.5,23.1z"/>
		<path class="st7" d="M58.5,22.8C58.5,22.8,58.5,22.8,58.5,22.8c-0.2-0.1-0.2-0.1-0.3-0.1c-0.2-0.1-0.5-0.1-0.8-0.1
			c-0.3,0-0.6,0.1-0.8,0.2c-0.1,0-0.2,0.1-0.2,0.1c-0.1,0-0.1,0-0.1,0s0,0,0.1-0.1c0.1,0,0.1-0.1,0.2-0.1c0.2-0.1,0.5-0.2,0.8-0.2
			s0.6,0.1,0.8,0.1C58.3,22.6,58.4,22.6,58.5,22.8C58.5,22.8,58.5,22.8,58.5,22.8z"/>
		<path class="st13" d="M81.3,40.1c0,0,0,0.2-0.2,0.3c-0.1,0.2-0.4,0.3-0.7,0.5c-0.6,0.2-1.1,0.2-1.1,0.2c0-0.1,0.5-0.1,1.1-0.3
			c0.3-0.1,0.5-0.3,0.7-0.4C81.2,40.2,81.3,40.1,81.3,40.1z"/>
		<path class="st6" d="M160.2,59.9c0-0.5,0-29.2-0.1-74.9l0.1,0.1c-31.7,0-71.9,0-115.6,0l0.1-0.1c0,26.6,0,52,0,74.9l-0.1-0.1
			C112.7,59.9,159.6,59.9,160.2,59.9c-0.7,0-47.6,0-115.6,0.1h-0.1v-0.1c0-22.9,0-48.3,0-74.9v-0.1h0.1c43.6,0,83.9,0,115.6,0h0.1
			v0.1C160.3,30.7,160.2,59.4,160.2,59.9z"/>
		<path class="st6" d="M134.5,10.3c-0.4-0.5-0.7-1.3-0.5-1.9c-0.5-0.3-0.5-0.6-0.5-1.2c0-0.5,0.2-1,0.5-1.5c0.4-0.7,1-1.5,1.7-1.9
			s1.7-0.4,2.4,0.1c1-1.2,3-1.4,4.2-0.3c0.2,0.2,0.4,0.4,0.7,0.6c0.4,0.2,0.9,0.1,1.4,0.2c0.8,0.1,1.5,0.5,1.9,1.2
			c0.4,0.6,0.4,1.5,0.1,2.2c0.7,0.4,1,1.2,1.1,2c0.1,0.8-0.1,1.6-0.3,2.4c-0.2,0.9-0.5,2-1.1,2.7c-0.5,0.5-1.1,0.8-1.8,0.9
			c-1,0.1-2-0.4-2.5-1.2"/>
		<path class="st14" d="M144.7,26.7l-7.8-0.3c0-0.8,0.4-5.9,0.4-5.9s-3-0.5-3-3.4c0-2.9,0.5-9.6,0.5-9.6c3.4-1.5,7.3-0.9,10.3,1.3
			l0.4,0.3L144.7,26.7z"/>
		<path class="st15" d="M137.3,20.4c0,0,1.9,0.1,3.8-1.1c0,0-0.9,2.1-3.8,1.9V20.4z"/>
		<path class="st14" d="M145.2,12.1c0,0,2-0.6,2,1.4c0,2-2.1,1.5-2.1,1.5C145.1,14.9,145.2,12.1,145.2,12.1z"/>
		<path class="st15" d="M145.7,14.2C145.7,14.2,145.8,14.3,145.7,14.2c0.1,0.1,0.3,0.1,0.3,0c0.2-0.1,0.4-0.4,0.4-0.8
			c0-0.2,0-0.3-0.1-0.5c0-0.1-0.1-0.3-0.3-0.3c-0.1,0-0.2,0-0.2,0.1c0,0,0,0.1,0,0.1c0,0,0,0,0-0.1c0,0,0-0.1,0.1-0.1
			c0,0,0.1,0,0.2,0c0.2,0,0.3,0.2,0.3,0.3c0.1,0.2,0.1,0.3,0.1,0.6c0,0.4-0.3,0.8-0.5,0.9C145.9,14.4,145.8,14.3,145.7,14.2
			C145.7,14.3,145.7,14.2,145.7,14.2z"/>
		<path class="st6" d="M135.5,12c0,0.2,0.2,0.4,0.4,0.4c0.2,0,0.4-0.2,0.4-0.4c0-0.2-0.2-0.4-0.4-0.4
			C135.7,11.7,135.5,11.8,135.5,12z"/>
		<path class="st6" d="M135.4,11.6c0,0,0.4-0.2,0.8-0.2s0.8,0.2,0.8,0.2c0,0,0-0.1-0.2-0.2c-0.1-0.1-0.4-0.2-0.7-0.2
			s-0.5,0.1-0.7,0.2C135.4,11.4,135.3,11.6,135.4,11.6z"/>
		<path class="st6" d="M139.9,12.2c0,0.2,0.2,0.4,0.4,0.4c0.2,0,0.4-0.2,0.4-0.4c0-0.2-0.2-0.4-0.4-0.4
			C140.1,11.8,139.9,12,139.9,12.2z"/>
		<path class="st6" d="M139.8,11.7c0,0,0.4-0.2,0.8-0.2c0.4,0,0.8,0.2,0.8,0.2c0,0,0-0.1-0.2-0.2c-0.1-0.1-0.4-0.2-0.7-0.2
			c-0.3,0-0.5,0.1-0.7,0.2C139.8,11.5,139.8,11.7,139.8,11.7z"/>
		<path class="st6" d="M138.2,15c0,0-0.3-0.1-0.7-0.1c-0.1,0-0.2,0-0.3-0.1c0-0.1,0-0.2,0.1-0.3c0.1-0.3,0.2-0.6,0.3-0.9
			c0.5-1.2,0.8-2.3,0.8-2.3c0,0-0.5,1-1,2.2c-0.1,0.3-0.2,0.6-0.3,0.9c0,0.1-0.1,0.3,0,0.4c0,0.1,0.1,0.1,0.2,0.2c0.1,0,0.1,0,0.2,0
			C137.9,15,138.2,15,138.2,15z"/>
		<path class="st6" d="M139.5,15.3c-0.1,0-0.1,0.5-0.5,0.8c-0.4,0.3-1,0.3-1,0.3c0,0,0.1,0.1,0.3,0.1c0.2,0,0.5,0,0.8-0.3
			c0.3-0.2,0.3-0.5,0.4-0.7C139.6,15.4,139.5,15.3,139.5,15.3z"/>
		<path class="st6" d="M139.7,9.9c0,0.1,0.5,0,1,0.1c0.5,0,1,0.2,1,0.1c0,0,0-0.2-0.2-0.3c-0.2-0.1-0.4-0.2-0.8-0.3
			c-0.3,0-0.6,0-0.8,0.1C139.8,9.8,139.7,9.9,139.7,9.9z"/>
		<path class="st6" d="M135.5,10.3c0.1,0.1,0.4,0,0.8,0c0.4,0,0.7,0.1,0.8,0c0,0,0-0.2-0.2-0.3c-0.1-0.1-0.3-0.2-0.6-0.2
			s-0.5,0.1-0.6,0.2C135.5,10.2,135.5,10.2,135.5,10.3z"/>
		<path class="st6" d="M145.7,8.9c0,0.9,0.1,1.8,0,2.6c0,0.1-0.3,0.5-0.4,0.6c-0.2,0.7-0.5,1.1-0.9,0.3c-0.2-0.3-0.3-1.1-0.3-1.4
			c-0.2-0.9-0.3-1.8-0.5-2.7c-0.7,0.3-1.5,0.6-2.2,0.5c-0.8,0-1.6-0.4-1.9-1.1c-0.3,0.6-1,1-1.7,1.1c-0.7,0.1-1.4-0.2-2-0.6
			c-0.3,0.4-0.9,0.5-1.3,0.3c-0.4-0.3-0.6-0.8-0.5-1.3c0.2-0.7,1-1.1,1.7-1.3c2.8-0.8,5.9-0.2,8.4,1.3c0.3,0.2,0.7,0.4,1,0.8
			c0.3,0.3,0.7,0.7,0.7,1.1"/>
		<path class="st13" d="M133.2,122.8l0-3.9l7.3-0.1l0.1,5.7l-0.4,0c-2,0.1-10.3,0.6-11.7,0.2C126.9,124.2,133.2,122.8,133.2,122.8z"
			/>
		<g class="st16">
			<g class="st16">
				<g class="st16">
					<g class="st16">
						<g class="st16">
							<g class="st16">
								<path class="st17" d="M137.9,124.5c0.1-0.6,0.4-1.2,0.9-1.6c0.5-0.4,1.1-0.6,1.7-0.6l0,2L137.9,124.5z"/>
							</g>
						</g>
					</g>
				</g>
			</g>
		</g>
		<g class="st16">
			<g class="st16">
				<g class="st16">
					<g class="st16">
						<path class="st17" d="M130.1,123.6c0,0-2.2,0.6-1.9,1c0.3,0.3,8.7,0.3,12.4-0.1v-0.2l-9.8,0.2
							C130.8,124.5,130.5,123.6,130.1,123.6z"/>
					</g>
				</g>
			</g>
		</g>
		<path class="st6" d="M140.7,124.3c0,0,0,0-0.1,0c-0.1,0-0.2,0-0.3,0c-0.3,0-0.8,0-1.3,0.1c-1.1,0-2.7,0.1-4.4,0.1
			c-1.7,0-3.3,0-4.4,0c-0.5,0-1,0-1.3,0c-0.1,0-0.3,0-0.3,0c-0.1,0-0.1,0-0.1,0s0,0,0.1,0c0.1,0,0.2,0,0.3,0c0.3,0,0.8,0,1.3,0
			c1.1,0,2.7,0,4.4,0c1.7,0,3.3-0.1,4.4-0.1c0.5,0,1,0,1.3,0c0.1,0,0.3,0,0.3,0C140.7,124.3,140.7,124.3,140.7,124.3z"/>
		<path class="st6" d="M130.8,124.7c0,0,0-0.3-0.3-0.6c-0.2-0.3-0.5-0.5-0.5-0.5s0.3,0.1,0.5,0.5
			C130.8,124.3,130.8,124.7,130.8,124.7z"/>
		<path class="st6" d="M132.9,123.5c0,0-0.1-0.1-0.2-0.3c-0.1-0.2-0.2-0.3-0.2-0.3c0,0,0.1,0.1,0.2,0.3
			C132.9,123.4,133,123.5,132.9,123.5z"/>
		<path class="st6" d="M133.5,123.2c0,0-0.1,0-0.3-0.2c-0.1-0.1-0.2-0.2-0.2-0.2s0.1,0,0.3,0.2C133.5,123.1,133.5,123.2,133.5,123.2
			z"/>
		<path class="st6" d="M133.9,122.5c0,0-0.2,0-0.4,0c-0.2,0-0.4,0-0.4,0s0.2,0,0.4,0C133.7,122.5,133.9,122.5,133.9,122.5z"/>
		<path class="st6" d="M134,122c0,0-0.2,0.1-0.4,0.1c-0.3,0-0.4,0-0.4,0c0,0,0.2,0,0.4,0C133.8,122,134,122,134,122z"/>
		<path class="st6" d="M132.7,122.9c0,0-0.2,0-0.5,0c-0.1,0-0.3,0-0.5-0.1c-0.1,0-0.2,0-0.3-0.1c0,0-0.1-0.1-0.1-0.1
			c0-0.1,0-0.1,0.1-0.2c0.4-0.3,0.9,0,1.1,0.3C132.5,122.8,132.6,122.9,132.7,122.9c-0.1,0.1-0.1,0.2-0.1,0.2s0-0.2-0.2-0.4
			c-0.1-0.1-0.2-0.2-0.4-0.3c-0.2,0-0.4,0-0.6,0c-0.1,0,0,0.1,0,0.2c0.1,0,0.2,0.1,0.3,0.1c0.2,0,0.3,0.1,0.5,0.1
			C132.5,122.9,132.7,122.9,132.7,122.9z"/>
		<path class="st6" d="M132.6,122.9c0,0-0.1-0.1,0-0.3c0-0.1,0-0.2,0.1-0.3c0.1-0.1,0.2-0.3,0.4-0.3c0.1,0,0.2,0.1,0.1,0.2
			c0,0.1,0,0.2-0.1,0.2c-0.1,0.1-0.1,0.2-0.2,0.3C132.7,122.9,132.6,122.9,132.6,122.9c0,0,0.1-0.1,0.3-0.3c0-0.1,0.1-0.2,0.2-0.3
			c0-0.1,0.1-0.3,0-0.3c-0.1,0-0.2,0.1-0.3,0.2c-0.1,0.1-0.1,0.2-0.1,0.3C132.6,122.8,132.6,122.9,132.6,122.9z"/>
		<path class="st6" d="M140.6,122.3c0,0-0.2,0-0.6,0c-0.3,0-0.8,0.2-1.2,0.5c-0.4,0.3-0.6,0.7-0.7,1c-0.1,0.3-0.1,0.5-0.1,0.5
			s0,0,0-0.1s0-0.2,0.1-0.4c0.1-0.3,0.3-0.8,0.7-1.1c0.4-0.3,0.9-0.5,1.2-0.5c0.2,0,0.3,0,0.4,0
			C140.5,122.3,140.6,122.3,140.6,122.3z"/>
		<path class="st6" d="M139.7,119.3c0,0,0,0.7,0.1,1.5c0,0.8,0,1.5,0,1.5c0,0,0-0.7-0.1-1.5C139.7,120,139.7,119.3,139.7,119.3z"/>
		<path class="st6" d="M137,123.8c0,0-0.5,0.1-1.1,0.1c-0.6,0-1.1,0-1.1-0.1s0.5,0,1.1,0C136.5,123.8,137,123.8,137,123.8z"/>
		<path class="st6" d="M138.4,123.8c0,0,0,0.1-0.1,0.2c0,0.1-0.1,0.2-0.1,0.2c0,0,0-0.1,0-0.3C138.3,123.8,138.4,123.7,138.4,123.8z
			"/>
		<path class="st6" d="M139,123.1c0,0,0,0.1-0.1,0.2c-0.1,0.1-0.1,0.1-0.2,0.1c0,0,0-0.1,0.1-0.2C138.9,123.1,138.9,123.1,139,123.1
			z"/>
		<path class="st6" d="M139.8,122.8c0,0-0.1,0-0.2,0c-0.1,0-0.2,0.1-0.2,0.1c0,0,0-0.1,0.2-0.2C139.6,122.7,139.8,122.7,139.8,122.8
			z"/>
		<path class="st6" d="M140.3,122.6C140.3,122.6,140.2,122.6,140.3,122.6c-0.1,0.1-0.2,0.1-0.2,0.1c0,0,0,0,0.1-0.1
			C140.2,122.6,140.3,122.6,140.3,122.6z"/>
		<path class="st13" d="M155.6,118.9l0.7,2.9c0,0,4.8,6.2,6.3,5.9c1-0.2-0.2-1.8-2-6.5l-0.4-1.9L155.6,118.9z"/>
		<path class="st6" d="M162.8,126.8c0,0,0,0.1-0.3,0.3c-0.2,0.1-0.6,0.1-0.9-0.1c-0.7-0.5-1.5-1.3-2.4-2.2c-0.9-0.9-1.7-1.8-2.2-2.5
			c-0.2-0.3-0.4-0.6-0.6-0.8c0-0.1-0.1-0.1-0.2-0.2c0,0,0-0.1,0-0.1s0,0,0,0.1c0,0.1,0.1,0.1,0.2,0.2c0.1,0.2,0.3,0.5,0.6,0.8
			c0.5,0.7,1.3,1.6,2.2,2.5c0.9,0.9,1.7,1.7,2.4,2.2c0.2,0.1,0.4,0.2,0.6,0.2c0.2,0,0.3,0,0.4-0.1c0.1,0,0.2-0.1,0.2-0.2
			C162.7,126.8,162.8,126.8,162.8,126.8z"/>
		<path class="st6" d="M162.1,124.8c0,0-0.1,0-0.4,0s-0.6,0.1-0.9,0.3c-0.3,0.2-0.6,0.5-0.7,0.7c-0.1,0.2-0.1,0.4-0.1,0.4
			c0,0,0-0.1,0.2-0.3c0.1-0.2,0.3-0.5,0.7-0.6c0.3-0.2,0.7-0.3,0.9-0.3C161.9,124.8,162.1,124.8,162.1,124.8z"/>
		<path class="st6" d="M157.5,123.3c0,0,0,0,0-0.1c0-0.1,0.1-0.2,0.1-0.4c0-0.3,0-0.9-0.2-1.3c-0.3-0.5-0.7-0.8-1-0.9
			c-0.2-0.1-0.3-0.1-0.4-0.1c-0.1,0-0.1,0-0.2,0c0,0,0.2,0,0.5,0.2c0.3,0.1,0.7,0.5,0.9,0.9c0.3,0.5,0.3,0.9,0.3,1.3
			C157.6,123.1,157.5,123.3,157.5,123.3z"/>
		<path class="st6" d="M155.9,119.4c0,0,0.1,0.4,0.2,0.9c0.1,0.5,0.2,0.9,0.3,0.9c0,0-0.1-0.4-0.2-0.9
			C156,119.8,155.9,119.4,155.9,119.4z"/>
		<path class="st6" d="M160.6,121.6c0,0-0.3-0.1-0.6,0c-0.3,0.1-0.6,0.3-0.6,0.3c0,0,0.3-0.1,0.6-0.2
			C160.3,121.6,160.6,121.6,160.6,121.6z"/>
		<path class="st6" d="M160.7,122.1c0,0-0.2-0.1-0.5,0c-0.3,0.1-0.5,0.2-0.5,0.3c0,0,0.2-0.1,0.5-0.2
			C160.5,122.1,160.7,122.1,160.7,122.1z"/>
		<path class="st6" d="M161.1,122.7c0,0-0.2-0.1-0.5-0.1c-0.3,0.1-0.5,0.3-0.5,0.3s0.2-0.1,0.5-0.2
			C160.8,122.7,161.1,122.7,161.1,122.7z"/>
		<path class="st6" d="M160.2,121.4c0,0-0.2,0-0.6-0.2c-0.2-0.1-0.4-0.2-0.6-0.3c-0.1,0-0.2-0.1-0.3-0.2c-0.1-0.1-0.2-0.2-0.2-0.3
			c0-0.1,0.1-0.2,0.3-0.1c0.1,0,0.2,0.1,0.3,0.2c0.2,0.2,0.3,0.3,0.4,0.5c0.3,0.3,0.4,0.5,0.4,0.4c0,0,0,0-0.1-0.1
			c0-0.1-0.1-0.2-0.3-0.3c-0.1-0.1-0.3-0.3-0.4-0.5c-0.1-0.1-0.2-0.2-0.3-0.2c-0.1,0-0.3,0-0.3,0.2c0,0.2,0.1,0.3,0.3,0.3
			c0.1,0.1,0.2,0.1,0.3,0.2c0.2,0.1,0.4,0.2,0.6,0.3S160,121.4,160.2,121.4C160.2,121.4,160.2,121.4,160.2,121.4z"/>
		<path class="st6" d="M160,121.3c0,0,0-0.2,0.1-0.5c0-0.2,0.1-0.3,0.2-0.6c0-0.1,0.1-0.2,0.2-0.3c0.1-0.1,0.2-0.2,0.3-0.1
			c0.1,0,0.1,0.2,0.1,0.3c0,0.1,0,0.2-0.1,0.3c-0.1,0.2-0.2,0.3-0.3,0.5C160.2,121.2,160,121.3,160,121.3s0,0,0.1-0.1
			c0.1,0,0.2-0.1,0.3-0.3c0.1-0.1,0.3-0.3,0.3-0.5c0-0.1,0.1-0.2,0.1-0.3c0-0.1,0-0.3-0.1-0.4c-0.2-0.1-0.3,0-0.4,0.1
			s-0.1,0.2-0.2,0.3c-0.1,0.2-0.1,0.4-0.1,0.6c0,0.2,0,0.3,0,0.4C160,121.3,160,121.3,160,121.3z"/>
		<g class="st16">
			<g class="st16">
				<g class="st16">
					<g class="st16">
						<path class="st17" d="M156.2,121.8l-0.3-1.4c0,0,1.2,0.2,1.5,1.1c0.3,0.9,0.2,1.5,0.2,1.5l2.6,2.8c0,0,0.7-1.2,1.8-0.9
							c0,0,0.9,2,0.9,2.5c0,0.6-0.6,0.4-0.8,0.3c-0.1,0-1.2-0.7-2.3-1.8C158.4,124.4,156.9,122.7,156.2,121.8z"/>
					</g>
				</g>
			</g>
		</g>
		<path class="st6" d="M128.2,55.9l3.5,64l9.5,0.2l-0.7-55.5l14.3,55.6l7.7-0.3l-12.3-63.9L128.2,55.9z"/>
		<path class="st12" d="M150.5,37l3.1-8.1c-0.6-2.1-3-4.3-6.2-4.9c-1-0.2-2-0.6-3.2-0.6c-2.2,1.7-5.4,1.8-7.7,0.1l-0.1-0.1
			c-0.3,0-0.7,0.1-1.3,0.1c0,0-0.1,0-0.1,0c-1.3,0.2-2.6,0.6-3.5,1.4l-16.2,9.3l-9.5-6.9l-4.8,3.6c0,0,12.4,12,13.6,12.2
			c0.9,0.2,9.1-4.1,14.2-6.8c-0.2,2.9-1.3,19-1.3,21.2h23.1V47.2v-2.8L150.5,37z"/>
		<path class="st12" d="M141.5,46.4c0,0,11.2,4.8,12.3,5c3.6,0.7,6.9-2.1,6.3-4.8c-0.3-1.4-6.6-18.1-6.6-18.1l-4.6,6.5l2.3,8.5
			l-6.9-0.9L141.5,46.4z"/>
		<path class="st6" d="M151.4,50.6c0,0,0,0-0.2-0.1c-0.1-0.1-0.3-0.1-0.5-0.3c-0.5-0.2-1.2-0.5-2-0.9c-1.7-0.8-4.2-1.8-6.9-3l0,0.1
			c0.4-0.7,0.9-1.5,1.3-2.3c0.3-0.5,0.5-0.9,0.8-1.4l-0.1,0c3.3,0.3,6.1,0.6,8.2,0.8c1,0.1,1.8,0.2,2.5,0.2c0.3,0,0.5,0,0.7,0
			c0.1,0,0.2,0,0.2,0s-0.1,0-0.2,0c-0.2,0-0.4,0-0.7-0.1c-0.6-0.1-1.4-0.2-2.4-0.3c-2.1-0.2-5-0.5-8.2-0.9h0l0,0
			c-0.3,0.4-0.5,0.9-0.8,1.4c-0.4,0.8-0.9,1.5-1.3,2.3l0,0.1l0.1,0c2.7,1.2,5.2,2.2,6.9,3c0.9,0.3,1.5,0.6,2.1,0.9
			c0.2,0.1,0.4,0.2,0.5,0.2C151.3,50.6,151.4,50.6,151.4,50.6z"/>
		<path class="st6" d="M144,42.3l1-4.5c0,0-11.9-0.1-11.7,0c0.1,0.2,1.3,10.3,1.3,10.3s8.3-0.3,8-0.3L144,42.3z"/>
		<path class="st14" d="M144.9,40.3c-0.4,0-0.9,0.3-1,0.7c-0.2,0.4-0.4,0.9-0.7,1.1c-0.5,0.3-1.4,0.5-1.9,0.3
			c-0.4-0.2-2.3-1.9-2.7-1.7c-0.3,0.2-0.6,0.6-0.3,0.9c0.3,0.3,2.1,1.4,1.7,1.8c-0.3,0.3-4-1.2-4.6-1.1c-0.6,0.1-0.9,0.5-0.6,0.7
			c0.3,0.2,2.8,1.1,3,1.4c0,0-3.8-0.9-3.9-0.7c-0.1,0.2-0.4,0.6,0,0.7c0.4,0.1,3.6,0.9,3.9,1.1c0.3,0.1,1.3,0.4,1.4,0.4
			c0.1,0,0.9,0.2,1.5,0.5c0.8,0.3,1.6,0.2,2.3,0l0.4-0.1c0.6-0.2,0.9-0.8,0.9-1.4l-0.1-1.2l0.4-1L144.9,40.3z"/>
		<path class="st6" d="M150.6,43.4c0,0-0.1-2.6-0.1-5.8c0-3.2,0-5.8,0.1-5.8c0,0,0.1,2.6,0.1,5.8C150.7,40.8,150.7,43.4,150.6,43.4z
			"/>
		<path class="st6" d="M129.1,29.3c0,0,0,0.2,0,0.5c0,0.4,0,0.9,0,1.5c0,1.2-0.1,2.9-0.2,4.8c-0.1,1.9-0.2,3.5-0.3,4.8
			c0,0.6-0.1,1.1-0.1,1.5c0,0.3,0,0.5-0.1,0.5c0,0,0-0.2,0-0.5c0-0.4,0-0.9,0-1.5c0-1.2,0.1-2.9,0.2-4.8c0.1-1.9,0.2-3.5,0.3-4.8
			c0-0.6,0.1-1.1,0.1-1.5C129.1,29.5,129.1,29.3,129.1,29.3z"/>
		<path class="st7" d="M150.3,31.9c0,0-4.7,0.1-10.5,0.1c-5.8,0-10.5,0-10.5-0.1c0,0,4.7-0.1,10.5-0.1
			C145.6,31.8,150.3,31.8,150.3,31.9z"/>
		<path class="st7" d="M150.4,33c0,0-4.8,0.1-10.7,0.1c-5.9,0-10.7,0-10.7-0.1c0-0.1,4.8-0.1,10.7-0.1
			C145.6,32.9,150.4,32.9,150.4,33z"/>
		<path class="st7" d="M150.6,34.4c0,0-4.7,0.1-10.5,0.1c-5.8,0-10.5,0-10.5-0.1c0-0.1,4.7-0.1,10.5-0.1
			C145.9,34.3,150.6,34.4,150.6,34.4z"/>
		<path class="st6" d="M149,43.5c0,0-0.6,1.1-1.3,2.5c-0.8,1.3-1.3,2.4-1.4,2.4c0,0,0.4-1.2,1.2-2.5C148.3,44.5,149,43.4,149,43.5z"
			/>
		<path class="st6" d="M150.3,43.8c0,0-0.5,1.2-1.3,2.5c-0.8,1.3-1.6,2.3-1.6,2.3c0,0,0.6-1.1,1.4-2.4
			C149.7,44.8,150.3,43.7,150.3,43.8z"/>
		<path class="st6" d="M108.4,29.1c0,0-1,1-2.3,2.1c-1.3,1.1-2.5,2-2.5,1.9s1-1,2.3-2.1c0.7-0.6,1.3-1.1,1.7-1.4
			C108.1,29.3,108.4,29.1,108.4,29.1z"/>
		<path class="st6" d="M109.5,29.9c0,0-1,1-2.4,2.2c-0.7,0.6-1.3,1.1-1.7,1.4c-0.4,0.3-0.8,0.6-0.8,0.6c0,0,0.2-0.3,0.7-0.6
			c0.4-0.4,1-0.9,1.7-1.5c0.7-0.6,1.3-1.1,1.7-1.4C109.2,30.1,109.5,29.9,109.5,29.9z"/>
		<path class="st11" d="M130.9,48.4c0,0,0,0.4,0.1,1c0.1,0.6,0.2,1.5,0.3,2.5c0.1,0.5,0.1,1,0.2,1.4c0.1,0.4,0.3,0.8,0.6,1
			c0.3,0.2,0.5,0.3,0.7,0.3c0.2,0,0.3,0,0.3,0c0,0-0.4,0-0.9-0.4c-0.2-0.2-0.4-0.5-0.5-0.9c-0.1-0.4-0.1-0.8-0.2-1.4
			c-0.1-1-0.3-1.8-0.3-2.5C131,48.8,130.9,48.4,130.9,48.4z"/>
		<path class="st11" d="M132.9,48.8c0,0,0,0.1,0,0.3c0,0.1-0.1,0.1-0.2,0.2c-0.1,0-0.2,0-0.3-0.1c-0.1-0.1-0.1-0.2-0.1-0.3
			c0-0.1,0.1-0.1,0.2-0.2C132.7,48.7,132.8,48.7,132.9,48.8c0,0-0.1-0.2-0.4-0.1c-0.1,0-0.2,0.1-0.3,0.2c-0.1,0.1,0,0.4,0.1,0.5
			c0.1,0.1,0.3,0.2,0.5,0.1c0.1-0.1,0.2-0.2,0.2-0.3C133.1,48.8,132.9,48.7,132.9,48.8z"/>
		<path class="st11" d="M138.1,49.8c0,0,0.2-0.4,0.1-0.9c0-0.5-0.3-0.9-0.3-0.8c0,0,0.1,0.4,0.1,0.9C138.1,49.4,138,49.8,138.1,49.8
			z"/>
		<path class="st11" d="M136.9,49.7c0,0,0.2-0.4,0.2-0.9s-0.2-0.9-0.2-0.9c0,0,0,0.4,0.1,0.9C137,49.3,136.9,49.7,136.9,49.7z"/>
		<path class="st11" d="M126.8,49.6c0,0,0-0.4,0-1c0-0.5,0-0.9,0-1c0,0-0.2,0.4-0.1,1C126.7,49.2,126.8,49.6,126.8,49.6z"/>
		<path class="st11" d="M125.6,49.5c0,0-0.1-0.4-0.1-1c0-0.5,0.1-1,0-1c0,0-0.2,0.4-0.2,1C125.3,49.1,125.6,49.5,125.6,49.5z"/>
		<path class="st14" d="M106.8,27.7c0,0-1.8-3-2.2-3.3c-0.4-0.3-4.2-1.6-4.5-1.5c-0.3,0.1-4.8,0.9-4.3,1.5c0.5,0.5,3.7-0.1,3.7-0.1
			l0.4,0.2c0,0-2.7,0.5-3.3,0.8c-0.5,0.3-0.3,0.9,0.2,0.9c0.5,0,2.8-0.6,3-0.5c0.1,0.1-2.6,0.7-2.8,0.9c-0.4,0.2-0.4,0.9,0.1,0.9
			c0.3,0,2.8-0.7,2.8-0.7s-2,0.8-2.2,1c-0.3,0.3,0,0.7,0.4,0.6c0.3-0.1,1.7-0.8,2.1-0.9c0,0,0.4,0.1,0.7,0.9
			c0.3,0.7,2.2,2.2,2.2,2.2L106.8,27.7z"/>
		<path class="st15" d="M95.9,24.4c0,0,0.3,0.1,0.8,0.2c0.3,0,0.6,0,0.9,0c0.3,0,0.7-0.1,1.1-0.2c0.3,0,0.6-0.1,0.8-0.1h0
			c1.1,0.4,1.9,0.6,2,0.6c0,0-0.8-0.3-1.9-0.8h0h0c-0.3,0-0.5,0.1-0.8,0.1c-0.4,0-0.7,0.1-1.1,0.2c-0.3,0-0.7,0-0.9,0
			C96.2,24.4,95.9,24.3,95.9,24.4z"/>
		<path class="st12" d="M92.6,22.2c0,0-3.3,9.7-4.3,11.7l11,3.4l2-1.2c0,0,2.7-7.8,3-10.5L92.6,22.2z"/>
		<path class="st18" d="M99.9,35.6l-0.6,1.6l2-1.2L99.9,35.6z"/>
		<path class="st7" d="M101.4,28.9c0,0-0.5-0.1-1.2-0.4c-0.8-0.3-1.8-0.6-3-1c-1.1-0.3-2.1-0.7-3-0.9c-0.7-0.3-1.2-0.4-1.2-0.4
			c0,0,0.5,0.1,1.3,0.3c0.8,0.2,1.8,0.5,3,0.9c1.2,0.4,2.2,0.8,3,1.1C100.9,28.7,101.4,28.9,101.4,28.9z"/>
		<path class="st7" d="M100.4,31.1c0,0-0.5-0.1-1.2-0.3c-0.7-0.2-1.7-0.5-2.9-0.9c-1.1-0.3-2.1-0.7-2.8-1c-0.7-0.3-1.1-0.5-1.1-0.5
			c0,0,0.5,0.1,1.2,0.3c0.8,0.3,1.8,0.6,2.8,0.9c1.1,0.3,2,0.6,2.8,0.9C100,30.9,100.4,31.1,100.4,31.1z"/>
		<path class="st7" d="M99.3,33.1c0,0-1.7-0.4-3.7-1.1c-2-0.7-3.7-1.3-3.7-1.3c0,0,1.7,0.4,3.7,1.1C97.7,32.4,99.3,33,99.3,33.1z"/>
		<path class="st14" d="M105.7,28c-0.3,0.3-0.7,0.2-1,0c-0.3-0.2-0.6-0.5-0.9-0.7c-0.9-0.6-2.3-0.4-3.1-1.1
			c-0.1-0.1-0.3-0.3-0.2-0.4c0-0.1,0.2-0.1,0.4-0.1c1.2,0,2.5,0,3.7,0"/>
		<path class="st15" d="M104.5,25.7c0,0-0.1,0-0.4,0c-0.3,0-0.7,0-1.1,0c-0.5,0-1,0-1.6,0c-0.2,0-0.3,0-0.5,0c-0.1,0-0.3,0-0.5,0.1
			c-0.1,0.1-0.1,0.3,0,0.3c0,0.1,0.1,0.2,0.2,0.2c0.1,0.1,0.3,0.2,0.5,0.3c0.7,0.3,1.3,0.3,1.9,0.5c0.3,0.1,0.6,0.2,0.8,0.3
			c0.2,0.1,0.4,0.3,0.6,0.5c0.3,0.3,0.8,0.4,1,0.3c0.3,0,0.3-0.2,0.3-0.2s-0.1,0.1-0.3,0.1c-0.3,0-0.6-0.1-1-0.4
			c-0.2-0.1-0.3-0.3-0.6-0.5c-0.2-0.2-0.5-0.3-0.8-0.4c-0.6-0.2-1.3-0.3-1.9-0.5c-0.2-0.1-0.3-0.2-0.4-0.3c-0.1-0.1-0.2-0.2-0.1-0.3
			c0-0.1,0.2-0.1,0.4,0c0.2,0,0.3,0,0.5,0c0.6,0,1.1,0,1.6,0c0.5,0,0.8,0,1.1,0C104.4,25.7,104.5,25.7,104.5,25.7z"/>
		<path class="st6" d="M53.2,7.4c0.3-1.2-0.3-2.6-1.4-3.3c-1-0.7-2.5-0.8-3.6-0.2c-1.1,0.6-1.9,1.8-2,3c-0.1,1.4,0.5,2.7,1.1,4.1
			c0.6,1.3,1,2.8,0.6,4.1c-0.4,1.1-1.3,1.9-2.1,2.8c-0.7,0.8-1.4,1.7-1.6,2.7c-0.2,1.1,0.2,2.2,1.2,2.7c0.2,0.1,0.5,0.2,0.6,0.4
			c0.3,0.4,0,0.8-0.2,1.3c-0.3,0.6-0.3,1.4-0.1,2c0.4,1.4,2,2.3,3.5,2.2c1.5-0.1,2.9-1,3.7-2.3c0.8-1.2,1.2-2.7,1.2-4.2
			c0.1-1.5-0.1-3-0.3-4.4c-0.3-3.7,1.4-7.6,1.6-11.3"/>
		<path class="st19" d="M56.6,29.5c2.1,0.2,4-1.4,4.1-3.5c0.1-2,0.1-4.1,0.1-4.1s3.1-0.3,3.3-3.3c0.2-3,0.1-10,0.1-10
			c-3.5-1.7-7.6-1.5-10.8,0.7l0.2,10.7v5.7C53.6,27.5,54.6,29.3,56.6,29.5z"/>
		<path class="st6" d="M61,14.8c-0.5-0.6-1.4-0.9-2.1-0.5c-0.7,0.5-1,1.5-0.6,2.2c0.3,0.5,0.9,1,1.5,1.1c0.6,0.1,1,0.7,0.9,1.3
			c-0.1,0.8-0.5,1.5-1.1,2.1c-0.9,1-2.2,1.5-3.5,1.6c-1.3,0.2-2.8-0.1-3.5-1.2c-0.6-0.8-0.6-1.8-0.6-2.7c0-2.2-0.1-4.5-0.1-6.7
			c0-0.8,0-1.6,0.2-2.4c0.2-0.8,0.6-1.6,1.3-2c0.7-0.5,1.7-0.5,2.5-0.8c1.1-0.3,2-1.1,2.9-1.5c1-0.5,2.2-0.8,3.2-0.3
			c0.7,0.3,1.2,1.1,1.9,1.4c1,0.5,2.3,0.4,2.8,1.9c0.2,0.5,0.2,1.1,0,1.5c-0.7,1.9-3.1,2.7-4.9,1.9c0,0.3,0.3,1.1,0,2.1
			C61.6,14.3,61.6,14.8,61,14.8z"/>
		<path class="st6" d="M52.5,21.3c-1.7-1.6-2.8-3.9-2.9-6.3c-0.1-2.3,0.8-4.7,2.3-6.4"/>
		<path class="st11" d="M54.9,22.2c0,0,0,0-0.2,0c-0.1,0-0.3,0-0.5,0c-0.4,0-1-0.3-1.5-0.8c-0.5-0.5-0.9-1.3-1.4-2.1
			c-0.4-0.8-0.8-1.8-1-2.9c-0.3-1.1-0.3-2.1-0.3-3c0-0.9,0.3-1.8,0.5-2.5c0.2-0.7,0.5-1.2,0.7-1.5c0.1-0.2,0.2-0.3,0.3-0.4
			C51.6,9,51.6,9,51.6,9c0,0-0.5,0.8-0.9,2.1c-0.2,0.7-0.4,1.5-0.4,2.4c0,0.9,0,1.9,0.3,3c0.2,1.1,0.6,2,1,2.8
			c0.4,0.8,0.8,1.6,1.3,2.1c0.5,0.5,1,0.7,1.4,0.8C54.6,22.3,54.9,22.2,54.9,22.2z"/>
		<path class="st11" d="M51.7,8.9c0,0,0.3,0.4,0.7,1.1c0.5,0.7,1.2,1.6,2.1,2.5c0.9,0.9,1.9,1.5,2.6,1.9c0.7,0.4,1.2,0.6,1.2,0.7
			c0,0-0.1,0-0.3-0.1c-0.2-0.1-0.5-0.2-0.9-0.4c-0.7-0.4-1.7-1.1-2.6-1.9c-0.9-0.9-1.6-1.8-2-2.5c-0.2-0.3-0.4-0.7-0.5-0.9
			C51.7,9,51.7,8.9,51.7,8.9z"/>
		<path class="st11" d="M57.6,13.6c0,0-0.4-0.1-1-0.5c-0.6-0.3-1.4-0.9-2.1-1.6c-0.7-0.7-1.3-1.5-1.7-2.1c-0.3-0.6-0.5-1-0.5-1
			c0,0,0.3,0.3,0.6,0.9c0.4,0.5,0.9,1.3,1.7,2c0.7,0.7,1.5,1.3,2,1.6C57.3,13.4,57.6,13.6,57.6,13.6z"/>
		<path class="st11" d="M61.6,13.6c0,0-0.2,0-0.4,0c-0.3,0-0.6-0.1-1.2-0.2c-0.9-0.3-2.2-0.8-3.5-1.6c-1.2-0.8-2.2-1.8-2.8-2.6
			c-0.3-0.4-0.5-0.7-0.6-0.9C53,8,52.9,7.9,53,7.9c0,0,0.3,0.5,1,1.2c0.6,0.7,1.6,1.7,2.8,2.5c1.2,0.8,2.5,1.3,3.4,1.6
			C61,13.5,61.6,13.6,61.6,13.6z"/>
		<path class="st11" d="M49.2,26.2c0,0,0-0.1,0.1-0.3c0.1-0.2,0.1-0.5,0-0.8c-0.1-0.3-0.3-0.8-0.7-1.1c-0.4-0.3-0.9-0.6-1.5-1
			c-0.3-0.2-0.6-0.4-0.8-0.7c-0.2-0.3-0.4-0.7-0.4-1.1c0-0.8,0.3-1.6,0.9-2.4c0.6-0.7,1.2-1.4,1.6-2.2c0.4-0.8,0.5-1.9,0.3-2.8
			c-0.1-1-0.5-1.9-0.8-2.8c-0.3-0.9-0.7-1.8-0.9-2.6c-0.2-0.8-0.3-1.7,0-2.5c0.2-0.4,0.4-0.7,0.8-0.9c0.3-0.2,0.7-0.3,1.1-0.1
			c0.7,0.2,1.1,0.7,1.5,1.1s0.6,0.7,0.9,1c0.2,0.3,0.4,0.5,0.6,0.6c0.1,0.2,0.2,0.2,0.2,0.3c0,0-0.1-0.1-0.2-0.2
			c-0.2-0.2-0.3-0.4-0.6-0.6c-0.3-0.3-0.6-0.6-0.9-1c-0.3-0.4-0.8-0.8-1.4-1c-0.3-0.1-0.6,0-0.9,0.1c-0.3,0.2-0.6,0.5-0.7,0.8
			c-0.3,0.7-0.1,1.6,0,2.4c0.2,0.8,0.6,1.7,0.9,2.6c0.3,0.9,0.7,1.8,0.9,2.9c0.2,1,0.1,2.1-0.3,3c-0.4,0.9-1.1,1.5-1.7,2.2
			c-0.6,0.7-0.9,1.5-0.9,2.2c0,0.4,0.1,0.7,0.3,1c0.2,0.3,0.5,0.5,0.8,0.7c0.6,0.4,1.1,0.6,1.5,1c0.4,0.3,0.7,0.8,0.7,1.1
			c0.1,0.4,0,0.7-0.1,0.8C49.3,26.2,49.2,26.2,49.2,26.2z"/>
		<path class="st13" d="M42,124l2.1-2.5l-4.7-3.9l-3.1,3.6l0.3,0.3c1.2,1.1,6.4,5.7,7.5,6.2C45.2,128.1,42,124,42,124z"/>
		<g class="st20">
			<g class="st20">
				<g class="st20">
					<path class="st21" d="M38,122.6c0.3-0.5,0.3-1,0.3-1.5c-0.1-0.5-0.4-1-0.8-1.3l-1.1,1.3L38,122.6z"/>
				</g>
			</g>
		</g>
		<g class="st16">
			<g class="st16">
				<g class="st16">
					<path class="st22" d="M43.5,126.1c0,0,1.1,1.6,0.7,1.6c-0.4,0.1-5.8-4.4-7.9-6.5l0.1-0.1l6.2,5.2
						C42.6,126.3,43.2,125.9,43.5,126.1z"/>
				</g>
			</g>
		</g>
		<path class="st6" d="M36.3,121.1C36.3,121.1,36.3,121.1,36.3,121.1c0.2,0.1,0.2,0.2,0.3,0.3c0.2,0.2,0.5,0.5,0.8,0.8
			c0.7,0.6,1.7,1.5,2.8,2.4c1.1,0.9,2.1,1.7,2.9,2.3c0.3,0.3,0.6,0.5,0.9,0.7c0.1,0.1,0.2,0.1,0.3,0.2c0,0,0.1,0,0.1,0s0,0-0.1-0.1
			c-0.1,0-0.1-0.1-0.3-0.2c-0.3-0.2-0.5-0.4-0.9-0.7c-0.7-0.6-1.7-1.4-2.9-2.3c-1.1-0.9-2.1-1.8-2.8-2.4c-0.3-0.3-0.6-0.6-0.9-0.7
			C36.4,121.2,36.4,121.2,36.3,121.1C36.3,121.1,36.3,121.1,36.3,121.1z"/>
		<path class="st6" d="M42.5,126.4c0,0,0.2-0.2,0.5-0.3c0.3-0.1,0.6,0,0.6-0.1c0,0-0.3-0.1-0.6,0C42.6,126.2,42.5,126.4,42.5,126.4z
			"/>
		<path class="st6" d="M41.7,124.6c0,0,0.1,0,0.3,0c0.2,0,0.3-0.1,0.3-0.1c0,0-0.1,0-0.3,0C41.8,124.5,41.7,124.6,41.7,124.6z"/>
		<path class="st6" d="M41.5,124.1c0,0,0.1,0,0.3,0c0.1,0,0.3,0,0.3,0s-0.1,0-0.3,0C41.6,124,41.5,124.1,41.5,124.1z"/>
		<path class="st6" d="M41.6,123.4c0,0,0.1,0.1,0.2,0.3c0.1,0.1,0.3,0.2,0.3,0.2c0,0-0.1-0.1-0.2-0.3
			C41.7,123.5,41.6,123.4,41.6,123.4z"/>
		<path class="st6" d="M41.8,123c0,0,0,0.2,0.2,0.3c0.2,0.1,0.3,0.2,0.3,0.2s-0.1-0.1-0.3-0.3C41.9,123.2,41.8,123,41.8,123z"/>
		<path class="st6" d="M42.2,124.3c0,0,0.1,0.1,0.3,0.3c0.1,0.1,0.2,0.1,0.4,0.2c0.1,0,0.2,0,0.3,0.1c0,0,0.1,0,0.2,0
			c0,0,0.1-0.1,0-0.2c-0.2-0.4-0.6-0.5-0.8-0.4C42.4,124.3,42.3,124.3,42.2,124.3c0,0.1,0,0.1,0,0.1s0.1-0.1,0.3-0.1
			c0.1,0,0.3,0,0.4,0c0.1,0,0.3,0.2,0.3,0.3c0,0.1,0,0.1-0.1,0.1c-0.1,0-0.2,0-0.2-0.1c-0.1,0-0.3-0.1-0.4-0.2
			C42.3,124.4,42.2,124.3,42.2,124.3z"/>
		<path class="st6" d="M42.3,124.4c0,0,0.1,0,0.2-0.2c0-0.1,0.1-0.2,0.1-0.3s0-0.3-0.1-0.4c-0.1,0-0.2,0-0.2,0c0,0,0,0.1,0,0.2
			c0,0.1,0,0.2,0,0.3C42.2,124.3,42.3,124.4,42.3,124.4c0,0,0-0.1,0-0.3c0-0.1,0-0.2,0-0.3c0-0.1,0.1-0.3,0.2-0.2
			c0.1,0,0.1,0.2,0.1,0.3s0,0.2-0.1,0.3C42.3,124.3,42.3,124.4,42.3,124.4z"/>
		<path class="st6" d="M37.4,119.8c0,0,0.1,0.1,0.3,0.3c0.2,0.2,0.4,0.5,0.5,0.9c0.1,0.4,0,0.8-0.1,1.1c-0.1,0.3-0.2,0.4-0.2,0.4
			c0,0,0,0,0.1-0.1c0-0.1,0.1-0.2,0.2-0.3c0.1-0.3,0.2-0.7,0.1-1.1c-0.1-0.4-0.3-0.8-0.6-1c-0.1-0.1-0.2-0.2-0.3-0.2
			C37.5,119.9,37.4,119.8,37.4,119.8z"/>
		<path class="st6" d="M39.6,118.3c0,0-0.4,0.4-0.9,0.9c-0.5,0.5-0.8,1-0.8,1s0.4-0.4,0.9-0.9C39.2,118.8,39.6,118.3,39.6,118.3z"/>
		<path class="st6" d="M39,122.6c0,0,0.3,0.3,0.6,0.6c0.4,0.3,0.7,0.5,0.7,0.5c0,0-0.3-0.3-0.7-0.6C39.3,122.9,39,122.6,39,122.6z"
			/>
		<path class="st6" d="M38,121.9c0,0,0,0.1,0,0.2c0,0.1,0,0.2,0,0.2s0.1,0,0.1-0.2C38.1,121.9,38.1,121.9,38,121.9z"/>
		<path class="st6" d="M38,121.1c0,0,0,0.1,0,0.2c0,0.1,0,0.2,0,0.2s0-0.1,0-0.2C38.1,121.2,38.1,121.1,38,121.1z"/>
		<path class="st6" d="M37.7,120.5c0,0,0,0.1,0.1,0.2c0,0.1,0.1,0.2,0.1,0.2s0-0.1,0-0.2C37.8,120.5,37.7,120.5,37.7,120.5z"/>
		<path class="st6" d="M37.4,120.1C37.4,120.1,37.4,120.2,37.4,120.1c0,0.1,0,0.2,0.1,0.2C37.5,120.3,37.5,120.3,37.4,120.1
			C37.5,120.2,37.4,120.1,37.4,120.1z"/>
		<path class="st13" d="M63.6,125l-0.1-3.3l-6.1,0.1l0,4.7h0.4c1.7,0.1,8.6,0.2,9.8-0.1C68.8,126.1,63.6,125,63.6,125z"/>
		<g class="st20">
			<g class="st20">
				<g class="st20">
					<path class="st21" d="M59.7,126.5c-0.1-0.5-0.4-1-0.8-1.3c-0.4-0.3-0.9-0.5-1.5-0.4l0,1.7H59.7z"/>
				</g>
			</g>
		</g>
		<g class="st16">
			<g class="st16">
				<g class="st16">
					<path class="st22" d="M66.2,125.6c0,0,1.8,0.5,1.6,0.8s-7.2,0.4-10.3,0.2v-0.1l8.2,0C65.6,126.4,65.8,125.7,66.2,125.6z"/>
				</g>
			</g>
		</g>
		<path class="st6" d="M57.4,126.5C57.4,126.5,57.4,126.5,57.4,126.5c0.2,0,0.3,0,0.4,0c0.3,0,0.7,0,1.1,0c0.9,0,2.3,0,3.7,0
			c1.5,0,2.7-0.1,3.7-0.1c0.4,0,0.8,0,1.1,0c0.1,0,0.2,0,0.3,0c0.1,0,0.1,0,0.1,0s0,0-0.1,0c-0.1,0-0.2,0-0.3,0c-0.3,0-0.7,0-1.1,0
			c-0.9,0-2.3,0.1-3.7,0.1c-1.5,0-2.7,0-3.7,0c-0.4,0-0.8,0-1.1,0C57.6,126.4,57.5,126.4,57.4,126.5
			C57.4,126.5,57.4,126.5,57.4,126.5z"/>
		<path class="st6" d="M65.6,126.5c0,0,0-0.3,0.2-0.5c0.2-0.3,0.4-0.4,0.4-0.4s-0.3,0.1-0.4,0.4C65.6,126.2,65.6,126.5,65.6,126.5z"
			/>
		<path class="st6" d="M63.8,125.6c0,0,0.1-0.1,0.2-0.3c0.1-0.1,0.1-0.3,0.1-0.3s-0.1,0.1-0.2,0.3C63.8,125.5,63.8,125.6,63.8,125.6
			z"/>
		<path class="st6" d="M63.3,125.4c0,0,0.1,0,0.2-0.1c0.1-0.1,0.2-0.2,0.2-0.2c0,0-0.1,0-0.2,0.1C63.4,125.3,63.3,125.4,63.3,125.4z
			"/>
		<path class="st6" d="M63,124.8c0,0,0.1,0,0.3,0c0.2,0,0.3,0,0.3,0c0,0-0.1,0-0.3,0C63.1,124.8,63,124.8,63,124.8z"/>
		<path class="st6" d="M62.9,124.4c0,0,0.2,0.1,0.3,0.1c0.2,0,0.4,0,0.4,0s-0.2,0-0.4,0C63,124.4,62.9,124.4,62.9,124.4z"/>
		<path class="st6" d="M64,125.1c0,0,0.2,0,0.4,0c0.1,0,0.3,0,0.4-0.1c0.1,0,0.2,0,0.3-0.1c0,0,0.1,0,0.1-0.1c0,0,0-0.1,0-0.2
			c-0.4-0.2-0.8,0-0.9,0.2C64.1,124.9,64.1,125.1,64,125.1C64.1,125.2,64.1,125.2,64,125.1c0.1,0.1,0.1-0.1,0.3-0.3
			c0.1-0.1,0.2-0.2,0.3-0.2c0.1,0,0.3,0,0.5,0c0,0,0,0.1,0,0.2c-0.1,0-0.1,0.1-0.2,0.1c-0.1,0-0.3,0.1-0.4,0.1
			C64.2,125.1,64,125.1,64,125.1z"/>
		<path class="st6" d="M64.1,125.1c0,0,0-0.1,0-0.3c0-0.1,0-0.2-0.1-0.3c-0.1-0.1-0.2-0.2-0.3-0.2c-0.1,0-0.1,0.1-0.1,0.2
			c0,0.1,0,0.1,0.1,0.2c0,0.1,0.1,0.2,0.2,0.3C64,125.1,64.1,125.1,64.1,125.1c0,0-0.1-0.1-0.2-0.2c0,0-0.1-0.1-0.2-0.2
			c0-0.1-0.1-0.2,0-0.3c0.1,0,0.2,0.1,0.3,0.2c0,0.1,0.1,0.2,0.1,0.3C64.1,125,64.1,125.1,64.1,125.1z"/>
		<path class="st6" d="M57.5,124.8c0,0,0.2,0,0.5,0c0.3,0,0.6,0.1,1,0.4c0.3,0.3,0.6,0.6,0.6,0.8c0.1,0.3,0.1,0.4,0.1,0.4s0,0,0-0.1
			c0-0.1,0-0.2-0.1-0.3c-0.1-0.3-0.3-0.6-0.6-0.9c-0.3-0.3-0.8-0.4-1-0.4c-0.1,0-0.3,0-0.3,0C57.5,124.8,57.5,124.8,57.5,124.8z"/>
		<path class="st6" d="M58.1,122.3c0,0,0,0.5,0,1.3c0,0.7,0,1.3,0,1.3c0,0,0-0.5,0-1.3C58.1,122.8,58.1,122.3,58.1,122.3z"/>
		<path class="st6" d="M60.4,125.9c0,0,0.4,0.1,0.9,0.1c0.5,0,0.9-0.1,0.9-0.1c0,0-0.4,0-0.9,0C60.9,125.9,60.4,125.9,60.4,125.9z"
			/>
		<path class="st6" d="M59.2,126c0,0,0,0.1,0.1,0.2c0,0.1,0.1,0.2,0.1,0.2s0-0.1,0-0.2C59.3,126,59.2,125.9,59.2,126z"/>
		<path class="st6" d="M58.8,125.4c0,0,0,0.1,0.1,0.1c0.1,0,0.1,0.1,0.1,0.1s0-0.1-0.1-0.1C58.9,125.4,58.8,125.4,58.8,125.4z"/>
		<path class="st6" d="M58.1,125.2c0,0,0.1,0,0.2,0c0.1,0,0.2,0.1,0.2,0c0,0,0-0.1-0.2-0.1C58.2,125.1,58.1,125.1,58.1,125.2z"/>
		<path class="st6" d="M57.7,125C57.7,125,57.7,125.1,57.7,125c0.1,0.1,0.2,0.1,0.2,0.1S57.8,125.1,57.7,125
			C57.7,125,57.7,125,57.7,125z"/>
		<path class="st6" d="M54.7,56.1c0,0-2,8.6-1.5,10.3c0.6,1.7,4.3,2.7,4.3,2.7l-0.1,23.4l-20.7,25.4l7.6,6.2c0,0,22.4-25.4,24.4-30
			c2-4.6-1.3-38.3-1.3-38.3L54.7,56.1z"/>
		<path class="st6" d="M65.3,52.6l1,71.2l-10.5,0L49,67c-1-3.4-2.2-6.9-2-10.9l1.4-4.1L65.3,52.6z"/>
		<path class="st11" d="M53.1,63.5c0,0,0.1,0.1,0.3,0.2c0.2,0.1,0.4,0.4,0.6,0.7c0.6,0.6,1.3,1.5,2.3,2.6v0c0.2,3.2,0.6,7.9,1,13
			c0.4,4.2,0.7,8.1,1,11.1v0v0c-1.2,1.6-2.2,3-2.9,3.9c-0.3,0.5-0.6,0.8-0.8,1.1c-0.1,0.1-0.2,0.2-0.2,0.3c0,0-0.1,0.1-0.1,0.1
			s0,0,0-0.1c0-0.1,0.1-0.2,0.2-0.3c0.2-0.3,0.5-0.6,0.8-1.1c0.7-1,1.7-2.3,2.9-3.9v0c-0.3-3-0.6-6.8-1-11c-0.5-5.2-0.8-9.8-0.9-13
			v0c-0.9-1.1-1.7-2-2.2-2.7c-0.3-0.3-0.5-0.5-0.6-0.7C53.2,63.6,53.1,63.5,53.1,63.5z"/>
		<path class="st11" d="M64.7,91.3c0,0.1-1.2-0.6-2.9-0.7c-1.6-0.1-2.9,0.3-2.9,0.3c0,0,0.3-0.2,0.8-0.3c0.5-0.1,1.3-0.3,2.1-0.2
			c0.9,0.1,1.6,0.3,2,0.5C64.4,91.1,64.7,91.3,64.7,91.3z"/>
		<path class="st11" d="M68.4,94.6c0,0-2.9,4-6.6,8.8c-3.7,4.8-6.7,8.7-6.8,8.7c0,0,2.9-4,6.6-8.8C65.3,98.5,68.3,94.6,68.4,94.6z"
			/>
		<path class="st11" d="M67.9,57.9c0,0-0.1,0.4-0.6,0.8C66.8,59,66,59.5,65,59.4c-1-0.1-1.7-0.7-2-1.1c-0.4-0.5-0.4-0.9-0.4-0.9
			c0,0,0.2,0.3,0.6,0.8c0.4,0.4,1.1,0.9,2,1.1c0.9,0.1,1.7-0.3,2.1-0.6C67.6,58.2,67.8,57.8,67.9,57.9z"/>
		<path class="st19" d="M45.2,37.3c0,0-1.6,11.6,0,13.1c1.6,1.5,3.1,1,3.1,1l3-2.5l0.6-11.5L45.2,37.3L45.2,37.3z"/>
		<path class="st23" d="M46.6,27.9c0,0-2.3,2.6-2.8,12.3c0,0,6.5,1.2,6.7,0.9C50.6,40.7,46.6,27.9,46.6,27.9z"/>
		<path class="st23" d="M47,56.1l20.7,0.3l-0.3-3.1c0,0-2.3-11.8-2.3-11.9l0.3-0.8c0.9-2,1.1-4,0.2-6h10.1l-0.4-8.1L64.7,25
			l-3.9-0.3c0,0-7,0.3-7.1,0.4c-2.9,0.3-6.3,0.5-7.5,3.6c-0.6,1.6,0,4.1,1,6.7l2.6,7.8c1,4.3-0.6,4.1-1.5,8.4
			C48.1,52.3,46.9,55.5,47,56.1z"/>
		<path class="st5" d="M74.1,27c0,0-5.9,0.1-13.2,0.1c-7.3,0-13.2,0-13.2-0.1s5.9-0.1,13.2-0.1C68.2,26.8,74.1,26.9,74.1,27z"/>
		<path class="st5" d="M74.7,30.8c0,0-6.6,0.1-14.7,0.1c-8.1,0-14.7,0-14.7-0.1c0,0,6.6-0.1,14.7-0.1S74.7,30.8,74.7,30.8z"/>
		<path class="st5" d="M47,35.2c0,0-0.6,0.1-1.2,0.1c-0.7,0-1.2,0-1.2-0.1c0,0,0.6-0.1,1.2-0.1C46.4,35.2,47,35.2,47,35.2z"/>
		<path class="st5" d="M66.2,35.4c0,0-4.3,0.1-9.6,0.1c-5.3,0-9.6,0-9.6-0.1s4.3-0.1,9.6-0.1C61.8,35.3,66.2,35.3,66.2,35.4z"/>
		<path class="st5" d="M65.7,40c0,0-3.9,0.1-8.6,0.1c-4.8,0-8.6,0-8.6-0.1c0,0,3.9-0.1,8.6-0.1C61.9,39.8,65.7,39.9,65.7,40z"/>
		<path class="st5" d="M65.6,44.2c0,0-3.5,0.1-7.8,0.1s-7.8,0-7.8-0.1c0,0,3.5-0.1,7.8-0.1S65.6,44.1,65.6,44.2z"/>
		<path class="st5" d="M66.3,47.6c0,0-3.8,0.1-8.4,0.1s-8.4,0-8.4-0.1c0,0,3.8-0.1,8.4-0.1C62.6,47.5,66.3,47.5,66.3,47.6z"/>
		<path class="st5" d="M67.4,52c0,0-4.3,0.1-9.5,0.1s-9.5,0-9.5-0.1c0,0,4.3-0.1,9.5-0.1S67.4,51.9,67.4,52z"/>
		<path class="st6" d="M49.7,42.8c0,0-0.1-0.1-0.2-0.4c-0.1-0.3-0.3-0.7-0.4-1.1c-0.3-0.9-0.9-2.2-1.4-3.6c-0.5-1.4-0.9-2.7-1.2-3.6
			c-0.1-0.5-0.2-0.8-0.3-1.1c0-0.3-0.1-0.4-0.1-0.4c0,0,0.2,0.6,0.5,1.5c0.3,0.9,0.8,2.2,1.3,3.6c0.5,1.4,1,2.7,1.3,3.6
			c0.2,0.5,0.3,0.8,0.3,1.1C49.6,42.7,49.7,42.8,49.7,42.8z"/>
		<path class="st6" d="M60.6,38.9c0,0,0,0,0,0.2s0,0.3,0,0.5c0,0.4-0.1,1-0.3,1.7c-0.3,1.4-1.1,3.4-2.6,5.2
			c-1.5,1.7-3.2,2.9-4.6,3.5c-0.7,0.3-1.3,0.5-1.7,0.6c-0.2,0-0.3,0.1-0.5,0.1c-0.1,0-0.2,0-0.2,0c0,0,0.2-0.1,0.6-0.2
			c0.4-0.1,0.9-0.3,1.6-0.6c1.3-0.6,3.1-1.7,4.5-3.5c1.5-1.7,2.2-3.6,2.6-5c0.2-0.7,0.3-1.3,0.3-1.7C60.6,39.1,60.6,38.9,60.6,38.9z
			"/>
		<path class="st24" d="M79.7,7.1c0,0,0-0.2-0.1-0.6s0-1,0.1-1.7c0.1-0.4,0.2-0.8,0.4-1.2c0.2-0.4,0.4-0.9,0.7-1.3
			c0.6-0.9,1.6-1.8,2.9-2.4c0.6-0.3,1.4-0.5,2.2-0.6c0.8-0.1,1.6-0.1,2.5,0c1.7,0.3,3.5,1.2,5,2.6c0.7,0.7,1.4,1.6,1.9,2.5
			s0.9,2,1.1,3.2c0.2,1.1,0.2,2.3-0.1,3.5c-0.1,0.6-0.3,1.2-0.6,1.7c-0.3,0.5-0.6,1.1-1.1,1.6c-0.9,0.9-2,1.6-3.3,2
			c-1.3,0.4-2.7,0.5-4.1,0.4c-1.4-0.1-2.8-0.3-4.2-0.8c-1.4-0.5-2.7-1.3-3.6-2.5c-0.9-1.2-1.4-2.7-1.4-4.3c0-0.8,0.1-1.6,0.3-2.3
			c0.2-0.8,0.6-1.5,1-2.2c0.4-0.7,0.9-1.3,1.5-1.9c0.6-0.5,1.3-1.1,2-1.4c0.7-0.4,1.5-0.7,2.3-0.8c0.8-0.2,1.7-0.2,2.5-0.1
			c3.4,0.3,6.7,2.6,8.1,5.9c0.7,1.6,0.9,3.5,0.5,5.3c-0.2,0.9-0.6,1.7-1.2,2.5c-0.6,0.7-1.3,1.4-2.1,1.8c-0.8,0.4-1.7,0.7-2.7,0.8
			c-0.9,0.1-1.9,0-2.8-0.1c-1.8-0.3-3.6-1.2-5-2.6c-0.7-0.7-1.3-1.4-1.7-2.3c-0.4-0.9-0.6-1.9-0.6-2.8c0.1-1.9,1.2-3.8,2.6-5.1
			c1.5-1.3,3.3-2.2,5.3-2.3c1-0.1,2,0,2.9,0.3c0.5,0.1,0.9,0.3,1.4,0.5c0.4,0.2,0.9,0.5,1.2,0.8c0.8,0.5,1.4,1.3,1.9,2.1
			C95.8,5.6,96,6,96.2,6.5c0.1,0.2,0.1,0.5,0.2,0.7c0,0.3,0.1,0.5,0.1,0.7c0.2,1.9-0.3,3.8-1.5,5.3c-1.1,1.5-2.8,2.5-4.5,3
			c-1.7,0.5-3.7,0.3-5.3-0.3c-3.4-1.2-6-4.2-6.5-7.5c-0.3-1.7,0-3.4,0.9-4.9c0.8-1.4,2.1-2.6,3.5-3.3c1.5-0.8,3-1.1,4.6-1.1
			c1.6,0,3.1,0.3,4.5,0.8c2.8,1.1,5.2,3.2,6.2,5.8s0.7,5.5-0.7,7.7c-0.7,1.1-1.6,2-2.7,2.6c-1.1,0.6-2.3,0.9-3.4,1.1
			c-2.3,0.3-4.5-0.4-6.3-1.3c-1.8-0.9-3.4-2.1-4.5-3.4c-1.1-1.3-1.8-2.8-2.1-4.2c-0.3-1.4,0-2.7,0.4-3.7c0.4-1,1-1.8,1.6-2.3
			c0.6-0.5,1.1-0.8,1.5-0.9C82.4,1,82.6,1,82.6,1s0,0-0.1,0c-0.1,0-0.2,0.1-0.4,0.2c-0.3,0.2-0.9,0.4-1.4,0.9
			c-0.6,0.5-1.2,1.3-1.5,2.3c-0.4,1-0.6,2.3-0.4,3.7c0.3,1.4,0.9,2.9,2.1,4.2c1.1,1.3,2.6,2.5,4.5,3.4c1.8,0.9,4,1.5,6.3,1.3
			c1.2-0.1,2.3-0.5,3.4-1.1c1.1-0.6,2-1.4,2.6-2.5c1.3-2.2,1.7-5,0.6-7.6c-1-2.6-3.3-4.7-6.1-5.7c-1.4-0.5-2.9-0.8-4.5-0.8
			c-1.5,0-3.1,0.4-4.5,1.1c-1.4,0.7-2.6,1.9-3.5,3.3c-0.8,1.4-1.1,3.1-0.8,4.8c0.6,3.3,3.1,6.3,6.4,7.4c1.7,0.6,3.5,0.7,5.2,0.3
			c1.7-0.5,3.4-1.4,4.4-2.9c1.1-1.4,1.6-3.3,1.5-5.2c0-0.2-0.1-0.5-0.1-0.7c0-0.2-0.1-0.5-0.2-0.7c-0.1-0.4-0.3-0.8-0.6-1.3
			c-0.5-0.8-1.1-1.5-1.9-2.1c-1.5-1.1-3.5-1.7-5.4-1.5c-1.9,0.2-3.8,1-5.2,2.3c-1.4,1.3-2.4,3.1-2.6,4.9c0,0.9,0.1,1.9,0.6,2.7
			c0.4,0.8,0.9,1.6,1.6,2.3c1.4,1.3,3.1,2.2,4.9,2.5c0.9,0.2,1.8,0.2,2.8,0.1c0.9-0.1,1.8-0.3,2.6-0.8c0.8-0.4,1.5-1,2-1.7
			c0.6-0.7,0.9-1.6,1.1-2.4c0.4-1.7,0.2-3.5-0.5-5.2c-1.4-3.2-4.6-5.5-7.9-5.8c-0.9-0.1-1.7,0-2.5,0.1c-0.8,0.2-1.6,0.5-2.3,0.8
			c-0.7,0.4-1.4,0.9-2,1.4c-0.6,0.5-1.1,1.2-1.5,1.9c-0.4,0.7-0.7,1.4-1,2.2c-0.2,0.8-0.3,1.5-0.3,2.3c0,1.5,0.5,3,1.4,4.2
			c0.9,1.2,2.2,2,3.5,2.5c1.4,0.5,2.8,0.7,4.2,0.8c1.4,0.1,2.8,0,4.1-0.4c1.3-0.4,2.4-1.1,3.3-2c0.4-0.5,0.8-1,1.1-1.5
			c0.3-0.5,0.5-1.1,0.6-1.7c0.3-1.2,0.3-2.4,0.1-3.5c-0.3-2.2-1.5-4.2-2.9-5.6c-1.4-1.4-3.2-2.3-4.9-2.6c-0.9-0.1-1.7-0.2-2.5,0
			C85.4-0.3,84.6,0,84,0.3c-1.3,0.5-2.3,1.4-2.9,2.3c-0.3,0.4-0.6,0.9-0.7,1.3c-0.2,0.4-0.3,0.8-0.4,1.2c-0.2,0.7-0.2,1.3-0.1,1.7
			c0,0.2,0,0.3,0,0.4C79.7,7.1,79.7,7.1,79.7,7.1z"/>
		<path class="st24" d="M92.1,5.5c0,0-2,0.7-4.6,1.5c-2.6,0.8-4.7,1.4-4.7,1.4c0,0,2-0.7,4.6-1.5C90.1,6,92.1,5.4,92.1,5.5z"/>
		<path class="st24" d="M92.7,7c0,0-1.9,0.7-4.3,1.6C86,9.3,84.1,10,84.1,9.9c0,0,1.9-0.7,4.3-1.6S92.7,6.9,92.7,7z"/>
		<path class="st24" d="M89.2,10c0,0.1-0.9,0.5-2.1,0.9c-0.6,0.2-1.2,0.4-1.6,0.5c-0.4,0.1-0.6,0.2-0.7,0.2c0,0,0.2-0.1,0.6-0.3
			c0.4-0.2,0.9-0.3,1.5-0.5c0.6-0.2,1.2-0.4,1.6-0.5C88.9,10.1,89.2,10,89.2,10z"/>
		<path class="st19" d="M91.9,12.8c0,0-2-0.9-2-0.4c-0.1,0.5,0,0.7,0.4,0.8c0.4,0.1,1.5,0.5,1.5,0.5L91.9,12.8z"/>
		<path class="st25" d="M91.8,13.6c0,0-2-0.9-2-0.4c-0.1,0.5,0,0.7,0.4,0.8c0.4,0.1,1.5,0.5,1.5,0.5L91.8,13.6z"/>
		<path class="st19" d="M87.3,15.6l-7.4,9.6c-1.1,1.6-2.7,2.3-3.8,2.4l-0.7,0l0.3,6.5l2.9-0.3c1.8-0.2,3.5-1.3,4.4-2.9l7.6-12.9
			c0,0,0.9-1.5,1.3-2.6c0.4-1.1,0-2.8,0-2.8l-3,1.9v-2c0,0-0.3-0.1-0.9,0.5C87.4,13.6,87.3,15.6,87.3,15.6z"/>
		<path class="st11" d="M88.9,11.7l0,7.1c0,0.3,0.3,0.6,0.6,0.6c0.3,0,0.6-0.3,0.6-0.6v-7.2l-0.7-1.1L88.9,11.7z"/>
		<path class="st6" d="M89.4,10.6L89.2,11l0.4,0L89.4,10.6z"/>
		<path class="st6" d="M90.1,11.7c0,0-0.3,0.2-0.6,0.2s-0.6-0.1-0.6-0.1c0,0,0.3,0,0.6,0C89.8,11.7,90,11.6,90.1,11.7z"/>
		<path class="st6" d="M89.4,19.4c0,0,0-0.1,0-0.3c0-0.3,0-0.5,0-0.8c0-0.8,0-1.7,0-2.7c0-1,0-1.9,0-2.7c0-0.3,0-0.5,0-0.8
			c0-0.2,0-0.3,0-0.3s0,0.1,0,0.3c0,0.3,0,0.5,0,0.8c0,0.8,0,1.7,0,2.7c0,1,0,1.9,0,2.7c0,0.3,0,0.5,0,0.8
			C89.4,19.3,89.4,19.4,89.4,19.4z"/>
		<path class="st26" d="M29.8,97.9c1.5,0.5,3.4,0.1,4.7-0.8c1.3-0.9,2.2-2.2,3-3.6c0.3-0.6,0.7-1.2,0.8-1.8c0.1-0.6-0.1-1.4-0.6-1.8
			c-0.8-0.7-2-0.3-2.9,0.2C31.9,91.6,30,94.7,29.8,97.9z"/>
		<path class="st26" d="M31.4,101.4c0.9,1.2,2.4,1.7,3.9,1.8c1.5,0.1,2.9-0.3,4.3-0.8c0.5-0.2,1-0.4,1.2-1c0.1-0.4,0-0.8-0.3-1.1
			c-0.3-0.3-0.6-0.5-1-0.7c-1.4-0.6-2.9-0.6-4.3-0.2C33.8,99.7,32.5,100.5,31.4,101.4z"/>
		<path class="st26" d="M29.8,91.6c1.2,0,2.2-1,2.7-2.1c0.8-1.5,1-3.2,0.7-4.9c-0.1-0.6-0.3-1.3-0.9-1.6c-0.6-0.3-1.3-0.1-1.8,0.3
			c-0.5,0.4-0.7,1.1-0.9,1.7C28.9,87.1,29.1,89.5,29.8,91.6z"/>
		<path class="st26" d="M25.7,98.4c2.1-3.5,2.4-7.8,1.2-11.7c-0.2-0.6-0.6-1.4-1.2-1.4c-0.7-0.1-1.2,0.8-1.4,1.5
			c-0.7,2.5-0.6,5.1-0.4,7.7C24,96,24.5,97.3,25.7,98.4z"/>
		<path class="st26" d="M23.6,99.8c-0.8-2.4-2.7-4.4-5.1-5.3c-0.5-0.2-1.3-0.3-1.7,0.1c-0.4,0.4-0.3,1.1,0,1.6
			c0.4,0.8,1.1,1.5,1.8,2.1c0.6,0.6,1.3,1.2,2.1,1.5C21.4,100.2,22.8,100.3,23.6,99.8z"/>
		<path class="st6" d="M36.5,90.7C36.5,90.7,36.5,90.7,36.5,90.7c-0.1,0.1-0.1,0.1-0.1,0.1c-0.1,0.1-0.3,0.2-0.4,0.3
			c-0.1,0.1-0.2,0.2-0.3,0.2c-0.1,0.1-0.2,0.2-0.4,0.3c-0.3,0.2-0.6,0.4-0.9,0.7c-0.2,0.1-0.3,0.3-0.5,0.4c-0.2,0.2-0.3,0.3-0.5,0.5
			c-0.4,0.3-0.7,0.7-1.1,1.2c-0.7,0.8-1.5,1.8-2.2,2.9c-0.7,1.1-1.2,2.2-1.7,3.2c-0.2,0.5-0.4,1-0.6,1.5c-0.1,0.2-0.2,0.5-0.2,0.7
			c-0.1,0.2-0.1,0.4-0.2,0.6c-0.1,0.4-0.2,0.8-0.3,1.1c0,0.2-0.1,0.3-0.1,0.5c0,0.1-0.1,0.3-0.1,0.4c-0.1,0.2-0.1,0.4-0.1,0.5
			c0,0.1,0,0.1,0,0.1s0,0.1,0,0.1s0,0,0-0.1s0-0.1,0-0.1c0-0.1,0.1-0.3,0.1-0.5c0-0.1,0-0.3,0.1-0.4c0-0.1,0.1-0.3,0.1-0.5
			c0.1-0.3,0.1-0.7,0.3-1.1c0.1-0.2,0.1-0.4,0.2-0.6c0.1-0.2,0.2-0.4,0.2-0.7c0.2-0.5,0.3-1,0.5-1.5c0.4-1,1-2.1,1.7-3.2
			c0.7-1.1,1.4-2.1,2.2-2.9c0.4-0.4,0.7-0.8,1.1-1.2c0.2-0.2,0.3-0.3,0.5-0.5c0.2-0.2,0.3-0.3,0.5-0.4c0.3-0.3,0.6-0.5,0.9-0.7
			c0.1-0.1,0.3-0.2,0.4-0.3c0.1-0.1,0.2-0.2,0.3-0.2c0.2-0.1,0.3-0.2,0.4-0.3C36.4,90.8,36.4,90.8,36.5,90.7
			C36.5,90.7,36.5,90.7,36.5,90.7z"/>
		<path class="st6" d="M39.3,100.5c0,0-0.1,0-0.2,0c-0.1,0-0.2-0.1-0.4-0.1c-0.4-0.1-0.9-0.2-1.5-0.2c-1.3-0.1-3.1,0.1-4.9,0.8
			c-1.8,0.7-3.2,1.9-4.1,2.9c-0.4,0.5-0.7,0.9-0.9,1.2c-0.1,0.2-0.2,0.3-0.2,0.3c-0.1,0.1-0.1,0.1-0.1,0.1s0-0.1,0.1-0.1
			c0.1-0.1,0.1-0.2,0.2-0.4c0.2-0.3,0.5-0.7,0.9-1.2c0.8-1,2.2-2.2,4.1-2.9c1.8-0.7,3.7-0.9,5-0.8c0.7,0.1,1.2,0.1,1.5,0.2
			c0.2,0,0.3,0.1,0.4,0.1C39.3,100.5,39.3,100.5,39.3,100.5z"/>
		<path class="st6" d="M31.6,84.4C31.6,84.4,31.6,84.5,31.6,84.4c0,0.1,0,0.2,0,0.2c0,0.2-0.1,0.4-0.1,0.6c-0.1,0.5-0.3,1.3-0.5,2.2
			c-0.5,1.9-1.1,4.5-1.8,7.3c-0.3,1.4-0.6,2.8-0.9,4c-0.3,1.2-0.5,2.4-0.7,3.3c-0.1,0.5-0.2,0.9-0.2,1.3c-0.1,0.4-0.1,0.7-0.2,1
			c-0.1,0.3-0.1,0.5-0.1,0.6c0,0.1,0,0.1,0,0.2s0,0.1,0,0.1s0,0,0-0.1c0-0.1,0-0.1,0-0.2c0-0.2,0.1-0.4,0.1-0.6c0-0.3,0.1-0.6,0.1-1
			c0.1-0.4,0.1-0.8,0.2-1.3c0.2-1,0.4-2.1,0.6-3.3c0.3-1.3,0.6-2.6,0.9-4c0.7-2.9,1.4-5.4,1.8-7.3c0.2-0.9,0.4-1.7,0.6-2.2
			c0.1-0.3,0.1-0.5,0.2-0.6C31.6,84.6,31.6,84.6,31.6,84.4C31.6,84.4,31.6,84.4,31.6,84.4z"/>
		<path class="st6" d="M26.8,105C26.8,105,26.8,104.9,26.8,105c0-0.1-0.1-0.1-0.1-0.2c0-0.1-0.1-0.3-0.1-0.5
			c-0.1-0.4-0.2-1.1-0.3-1.8c-0.3-1.5-0.6-3.7-0.8-6c-0.1-1.2-0.2-2.3-0.2-3.3c0-1,0-2,0-2.7c0-0.4,0-0.7,0.1-1.1
			c0-0.3,0-0.6,0.1-0.8c0-0.2,0-0.4,0.1-0.5c0-0.1,0-0.1,0-0.1c0,0,0-0.1,0-0.1s0,0,0,0.1c0,0,0,0.1,0,0.1c0,0.1,0,0.3,0,0.5
			c0,0.2,0,0.5-0.1,0.8c0,0.3,0,0.7,0,1.1c0,0.8,0,1.7,0,2.7c0,1,0.1,2.2,0.2,3.3c0.2,2.4,0.5,4.5,0.8,6c0.1,0.8,0.2,1.4,0.3,1.8
			c0,0.2,0.1,0.4,0.1,0.5C26.7,104.9,26.8,104.9,26.8,105C26.8,105,26.8,105,26.8,105z"/>
		<path class="st6" d="M26.9,105.4c0,0,0-0.1-0.1-0.1c0-0.1-0.1-0.2-0.1-0.4c0-0.1-0.1-0.2-0.1-0.3c-0.1-0.1-0.1-0.2-0.1-0.3
			c-0.1-0.1-0.1-0.2-0.2-0.3c-0.1-0.1-0.1-0.2-0.2-0.4c-0.1-0.1-0.1-0.3-0.2-0.4c-0.1-0.1-0.2-0.3-0.3-0.4c-0.2-0.3-0.4-0.6-0.6-0.9
			c-0.4-0.6-1-1.3-1.6-2c-0.6-0.7-1.2-1.3-1.8-1.8c-0.3-0.3-0.6-0.5-0.9-0.7c-0.1-0.1-0.3-0.2-0.4-0.3c-0.1-0.1-0.3-0.2-0.4-0.3
			c-0.2-0.2-0.5-0.3-0.6-0.5c-0.2-0.1-0.4-0.2-0.5-0.3c-0.1-0.1-0.2-0.2-0.3-0.2c-0.1-0.1-0.1-0.1-0.1-0.1s0.1,0,0.1,0.1
			c0.1,0.1,0.2,0.1,0.3,0.2c0.2,0.1,0.3,0.2,0.5,0.3s0.4,0.3,0.7,0.4c0.1,0.1,0.3,0.2,0.4,0.3c0.1,0.1,0.3,0.2,0.4,0.3
			c0.3,0.2,0.6,0.5,0.9,0.7c0.6,0.5,1.2,1.1,1.8,1.8c0.6,0.7,1.1,1.4,1.6,2c0.2,0.3,0.4,0.6,0.6,1c0.1,0.2,0.2,0.3,0.3,0.4
			c0.1,0.2,0.1,0.3,0.2,0.4c0.1,0.1,0.1,0.3,0.2,0.4s0.1,0.2,0.2,0.3c0.1,0.1,0.1,0.2,0.1,0.3c0,0.1,0.1,0.2,0.1,0.3
			c0.1,0.2,0.1,0.3,0.1,0.4C26.9,105.4,26.9,105.4,26.9,105.4z"/>
		<path class="st6" d="M35.8,94.8c0,0-0.3,0-0.7,0c-0.4,0-1,0.1-1.6,0.2c-0.6,0.1-1.1,0.3-1.5,0.4c-0.4,0.1-0.6,0.2-0.6,0.2
			s0.1,0,0.2-0.1c0.1-0.1,0.3-0.1,0.4-0.2c0.4-0.2,0.9-0.3,1.5-0.4c0.6-0.1,1.2-0.2,1.6-0.2c0.2,0,0.4,0,0.5,0
			C35.7,94.8,35.8,94.8,35.8,94.8z"/>
		<path class="st6" d="M37.3,102.5c0,0-0.3-0.7-0.9-1.3c-0.6-0.6-1.2-0.9-1.2-1c0,0,0.2,0.1,0.4,0.2c0.3,0.1,0.6,0.4,0.9,0.7
			c0.3,0.3,0.5,0.7,0.6,0.9C37.3,102.3,37.4,102.5,37.3,102.5z"/>
		<path class="st6" d="M31.9,87.3c0,0-0.4,0.4-0.8,0.9c-0.4,0.5-0.7,1-0.8,1c0,0,0.2-0.5,0.7-1S31.9,87.3,31.9,87.3z"/>
		<path class="st6" d="M30.7,85.1c0,0,0.1,0.4,0.2,0.8c0.1,0.5,0.1,0.8,0.1,0.8c0,0-0.1-0.4-0.2-0.8C30.7,85.5,30.7,85.1,30.7,85.1z
			"/>
		<path class="st6" d="M26.8,91.9c0,0-0.3,0.6-0.6,1.3s-0.7,1.2-0.7,1.2c0,0,0.3-0.6,0.6-1.3C26.4,92.4,26.7,91.9,26.8,91.9z"/>
		<path class="st6" d="M24.5,89.6c0,0,0.3,0.4,0.5,0.9c0.3,0.5,0.5,1,0.4,1c0,0-0.3-0.4-0.5-0.9C24.6,90,24.4,89.6,24.5,89.6z"/>
		<path class="st6" d="M21,97.5c0,0-0.4-0.1-0.9-0.1c-0.5,0-0.9,0-0.9-0.1c0,0,0.4-0.1,1-0.1C20.6,97.3,21,97.5,21,97.5z"/>
		<path class="st27" d="M23.4,104.4l1.2,6c0.1,0.4,0.4,0.7,0.8,0.7h3.4c0.4,0,0.8-0.3,0.9-0.7l1-6L23.4,104.4L23.4,104.4z"/>
		<path class="st12" d="M23.7,106.4h6.6l0.4-2h-7.3L23.7,106.4z"/>
		<path class="st5" d="M23.7,106.4l0.2,0.7h6.3l0.1-0.7H23.7z"/>
	</g>
</g>
</svg>
