<svg id="Layer_1" data-name="Layer 1" xmlns="http://www.w3.org/2000/svg" viewBox="0 0 166.34 172.82"><defs><style>.cls-1{fill:#e0e0e0;}.cls-2{fill:#ebebeb;}.cls-3,.cls-4{fill:#3d3d3d;}.cls-3{fill-opacity:0.62;}.cls-5{fill:#f98188;}.cls-6{opacity:0.4;}.cls-10,.cls-11,.cls-13,.cls-6,.cls-7,.cls-8{isolation:isolate;}.cls-7{opacity:0.5;}.cls-8{opacity:0.3;}.cls-9{fill:#f97777;}.cls-10{opacity:0.25;}.cls-11{opacity:0.15;}.cls-12{fill:#fafafa;}.cls-13{opacity:0.1;}.cls-14{fill:#263238;}.cls-15{fill:#ffa8a7;}.cls-16{fill:#37474f;}.cls-17{fill:#455a64;}.cls-18{fill:#90a8b4;}.cls-19{fill:#f28f8f;}.cls-20{fill:#b16668;}.cls-21{fill:#b0b0b0;}</style></defs><path class="cls-1" d="M62.62,169.36l4.47-2.56L26.31,143.25l14.16-8.19,40.82,23.55,3.53-2.05L86,170.1Z" transform="translate(-14 0)"/><path class="cls-1" d="M139.25,144.45l4.5-2.6L85.13,107.94l14.31-8.22,58.63,33.87,3.53-2.06,1.24,13.62Z" transform="translate(-14 0)"/><path class="cls-1" d="M119.62,172.82,34.69,124l29-16.69,84.93,48.89Z" transform="translate(-14 0)"/><path class="cls-2" d="M108.29,38.45,111,40c0-.11,0-.23,0-.35v-.77c0-1.4,1-1.94,2.17-1.24a3.78,3.78,0,0,1,1.28,1.24c.2-1.75,1.55-2.41,3.22-1.44a7.25,7.25,0,0,1,3.26,5.63v1.16a3.46,3.46,0,0,1-.27,1.36l2.21,1.28A2.69,2.69,0,0,1,124,49c0,.77-.54,1.08-1.2.69l-14.55-8.38a2.68,2.68,0,0,1-1.2-2.09C107.05,38.37,107.59,38.06,108.29,38.45Z" transform="translate(-14 0)"/><path class="cls-2" d="M126,31.31l1.48.58V28.63c0-2.6,2.05-3.22,4.3-1.9a8.89,8.89,0,0,1,4,7v.46a2.24,2.24,0,0,1,1.86.27,6.37,6.37,0,0,1,2.91,5v.23l2.06,1.2a4.31,4.31,0,0,1,1.94,3.34c0,1.24-.86,1.71-1.94,1.12L126,35.77A4.32,4.32,0,0,1,124,32.44C124.08,31.19,124.94,30.69,126,31.31Z" transform="translate(-14 0)"/><path class="cls-3" d="M85.28,149.57l-3.11,1.83L29,120.67l-15,8.65v2.75l50.83,29.34-.7.38v2.8l22.31.66v-2.76Z" transform="translate(-14 0)"/><path class="cls-3" d="M67.19,160l-2.36,1.4L14,132.07v-2.75Z" transform="translate(-14 0)"/><path class="cls-4" d="M86.44,162.49l-1.16-12.92-3.11,1.83L29,120.67l-15,8.65L67.19,160l-3.06,1.78Z" transform="translate(-14 0)"/><path class="cls-5" d="M179.13,118.07,176,119.89,106.58,79.77,91.44,88.5v2.83l67,38.69-.7.42v2.8l22.63.7V131.1Z" transform="translate(-14 0)"/><path class="cls-6" d="M180.34,131.1v2.84l-22.63-.7v-2.8Z" transform="translate(-14 0)"/><path class="cls-7" d="M160.86,128.62l-2.45,1.4-67-38.69V88.5Z" transform="translate(-14 0)"/><path class="cls-5" d="M180.34,131.1l-1.21-13L176,119.89,106.58,79.77,91.44,88.5l69.42,40.12-3.15,1.82Z" transform="translate(-14 0)"/><path class="cls-8" d="M180.34,131.1l-1.21-13L176,119.89,106.58,79.77,91.44,88.5l69.42,40.12-3.15,1.82Z" transform="translate(-14 0)"/><path class="cls-9" d="M20.25,103.26v6l105.92,61.07v-6Z" transform="translate(-14 0)"/><path class="cls-10" d="M20.25,103.26v6l105.92,61.07v-6Z" transform="translate(-14 0)"/><path class="cls-9" d="M162.84,143.07,56.91,82,20.25,103.26l105.92,61.07Z" transform="translate(-14 0)"/><path class="cls-9" d="M126.17,164.33v6l36.67-21.23v-6.05Z" transform="translate(-14 0)"/><path class="cls-11" d="M126.17,164.33v6l36.67-21.23v-6.05Z" transform="translate(-14 0)"/><path class="cls-12" d="M45.23,94.8l9,5.16a.23.23,0,0,1,0,.43l-1.36.78a.87.87,0,0,1-.74,0l-9-5.16a.23.23,0,0,1,0-.43l1.36-.78A.85.85,0,0,1,45.23,94.8Z" transform="translate(-14 0)"/><path class="cls-12" d="M66,106.79,75,112a.23.23,0,0,1,0,.43l-1.35.78a.87.87,0,0,1-.74,0l-9-5.16a.23.23,0,0,1,0-.43l1.35-.78A.87.87,0,0,1,66,106.79Z" transform="translate(-14 0)"/><path class="cls-12" d="M86.83,118.78l9,5.16a.23.23,0,0,1,0,.43l-1.36.78a.87.87,0,0,1-.74,0l-9-5.16a.23.23,0,0,1,0-.43l1.36-.78A.87.87,0,0,1,86.83,118.78Z" transform="translate(-14 0)"/><path class="cls-12" d="M107.62,130.81l9,5.16a.23.23,0,0,1,0,.43l-1.36.77a.81.81,0,0,1-.74,0l-9-5.16a.22.22,0,0,1,0-.42l1.36-.78A.85.85,0,0,1,107.62,130.81Z" transform="translate(-14 0)"/><path class="cls-12" d="M128.42,142.8l9,5.16a.23.23,0,0,1,0,.43l-1.35.77a.81.81,0,0,1-.74,0l-9-5.16a.23.23,0,0,1,0-.43l1.35-.77A.81.81,0,0,1,128.42,142.8Z" transform="translate(-14 0)"/><path class="cls-13" d="M87,132.28c8,0,14.5-3.73,14.5-8.34S95,115.6,87,115.6s-14.49,3.74-14.49,8.34S79,132.28,87,132.28Z" transform="translate(-14 0)"/><path d="M44.17,74a3.27,3.27,0,0,0-1.59-1.17,3.53,3.53,0,0,0-3.4,1.56c-.92,1.45-1.21,3.24-1.79,4.36a17.87,17.87,0,0,1-3.2,3.64c-.92.87-2.43,4.12-1.5,6.35a2,2,0,0,0,1.11,1Z" transform="translate(-14 0)"/><path class="cls-14" d="M43.64,73.47a3.61,3.61,0,0,0-3.49,1.36,14.42,14.42,0,0,0-1.79,3.93,5.82,5.82,0,0,1-1.17,1.65c-1.11,1.4-2.61,2.37-3.34,4.07a12.17,12.17,0,0,0-.68,2.67,3.23,3.23,0,0,0,.19,1.93,2,2,0,0,0,3.11.44,8.74,8.74,0,0,0,1.4-1.7,22,22,0,0,1,5.58-4.75c.53-.39,1.16-.72,1.69-1.16.3-.24.25-.49.3-.82.19-1.7.33-3.45.43-5.19C45.34,75.75,44.56,73.81,43.64,73.47Z" transform="translate(-14 0)"/><path class="cls-15" d="M63.18,52.48,62.11,84.19c-.72-1.6-4.12-3-6.88-4-1.79-.63-4.8-2.23-6.89-3L45.1,75.41a3.76,3.76,0,0,0-1.8.87c-.68.59-1.89,2.67-1,3.35a.86.86,0,0,1,.44.78c.53-.34,1.46.09,2,.48a1.08,1.08,0,0,1,.43.63s11.35,7.71,15.13,10.23c4.61,3.1,7.17,1.79,8.92-.48s4.85-10,6.93-16.29S79.81,59.7,81,54.61Z" transform="translate(-14 0)"/><path class="cls-16" d="M80.44,58.35c-1,6.3-6,26-10.08,32S63.23,94.13,60.8,93s-18-10.13-18-10.13A4.94,4.94,0,0,1,42,77c1.69-3.49,3.63-3,3.63-3s14.25,6.5,15.9,8.68l1.41-26.66Z" transform="translate(-14 0)"/><path class="cls-14" d="M73,62.76l5.19,5.57-2.86-4.85a10,10,0,0,0,4.94-5.67S76.71,62.22,73,62.76Z" transform="translate(-14 0)"/><path class="cls-15" d="M86.35,113.57c.2-5.63.54-22.5.63-26.77,0-4.75.63-6.3-3.78-11.63C78.35,69.3,73,62.76,73,62.76l8-7.18L58.38,52.77c-.87,3.49-1.7,4.75-1.75,8.82,0,2.82-.38,6.26,10.72,15.37,6.11,5,10.81,8.34,10.81,8.34a15.4,15.4,0,0,0-1.31,7.08c.1,4.61,3.44,19.68,3.73,23.71v.43c0,.2.15.29.29.44a16.84,16.84,0,0,1,1.41,2.23,2.12,2.12,0,0,0,1.84.92,2.43,2.43,0,0,0,1.84-.92,2.62,2.62,0,0,0,.59-1.16,3.5,3.5,0,0,0,.09-.68,3.29,3.29,0,0,0-.14-.68A23.25,23.25,0,0,1,86.35,113.57Z" transform="translate(-14 0)"/><path class="cls-14" d="M80.39,119.77c-.29,0-.29,1-.15,1.36a5.46,5.46,0,0,0,1.6,1.5,7.69,7.69,0,0,1,2,2.52,10.22,10.22,0,0,0,2.91,3.35,7.7,7.7,0,0,0,5.48.92c2.08-.34,2.28-1.12,2.28-1.84Z" transform="translate(-14 0)"/><path class="cls-16" d="M86.55,116.72a1.27,1.27,0,0,0,.43,0h.15c.1,0,.1.14.1.24a7.32,7.32,0,0,0,1.21,2.86,14.19,14.19,0,0,0,1.89,2.33c1.55,1.69,3.34,2.47,4.36,3.83.29.34.1,1.21-.1,1.5-.48.87-2.18,1.31-4,1.31-2.62,0-3.93-1.31-5.14-2.67-.87-1-2-2.66-2.62-3.39s-2.32-1.6-2.71-2.47a5.38,5.38,0,0,1,.1-2.77c.19-.87.09-1.69.38-1.64v.38c0,.1.2.2.29.29.39.39.68.88,1.07,1.27a1.27,1.27,0,0,0,.78.33.77.77,0,0,0,.68-.43c.09-.34.09-.34.38-.44a5,5,0,0,1,.83-.19A15,15,0,0,1,86.55,116.72Z" transform="translate(-14 0)"/><path class="cls-17" d="M57.75,52.09c-1.07,4.22-2,10.14-1.12,12.75s1.9,5,9,11.3S77,85.69,77,85.69a28.93,28.93,0,0,0,0,10.47c1,6.21,2.81,20.9,2.81,20.9s2.76,3.88,8,.63c0,0-.34-26.42,0-32S87.13,79,84.12,75.17,73.07,62.71,73.07,62.71c2.33-.15,7.27-2.13,8-7.18Z" transform="translate(-14 0)"/><path class="cls-15" d="M101.19,26c-.49-5.38-1.94-7.66-4.17-8.19-3.59-.88-3.88.48-2.62,3.15a12.61,12.61,0,0,1,1.11,3.44,5.49,5.49,0,0,0-1.35-1.21,1.25,1.25,0,0,0-1.7.19c-.14.24.44.58,1,1.55.73,1.26.73,2.14,1.79,3.25a3.91,3.91,0,0,1,.68,1.94,26.64,26.64,0,0,1-1,7.08c-1.89-2.67-4-5.38-5.52-7.52-2.91-3.92-4.27-5.09-8.58-5.76l1.45,9.59S93.09,47.87,96.1,48.75A2.69,2.69,0,0,0,99,48.21l0-.05,0,0c.92-1,1.46-4.22,1.75-8.68.19-2.23.34-4.8.53-7.52A39.18,39.18,0,0,0,101.19,26Z" transform="translate(-14 0)"/><path class="cls-18" d="M80.1,23.73c3.34.39,4.9.92,6.64,2.47S95,36.82,95,36.82l.54-2a4.8,4.8,0,0,0,3,2c2.13.44,2.57,0,2.57,0a50.22,50.22,0,0,1-.44,6.69c-.48,3.64-1.11,5.57-3.2,5.72s-4.07-2-6.88-4.9c-3.1-3.2-8.05-8.82-8.05-8.82Z" transform="translate(-14 0)"/><path class="cls-16" d="M94.93,36.82s-.53,1.84-.72,3a11.23,11.23,0,0,0,0,4.61,6,6,0,0,1-.92-3.78,16.46,16.46,0,0,1,.92-4.75Z" transform="translate(-14 0)"/><path class="cls-4" d="M83.64,35.07c0-3.63.82-10.27-2.77-11.15A34.28,34.28,0,0,0,71,22.76a69.71,69.71,0,0,0-10.32,1.16c-1.7.2-2.52,2.67-2.52,8.73,0,4.61.38,7.18.38,11.25l-2,12.85c2.81,3.92,16.14,5.91,23.8,1.6C82,51.17,83.69,38.27,83.64,35.07Z" transform="translate(-14 0)"/><path class="cls-14" d="M66.23,11.42l.92,5.52A2.28,2.28,0,0,0,69.38,19l1.75.14L71.71,11Z" transform="translate(-14 0)"/><path class="cls-14" d="M68.37,5.11a2.36,2.36,0,0,0-2,.54c-.92.82-.34,3,0,6.78l2.08-.09Z" transform="translate(-14 0)"/><path class="cls-15" d="M69.09,12.39c-.38.19-.92-.59-1.35-1.12a1.69,1.69,0,0,0-2.86.24c-.93,1.65.43,3.4,1.5,4.12s2.18-.43,2.18-.43c-.1,1.55-.53,3.92-1,7.8C69,25.72,73,25.81,75.25,26.93a3.81,3.81,0,0,0,.68-3.39l.44-2.23a21.58,21.58,0,0,0,2.32.29c1.41,0,2.67.24,3.59-1.94,1-2.38,1.65-6.94,1.21-11.54C82.91,2.2,76,1.77,72.15,3.8S69.09,12.39,69.09,12.39Z" transform="translate(-14 0)"/><path class="cls-14" d="M68,4.63a4.07,4.07,0,0,1,1.65-2.91A7.33,7.33,0,0,1,72.83.61,25.54,25.54,0,0,1,78,.9,11.05,11.05,0,0,0,84.12.17.86.86,0,0,1,85,.07c.24.15.24.44.24.73a5.69,5.69,0,0,1-.49,1.74c-.24.54-.63,1-.92,1.56a2.81,2.81,0,0,0,1.65-.2,2.17,2.17,0,0,1,.39-.14.37.37,0,0,1,.34.14.61.61,0,0,1,0,.29,4.66,4.66,0,0,1-2.67,3.54,4.53,4.53,0,0,1-4.36-.48A3.3,3.3,0,0,1,76.27,8c-.44-.09-1.94-.53-2.28-1.55a4,4,0,0,1-3.73,2.67c-.15,1.07-.34,2.13-.58,3.2-.1.48-.39.87-.88.53a8.5,8.5,0,0,1-1.16-1.65c-.1-.09-.1-.29-.15-.87a20.3,20.3,0,0,1,.2-3.39C67.78,6.13,67.83,5.36,68,4.63Z" transform="translate(-14 0)"/><path class="cls-14" d="M67.88,5.55,65.36,4a1.46,1.46,0,0,1,2-.53A1.65,1.65,0,0,1,67.88,5.55Z" transform="translate(-14 0)"/><path class="cls-19" d="M70.45,19.46a10.58,10.58,0,0,1-1.11-3.58,15.34,15.34,0,0,0,1.94,3.34c1.26,1.26,5,2.18,5,2.18L76,22.57C75.2,22.28,71.71,21.06,70.45,19.46Z" transform="translate(-14 0)"/><path class="cls-14" d="M76.46,12.53a.67.67,0,0,1-.72.68.75.75,0,0,1-.68-.78.67.67,0,0,1,.72-.67A.72.72,0,0,1,76.46,12.53Z" transform="translate(-14 0)"/><path class="cls-14" d="M75.69,10.16l-1.55.72a.88.88,0,0,1,.43-1.16A.83.83,0,0,1,75.69,10.16Z" transform="translate(-14 0)"/><path class="cls-20" d="M75.64,16.65l2.71,1.21a1.46,1.46,0,0,1-1.94.83A1.57,1.57,0,0,1,75.64,16.65Z" transform="translate(-14 0)"/><path class="cls-19" d="M75.83,17.38c-.09,0-.24.05-.34.05a1.52,1.52,0,0,0,.88,1.21,1.65,1.65,0,0,0,.48.1.63.63,0,0,0,.05-.3A1,1,0,0,0,75.83,17.38Z" transform="translate(-14 0)"/><path class="cls-14" d="M82.72,10.93,81.41,9.82a.81.81,0,0,1,1.21-.1A.9.9,0,0,1,82.72,10.93Z" transform="translate(-14 0)"/><path class="cls-14" d="M82.18,12.58a.67.67,0,0,1-.72.68.75.75,0,0,1-.68-.78.68.68,0,0,1,.72-.68A.79.79,0,0,1,82.18,12.58Z" transform="translate(-14 0)"/><path class="cls-19" d="M78.84,12l-.15,4.21L81,15.68Z" transform="translate(-14 0)"/><path class="cls-15" d="M47.62,61.79a15.73,15.73,0,0,1-1.36-3.35,6.49,6.49,0,0,0,1.31,1.07c.58.29,1.4.29,1.6-.24s-.73-.88-1.07-1.51a19.34,19.34,0,0,0-1.89-3,1.88,1.88,0,0,1-.63-1.46c.05-4,.68-8.24.78-12.26,2.9-2.09,9.5-4.85,12.12-6.55A6.91,6.91,0,0,0,60.56,33c1.12-1.16,1.65-4.07,1.84-6.59a5.34,5.34,0,0,0-.29-2.77,9.81,9.81,0,0,0-4.41.73,79.26,79.26,0,0,0-8.24,4.7,43.54,43.54,0,0,0-9.41,7.71c-1.21,1.41-.48,12.9-.29,15.61.1,1.46.34,3.74.63,5.67.54,3.3,2.38,6,4.75,6.6C48.88,65.62,48.49,63.78,47.62,61.79Z" transform="translate(-14 0)"/><path class="cls-18" d="M62.65,23.59c-5.77-.39-8.49,2-13.14,5.14S40,35.37,39.33,37.45s.09,9.75.09,9.75,2.38,1.45,6.5,0l.63-6.11,13.57-6.5C61.39,33.91,64.15,28.82,62.65,23.59Z" transform="translate(-14 0)"/><path class="cls-21" d="M76.51,28.48a3.34,3.34,0,0,0,.63-1.6l-1-1.07-.29,1.41Z" transform="translate(-14 0)"/><path class="cls-10" d="M76.51,28.48a3.34,3.34,0,0,0,.63-1.6l-1-1.07-.29,1.41Z" transform="translate(-14 0)"/><path class="cls-2" d="M74.47,27.22,71.9,24.94l-2.56,1.31L73.46,29Z" transform="translate(-14 0)"/><path class="cls-10" d="M74.47,27.22,71.9,24.94l-2.56,1.31L73.46,29Z" transform="translate(-14 0)"/><path class="cls-18" d="M67.88,20.38l-.14,1c1.6,2.28,3.54,2.91,5,3.69A9.36,9.36,0,0,1,75.15,27a4.44,4.44,0,0,0-2.08.53c-1.16.63-2.33,1.55-2.91,1.41s-1.79-1.31-3.1-3.4a10.39,10.39,0,0,0-1.6-2.32l-1,.14C65.8,22.47,66.86,20.09,67.88,20.38Z" transform="translate(-14 0)"/><path class="cls-18" d="M75.15,27c1.46,0,1.8,1.21,2.14.87S77.43,24,76,22.66Z" transform="translate(-14 0)"/><path class="cls-5" d="M57.46,41.09c12.55.67,16.77-8.54,16.87-10.62l1.45.05c.73,2.57-.58,13.91-13.86,16.63-2.72.48-8.24-1-8.63-1.94S56.2,41,57.46,41.09Z" transform="translate(-14 0)"/><path class="cls-11" d="M75.83,30.71c0-.1,0-.14,0-.19l-1.45-.05,0,.63A2.32,2.32,0,0,0,75.83,30.71Z" transform="translate(-14 0)"/><path class="cls-5" d="M74.48,27.22a5.6,5.6,0,0,1,1.35.1,3.65,3.65,0,0,1,.68,1.21,5,5,0,0,1-.77,2,1.67,1.67,0,0,1-1.46-.05,3.13,3.13,0,0,1-.87-1.5A2.75,2.75,0,0,1,74.48,27.22Z" transform="translate(-14 0)"/></svg>