<svg id="Layer_1" data-name="Layer 1" xmlns="http://www.w3.org/2000/svg" viewBox="0 0 196.09 171.23"><defs><style>.cls-1,.cls-6{fill:#acc9c5;}.cls-2{fill:#92bcb5;}.cls-10,.cls-3{fill:#68a1bf;}.cls-4{fill:#d1dbcf;}.cls-22,.cls-23,.cls-5,.cls-6{opacity:0.6;}.cls-10,.cls-21,.cls-22,.cls-23,.cls-6{isolation:isolate;}.cls-7{fill:#ccd39c;}.cls-8{fill:#c2c68e;}.cls-10,.cls-9{opacity:0.5;}.cls-11{fill:#f98188;}.cls-12{fill:#ffb27d;}.cls-13,.cls-21,.cls-22{fill:#3d3d3d;}.cls-14{fill:#331832;}.cls-15{fill:#fff;}.cls-16{opacity:0.33;}.cls-17{fill:#7b7a7a;}.cls-18{fill:#020202;}.cls-19{fill:#eea6aa;}.cls-20,.cls-21{opacity:0.4;}.cls-21,.cls-22{fill-opacity:0.5;}.cls-23{fill:#e3e3e3;}.cls-24{fill:#b8d5dc;}.cls-25{fill:#444092;}</style></defs><path class="cls-1" d="M38.58,157.72S36,116.77,24.87,117.82s7.84,27.1,8.2,39Z" transform="translate(0 0)"/><path class="cls-2" d="M34.13,158.2s-9.67-34.44-20.61-31.85,12.52,21.85,15,32Z" transform="translate(0 0)"/><path class="cls-3" d="M31,158.28c-1.56-7-5.66-14-8.82-18.7A87,87,0,0,0,15.58,131l.22-.19a86.88,86.88,0,0,1,6.58,8.56c3.18,4.69,7.3,11.76,8.87,18.8Z" transform="translate(0 0)"/><path class="cls-4" d="M94.84,171.23c50.33,0,91.13-5,91.13-11.16s-40.8-11.16-91.13-11.16-91.12,5-91.12,11.16S44.52,171.23,94.84,171.23Z" transform="translate(0 0)"/><g class="cls-5"><path class="cls-6" d="M120.74,134c7.36-14,18.34-31.36,26.25-27.49,9.53,4.66-6.56,19-18,32.23C124.88,143.45,116.06,142.93,120.74,134Z" transform="translate(0 0)"/></g><path class="cls-7" d="M113,145.22s26.64-33.84,37.09-25.66S126.41,138,119,148.08Z" transform="translate(0 0)"/><path class="cls-8" d="M116.38,146.85c5-7.08,12.69-13,18.27-16.66a99.83,99.83,0,0,1,11-6.37l-.13-.32a100.62,100.62,0,0,0-11.09,6.4c-5.61,3.71-13.36,9.62-18.37,16.75Z" transform="translate(0 0)"/><path class="cls-1" d="M143.94,141c-3.93.87-3.31,7-7.79,5.88-3.78-1-4.11-1.35-5.42-.22a6.57,6.57,0,0,0-1.17,1.35,3.68,3.68,0,0,1-2.31,1.69c-7,1.26-16.62-9.56-9.25-15.48a4.6,4.6,0,0,1,2.16-.73c4.63-.73,6.08,1.48,9.75-4.17s8.59,2.49,11.7,2.21,5.85-1.23,8.26,2.19S147.88,140.1,143.94,141Z" transform="translate(0 0)"/><g class="cls-9"><g class="cls-9"><g class="cls-9"><path class="cls-10" d="M120.21,142.05l-.14-.23c.09-.07,10-6.73,30.35-7.15v.27C130.1,135.36,120.31,142,120.21,142.05Z" transform="translate(0 0)"/></g></g><g class="cls-9"><g class="cls-9"><path class="cls-10" d="M132.94,133.93c-2.68-2.52-3.14-4.52-3.16-4.6l.26-.06a10.15,10.15,0,0,0,3.08,4.45Z" transform="translate(0 0)"/></g></g><g class="cls-9"><g class="cls-9"><path class="cls-10" d="M133.39,136.89c-.74-1.38-.67-3.38.24-5.76a18.79,18.79,0,0,1,1.59-3.2l.22.16s-3.54,5.48-1.81,8.66Z" transform="translate(0 0)"/></g></g><g class="cls-9"><g class="cls-9"><path class="cls-10" d="M138.76,136.43c-.31-.28-.49-.46-.5-.47l.19-.19a13,13,0,0,0,9.06,3.7v.28A13.31,13.31,0,0,1,138.76,136.43Z" transform="translate(0 0)"/></g></g><g class="cls-9"><g class="cls-9"><path class="cls-10" d="M141.38,142.78a6.61,6.61,0,0,1-1.64-3.79,4.86,4.86,0,0,1,.14-1.73l.25.08a5.89,5.89,0,0,0,1.46,5.25Z" transform="translate(0 0)"/></g></g></g><path class="cls-1" d="M129.26,80.6c.34-1.75,1.25-2.11,2.25-1.92s1.73.84,1.4,2.59a6.44,6.44,0,0,1-2.73,4.38A6.28,6.28,0,0,1,129.26,80.6Z" transform="translate(0 0)"/><path class="cls-1" d="M15.15,118.73c-1.77-.16-2.23-1-2.14-2.06s.68-1.81,2.45-1.65a6.48,6.48,0,0,1,4.64,2.29A6.32,6.32,0,0,1,15.15,118.73Z" transform="translate(0 0)"/><path class="cls-1" d="M169,111.91c1.68-.56,2.45.06,2.78,1s.11,1.93-1.58,2.49a6.48,6.48,0,0,1-5.16-.23A6.29,6.29,0,0,1,169,111.91Z" transform="translate(0 0)"/><path class="cls-11" d="M123.06,127c-10.14-2.28-21.74-6.9-34.49-13.76C78.43,107.75,69.93,103.06,66,100.46c0,0,4.87-12.23,7-10.81,3.77,2.5,11.62,7.71,21.28,12.9,11.77,6.33,22.33,10.57,31.4,12.6Z" transform="translate(0 0)"/><path class="cls-1" d="M72.92,103.05c-1,.7-1.56.57-1.84.17s-.2-.93.83-1.63a5.58,5.58,0,0,1,3.29-1.16A5.38,5.38,0,0,1,72.92,103.05Z" transform="translate(0 0)"/><path class="cls-1" d="M73.42,111.07c-.74,1-1.29,1.05-1.68.77s-.5-.83.26-1.81a5.55,5.55,0,0,1,2.73-2.16A5.34,5.34,0,0,1,73.42,111.07Z" transform="translate(0 0)"/><path class="cls-1" d="M74.38,132h-.24a32.48,32.48,0,0,0-1.55-8.91A45.7,45.7,0,0,0,61,104.17l.17-.17a45.77,45.77,0,0,1,11.69,19A32.23,32.23,0,0,1,74.38,132Z" transform="translate(0 0)"/><path class="cls-1" d="M68.1,112.82l-.21-.11c4.13-7.48.73-16,.7-16.09l.22-.08C68.84,96.64,72.28,105.25,68.1,112.82Z" transform="translate(0 0)"/><path class="cls-1" d="M64.29,109.26a8.5,8.5,0,0,1-4.32-.92l.11-.2a8,8,0,0,0,5.26.73l.06.23A6.46,6.46,0,0,1,64.29,109.26Z" transform="translate(0 0)"/><path class="cls-1" d="M60.71,102.87c1.33,1,1.48,1.66,1.18,2s-1,.39-2.28-.65a9.41,9.41,0,0,1-3-3.49A9.43,9.43,0,0,1,60.71,102.87Z" transform="translate(0 0)"/><path class="cls-1" d="M60.54,107.54c1.59.59,1.91,1.14,1.74,1.6s-.78.65-2.35.06a9.29,9.29,0,0,1-4-2.42A9.2,9.2,0,0,1,60.54,107.54Z" transform="translate(0 0)"/><path class="cls-1" d="M66.44,105.36c.37,1.19.1,1.66-.36,1.81s-1-.1-1.33-1.28a5.59,5.59,0,0,1-.15-3.47A5.52,5.52,0,0,1,66.44,105.36Z" transform="translate(0 0)"/><path class="cls-1" d="M69.24,95.56c.51,1.59.27,2.19-.19,2.33s-1-.21-1.49-1.81A9.24,9.24,0,0,1,67,91.5,9.33,9.33,0,0,1,69.24,95.56Z" transform="translate(0 0)"/><path class="cls-11" d="M122,158.67a175.21,175.21,0,0,1-31.84-3.34c-14.62-2.75-30-6.74-36.08-8.52l6.43-11.92a323.59,323.59,0,0,0,32,7.92c17,3.19,31,3.95,41.77,2.25l2,12.58A91.3,91.3,0,0,1,122,158.67Z" transform="translate(0 0)"/><path class="cls-12" d="M116.44,23.42c-.34-1.06-.56-3.28-.88-4.34-.13-.45-.5-2-.08-2.24s1.23.95,1.58,1.52c1.09-3.75,3.92-8.16,2.09-.52h0c.21-.64,1.57-5.42,2.53-4.78.7.45-.54,4.34-.88,5.4,0,0,0,0,0,0,.42-1.05,1.54-4.28,2.23-3.89.91.54-.67,4.64-.67,4.64s1.21-3.45,2-2.49c.42.54-.35,2.56-.88,3.82-.1.27-.2.49-.26.66a1.81,1.81,0,0,1-.19.37,16,16,0,0,1-1.93,3.16,2.24,2.24,0,0,1-2.71.91A3.72,3.72,0,0,1,116.44,23.42Z" transform="translate(0 0)"/><path class="cls-13" d="M80.87,57.31S82,50.78,93.59,49.82c8.93-.74,18,4.55,19.08,12.56,1.48,11.09,1.75,17,.55,22.58,0,0-24.59-4.46-32.2.92,0,0,2.61-10.28-.32-24.78A7.44,7.44,0,0,1,80.87,57.31Z" transform="translate(0 0)"/><path class="cls-13" d="M69.41,29.21C71.87,37.49,85.21,50.15,90,50.35c1,0-8.9,12.87-9.07,12.31a13.29,13.29,0,0,0-3.41-5.9c-5.81-6.51-13.75-15.25-15.08-23.29Z" transform="translate(0 0)"/><path class="cls-13" d="M95.89,49.91S113,43,115.28,24.79a1.85,1.85,0,0,1,2.22-1.62l3.35.74a1.4,1.4,0,0,1,1.06,1.33c.06,3.42-.37,14.49-8,28.67a10.14,10.14,0,0,0-1.26,8.43Z" transform="translate(0 0)"/><path class="cls-14" d="M81,85.87c0,1.59,7.22,2.4,16.16,2.27s16.07-1.6,16-3.2-7.42-4.29-16.34-4.16S81,84.27,81,85.87Z" transform="translate(0 0)"/><path class="cls-12" d="M93.74,48.22,94,45.15l.08-.9L94.56,39l1.22,4.9.72,2.92.23.93c.16.62.56.69,1.13,1.13.24.18,1.7,1.28.47,2.18-1.53,1.13-4.91.66-6.41-.6C91.94,50.43,93.66,49.22,93.74,48.22Z" transform="translate(0 0)"/><path class="cls-13" d="M98,36.26A6.66,6.66,0,0,1,98.59,39c0,1.57-2.24-1.8-2.24-1.8Z" transform="translate(0 0)"/><path class="cls-12" d="M96.32,46c2.32-.7,3.49-3.6,2.62-6.46s-3.47-4.61-5.79-3.9-3.49,3.6-2.61,6.46S94,46.75,96.32,46Z" transform="translate(0 0)"/><path class="cls-13" d="M90.17,40.86l2-.68a1.54,1.54,0,0,0,1-.94c.29-.77.73-1.25,2.68-1.58,2.47-.44,3.79-2.29,3.77-3.67a1.49,1.49,0,0,0-2.54-1.13c-1.1.91-.89-.77-2.11-.69-2.27.17-2.32,2-4.15,2.36-2.39.44-6.26,3.21-3.37,7.08Z" transform="translate(0 0)"/><path class="cls-13" d="M94.9,40.58s0,0,0-.08a.09.09,0,0,0-.1-.08,1,1,0,0,0-.87.8.1.1,0,0,0,.07.12s.08,0,.1-.07a1.52,1.52,0,0,1,.72-.67A.06.06,0,0,0,94.9,40.58Z" transform="translate(0 0)"/><path class="cls-13" d="M94.77,41.81c.1.21.28.29.42.22s.17-.28.07-.49-.29-.28-.43-.21A.36.36,0,0,0,94.77,41.81Z" transform="translate(0 0)"/><path class="cls-13" d="M98.06,39.63s0,0,0-.05a.15.15,0,0,0,0-.12.6.6,0,0,0-.86.3s0,.1,0,.12.06,0,.1,0a1,1,0,0,1,.72-.25Z" transform="translate(0 0)"/><path class="cls-13" d="M97.46,40.71c0,.21.15.38.3.37a.38.38,0,0,0,.25-.43c0-.21-.15-.38-.3-.37A.38.38,0,0,0,97.46,40.71Z" transform="translate(0 0)"/><path class="cls-13" d="M87.46,41.6s2.09,2.86,4.18,2.65c0,0-2.14-2.06,1-4.29C92.64,40,89.35,40.13,87.46,41.6Z" transform="translate(0 0)"/><path class="cls-12" d="M90.68,42.72a.9.9,0,0,0,1.19-.47.93.93,0,0,0-.59-1.16.9.9,0,0,0-1.19.47A.93.93,0,0,0,90.68,42.72Z" transform="translate(0 0)"/><path class="cls-13" d="M92.65,40s.26,2.73.9,3.12,4.16-.15,5.66-1.15a3.6,3.6,0,0,1-2.07,4.13,5,5,0,0,1-1.67.35,3.4,3.4,0,0,1-3.08-1.18,10.19,10.19,0,0,1-.22-2.42,2.33,2.33,0,0,0-.89-1.7A3.23,3.23,0,0,1,92.65,40Z" transform="translate(0 0)"/><path class="cls-15" d="M98.54,43.08a9.44,9.44,0,0,1-2.75.84,1.37,1.37,0,0,0,1.92.74C98.54,44.31,98.54,43.08,98.54,43.08Z" transform="translate(0 0)"/><g class="cls-16"><path class="cls-13" d="M96.58,32.73a.64.64,0,0,1-.62-.44l.12,0a.53.53,0,0,0,.5.35.44.44,0,0,0,.2,0l0,.11A1.32,1.32,0,0,1,96.58,32.73Z" transform="translate(0 0)"/></g><path class="cls-15" d="M96.4,36.8l0,0s2.48-1.38,2.29-2.78c-.05-.4-.17-.65-.37-.75s-.74.05-1.14.23l-.19.09,0-.06.18-.08c.41-.18.86-.42,1.2-.23s.34.37.39.79C98.9,35.4,96.5,36.73,96.4,36.8Z" transform="translate(0 0)"/><path class="cls-15" d="M89.9,35.24v-.07a4.36,4.36,0,0,0,3.55-2l0,0A4.4,4.4,0,0,1,89.9,35.24Z" transform="translate(0 0)"/><path class="cls-17" d="M67,33.27c-2.32,1.85-4,1.17-4.49.2s.69-2.64,2.66-3.74,3.78-1.49,4.29-.52S68.72,31.85,67,33.27Z" transform="translate(0 0)"/><path class="cls-17" d="M101.73,76.75a.64.64,0,0,1-.76.53.68.68,0,0,1-.52-.79c.07-.37.34-.67.69-.6A.7.7,0,0,1,101.73,76.75Z" transform="translate(0 0)"/><path class="cls-17" d="M101.08,70.71a.65.65,0,0,1-.76.53.67.67,0,0,1-.52-.79c.06-.37.33-.67.69-.6A.73.73,0,0,1,101.08,70.71Z" transform="translate(0 0)"/><path class="cls-17" d="M100.27,63.87a.65.65,0,0,1-.76.54.67.67,0,0,1-.52-.79c.07-.37.34-.67.69-.6A.69.69,0,0,1,100.27,63.87Z" transform="translate(0 0)"/><path class="cls-13" d="M96.9,144.79s-.06,2.46,1.65,3.25,6.77,1.7,4.78,3.17c-1.14.84-6.24,0-7.69-.11s-2.84.44-3.87-.53.32-6,.32-6a6,6,0,0,0,2.34.73A4.79,4.79,0,0,0,96.9,144.79Z" transform="translate(0 0)"/><path class="cls-17" d="M105.75,83.93c5.44,1.3,6.41,1.9,6.06,5.25a162.31,162.31,0,0,1-3.1,18.85c-3.23,14.1-6.93,28.27-8.73,35.06a5.57,5.57,0,0,1-5.52,4.07H93.07A4.64,4.64,0,0,1,88.46,142l5.92-46.32.42-9.81Z" transform="translate(0 0)"/><path class="cls-13" d="M75.57,144.79s-.07,2.46,1.65,3.25,6.76,1.7,4.77,3.17c-1.14.84-6.24,0-7.69-.11s-2.84.44-3.87-.53.32-6,.32-6a6.11,6.11,0,0,0,2.34.73A4.81,4.81,0,0,0,75.57,144.79Z" transform="translate(0 0)"/><path class="cls-17" d="M105.75,83.93,79.94,143.29a6.2,6.2,0,0,1-6.09,3.91l-1.18,0a4.31,4.31,0,0,1-4.12-5.27l14.66-56C83.56,84.6,94,81.61,105.75,83.93Z" transform="translate(0 0)"/><path class="cls-18" d="M91.79,116.19h0a.13.13,0,0,1-.08-.17L97,99.08c.17-.41.32-.81.47-1.23,1-2.56,2.16-5.72,5.56-7.91a.13.13,0,0,1,.18,0,.15.15,0,0,1,0,.19c-3.33,2.13-4.51,5.26-5.45,7.77-.17.42-.32.84-.47,1.23l-5.34,16.93A.15.15,0,0,1,91.79,116.19Z" transform="translate(0 0)"/><path class="cls-12" d="M67.54,29.41c.17-1.09,0-3.33.15-4.42.07-.47.15-2.09-.28-2.22s-1.06,1.12-1.3,1.75c-1.7-3.54-5.22-7.41-2.14-.19h0c-.31-.6-2.44-5.08-3.28-4.31-.61.58,1.24,4.19,1.75,5.19h0c-.59-1-2.22-4-2.84-3.46-.81.67,1.43,4.47,1.43,4.47S59.23,23,58.64,24.11c-.34.61.77,2.48,1.48,3.62.15.24.29.45.37.61a3.15,3.15,0,0,0,.25.33,16.17,16.17,0,0,0,2.43,2.81,2.23,2.23,0,0,0,2.82.46A3.81,3.81,0,0,0,67.54,29.41Z" transform="translate(0 0)"/><path class="cls-15" d="M96.52,52.9C96,55.66,92.91,66.43,78.29,72a6.08,6.08,0,0,0-2.45,1.72l-2.66,3.06a1.11,1.11,0,0,0,.37,1.72l3.9,1.75a5.73,5.73,0,0,0,4.21.17c4.74-1.74,16.93-10.67,16.93-28.36,0-.75-.61-.17-1.32,0A1.05,1.05,0,0,0,96.52,52.9Z" transform="translate(0 0)"/><path class="cls-13" d="M95.71,50.57s2-.81,2.57-.34.36,2.79-.57,3.08S94.82,51.2,95.71,50.57Z" transform="translate(0 0)"/><path class="cls-17" d="M96.87,49.94s-2.73-.75-3.31-1.7-3.19,1.52-3.1,2.19,5.33,4,5.62,3.5S97.56,50.51,96.87,49.94Z" transform="translate(0 0)"/><path class="cls-17" d="M96.87,49.94a3.14,3.14,0,0,0,.1-1.58s-.17-.47.25-.47a8.4,8.4,0,0,1,3,1.88c.24.47.42,2.75-.27,3s-2.59-2.08-2.81-2.3A.66.66,0,0,1,96.87,49.94Z" transform="translate(0 0)"/><path class="cls-19" d="M54.08,146.81l.41-10.73a1.93,1.93,0,0,1,1.68-1.84c41.24-5.2,60-12.55,69.53-19.09l4.5,9.18a1.18,1.18,0,0,1-.41,1.52c-9.89,6.6-21.41,10.67-40,15A330.14,330.14,0,0,1,56,146.56Z" transform="translate(0 0)"/><path class="cls-19" d="M66,100.46l-.34-9.27a1.87,1.87,0,0,1,1.52-1.89,111.9,111.9,0,0,0,19.17-5.17C97.57,80,106.9,74.21,114.09,67l7.63,7.61c-8.29,8.31-18.92,14.92-31.6,19.62a126.23,126.23,0,0,1-22.63,6Z" transform="translate(0 0)"/><path class="cls-19" d="M106.08,65.76a131.73,131.73,0,0,0,26.85-4.71,1.18,1.18,0,0,1,1.48,1.45c-1.33,4.57-4.36,15.7-5.15,25.22a1.18,1.18,0,0,1-2.17.52,61.46,61.46,0,0,0-21.51-20.3A1.17,1.17,0,0,1,106.08,65.76Z" transform="translate(0 0)"/><g class="cls-20"><path class="cls-21" d="M32.45,24.51a9.41,9.41,0,0,0-9.34-4.45c-6.7.63-5.9,5.74-9.09,5.26s-7.65,0-8.6,3.18S.16,29.94,0,32.64s5,4.62,10.84,2.23S19.61,36.73,27.89,36s9.31-1.73,14.22-1.24,4.79-2.89,2.56-5.12S33.4,27.59,32.45,24.51Z" transform="translate(0 0)"/></g><g class="cls-5"><path class="cls-22" d="M186.85,12a6.34,6.34,0,0,0-6.29-3c-4.5.43-4,3.86-6.12,3.54s-5.15,0-5.79,2.15-3.54,1-3.65,2.78,3.34,3.12,7.31,1.5,5.91,1.25,11.48.74,6.28-1.17,9.58-.84,3.23-1.94,1.72-3.45S187.5,14.11,186.85,12Z" transform="translate(0 0)"/></g><g class="cls-5"><path class="cls-22" d="M140,2.59A4.31,4.31,0,0,0,135.69,0c-3.1.37-2.72,3.3-4.2,3s-3.54,0-4,1.83-2.44.83-2.51,2.38,2.29,2.65,5,1.28,4.06,1.07,7.89.63,4.31-1,6.58-.71,2.22-1.66,1.19-2.94S140.46,4.36,140,2.59Z" transform="translate(0 0)"/><path class="cls-22" d="M35,63.59A4.31,4.31,0,0,0,30.69,61c-3.1.37-2.72,3.3-4.2,3s-3.54,0-4,1.83-2.43.83-2.51,2.38,2.29,2.65,5,1.28,4.06,1.07,7.89.63,4.31-1,6.58-.71,2.22-1.66,1.19-2.94S35.46,65.36,35,63.59Z" transform="translate(0 0)"/></g><g class="cls-5"><path class="cls-23" d="M52.86,85.87a3.47,3.47,0,0,0-3.51-2.07c-2.51.29-2.21,2.67-3.41,2.45s-2.87,0-3.23,1.49-2,.67-2,1.93,1.85,2.15,4.06,1,3.29.87,6.41.51,3.5-.81,5.34-.58,1.8-1.34,1-2.38S53.22,87.31,52.86,85.87Z" transform="translate(0 0)"/></g><path class="cls-24" d="M49,165.59s-3-2.83-1.94-4.44,2.74,3.46,2.74,3.46-.9-6,1-6.1,0,6.1,0,6.1.68-1.45,1.35-1.54.48,1.23-.71,2.52Z" transform="translate(0 0)"/><path class="cls-25" d="M49.25,165.66c-.14-.14-3.41-3.29-2.22-5.17a.68.68,0,0,1,.67-.39c.87.1,1.82,2.23,2.3,3.49-.15-1.56-.34-4.64.54-5.73a1,1,0,0,1,.75-.4.8.8,0,0,1,.69.3c.8,1,.06,4.36-.35,5.93.3-.47.74-1,1.19-1.06a.42.42,0,0,1,.48.23c.25.47-.13,1.66-1.19,2.8l-.16-.15c1-1.12,1.35-2.21,1.17-2.55a.25.25,0,0,0-.27-.12c-.57.07-1.24,1.24-1.45,1.69l-.2-.07c0-.06,1.57-5.36.62-6.56a.53.53,0,0,0-.52-.22.74.74,0,0,0-.59.32c-1.13,1.38-.39,6.42-.39,6.47l-.2.05c-.39-1.13-1.57-4.11-2.45-4.22-.18,0-.33.09-.47.31-1.11,1.73,2.14,4.87,2.17,4.9Z" transform="translate(0 0)"/><path class="cls-24" d="M11.7,157.41S8.75,154.58,9.76,153s2.74,3.46,2.74,3.46-.89-6,.95-6.1,0,6.1,0,6.1.68-1.45,1.35-1.54.49,1.22-.71,2.51Z" transform="translate(0 0)"/><path class="cls-25" d="M11.92,157.49c-.13-.14-3.4-3.29-2.22-5.17a.72.72,0,0,1,.67-.4c.87.11,1.83,2.24,2.31,3.49-.16-1.55-.35-4.63.53-5.72a1.06,1.06,0,0,1,.76-.41H14a.77.77,0,0,1,.63.3c.79,1,.05,4.36-.36,5.93.31-.47.75-1,1.2-1a.44.44,0,0,1,.48.23c.24.47-.14,1.64-1.2,2.8l-.15-.15c1-1.12,1.35-2.21,1.16-2.56a.23.23,0,0,0-.26-.11c-.58.07-1.25,1.23-1.46,1.68l-.2-.07c0-.05,1.57-5.34.62-6.56a.56.56,0,0,0-.47-.22h0a.81.81,0,0,0-.6.32c-1.12,1.39-.39,6.43-.39,6.47l-.2.05c-.39-1.13-1.57-4.1-2.45-4.21-.17,0-.32.08-.47.3-1.1,1.73,2.15,4.88,2.18,4.91Z" transform="translate(0 0)"/><path class="cls-24" d="M119.88,163.4s-3-2.83-1.94-4.44,2.73,3.46,2.73,3.46-.89-6,1-6.1,0,6.1,0,6.1.68-1.44,1.35-1.54.48,1.23-.71,2.52Z" transform="translate(0 0)"/><path class="cls-25" d="M120.1,163.47c-.14-.14-3.41-3.29-2.22-5.17a.69.69,0,0,1,.67-.4c.87.11,1.82,2.25,2.3,3.5-.16-1.56-.34-4.64.54-5.73a1.09,1.09,0,0,1,.75-.41h.06a.75.75,0,0,1,.63.31c.8,1,.06,4.36-.35,5.93.3-.47.74-1,1.19-1.06a.43.43,0,0,1,.48.23c.24.47-.13,1.66-1.19,2.8l-.16-.15c1-1.12,1.35-2.21,1.16-2.55a.22.22,0,0,0-.26-.12c-.57.07-1.24,1.24-1.45,1.69l-.2-.08s1.57-5.34.62-6.55a.58.58,0,0,0-.48-.22h0a.75.75,0,0,0-.6.32c-1.12,1.38-.38,6.42-.38,6.46l-.2.06c-.39-1.13-1.57-4.11-2.46-4.21h0a.53.53,0,0,0-.42.3c-1.1,1.74,2.15,4.87,2.18,4.9Z" transform="translate(0 0)"/><path class="cls-24" d="M160.72,163.4s-2.95-2.83-1.93-4.44,2.73,3.46,2.73,3.46-.89-6,.95-6.1,0,6.1,0,6.1.68-1.44,1.35-1.54.49,1.23-.71,2.52Z" transform="translate(0 0)"/><path class="cls-25" d="M160.94,163.47c-.13-.14-3.4-3.29-2.22-5.17a.7.7,0,0,1,.67-.4c.87.11,1.83,2.25,2.31,3.5-.16-1.56-.35-4.64.53-5.73a1.1,1.1,0,0,1,.76-.41h.06a.78.78,0,0,1,.63.31c.8,1,0,4.36-.36,5.93.31-.47.75-1,1.2-1.06a.43.43,0,0,1,.48.23c.24.47-.14,1.66-1.2,2.8l-.15-.15c1-1.13,1.35-2.21,1.16-2.55a.22.22,0,0,0-.26-.12c-.58.07-1.25,1.24-1.46,1.69l-.2-.08s1.57-5.34.62-6.55a.55.55,0,0,0-.47-.22h0a.75.75,0,0,0-.6.32c-1.12,1.38-.39,6.42-.39,6.46l-.2.06c-.38-1.13-1.57-4.11-2.45-4.21h0c-.16,0-.29.1-.42.3-1.1,1.74,2.15,4.87,2.18,4.9Z" transform="translate(0 0)"/></svg>