<svg id="Layer_1" data-name="Layer 1" xmlns="http://www.w3.org/2000/svg" xmlns:xlink="http://www.w3.org/1999/xlink" viewBox="0 0 224.84 166.84"><defs><style>.cls-1{fill:url(#linear-gradient);}.cls-10,.cls-2{fill-opacity:0.5;}.cls-2{fill:url(#linear-gradient-2);}.cls-3{fill:url(#linear-gradient-3);}.cls-4{fill:url(#linear-gradient-4);}.cls-5{fill:#3d3d3d;}.cls-6{fill:#f5bbbd;}.cls-7{fill:url(#linear-gradient-5);}.cls-8{opacity:0.5;isolation:isolate;fill:url(#linear-gradient-6);}.cls-9{fill:url(#linear-gradient-7);}.cls-10{fill:url(#linear-gradient-8);}.cls-11{fill:url(#linear-gradient-9);}.cls-12{fill:#eea886;}.cls-13{fill:#cf8c6c;}.cls-14{fill:#db9c7c;}.cls-15{fill:#292c47;}.cls-16{fill:#3d416b;}.cls-17{fill:#cfbeb6;}.cls-18{fill:#d88a51;}.cls-19{fill:#eddad3;}.cls-20{fill:#a77860;}.cls-21{fill:#faa146;}.cls-22{fill:#23263d;}.cls-23{fill:#6e4629;}.cls-24{fill:#b57343;}.cls-25{fill:#efaa88;}.cls-26{fill:#323657;}.cls-27{fill:#1d2133;}.cls-28{fill:#d6d6d6;}.cls-29{fill:#e8e8e8;}.cls-30{fill:#c2c2c2;}.cls-31{fill:url(#linear-gradient-10);}.cls-32{fill:#d98b52;}.cls-33{fill:#1d3b54;}.cls-34{fill:#285173;}.cls-35{fill:#1f3f59;}.cls-36{fill:#d6c5be;}.cls-37{fill:#fae6de;}.cls-38{fill:#eea987;}.cls-39{fill:#5c544d;}.cls-40{fill:#3c4145;}.cls-41{fill:#33373b;}.cls-42{fill:#fccca2;}.cls-43{fill:#e2d2ca;}.cls-44{fill:#495054;}.cls-45{fill:#c98462;}.cls-46{fill:#de9d7d;}</style><linearGradient id="linear-gradient" x1="62" y1="151.06" x2="-0.92" y2="91.33" gradientTransform="matrix(1, 0, 0, -1, 0, 170)" gradientUnits="userSpaceOnUse"><stop offset="0" stop-color="#fff"/><stop offset="1" stop-color="#f7a491"/></linearGradient><linearGradient id="linear-gradient-2" x1="124.36" y1="140.76" x2="126.82" y2="154.09" gradientTransform="matrix(1, 0, 0, -1, 0, 170)" gradientUnits="userSpaceOnUse"><stop offset="0" stop-color="#f98386"/><stop offset="1" stop-color="#f98386" stop-opacity="0.8"/></linearGradient><linearGradient id="linear-gradient-3" x1="210.67" y1="87.21" x2="270.25" y2="120.16" xlink:href="#linear-gradient"/><linearGradient id="linear-gradient-4" x1="217.71" y1="98.74" x2="227.63" y2="106.46" gradientTransform="matrix(1, 0, 0, -1, 0, 170)" gradientUnits="userSpaceOnUse"><stop offset="0" stop-color="#e5e5e5"/><stop offset="1" stop-color="#263238"/></linearGradient><linearGradient id="linear-gradient-5" x1="149.4" y1="19.79" x2="10.68" y2="21.76" gradientTransform="matrix(1, 0, 0, -1, 0, 170)" gradientUnits="userSpaceOnUse"><stop offset="0" stop-color="#ff835b"/><stop offset="1" stop-color="#f2709c"/></linearGradient><linearGradient id="linear-gradient-6" x1="146.85" y1="58.29" x2="81.26" y2="58.73" gradientTransform="matrix(1, 0, 0, -1, 0, 170)" gradientUnits="userSpaceOnUse"><stop offset="0" stop-color="#f5929b"/><stop offset="1" stop-color="#f2709c"/></linearGradient><linearGradient id="linear-gradient-7" x1="73.4" y1="62.67" x2="133.56" y2="54.8" gradientTransform="matrix(1, 0, 0, -1, 0, 170)" gradientUnits="userSpaceOnUse"><stop offset="0" stop-color="#f98386" stop-opacity="0.44"/><stop offset="1" stop-color="#f98386"/></linearGradient><linearGradient id="linear-gradient-8" x1="169.64" y1="2.43" x2="174.34" y2="33.1" xlink:href="#linear-gradient-2"/><linearGradient id="linear-gradient-9" x1="237.95" y1="36.78" x2="116.13" y2="38.51" xlink:href="#linear-gradient-5"/><linearGradient id="linear-gradient-10" y1="110.13" x2="16.51" y2="110.13" gradientTransform="matrix(1, 0, 0, -1, 0, 170)" gradientUnits="userSpaceOnUse"><stop offset="0" stop-color="#ffe9d9"/><stop offset="1" stop-color="#c7c1b9"/></linearGradient></defs><path class="cls-1" d="M51.73,30.85a6.65,6.65,0,0,0-2.07.32,5.82,5.82,0,0,0-11.06.74,4,4,0,0,0-1.53-.29A4.12,4.12,0,0,0,33,35.73H57.53C57.53,33,54.94,30.85,51.73,30.85Z" transform="translate(0 -0.27)"/><path class="cls-2" d="M133.82,14.8a8.18,8.18,0,0,0-2.5.38,7,7,0,0,0-13.38.91,5,5,0,0,0-6.84,4.62h29.75C140.85,17.44,137.7,14.8,133.82,14.8Z" transform="translate(0 -0.27)"/><path class="cls-3" d="M218.74,78.45a7.3,7.3,0,0,0-2.17.33,6.12,6.12,0,0,0-11.63.79,4.22,4.22,0,0,0-1.6-.31A4.33,4.33,0,0,0,199,83.58h25.84C224.85,80.75,222.11,78.45,218.74,78.45Z" transform="translate(0 -0.27)"/><path class="cls-4" d="M222.45,55.18h-.32v25h.32Z" transform="translate(0 -0.27)"/><path class="cls-5" d="M222.46,55.18s-2.32-3-6.4-.58-6.35,4.22-11.07,1.72c0,0,2.82,10,8.7,6.85s8.77.91,8.77.91Z" transform="translate(0 -0.27)"/><path class="cls-6" d="M122.47,153.73,29.62,167.1l5.84-25.86Z" transform="translate(0 -0.27)"/><path class="cls-7" d="M35.46,141.24l87,12.49-109.75,1.9Z" transform="translate(0 -0.27)"/><path class="cls-8" d="M134.11,111l-51.89,7.47,3.26-14.45Z" transform="translate(0 -0.27)"/><path class="cls-9" d="M85.48,104.06l48.63,7-61.34,1.07Z" transform="translate(0 -0.27)"/><path class="cls-10" d="M214.3,136.32l-81.54,11.73,5.13-22.72Z" transform="translate(0 -0.27)"/><path class="cls-11" d="M137.88,125.33l76.42,11L117.92,138Z" transform="translate(0 -0.27)"/><path class="cls-12" d="M188.05,61.81s1.36-1.31,1.58-1.51a3.18,3.18,0,0,1,2-.13,12.44,12.44,0,0,1,2.21.33.83.83,0,0,1,.23.63,1.68,1.68,0,0,1-.22.78,1,1,0,0,1-.06,1,.87.87,0,0,1-.21.92.71.71,0,0,1-.14.76,6.55,6.55,0,0,0-1.07.23,18.09,18.09,0,0,1-4,0S187.35,64.11,188.05,61.81Z" transform="translate(0 -0.27)"/><path class="cls-13" d="M190.68,62a4.81,4.81,0,0,1-.62,1.08c-.23.2,1.48,1.42,1.48,1.42S191.69,62.56,190.68,62Z" transform="translate(0 -0.27)"/><path class="cls-14" d="M193.54,60.47s-2.3.13-2.33.52a.66.66,0,0,0,.18.56l-.93.51a.64.64,0,0,0,.42,1s-.48.6.38.79c0,0-.14.54.25.7a7.53,7.53,0,0,0,1.86,0s.35-.16.19-.76a.92.92,0,0,0,.21-.94,1.41,1.41,0,0,0,.13-1.16,1.16,1.16,0,0,0-.14-1.2S193.64,60.47,193.54,60.47Z" transform="translate(0 -0.27)"/><path class="cls-12" d="M189.7,60.29a7.67,7.67,0,0,1,2.08,1.4c.14.16.26.36.16.55s-.49.32-1.14.06a5.73,5.73,0,0,0-1.57-.28S188.65,61.57,189.7,60.29Z" transform="translate(0 -0.27)"/><path class="cls-12" d="M193.93,61.68a20,20,0,0,0-2.72,0c-.23.12-.18-.84,0-.93a17.38,17.38,0,0,1,2.5-.27A.85.85,0,0,1,193.93,61.68Z" transform="translate(0 -0.27)"/><path class="cls-12" d="M193.27,60.36s4.09.32,4.09.81-1,.81-4.09.44S193.27,60.36,193.27,60.36Z" transform="translate(0 -0.27)"/><path class="cls-15" d="M172.06,123.2s2.2,1.33,3.2,1.81,4.83.57,5.22.95.26,1.57-.37,1.71-5.3.65-6.86.28-4.46.34-5.12.11-.29-3.87,0-4.69S172.06,123.2,172.06,123.2Z" transform="translate(0 -0.27)"/><path class="cls-16" d="M172,121.67l.11,1.53s-2.91.62-4,.17l.2-1.55Z" transform="translate(0 -0.27)"/><path class="cls-15" d="M133.17,131.94s2.09,1.5,3,2.07,4.77,1,5.13,1.39.15,1.59-.5,1.67-5.32.19-6.86-.3-4.47-.05-5.1-.34,0-3.88.32-4.67S133.17,131.94,133.17,131.94Z" transform="translate(0 -0.27)"/><path class="cls-16" d="M133.45,130.46l-.27,1.48s-3,.36-3.8-.17l.32-1.53Z" transform="translate(0 -0.27)"/><path class="cls-15" d="M157.39,84.74c-.29,1-1,3.09-1.79,5.32-.18.5-.35,1-.53,1.47-1.07,3-2.07,5.73-2.07,5.73-1.53,3.67-5.12,11.48-6.85,12.86-2.34,1.85-12.73,21.34-12.73,21.34l-4.67-.59s5.08-14.57,7.2-17.79c2.37-3.59,6.06-8.3,6.47-12.3.24-2.51,1.73-10.3,1.73-10.3s1.74-8.74,5.49-14.43C150.59,74.62,157.39,84.74,157.39,84.74Z" transform="translate(0 -0.27)"/><path class="cls-15" d="M162.38,83.85s13,10.17,14.46,12.27.57,5.41.34,6.44-4.35,17.8-4.46,19.56c0,0-4,1-5-.33,0,0,1.39-15.94,2.3-19.23s-3.48-5.46-6-6.65-15.43-7.68-15.2-10.31c.15-1.82.38-3.54.38-3.54S151.68,79.94,162.38,83.85Z" transform="translate(0 -0.27)"/><path class="cls-15" d="M162.52,57.91s8.45,1.67,12.37,2.18c1.23.17,12.83,1.08,13.31,1.16s.11,4,.11,4-13-.9-13.74-.82-12.82-.82-13.92-1.66-1.93-2.22-1.22-3.58A2.66,2.66,0,0,1,162.52,57.91Z" transform="translate(0 -0.27)"/><path class="cls-17" d="M162.09,56.65a30.55,30.55,0,0,1,1.47,7c0,2.56-2.27,10.22-2.43,11.64-.43,3.82,1.24,8.54,1.24,8.54l-13.43,2.71a88.75,88.75,0,0,1-.31-8.91c.07-4.85,1.4-8.84,1.73-11.61,1.13-9.47,8.54-11.59,8.54-11.59Z" transform="translate(0 -0.27)"/><path class="cls-12" d="M168.27,45.59s1.21,2.37.62,2.73.59,2.61.72,3-.9.64-1.12.9-.87,3.23-1.73,3.32A12.49,12.49,0,0,1,161,53.07c-1.05-1.15-1.91-6.32-1.2-8.5S166.12,41.49,168.27,45.59Z" transform="translate(0 -0.27)"/><path class="cls-12" d="M164.17,54.89l-.26.61c0,.15-.14.34-.21.53s-.11.3-.19.47a15.27,15.27,0,0,0-.9,2.87c-.12,1.16-3.2-4.89-3.2-4.89A58.08,58.08,0,0,0,161.88,47C162.9,43,164.17,54.89,164.17,54.89Z" transform="translate(0 -0.27)"/><path class="cls-18" d="M168.5,46.11a3.76,3.76,0,0,0-1-4.44c-2.25-1.88-6.4,1.43-6.85,1.55s-3.05.3-1.78,5.19c1.14,4.42,1.33,4.07,1.33,4.07A10.26,10.26,0,0,1,161.52,50a4.52,4.52,0,0,1,2.42-.44s-.79-2.21.45-2.51S167.26,45.62,168.5,46.11Z" transform="translate(0 -0.27)"/><path class="cls-12" d="M162.62,48.29c-.11-.3-.46-1.61-1.52-.85s.66,3.22.85,3.25S163.54,50.84,162.62,48.29Z" transform="translate(0 -0.27)"/><path class="cls-19" d="M159.64,53.94A49.13,49.13,0,0,0,163,58.66l-.4,2.3-3.69-6.51Z" transform="translate(0 -0.27)"/><path class="cls-20" d="M164.17,54.89l-.26.62c0,.15-.14.33-.21.52a8.28,8.28,0,0,1-2.57-2.8A21.81,21.81,0,0,0,164.17,54.89Z" transform="translate(0 -0.27)"/><path class="cls-21" d="M163,58.8a8.7,8.7,0,0,1,.28,2.1c0,.23-.64-.06-.64-.06Z" transform="translate(0 -0.27)"/><path class="cls-22" d="M162.38,83.85s-.39-1.23-.46-1.53l-13.09,2.55.13,1.69S158.54,84.75,162.38,83.85Z" transform="translate(0 -0.27)"/><path class="cls-23" d="M140,92.69,134.52,92a1.06,1.06,0,0,1-.89-1.18l.43-3.63a1,1,0,0,1,1.13-.93l5.48.71a1.06,1.06,0,0,1,.89,1.19l-.43,3.62A1,1,0,0,1,140,92.69ZM135.12,87a.34.34,0,0,0-.38.3l-.42,3.63a.33.33,0,0,0,.28.39l5.48.7a.32.32,0,0,0,.37-.3l.43-3.62a.34.34,0,0,0-.28-.39Z" transform="translate(0 -0.27)"/><path class="cls-18" d="M147.16,90.73,128,88.24l-1.52,12.89,19.11,2.49Z" transform="translate(0 -0.27)"/><path class="cls-24" d="M147.16,90.74l-19.11-2.49L127.37,94l19.11,2.49Z" transform="translate(0 -0.27)"/><path class="cls-23" d="M138.4,94l-2.63-.34-.1.79,2.64.34Z" transform="translate(0 -0.27)"/><path class="cls-25" d="M135.2,86.93a2.71,2.71,0,0,1,0-.74s.17-.4.27-.72a1.91,1.91,0,0,0,.07-.24,4,4,0,0,1,.36-1.29c.27-.53,1.39-2.3,1.39-2.3l1.61.74,1.5.21a28,28,0,0,1,0,4.15,1.56,1.56,0,0,1-.06.15,5.84,5.84,0,0,1-.65.85c-.05.08-.59.82-.85.83a.86.86,0,0,1-.78-.35,2,2,0,0,1-1.09-.33,1.25,1.25,0,0,1-1-.52S135.33,87.32,135.2,86.93Z" transform="translate(0 -0.27)"/><path class="cls-26" d="M158.22,60.69s-7.73,6.29-10.5,9.76c-.87,1.08-6.16,11.9-6.51,12.32s-4.27-.88-4.27-.88,6.28-13.53,6.67-14.31,11.57-11.7,13-12.27,1.58.18,2.35,1.65A3.2,3.2,0,0,1,158.22,60.69Z" transform="translate(0 -0.27)"/><path class="cls-26" d="M162.58,65.52c-.3.84-.57,1.71-.83,2.57-.57,1.89-1.05,3.82-1.46,5.68-.15.67-.29,1.33-.41,2a39,39,0,0,1-5.47,13.47s-6-.49-7.33-1.53a116.31,116.31,0,0,1,2.28-17.56c.14-.67.3-1.33.47-2,1.75-7,4.58-13.2,9.08-13.7C159,54.57,164.14,61.07,162.58,65.52Z" transform="translate(0 -0.27)"/><path class="cls-26" d="M149.23,70.75a36.58,36.58,0,0,1-5.78,15.81c-.63,1,7.17,2.19,7.17,2.19Z" transform="translate(0 -0.27)"/><path class="cls-27" d="M155.18,63.25c-1.79,2-5.82,6.89-5.82,6.89.14-.67.3-1.33.47-2C151.25,66.66,155.12,63.31,155.18,63.25Z" transform="translate(0 -0.27)"/><path class="cls-21" d="M163.26,60.86s-.79,5.59-5.38,6c-4.12.35-10.08,2.51-12,4.17l-2.4,2.19.57-2.9s1.74-4.6,13.8-4c0,0,3.7.72,4.91-6C162.73,60.24,163.34,60.57,163.26,60.86Z" transform="translate(0 -0.27)"/><path class="cls-28" d="M175.86,15.46,156,21.05l4.14-4.82Z" transform="translate(0 -0.27)"/><path class="cls-29" d="M175.86,15.46l-10.15-2.63-3.4,3.29Z" transform="translate(0 -0.27)"/><path class="cls-30" d="M160.57,19.76l1.32,2,14-6.27Z" transform="translate(0 -0.27)"/><path class="cls-28" d="M32.78,60.81l-20.54-1,5.33-3.28Z" transform="translate(0 -0.27)"/><path class="cls-29" d="M32.78,60.81l-8.92-5.72-4.19,2.06Z" transform="translate(0 -0.27)"/><path class="cls-30" d="M17,60.06l.7,2.3,15.12-1.55Z" transform="translate(0 -0.27)"/><path class="cls-31" d="M9.42,59v.32c.8,0,1.59,0,2.36.1l0-.31C11,59.07,10.22,59,9.42,59ZM7,59.12c-.78.05-1.58.14-2.37.26l0,.31c.78-.12,1.57-.21,2.35-.26Zm7.14.33-.05.31a15.28,15.28,0,0,1,2.29.57l.1-.29A14.47,14.47,0,0,0,14.17,59.45Zm-11.85.37c-.77.16-1.55.36-2.32.59l.08.29c.76-.22,1.53-.41,2.29-.58Z" transform="translate(0 -0.27)"/><path class="cls-32" d="M101.55,10.45s3.86,8.55,1.21,9.06c-3.66.7-5.13-6.37-5.13-6.37Z" transform="translate(0 -0.27)"/><path class="cls-33" d="M115.85,106.5s2.45,3.46,2.12,4-2.92.63-4.5,0-1.6-4.7-2.32-6.45c-.29-.72.34-2.89,1.23-3a3.5,3.5,0,0,1,1.87.3S113.34,103.79,115.85,106.5Z" transform="translate(0 -0.27)"/><path class="cls-12" d="M114.27,101.29a17.82,17.82,0,0,1,.71,2.89c.16,1.17,1.76,3.65,1.67,4s-2.09.61-2.91-.21-1.36-3.15-1.54-4.57a13.82,13.82,0,0,0-.38-2S113.49,100.45,114.27,101.29Z" transform="translate(0 -0.27)"/><path class="cls-33" d="M111.09,103.77v3.62h.44v-2.81Z" transform="translate(0 -0.27)"/><path class="cls-33" d="M94.47,106.55s2.36,3.41,2,3.94-2.92.63-4.5,0-1.6-4.69-2.32-6.44c-.28-.73.34-2.9,1.23-3a3.83,3.83,0,0,1,1.94.33S92,103.84,94.47,106.55Z" transform="translate(0 -0.27)"/><path class="cls-12" d="M92.87,101.36a22.63,22.63,0,0,0,.49,2.76c.29,1.14,1.91,3.73,1.83,4s-2.1.6-2.92-.21-1.47-3.16-1.54-4.58a8.17,8.17,0,0,1,.18-2.34A1.78,1.78,0,0,1,92.87,101.36Z" transform="translate(0 -0.27)"/><path class="cls-33" d="M89.62,103.77v3.62h.44v-2.81Z" transform="translate(0 -0.27)"/><path class="cls-12" d="M110.64,53.86a3.24,3.24,0,0,1,.63.89,5.1,5.1,0,0,0,.75,1,12.83,12.83,0,0,1,1,1.8,7.63,7.63,0,0,0,.11,1.35c.11.28.42.8.2.89s-.62-.28-.62-.28a.38.38,0,0,1-.09.4.59.59,0,0,1-.6.16s-.07.33-.25.4a.77.77,0,0,1-.62.07.61.61,0,0,1-.42.25.62.62,0,0,1-.61-.21s-.42.21-.62,0-.22-.42-.33-.61a8.4,8.4,0,0,1-.34-3.46,3.23,3.23,0,0,0-.84-2.54Z" transform="translate(0 -0.27)"/><path class="cls-12" d="M102,18.34s-1.14,0-1.63,3.62.45,5.09.56,6.59,1.78,11.16,1.82,11.58.27,5.56.92,6.94,5.45,9.08,5.52,9.48,2.34-1.36,2.34-1.36-3.77-8.26-4-9.2-1.74-5.76-1.49-7.24-.67-9.57-.58-10.48S104.16,18.88,102,18.34Z" transform="translate(0 -0.27)"/><path class="cls-34" d="M102,18.34s-1.14,0-1.63,3.62a15.72,15.72,0,0,0,.24,6.45c.29,1.47,1.23,10.46,1.27,10.9s1.19,5.87,1.79,7.76c.44,1.45,4.63,9.08,4.78,9.43s3.32-1.77,3.32-1.77-4.18-8.55-4.41-9.51a39.36,39.36,0,0,1-1-5.7c0-1.75-1.06-10.34-1-11.25S105.16,19.56,102,18.34Z" transform="translate(0 -0.27)"/><path class="cls-14" d="M112.76,59.4s-.4-1.64-.89-1.87-.38.35-.38.35-.11-.59-.56-.56-.29.72-.29.72a.46.46,0,0,0-.64-.21c-.45.21-.18.75-.18.75s-.6-.44-.74.16a2.78,2.78,0,0,0,.47,2,.54.54,0,0,0,.67,0,.64.64,0,0,0,1,0s.85.18.92-.49C112.11,60.21,113,60.33,112.76,59.4Z" transform="translate(0 -0.27)"/><path class="cls-35" d="M104.69,44.94s2.12,10.28,2.59,12.87,1.85,15.11,2,17.26,2.21,10.16,2.09,10.93,3.17,15.85,3.17,15.85-3.37,1-3.92.31S105.3,87.79,105.3,84c0-5.26-3.79-12-4.26-13.13C96.59,59.93,97.55,56.41,97,55.71s-.63.44-1,2S94.92,72.9,94.49,74.6s-.08,7.57-.33,10.51-.51,16.14-.51,16.14-2.43.58-3.59,0c-.33-.16-1.18-14.69-1.22-18.19s-.09-8.34-.2-9.83c-.89-14.51-3.1-16.58.38-26.86C95.52,27.15,104.69,44.94,104.69,44.94Z" transform="translate(0 -0.27)"/><path class="cls-19" d="M98.59,17a21.87,21.87,0,0,0,3,1.26c.75.17,3.74,4.23,4.27,5.7s0,3.72-1.07,6.31-.06,3.48-.55,6.09A64.15,64.15,0,0,0,103.4,46c.09,1.45-12.42,1.73-15.28-.91,0,0,2.88-4.51,3.23-5.16s.07-4.16-.26-5.07-2.59-8.57-2.59-8.57-1.85-5.89-.18-7.24c1.45-1.17,5.39-1.59,6.09-1.85A11.47,11.47,0,0,1,98.59,17Z" transform="translate(0 -0.27)"/><path class="cls-36" d="M99.31,22.2l1.33-1.66-1.16-4.35A29.45,29.45,0,0,0,99.31,22.2Z" transform="translate(0 -0.27)"/><path class="cls-12" d="M99.31,20v2.2l-2.66-2.06Z" transform="translate(0 -0.27)"/><path class="cls-36" d="M99.3,22.19l-1.09-1.42-3.56-3.9-1.34,1.26Z" transform="translate(0 -0.27)"/><path class="cls-34" d="M94,17.29s3.1,4.93,3.26,7.12a204.72,204.72,0,0,1-2.21,23.66c-1,5.23-8.57-.58-8.57-.58s5-8.6,3.11-15.46-2.65-9.62-2.65-9.62.67-3.83,3-4.37A40.38,40.38,0,0,1,94,17.29Z" transform="translate(0 -0.27)"/><path class="cls-34" d="M106.05,24.65s.56,2.07-1.62,6.67c0,0,0,5.89.09,7.71s1.29,8.43,1.29,8.43l-3,1.66a.61.61,0,0,1-.91-.63c.6-5.28,2.61-25.32-1.69-30.71l1.71.54A14.41,14.41,0,0,1,106.05,24.65Z" transform="translate(0 -0.27)"/><path class="cls-37" d="M100.64,20.56l1.72.49-2.88-4.83Z" transform="translate(0 -0.27)"/><path class="cls-33" d="M104.94,30.16s.11,7.33-.33,10.88l-.2-9.71Z" transform="translate(0 -0.27)"/><path class="cls-12" d="M99.73,14.58s-.42,4.23-.42,5.84c0,0-1.47,1.61-4.86-3a7.47,7.47,0,0,0,.27-5.11C93.89,9.35,99.73,14.58,99.73,14.58Z" transform="translate(0 -0.27)"/><path class="cls-38" d="M92.91,6.57s-.51-.63-.69,0a8.74,8.74,0,0,0,.49,2.85s.32,1.07.43.93A34.58,34.58,0,0,0,92.91,6.57Z" transform="translate(0 -0.27)"/><path class="cls-38" d="M101.8,6.66s.51-.63.69,0A8.44,8.44,0,0,1,102,9.51s-.31,1.08-.42.94A32.49,32.49,0,0,1,101.8,6.66Z" transform="translate(0 -0.27)"/><path class="cls-38" d="M98.15.45s4.67.75,4,8.46S97.32,16,97.06,16s-4.12.17-4.46-9.24C92.6,6.76,92.45-.2,98.15.45Z" transform="translate(0 -0.27)"/><path class="cls-32" d="M93.49,6.29s5.19,1.61,7.66,1.1c0,0,.16,1,.52,1s.53-1.83.53-1.83S102.31.34,96.92.27s-4.3,6.79-4.3,6.79l.07,1.17S93.45,8.53,93.49,6.29Z" transform="translate(0 -0.27)"/><path class="cls-20" d="M95.23,15.26a3.37,3.37,0,0,0,4.14.14,2.55,2.55,0,0,1-2.16,1.26A2.35,2.35,0,0,1,95.23,15.26Z" transform="translate(0 -0.27)"/><path class="cls-37" d="M98.21,20.77,96.66,22.9l-3.17-5.54,1.25-.74Z" transform="translate(0 -0.27)"/><path class="cls-12" d="M85.54,53.35a2.86,2.86,0,0,0,.29,1.87,7,7,0,0,1,.4,3.41,51.11,51.11,0,0,1-.91,5.13c-.27.31-.63-.42-.56-.84s.4-4,.4-4a31,31,0,0,1-.89,4.48c-.29.23-.76.09-.85-.54,0,0-.86.21-.78-.84l.21-2.12s-.29,1.07-.58.26a32.27,32.27,0,0,1,.29-3.3,13.08,13.08,0,0,1,.35-2.22Z" transform="translate(0 -0.27)"/><path class="cls-34" d="M90.31,18.2a3.5,3.5,0,0,0-3.86,3.15c-.44,2.76-.6,5.84-1,7.31s-1.62,8.41-1.69,9.46c-.13,1.82-.45,3.69-.58,6.61S82,54.8,82,54.8l3.92.3s1.11-9,1.29-11.35a60.61,60.61,0,0,1,1.54-8.92s1.89-5.35,2.31-6.49S94.25,19.53,90.31,18.2Z" transform="translate(0 -0.27)"/><path class="cls-39" d="M38.56,144.25s-.28,2-.31,2.35-3.1-.18-3.1-.18L34.9,144S38.19,144,38.56,144.25Z" transform="translate(0 -0.27)"/><path class="cls-40" d="M38.28,146.33a8.41,8.41,0,0,0,1.92,1.77c.94.55,2.41.75,3,1.3.4.41,1.46,2.14-2.44,2.1s-5.78.24-6.2-.42.6-4.88.6-4.88A7.8,7.8,0,0,0,38.28,146.33Z" transform="translate(0 -0.27)"/><path class="cls-39" d="M60.51,144.25l-.31,2.35c0,.3-3.09-.18-3.09-.18L56.85,144S60.13,144,60.51,144.25Z" transform="translate(0 -0.27)"/><path class="cls-40" d="M60.24,146.33a8.27,8.27,0,0,0,1.91,1.77c.94.55,4.4,1,4.95,1.54s1.07,2-4.42,1.87c-3.9-.11-5.78.24-6.2-.42s.6-4.88.6-4.88A7.33,7.33,0,0,0,60.24,146.33Z" transform="translate(0 -0.27)"/><path class="cls-41" d="M39.66,91.43a31.72,31.72,0,0,0-1.42,9.46c.21,4.37-.85,9.17-1.28,13.74-.48,5.09-2.46,17.16-2.53,19.88s.3,11.43.3,11.43l4,.1S42,125,42.86,122.81s5.12-17.49,5.26-19.2S39.66,91.43,39.66,91.43Z" transform="translate(0 -0.27)"/><path class="cls-40" d="M56.25,92.33s2.17,12,2.46,14.67.48,13,.62,14.64,1,21.89,1.72,24.38H56s-3.88-14.7-3.88-21.66-3-15.12-4.92-19.71S40.85,100,39.67,91.43C39.66,91.43,54.65,89.63,56.25,92.33Z" transform="translate(0 -0.27)"/><path class="cls-12" d="M46,51.36s4-1.55,5.82,1.62,1.66,9.53-.35,10.31-5,.38-6.05-1.61A16.72,16.72,0,0,1,43.5,54.9,4.21,4.21,0,0,1,46,51.36Z" transform="translate(0 -0.27)"/><path class="cls-12" d="M50.8,63.09a3.72,3.72,0,0,0,.1,1.63c.27.54-5,.56-5,.56a38.29,38.29,0,0,0-1.24-5.41C43.85,57.4,50.8,63.09,50.8,63.09Z" transform="translate(0 -0.27)"/><path class="cls-42" d="M44.65,59.87s.37.63,1.86.38,3.3-2.31,3.91-2.54.63-.6.63-.6l.38.59.67,0s-.61-1.86.3-2.62-.94-6-5.71-4.25c0,0-3.66,1.06-3.53,3.23S43.84,58.78,44.65,59.87Z" transform="translate(0 -0.27)"/><path class="cls-43" d="M51.22,64.67s0-1-.46-1.13a30.71,30.71,0,0,0-5.46-.32v1.2S46.34,65.08,51.22,64.67Z" transform="translate(0 -0.27)"/><path class="cls-12" d="M51,56.32c-.08-.36-1-1.41-1.31-.29s.52,2.63,1,2.5S51.16,57.24,51,56.32Z" transform="translate(0 -0.27)"/><path class="cls-44" d="M51.22,64.67s2.44.92,5.28,2.18a6.16,6.16,0,0,1,3.62,5.05c.19,2,2.22,12.64,2.6,13.55s4.9,15.37,5,15.67-3.68,2-3.93,1.84-4.37-13.19-4.78-14.15c0,0-2.38-7.83-2.44-9,0,0-.07,3.32-.19,4.25s2.11,19.07,2,19.56-10.16,1.14-14.2.67a48.35,48.35,0,0,1-7.3-1.44s3.18-14.3,3.09-15.9c-.22-3.46-1.32-10-1.32-10l-3.3,6.52,4.22,11.37-1,3.46s-7.84-12.41-8.1-13.54a6.39,6.39,0,0,1,.8-3.51c.41-.94,3.13-8.05,3.77-9s1.71-5,4.31-6.13a39,39,0,0,1,5.81-1.69Z" transform="translate(0 -0.27)"/><path class="cls-28" d="M56.6,107.66l18.46-5-3.3-13.51-18.46,5Z" transform="translate(0 -0.27)"/><path class="cls-45" d="M69.38,104.06s.53.9.72,1.15-.47.42-.76.15S69.38,104.06,69.38,104.06Z" transform="translate(0 -0.27)"/><path class="cls-46" d="M65.53,107.12a2,2,0,0,1-.37-.56s-.1-.4-.18-.69a1.44,1.44,0,0,0-.07-.22,3.9,3.9,0,0,1-.42-1.17c-.09-.56-.32-3-.32-3l1.44-.38,1.14-.25a25,25,0,0,1,2.61,3.09.83.83,0,0,1,0,.15,5.24,5.24,0,0,1,0,1c0,.08,0,.94-.2,1.11a.8.8,0,0,1-.76.19,1.92,1.92,0,0,1-1,.39,1.13,1.13,0,0,1-1,.2S65.85,107.33,65.53,107.12Z" transform="translate(0 -0.27)"/><path class="cls-44" d="M60,91.46s3.27,10.4,3.88,11.49a10.42,10.42,0,0,0,3.93-1.84l-3.6-11.23Z" transform="translate(0 -0.27)"/></svg>