<svg id="Layer_1" data-name="Layer 1" xmlns="http://www.w3.org/2000/svg" viewBox="0 0 194 141"><defs><style>.cls-1{fill:#e0e0e0;}.cls-2{fill:#fff;}.cls-13,.cls-3,.cls-4{fill:none;}.cls-3,.cls-4{stroke:#16123e;stroke-linecap:round;stroke-linejoin:round;}.cls-3{stroke-width:5.15px;}.cls-4{stroke-width:3.86px;}.cls-5,.cls-7{fill:#f98188;}.cls-6{fill:#f5f1e2;}.cls-7{fill-opacity:0.39;}.cls-8{fill:#c9c7c5;}.cls-9{fill:#8e8e8e;}.cls-10,.cls-19{fill:#3d3d3d;}.cls-11{fill:#f9af8b;}.cls-12{fill:#946446;}.cls-13{stroke:#febe10;stroke-miterlimit:10;stroke-width:2.23px;}.cls-14{fill:#febe10;}.cls-15{fill:#734d34;}.cls-16{fill:#2a3c88;}.cls-17{fill:#e5967c;}.cls-18{fill:#16123e;}.cls-19{fill-opacity:0.8;}.cls-20{fill:#414042;}</style></defs><path class="cls-1" d="M128,141c36.45,0,66-3.58,66-8s-29.55-8-66-8-66,3.58-66,8S91.55,141,128,141Z" transform="translate(0 0)"/><path class="cls-2" d="M1.91,72A5.59,5.59,0,0,1,6,67.09c4.43-.86,5.18,4.53,4.77,7.58-.27,2-.39,4,1,5.67s4.14,3.33,2.81,5.88c-.66,1.25-1.86,2.17-2.35,3.49-.64,1.71.34,3.1,1.09,4.59,2.15,4.32-2.45,5.82-5.43,7.14a2.72,2.72,0,0,1-3.83-2.27C4,98,4.24,96.81,3.35,95.88c-.72-.76-1.82-1-2.53-1.8-2.74-3,2.26-6,2.24-9,0-2.09-2.5-3.26-2.13-5.45.23-1.39.84-2.72.95-4.14.08-1.06-.06-2.13,0-3.2C1.88,72.2,1.89,72.08,1.91,72Z" transform="translate(0 0)"/><path class="cls-3" d="M6.59,69.37s1.6,32.6.44,39.9" transform="translate(0 0)"/><path class="cls-4" d="M7,81.29,4.36,76.94" transform="translate(0 0)"/><path class="cls-4" d="M7.26,87l3.5-4.23" transform="translate(0 0)"/><path class="cls-4" d="M6.78,75.22l2.14-2.59" transform="translate(0 0)"/><path class="cls-4" d="M7.39,92.56l-3-3.32" transform="translate(0 0)"/><path class="cls-4" d="M7.51,97.56l2.84-4.68" transform="translate(0 0)"/><path class="cls-5" d="M12.36,114.48c-1.68,2-7.83,2-9.51,0-.93-1.12,0-6.34,0-6.34h9.51S13.29,113.36,12.36,114.48Z" transform="translate(0 0)"/><path class="cls-6" d="M2.52,110.65c0,.47-.07,1-.08,1.42a17.82,17.82,0,0,0,10.33,0c0-.47,0-1-.08-1.42A18,18,0,0,1,2.52,110.65Z" transform="translate(0 0)"/><path class="cls-7" d="M12.76,108.13c-1.82,1.54-8.5,1.54-10.32,0-.27-.23,0-1.31,0-1.31H12.76S13,107.9,12.76,108.13Z" transform="translate(0 0)"/><path class="cls-8" d="M73.51,137.57h-.84L71.39,94H74.8Z" transform="translate(0 0)"/><path class="cls-8" d="M182.85,137.57H182L180.73,94h3.41Z" transform="translate(0 0)"/><path class="cls-9" d="M188.23,91.91H67.3V94.5H188.23Z" transform="translate(0 0)"/><path class="cls-1" d="M44.5,108c9.11,0,16.5-2.24,16.5-5s-7.39-5-16.5-5S28,100.24,28,103,35.39,108,44.5,108Z" transform="translate(0 0)"/><path class="cls-10" d="M136.75,129.11a4.36,4.36,0,0,0-2.12.37c-.75.41,1.58,2.3,2,2.68a5.68,5.68,0,0,0,2.28.48c.76,0,.34-.3.58-1.11a2.07,2.07,0,0,0-.41-1.78A4.82,4.82,0,0,0,136.75,129.11Z" transform="translate(0 0)"/><path class="cls-10" d="M163.61,91.13h2.84l6.4.29a7.77,7.77,0,0,1,.58,5.83c-.76,2.15-2.26,3.25-4,3.25h-8.76c-1.78,0-3.28-1.4-4-3.6-.55-1.59.23-3.4.86-5.76h6.14Z" transform="translate(0 0)"/><path class="cls-11" d="M137.52,129.49a11.31,11.31,0,0,0,.28-3.73l2.71.07a23.38,23.38,0,0,0,.08,3.52,3.31,3.31,0,0,1-2.94,1C135.65,130.17,137.52,129.49,137.52,129.49Z" transform="translate(0 0)"/><path class="cls-10" d="M164.12,90.12l-24.79,8.46c-1.62.41-3.14,2.1-2.76,3.64s2.51,2.33,4.76,1.78l23.88-4Z" transform="translate(0 0)"/><path class="cls-10" d="M140.62,128.93l1.54-25.68c0-2.31-1.3-4.19-2.87-4.18s-2.86,1.89-2.85,4.2l1,25.68Z" transform="translate(0 0)"/><path class="cls-10" d="M140.9,129.68c1,1.17.53,2.94-.89,3-4.47.22-3.87-1.34-4.61-3.1-.12-.27.5,0,2.12-.08.69,0,1.14-.18,1.67-.19C140.16,129.3,140.43,129.14,140.9,129.68Z" transform="translate(0 0)"/><path class="cls-10" d="M159.26,124.83a4.23,4.23,0,0,0-2.11.37c-.76.4,1.57,2.29,2,2.68a5.81,5.81,0,0,0,2.28.47c.76,0,.34-.29.57-1.1a2.06,2.06,0,0,0-.4-1.78A4.77,4.77,0,0,0,159.26,124.83Z" transform="translate(0 0)"/><path class="cls-11" d="M160.05,125.21a11.31,11.31,0,0,0,.28-3.73l2.71.07a23.28,23.28,0,0,0,.08,3.51,3.28,3.28,0,0,1-2.94,1C158.17,125.89,160.05,125.21,160.05,125.21Z" transform="translate(0 0)"/><path class="cls-10" d="M172.54,91.6l-10.7,2.69c-1.62.41-3.13,2.1-2.75,3.64s2.51,2.33,4.76,1.78l9.58-2.47Z" transform="translate(0 0)"/><path class="cls-10" d="M163.13,124.64,164.68,99c0-2.31-1.3-4.19-2.89-4.17S158.93,96.68,159,99l1,25.68Z" transform="translate(0 0)"/><path class="cls-10" d="M163.42,125.38c1,1.17.52,2.94-.89,3-4.47.22-3.87-1.34-4.62-3.1-.11-.27.51,0,2.13-.08.69,0,1.14-.18,1.67-.19C162.68,125,163,124.85,163.42,125.38Z" transform="translate(0 0)"/><path class="cls-12" d="M167.69,84.83a2,2,0,0,1-.92,2.75l-.12.07-.06,0h0A15.94,15.94,0,0,1,163.69,89a1.89,1.89,0,0,1-.78.08c-.29-.06-.65-.5-.87-1,0,0-.08-.19-.1-.23-.07-.22-.49-1-.33-1.18a13.58,13.58,0,0,1,2.63-1.61,2.48,2.48,0,0,1-.87-.17c-.11-.06-.32-.52-.2-.65.42-.46,3.4-.09,3.4-.09A1.54,1.54,0,0,1,167.69,84.83Z" transform="translate(0 0)"/><path class="cls-2" d="M179.17,79.08c.74.93,1.27,1.76,2.51.76s1.64-2.55.9-3.49c0,0-8.14-14.72-9.73-16s-2.28-.67-3.94.66c-.73.78.32,2.75,1.23,3.89Z" transform="translate(0 0)"/><path class="cls-2" d="M166.25,84.23,179.82,76c1.1-.46,2-1.16,2.61.3s.24,3-.86,3.49l-14.1,7.23Z" transform="translate(0 0)"/><path class="cls-13" d="M162.5,50.83A1.61,1.61,0,0,0,164,52.56,1.63,1.63,0,0,0,165.68,51a1.62,1.62,0,0,0-1.5-1.73A1.6,1.6,0,0,0,162.5,50.83Z" transform="translate(0 0)"/><path class="cls-13" d="M158.69,50.62a1.59,1.59,0,1,0,1.67-1.56A1.61,1.61,0,0,0,158.69,50.62Z" transform="translate(0 0)"/><path class="cls-14" d="M167.19,50l-1.45,1.09-.15-.23Z" transform="translate(0 0)"/><path class="cls-13" d="M162.5,50.83l-.64,0" transform="translate(0 0)"/><path class="cls-15" d="M163.1,51.29h4.37v7.19l-3.81,5.74-.57-5.74V51.29Z" transform="translate(0 0)"/><path class="cls-12" d="M166.89,54.87s-2.66,2.59-4.62,2.66c-1.17,0-3.31-3.87-3.3-4.36a31.45,31.45,0,0,1,1.66-8.27h7.74Z" transform="translate(0 0)"/><path class="cls-12" d="M162.49,51.4c0,.76-.45,1.37-1,1.37s-1-.61-1-1.37.45-1.38,1-1.38S162.49,50.63,162.49,51.4Z" transform="translate(0 0)"/><path class="cls-12" d="M140,66a2,2,0,0,1-2.87-.41,1.09,1.09,0,0,1-.1-.11l0-.06h0a15.35,15.35,0,0,1-1.8-2.61,1.82,1.82,0,0,1-.22-.74c0-.31.37-.74.77-1l.22-.14c.2-.13.94-.68,1.09-.54a13.65,13.65,0,0,1,2.07,2.28,2.46,2.46,0,0,1,0-.88c0-.13.46-.41.61-.31.52.33.71,3.33.71,3.33A1.66,1.66,0,0,1,140,66Z" transform="translate(0 0)"/><path class="cls-2" d="M147.76,76.53c-.55,1.06-1.07,1.89.34,2.61s3,.44,3.55-.62c0,0,10.07-13.49,10.54-15.44s-.33-2.36-2.24-3.33c-1-.35-2.37,1.42-3,2.73Z" transform="translate(0 0)"/><path class="cls-2" d="M140.35,64.46l10.51,11.85c.67,1,1.51,1.75.19,2.63s-2.94.79-3.59-.22l-9.67-12.56Z" transform="translate(0 0)"/><path class="cls-2" d="M159.22,73.21c-2.53-7.84-.15-13.31-.15-13.31l4-2,4.37,0,3.94,2a16.21,16.21,0,0,1,1.37,13.49c-2.1,6.52,2.09,17.67,2.09,17.67A32.64,32.64,0,0,1,165.24,93,39,39,0,0,1,155.06,91S161.32,79.73,159.22,73.21Z" transform="translate(0 0)"/><path class="cls-14" d="M161.85,52.18h-.37V53h.37Z" transform="translate(0 0)"/><path class="cls-10" d="M161.05,42.47c-.21.2-.5.17-.7.33-.51.38-.41,1.12-.91,1.52-.27.22-.46.25-.57.6s0,.73-.08,1-.19.27-.21.54.14.6,0,.89-.38.3-.47.6a3.53,3.53,0,0,0,0,1,8,8,0,0,0,.31,1.37c.47.06.88,1.19,1.09,1.53s0,.76.19,1.14.68.58.92.91.11.73.39,1.05a9.81,9.81,0,0,0,1.25.85c.41.33.41.79,1,1,.77.29,1.25,0,1.89.52a1.19,1.19,0,0,0,1.14.36,3.59,3.59,0,0,1,.94-.32c.75,0,1.42.36,2.17.18s1-.87,1.75-1c.59-.1,1.16.06,1.45-.59s.11-.68.82-.91c1.28-.41,1.11-1.52,2-2.19.7-.54.68-.72.6-1.5a4.65,4.65,0,0,1-.1-1.85c.13-.28.37-.21.4-.59,0-.64-.33-.86-.09-1.58.08-.27.27-.58.19-.88s-.38-.5-.44-.83c-.1-.55.2-1.29-.15-1.72-.21-.27-.66-.33-.88-.59s-.22-.69-.32-1c-.26-.87-1-.46-1.63-.93-.39-.3-.48-.86-.8-1.23s-.51-.33-1-.26c-.66.11-.79-.3-1.34-.54s-.6,0-1,.15c-.62.19-.55-.18-1.09-.3-.32-.07-.47.12-.79.21-.55.14-1-.28-1.45-.26s-.45.31-.77.52c-.66.42-1.36,0-1.82.66-.23.36-.22.47-.63.64s-.59.11-.82.49-.17.69-.35.93C161.1,42.42,161.07,42.44,161.05,42.47Z" transform="translate(0 0)"/><path class="cls-14" d="M161.33,57H161v.74h.35Z" transform="translate(0 0)"/><path class="cls-10" d="M166.06,104.81l.49,3.76v17.72l-.49,3.76h3.5l-.51-3.76V108.57l.51-3.76Z" transform="translate(0 0)"/><path class="cls-5" d="M183.77,88.49A3.53,3.53,0,0,1,180.23,92H164.87a3.53,3.53,0,0,1-3.54-3.53V74.2a3.53,3.53,0,0,1,3.54-3.53h15.36a3.53,3.53,0,0,1,3.54,3.53Z" transform="translate(0 0)"/><path class="cls-5" d="M180.42,66.93A1.38,1.38,0,0,1,179,68.31h-6a1.38,1.38,0,0,1-1.38-1.38V61.36A1.37,1.37,0,0,1,173,60h6a1.38,1.38,0,0,1,1.39,1.38Z" transform="translate(0 0)"/><path class="cls-5" d="M185.23,103.39a2.93,2.93,0,0,1-2.93,2.93h-29a2.94,2.94,0,1,1,0-5.87h29A2.93,2.93,0,0,1,185.23,103.39Z" transform="translate(0 0)"/><path class="cls-10" d="M180.85,129.57H154.77v1.76h26.08Z" transform="translate(0 0)"/><path class="cls-10" d="M156.21,133.25a1.44,1.44,0,0,1-2.88,0v-2.33a1.44,1.44,0,0,1,2.88,0Z" transform="translate(0 0)"/><path class="cls-10" d="M182.29,133.25a1.44,1.44,0,0,1-2.88,0v-2.33a1.44,1.44,0,0,1,2.88,0Z" transform="translate(0 0)"/><path class="cls-10" d="M178,66.39h-3.13v39.94H178Z" transform="translate(0 0)"/><path class="cls-10" d="M82.41,130.84a4.35,4.35,0,0,0-2.25.4c-.81.44,1.68,2.46,2.14,2.86a6.08,6.08,0,0,0,2.43.51c.82,0,.35-.31.61-1.18a2.25,2.25,0,0,0-.43-1.91A4.93,4.93,0,0,0,82.41,130.84Z" transform="translate(0 0)"/><path class="cls-11" d="M118.79,89.36a2,2,0,0,1,.19,2.83.48.48,0,0,1-.09.11.14.14,0,0,1,0,.06,15.39,15.39,0,0,1-2.13,2.26,1.77,1.77,0,0,1-.66.35,1.7,1.7,0,0,1-1.15-.54s-.14-.15-.18-.18-.82-.77-.74-1a12.87,12.87,0,0,1,1.79-2.42,4,4,0,0,1-.85.17c-.13,0-.48-.36-.42-.52.21-.56,3-1.33,3-1.33A1.56,1.56,0,0,1,118.79,89.36Z" transform="translate(0 0)"/><path class="cls-16" d="M126.33,79.73c.72.91,1.25,1.71,2.47.75s1.6-2.5.87-3.41c0,0-8-14.42-9.52-15.63s-2.23-.65-3.87.66c-.71.76.31,2.69,1.21,3.81Z" transform="translate(0 0)"/><path class="cls-16" d="M117.27,89.34l9.28-12.42c.82-.84,1.38-1.8,2.48-.7s1.33,2.66.51,3.48L119.41,91.45Z" transform="translate(0 0)"/><path class="cls-10" d="M111.16,90.2h3l6.86.31a8.31,8.31,0,0,1,.62,6.24c-.82,2.3-2.42,3.45-4.3,3.45H108c-1.91,0-3.51-1.5-4.32-3.85-.59-1.7.25-3.63.92-6.16h6.57Z" transform="translate(0 0)"/><path class="cls-11" d="M83.25,131.23a11.93,11.93,0,0,0,.31-4l2.89.08a26.25,26.25,0,0,0,.1,3.77,3.5,3.5,0,0,1-3.14,1.08C81.24,132,83.25,131.23,83.25,131.23Z" transform="translate(0 0)"/><path class="cls-11" d="M88,66.91a2,2,0,0,1-2.8-.4.52.52,0,0,1-.1-.11.17.17,0,0,1,0-.06,15,15,0,0,1-1.77-2.55,1.84,1.84,0,0,1-.23-.72c0-.3.37-.73.77-1l.21-.14c.19-.11.91-.66,1.07-.52a13.5,13.5,0,0,1,2,2.23,2.42,2.42,0,0,1,0-.87c0-.12.44-.39.59-.29.5.32.69,3.26.69,3.26A1.52,1.52,0,0,1,88,66.91Z" transform="translate(0 0)"/><path class="cls-10" d="M95.58,77.23c-.53,1-1,1.85.33,2.56s3,.43,3.48-.6c0,0,9.85-13.21,10.32-15.11s-.32-2.3-2.18-3.25c-1-.33-2.32,1.39-3,2.67Z" transform="translate(0 0)"/><path class="cls-10" d="M88.33,65.42,98.62,77c.65,1,1.48,1.71.19,2.57s-2.87.77-3.52-.21L85.82,67.09Z" transform="translate(0 0)"/><path class="cls-10" d="M111.7,89.12l-26.52,9c-1.73.43-3.35,2.26-2.94,3.9s2.68,2.5,5.08,1.91l25.55-4.29Z" transform="translate(0 0)"/><path class="cls-10" d="M86.56,130.63l1.66-27.47c0-2.47-1.39-4.48-3.07-4.48s-3.07,2-3.06,4.49l1.06,27.46Z" transform="translate(0 0)"/><path class="cls-10" d="M106.79,74c-2.47-7.66-.13-13-.13-13l4.21-2.1h3.68l4.21,2.1a15.86,15.86,0,0,1,1.33,13.2c-2.06,6.38,2,17.3,2,17.3a31.75,31.75,0,0,1-9.43,1.89,38.31,38.31,0,0,1-10-1.89S108.86,80.37,106.79,74Z" transform="translate(0 0)"/><path class="cls-17" d="M110.6,52.52h4.28v7l-3.71,5.61-.57-5.61Z" transform="translate(0 0)"/><path class="cls-11" d="M114.6,56.13S112,58.7,110,58.76c-1.17,0-3.3-3.84-3.29-4.33a31.47,31.47,0,0,1,1.65-8.22h7.7Z" transform="translate(0 0)"/><path class="cls-10" d="M116,42c1.55.4,3.05,4.2,3,9.52,0,2.15-3.91,3.78-4.24,1.11a17.65,17.65,0,0,0-.57-4c-.21-1-6.23.26-6.66-1.33C105.71,40.76,110.33,40.53,116,42Z" transform="translate(0 0)"/><path class="cls-10" d="M112.28,42.45c4.28.63,4.87,6.62,8.29,7.44,2.46.59,5.05,2.12,5.78,4.7A12.15,12.15,0,0,1,125,63.4c-1.08,1.81.22,4.25-2.1,5.32-.41.18-1,.16-1.38.34a11.31,11.31,0,0,0-1.26.82A5.5,5.5,0,0,1,117.34,71a3.3,3.3,0,0,1-2.11-.81,7.5,7.5,0,0,0-2-.67,4.81,4.81,0,0,1-2.94-4.13c-.13-1.56.17-3.43-.32-4.92a6,6,0,0,1-.39-3.63c.41-2.2,0-2.94-1.39-4.64a29.22,29.22,0,0,1-2.69-3.54C105,46,107.05,41.69,112.28,42.45Z" transform="translate(0 0)"/><path class="cls-10" d="M86.87,131.43c1.08,1.25.57,3.14-1,3.21-4.79.24-4.15-1.42-4.93-3.31-.13-.29.54,0,2.27-.08.74,0,1.22-.19,1.79-.2C86.07,131,86.36,130.87,86.87,131.43Z" transform="translate(0 0)"/><path class="cls-10" d="M106.51,126.25a4.45,4.45,0,0,0-2.25.4c-.81.44,1.67,2.45,2.15,2.86a6.08,6.08,0,0,0,2.43.51c.81,0,.35-.32.61-1.18a2.25,2.25,0,0,0-.43-1.91A5,5,0,0,0,106.51,126.25Z" transform="translate(0 0)"/><path class="cls-11" d="M107.35,126.64a12,12,0,0,0,.31-4l2.89.08a24.47,24.47,0,0,0,.1,3.77,3.5,3.5,0,0,1-3.14,1.08C105.34,127.37,107.35,126.64,107.35,126.64Z" transform="translate(0 0)"/><path class="cls-10" d="M120.71,90.7l-11.44,2.88c-1.74.43-3.35,2.25-2.94,3.9s2.68,2.5,5.09,1.91l10.26-2.64Z" transform="translate(0 0)"/><path class="cls-10" d="M110.66,126l1.66-27.48c0-2.47-1.39-4.48-3.07-4.48s-3.07,2-3.06,4.5l1.06,27.47Z" transform="translate(0 0)"/><path class="cls-10" d="M111,126.84c1.08,1.25.56,3.14-.94,3.21-4.79.24-4.15-1.42-4.94-3.31-.12-.29.55,0,2.28-.08.74,0,1.22-.19,1.79-.2C110.17,126.44,110.46,126.28,111,126.84Z" transform="translate(0 0)"/><path class="cls-10" d="M108.71,53.64h-.36v.79h.36Z" transform="translate(0 0)"/><path class="cls-11" d="M109.4,52.67c0,.75-.45,1.37-1,1.37s-1-.62-1-1.37.45-1.36,1-1.36S109.4,51.92,109.4,52.67Z" transform="translate(0 0)"/><path class="cls-10" d="M113.77,104.83l.55,4v19l-.55,4h3.76l-.53-4v-19l.53-4Z" transform="translate(0 0)"/><path class="cls-5" d="M132.73,87.37a3.79,3.79,0,0,1-3.79,3.79H112.49a3.79,3.79,0,0,1-3.79-3.79V72.07a3.79,3.79,0,0,1,3.79-3.79h16.45a3.79,3.79,0,0,1,3.79,3.79Z" transform="translate(0 0)"/><path class="cls-5" d="M129.13,64.31a1.48,1.48,0,0,1-1.47,1.48h-6.42a1.48,1.48,0,0,1-1.47-1.48v-6a1.47,1.47,0,0,1,1.47-1.47h6.42a1.47,1.47,0,0,1,1.47,1.47Z" transform="translate(0 0)"/><path class="cls-5" d="M134.3,103.3a3.14,3.14,0,0,1-3.15,3.15h-31a3.15,3.15,0,1,1,0-6.3h31A3.16,3.16,0,0,1,134.3,103.3Z" transform="translate(0 0)"/><path class="cls-10" d="M129.6,131.32H101.7v1.88h27.9Z" transform="translate(0 0)"/><path class="cls-10" d="M103.24,135.26a1.54,1.54,0,0,1-3.08,0v-2.5a1.54,1.54,0,1,1,3.08,0Z" transform="translate(0 0)"/><path class="cls-10" d="M131.15,135.26a1.54,1.54,0,1,1-3.07,0v-2.5a1.54,1.54,0,1,1,3.07,0Z" transform="translate(0 0)"/><path class="cls-10" d="M126.5,63.72h-3.35v42.72h3.35Z" transform="translate(0 0)"/><path class="cls-18" d="M33.86,101.79a3.83,3.83,0,0,0,5,.45,12,12,0,0,1-.65-3.86c-.87.05-2.89-.22-3.71-.18C34.51,98.21,34.19,100,33.86,101.79Z" transform="translate(0 0)"/><path class="cls-10" d="M33.37,45.61,33.71,73c0,2.35,1.31,4.24,2.92,4.24s2.92-1.89,2.92-4.24l2.76-24.78Z" transform="translate(0 0)"/><path class="cls-10" d="M38.22,99.32l1.32-26c0-2.34-1.31-4.24-2.91-4.24s-2.92,1.9-2.92,4.24l.65,26Z" transform="translate(0 0)"/><path class="cls-5" d="M28.44,37a1.81,1.81,0,0,1-2.79.75c-1.35-.74-2-2.17-1.46-3.18,0,0,5.29-15.49,6.59-16.94s2.06-1,3.9,0,.67,3.09,0,4.34Z" transform="translate(0 0)"/><path class="cls-5" d="M51.53,16.67c-1.56-.93-9.35-2.17-9.84-2.14s-8.28,1.25-9.85,2.18c-1.87,1.11.5,9.05.92,16.73.3,5.62.62,12.3.62,12.3l8.32-.12,8.3.12s.32-6.05.63-11.68C51,26.38,53.39,17.78,51.53,16.67Z" transform="translate(0 0)"/><path class="cls-19" d="M45.51,16.37c-.18-2.14-3.16-1.84-3.38-1.8s-3.41-.15-3.65,1.84c-.16,1.27-.32,9-.16,16.72.13,5.63,0,12.61,0,12.61s2.5,0,3.66,0,3.54,0,3.68,0-.13-6.36,0-12C45.83,26.09,45.62,17.65,45.51,16.37Z" transform="translate(0 0)"/><path class="cls-10" d="M43,45.61H33.37c0,3.16,1.39,5.72,4.24,5.72h8.14c2.85,0,4.2-2.55,4.24-5.72Z" transform="translate(0 0)"/><path class="cls-10" d="M49.52,45.25l3.81,27.12c.36,2.32-.65,4.38-2.24,4.63s-3.18-1.43-3.53-3.74c0,0-2.44-8.81-3.15-11.83-.76-3.19-2.09-13-2.09-13Z" transform="translate(0 0)"/><path class="cls-10" d="M49.39,99S48.28,89.14,48,85.83,47.46,73,47.46,73c0-2.34,1.26-4.25,2.87-4.27s3,1.88,3,4.21l-1,26Z" transform="translate(0 0)"/><path class="cls-18" d="M49.3,102.18l7.16-.07s1.2.13,1.29-.21c.41-1.61-3.76-2.86-5.24-3.31a13.69,13.69,0,0,0-3.25,0Z" transform="translate(0 0)"/><path class="cls-2" d="M41.21,19.22l1.1-1.88,1.09,1.88L42.31,21Z" transform="translate(0 0)"/><path class="cls-2" d="M42,20.34,40.9,39.84l1.41,1.76,1.41-1.76-1.08-19.5Z" transform="translate(0 0)"/><path class="cls-18" d="M33.72,103.85a1.67,1.67,0,0,1-.17-.89,4.18,4.18,0,0,1,2.58-3.35c1.12-.2,3,2.78,3,3.34a1.59,1.59,0,0,1-.5,1.39,5.51,5.51,0,0,1-4.27.19A1.69,1.69,0,0,1,33.72,103.85Z" transform="translate(0 0)"/><path class="cls-10" d="M41.24,19.26a7.48,7.48,0,0,0,1.07-1.94c.15-.95-.37-2-.43-2.87-.45,0-3.28,0-3.6,1.74A16,16,0,0,0,41.24,19.26Z" transform="translate(0 0)"/><path class="cls-10" d="M43.41,19.26a7.52,7.52,0,0,1-1.08-1.94c-.15-.95.37-2,.44-2.87.44,0,3.27,0,3.59,1.74A15.15,15.15,0,0,1,43.41,19.26Z" transform="translate(0 0)"/><path class="cls-10" d="M47.3,6.66c-.68.59-.87-.71-1-1.15a2.43,2.43,0,0,1,0-1.53.61.61,0,0,1,1-.11C47.75,4.44,47.9,6.15,47.3,6.66Z" transform="translate(0 0)"/><path class="cls-15" d="M44.33,15.26l-2,2.06-2-2.06V8.62h4Z" transform="translate(0 0)"/><path class="cls-12" d="M40.91,11.87s3.18,2.93,4.88,2.54c.9-.22,2.09-2.61,2.15-4.05A20.2,20.2,0,0,0,46.46,3H39.6Z" transform="translate(0 0)"/><path class="cls-2" d="M46.76,10.13a6.53,6.53,0,0,1-2.58.28s.57,1.5,1.42,1.42S46.76,10.13,46.76,10.13Z" transform="translate(0 0)"/><path class="cls-15" d="M45.58,8.52l.16.21c0,.06.1.12.15.2a2.62,2.62,0,0,1,.17.27.36.36,0,0,1,0,.23.42.42,0,0,1-.16.14.74.74,0,0,1-.28.06h-.27l.23-.11.22-.12s.05-.05.06-.06a.26.26,0,0,0,0-.07A1.15,1.15,0,0,0,45.72,9c0-.09-.07-.18-.1-.24A.76.76,0,0,1,45.58,8.52Z" transform="translate(0 0)"/><path class="cls-20" d="M46.88,7.77c0,.24-.11.44-.25.44s-.26-.2-.26-.44.12-.43.26-.43S46.88,7.53,46.88,7.77Z" transform="translate(0 0)"/><path class="cls-20" d="M44,8.29c0,.27-.12.49-.28.49s-.28-.22-.28-.49.13-.48.28-.48S44,8,44,8.29Z" transform="translate(0 0)"/><path class="cls-10" d="M46.16,6.32a.12.12,0,0,0,0-.05s0-.08.09-.1a.67.67,0,0,1,.18-.11.93.93,0,0,1,.24,0,.49.49,0,0,1,.23.11c.08,0,.09.13.12.18a.32.32,0,0,1,0,.14s0,0,0,0a1.41,1.41,0,0,1-.1-.14s-.06-.06-.11-.09-.11,0-.16,0a.86.86,0,0,0-.16,0h-.15Z" transform="translate(0 0)"/><path class="cls-10" d="M43.74,6.86h-.18a.62.62,0,0,0-.16,0,.32.32,0,0,0-.15.06s-.1,0-.13.09L43,7.17,43,7.34a.12.12,0,0,1,0,0,.38.38,0,0,1-.05-.14A.41.41,0,0,1,43,6.94a.49.49,0,0,1,.18-.17.62.62,0,0,1,.23-.07.42.42,0,0,1,.2,0,.21.21,0,0,1,.12.08Z" transform="translate(0 0)"/><path class="cls-10" d="M47.39,2.59l-.06-.08a5.42,5.42,0,0,0-.47-.89c-.17-.18-.52-.52-.79-.47.06,0-.08-.26-.09-.27a.89.89,0,0,0-.27-.15c-.13,0-.27,0-.39,0s-.16-.2-.27-.25-.31,0-.45,0-.33-.22-.53-.23-.44.17-.59,0S43.3,0,43.07,0a2.87,2.87,0,0,0-.67.3,3.2,3.2,0,0,1-.63.13c-.15.06-.26.2-.42.25s-.52-.06-.76.11-.19.44-.37.57-.38,0-.56.11-.13.44-.22.6-.25.31-.35.51-.3.35-.4.57-.07.46-.14.65c0,0-.15.11-.18.18s0,.32,0,.45a6.25,6.25,0,0,0,.06,1.21,6.35,6.35,0,0,1-.08,1.07,1.6,1.6,0,0,0-.08.88,2.77,2.77,0,0,0,1,2c.56.49.46,1,1.12,1.38V9.12a2.15,2.15,0,0,1-.09-.67.76.76,0,0,1,.07-.13c.07-.11.15-.1.3-.24a1.77,1.77,0,0,0,.14-.16s.09.06.14,0c.22-.07-.07.08.08-.12.34-.44.14-1.35.09-1.84s-.09-.71-.13-1.07c-.06-.6,1.07-1.16,1.22-1.18a8.72,8.72,0,0,1,1.91,0,4.36,4.36,0,0,1,.88.14,2.36,2.36,0,0,0,1,.1,1.52,1.52,0,0,0,.84-.26c.11.2.39.42.63.3,0,.09.34-.32.27-.69A2.06,2.06,0,0,0,47.39,2.59Z" transform="translate(0 0)"/><path class="cls-12" d="M39,8.69a1.11,1.11,0,1,0,1.11-1.11A1.09,1.09,0,0,0,39,8.69Z" transform="translate(0 0)"/><path class="cls-12" d="M33.11,47.71a2,2,0,0,0-.67,2.74.52.52,0,0,0,.06.13l0,.06h0a15.32,15.32,0,0,0,1.69,2.58,1.92,1.92,0,0,0,.59.47A1.76,1.76,0,0,0,36,53.37l.2-.14c.18-.14,1-.6.88-.8a13.74,13.74,0,0,0-1.32-2.69,3.25,3.25,0,0,0,.8.32c.13,0,.52-.27.5-.44-.12-.58-2.76-1.83-2.76-1.83A1.45,1.45,0,0,0,33.11,47.71Z" transform="translate(0 0)"/><path class="cls-5" d="M34.6,48,28.14,34c-.66-.95-1.49-1.76-2.75-.88s-1.76,2.37-1.09,3.33l7.86,13.25Z" transform="translate(0 0)"/><path class="cls-10" d="M33.79,52.21a1.93,1.93,0,0,1,.56-1c.52-.63.51-1.39,1.07-1.93s1.3-.72,1.83-.06a4.34,4.34,0,0,1,1.21,2.23c.13,1.23-1.14,3.22-2.54,3.21a4.13,4.13,0,0,1-1.29-.36C33.67,54,33.65,53.14,33.79,52.21Z" transform="translate(0 0)"/><path class="cls-12" d="M71.22,41.58a2,2,0,0,0,.68,2.74l.12.08.06,0h0a16,16,0,0,0,2.71,1.48,1.91,1.91,0,0,0,.73.14c.3,0,.68-.45.92-.87a2.53,2.53,0,0,0,.12-.23c.09-.2.54-1,.4-1.12a12.91,12.91,0,0,0-2.43-1.75,2.78,2.78,0,0,0,.85-.1c.12-.05.35-.48.23-.62-.37-.47-3.28-.33-3.28-.33A1.68,1.68,0,0,0,71.22,41.58Z" transform="translate(0 0)"/><path class="cls-5" d="M61.9,33a1.81,1.81,0,0,1-1,2.7c-1.39.66-2.93.35-3.42-.69,0,0-9.48-13.33-9.89-15.25s.37-2.28,2.24-3.18,2.91,1.26,3.52,2.55Z" transform="translate(0 0)"/><path class="cls-5" d="M72.65,41.1,60.37,31.78c-1-.53-2.14-.85-2.84.51s-.44,2.92.59,3.45l13.17,8Z" transform="translate(0 0)"/></svg>