<svg id="Layer_1" data-name="Layer 1" xmlns="http://www.w3.org/2000/svg" xmlns:xlink="http://www.w3.org/1999/xlink" viewBox="0 0 200 126.61"><defs><style>.cls-1{fill:#e5e5e5;}.cls-18,.cls-19,.cls-2,.cls-41{fill-opacity:0.5;}.cls-2{fill:url(#linear-gradient);}.cls-3{fill:#9e5c00;}.cls-4{fill:#1d1b22;}.cls-5{fill:#fc7575;}.cls-6{fill:#393644;}.cls-17,.cls-7{fill:#fd5e5a;}.cls-19,.cls-8{fill:#3d3d3d;}.cls-9{fill:#db9533;}.cls-10{fill:#e9bf85;}.cls-11{fill:#e4b066;}.cls-12{fill:#ff8d8d;}.cls-13{fill:#3c1047;}.cls-14{fill:#510b5e;}.cls-15{fill:#fff;}.cls-16{fill:#42004a;}.cls-17{opacity:0.53;isolation:isolate;}.cls-18{fill:#8b8989;}.cls-20{fill:#1d1c22;}.cls-21{fill:#e85553;}.cls-22{fill:#e469a6;}.cls-23{fill:#646464;}.cls-24{fill:#8e8e8e;}.cls-25{fill:#afa8a8;}.cls-26{fill:#3a3745;}.cls-27{fill:#42124a;}.cls-28{fill:#cfcfcf;}.cls-29{fill:#757575;}.cls-30{fill:#4d474e;}.cls-31{fill:#432c47;}.cls-32{fill:#585858;}.cls-33{fill:#636263;}.cls-34{fill:#375866;}.cls-35{fill:#e2e2e2;}.cls-36{fill:#172866;}.cls-37{fill:#2f499f;}.cls-38{fill:#d24307;}.cls-39{fill:#363a68;}.cls-40{fill:#260e0d;}.cls-41{fill:#b6a8a8;}.cls-42{fill:#f1a97e;}.cls-43{fill:#121841;}.cls-44{fill:#555da2;}.cls-45{fill:#777eb5;}.cls-46{fill:#1e3340;}.cls-47{fill:#eef1f9;}.cls-48{fill:#2b3278;}</style><linearGradient id="linear-gradient" x1="99.82" y1="-4.66" x2="100" y2="4.78" gradientTransform="matrix(1, 0, 0, -1, 0, 128)" gradientUnits="userSpaceOnUse"><stop offset="0" stop-color="#f98386"/><stop offset="1" stop-color="#f98386" stop-opacity="0.8"/></linearGradient></defs><path class="cls-1" d="M7.9,121.93s30.65-47.56,86.95-58.5c29.9-5.82,42.57-29.93,65.44-33.57s30.3,28.85,34.3,53.8-2.14,39.16-2.14,39.16Z" transform="translate(0 0)"/><path class="cls-2" d="M200,123.2c0,1.88-44.78,3.41-100,3.41S0,125.08,0,123.2s44.78-3.42,100-3.42S200,121.32,200,123.2Z" transform="translate(0 0)"/><path class="cls-3" d="M138.08,25.74s-.26-4.69-1.45-4.69c-2.52,0-7,12.86-7.18,14.74-.22,3.17,2,3.36,4.11,3.62s2.49-4.36,2.49-4.36Z" transform="translate(0 0)"/><path class="cls-4" d="M139.73,116.52l-.06,4h.42l.58-4.5Z" transform="translate(0 0)"/><path class="cls-5" d="M136.69,81.88s.49,6.17,1.23,8-.58,26.18-1.23,28.15a6.89,6.89,0,0,1-.51,1.17c-.72,1.19-.88,1.45.06,1.45,1.2,0,2.26-.23,2.49-.71.42-.84.77-3.78,1.58-3.78a3.6,3.6,0,0,0,.42-1.68c-.22-.88-.81-.42-.81-1.62s4-19.52,3.37-22.17-1.07-3-1.07-6.14S136.69,81.88,136.69,81.88Z" transform="translate(0 0)"/><path class="cls-6" d="M140,113.45c-.35,2.2-1.78,6.44-2.68,6.56-1.13,0-1.2-.06-1.2-.84-.71,1.2-2,2-1.1,2,1.2,0,3.62-.06,3.85-.58.39-.84.65-4.07,1.45-4.07l-.25,4h.45a56.19,56.19,0,0,0,.51-6A1.5,1.5,0,0,0,140,113.45Z" transform="translate(0 0)"/><path class="cls-7" d="M139.21,75.61s-4.49,8.56-4.2,11.08,1.23,4.59.42,8-7.27,16-7.4,18.33c-.07,1,.23,1.06.23,1.06a7.89,7.89,0,0,1-.88,3.81c-.45.46-.93,2.66-1.35,2.66s-4,.38-4,.38c-.1-.8,1-.16,1.65-1.84s1-4.23,1.84-7.63,4.17-19,4.17-22.62-.33-3.62.22-6a48.18,48.18,0,0,1,2.65-6.79Z" transform="translate(0 0)"/><path class="cls-6" d="M123.15,119.92c-1.07.48-2.13.55-2.07,1.19l4.91-.06c.42,0,.91-2.72,1.36-3.17s0,3.17,0,3.17h.55a41.51,41.51,0,0,1,.78-5.11,1.5,1.5,0,0,0-.49-1.87C126.83,116.78,126.64,120.56,123.15,119.92Z" transform="translate(0 0)"/><path class="cls-8" d="M124.22,107.86s18.32,1.23,20.55-2.26c0,0,0-8.79.39-15.42.49-9.27,3.23-29.93-.94-39.4-.68-1.55-3.1-5.78-3.1-5.78l-6.92-1.62s-4.91,28.15-5.49,37.3S124.22,107.86,124.22,107.86Z" transform="translate(0 0)"/><path class="cls-9" d="M136.63,21.08s1.61-.68,9.14,1.17l-.29,7.24s-3.94,12.79-3.29,16c0,0-3.75,2.49-9.34-.25,0,0,1.39-9.38.9-11.61s-1.52-4.26-.1-6.59A60.22,60.22,0,0,0,136.63,21.08Z" transform="translate(0 0)"/><path class="cls-10" d="M133.59,39.05c0-1,.13-3.23,0-4.72-.16-2.13-2-4.55-.13-7.56,1-1.68,2.23-3.94,3.1-5.69.42-.06,0,0,0,0-2.84,7.6-4.26,6.21-3.1,10.9C134,33.69,134.33,34.14,133.59,39.05Z" transform="translate(0 0)"/><path class="cls-7" d="M140.89,36.86a8.39,8.39,0,0,1-3.26,2,32.65,32.65,0,0,0,3.49,2.39,24.23,24.23,0,0,0,.52-4.2A6.69,6.69,0,0,1,140.89,36.86Z" transform="translate(0 0)"/><path class="cls-11" d="M147.91,24.77a4.7,4.7,0,0,0-2.17-2.56c-1.87-.22-2.49,9.15-2.49,9.15l-.74,5.4c-.16.16-.71,0-.91.09a25.71,25.71,0,0,1-.51,4.4c1.84,1.07,3.52,1.68,4.26.94C147.07,40.51,148.46,26.51,147.91,24.77Z" transform="translate(0 0)"/><path class="cls-3" d="M139.76,40.6s.81.55,1.13.84,1.68.94,2.17.72.74-1.78.52-4-1.36-1.68-1.88-1.52a3.34,3.34,0,0,1-.94.16S139.28,39.47,139.76,40.6Z" transform="translate(0 0)"/><path class="cls-3" d="M133.82,35.79s-.88-1.13-1.23-1.52-.84-.1-1.39.23-.29-.36-1.36.42a2.57,2.57,0,0,0-.94,3c.42.91,2,2.07,2.85,1.2A16.5,16.5,0,0,0,133.82,35.79Z" transform="translate(0 0)"/><path class="cls-5" d="M132.13,31.62a9.81,9.81,0,0,0-3,.65,3.28,3.28,0,0,0-.62,1.39.13.13,0,0,0,.13.13c-.16.12-.22.19-.16.25.29.29,2.68-.84,2.81-.71s-2.71.62-2.45,1.13c.09.23,1.19-.13,1.87-.35-.61.22-1.48.61-1.48.84s2.48-.19,3-.19a2.73,2.73,0,0,1,.91.45c.16,0,.29.06.35,0a34.49,34.49,0,0,1,4.24.26C135.17,33.91,132.33,31.65,132.13,31.62Zm-2.58,1.65c-.2.1-.39.19-.55.29.16-.16.29-.49.52-.65a2,2,0,0,1,1.26-.42C130.91,32.62,130.23,33,129.55,33.27Z" transform="translate(0 0)"/><path class="cls-12" d="M143,33.69c-.13.61-.35,2.42-.39,2.84,0,0-.32-.22-.42-.1-1,.55-2.42,2-5.23,2.62s-6.47.88-6.47-1a3.13,3.13,0,0,1,3-2.88,38,38,0,0,1,4.24.3C140.12,35.76,142.7,33.49,143,33.69Z" transform="translate(0 0)"/><path class="cls-10" d="M145.77,22.21c-1.77,0-1.74,7.83-3.2,14.29.13-2.3.46-5.11.49-5.43C143.19,29.26,144,21.89,145.77,22.21Z" transform="translate(0 0)"/><path class="cls-13" d="M147.39,22.83l-1.49-.52-3.33-.78L142,15.3l5.17,4.13Z" transform="translate(0 0)"/><path class="cls-8" d="M138.63,8.32S137.27,15,135,16.23s-2.55,1.14-3.14.78a2,2,0,0,0,1.2,1.62.6.6,0,0,0,.22.06c1.36.32-.38,1-1.16,1s1.94,2.07,3.49,2.14,5.72.32,6.82-5.08S138.63,8.32,138.63,8.32Z" transform="translate(0 0)"/><path class="cls-7" d="M140.7,16.88l-2,5.69s-.77,3.55.36,4.17,4.23-3.17,4.23-3.95.68-8.14.68-8.14Z" transform="translate(0 0)"/><path class="cls-5" d="M139.7,5.15a3.61,3.61,0,0,0-1.78,1.74c-.61,1.3-.16,3-.49,4.17s.17,7.15,3.17,6.63,4-4.65,4.27-5.56-.07-4.46-1.39-5.69A7.36,7.36,0,0,0,139.7,5.15Z" transform="translate(0 0)"/><path class="cls-14" d="M139.41,10.84a2.51,2.51,0,0,1,.8-.94,2.58,2.58,0,0,1,1.62-.1s-1.1-.06-1.42.2a2.23,2.23,0,0,0-.58.68Z" transform="translate(0 0)"/><path class="cls-14" d="M138.7,11.1a2,2,0,0,0-.72-.71c-.42-.2-.9.22-.9.22s.52-.26.77-.1a1.84,1.84,0,0,1,.52.49Z" transform="translate(0 0)"/><path class="cls-15" d="M140.93,15.14a4.37,4.37,0,0,1-2.4,0A2.16,2.16,0,0,0,140.93,15.14Z" transform="translate(0 0)"/><path class="cls-14" d="M140.34,11.48c0,.29.17.52.36.52s.35-.23.35-.52-.16-.51-.35-.51A.5.5,0,0,0,140.34,11.48Z" transform="translate(0 0)"/><path class="cls-16" d="M142,11.68c-1.33-1.33-1.84-.36-2.26-.26.35,0,.74-.36,1.13-.26A3.36,3.36,0,0,1,142,11.68Z" transform="translate(0 0)"/><path class="cls-14" d="M137.56,11.94c0,.22.17.38.33.35a.36.36,0,0,0,.22-.45c0-.23-.16-.39-.32-.36A.39.39,0,0,0,137.56,11.94Z" transform="translate(0 0)"/><path class="cls-16" d="M138.63,12.16c-.81-1.42-1.45-.51-1.84-.48.29.06.71-.29,1-.13A3.34,3.34,0,0,1,138.63,12.16Z" transform="translate(0 0)"/><path class="cls-7" d="M141,12.68c0,.39.42.68.91.68s.9-.29.9-.68-.42-.68-.9-.68S141,12.29,141,12.68Z" transform="translate(0 0)"/><path class="cls-14" d="M138.63,11.61a17.34,17.34,0,0,1,.13,2.3,1.49,1.49,0,0,0,.81,0,1.31,1.31,0,0,1-.94.09A14.45,14.45,0,0,1,138.63,11.61Z" transform="translate(0 0)"/><path class="cls-17" d="M139.7,5.15a3.61,3.61,0,0,0-1.78,1.74c-.61,1.3-.16,3-.49,4.17a2.84,2.84,0,0,0-.06.29,2.29,2.29,0,0,0,.94-.45,14.64,14.64,0,0,0,3.23-5.43A10.86,10.86,0,0,0,139.7,5.15Z" transform="translate(0 0)"/><path class="cls-8" d="M139,5.7a4.25,4.25,0,0,1,3.72-1.84c2.61.32,5,3.07,5.17,5.85s.13,5.88,2.36,7.33,1.61,5.21.19,7.24a2.73,2.73,0,0,1-3.62.78s1.81-.84,1.55-1.33c0,0-2.13,1.81-3.39,1.26a3.2,3.2,0,0,1-1.75-1.71s2.52.06,1.49-1.55c-.74-1.13-.84-1.65-1.16-3.69-.29-1.81.93-5.1.71-7.95a1.12,1.12,0,0,1-.68,0c-1.36-.26-.49-1-1.29-2.85C140.44,5.41,139.15,5.73,139,5.7Z" transform="translate(0 0)"/><path class="cls-8" d="M141.44,4.28a4.24,4.24,0,0,0-2.87.32c-1.39.78-2.36,5.14-1.78,6s-2.3.65-.68,1.13S142.87,4.86,141.44,4.28Z" transform="translate(0 0)"/><path class="cls-18" d="M146.81,11.09a10.32,10.32,0,0,0-1.49,3.08c-.77,3.23,3.07,2.55,4,2.9a1,1,0,0,1,.48,1.52,2.15,2.15,0,0,1-1,.78.62.62,0,0,0-.07,1c.59.55,1.69,0,1.69,1a2,2,0,0,1-1.1,1.81,2.14,2.14,0,0,0,1.32-1.78c.07-.84-.48-.94-1.23-1.1-.45-.1-.58-.39-.48-.52s.77-.19,1.32-1A1.41,1.41,0,0,0,150.1,17c-1.29-1.36-5.68.84-4.13-3.85A8.5,8.5,0,0,1,146.81,11.09Z" transform="translate(0 0)"/><path class="cls-5" d="M143.74,10.9s.32-1.23.9-.94a1.32,1.32,0,0,1,.26,2C144.35,12.68,143.32,12,143.74,10.9Z" transform="translate(0 0)"/><path class="cls-7" d="M143.93,11.16s.13-.78.42-.78.42.68.26,1.07S143.83,11.65,143.93,11.16Z" transform="translate(0 0)"/><path class="cls-19" d="M139.5,5.25a2.82,2.82,0,0,0-3.1,3.58,1,1,0,0,0,.58.75l.13-.46c-.13,0-.26-.32-.32-.45C136.14,7.06,137.37,5.31,139.5,5.25Z" transform="translate(0 0)"/><path class="cls-7" d="M63.43,43.34a5.21,5.21,0,0,1,2.26-.77c1.1.06,3.3-.23,3.85-.75a32,32,0,0,1,3.68-2l2.2,1.71s-10.5,6.23-11.31,6.2,2.33-1.61,2.13-1.81-3.32,2.39-3.61,1.75S66,45.73,66,45.28s-3.68,2.29-4.16,1.78,4-2.39,4-2.39-.19-.33-1.48.09-2.46.91-2.49.52,3.55-1.23,3.52-1.84C65.34,43.44,63.56,43.79,63.43,43.34Z" transform="translate(0 0)"/><path class="cls-8" d="M91.73,20.76s-7.62,11-9.2,12.6S70.7,40,70.7,40l1.75,3.66,12.27-6.27,7.5-6.85Z" transform="translate(0 0)"/><path class="cls-20" d="M101,118.32l-.06,4h.45l.58-4.62Z" transform="translate(0 0)"/><path class="cls-5" d="M97.84,82.69s.48,6.33,1.26,8.24-.61,26.91-1.26,28.91a9,9,0,0,1-.55,1.2c-.71,1.22-.87,1.48.1,1.48,1.22,0,2.32-.22,2.55-.74.42-.87.77-3.88,1.61-3.88a3.3,3.3,0,0,0,.42-1.71c-.22-.9-.8-.42-.8-1.68s4.1-20.06,3.45-22.77-1.09-3.07-1.09-6.34S97.84,82.69,97.84,82.69Z" transform="translate(0 0)"/><path class="cls-7" d="M95.06,76.07s-4.62,8.78-4.33,11.4,1.26,4.72.42,8.27-7.46,16.48-7.62,18.84c-.07,1,.22,1.1.22,1.1a7.94,7.94,0,0,1-.9,3.9c-.45.46-1,2.72-1.42,2.72s-4.11.39-4.11.39c-.09-.84,1-.17,1.68-1.91s1.07-4.33,1.91-7.85,4.27-19.55,4.3-23.26-.33-3.72.26-6.14a52.42,52.42,0,0,1,2.71-7Z" transform="translate(0 0)"/><path class="cls-21" d="M90.73,87.47c-.29-2.62,4.33-11.4,4.33-11.4l-6.88.48a52.42,52.42,0,0,0-2.71,7,10.75,10.75,0,0,0-.3,3.84c1.33.29,3.36.68,5.69,1.07C90.83,88.12,90.76,87.79,90.73,87.47Z" transform="translate(0 0)"/><path class="cls-7" d="M103.56,85.4c0-3.26-5.72-2.71-5.72-2.71s.32,4,.84,6.62a24.59,24.59,0,0,0,5.26-.19A13.16,13.16,0,0,1,103.56,85.4Z" transform="translate(0 0)"/><path class="cls-8" d="M90.21,45.89s-.8,12.41-1.42,15.35-4.07,23.87-4.07,23.87,15.48,1.3,19.22,0c0,0,.42-26.84-.45-30.3s-4.71-9.73-4.71-9.73Z" transform="translate(0 0)"/><path class="cls-22" d="M91.73,20.76s2.14-1.65,9.37,0c.2,0,.39,7.91.39,7.91s-3.36,13.15-2.71,16.45c0,0-3.85,3.23-9.57.42,0,0,.75-10.34.23-12.64s-1.55-4.39-.1-6.78A28.84,28.84,0,0,0,91.73,20.76Z" transform="translate(0 0)"/><path class="cls-23" d="M91.73,20.76s2.14-1.65,9.37,0c.2,0,.39,7.91.39,7.91s-3.36,13.15-2.71,16.45c0,0-3.85,3.23-9.57.42,0,0,.75-10.34.23-12.64s-1.55-4.39-.1-6.78A28.84,28.84,0,0,0,91.73,20.76Z" transform="translate(0 0)"/><path class="cls-7" d="M101.43,48.28c.12-.13,1.13-1.61,1.35-1.42s-.9,1.62-.9,1.62,1.32-1.33,1.58-1.07-1.74,2-2,2S101.43,48.28,101.43,48.28Z" transform="translate(0 0)"/><path class="cls-5" d="M99.68,46.8s-.55.84-.16,1.26.19.84.45,1.09,1.52.33,1.52.33a8.63,8.63,0,0,1,.71-2.55,12.11,12.11,0,0,1,1-1.43,19.14,19.14,0,0,0-1.71-1C100.46,45.86,99.68,46.76,99.68,46.8Z" transform="translate(0 0)"/><path class="cls-24" d="M101.1,20.76s-.71,5.72,0,7.27,4.78,3.29,5.49,6.39c.52,2.33-2.87,7.21-5.1,10.08a16.73,16.73,0,0,0,2,1.84c2.26-2.87,7.21-9.66,7.34-11.24C111,33.16,104.14,20.53,101.1,20.76Z" transform="translate(0 0)"/><path class="cls-25" d="M101.1,20.76c-.09,1.32-.19,2.61-.22,4,0,2.39.13,3.17.64,3.75,1.23,1.42,4.53,3.17,5.08,6-.78-2.78-3.95-4.33-5.24-5.82a3.08,3.08,0,0,1-.65-1.91A31.37,31.37,0,0,1,101.1,20.76Z" transform="translate(0 0)"/><path class="cls-26" d="M101.26,115.16c-.38,2.26-1.64,6.17-2.52,6.52-1.45.29-1.45.17-1.45-.64-.71,1.22-1.52,1.84-.58,1.87,1.23,0,3.16.1,3.42-.42.42-.87.65-4.2,1.49-4.2l-.29,4.07h.45s.68-5.62.55-6.17A1.61,1.61,0,0,0,101.26,115.16Z" transform="translate(0 0)"/><path class="cls-26" d="M78.62,121.56c-1,.61-2.26.64-2.2,1.29,0,0,4.75-.2,5.2-.2s.81-2.68,1.26-3.13.16,3.13.16,3.13h.46a37.25,37.25,0,0,1,.77-5.13,1.55,1.55,0,0,0-.48-1.91C82.33,118.39,82.2,122.2,78.62,121.56Z" transform="translate(0 0)"/><path class="cls-8" d="M98.94,10.26s2.91.52,2.91,2.58-.46,1.13-.91,2.62,0,2.75-2,2.75-1.62.13-2.62.71-2.91-.42-3.13-2.52,3.39-2,3.39-3.52S98.94,10.26,98.94,10.26Z" transform="translate(0 0)"/><path class="cls-5" d="M93.22,15.2a5.44,5.44,0,0,1,.87,3.13,9.54,9.54,0,0,1-.51,2.72c-.59,1.42,1,2,2.06,1.58a4.44,4.44,0,0,0,2.52-1.87c.26-.65-2.1-7.76-2.1-7.76Z" transform="translate(0 0)"/><path class="cls-7" d="M93.22,15.2,96.06,13s.29.84.65,2a5.74,5.74,0,0,1-2.65,2.36A6.35,6.35,0,0,0,93.22,15.2Z" transform="translate(0 0)"/><path class="cls-5" d="M91.22,5.61A3.24,3.24,0,0,0,90,7.45c-.29,1.23.42,2.68.36,3.71s1.48,6.17,4,5.17,3.07-4.88,3.1-5.72A7.62,7.62,0,0,0,94.67,6,6.09,6.09,0,0,0,91.22,5.61Z" transform="translate(0 0)"/><path class="cls-8" d="M92.15,10.81c0,.64-.13,1.45-.22,2.1a1.37,1.37,0,0,0,.74.13A1.27,1.27,0,0,1,91.8,13,15.42,15.42,0,0,1,92.15,10.81Z" transform="translate(0 0)"/><path class="cls-8" d="M93.28,9.74a2.35,2.35,0,0,1,1.07-.45c.58-.07,1.36.61,1.36.61a3.71,3.71,0,0,0-1.26-.45,2.21,2.21,0,0,0-.75.32Z" transform="translate(0 0)"/><path class="cls-8" d="M91.93,9.74A1.89,1.89,0,0,0,91,9.29c-.48-.06-1.1.58-1.1.58s.71-.48,1-.42a1.9,1.9,0,0,1,.64.32Z" transform="translate(0 0)"/><path class="cls-15" d="M93.87,14a3.32,3.32,0,0,1-2.1.32A1.7,1.7,0,0,0,93.87,14Z" transform="translate(0 0)"/><path class="cls-8" d="M93.67,10.58a.38.38,0,0,0,.42.29.35.35,0,0,0,.23-.45.39.39,0,0,0-.42-.29A.35.35,0,0,0,93.67,10.58Z" transform="translate(0 0)"/><path class="cls-27" d="M95.13,10.65c-1.3-1.17-1.72-.2-2.1-.1.32,0,.67-.39,1-.32A4.41,4.41,0,0,1,95.13,10.65Z" transform="translate(0 0)"/><path class="cls-8" d="M90.93,10.74c0,.2.19.33.32.29s.19-.22.16-.42-.19-.32-.32-.29S90.89,10.52,90.93,10.74Z" transform="translate(0 0)"/><path class="cls-27" d="M92,10.78c-1.07-1.1-1.42-.13-1.75,0,.26,0,.59-.42.88-.35A6.37,6.37,0,0,1,92,10.78Z" transform="translate(0 0)"/><path class="cls-7" d="M93.74,12.55c.09.36.51.52,1,.42a.72.72,0,0,0,.64-.81.78.78,0,0,0-1-.42A.76.76,0,0,0,93.74,12.55Z" transform="translate(0 0)"/><path class="cls-8" d="M91.09,5.57a2.55,2.55,0,0,1,2.45-1.68h.16A13.42,13.42,0,0,1,96.93,4a4,4,0,0,1,1.75.84,3.12,3.12,0,0,1,1.26,1.87c.13,1.39-.49,2.91,0,4.27v0a2.94,2.94,0,0,1-1.59,3.68c-.8.36-1.48.45-1.94-.26.07-.74,1.94-3.16.23-5-.13.09-.06.74-.32.74-.68,0-1.13-1.45-1.2-2.07A2.85,2.85,0,0,0,93.9,6.38a3.93,3.93,0,0,0-2.07-.74c-.19,0-.36,0-.48,0s-.26.07-.33.07A.78.78,0,0,0,91.09,5.57Z" transform="translate(0 0)"/><path class="cls-8" d="M91.83,4.7a3.65,3.65,0,0,0-2.42.84c-1.07.94-.91,4.27-.26,4.91s-2,1.78-.52,1.78C90.73,12.2,93.12,5,91.83,4.7Z" transform="translate(0 0)"/><path class="cls-28" d="M91.44,5.22A2.49,2.49,0,0,0,89,8.64a.88.88,0,0,0,.58.62l.07-.42c-.1,0-.26-.26-.33-.36A2.33,2.33,0,0,1,91.44,5.22Z" transform="translate(0 0)"/><path class="cls-5" d="M96.29,9.81s.13-1.07,1-.78.48,2.84-.26,2.62S96.29,9.81,96.29,9.81Z" transform="translate(0 0)"/><path class="cls-7" d="M96.48,10.32s.1-1.13.52-.84.45,1.43,0,1.49S96.48,10.32,96.48,10.32Z" transform="translate(0 0)"/><path class="cls-7" d="M58.88,63.18s2,6.07,2.38,6.72.35,3.47-.2,3.86-.16-1.16-.32-2a6.78,6.78,0,0,0-.9-1.89,5.6,5.6,0,0,1,.84,1.86c.16.77,0,1.8-.32,1.93-.62.35-.1-.61-.33-1.74a3.18,3.18,0,0,0-.83-1.67s.51,2.12,0,2.44-2.45-8.29-2.45-8.29Z" transform="translate(0 0)"/><path class="cls-29" d="M51.74,21.44A24.57,24.57,0,0,1,55.47,32c.19,2.38,0,14.24,1.19,19.19,1.51,6.4,3.6,12.51,3.6,12.51L55.4,66.62,51.58,51.38l-1-10.84Z" transform="translate(0 0)"/><path class="cls-30" d="M47.88,72.44,41.19,121.6l3.15-.54L49.78,94.4s3.56-24.73,3.56-33.67Z" transform="translate(0 0)"/><path class="cls-31" d="M30.51,124.53h6.18L32.83,122l.42-2c-.87,0-1.1.61-2,.61C31,122.12,30.51,124.53,30.51,124.53Z" transform="translate(0 0)"/><path class="cls-31" d="M41.58,124.18h6l-3.86-2.51.42-2c-.87,0-1.09.64-2,.64C41.93,121.8,41.58,124.18,41.58,124.18Z" transform="translate(0 0)"/><path class="cls-32" d="M53.15,53.47c-6.56.16-9.32,4.11-15.4,5.91L38,61.25l-.41,31.48S31.25,114.92,30,122.28c0,0,3.6-.23,3.41-.23L44,95.75l4.79-24,3.92-9.36Z" transform="translate(0 0)"/><path class="cls-33" d="M48.78,71.7,43.06,95.4l-9.65,26.65L44,95.75Z" transform="translate(0 0)"/><path class="cls-34" d="M43.25,17.77,43,21.44l8.72-1-2-2.47Z" transform="translate(0 0)"/><path class="cls-35" d="M54.6,46c0-12.48-1.93-24.92-4.66-26.5,0,0-3.19-.22-4.79-.26-2.45-.09-4.35,1.16-6.34,8-1.29,4.34-2.51,14.83-2.38,24,.07,4-.55,7.84-.48,10.71,6.88,0,11.9-.23,18.59-.23C54.6,59.51,54.6,49.93,54.6,46Z" transform="translate(0 0)"/><path class="cls-8" d="M46.62,34.3c0,.16-4-14.69-4-14.69A17,17,0,0,0,39.39,21c-1.8,1-2.64,8.33-2.64,8.33S35.66,44.5,35.66,45.68c0,.65-1.32,10.36-2.51,19.2L48,66C47.81,53.69,46.62,34.3,46.62,34.3Z" transform="translate(0 0)"/><path class="cls-8" d="M49.94,19.51s3.69,1.64,4.82,12.73S57.43,66,57.43,66H52.28s-.54-32.35-.54-34.57S49.94,19.51,49.94,19.51Z" transform="translate(0 0)"/><path class="cls-29" d="M49.71,18l2,16,.7-8-.7-.87V20.44Z" transform="translate(0 0)"/><path class="cls-5" d="M68.56,40.7a5.46,5.46,0,0,0-2,1.22,10.47,10.47,0,0,1-4,2.58c-.74.09-2.86.67-2.86.67l-.1,3.54s10.26-3.12,11.93-4.79c.58-.58-2.7.77-2.73.51s3.92-1,3.63-1.67-3.57,1.35-3.92,1.06,4.08-1.38,4-2.09-4.38,1.58-4.38,1.58-.12-.36,1-1.07,2.25-1.31,2-1.57-3.19,1.93-3.64,1.54C67.43,42.21,68.81,41.09,68.56,40.7Z" transform="translate(0 0)"/><path class="cls-8" d="M46.62,34.3,43.25,17.77l-3.47,2.7,3,5.66-.22,1.77Z" transform="translate(0 0)"/><path class="cls-8" d="M45.24,14.78c-.16-.09-2-4.76-2-4.76S42,6.52,42.77,5.94s2.73-2.64,4.4-2.67a7.09,7.09,0,0,1,3,.55,20.6,20.6,0,0,1,1.25,1.93s-.51-.61-.77,1.67S45.24,14.78,45.24,14.78Z" transform="translate(0 0)"/><path class="cls-5" d="M49.49,14.59c-.2.61-.13,4.86-.26,5.92s-5,2.7-5.08-1.16.29-8.36.29-8.36Z" transform="translate(0 0)"/><path class="cls-7" d="M49.49,14.59,47.81,13.4,44.44,11v.09c0,.13,0,.42-.07.81a.9.9,0,0,1,0,.26v0c0,.29,0,.61-.06,1v.65c.64,2.05,3,4.3,5,4.56a2,2,0,0,1,0-.42A23.7,23.7,0,0,1,49.49,14.59Z" transform="translate(0 0)"/><path class="cls-5" d="M44.24,7.45a7.4,7.4,0,0,0,.84,6.46c1.48,2.13,3.51,3.22,5,2.16s1.87-7.78.84-9.52S45.18,5.14,44.24,7.45Z" transform="translate(0 0)"/><path class="cls-8" d="M44.25,13.91s-.33-2.18-1.16-2.73-1.22-.87-1.38-1.64S38.75,8.25,39.2,7,41.87,5.1,43,2.88,45.31-.56,47.94.25s3,2.41,3,2.41A1.88,1.88,0,0,1,52.8,3.85a2.34,2.34,0,0,1-.26,2.8s.1-1.84-.51-1.71,0,2.13,0,2.13a16.66,16.66,0,0,1-1.93-2c-1-1.19-.74.2-.45,1.71s-1.93.09-2.9-1-2.38-.06-2.89,1.48S45.47,11.25,44.25,13.91Z" transform="translate(0 0)"/><path class="cls-5" d="M44.73,9.86s-.94-1.57-1.42-.9-.09,2.74.93,2.74S44.73,9.86,44.73,9.86Z" transform="translate(0 0)"/><path class="cls-7" d="M44.21,10s0-.9-.45-.61,0,1.77.45,1.74S44.21,10,44.21,10Z" transform="translate(0 0)"/><path class="cls-36" d="M49.42,9.57a6.91,6.91,0,0,1,.36,1.29,3.5,3.5,0,0,1,0,1.45c-.1,0-.42-.07-.81-.17h.77l-.09.07A18.47,18.47,0,0,0,49.42,9.57Z" transform="translate(0 0)"/><path class="cls-37" d="M48.17,9.8a.5.5,0,0,1-.26.58.45.45,0,0,1-.45-.42.48.48,0,0,1,.26-.58A.45.45,0,0,1,48.17,9.8Z" transform="translate(0 0)"/><path class="cls-37" d="M50.93,9.41a.47.47,0,0,1-.25.58.44.44,0,0,1-.45-.42A.49.49,0,0,1,50.48,9,.42.42,0,0,1,50.93,9.41Z" transform="translate(0 0)"/><path class="cls-36" d="M46.62,9.12a2,2,0,0,1,1.13-.9c.71-.13.48.45.32.49S46.59,9,46.62,9.12Z" transform="translate(0 0)"/><path class="cls-36" d="M50,7.87s.83.26,1,.64c0,0-.9-.06-1-.29A.24.24,0,0,1,50,7.87Z" transform="translate(0 0)"/><path class="cls-15" d="M47.2,13.3s2.16.81,3.35,0c0,0-.32,1.1-.61,1.29A2.08,2.08,0,0,1,47.2,13.3Z" transform="translate(0 0)"/><path class="cls-38" d="M57.91,45l3.6-.45.81,3.53-3.89.87Z" transform="translate(0 0)"/><path class="cls-29" d="M39.39,21c-1.51.45-4.18,6.85-3.47,10.45S42,48.26,43.6,49.86s16.63-1.09,16.63-1.09l-.55-4.56s-9.74,0-10-.55C48.62,41,40.9,20.51,39.39,21Z" transform="translate(0 0)"/><path class="cls-39" d="M165.81,28.41s-1,6-4.17,10.07c-2.34,3-7.3,6.42-7.3,6.42L157.15,48l7.72-6.35Z" transform="translate(0 0)"/><path class="cls-40" d="M170,22.78h6.2L176,43.11l-8.21.55Z" transform="translate(0 0)"/><path class="cls-40" d="M163.11,120.29c-3.49,0-3.39,1.43-3.39,1.43h10.2s-.52-4.4-.59-5.44h-2.41C166.66,117.55,165.78,120.29,163.11,120.29Z" transform="translate(0 0)"/><path class="cls-40" d="M180.15,120.81c-3.16,0-3.81-3.85-3.91-4.53H174v.33c0,.49-.59,5.63-.59,5.63h10.2S183.63,120.81,180.15,120.81Z" transform="translate(0 0)"/><path class="cls-8" d="M179.24,93.12l3.25-27.53-.91-8.15H163.66l-.13,7.17-1.89,28s4.69,23.29,4.6,23.68h3.38c0-.1-.94-25.54-.94-25.54l3.88-22.68,1.49,23.82s-.68,21.47-.68,24.43h3.19C176.53,116.21,179.24,93.12,179.24,93.12Z" transform="translate(0 0)"/><path class="cls-41" d="M181.71,58.48l-.13-1.07H163.66l0,.94,3.78,1.27a15.56,15.56,0,0,0,9.45.23Z" transform="translate(0 0)"/><path class="cls-42" d="M182.82,28.18c-2-2.18-6.45-5.66-11.44-4.85l-5.21,2.31-1.53,11.21-1.37,21.37,18.54.23,1.76-20.78S184.77,30.37,182.82,28.18Z" transform="translate(0 0)"/><path class="cls-5" d="M170.76,18.31a51.92,51.92,0,0,1-.49,6.62,1.8,1.8,0,0,0,1,2.05,3.69,3.69,0,0,0,2.15.19c2.35-.45,2.41-3.06,2.41-3.06l-.78-8Z" transform="translate(0 0)"/><path class="cls-7" d="M175,16.13l-4.27,2.18s0,1.63-.13,3.39c1.11.07,2.51-.59,4-2.47.23-.3.43-.56.62-.85Z" transform="translate(0 0)"/><path class="cls-5" d="M171,7.07a7.56,7.56,0,0,0-2.08,3.33c-.62,2.08-1.17,3.58-1.17,3.58l.68.46s-.52,2.9-.13,3.91c.62,1.49,3.29,2.73,6.32-.66s3.29-6.38,2.77-7.85S172.2,6.32,171,7.07Z" transform="translate(0 0)"/><path class="cls-43" d="M175.59,10.33a3.67,3.67,0,0,0-3.29-.72c-1.93.53-2.58-.29-2.22-.71a2.6,2.6,0,0,1-2.34-1.5c-.62-1.57-.49-6.26,2.54-5.38s2.41,3,2.41,3,1-1,1.85-.49a1.34,1.34,0,0,1,.79,1.31s.81,1.72,2,2,1.05,2.8,1.05,2.8.68.53.19,2.41-3.26,4.79-3.26,5.67a4,4,0,0,1-.13-3c.56-1.83.56-2.9,0-2.9S175.59,10.33,175.59,10.33Z" transform="translate(0 0)"/><path class="cls-5" d="M174.71,14s.19-1.53.61-1.53.82.16.72,1-.55,1.83-1.11,1.43A.7.7,0,0,1,174.71,14Z" transform="translate(0 0)"/><path class="cls-43" d="M179.85,10.56a.53.53,0,0,0-.26-.33c-.39-.19-.94.23-1.3.52l-.06-.06a2.18,2.18,0,0,1,.84-.72.81.81,0,0,1,1.17.49Z" transform="translate(0 0)"/><path class="cls-43" d="M179.79,12.48a2.89,2.89,0,0,0,0-.72c-.26-1.14-1.5-1-1.56-1.07v-.07a1.68,1.68,0,0,1,2.05,1.5,2.58,2.58,0,0,1,0,.49Z" transform="translate(0 0)"/><path class="cls-37" d="M170.67,11.7c0,.39-.17.68-.33.68s-.33-.29-.33-.68.17-.68.33-.68S170.67,11.31,170.67,11.7Z" transform="translate(0 0)"/><path class="cls-37" d="M171.42,11a1.33,1.33,0,0,0-1.54-.22l-.13-.49a1.44,1.44,0,0,1,1.7.26Z" transform="translate(0 0)"/><path class="cls-44" d="M169.4,23.56,168,65h-8.6L162,46.2l1.66-11.47s.81-7.69,2.54-9.09A21,21,0,0,1,169.4,23.56Z" transform="translate(0 0)"/><path class="cls-7" d="M175,13.36s.26-.52.49-.45.26,1.1-.13,1.56S174.61,14.18,175,13.36Z" transform="translate(0 0)"/><path class="cls-44" d="M176.3,23.33,175.39,65h9.22s.36-33-.68-36.49S176.3,23.33,176.3,23.33Z" transform="translate(0 0)"/><path class="cls-45" d="M166.07,25.09,170,22.78,168.84,43.4l-2.28-11.7.78-.55Z" transform="translate(0 0)"/><path class="cls-45" d="M176,43.4l.26-20.62,3.55,1.59-1.93,6.78.49.39Z" transform="translate(0 0)"/><path class="cls-46" d="M159.69,49.26l-12.77-9.77,13.52-1.24,10.23,11Z" transform="translate(0 0)"/><path class="cls-5" d="M166.79,45.13a4.59,4.59,0,0,1,1.89.88c.65.71,2.22,1.89,2.87,1.89s3.42.29,3.42.29l.45,3.13s-10.36-2.41-10.85-3,2.45.39,2.45.16-3.52-.52-3.33-1.1,3.26.81,3.52.52-3.71-.78-3.71-1.44,3.94.92,3.94.92.07-.33-1-.85-2.12-1-1.86-1.21,3,1.37,3.33,1Z" transform="translate(0 0)"/><path class="cls-45" d="M181.42,27.69a13.72,13.72,0,0,0-1.21,6.88c.3,4,.82,10.26,0,12.31s-7,0-7,0v4.79s9,3.72,11.57,2.51,2.34-11.69,2.34-16.84S183.05,24,181.42,27.69Z" transform="translate(0 0)"/><path class="cls-47" d="M181.42,27.7a14.17,14.17,0,0,0-1.08,6.54c.3,3.78,1.18,12-.45,13.23-1.57,1-5,0-6.75-.59,1.63.46,6.29,1.54,6.88-.06.52-1.3.42-4.4.39-5.8-.2-6-.91-8.11.32-11.76A8.12,8.12,0,0,1,181.42,27.7Z" transform="translate(0 0)"/><path class="cls-48" d="M169,16.85l.12.75a3.21,3.21,0,0,0,2.25-1.47A3.12,3.12,0,0,1,169,16.85Z" transform="translate(0 0)"/><path class="cls-5" d="M155.94,45a3.13,3.13,0,0,0-.46.91c-.29.65.49,1.37.66,1.5a8.36,8.36,0,0,0,1.14.84,2.18,2.18,0,0,0,.84.36c.46.1,1.47-1.56,1.34-1.72s-.2-.2-.33-.17-1.23,1-1.23,1,1-1.31.91-1.7-.33-.32-.43-.22L157,47.08a8.2,8.2,0,0,0,.82-1.82c-.07-.26-.43-.43-.85.19a6.84,6.84,0,0,1-.81.91,4.64,4.64,0,0,0,.39-1.56C156.36,44.41,155.94,45,155.94,45Z" transform="translate(0 0)"/></svg>