<svg width="27" height="25" viewBox="0 0 27 25" fill="none" xmlns="http://www.w3.org/2000/svg">
<g clip-path="url(#clip0_152_118)">
<path d="M22.2839 2.07532H4.71701V13.8777H22.2839V2.07532ZM23.1445 16.8304H3.85639L2.8017 20.1711H24.1992L23.1445 16.8304ZM23.3723 18.8635H22.1742L21.9801 18.138H23.1445L23.3723 18.8635ZM21.9801 18.8635H20.7398L20.5795 18.138H21.7861L21.9801 18.8635ZM22.8492 17.2353L23.077 17.9608H21.9211L21.727 17.2353H22.8492ZM21.5414 17.2353L21.7354 17.9608H20.5373L20.377 17.2353H21.5414ZM20.1914 17.2353L20.3517 17.9608H19.1536L19.027 17.2353H20.1914ZM18.8329 17.2353L18.9595 17.9608H17.7529L17.6601 17.2353H18.8329ZM17.6939 18.8635H16.4536L16.3861 18.138H17.6011L17.6939 18.8635ZM17.4745 17.2353L17.5673 17.9608H16.3692L16.3017 17.2353H17.4745ZM16.268 18.8635H15.0192L14.9854 18.138H16.2004L16.268 18.8635ZM16.1245 17.2353L16.192 17.9608H14.9854L14.9517 17.2353H16.1245ZM14.8336 18.8635H13.5848V18.138H14.7998L14.8336 18.8635ZM14.7661 17.2353L14.7998 17.9608H13.5933V17.2353H14.7661ZM12.2348 17.2353H13.4076V17.9608H12.2011L12.2348 17.2353ZM12.1926 18.138H13.4076V18.8635H12.1589L12.1926 18.138ZM10.8764 17.2353H12.0492L12.0154 17.9608H10.8089L10.8764 17.2353ZM10.8004 18.138H12.0154L11.9817 18.8635H10.7329L10.8004 18.138ZM9.52639 17.2353H10.6992L10.6317 17.9608H9.42514L9.52639 17.2353ZM10.6148 18.138L10.5473 18.8635H9.29857L9.39139 18.138H10.6148ZM8.16795 17.2353H9.34076L9.24795 17.9608H8.04139L8.16795 17.2353ZM6.80951 17.2353H7.98232L7.85576 17.9608H6.6492L6.80951 17.2353ZM6.62389 17.2353L6.46357 17.9608H5.26545L5.45951 17.2353H6.62389ZM6.42139 18.138L6.26107 18.8635H5.02076L5.21482 18.138H6.42139ZM4.1517 17.2353H5.26545L5.07139 17.9608H3.92389L4.1517 17.2353ZM3.86483 18.138H5.0292L4.83514 18.8635H3.62858L3.86483 18.138ZM3.3417 19.7746L3.56951 19.0491H4.77607L4.58201 19.7746H3.3417ZM6.05858 19.7746H4.78451L4.97857 19.0491H6.22732L6.05858 19.7746ZM7.53514 19.7746H6.25264L6.41295 19.0491H7.6617L7.53514 19.7746ZM6.4467 18.8635L6.60701 18.138H7.81357L7.68701 18.8635H6.4467ZM9.00326 19.7746H7.72076L7.84732 19.0491H9.09608L9.00326 19.7746ZM7.88107 18.8635L8.00764 18.138H9.22264L9.12982 18.8635H7.88107ZM9.18889 19.7746L9.2817 19.0491H17.7192L17.812 19.7746H9.18889ZM17.7867 18.138H19.0017L19.1283 18.8635H17.8879L17.7867 18.138ZM17.9976 19.7746L17.9048 19.0491H19.1536L19.2801 19.7746H17.9976ZM19.1789 18.138H20.3854L20.5458 18.8635H19.3054L19.1789 18.138ZM19.4658 19.7746L19.3392 19.0491H20.5879L20.7483 19.7746H19.4658ZM20.9423 19.7746L20.782 19.0491H22.0308L22.2248 19.7746H20.9423ZM22.2164 19.0491H23.4229L23.6508 19.7746H22.402L22.2164 19.0491ZM26.9751 23.1323L24.5789 15.8264C24.5283 15.6746 24.3595 15.5396 24.1233 15.4384C24.3933 15.1515 24.562 14.7635 24.562 14.3417V1.60289C24.562 0.717083 23.8448 0 22.9589 0H4.05045C3.16451 0 2.44732 0.717083 2.44732 1.60289V14.3417C2.44732 14.7635 2.61608 15.1515 2.88608 15.4384C2.64983 15.5396 2.47264 15.6746 2.43045 15.8264L0.0257627 23.1323C-0.13455 23.6216 0.456075 24.5664 1.34201 24.5664H25.6589C26.5448 24.5749 27.1354 23.6216 26.9751 23.1323ZM3.16451 1.60289C3.16451 1.11359 3.56107 0.708647 4.05889 0.708647H22.9504C23.4398 0.708647 23.8448 1.10515 23.8448 1.60289V14.3417C23.8448 14.831 23.4483 15.2359 22.9504 15.2359H4.05889C3.56951 15.2359 3.16451 14.8394 3.16451 14.3417V1.60289ZM3.08857 16.1555C3.2067 16.088 3.50201 15.9867 3.8817 15.9867H23.1108C23.4904 15.9867 23.7858 16.088 23.9039 16.1555L26.1567 23.0226H17.0358L16.4367 20.9219H10.5642L9.96514 23.0226H0.835763L3.08857 16.1555ZM1.34201 23.8409C1.02983 23.8409 0.81045 23.5541 0.751388 23.3853H9.99045L10.0917 23.8409H1.34201ZM16.5379 23.8409H10.4629L10.3617 23.3853H16.6392L16.5379 23.8409ZM10.3448 23.0057L10.8342 21.2847H16.1583L16.6476 23.0057H10.3448ZM25.6589 23.8409H16.9092L17.0105 23.3853H26.2495C26.1904 23.5541 25.9711 23.8409 25.6589 23.8409Z" fill="url(#paint0_linear_152_118)"/>
</g>
<defs>
<linearGradient id="paint0_linear_152_118" x1="33.6263" y1="15.4599" x2="-0.509205" y2="15.3901" gradientUnits="userSpaceOnUse">
<stop stop-color="#FF835B"/>
<stop offset="1" stop-color="#F2709C"/>
</linearGradient>
<clipPath id="clip0_152_118">
<rect width="27" height="24.5749" fill="white"/>
</clipPath>
</defs>
</svg>
