<svg width="27" height="27" viewBox="0 0 27 27" fill="none" xmlns="http://www.w3.org/2000/svg">
<path d="M13.5 24.0469C19.3249 24.0469 24.0469 19.3249 24.0469 13.5C24.0469 7.67512 19.3249 2.95312 13.5 2.95312C7.67512 2.95312 2.95312 7.67512 2.95312 13.5C2.95312 19.3249 7.67512 24.0469 13.5 24.0469Z" fill="#F98188"/>
<path d="M13.5 24.0469C19.3249 24.0469 24.0469 19.3249 24.0469 13.5C24.0469 7.67512 19.3249 2.95312 13.5 2.95312C7.67512 2.95312 2.95312 7.67512 2.95312 13.5C2.95312 19.3249 7.67512 24.0469 13.5 24.0469Z" stroke="#3D3D3D" stroke-width="0.5" stroke-miterlimit="10" stroke-linecap="round" stroke-linejoin="round"/>
<path opacity="0.4" d="M4.00781 13.5C4.00781 8.24766 8.24766 4.00781 13.5 4.00781" stroke="white" stroke-miterlimit="10" stroke-linecap="round" stroke-linejoin="round"/>
<path opacity="0.2" d="M22.9922 13.5C22.9922 18.7523 18.7523 22.9922 13.5 22.9922" stroke="#242C88" stroke-miterlimit="10" stroke-linecap="round" stroke-linejoin="round"/>
<path d="M13.5 21.9375C18.1599 21.9375 21.9375 18.1599 21.9375 13.5C21.9375 8.8401 18.1599 5.0625 13.5 5.0625C8.8401 5.0625 5.0625 8.8401 5.0625 13.5C5.0625 18.1599 8.8401 21.9375 13.5 21.9375Z" fill="#F9F1F1"/>
<path d="M17.9721 15.9262L13.3525 14.4285L14.133 12.7832L18.2252 15.441L17.9721 15.9262Z" fill="#CE7088"/>
<path d="M10.104 9.00684L13.3946 13.3943" stroke="#F98386" stroke-width="0.2" stroke-miterlimit="10" stroke-linecap="round" stroke-linejoin="round"/>
<path d="M17.9721 15.9262L13.3525 14.4285L14.133 12.7832L18.2252 15.441L17.9721 15.9262Z" stroke="#3D3D3D" stroke-width="0.2" stroke-miterlimit="10" stroke-linecap="round" stroke-linejoin="round"/>
<path d="M13.5 21.9375C18.1599 21.9375 21.9375 18.1599 21.9375 13.5C21.9375 8.8401 18.1599 5.0625 13.5 5.0625C8.8401 5.0625 5.0625 8.8401 5.0625 13.5C5.0625 18.1599 8.8401 21.9375 13.5 21.9375Z" stroke="#3D3D3D" stroke-width="0.5" stroke-miterlimit="10" stroke-linecap="round" stroke-linejoin="round"/>
<path d="M13.5002 14.7025C14.1642 14.7025 14.7025 14.1642 14.7025 13.5002C14.7025 12.8362 14.1642 12.2979 13.5002 12.2979C12.8362 12.2979 12.2979 12.8362 12.2979 13.5002C12.2979 14.1642 12.8362 14.7025 13.5002 14.7025Z" fill="#CE7088"/>
<path d="M13.5002 14.7025C14.1642 14.7025 14.7025 14.1642 14.7025 13.5002C14.7025 12.8362 14.1642 12.2979 13.5002 12.2979C12.8362 12.2979 12.2979 12.8362 12.2979 13.5002C12.2979 14.1642 12.8362 14.7025 13.5002 14.7025Z" stroke="#3D3D3D" stroke-width="0.2" stroke-miterlimit="10" stroke-linecap="round" stroke-linejoin="round"/>
<path d="M13.5 6.53906V6.75" stroke="#3D3D3D" stroke-width="0.5" stroke-miterlimit="10" stroke-linecap="round" stroke-linejoin="round"/>
<path d="M13.5 20.25V20.4609" stroke="#3D3D3D" stroke-width="0.5" stroke-miterlimit="10" stroke-linecap="round" stroke-linejoin="round"/>
<path d="M6.53906 13.5H6.75" stroke="#3D3D3D" stroke-width="0.5" stroke-miterlimit="10" stroke-linecap="round" stroke-linejoin="round"/>
<path d="M20.25 13.5H20.4609" stroke="#3D3D3D" stroke-width="0.5" stroke-miterlimit="10" stroke-linecap="round" stroke-linejoin="round"/>
<path d="M9.82959 7.15039L10.1249 7.65664" stroke="#3D3D3D" stroke-width="0.2" stroke-miterlimit="10" stroke-linecap="round" stroke-linejoin="round"/>
<path d="M16.875 19.3428L17.1703 19.8701" stroke="#3D3D3D" stroke-width="0.2" stroke-miterlimit="10" stroke-linecap="round" stroke-linejoin="round"/>
<path d="M7.17188 17.1492L7.65703 16.875" stroke="#3D3D3D" stroke-width="0.2" stroke-miterlimit="10" stroke-linecap="round" stroke-linejoin="round"/>
<path d="M19.3428 10.1248L19.8068 9.85059" stroke="#3D3D3D" stroke-width="0.2" stroke-miterlimit="10" stroke-linecap="round" stroke-linejoin="round"/>
<path d="M7.23535 9.89258L7.65723 10.1246" stroke="#3D3D3D" stroke-width="0.2" stroke-miterlimit="10" stroke-linecap="round" stroke-linejoin="round"/>
<path d="M19.3428 16.875L19.8279 17.1492" stroke="#3D3D3D" stroke-width="0.2" stroke-miterlimit="10" stroke-linecap="round" stroke-linejoin="round"/>
<path d="M9.87207 19.7857L10.1252 19.3428" stroke="#3D3D3D" stroke-width="0.2" stroke-miterlimit="10" stroke-linecap="round" stroke-linejoin="round"/>
<path d="M16.875 7.65703L17.1492 7.17188" stroke="#3D3D3D" stroke-width="0.2" stroke-miterlimit="10" stroke-linecap="round" stroke-linejoin="round"/>
</svg>
