<svg width="27" height="27" viewBox="0 0 27 27" fill="none" xmlns="http://www.w3.org/2000/svg">
<path fill-rule="evenodd" clip-rule="evenodd" d="M1.47635 16.862C0.782925 17.9742 0.983699 18.7511 1.2294 19.5111L12.4772 27.2341L22.9167 22.8338L22.1085 22.295L21.9289 21.397C22.2162 21.1195 22.487 20.8453 22.6698 20.5888C22.72 20.283 22.9511 19.8868 22.5575 19.803L10.6362 13.9658L2.48663 16.5476L2.10497 16.9069L1.47635 16.862Z" fill="#FC7575" stroke="#3D3D3D" stroke-width="0.082"/>
<path fill-rule="evenodd" clip-rule="evenodd" d="M12.7296 24.3108C12.4961 25.1345 12.5365 25.8669 12.8418 26.511L22.2037 22.7168C22.1424 22.9622 21.8536 21.3602 21.968 21.2687C22.0507 21.2026 22.7649 20.6288 22.6977 20.584L13.4929 24.1312C13.3049 24.3239 13.0948 24.4724 12.7296 24.3108Z" fill="#F4EED7" stroke="black" stroke-width="0.082"/>
<path fill-rule="evenodd" clip-rule="evenodd" d="M22.8781 20.335L13.5059 23.9316C13.4341 23.9914 13.2302 24.2175 13.0986 24.2452C12.9439 24.2777 12.7805 24.0729 12.5877 24.3057C12.4257 24.768 12.4064 25.0854 12.4597 25.5167C12.5296 26.0821 12.5635 26.2434 12.7499 26.7445L22.255 22.8889C22.386 22.4777 22.193 22.0736 22.131 21.7077C22.1104 21.5715 22.1137 21.4512 22.1772 21.2994C22.2407 21.1475 22.4618 21.0494 22.6956 20.7924C22.8342 20.6399 22.8649 20.4874 22.8781 20.335ZM22.3359 20.8196C22.3689 20.9997 22.0428 20.9741 21.884 21.1739C21.8506 21.2158 21.8252 21.2638 21.8041 21.3138C21.683 21.3549 21.2181 21.5125 20.9707 21.604C19.9409 21.9847 17.8862 22.764 17.9117 22.8258C17.9373 22.8877 19.955 22.0367 20.9821 21.7017C21.2455 21.6158 21.6508 21.4899 21.7619 21.4551C21.7304 21.5912 21.7259 21.7206 21.7341 21.7751C21.7846 22.1082 21.8331 22.3404 21.8279 22.5738L12.9528 26.2628C12.8235 25.9498 12.7334 25.6534 12.7147 25.3341C12.8147 25.2966 15.088 24.4436 16.2821 23.9381C17.3312 23.4939 19.5178 22.7215 19.4754 22.6587C19.433 22.5958 17.2622 23.3613 16.2161 23.8369C15.0935 24.3473 12.9838 25.1229 12.7102 25.1987C12.7119 24.9982 12.7417 24.7874 12.8119 24.5552C12.8776 24.5636 13.1279 24.5763 13.1949 24.5657C13.3443 24.542 13.4497 24.4118 13.5992 24.264C13.9326 24.137 22.3359 20.8196 22.3359 20.8196ZM17.9256 23.7813C16.8161 24.2286 13.9085 25.444 13.9033 25.5003C13.8981 25.5566 16.8702 24.3407 17.9688 23.8934C18.9791 23.4822 21.5181 22.5378 21.329 22.5283C21.1398 22.5188 18.8652 23.4026 17.9256 23.7813Z" fill="#EEBF9D"/>
<path fill-rule="evenodd" clip-rule="evenodd" d="M10.6977 13.7158L2.19962 16.3312C2.19962 16.3312 2.09238 16.6049 1.97042 16.6582C1.79252 16.7359 1.39347 16.5793 1.39347 16.5793C1.03909 16.7433 0.778048 17.457 0.737632 18.1152C0.697216 18.7734 0.831479 19.4218 1.04819 19.6645L12.2872 27.4914C12.4554 27.5865 12.5409 27.5574 12.6265 27.5286L23.1591 23.1818C23.3675 23.0876 23.378 22.8642 23.2013 22.6237L22.1684 21.9068C22.2516 22.2819 22.3131 22.6359 22.2696 22.842C20.2125 23.6661 15.4265 25.6052 12.7019 26.768C12.49 26.4728 12.4662 26.02 12.4246 25.6206C12.3783 25.176 12.4223 24.5802 12.5972 24.3164C12.7722 24.0525 12.984 24.3134 13.1221 24.2489C13.2335 24.1969 13.4049 24.0783 13.4977 23.9398C15.614 23.2314 20.2775 21.3478 23.1214 20.2409C23.3258 20.031 23.2138 19.9001 23.0862 19.7731L10.6977 13.7158ZM10.656 14.2447L22.2408 20.0256L13.1866 23.4834C13.1866 23.4834 13.0626 23.6908 12.9515 23.7305C12.8553 23.7648 12.708 23.6314 12.6027 23.595C12.4731 23.5502 12.2573 23.6322 12.1647 23.7766C11.9442 24.1203 11.8108 24.5407 11.7405 24.9414C11.6559 25.4237 11.7232 25.8924 11.8511 26.3176L1.73329 19.3559C1.50233 19.1989 1.27541 18.7313 1.30566 18.2387C1.33632 17.7393 1.45871 17.2246 1.78637 17.0664C1.78637 17.0664 2.15623 17.1973 2.27106 17.1627C2.40032 17.1238 2.55681 16.8467 2.55681 16.8467L10.656 14.2447ZM2.50237 17.4381C2.3061 17.5202 5.59131 19.441 7.31683 20.4731C8.97841 21.467 12.5367 23.5641 12.6414 23.3981C12.7461 23.2321 9.17066 21.2567 7.51576 20.2633C5.84075 19.2578 2.69865 17.3559 2.50237 17.4381Z" fill="#3D3D3D"/>
<path fill-rule="evenodd" clip-rule="evenodd" d="M1.8806 11.3788L2.71128 11.1543L11.5568 11.0869L21.4127 17.1037L21.0085 17.3282L20.6044 18.5181C20.7204 18.8399 20.7109 19.4128 20.9861 19.4161L8.68315 22.4469L1.31934 13.781C1.42832 12.9542 1.12678 11.9906 1.8806 11.3788Z" fill="white" stroke="#FF0000" stroke-width="0.082"/>
<path fill-rule="evenodd" clip-rule="evenodd" d="M9.04804 19.5899C9.34605 19.6291 9.63547 19.7285 9.99096 19.3654L20.7897 17.6592C20.5259 18.2197 20.455 18.7526 20.6101 19.2532L9.29499 21.835C8.88369 21.5804 8.69654 21.2137 8.64393 20.7798C8.59574 20.4518 8.62261 20.0956 9.04804 19.5899Z" fill="#F4EED7" stroke="#3D3D3D" stroke-width="0.082"/>
<path fill-rule="evenodd" clip-rule="evenodd" d="M21.3158 17.4062C17.4629 17.9597 11.8973 18.7998 9.87138 19.1813C9.79015 19.2928 9.65353 19.3896 9.48045 19.4298C9.41497 19.445 9.25508 19.4146 9.07465 19.3986C8.64816 19.6763 8.46611 20.2476 8.52349 20.7752C8.59695 21.4507 8.8726 21.7108 9.23613 21.9708C13.1375 21.1053 17.0389 20.3933 20.9402 19.342C20.6582 18.4651 20.923 17.9463 21.3158 17.4062ZM20.4883 17.8899C20.3408 18.1762 20.3165 18.3658 20.3583 18.6872C20.2756 18.7027 19.35 18.8761 18.8546 18.9729C18.2525 19.0906 17.0815 19.2607 17.0796 19.348C17.0778 19.4352 18.2979 19.2355 18.8958 19.1118C19.3372 19.0205 20.1597 18.9215 20.3702 18.7631C20.3814 18.8379 20.3916 18.9092 20.4084 19.0012L9.35494 21.6027C9.21256 21.5164 9.09004 21.3473 9.00172 21.1681C9.19132 21.1312 10.9675 20.7864 11.9049 20.6403C12.984 20.4721 15.1334 20.0085 15.1037 19.9314C15.074 19.8542 13.0524 20.3733 11.8875 20.4949C10.9184 20.5961 9.10619 20.9734 8.93376 21.0094C8.89995 20.9144 8.87502 20.8219 8.86976 20.7435C8.84246 20.3359 8.83206 20.0605 9.18925 19.7002C9.26637 19.7629 9.43677 19.8039 9.57322 19.7746C9.7716 19.7319 9.8626 19.6808 9.98548 19.5449L20.4883 17.8899ZM19.0804 18.5284C18.8857 18.4932 16.2782 18.9868 14.9315 19.2001C13.0799 19.4934 9.35836 19.9805 9.40108 20.0886C9.4438 20.1968 13.1574 19.6165 15.0243 19.3078C16.4418 19.0734 19.275 18.5636 19.0804 18.5284Z" fill="#EEBF9D"/>
<path fill-rule="evenodd" clip-rule="evenodd" d="M11.6296 10.8496L2.57742 10.9374C2.51859 11.0212 2.3781 11.1447 2.30953 11.1602C2.23741 11.1764 2.04192 11.0177 1.92208 11.0639C1.37858 11.2734 1.32288 11.9113 1.22953 12.265C1.0617 12.9009 1.21133 13.8678 1.40267 14.1551C1.68842 14.4885 8.20783 22.2064 8.45662 22.4518C8.74401 22.7352 9.00727 22.7739 9.48652 22.6487C11.6265 22.0898 17.8543 20.733 21.7886 19.6622C22.0207 19.5408 21.9253 19.3401 21.7554 19.179L20.8118 18.606C20.8162 18.864 20.8529 19.0991 20.9289 19.3412C17.2728 20.1845 12.9184 21.1331 9.21019 21.9676C8.88763 21.8541 8.56087 21.3479 8.5236 21.084C8.42048 20.354 8.55795 20.0077 8.69822 19.8046C8.83792 19.6023 8.94538 19.4799 9.07327 19.4003C9.2146 19.4148 9.42363 19.4751 9.54803 19.4286C9.67986 19.3792 9.77212 19.2829 9.869 19.1929L21.6363 17.3564C21.8192 17.2182 21.7016 17.0247 21.6105 16.9421L11.6296 10.8496ZM11.5235 11.3784L20.728 17.0032L9.58722 18.7162C9.46455 18.7788 9.42153 18.9215 9.36696 18.9419C9.31239 18.9623 9.13691 18.9209 8.98893 18.9067C8.68165 18.997 8.28366 19.5543 8.18675 19.95C7.96512 20.8548 8.13562 21.3212 8.53798 21.9651L1.8427 13.9209C1.68101 13.6748 1.58938 13.262 1.69685 12.5909C1.75017 12.2579 1.86294 11.9359 2.03419 11.6617C2.14249 11.67 2.23896 11.7468 2.41966 11.6885C2.65234 11.6135 2.64828 11.4363 2.70392 11.4152L11.5235 11.3784ZM2.58098 11.9764C2.45606 12.0902 4.67301 14.214 5.76631 15.3522C6.87263 16.5038 8.9393 18.892 9.10353 18.7653C9.26777 18.6386 7.07296 16.3148 5.9712 15.1686C4.90652 14.061 2.7059 11.8627 2.58098 11.9764Z" fill="#3D3D3D"/>
<path fill-rule="evenodd" clip-rule="evenodd" d="M11.2644 7.44043L1.61061 8.80992C1.28414 9.65224 0.767436 10.3899 1.58816 11.8632L11.6909 19.5413L23.0959 16.1513L22.2428 15.6798C22.2633 14.795 22.4869 14.0211 22.9612 13.0755L11.2644 7.44043Z" fill="#FF88AB" stroke="#FF6600" stroke-width="0.082"/>
<path fill-rule="evenodd" clip-rule="evenodd" d="M11.8768 16.4833C11.648 16.874 11.5747 17.3425 11.5849 17.8528L11.8992 18.7283L22.3388 15.9893L22.249 14.9117L22.5633 14.0586L11.8768 16.4833Z" fill="#F4EED7" stroke="black" stroke-width="0.082"/>
<path fill-rule="evenodd" clip-rule="evenodd" d="M23.0873 13.7246L22.5748 13.8397L11.8761 16.216C11.6799 16.4277 11.351 16.848 11.4534 17.7618C11.5059 18.2299 11.6248 18.6507 11.9113 19.0249L22.4865 16.1356C22.5299 15.8641 22.4908 15.3196 22.5247 14.9266C22.5587 14.5337 22.6869 14.3917 22.8169 14.1751L23.0873 13.7246ZM22.2534 14.2902C22.1987 14.4854 22.1172 14.6673 22.0792 14.8706C21.9508 14.8661 21.7609 14.8623 21.6496 14.8855C20.9956 15.0217 19.6912 15.3842 19.7292 15.4594C19.7673 15.5347 20.9494 15.1053 21.6972 15.0586C21.8054 15.0519 21.9471 15.0594 22.0549 15.0665C22.0448 15.1888 22.0394 15.2886 22.0351 15.3865C20.8731 15.6792 19.5805 15.9934 18.422 16.2785C16.9304 16.6455 14.7105 17.1275 14.739 17.2513C14.7676 17.3752 16.9854 16.771 18.4662 16.4065C19.6239 16.1215 20.8686 15.8511 22.0306 15.5607C22.032 15.6396 22.0366 15.7112 22.0495 15.768L12.1846 18.4494C11.8742 18.3247 11.8722 17.9922 11.8384 17.737C11.7873 17.3513 11.7867 16.9065 12.0423 16.7002L22.2534 14.2902ZM16.5939 16.0156C14.9666 16.4173 11.9875 17.2056 12.014 17.2846C12.0405 17.3635 15.0095 16.5611 16.6172 16.1247C17.4674 15.8939 19.2107 15.4663 19.0554 15.425C18.9001 15.3838 17.3898 15.8191 16.5939 16.0156Z" fill="#EEBF9D"/>
<path fill-rule="evenodd" clip-rule="evenodd" d="M11.2732 7.28711L1.69362 8.55909C1.20161 8.69982 0.920806 9.77519 0.942042 10.4254C0.958652 10.934 1.23887 11.7392 1.5572 12.0913L11.7579 19.8492L23.5838 16.4137C23.7325 16.2201 23.6596 16.1152 23.6036 16.0035L22.4904 15.3278C22.4904 15.3278 22.5167 15.8135 22.4849 16.131C19.4446 16.929 14.6369 18.2469 11.7941 19.0475C11.619 18.8716 11.3804 18.1926 11.367 17.7572C11.3441 17.014 11.457 16.5435 11.7455 16.2828L23.6294 13.6068C23.7673 13.5175 23.7836 13.2973 23.5823 13.1028L11.2732 7.28711ZM11.2409 7.69688L22.533 13.2154L11.2325 15.7296C10.8341 16.2159 10.7342 16.7491 10.7434 17.2829C10.751 17.729 10.8723 18.3864 11.0857 18.735L1.88264 11.6374C1.65439 11.4316 1.48841 10.7796 1.48774 10.4884C1.48672 10.0394 1.64007 9.59734 1.90248 9.03386L11.2409 7.69688ZM2.40705 9.35864C2.17172 9.46147 6.19964 12.3319 6.19964 12.3319C6.19964 12.3319 10.8771 15.7383 10.9339 15.5798C10.9907 15.4213 6.53103 12.0174 6.53103 12.0174C6.53103 12.0174 2.64237 9.2558 2.40705 9.35864Z" fill="#3D3D3D"/>
<path fill-rule="evenodd" clip-rule="evenodd" d="M12.7686 4.57715L3.4516 7.22632C3.4516 7.22632 3.33935 7.58554 3.20465 7.56308C3.06994 7.54063 2.50868 7.54063 2.50868 7.54063C2.00918 8.17761 1.99805 8.78202 2.39642 9.35914L15.6872 15.8698L25.6104 12.2777L25.1614 11.8961L25.6328 11.2001L25.6553 10.1L12.7686 4.57715Z" fill="#3D3D3D" stroke="#FF6600" stroke-width="0.082"/>
<path fill-rule="evenodd" clip-rule="evenodd" d="M12.7763 4.41309C9.64394 5.28479 6.10302 6.22178 3.25228 6.97343C3.1967 7.0087 3.17634 7.14582 3.05483 7.27009C3.00188 7.32425 2.77987 7.21002 2.70112 7.21899C2.57776 7.23304 2.43549 7.33666 2.33599 7.42438C2.20029 7.544 2.15961 7.6613 2.09936 7.8277C2.03713 7.99954 2.03883 8.19079 2.02494 8.40515C1.99716 8.83388 2.07669 9.33618 2.25612 9.57197C6.655 11.7478 11.3643 14.1699 15.5748 16.2191C15.6633 16.2877 15.8612 16.2982 15.9736 16.2792C16.0861 16.2601 16.182 16.2225 16.2172 16.1472C16.2395 16.0994 16.3064 16.0079 16.3794 15.9602C16.4537 15.9116 16.5242 16.035 16.6915 16.0321L25.8895 12.5128C25.9921 12.4736 26.0595 12.3248 25.89 12.1884L25.3037 11.8113L25.01 12.2514C22.2783 13.1901 19.1932 14.3221 16.3045 15.3802C16.084 15.3331 15.8288 14.8685 15.8154 14.6495C15.8004 14.4052 15.9241 14.1244 15.9999 14.0036C19.2061 12.8094 22.6969 11.6227 26.1668 10.3925C26.3298 10.3007 26.2827 10.156 26.1416 9.98819L12.7763 4.41309ZM12.7609 4.81889L25.2352 10.2591L15.9309 13.4663C15.7177 13.5468 15.5857 13.719 15.4735 13.883C15.3276 14.0963 15.2275 14.4144 15.2508 14.7953C15.2724 15.1476 15.36 15.385 15.479 15.5757L2.64952 9.22024C2.48024 8.97122 2.48716 8.74439 2.50367 8.44583C2.51666 8.21098 2.58089 8.00518 2.71848 7.83117C2.73472 7.81063 2.91781 7.67105 3.10841 7.77908C3.18725 7.82377 3.26389 7.82529 3.39813 7.72898C3.56343 7.61038 3.50577 7.50178 3.61988 7.40999L12.7609 4.81889H12.7609ZM3.53803 7.7141C3.50596 7.70809 3.48691 7.70944 3.48147 7.71806C3.3945 7.85604 7.14404 9.63917 9.0025 10.5458C11.0564 11.5478 15.1486 13.5464 15.2215 13.4311C15.2944 13.3158 11.1484 11.3046 9.08188 10.3017C7.3478 9.46017 4.019 7.80413 3.53803 7.7141Z" fill="#FC7575"/>
<path fill-rule="evenodd" clip-rule="evenodd" d="M25.6837 10.6562L16.0458 14.1109C15.9507 14.5171 15.9555 14.6331 16.0485 14.8017L16.3442 15.2362L25.0682 12.1049C25.4818 11.5936 25.7347 11.1042 25.6837 10.6562H25.6837Z" fill="#F4EED7" stroke="black" stroke-width="0.082"/>
<path fill-rule="evenodd" clip-rule="evenodd" d="M25.8468 10.5117C22.453 11.6218 17.755 13.3809 16.0296 13.9745C15.8344 14.189 15.8487 14.462 15.9135 14.7136C15.9783 14.9652 16.1853 15.3153 16.3357 15.3759L25.0882 12.2391C25.1549 12.1469 25.4352 11.8874 25.6225 11.5992C25.7162 11.4551 25.7887 11.218 25.8254 11.0609C25.8622 10.9038 25.9226 10.6251 25.8468 10.5117H25.8468ZM25.5203 10.8347C25.5852 11.0406 25.4422 11.2019 25.3452 11.3605C25.1908 11.6131 24.9854 11.8657 24.8496 12.0466L16.4508 15.0584C16.3155 14.9875 16.2068 14.8334 16.1596 14.6501C16.1111 14.462 16.1272 14.2609 16.1814 14.1749L25.5203 10.8347ZM21.0684 12.6256C19.6092 13.1581 16.6724 14.1066 16.7147 14.2642C16.757 14.4218 19.6747 13.2736 21.1473 12.7342C22.5327 12.2268 25.1672 11.2623 25.1149 11.1976C25.0626 11.1329 22.3802 12.1468 21.0684 12.6256ZM24.8516 11.7614C24.8198 11.7221 23.7617 12.0909 23.2413 12.2892C22.7514 12.4759 16.4135 14.7437 16.4428 14.8218C16.4721 14.8998 22.829 12.5864 23.3246 12.3999C23.8409 12.2055 24.8834 11.8006 24.8516 11.7614Z" fill="#EEBF9D"/>
<path fill-rule="evenodd" clip-rule="evenodd" d="M13.5325 1.1416L3.11538 3.20706C2.35366 3.9432 2.08245 4.86619 2.57657 6.08074L13.1508 13.1302L25.4313 10.0321L24.3537 9.26873L24.2639 8.1013L25.2517 6.75426L13.5325 1.1416Z" fill="url(#paint0_linear_101_85)" stroke="#FF6600" stroke-width="0.082"/>
<path fill-rule="evenodd" clip-rule="evenodd" d="M13.8299 10.1843L24.6286 7.49023C24.1644 8.51475 24.3645 8.95798 24.3368 9.60059L13.5605 12.4743L13.3584 11.464L13.8299 10.1843Z" fill="#F4EED7" stroke="#3D3D3D" stroke-width="0.082"/>
<path fill-rule="evenodd" clip-rule="evenodd" d="M25.2145 7.18156C25.1793 7.18566 25.1411 7.20294 25.1212 7.20785L13.7899 9.96564C13.5271 10.4021 13.2652 10.8341 13.2154 11.3026C13.1687 11.7427 13.3884 12.3217 13.4675 12.711L24.6474 9.77415C24.5624 9.34 24.5054 8.94299 24.5006 8.59096C24.4947 8.16249 24.6911 7.84648 24.8841 7.62507C24.9805 7.51436 25.0542 7.48908 25.1301 7.43457C25.1935 7.38903 25.2671 7.35233 25.2928 7.30856C25.3049 7.28807 25.3003 7.27215 25.2923 7.23315C25.2829 7.18631 25.2498 7.17744 25.2144 7.18156H25.2145ZM24.2287 7.73719C24.057 7.94713 24.0119 8.1024 24.0015 8.26553C23.2524 8.37483 20.8603 8.89421 19.562 9.19124C18.0521 9.53666 15.0376 10.274 15.0604 10.3516C15.0832 10.4292 18.1108 9.72125 19.627 9.3743C20.9228 9.07778 23.2554 8.55956 23.999 8.34143C23.9987 8.43883 24.0035 8.54094 24.004 8.66438C24.006 9.20267 24.083 9.38981 24.1042 9.48641L13.6758 12.0944C13.6399 11.9978 13.6182 11.9195 13.6019 11.8458C13.8238 11.8477 14.5025 11.7189 14.8645 11.63C15.3343 11.5147 16.8978 11.0728 16.891 11.0089C16.8842 10.9451 15.2862 11.3655 14.8024 11.4842C14.447 11.5714 13.7948 11.6994 13.591 11.7843C13.567 11.6397 13.5702 11.5058 13.5835 11.2957C13.6157 10.7891 13.8473 10.4833 13.8857 10.4255L24.2287 7.73719ZM18.0107 10.1998C16.6945 10.489 14.0834 11.0171 14.0896 11.1305C14.0957 11.2438 16.7488 10.6764 18.0648 10.3873C19.5262 10.0662 22.4499 9.37647 22.2421 9.34023C22.0344 9.30399 19.3806 9.89882 18.0107 10.1998Z" fill="#EEBF9D"/>
<path fill-rule="evenodd" clip-rule="evenodd" d="M13.5767 0.99707L2.86409 3.08116C2.86409 3.08116 2.15894 3.88002 2.17005 4.70239C2.18085 5.50193 2.27498 5.97687 2.50392 6.20605C2.83763 6.43864 13.1491 13.4138 13.1491 13.4138L25.5753 10.144C25.7034 9.98665 25.609 9.86634 25.5138 9.74618L24.5627 9.31904L24.6456 9.75362C20.9845 10.7253 17.1185 11.7283 13.4011 12.6508C13.3506 12.4354 13.1746 11.833 13.158 11.6224C13.0948 10.8183 13.6294 10.0831 13.6998 9.98976L25.4458 7.20717C25.5744 7.03416 25.5377 6.80533 25.3996 6.6704L13.5767 0.99707ZM13.5465 1.37063L24.723 6.80385L13.4631 9.62017C13.4631 9.62017 12.6136 10.4697 12.6877 11.606C12.7149 12.0227 12.9349 12.607 12.9755 12.7654L2.93007 6.06616C2.72496 5.85325 2.65936 5.42174 2.64928 4.67511C2.64275 4.19192 3.02303 3.54185 3.08038 3.49143L13.5465 1.37063ZM3.2689 3.55592C3.20993 3.6755 6.4593 5.60381 8.08696 6.57316C9.80991 7.59926 13.1666 9.6722 13.3208 9.54228C13.4749 9.41237 9.97005 7.39885 8.26208 6.38167C6.61943 5.40339 3.32787 3.43635 3.2689 3.55592Z" fill="#3D3D3D"/>
<defs>
<linearGradient id="paint0_linear_101_85" x1="31.0999" y1="8.68616" x2="1.89212" y2="8.58139" gradientUnits="userSpaceOnUse">
<stop stop-color="#FF835B"/>
<stop offset="1" stop-color="#F2709C"/>
</linearGradient>
</defs>
</svg>
