<?xml version="1.0" encoding="utf-8"?>
<!-- Generator: Adobe Illustrator 25.2.0, SVG Export Plug-In . SVG Version: 6.00 Build 0)  -->
<svg version="1.1" id="Layer_1" xmlns="http://www.w3.org/2000/svg" xmlns:xlink="http://www.w3.org/1999/xlink" x="0px" y="0px"
	 viewBox="0 0 195 131" style="enable-background:new 0 0 195 131;" xml:space="preserve">
<style type="text/css">
	.st0{clip-path:url(#SVGID_2_);}
	.st1{fill:#EBEBEB;}
	.st2{fill:#E0E0E0;}
	.st3{fill:#F5F5F5;}
	.st4{fill:#263238;}
	.st5{opacity:0.3;}
	.st6{opacity:0.3;enable-background:new    ;}
	.st7{opacity:0.3;fill:#FFFFFF;enable-background:new    ;}
	.st8{fill:#FF725E;}
	.st9{fill:#FFFFFF;}
	.st10{fill:#AE7461;}
	.st11{fill:#6F4439;}
	.st12{fill:#455A64;}
</style>
<g>
	<defs>
		<rect id="SVGID_1_" width="195" height="130.7"/>
	</defs>
	<clipPath id="SVGID_2_">
		<use xlink:href="#SVGID_1_"  style="overflow:visible;"/>
	</clipPath>
	<g class="st0">
		<path class="st1" d="M176.5,24.5c0.8-2.5-0.7-5.2-3.2-6c-2.5-0.8-5.2,0.7-6,3.2c-0.8,2.5,0.7,5.2,3.2,6
			C173,28.5,175.7,27,176.5,24.5z"/>
		<path class="st2" d="M171.2,33.8c0,0-0.1-0.9-0.1-2c0-1.1,0-2,0.1-2c0,0,0.1,0.9,0.1,2C171.3,33,171.2,33.8,171.2,33.8z"/>
		<path class="st2" d="M168.5,28.8c0,0-0.4,0.8-1,1.9c-0.6,1-1.1,1.8-1.1,1.8c0,0,0.4-0.8,1-1.9C167.9,29.6,168.4,28.8,168.5,28.8z"
			/>
		<path class="st2" d="M165.6,27c0,0-0.5,0.4-1.1,1c-0.6,0.5-1.2,0.9-1.2,0.9c0,0,0.5-0.4,1.1-1C165.1,27.4,165.6,27,165.6,27z"/>
		<path class="st2" d="M176,31.9c0,0-0.1-0.2-0.1-0.5c-0.1-0.3-0.2-0.7-0.3-1.2c-0.1-0.4-0.2-0.9-0.3-1.2c-0.1-0.3-0.2-0.5-0.1-0.5
			c0,0,0.1,0.2,0.2,0.5c0.1,0.3,0.2,0.7,0.4,1.1c0.1,0.5,0.2,0.9,0.3,1.2C176,31.7,176,31.9,176,31.9z"/>
		<path class="st2" d="M180.8,28.4c0,0-0.7-0.5-1.4-1.2S178,26,178.1,26c0,0,0.6,0.5,1.4,1.2C180.3,27.9,180.9,28.4,180.8,28.4z"/>
		<path class="st2" d="M182.7,23.7c0,0-0.2,0-0.6-0.1c-0.4-0.1-0.8-0.1-1.4-0.2c-0.5-0.1-1-0.1-1.4-0.1c-0.4,0-0.6,0-0.6-0.1
			c0,0,0.2,0,0.6,0c0.4,0,0.9,0,1.4,0.1c0.5,0.1,1,0.2,1.4,0.2C182.5,23.6,182.7,23.7,182.7,23.7z"/>
		<path class="st2" d="M182.7,19c0,0-1,0.3-2.3,0.6c-1.3,0.3-2.3,0.5-2.3,0.5c0,0,1-0.3,2.3-0.6C181.7,19.2,182.7,19,182.7,19z"/>
		<path class="st2" d="M177.3,13.5c0,0-0.5,0.8-1.1,1.8c-0.6,1-1.2,1.7-1.2,1.7c0,0,0.5-0.8,1.1-1.8
			C176.7,14.3,177.3,13.5,177.3,13.5z"/>
		<path class="st2" d="M171.9,12.4c0,0,0,0.3,0,0.7c0,0.4,0,1,0,1.6c0,0.6,0,1.2,0,1.6c0,0.4,0,0.7,0,0.7c0,0-0.1-0.3-0.1-0.7
			c0-0.4-0.1-1-0.1-1.6c0-0.6,0-1.2,0.1-1.6C171.9,12.7,171.9,12.4,171.9,12.4z"/>
		<path class="st2" d="M167.9,17.5c0,0-0.5-0.8-1.1-1.8c-0.6-1-1.1-1.8-1-1.8c0,0,0.5,0.8,1.1,1.8C167.4,16.7,167.9,17.5,167.9,17.5
			z"/>
		<path class="st2" d="M165.4,19.6c0,0-0.2,0-0.5-0.1c-0.3-0.1-0.7-0.2-1.2-0.3s-0.9-0.3-1.2-0.4c-0.3-0.1-0.5-0.2-0.5-0.2
			c0,0,0.2,0.1,0.5,0.1c0.3,0.1,0.7,0.2,1.2,0.4c0.5,0.1,0.9,0.3,1.2,0.3C165.3,19.5,165.4,19.6,165.4,19.6z"/>
		<path class="st2" d="M164.4,23.3c0,0-0.7,0.1-1.5,0.2c-0.9,0.1-1.5,0.1-1.5,0.1c0,0,0.7-0.1,1.5-0.2
			C163.7,23.3,164.4,23.2,164.4,23.3z"/>
		<path class="st1" d="M58,21.8c0.2-1.3-1.7-2.4-3-2.5c-0.7-0.1-1.3,0.1-2-0.2c-1.4-0.5-1.9-2.2-3.2-2.8c-1-0.4-2.1-0.1-3.1,0.4
			c-1,0.5-1.9,1.1-3,1.2c-0.9,0.1-1.9-0.3-2.7,0.2c-0.6,0.3-0.9,1-1.5,1.5c-0.5,0.4-1.2,0.5-1.9,0.5c-0.7,0-1.4,0.1-2,0.3
			s-1.1,0.9-1,1.6L58,21.8z"/>
		<path class="st3" d="M28.5,34c0.1-0.9-1.1-1.6-2.1-1.7c-0.4,0-0.9,0-1.4-0.1c-0.9-0.3-1.3-1.5-2.2-1.9c-0.7-0.3-1.5,0-2.1,0.3
			c-0.6,0.3-1.3,0.8-2.1,0.8c-0.6,0.1-1.3-0.2-1.9,0.1c-0.4,0.2-0.6,0.7-1,1c-0.4,0.3-0.9,0.3-1.3,0.4c-0.5,0-1,0-1.4,0.2
			c-0.4,0.2-0.8,0.7-0.7,1.1L28.5,34z"/>
		<path class="st3" d="M145.1,21.7c0.1-0.9-1.1-1.6-2.1-1.7c-0.4,0-0.9,0-1.4-0.1c-0.9-0.3-1.3-1.5-2.2-1.9c-0.7-0.3-1.5,0-2.1,0.3
			c-0.6,0.3-1.3,0.8-2.1,0.8c-0.6,0.1-1.3-0.2-1.9,0.1c-0.4,0.2-0.6,0.7-1,1c-0.4,0.3-0.9,0.3-1.3,0.4c-0.5,0-1,0-1.4,0.2
			c-0.4,0.2-0.8,0.7-0.7,1.1L145.1,21.7z"/>
		<path class="st1" d="M181.5,64.7c0.2-1.3-1.6-2.3-3-2.4c-0.7-0.1-1.3,0.1-1.9-0.2c-1.3-0.5-1.8-2.2-3.1-2.7c-1-0.4-2.1-0.1-3,0.4
			c-0.9,0.5-1.8,1.1-2.9,1.1c-0.9,0.1-1.9-0.3-2.7,0.2c-0.6,0.3-0.9,1-1.5,1.4c-0.5,0.4-1.2,0.5-1.9,0.5c-0.6,0-1.4,0.1-1.9,0.3
			c-0.6,0.3-1.1,0.9-1,1.6L181.5,64.7z"/>
		<path class="st3" d="M150.6,39.5H35.9v14h114.6V39.5z"/>
		<path class="st3" d="M148.1,46.5V34.4l6.6,6.1l6.6,6l-6.6,6.1l-6.6,6V46.5z"/>
		<path class="st2" d="M173.1,102.7h-43.9l3.6,8.2l7.8,6.2l6.4,0.8l3.6,2.9l22.5,8.9V102.7z"/>
		<path class="st4" d="M173.1,102.7c0,0,0,0.2,0,0.5c0,0.3,0,0.8,0,1.4c0,1.3,0,3.1,0,5.4c0,4.7,0,11.5,0,19.7v0.1l-0.1,0
			c-6.5-2.6-14.2-5.6-22.5-8.8c-1.1-0.9-2.3-1.9-3.6-2.9l0,0c-2.1-0.3-4.2-0.6-6.4-0.9h0h0c-0.1-0.1-0.2-0.1-0.2-0.2
			c-2.6-2.1-5.1-4.1-7.6-6v0c-1.2-2.8-2.5-5.5-3.6-8.2l0-0.1h0.1c12.8,0,23.8,0,31.6,0c3.9,0,7,0,9.1,0c1.1,0,1.9,0,2.4,0
			c0.3,0,0.5,0,0.6,0C173,102.7,173.1,102.7,173.1,102.7s-0.1,0-0.2,0c-0.1,0-0.4,0-0.6,0c-0.5,0-1.4,0-2.4,0c-2.1,0-5.2,0-9.1,0
			c-7.8,0-18.8,0-31.5,0l0-0.1c1.2,2.6,2.4,5.3,3.6,8.2l0,0c2.5,2,5,4,7.6,6c0.1,0.1,0.2,0.1,0.2,0.2l0,0c2.2,0.3,4.4,0.6,6.4,0.9h0
			h0c1.2,1,2.4,2,3.6,2.9h0c8.3,3.3,16,6.3,22.5,8.9l-0.1,0c0-8.2,0-14.9,0-19.6c0-2.4,0-4.2,0-5.4c0-0.6,0-1.1,0-1.4
			C173.1,102.9,173.1,102.7,173.1,102.7z"/>
		<g class="st5">
			<path class="st6" d="M129.6,102.7l4.7,7.3l14.3,4.9l2.5,5.4l5.7,3l-5.7-2.2l-4.1-3.2l-6.4-0.8l-7.8-6.2l-3.6-8.2"/>
			<path class="st7" d="M156.8,123.4l-5.7-2.3L147,118l-6.4-0.9l-7.8-6.2l-3.6-8.2l3.6,8.2l7.8,6.2l6.4,0.8l4.1,3.2L156.8,123.4
				l-5.7-3l-2.5-5.3l-14.3-4.9l-4.7-7.3v0l4.7,7.3l14.3,4.9l2.5,5.4L156.8,123.4L156.8,123.4z"/>
		</g>
		<path class="st2" d="M72.6,113.7l1-2.7l1.9,0.5v2.6L72.6,113.7z"/>
		<path class="st4" d="M72.6,113.7c0,0,0.1,0,0.2,0c0.2,0,0.4,0,0.6,0.1c0.5,0.1,1.2,0.2,2.1,0.3l-0.1,0c0-0.7,0-1.4,0-2.2
			c0-0.1,0-0.2,0-0.4l0,0.1c-0.7-0.2-1.3-0.3-1.9-0.5l0.1,0c-0.3,0.8-0.5,1.4-0.7,1.9c-0.1,0.2-0.2,0.4-0.2,0.5
			C72.6,113.6,72.6,113.7,72.6,113.7c0,0,0-0.1,0.1-0.2c0-0.1,0.1-0.3,0.2-0.5c0.2-0.5,0.4-1.1,0.7-1.9l0,0h0
			c0.6,0.1,1.2,0.3,1.9,0.5h0v0c0,0.1,0,0.2,0,0.4c0,0.8,0,1.6,0,2.2v0.1h-0.1c-0.9-0.1-1.6-0.2-2.1-0.3c-0.2,0-0.4-0.1-0.6-0.1
			C72.7,113.7,72.6,113.7,72.6,113.7z"/>
		<path class="st2" d="M71.6,116l1.1-0.8l0.3,1.5h-1.1L71.6,116z"/>
		<path class="st4" d="M71.6,116c0,0,0,0.1,0.1,0.2c0,0.1,0.1,0.3,0.2,0.5l0,0c0.3,0,0.7,0,1.1,0l-0.1,0.1c0-0.2-0.1-0.3-0.1-0.5
			c-0.1-0.3-0.1-0.7-0.2-1l0.1,0c-0.3,0.2-0.6,0.4-0.8,0.5C71.7,115.9,71.6,116,71.6,116s0.1-0.1,0.3-0.2c0.2-0.1,0.4-0.4,0.8-0.6
			l0.1,0l0,0.1c0.1,0.3,0.1,0.6,0.2,1c0,0.2,0.1,0.3,0.1,0.5l0,0.1h-0.1c-0.4,0-0.8,0-1.1,0h0v0c-0.1-0.2-0.1-0.4-0.2-0.5
			C71.6,116.1,71.6,116,71.6,116z"/>
		<path class="st2" d="M74.1,116.9l0.7-0.8l0.3,0.7l-0.4,0.5L74.1,116.9z"/>
		<path class="st4" d="M74.1,116.9c0,0,0.3,0.1,0.6,0.3h-0.1c0.1-0.1,0.3-0.3,0.4-0.5v0.1c0-0.1-0.1-0.2-0.1-0.2
			c-0.1-0.2-0.1-0.3-0.2-0.5l0.1,0C74.4,116.6,74.1,116.9,74.1,116.9s0.3-0.3,0.7-0.8l0.1-0.1l0,0.1c0.1,0.1,0.1,0.3,0.2,0.5
			c0,0.1,0.1,0.2,0.1,0.2l0,0l0,0c-0.1,0.2-0.3,0.3-0.4,0.5l0,0l0,0C74.3,117.1,74,116.9,74.1,116.9z"/>
		<path class="st2" d="M31.2,106h40.3l-3.3,7.5l-7.2,5.7l-5.9,0.8l-3.3,2.7l-20.6,8.1V106z"/>
		<path class="st4" d="M31.2,106c0,0,0,0.2,0,0.5c0,0.3,0,0.7,0,1.3c0,1.2,0,2.8,0,5c0,4.3,0,10.5,0,18l-0.1,0
			c6-2.4,13-5.1,20.6-8.1h0c1-0.8,2.2-1.8,3.3-2.7h0h0c1.9-0.3,3.9-0.5,5.9-0.8l0,0c0.1-0.1,0.1-0.1,0.2-0.2
			c2.4-1.9,4.7-3.7,6.9-5.5l0,0c1.1-2.6,2.3-5.1,3.3-7.5l0,0.1c-11.7,0-21.8,0-28.9,0c-3.6,0-6.4,0-8.4,0c-1,0-1.7,0-2.2,0
			c-0.3,0-0.4,0-0.6,0C31.2,106,31.2,106,31.2,106s0.1,0,0.2,0s0.3,0,0.6,0c0.5,0,1.3,0,2.2,0c2,0,4.8,0,8.4,0c7.2,0,17.2,0,29,0
			h0.1l0,0.1c-1.1,2.4-2.2,4.9-3.3,7.5v0c-2.3,1.8-4.6,3.6-6.9,5.5c-0.1,0.1-0.1,0.1-0.2,0.2h0h0c-2,0.3-4,0.5-5.9,0.8l0,0
			c-1.1,0.9-2.2,1.8-3.3,2.7c-7.6,3-14.7,5.8-20.7,8.1l-0.1,0v-0.1c0-7.5,0-13.7,0-18.1c0-2.2,0-3.8,0-5c0-0.6,0-1,0-1.3
			C31.2,106.2,31.2,106,31.2,106z"/>
		<g class="st5">
			<path class="st6" d="M71,106l-4.3,6.7l-13.1,4.5l-2.3,4.9l-5.2,2.8l5.8-2.3l3.2-2.7l5.9-0.8l7.2-5.7l3.3-7.5"/>
			<path class="st7" d="M46.1,124.9l5.2-2.8l2.3-4.9h0l13.1-4.5L71,106h0l-4.3,6.7l-13.1,4.5l-2.3,4.9L46.1,124.9l5.8-2.3l3.2-2.7
				l5.9-0.8l7.2-5.7l3.3-7.5l-3.3,7.5l-7.1,5.7h0l-5.9,0.8l-3.2,2.7L46.1,124.9z"/>
		</g>
		<path class="st4" d="M97.1,115c0,0-0.1-4.3-0.1-9.5s0-9.5,0.1-9.5c0.1,0,0.1,4.3,0.1,9.5C97.2,110.7,97.2,115,97.1,115z"/>
		<path class="st4" d="M99.6,115.2c0,0-0.1-5.3-0.1-11.7c0-6.5,0-11.7,0.1-11.7c0,0,0.1,5.3,0.1,11.7
			C99.7,110,99.6,115.2,99.6,115.2z"/>
		<path class="st4" d="M106.3,73.5c0,0-0.1,0-0.3,0c-0.2,0-0.4-0.1-0.7-0.1c-0.7-0.1-1.6-0.3-2.8-0.5c-0.6-0.1-1.3-0.1-2-0.2
			c-0.4-0.1-0.8-0.1-1.2-0.1c-0.2,0-0.4-0.1-0.6-0.1c-0.2,0-0.4,0-0.7,0c-0.9-0.1-1.8-0.1-2.8-0.1c-0.1,0-0.3,0-0.4,0
			c-0.1,0-0.3,0-0.4,0c-0.3,0-0.5,0-0.8,0c-0.5,0-1.1,0-1.6,0c-4.4,0.1-9.6,0.7-15.2,2.1c-0.3,0.1-0.7,0.2-1.1,0.3
			c-0.3,0.1-0.7,0.2-1.1,0.3c-0.7,0.2-1.4,0.4-2.2,0.7c-0.4,0.1-0.7,0.3-1.1,0.4c-0.4,0.1-0.7,0.3-1.1,0.4s-0.7,0.3-1.1,0.4
			l-0.5,0.2c-0.2,0.1-0.4,0.2-0.5,0.2c-0.7,0.3-1.5,0.6-2.2,1l-0.5,0.2c-0.2,0.1-0.4,0.2-0.5,0.3c-0.4,0.2-0.7,0.4-1.1,0.5
			c-0.7,0.4-1.5,0.7-2.2,1.1c-0.7,0.4-1.4,0.8-2.2,1.3c-3.7,2.3-7.2,4.9-10.1,7.6l-0.1,0.1l-0.1-0.1c-1.6-2.1-3.4-3.8-5.3-5.3
			c-1.9-1.5-3.9-2.6-5.8-3.5c-3.9-1.8-7.7-2.6-10.9-2.8c-3.2-0.2-5.7,0.2-7.4,0.5c-0.4,0.1-0.8,0.2-1.1,0.3
			c-0.3,0.1-0.6,0.2-0.8,0.2s-0.4,0.1-0.5,0.1c-0.1,0-0.2,0.1-0.2,0.1s0.1,0,0.2-0.1c0.1,0,0.3-0.1,0.5-0.2c0.2-0.1,0.5-0.2,0.8-0.2
			s0.7-0.2,1.1-0.3c1.7-0.3,4.2-0.7,7.4-0.5c3.2,0.2,7,0.9,10.9,2.7c2,0.9,4,2.1,5.9,3.5c1.9,1.5,3.7,3.2,5.3,5.3h-0.1
			c2.9-2.7,6.3-5.3,10.1-7.6c0.7-0.4,1.4-0.8,2.2-1.3c0.7-0.4,1.5-0.8,2.2-1.1c0.4-0.2,0.7-0.4,1.1-0.5c0.2-0.1,0.4-0.2,0.5-0.3
			l0.5-0.2c0.7-0.3,1.5-0.7,2.2-1c0.2-0.1,0.4-0.2,0.5-0.2l0.5-0.2c0.4-0.1,0.7-0.3,1.1-0.4c0.4-0.1,0.7-0.3,1.1-0.4
			s0.7-0.3,1.1-0.4c0.7-0.2,1.4-0.4,2.2-0.7c0.4-0.1,0.7-0.2,1.1-0.3c0.4-0.1,0.7-0.2,1.1-0.3c5.6-1.5,10.8-2,15.2-2.1
			c0.5,0,1.1,0,1.6,0c0.3,0,0.5,0,0.8,0c0.1,0,0.3,0,0.4,0s0.3,0,0.4,0c1,0.1,1.9,0.1,2.8,0.2c0.2,0,0.4,0,0.7,0
			c0.2,0,0.4,0.1,0.6,0.1c0.4,0.1,0.8,0.1,1.2,0.1c0.7,0.1,1.4,0.2,2,0.2c1.2,0.2,2.1,0.4,2.8,0.5c0.3,0.1,0.5,0.1,0.7,0.1
			C106.2,73.5,106.3,73.5,106.3,73.5z"/>
		<path class="st4" d="M49.2,82.8c0,0-0.7-0.8-1.5-1.8c-0.8-1-1.4-1.8-1.4-1.9c0,0,0.7,0.8,1.5,1.8C48.6,81.9,49.2,82.8,49.2,82.8z"
			/>
		<path class="st4" d="M134.3,83.6c0,0-0.1,0-0.1-0.1c-0.1-0.1-0.2-0.1-0.3-0.2c-0.3-0.2-0.7-0.5-1.2-0.8c-0.5-0.3-1.1-0.7-1.9-1.2
			c-0.7-0.4-1.5-0.8-2.4-1.2c-0.9-0.4-1.7-0.7-2.5-1c-0.8-0.3-1.5-0.5-2.1-0.7c-0.6-0.2-1.1-0.3-1.4-0.4c-0.2,0-0.3-0.1-0.4-0.1
			c-0.1,0-0.1,0-0.1-0.1c0,0,0.1,0,0.1,0c0.1,0,0.2,0.1,0.4,0.1c0.3,0.1,0.8,0.2,1.5,0.3c0.6,0.2,1.3,0.4,2.1,0.6
			c0.8,0.3,1.6,0.6,2.5,1c0.9,0.4,1.7,0.8,2.4,1.2c0.7,0.4,1.4,0.8,1.9,1.2c0.5,0.4,0.9,0.7,1.2,0.9c0.1,0.1,0.2,0.2,0.3,0.3
			C134.2,83.5,134.3,83.6,134.3,83.6z"/>
		<path class="st4" d="M50.2,82.6c0,0-0.1-1.2-0.1-2.6s0-2.6,0.1-2.6c0,0,0.1,1.2,0.1,2.6C50.2,81.4,50.2,82.6,50.2,82.6z"/>
		<path class="st4" d="M19.1,85.5c0,0,0.1,0.3,0.3,0.7c0.2,0.4,0.4,1,0.6,1.7c0.2,0.7,0.3,1.3,0.4,1.8c0.1,0.5,0.1,0.7,0.1,0.8
			c0,0-0.1-0.3-0.2-0.7c-0.1-0.4-0.2-1.1-0.4-1.8c-0.2-0.7-0.4-1.3-0.5-1.7C19.2,85.8,19.1,85.5,19.1,85.5z"/>
		<path class="st4" d="M22.3,84.4c0,0,0,0.3-0.1,0.9c-0.1,0.5-0.1,1.3-0.1,2.1c0,0.8,0,1.6,0.1,2.1c0,0.5,0.1,0.9,0,0.9
			c0,0,0-0.1-0.1-0.2c0-0.2-0.1-0.4-0.1-0.6c-0.1-0.5-0.1-1.3-0.1-2.1c0-0.8,0.1-1.6,0.1-2.1c0-0.3,0.1-0.5,0.1-0.6
			C22.3,84.5,22.3,84.4,22.3,84.4z"/>
		<path class="st4" d="M26.1,84.9c0,0-0.2,0.3-0.5,0.7c-0.3,0.4-0.7,1.1-1,1.9c-0.3,0.8-0.5,1.5-0.7,2c-0.1,0.5-0.2,0.9-0.2,0.9
			c0,0,0-0.1,0-0.2c0-0.2,0.1-0.4,0.1-0.6c0.1-0.5,0.3-1.3,0.6-2c0.3-0.8,0.7-1.4,1-1.9c0.2-0.2,0.3-0.4,0.4-0.5
			C26.1,85,26.1,84.9,26.1,84.9z"/>
		<path class="st4" d="M138.9,84.9c0,0,0.1,0.1,0.2,0.2c0.1,0.1,0.3,0.3,0.4,0.5c0.4,0.4,0.8,1,1.2,1.8c0.4,0.7,0.8,1.4,0.9,1.9
			c0.1,0.3,0.2,0.5,0.2,0.6c0.1,0.2,0.1,0.2,0.1,0.2c0,0-0.1-0.3-0.4-0.8c-0.2-0.5-0.5-1.2-1-1.9c-0.4-0.7-0.9-1.3-1.2-1.8
			C139.1,85.2,138.9,85,138.9,84.9z"/>
		<path class="st4" d="M143.2,84.7c0,0,0,0.3,0,0.8c0,0.5-0.1,1.2,0,2c0,0.8,0.1,1.5,0.2,2c0.1,0.5,0.1,0.8,0.1,0.8
			s-0.1-0.3-0.2-0.8c-0.1-0.5-0.2-1.2-0.2-2c0-0.8,0-1.5,0.1-2C143.1,85,143.2,84.6,143.2,84.7z"/>
		<path class="st4" d="M146.2,86.4c0,0-0.6,0.8-1.1,1.8s-0.7,2-0.7,2c0,0,0-0.2,0.1-0.6c0.1-0.4,0.2-0.9,0.5-1.4
			c0.3-0.5,0.5-1,0.8-1.3C146,86.6,146.2,86.4,146.2,86.4z"/>
		<path class="st4" d="M180,84.9c0,0,0.1,0.1,0.2,0.2c0.1,0.1,0.3,0.3,0.4,0.5c0.4,0.4,0.8,1,1.2,1.8c0.4,0.7,0.8,1.4,0.9,1.9
			c0.1,0.3,0.2,0.5,0.2,0.6c0.1,0.2,0.1,0.2,0.1,0.2c0,0-0.1-0.3-0.4-0.8c-0.2-0.5-0.5-1.2-1-1.9c-0.4-0.7-0.9-1.3-1.2-1.8
			C180.2,85.2,180,85,180,84.9z"/>
		<path class="st4" d="M184.2,84.7c0,0,0,0.3,0,0.8c0,0.5-0.1,1.2,0,2c0,0.8,0.1,1.5,0.2,2c0.1,0.5,0.1,0.8,0.1,0.8
			s-0.1-0.3-0.2-0.8c-0.1-0.5-0.2-1.2-0.2-2c0-0.8,0-1.5,0.1-2C184.2,85,184.2,84.6,184.2,84.7z"/>
		<path class="st4" d="M187.3,86.4c0,0-0.6,0.8-1.1,1.8c-0.5,1.1-0.7,2-0.7,2c0,0,0-0.2,0.1-0.6c0.1-0.4,0.2-0.9,0.5-1.4
			c0.3-0.5,0.5-1,0.8-1.3C187.1,86.6,187.3,86.4,187.3,86.4z"/>
		<path class="st8" d="M165.1,79.2c0.5,0.2,0.9,0.7,1.1,1.2c0.2,0.5,0.2,1.1,0.2,1.7c-0.1,1.1-0.7,2.2-1.4,3.1
			c-0.9-0.8-1.1-2.2-1.2-2.9C163.7,81.1,164.2,79,165.1,79.2z"/>
		<path class="st8" d="M166,87c-0.2-0.6,0.1-1.3,0.6-1.7c0.5-0.4,1.1-0.6,1.7-0.5c0.3,0,0.6,0.1,0.8,0.3c0.2,0.2,0.1,0.5,0,0.8
			c-0.1,0.2-0.3,0.4-0.6,0.6C167.8,86.9,166.9,87.2,166,87z"/>
		<path class="st4" d="M164.9,90.3c0,0,0-0.1,0-0.2c0-0.2,0.1-0.4,0.1-0.6c0.1-0.5,0.2-1.2,0.6-1.9c0.4-0.7,0.9-1.2,1.4-1.5
			c0.2-0.1,0.4-0.2,0.6-0.3c0.1,0,0.1,0,0.2-0.1c0,0,0.1,0,0.1,0c0,0-0.3,0.1-0.8,0.3c-0.4,0.3-1,0.8-1.3,1.5
			c-0.4,0.7-0.5,1.4-0.6,1.9c-0.1,0.3-0.1,0.5-0.1,0.6C164.9,90.2,164.9,90.3,164.9,90.3z"/>
		<path class="st4" d="M164.9,80.8c0,0,0,0,0,0.1s0,0.2,0,0.3c0,0.2,0,0.6,0.1,1c0,0.9,0.1,2.1,0.1,3.4c0,1.3,0,2.5-0.1,3.4
			c0,0.4,0,0.8-0.1,1c0,0.1,0,0.2,0,0.3c0,0.1,0,0.1,0,0.1s0,0,0-0.1c0-0.1,0-0.2,0-0.3c0-0.3,0-0.6,0-1c0-0.9,0.1-2.1,0.1-3.4
			c0-1.3,0-2.5,0-3.4c0-0.4,0-0.8,0-1c0-0.1,0-0.2,0-0.3C164.9,80.9,164.9,80.8,164.9,80.8z"/>
		<path class="st8" d="M164.4,87.6c-0.2-1.3-1.1-2.5-2.3-3.1c-0.3-0.2-0.7-0.2-1,0c-0.3,0.2-0.2,0.6-0.1,0.9
			C161.6,86.8,163,87.7,164.4,87.6"/>
		<path class="st4" d="M162.3,85.6c0,0,0.1,0,0.2,0.1c0.1,0,0.1,0.1,0.2,0.1c0.1,0.1,0.2,0.1,0.3,0.2s0.2,0.2,0.3,0.2
			c0.1,0.1,0.2,0.2,0.3,0.3c0.2,0.2,0.4,0.5,0.7,0.8c0.2,0.3,0.3,0.7,0.4,1c0.1,0.2,0.1,0.3,0.1,0.4s0.1,0.3,0.1,0.4
			c0,0.1,0,0.2,0,0.3c0,0.1,0,0.2,0,0.3c0,0.1,0,0.2,0,0.2c0,0,0-0.3-0.1-0.8c0-0.1,0-0.3-0.1-0.4c0-0.1-0.1-0.3-0.1-0.4
			c-0.1-0.3-0.2-0.6-0.4-0.9c-0.2-0.3-0.4-0.6-0.6-0.8c-0.1-0.1-0.2-0.2-0.3-0.3c-0.1-0.1-0.2-0.2-0.3-0.2
			C162.6,85.7,162.3,85.6,162.3,85.6z"/>
		<path class="st9" d="M69.6,11.2l-0.8-1.5c0.3-0.9,0.4-2,0.2-3c-0.6-3-3.5-4.9-6.5-4.3c-3,0.6-4.9,3.5-4.3,6.5
			c0.6,3,3.5,4.9,6.5,4.3c1.2-0.3,2.3-0.9,3.1-1.8L69.6,11.2z"/>
		<path class="st4" d="M69.6,11.2c0,0,0,0-0.1,0c-0.1,0-0.2,0-0.3,0c-0.3,0-0.8,0.1-1.3,0.1c0,0,0,0,0,0l0,0
			c-0.5,0.5-1.2,1.2-2.2,1.6c-0.3,0.1-0.5,0.2-0.8,0.2c-0.3,0.1-0.6,0.1-0.9,0.1c-0.6,0-1.3-0.1-2-0.3c-0.7-0.2-1.3-0.6-1.9-1.1
			c-0.6-0.5-1.1-1.2-1.4-1.9c-0.3-0.8-0.5-1.6-0.5-2.5s0.3-1.8,0.8-2.6L59,4.6l0.2-0.3l0.1-0.1L59.4,4l0.2-0.3
			c0.1-0.1,0.2-0.2,0.2-0.2c0.1-0.1,0.2-0.2,0.3-0.2c0.2-0.1,0.3-0.3,0.5-0.4c0.8-0.5,1.6-0.8,2.4-0.8c0.8-0.1,1.6,0,2.4,0.3
			c0.7,0.3,1.4,0.7,1.9,1.2c0.5,0.5,0.9,1,1.2,1.6C68.8,5.4,68.9,5.7,69,6c0.1,0.3,0.2,0.6,0.2,0.8c0.2,1.1-0.1,2-0.3,2.7v0
			c0.2,0.5,0.4,0.9,0.5,1.2c0.1,0.1,0.1,0.2,0.1,0.3C69.6,11.1,69.6,11.2,69.6,11.2s0,0-0.1-0.1c0-0.1-0.1-0.2-0.2-0.3
			c-0.1-0.3-0.3-0.7-0.6-1.2c0,0,0,0,0,0c0.2-0.7,0.4-1.6,0.3-2.7c0-0.3-0.1-0.5-0.2-0.8c-0.1-0.3-0.2-0.6-0.3-0.9
			c-0.3-0.6-0.7-1.1-1.2-1.6c-0.5-0.5-1.2-0.9-1.9-1.1c-0.7-0.3-1.5-0.4-2.3-0.3c-0.8,0.1-1.6,0.4-2.4,0.8c-0.2,0.1-0.4,0.2-0.5,0.4
			c-0.1,0.1-0.2,0.2-0.3,0.2c-0.1,0.1-0.2,0.2-0.2,0.2l-0.2,0.3l-0.1,0.1l-0.1,0.1l-0.2,0.3l-0.2,0.3c-0.5,0.8-0.7,1.6-0.7,2.5
			c0,0.9,0.1,1.7,0.5,2.5c0.3,0.8,0.8,1.4,1.4,1.9c0.6,0.5,1.2,0.9,1.9,1.1c0.7,0.2,1.3,0.3,1.9,0.3c0.3,0,0.6-0.1,0.9-0.1
			c0.3-0.1,0.6-0.1,0.8-0.2c1-0.4,1.7-1,2.2-1.5h0v0l0,0c0.6-0.1,1-0.1,1.3-0.1c0.2,0,0.3,0,0.3,0S69.6,11.2,69.6,11.2z"/>
		<path class="st8" d="M61.1,8.1l0.7-0.7l1.4,1.2L65.9,6l0.7,0.7L63.1,10L61.1,8.1z"/>
		<path class="st10" d="M46.8,43.7c-0.1,0.1-3.2,2.4-3.5,3.3c-0.2,1-0.1,2.1,0.2,2.3c0.3,0.2,0.8,0.7,0.8,0.7l0.3,0.6h1.2
			c0,0-0.6,1.3,0.3,1.5c0.8,0.2,1.9,0,1.9,0s1.7,0.8,2.1,0.4c0.4-0.4,1.1-1,1.1-1l0.7-1.6l-0.6-2.2l1.4-2.1L49,42.5L46.8,43.7z"/>
		<path class="st11" d="M50.9,50c0,0-0.5,0.6-1.2,1.2c-0.8,0.6-1.4,0.9-1.5,0.8c0,0,0.6-0.5,1.3-1C50.3,50.4,50.8,50,50.9,50z"/>
		<path class="st10" d="M132.8,23.6l4.4-1.4l2.3,3.8l-6.3,3.4L132.8,23.6z"/>
		<path class="st10" d="M138.2,19.8c0,0,1.8-2.4,2.2-2.6c0.4-0.2,3.1,0.3,3.3,0.6c0.2,0.4,0,1.1,0,1.1s0.6-0.1,0.8,0.4
			c0.2,0.4,0,1.1,0,1.1s0.4,0.3,0.4,0.6c0,0.4-0.1,0.7-0.1,0.7s0.4,0.4,0.3,0.9c-0.1,0.5-2.8,2.5-3.9,2.9s-2,1-2.7,0.5
			s-1.3-3.6-1.3-3.6L138.2,19.8z"/>
		<path class="st11" d="M144.9,21.4c0,0-1,0.5-2.4,0.9c-0.4,0.1-0.8,0.1-1-0.2c-0.1-0.1-0.1-0.4-0.1-0.5c0-0.1,0.1-0.3,0.2-0.4
			c0.2-0.2,0.4-0.3,0.5-0.3c0.1,0,0.2,0,0.2,0s0,0-0.2,0.1c-0.1,0-0.3,0.2-0.4,0.3c-0.1,0.2-0.2,0.4,0,0.6c0.2,0.2,0.5,0.2,0.8,0.1
			C143.8,21.7,144.9,21.3,144.9,21.4z"/>
		<path class="st11" d="M141.1,19c0,0-0.1-0.2,0-0.5s0.3-0.4,0.4-0.4c0,0,0,0.2-0.1,0.4C141.3,18.8,141.2,19,141.1,19z"/>
		<path class="st10" d="M137.1,22.4c0,0,0.3-2.6,0.5-3c0.2-0.3,0.9-0.5,0.9-0.5l4.9,0.3c0,0,1.1,1.3-0.6,1.5
			c-1.7,0.2-2.3,0.3-2.3,0.3s0.5,0.5,0.2,2s-2.7,1.6-2.7,1.6L137.1,22.4z"/>
		<path class="st11" d="M140.7,22.9c0,0,0-0.2,0-0.5c0-0.2,0-0.4,0-0.6c0-0.2-0.1-0.5-0.3-0.8l-0.1-0.1l0.1,0c0.6-0.1,1.2-0.2,2-0.3
			c0.4,0,0.8,0,1.1-0.3c0.2-0.3,0-0.7-0.2-1.1l0.1,0c-0.4,0-0.8,0-1.1,0c-1.3-0.1-2.6-0.1-3.7-0.2h0c-0.3,0.1-0.5,0.2-0.7,0.4
			c-0.1,0.1-0.1,0.2-0.2,0.3c0,0.1,0,0.3-0.1,0.4c-0.1,0.5-0.2,0.9-0.2,1.2c0,0.3-0.1,0.6-0.1,0.8c0,0.2,0,0.3-0.1,0.3
			c0,0,0-0.1,0-0.3c0-0.2,0-0.5,0.1-0.8c0-0.4,0.1-0.8,0.2-1.3c0-0.1,0-0.3,0.1-0.4c0-0.1,0.1-0.3,0.2-0.4c0.2-0.2,0.5-0.3,0.8-0.4
			c1.1,0,2.3,0.1,3.7,0.2c0.4,0,0.8,0,1.1,0h0l0,0c0.1,0.2,0.3,0.4,0.4,0.6c0.1,0.2,0,0.5-0.1,0.7c-0.4,0.4-0.8,0.3-1.2,0.4
			c-0.8,0.1-1.5,0.1-2,0.3l0-0.1c0.2,0.3,0.3,0.6,0.3,0.8c0,0.3,0,0.5,0,0.7c0,0.2,0,0.3-0.1,0.4C140.7,22.9,140.7,22.9,140.7,22.9z
			"/>
		<path class="st11" d="M145,22.7c0,0-0.8,0.6-2,1c-0.3,0.1-0.7,0.1-0.9,0c-0.1-0.1-0.2-0.2-0.3-0.3c0-0.1,0-0.3,0-0.4
			c0-0.2,0.2-0.4,0.3-0.4c0.1-0.1,0.1-0.1,0.1-0.1c0,0-0.2,0.2-0.2,0.6c0,0.2,0,0.4,0.3,0.5c0.2,0.1,0.5,0.1,0.8,0
			C144.1,23.1,145,22.7,145,22.7z"/>
		<path class="st11" d="M144.4,20.2c0,0-0.3,0.1-0.6,0.3c-0.4,0.1-0.6,0.2-0.7,0.1c0,0,0.2-0.2,0.6-0.3
			C144.1,20.2,144.4,20.2,144.4,20.2z"/>
		<path class="st8" d="M89.8,21.2L82,22.3l-6.1,15.2c0,0-6.5,12.5-8.2,17c-0.9,2.4-0.7,4.4-0.7,4.4l30.9-10.1l5.9-11.7l3.4-10.2
			l-4.2-1.2l-1.1-1.7l-9.4-4.6L89.8,21.2z"/>
		<path class="st8" d="M120,27l-15.7-0.2l-1.2,10.6c0,0,16.5-1.8,19.2-2.8c2.7-0.9,15.7-6.4,15.7-6.4l-2.2-5.7L120,27z"/>
		<path class="st4" d="M134,28.6c0,0-0.5-0.9-0.9-2.1c-0.4-1.2-0.6-2.3-0.6-2.3c0,0,0.4,1,0.8,2.2C133.7,27.6,134.1,28.5,134,28.6z"
			/>
		<path class="st4" d="M134.1,23.9c0,0,0.1-0.2,0.4,0c0.1,0,0.3,0.2,0.3,0.4c0,0.2-0.1,0.4-0.3,0.6c-0.2,0.1-0.5,0.1-0.6-0.1
			c-0.1-0.2-0.2-0.4-0.1-0.5C133.9,24,134.1,23.9,134.1,23.9c0,0-0.1,0.1-0.2,0.4c0,0.1,0,0.2,0.1,0.3c0.1,0.1,0.2,0.1,0.4,0
			c0.1-0.1,0.2-0.2,0.2-0.3c0-0.1-0.1-0.2-0.2-0.3C134.3,23.9,134.1,24,134.1,23.9z"/>
		<path class="st4" d="M89.5,51.7c0,0,0-0.1,0.1-0.2c0.1-0.1,0.2-0.3,0.4-0.5c0.2-0.2,0.4-0.5,0.6-0.8c0.2-0.4,0.5-0.7,0.8-1.2
			c0.6-0.8,1.2-1.9,1.8-3.1c0.6-1.2,1.3-2.5,1.9-4c1.3-2.8,2.3-5.5,3.1-7.4c0.4-0.9,0.7-1.7,0.9-2.3c0.1-0.2,0.2-0.4,0.3-0.6
			c0-0.1,0.1-0.2,0.1-0.2s0,0.1,0,0.2c0,0.2-0.1,0.4-0.2,0.6c-0.2,0.6-0.5,1.3-0.8,2.3c-0.7,1.9-1.7,4.6-3,7.4c-0.7,1.4-1.3,2.8-2,4
			c-0.7,1.2-1.3,2.2-1.9,3.1c-0.3,0.4-0.6,0.8-0.8,1.1c-0.2,0.3-0.4,0.6-0.6,0.8c-0.2,0.2-0.3,0.4-0.4,0.5
			C89.6,51.6,89.6,51.7,89.5,51.7z"/>
		<path class="st4" d="M99.9,28.6c0,0-0.1-0.1-0.2-0.4c-0.1-0.3-0.3-0.6-0.5-1h0.1c-0.7,0.6-1.6,1.5-2.8,2.5l-0.1,0.1l-0.1-0.1
			c-0.5-0.6-1.1-1.2-1.6-1.9c-1.3-1.7-2.4-3.3-3.2-4.5c-0.4-0.5-0.7-1-1-1.3c-0.2-0.3-0.4-0.5-0.4-0.5s0.2,0.1,0.4,0.4
			c0.3,0.3,0.6,0.8,1,1.3c0.8,1.1,1.9,2.7,3.3,4.4c0.5,0.7,1.1,1.3,1.6,1.9h-0.1c1.2-1,2.1-1.9,2.8-2.4l0.1,0l0,0.1
			c0.2,0.4,0.4,0.8,0.5,1.1C99.8,28.4,99.9,28.6,99.9,28.6z"/>
		<path class="st4" d="M106.6,30.3c0,0,0,0.1,0,0.2c0,0.1-0.1,0.4-0.2,0.5c-0.2,0.5-0.5,1.2-0.8,2c-0.7,1.7-1.7,4-3,6.6
			c-1.2,2.5-2.3,4.8-3.2,6.4c-0.4,0.8-0.8,1.5-1,1.9c-0.1,0.2-0.2,0.4-0.3,0.5c-0.1,0.1-0.1,0.2-0.1,0.2c0,0,0-0.1,0.1-0.2
			c0.1-0.1,0.1-0.3,0.3-0.5c0.2-0.5,0.6-1.2,1-2c0.8-1.6,1.9-4,3.1-6.5c1.2-2.5,2.3-4.8,3-6.5c0.4-0.8,0.7-1.5,0.9-2
			c0.1-0.2,0.2-0.4,0.3-0.5C106.6,30.4,106.6,30.3,106.6,30.3z"/>
		<g class="st5">
			<g class="st5">
				<path class="st6" d="M97.9,48c-0.3-0.2-0.6-0.2-1-0.1c-7.8,1-12.2,2.7-19.6,5.4l20.2-4.3C97.9,48.7,98.2,48.2,97.9,48z"/>
			</g>
		</g>
		<path class="st4" d="M103.1,26.4c0,0,0,0.4-0.1,0.9c-0.1,0.6-0.4,1.4-1,2.2l-0.1,0.1l-0.1-0.1c-0.1-0.1-0.2-0.3-0.3-0.4
			c-0.5-0.7-0.8-1.5-1-2h0.2c-0.4,0.8-0.7,1.3-0.7,1.3c0,0,0.2-0.5,0.5-1.4l0.1-0.2l0.1,0.2c0.2,0.6,0.5,1.3,1,2
			c0.1,0.1,0.2,0.3,0.3,0.4h-0.2C102.9,27.9,103,26.4,103.1,26.4z"/>
		<g class="st5">
			<g class="st5">
				<path class="st6" d="M103.5,37.4c1.3-0.7,2.3-1.7,3-3.1c0.6-1.3,0.8-2.8,0.4-4.2c-1.3,2.3-2.5,4.7-3.5,7.2"/>
			</g>
		</g>
		<g class="st5">
			<g class="st5">
				<path class="st6" d="M90.6,21.8c1.5,3.4,3.4,6.5,5.7,9.3c1-0.8,1.9-1.8,2.7-2.8c0.4,0.3,0.7,0.6,1,0.8c-0.2-0.5-0.4-1.1-0.5-1.6
					c0-0.1-0.1-0.2-0.2-0.2s-0.1,0-0.2,0.1c-0.9,0.7-1.8,1.4-2.7,2.1c-2.2-2.4-4.2-5-5.9-7.7"/>
			</g>
		</g>
		<path class="st4" d="M83,47.1c0,0-0.4,0-1-0.2c-0.6-0.2-1.5-0.4-2.3-0.8c-0.9-0.4-1.7-0.8-2.2-1.2c-0.5-0.4-0.8-0.6-0.8-0.6
			c0,0,1.4,0.8,3.1,1.6C81.6,46.6,83.1,47,83,47.1z"/>
		<path class="st4" d="M86.9,45.3c0,0-0.1,0-0.4,0c-0.3,0-0.7,0-1.2-0.1c-1-0.1-2.3-0.3-3.8-0.6c-1.5-0.3-2.7-0.7-3.7-1
			c-0.5-0.1-0.8-0.3-1.1-0.4c-0.3-0.1-0.4-0.1-0.4-0.2c0,0,0.6,0.1,1.5,0.4c0.9,0.3,2.3,0.6,3.7,0.9c1.5,0.3,2.8,0.5,3.7,0.7
			C86.4,45.2,86.9,45.3,86.9,45.3z"/>
		<g class="st5">
			<g class="st5">
				<path class="st6" d="M76.8,43.3c3.2,2.2,7.4,3,11.2,2.2C84.3,45.2,80.3,44.3,76.8,43.3"/>
			</g>
		</g>
		<path class="st8" d="M83.4,22.4c-2.1-0.7-8.8,2.3-8.8,2.3s-11.3,4.6-13.7,6.8c-2.3,2.1-13.8,11.4-13.8,11.4l5.4,4.4L65.9,38
			l16.4-3.8c0,0,1.8-0.6,3.9-4C88.3,26.8,85.5,23.1,83.4,22.4z"/>
		<path class="st4" d="M85.4,31.9c0,0,0.4-0.6,0.9-1.6c0.2-0.5,0.4-1.2,0.6-1.9c0.1-0.8,0.1-1.6-0.1-2.4s-0.6-1.6-1.1-2.1
			c-0.5-0.5-1.1-0.9-1.6-1.1c-1.1-0.4-1.8-0.2-1.8-0.3c0,0,0,0,0.1,0c0.1,0,0.2,0,0.4,0c0.3,0,0.8,0,1.4,0.2
			c0.6,0.2,1.2,0.5,1.7,1.1s1,1.3,1.1,2.2c0.2,0.9,0.2,1.7,0,2.5c-0.1,0.8-0.4,1.4-0.6,2c-0.3,0.5-0.5,0.9-0.7,1.2
			C85.6,31.8,85.4,31.9,85.4,31.9z"/>
		<g class="st5">
			<path class="st6" d="M76.6,35.6c0,0,2.5,0.5,4.3-0.2c1.8-0.8,3.2-1.8,3.2-1.8L76.6,35.6z"/>
		</g>
		<path class="st4" d="M52.7,44.6c0,0,0.1-0.2,0.4-0.1c0.1,0,0.3,0.1,0.4,0.3c0.1,0.2,0,0.4-0.2,0.6c-0.2,0.1-0.4,0.2-0.6,0.1
			c-0.2-0.1-0.2-0.3-0.3-0.4C52.4,44.7,52.6,44.6,52.7,44.6c0,0-0.1,0.2,0,0.4c0,0.1,0.1,0.2,0.2,0.3c0.1,0,0.3,0,0.4-0.1
			c0.1-0.1,0.1-0.2,0.1-0.4c0-0.1-0.1-0.2-0.2-0.2C52.8,44.5,52.7,44.6,52.7,44.6z"/>
		<path class="st4" d="M55.7,44.8c0,0-1.1-0.8-2.3-1.9c-1.2-1.1-2.3-2-2.2-2.1c0,0,1.1,0.8,2.3,1.9C54.8,43.8,55.7,44.8,55.7,44.8z"
			/>
		<path class="st4" d="M47.1,42.8C47.1,42.8,47.2,42.8,47.1,42.8c0.2,0.1,0.3,0.2,0.4,0.3c0.3,0.2,0.6,0.5,1.1,0.8
			c1,0.8,2.3,1.9,4,3.2h-0.1c3-2,6.9-4.7,11.1-7.6c0.8-0.5,1.5-1.1,2.3-1.6h0c4.9-0.9,9.2-2.1,12.3-2.8c1.5-0.4,2.8-0.7,3.6-0.9
			c0.4-0.1,0.8-0.2,1-0.2c0.2,0,0.4-0.1,0.4,0c0,0-0.1,0-0.4,0.1c-0.2,0-0.6,0.1-1,0.3c-0.9,0.2-2.1,0.6-3.6,1
			c-3.1,0.8-7.3,2-12.3,2.9h0c-0.8,0.5-1.5,1-2.3,1.6c-4.3,2.9-8.2,5.6-11.2,7.6l0,0l0,0c-1.6-1.4-3-2.4-3.9-3.2
			c-0.4-0.4-0.8-0.7-1.1-0.9c-0.1-0.1-0.2-0.2-0.3-0.2C47.1,42.9,47.1,42.8,47.1,42.8z"/>
		<g class="st5">
			<path class="st6" d="M76.1,24c0,0,2.1,1.1,4.8,0.7c2.7-0.4,4.7-2,6.3-1.2c1.6,0.8,5.2,5.7,6.9,7c1.7,1.4,5.7,0,5.7,0h-2.4
				L93.9,28c0,0-2.9-6.3-5.1-6.5c-2.2-0.2-7.2,0-7.2,0L76.1,24z"/>
		</g>
		<path class="st12" d="M99.3,29.4c-0.2,0.6-1.4,0.8-2.2,0.4c-0.6-0.2-1.3-1-1.7-1.6c-1.8-2.4-3.1-5.2-5.4-7.2
			c-1.6-1.3-4-1.7-6.1-1.9c-2.1-0.1-4.2,0.3-6.3,0.3c-5,0-5.5-0.8-9.4-2.5l-2.8,1.8l1.6,3.2c0,0,8.9,2.8,12.6,2
			c3.8-0.8,6.3-1.7,8.1-1c4,1.5,5.8,6.7,8.2,7.6c2.2,0.9,4.2,0,4.2,0L99.3,29.4z"/>
		<path class="st12" d="M98.7,30.1l0.2-1.8l0.7-0.4l0.9,0.1l0.5,0.8c0,0-0.1,2-1.6,2.1L98.7,30.1z"/>
		<path class="st4" d="M99.8,30.7c0,0-0.3-0.1-0.6-0.4C99.1,30.1,99,30,98.9,30c-0.1,0-0.2-0.1-0.2-0.1c0,0,0.1-0.1,0.2,0
			c0.1,0,0.3,0.1,0.4,0.3C99.7,30.4,99.9,30.7,99.8,30.7z"/>
		<path class="st4" d="M100.7,29.9c0,0-0.4-0.4-0.8-0.8c-0.5-0.4-0.9-0.6-0.9-0.7c0,0,0.6,0.1,1.1,0.5
			C100.6,29.3,100.8,29.9,100.7,29.9z"/>
		<path class="st4" d="M110.8,7.1c0.7-0.4,1-1.2,0.9-2c-0.2-0.8-0.8-1.4-1.6-1.5c0.2-0.8-0.1-1.6-0.6-2.1c-0.5-0.5-1.4-0.8-2.1-0.5
			c-0.6-0.9-1.9-1.3-2.9-0.9c-0.7-0.3-1.5-0.2-2,0.4c-0.5,0.5-0.6,1.4-0.2,2.1l7,7.6c0.8,0.3,1.8,0,2.2-0.8
			C111.7,8.7,111.5,7.6,110.8,7.1z"/>
		<path class="st10" d="M104,1.9l-0.4-0.1c-4.1-0.9-7.1,2.1-7.9,6.2L93.3,20l5.5,6.3l1.2,1.6l2.1-4.6c0,0,4,0.5,5.1-3.4
			c0.5-1.9,1.3-5.8,2-9.4C110.1,6.7,107.7,2.9,104,1.9z"/>
		<path class="st11" d="M102.2,23.3c0,0-2.5-0.5-4.6-2.9c0,0,0.1,3.3,4.1,4.1L102.2,23.3z"/>
		<path class="st4" d="M107.2,13.7c-0.1,0.3-0.4,0.5-0.7,0.4c-0.3-0.1-0.5-0.4-0.4-0.7c0.1-0.3,0.4-0.5,0.7-0.4
			C107.1,13.1,107.2,13.4,107.2,13.7z"/>
		<path class="st4" d="M107.9,12.2c-0.1,0-0.4-0.4-1-0.5c-0.6-0.2-1.1,0-1.2-0.1c0,0,0.1-0.1,0.3-0.2c0.2-0.1,0.6-0.1,0.9,0
			c0.4,0.1,0.6,0.3,0.8,0.5C108,12,108,12.2,107.9,12.2z"/>
		<path class="st4" d="M101.9,12.3c-0.1,0.3-0.4,0.5-0.7,0.4c-0.3-0.1-0.5-0.4-0.4-0.7c0.1-0.3,0.4-0.5,0.7-0.4
			C101.8,11.7,102,12,101.9,12.3z"/>
		<path class="st4" d="M102.1,10.7c-0.1,0-0.4-0.4-1-0.5c-0.6-0.2-1.1,0-1.2-0.1c0,0,0.1-0.1,0.3-0.2c0.2-0.1,0.6-0.1,0.9,0
			c0.4,0.1,0.6,0.3,0.8,0.5C102.1,10.5,102.1,10.7,102.1,10.7z"/>
		<path class="st4" d="M103,15.7c0,0,0.4,0,1,0.1c0.2,0,0.3,0,0.4,0c0-0.1,0-0.3,0-0.5c0-0.4-0.1-0.8-0.1-1.3
			c-0.2-1.8-0.2-3.3-0.2-3.3c0.1,0,0.3,1.5,0.4,3.3c0,0.4,0.1,0.9,0.1,1.3c0,0.2,0,0.4-0.1,0.6c-0.1,0.1-0.2,0.1-0.3,0.1
			c-0.1,0-0.2,0-0.3,0C103.4,15.8,103,15.7,103,15.7z"/>
		<path class="st4" d="M102.9,8.4c-0.1,0.1-0.7-0.1-1.4-0.2c-0.7-0.1-1.3-0.1-1.4-0.3c0-0.1,0.1-0.2,0.4-0.3
			c0.3-0.1,0.7-0.1,1.1-0.1c0.4,0.1,0.8,0.2,1,0.4C102.9,8.2,102.9,8.3,102.9,8.4z"/>
		<path class="st4" d="M108.2,10.4c-0.1,0.1-0.5-0.1-1-0.3c-0.5-0.2-0.9-0.2-1-0.3c0-0.1,0.1-0.2,0.3-0.3c0.2-0.1,0.5-0.1,0.9,0
			c0.4,0.1,0.6,0.3,0.7,0.5C108.3,10.2,108.3,10.3,108.2,10.4z"/>
		<path class="st10" d="M95.3,11.9c0.1-0.6-0.2-1.2-0.8-1.3c-0.8-0.1-1.6,0-2,1.6c-0.7,2.7,2.2,2.8,2.2,2.7
			C94.7,14.8,95.1,13.1,95.3,11.9z"/>
		<path class="st11" d="M94.3,13.7c0,0,0,0-0.1,0c-0.1,0-0.2,0-0.4-0.1c-0.3-0.2-0.4-0.7-0.3-1.2c0-0.3,0.2-0.4,0.3-0.6
			c0.1-0.2,0.3-0.3,0.4-0.3c0.1,0,0.2,0.1,0.2,0.2c0,0.1,0,0.1,0,0.1s0.1,0,0.1-0.1c0,0,0-0.1,0-0.2c0-0.1-0.1-0.1-0.2-0.1
			c-0.2,0-0.4,0.1-0.6,0.3c-0.2,0.2-0.3,0.4-0.4,0.7c-0.1,0.5,0,1.1,0.4,1.3c0.2,0.1,0.4,0.1,0.4,0C94.3,13.8,94.3,13.7,94.3,13.7z"
			/>
		<path class="st4" d="M108.7,4.4c0-0.1,0-0.1,0-0.2c-0.2-0.5-0.6-0.9-1.1-1.1c-0.3-0.3-0.5-0.4-0.8-0.6c-0.2-0.7-0.8-1.4-1.4-1.6
			c-0.8-0.3-1.8-0.1-2.4,0.4c-0.1,0-0.2,0-0.4,0c-0.4-0.5-1.1-0.9-1.8-0.9c-0.8,0-1.5,0.3-2,0.9c-0.6-0.4-1.4-0.3-1.9,0.1
			c-0.5,0.4-0.8,1.2-0.7,1.8c-0.5,0.1-1.1,0.5-1.2,1.1c-0.1,0.5,0.2,1.2,0.7,1.2c-0.4,1.2-0.8,2.8-1,4.1c-0.3,1.6,0.6,2.1,0.6,2.5
			c-0.5,3.2,1.1,1.9,3.3-4.3c0.2,0,0.4-0.2,0.6-0.4C99,7.1,99,6.9,99.2,6.8c0.2-0.1,0.4,0,0.7,0.1c0.8,0.3,1.7,0,2.1-0.7
			c0.1,0.4,0.6,0.4,0.9,0.4c0.4-0.1,0.6-0.4,0.9-0.6c0.3-0.2,0.7-0.4,1-0.2c0.2,0.1,0.4,0.3,0.5,0.3c0.4,0,0.6-0.3,0.8-0.6
			c0.1-0.3,0.3-0.6,0.5-0.8c0.2,0,0.4,0,0.7,0c0.1,0,0.3,0.1,0.4,0.2c0,0,0.1,0,0.2,0c0.1,0,0.1,0.1,0.2,0.2c1,0.9,1.4,3.6,1.4,3.6
			C109.9,7.1,109.4,5.6,108.7,4.4z"/>
		<path class="st12" d="M106.8,3.8C106.8,3.8,106.8,3.8,106.8,3.8c0,0.1,0,0.1,0,0.2c0,0.1-0.2,0.3-0.4,0.4
			c-0.2,0.2-0.4,0.4-0.8,0.4c-0.3,0.1-0.8,0.1-1.2,0l0,0c0,0.3-0.1,0.5-0.3,0.7c-0.2,0.2-0.4,0.4-0.6,0.5c-0.1,0.1-0.2,0.2-0.4,0.2
			c-0.1,0-0.3,0-0.4,0c-0.3,0-0.6-0.2-0.8-0.5h0.1c-0.2,0.5-0.7,0.9-1.2,1.2c-0.3,0.1-0.7,0.1-0.9,0c-0.3-0.1-0.6-0.3-0.8-0.4h0.1
			c-0.2,0.3-0.5,0.5-0.8,0.6c-0.3,0.1-0.7,0.2-1,0c-0.6-0.3-0.8-0.9-0.8-1.5l0,0c-0.4,0.1-0.7,0-0.9-0.1c-0.3-0.1-0.4-0.3-0.6-0.4
			C95,5,95,4.9,94.9,4.8c0-0.1,0-0.1,0-0.2c0,0,0,0.2,0.3,0.5c0.1,0.1,0.3,0.3,0.5,0.4c0.3,0.1,0.6,0.2,0.9,0.1h0v0
			c0,0.5,0.2,1.1,0.8,1.3c0.3,0.1,0.6,0.1,0.9,0c0.3-0.1,0.6-0.4,0.8-0.6l0,0l0,0c0.2,0.2,0.5,0.3,0.8,0.4c0.3,0.1,0.6,0,0.9,0
			c0.5-0.2,0.9-0.6,1.2-1.1l0-0.1l0,0.1c0.1,0.3,0.4,0.4,0.7,0.5c0.1,0,0.3,0,0.4,0c0.1,0,0.2-0.1,0.4-0.2c0.2-0.1,0.4-0.3,0.6-0.5
			c0.2-0.2,0.3-0.4,0.2-0.7V4.7l0,0c0.4,0.1,0.8,0.1,1.1,0c0.3-0.1,0.6-0.3,0.8-0.4C106.7,4.1,106.8,3.8,106.8,3.8z"/>
		<path class="st11" d="M101.8,16.2c-0.1,0-0.1-0.1-0.2-0.1c-0.1,0-0.2,0.1-0.3,0.3c-0.2,0.4-0.2,0.9-0.1,1.3c0,0.1,0.2,0.3,0.3,0.4
			c0.5,0.3,1.2,0.1,1.5-0.4l0.4-0.5C103,16.9,102.1,16.4,101.8,16.2z"/>
		<path class="st4" d="M103.3,17.1c0,0-0.3,0-0.6-0.2c-0.4-0.2-0.8-0.5-1.4-0.7l0.1,0c0,0.1-0.1,0.2-0.1,0.3
			c-0.1,0.3-0.2,0.6-0.2,0.9c0,0.3,0.2,0.5,0.4,0.6c0.4,0.2,0.7,0.2,0.7,0.3c0,0-0.3,0-0.8-0.1c-0.2-0.1-0.4-0.4-0.5-0.7
			c0-0.3,0-0.7,0.2-1c0-0.1,0.1-0.2,0.1-0.3l0-0.1l0.1,0c0.7,0.2,1.1,0.5,1.4,0.8C103.2,17,103.4,17.1,103.3,17.1z"/>
		<path class="st4" d="M128.2,77.8l7.4,8.9l12.7-11.9c-1.2-1.2-10.1,2.6-10.1,2.6l-4.1-4.8L128.2,77.8z"/>
		<path class="st2" d="M133.8,80.5c-0.2,0.3-0.1,0.8,0.2,0.9c0.3,0.2,0.8,0.1,0.9-0.2c0.2-0.3,0.1-0.8-0.2-1
			C134.4,80.1,133.9,80.2,133.8,80.5"/>
		<path class="st2" d="M135.6,86.7l-1-1.1l12.7-11c0,0,0.8-0.3,1.1,0.2L135.6,86.7z"/>
		<path class="st2" d="M138.4,77c0,0-0.2,0.4-0.4,0.9c-0.1,0.5,0,0.9-0.1,0.9c-0.1,0-0.3-0.4-0.2-1C137.9,77.3,138.4,77,138.4,77z"
			/>
		<path class="st2" d="M140.2,76.4c0.1,0-0.1,0.4-0.1,0.9c0,0.4,0.2,0.8,0.2,0.8c0,0-0.4-0.3-0.4-0.8
			C139.8,76.7,140.2,76.3,140.2,76.4z"/>
		<path class="st2" d="M142.5,77.3c0,0-0.4-0.2-0.6-0.7s0-0.9,0.1-0.9c0.1,0,0,0.4,0.2,0.8C142.3,76.9,142.5,77.2,142.5,77.3z"/>
		<path class="st2" d="M136.9,75.7c0,0.1-0.4,0.3-0.7,0.6c-0.4,0.4-0.5,0.7-0.6,0.7c-0.1,0,0-0.5,0.4-0.9
			C136.4,75.7,136.9,75.6,136.9,75.7z"/>
		<path class="st2" d="M135.2,74.4c0,0-0.2,0.3-0.6,0.6c-0.2,0.1-0.5,0.3-0.8,0.4c-0.2,0-0.4,0.1-0.5,0.1c-0.1,0-0.2,0-0.4,0
			c-0.1,0-0.3-0.1-0.4-0.3c0-0.2,0-0.3,0.1-0.4c0.1-0.1,0.2-0.1,0.3-0.2c0.2-0.1,0.4-0.2,0.5-0.2c0.4-0.1,0.7-0.2,0.9-0.2
			C134.9,74.3,135.2,74.4,135.2,74.4c0,0.1-0.4,0-0.8,0.1c-0.3,0-0.6,0.1-0.9,0.2c-0.2,0-0.3,0.1-0.5,0.2c-0.2,0.1-0.3,0.2-0.3,0.3
			c0,0,0,0,0.1,0c0,0,0.1,0,0.3,0c0.2,0,0.4-0.1,0.5-0.1c0.3-0.1,0.6-0.2,0.8-0.4C134.9,74.6,135.1,74.4,135.2,74.4z"/>
		<path class="st2" d="M135.2,74.6c0,0-0.4-0.1-0.8-0.4c-0.2-0.2-0.4-0.4-0.6-0.8c-0.1-0.2-0.1-0.4-0.2-0.5c0-0.2-0.1-0.4,0.1-0.7
			c0.1-0.1,0.3-0.1,0.4-0.1c0.1,0,0.2,0.1,0.3,0.2c0.2,0.1,0.3,0.3,0.4,0.4c0.2,0.3,0.3,0.6,0.4,0.9c0,0.6-0.1,0.9-0.2,0.8
			c0,0,0-0.4,0-0.8c0-0.3-0.2-0.5-0.4-0.8c-0.1-0.1-0.2-0.3-0.4-0.4c-0.1-0.1-0.3-0.2-0.4-0.1c0,0-0.1,0.3,0,0.4
			c0,0.2,0.1,0.4,0.2,0.5c0.1,0.3,0.3,0.6,0.5,0.8C134.9,74.4,135.2,74.5,135.2,74.6z"/>
		<path class="st4" d="M53.6,98l-11.1,3.2l5.7,16.5c1.5-0.7,1.7-10.3,1.7-10.3l6-1.9L53.6,98z"/>
		<path class="st2" d="M48.9,102.1c-0.2-0.3-0.6-0.4-0.9-0.2c-0.3,0.2-0.4,0.6-0.2,0.9c0.2,0.3,0.7,0.4,1,0.2S49.1,102.3,48.9,102.1
			"/>
		<path class="st2" d="M42.5,101.2l1.4-0.5l4.9,16.1c0,0-0.1,0.8-0.6,0.9L42.5,101.2z"/>
		<path class="st2" d="M50.1,107.6c-0.1,0-0.3-0.4-0.7-0.7c-0.4-0.3-0.8-0.4-0.8-0.5c0-0.1,0.5-0.1,1,0.3
			C50.2,107.1,50.2,107.6,50.1,107.6z"/>
		<path class="st2" d="M50.1,109.6c-0.1,0-0.3-0.3-0.8-0.4c-0.4-0.2-0.8-0.1-0.8-0.2c0-0.1,0.4-0.3,0.9-0.1
			C49.9,109.1,50.1,109.6,50.1,109.6z"/>
		<path class="st2" d="M48.3,111.3c0-0.1,0.3-0.3,0.8-0.3c0.5,0,0.8,0.4,0.8,0.4c0,0.1-0.4-0.1-0.8-0.1
			C48.7,111.3,48.4,111.4,48.3,111.3z"/>
		<path class="st2" d="M52,106.8c-0.1,0-0.1-0.4-0.3-0.8c-0.2-0.4-0.4-0.8-0.4-0.8c0-0.1,0.4,0.2,0.7,0.7
			C52.3,106.4,52.1,106.8,52,106.8z"/>
		<path class="st2" d="M53.8,105.8c0,0-0.2-0.3-0.3-0.8c0-0.3,0-0.6,0-1c0-0.2,0-0.4,0.1-0.6c0-0.1,0-0.2,0.1-0.3
			c0-0.1,0.3-0.2,0.4-0.2c0.2,0,0.3,0.2,0.3,0.3c0,0.1,0,0.2,0,0.3c0,0.2,0,0.4,0,0.6c0,0.4-0.1,0.7-0.2,0.9
			C54,105.5,53.8,105.8,53.8,105.8c-0.1-0.1,0-0.4,0.2-0.8c0.1-0.3,0.1-0.5,0.2-0.9c0-0.2,0-0.4,0-0.5c0-0.2,0-0.4-0.2-0.4
			c0,0,0,0-0.1,0c0,0,0,0.1-0.1,0.2c0,0.2-0.1,0.4-0.1,0.5c0,0.4,0,0.7,0,0.9C53.8,105.4,53.9,105.7,53.8,105.8z"/>
		<path class="st2" d="M53.7,105.7c0,0,0.2-0.3,0.7-0.5c0.3-0.1,0.6-0.2,0.9-0.2c0.2,0,0.4,0,0.6,0c0.2,0,0.4,0.1,0.6,0.4
			c0,0.2,0,0.4-0.1,0.4c-0.1,0.1-0.2,0.1-0.3,0.2c-0.2,0.1-0.4,0.2-0.6,0.2c-0.4,0.1-0.7,0-1,0c-0.5-0.2-0.8-0.5-0.7-0.5
			c0,0,0.3,0.2,0.8,0.3c0.3,0,0.5,0,0.9,0c0.2,0,0.3-0.1,0.5-0.2c0.2-0.1,0.3-0.2,0.2-0.3c0-0.1-0.2-0.2-0.4-0.2c-0.2,0-0.4,0-0.5,0
			c-0.4,0-0.6,0-0.9,0.1C54,105.6,53.7,105.7,53.7,105.7z"/>
		<path class="st4" d="M66.2,59.7c0,0-1.1,5.3,0.4,9.4c1.5,4.1,2.9,5.2,2.9,5.2l1.3,15.1l-1.3,0.4l-20.7,7.8l2.8,10.8
			c0,0,27.3-9.4,29.3-11.5c2.1-2.1,2.3-4.6,2.8-9.4c0.5-4.8,0.4-21.3,0.4-21.3L73.3,54.6l-6.8,2.9"/>
		<path class="st4" d="M67.4,64c0.3,3.4,3.9,9.6,12.8,7.1c8.9-2.5,26.4-10.6,26.4-10.6l1.2,0.3l22.6,21.8l8.6-8.9l-23.8-24.2
			c-1.9-2-4.7-3.1-7.5-2.8c-0.2,0-0.4,0-0.6,0.1c-1.6,0.4-29,6.3-29,6.3l-2.9,0.7l-8.2,3.5L67.4,64z"/>
		<path class="st12" d="M110.2,54.6c0,0,0,0.4-0.2,1c-0.2,0.6-0.5,1.4-1,2.2c-0.5,0.8-1,1.5-1.4,2c-0.4,0.4-0.7,0.7-0.7,0.7
			c0,0,1-1.2,1.9-2.8C109.8,56.1,110.2,54.6,110.2,54.6z"/>
		<path class="st12" d="M75.9,59.9c0,0-0.2,0.4-0.6,0.9c-0.4,0.6-1,1.3-1.7,2c-0.8,0.8-1.5,1.4-2,1.8s-0.9,0.6-0.9,0.6
			c0,0,0.3-0.3,0.8-0.8s1.2-1.1,1.9-1.8c0.7-0.8,1.3-1.5,1.8-2C75.7,60.2,75.9,59.8,75.9,59.9z"/>
		<path class="st4" d="M69.9,73.3c3.3,1.3,7,1.3,10.3,0.2L69.9,73.3z"/>
		<path class="st12" d="M80.3,73.5c0,0-0.1,0.1-0.4,0.2c-0.3,0.1-0.6,0.2-1.1,0.4c-0.9,0.2-2.3,0.4-3.7,0.4c-1.5,0-2.8-0.3-3.7-0.6
			c-0.4-0.1-0.8-0.3-1.1-0.4c-0.3-0.1-0.4-0.2-0.4-0.2c0,0,0.6,0.2,1.5,0.4c0.9,0.2,2.2,0.4,3.7,0.5c1.5,0,2.7-0.1,3.7-0.4
			C79.7,73.6,80.3,73.4,80.3,73.5z"/>
		<path class="st12" d="M75.1,53.9c0,0,0.1,0,0.4-0.1c0.3,0,0.6-0.2,1.1-0.3c0.5-0.1,1.1-0.3,1.8-0.4c0.7-0.2,1.5-0.4,2.4-0.5
			c3.7-0.8,9-2,15.6-3.5c3.3-0.7,6.9-1.6,10.9-2.4c2-0.3,4.2,0.1,6,1.2c0.9,0.5,1.7,1.3,2.5,2.1s1.5,1.6,2.3,2.4
			c6.4,6.5,13.4,13.6,20.8,21.2l0.1,0.1l-0.1,0.1c-1.6,1.7-3.4,3.5-5.1,5.3c-1.2,1.2-2.3,2.4-3.5,3.6l-0.1,0.1l-0.1-0.1
			c-8.1-7.8-15.7-15.2-22.6-21.8l0,0c-0.4-0.1-0.8-0.2-1.2-0.3h0.1c-6.1,2.8-11.9,5.2-17,7.2c-2.6,1-5,1.9-7.3,2.6
			c-1.2,0.4-2.3,0.7-3.3,0.9c-1.1,0.2-2.1,0.3-3.1,0.3c-2,0-3.8-0.7-5-1.6c-1.3-0.9-2.1-2-2.6-3c-0.5-0.9-0.8-1.8-0.8-2.3
			c-0.1-0.3-0.1-0.5-0.1-0.6c0-0.1,0-0.2,0-0.2s0,0.1,0,0.2c0,0.1,0,0.4,0.1,0.6c0.1,0.5,0.4,1.3,0.9,2.3s1.3,2,2.6,2.9
			c1.2,0.9,3,1.6,5,1.6c1,0,2-0.1,3.1-0.3c1.1-0.2,2.2-0.6,3.3-0.9c2.3-0.8,4.7-1.6,7.3-2.7c5.1-2,10.8-4.5,16.9-7.3h0h0
			c0.4,0.1,0.8,0.2,1.1,0.3h0c6.8,6.6,14.5,14,22.6,21.8h-0.2c1.1-1.2,2.3-2.4,3.5-3.6c1.7-1.8,3.5-3.6,5.1-5.3v0.2
			c-7.4-7.6-14.5-14.7-20.8-21.2c-0.8-0.8-1.6-1.6-2.3-2.4s-1.5-1.6-2.4-2.1c-1.8-1.1-3.9-1.6-5.9-1.2c-3.9,0.8-7.6,1.6-10.9,2.4
			c-6.6,1.4-11.9,2.6-15.7,3.4c-0.9,0.2-1.7,0.4-2.4,0.5c-0.7,0.1-1.3,0.3-1.8,0.4s-0.8,0.2-1.1,0.3C75.3,53.8,75.1,53.9,75.1,53.9z
			"/>
		<g class="st5">
			<path class="st6" d="M72,70.7c0,0,2.8,2.5,6.5,2.2s5.7-1.1,5.7-1.1v-2C84.1,69.9,77.1,73,72,70.7z"/>
		</g>
	</g>
</g>
</svg>
