<svg width="800" height="1212" viewBox="0 0 800 1212" fill="none" xmlns="http://www.w3.org/2000/svg">
<rect opacity="0.3" width="75.9051" height="76.9039" rx="10" transform="matrix(0.898794 0.438371 -0.425364 0.905022 73.4062 532.834)" fill="#F2709C" fill-opacity="0.2"/>
<rect opacity="0.3" width="63.4207" height="56.4295" rx="15" transform="matrix(0.987688 0.156434 -0.151006 0.988533 28.4609 977.777)" fill="#FF9472" fill-opacity="0.2"/>
<rect opacity="0.3" width="44.9438" height="44.9438" rx="10" transform="matrix(0.669131 0.743145 -0.730788 0.682605 673.156 944.32)" fill="#F2709C" fill-opacity="0.2"/>
<rect opacity="0.3" width="49.4382" height="49.4382" rx="15" transform="matrix(-0.669131 -0.743145 -0.730788 0.682605 639.195 656.68)" fill="#6CCAFF" fill-opacity="0.2"/>
<rect opacity="0.3" width="38.4519" height="38.4519" rx="19.226" transform="matrix(0.669131 0.743145 -0.730788 0.682605 154.305 751.061)" fill="#B66CFF" fill-opacity="0.2"/>
<rect opacity="0.3" width="38.4519" height="38.4519" rx="19.226" transform="matrix(0.669131 0.743145 -0.730788 0.682605 597.75 1156.55)" fill="#B66CFF" fill-opacity="0.2"/>
<rect opacity="0.3" width="46.9413" height="47.4407" rx="10" transform="matrix(0.891007 0.453991 -0.440801 0.897605 321.594 1116.11)" fill="#B66CFF" fill-opacity="0.2"/>
<rect opacity="0.3" width="86.392" height="75.4057" rx="10" transform="matrix(0.573576 0.819152 0.80907 -0.587712 626.219 414.98)" fill="#FF9472" fill-opacity="0.2"/>
<rect opacity="0.3" width="91.8851" height="92.8839" rx="10" transform="matrix(0.891007 0.453991 -0.440801 0.897605 392.508 160.299)" fill="#FF9472" fill-opacity="0.2"/>
<rect opacity="0.3" width="38.9513" height="39.4507" rx="10" transform="matrix(0.961262 0.275637 -0.266461 0.963846 702.625 175.281)" fill="#B66CFF" fill-opacity="0.2"/>
<rect opacity="0.3" width="29.4632" height="29.4632" rx="14.7316" transform="matrix(0.669131 0.743145 -0.730788 0.682605 164.297 93.8828)" fill="#B66CFF" fill-opacity="0.2"/>
<rect opacity="0.3" width="40.4494" height="40.4494" rx="10" transform="matrix(0.669131 0.743145 -0.730788 0.682605 133.836 366.541)" fill="#6CCAFF" fill-opacity="0.2"/>
<path opacity="0.05" d="M235.705 0.000488281L0 58.7397V439.451H800V55.1709L235.705 0.000488281Z" fill="url(#paint0_linear_10153_2956)"/>
<defs>
<linearGradient id="paint0_linear_10153_2956" x1="476.637" y1="369.79" x2="458.569" y2="130.227" gradientUnits="userSpaceOnUse">
<stop stop-color="white"/>
<stop offset="0.697917" stop-color="#F98584" stop-opacity="0.5"/>
<stop offset="1" stop-color="#F47695"/>
</linearGradient>
</defs>
</svg>
