<svg width="2400" height="1577" viewBox="0 0 2400 1577" fill="none"
    xmlns="http://www.w3.org/2000/svg">
    <path opacity="0.05"
        d="M730.182 1576.73L0 1279.41V0L2378.19 136.664L2400 1279.41L730.182 1576.73Z"
        fill="url(#paint0_linear_10169_3125)" />
    <g opacity="0.5">
        <rect width="148.364" height="129.455" rx="10"
            transform="matrix(0.587785 0.809017 0.809435 -0.58721 1893.82 434.908)" fill="#FFE8E1" />
        <rect width="205.091" height="180.364" rx="20"
            transform="matrix(0.927184 0.374607 -0.375097 0.926986 1658.18 1054.54)" fill="#FFE8E1" />
        <rect width="78.5455" height="78.5455" rx="10"
            transform="matrix(0.898794 0.438371 -0.438902 0.898535 1335.28 325.818)" fill="#FFDDE7" />
        <rect width="133.818" height="133.818" rx="10"
            transform="matrix(0.669131 0.743145 -0.743646 0.668574 1300.36 824.727)" fill="#E6F4FF" />
        <rect width="58.1818" height="58.1818" rx="10"
            transform="matrix(0.961262 0.275637 -0.276013 0.961154 2148.35 219.636)" fill="#E5F4FF" />
        <rect width="96" height="96" rx="10"
            transform="matrix(0.891007 0.453991 -0.454529 0.890732 1757.09 212.363)" fill="#E6F6F4" />
        <rect width="56.7273" height="56.7273" rx="28.3636"
            transform="matrix(0.669131 0.743145 -0.743646 0.668574 1200 1220.36)" fill="#E8DEF5" />
        <rect width="84.3636" height="84.3636" rx="42"
            transform="matrix(-0.669131 -0.743145 -0.743646 0.668574 2074.17 775.271)"
            fill="#E6F6F4" />
        <rect width="30.5455" height="30.5455" rx="15.2727"
            transform="matrix(0.669131 0.743145 -0.743646 0.668574 1531.64 219.636)" fill="#E8DEF5" />
        <rect width="56.7273" height="56.7273" rx="28.3636"
            transform="matrix(0.669131 0.743145 -0.743646 0.668574 2059.64 1189.82)" fill="#E8DEF5" />
    </g>

</svg>