<svg width="1304" height="482" viewBox="0 0 1304 482" fill="none" xmlns="http://www.w3.org/2000/svg">
<circle cx="1279.5" cy="90.5" r="24.5" fill="#F98188" fill-opacity="0.25"/>
<circle cx="1201" cy="34" r="34" fill="#FD7F69" fill-opacity="0.25"/>
<circle cx="177.5" cy="265.5" r="29.5" fill="url(#paint0_linear_1339_698)" fill-opacity="0.3"/>
<path d="M150.935 16.7966L177.931 35.6175L148.134 49.5861L150.935 16.7966Z" fill="#FC7575" fill-opacity="0.25"/>
<path d="M169.602 53.6199L161.468 23.5228L191.6 31.5269L169.602 53.6199Z" stroke="#FF9372"/>
<path d="M1256.81 210.734L1244.43 264.576L1204 226.932L1256.81 210.734Z" fill="white" fill-opacity="0.5"/>
<path d="M1244.87 232.003L1244.94 195.08L1276.88 213.601L1244.87 232.003Z" stroke="#F98188"/>
<path fill-rule="evenodd" clip-rule="evenodd" d="M0 480.318C5.99859 481.423 12.1819 482 18.5 482C74.5569 482 120 436.557 120 380.5C120 324.443 74.5569 279 18.5 279C12.1819 279 5.99859 279.577 0 280.682V480.318Z" fill="#F98188" fill-opacity="0.25"/>
<defs>
<linearGradient id="paint0_linear_1339_698" x1="174.933" y1="345.806" x2="209.363" y2="283.248" gradientUnits="userSpaceOnUse">
<stop stop-color="#F98386"/>
<stop offset="1" stop-color="#F98386" stop-opacity="0.8"/>
</linearGradient>
</defs>
</svg>
