<svg width="63" height="63" viewBox="0 0 63 63" fill="none" xmlns="http://www.w3.org/2000/svg">
<circle cx="31.135" cy="31.135" r="30.635" stroke="url(#paint0_linear_6280_1163)"/>
<path d="M31.4188 37.3317C31.337 37.3317 31.337 37.2459 31.4188 37.3317L31.0097 37.0744L30.9279 36.9887L21.2729 29.7843C21.2729 29.7843 21.1911 29.7843 21.1911 29.6985L21.0274 29.527L20.9456 29.4412H20.782L18 27.3828L23.4821 28.2405C23.7275 28.2405 23.8094 28.3262 24.0548 28.412C24.1367 28.412 24.3003 28.4978 24.3003 28.4978C24.5458 28.5835 24.6276 28.6693 24.7912 28.7551C24.9549 28.8408 25.0367 28.9266 25.2003 29.0124C25.2822 29.0981 25.4458 29.1839 25.4458 29.2697C25.5276 29.3554 25.6095 29.3554 25.6913 29.4412C25.8549 29.527 25.9367 29.6127 25.9367 29.6985C26.1822 29.9558 26.3459 30.2131 26.5913 30.3846L30.9279 36.8171L31.0097 36.9029L31.4188 37.3317" fill="url(#paint1_linear_6280_1163)"/>
<path d="M31.419 47.2806L31.0099 46.5945L30.9281 46.5087L18.082 27.3828L20.864 29.4412L21.3549 29.7843L31.0099 36.9887H31.0917L31.419 37.246C31.419 37.246 31.5008 37.2459 31.5008 37.3317L31.91 36.9887L44.9197 27.3828L31.8281 46.5945L31.7463 46.6803L31.419 47.2806Z" fill="url(#paint2_linear_6280_1163)"/>
<path d="M31.4164 34.073L31.0073 33.3869L30.9254 33.3011L27.7344 28.6698L30.9254 29.3559H31.0073L31.4164 29.4416L31.8255 29.3559L34.9347 28.584L31.8255 33.3869V33.4727L31.4164 34.073" fill="url(#paint3_linear_6280_1163)"/>
<path d="M45.0004 27.2969L40.9093 27.8972L39.3547 28.1545C38.1274 28.3261 36.9819 29.0122 36.2455 30.1272L31.9089 36.6454L31.8271 36.7312L31.418 37.3315L31.9089 36.8169L31.9907 36.7312L31.418 37.3315L42.4639 29.098L45.0004 27.2969Z" fill="url(#paint4_linear_6280_1163)"/>
<path d="M33.4639 13.7464C33.4639 17.5201 27.2454 19.4927 27.2454 23.5237C27.1636 24.4672 27.409 25.4106 27.8182 26.2682C27.8182 26.2682 25.4453 23.8668 25.4453 21.2938C25.4453 18.7208 27.7363 14.8613 27.7363 14.8613C27.7363 16.5766 28.3909 17.0912 29.0455 17.177H29.1273C29.8637 17.177 30.2728 16.5766 30.2728 15.719C30.2728 14.8613 29.3728 14.0036 29.3728 12.2883C29.3728 10.6588 31.3365 8 31.3365 8C32.7275 9.71533 33.4639 11.688 33.4639 13.7464" fill="url(#paint5_linear_6280_1163)"/>
<path d="M31.7451 27.4693C29.7814 27.4693 28.3086 25.8397 28.3086 23.8671V23.7813C28.3086 19.4073 34.118 18.9784 34.118 13.0605C34.2816 13.3178 35.8362 15.5478 35.8362 17.9492C35.8362 20.9511 33.1361 21.723 33.1361 23.181C33.1361 23.7813 33.3816 24.2102 34.1998 24.2102C34.2816 24.2102 34.3634 24.2102 34.4452 24.1244C35.9999 23.4383 37.0636 21.8945 37.1454 20.0934C37.1454 20.1792 37.9636 27.4693 31.7451 27.4693" fill="url(#paint6_linear_6280_1163)"/>
<path d="M34.2799 24.2102C34.3617 24.2102 34.4435 24.2102 34.5253 24.1244C33.7071 24.3817 30.6797 25.1536 30.6797 22.9237C30.6797 20.1792 35.1799 19.5788 35.1799 17.2631C35.1799 15.8051 34.8526 14.347 34.1162 13.0605C34.2799 13.3178 35.8345 15.5478 35.8345 17.9492C35.8345 20.9511 33.1343 21.723 33.1343 23.181C33.2162 23.7813 33.5435 24.2102 34.2799 24.2102" fill="url(#paint7_linear_6280_1163)"/>
<path d="M31.8249 15.2901C31.8249 17.4343 29.2066 17.2628 29.043 17.177H29.2884C30.0248 17.177 30.4339 16.5766 30.4339 15.719C30.4339 14.8613 29.5339 14.0036 29.5339 12.2883C29.5339 10.6588 31.4976 8 31.4976 8C30.8431 9.11496 30.5158 10.3157 30.4339 11.5164C30.4339 13.4891 31.8249 13.6606 31.8249 15.2901" fill="url(#paint8_linear_6280_1163)"/>
<path d="M30.1907 52.7702L28.3906 51.4837H30.5998L31.3362 49.168L31.9908 51.4837H34.2L32.3999 52.7702L33.0545 55.0001L31.2544 53.6278L29.3725 55.0001L30.1907 52.7702" fill="url(#paint9_linear_6280_1163)"/>
<path d="M39.6009 52.7702L37.8008 51.4837H40.01L40.7464 49.168L41.401 51.4837H43.6101L41.8101 52.7702L42.4646 55.0001L40.6646 53.6278L38.7826 55.0001L39.6009 52.7702Z" fill="url(#paint10_linear_6280_1163)"/>
<path d="M20.8626 52.7702L19.0625 51.4837H21.2717L22.0081 49.168L22.6627 51.4837H24.8719L23.0718 52.7702L23.7264 55.0001L21.9263 53.6278L20.1262 55.0001L20.8626 52.7702" fill="url(#paint11_linear_6280_1163)"/>
<defs>
<linearGradient id="paint0_linear_6280_1163" x1="77.5479" y1="39.187" x2="-1.17323" y2="39.0405" gradientUnits="userSpaceOnUse">
<stop stop-color="#FF835B"/>
<stop offset="1" stop-color="#F2709C"/>
</linearGradient>
<linearGradient id="paint1_linear_6280_1163" x1="34.7111" y1="33.6437" x2="17.7472" y2="33.6012" gradientUnits="userSpaceOnUse">
<stop stop-color="#FF835B"/>
<stop offset="1" stop-color="#F2709C"/>
</linearGradient>
<linearGradient id="paint2_linear_6280_1163" x1="51.5042" y1="39.9047" x2="17.5765" y2="39.8195" gradientUnits="userSpaceOnUse">
<stop stop-color="#FF835B"/>
<stop offset="1" stop-color="#F2709C"/>
</linearGradient>
<linearGradient id="paint3_linear_6280_1163" x1="36.7013" y1="32.0383" x2="27.5987" y2="32.0161" gradientUnits="userSpaceOnUse">
<stop stop-color="#FF835B"/>
<stop offset="1" stop-color="#F2709C"/>
</linearGradient>
<linearGradient id="paint4_linear_6280_1163" x1="48.3329" y1="33.6118" x2="31.1621" y2="33.5685" gradientUnits="userSpaceOnUse">
<stop stop-color="#FF835B"/>
<stop offset="1" stop-color="#F2709C"/>
</linearGradient>
<linearGradient id="paint5_linear_6280_1163" x1="35.4312" y1="19.4964" x2="25.2942" y2="19.4881" gradientUnits="userSpaceOnUse">
<stop stop-color="#FF835B"/>
<stop offset="1" stop-color="#F2709C"/>
</linearGradient>
<linearGradient id="paint6_linear_6280_1163" x1="39.3577" y1="22.1281" x2="28.1414" y2="22.1152" gradientUnits="userSpaceOnUse">
<stop stop-color="#FF835B"/>
<stop offset="1" stop-color="#F2709C"/>
</linearGradient>
<linearGradient id="paint7_linear_6280_1163" x1="37.0992" y1="20.2368" x2="30.5825" y2="20.2314" gradientUnits="userSpaceOnUse">
<stop stop-color="#FF835B"/>
<stop offset="1" stop-color="#F2709C"/>
</linearGradient>
<linearGradient id="paint8_linear_6280_1163" x1="32.5075" y1="13.8026" x2="28.9905" y2="13.8006" gradientUnits="userSpaceOnUse">
<stop stop-color="#FF835B"/>
<stop offset="1" stop-color="#F2709C"/>
</linearGradient>
<linearGradient id="paint9_linear_6280_1163" x1="35.6253" y1="52.8382" x2="28.2812" y2="52.8246" gradientUnits="userSpaceOnUse">
<stop stop-color="#FF835B"/>
<stop offset="1" stop-color="#F2709C"/>
</linearGradient>
<linearGradient id="paint10_linear_6280_1163" x1="45.0355" y1="52.8382" x2="37.6913" y2="52.8246" gradientUnits="userSpaceOnUse">
<stop stop-color="#FF835B"/>
<stop offset="1" stop-color="#F2709C"/>
</linearGradient>
<linearGradient id="paint11_linear_6280_1163" x1="26.2972" y1="52.8382" x2="18.953" y2="52.8246" gradientUnits="userSpaceOnUse">
<stop stop-color="#FF835B"/>
<stop offset="1" stop-color="#F2709C"/>
</linearGradient>
</defs>
</svg>
