<svg id="Layer_1" data-name="Layer 1" xmlns="http://www.w3.org/2000/svg" xmlns:xlink="http://www.w3.org/1999/xlink" viewBox="0 0 166.5 159.9"><defs><style>.cls-1{fill:#d7d9e0;}.cls-2{fill:#fff;}.cls-3{fill:#74767b;}.cls-4{fill:#888b8f;}.cls-5{fill:#5c5e61;}.cls-6{fill:#a8abb2;}.cls-7{fill:#f25a8a;}.cls-8{fill:#48494b;}.cls-9{fill:#333435;}.cls-10{fill:#ebe4e4;}.cls-11{fill:#f98188;}.cls-12{fill:#efefef;}.cls-13{fill:url(#linear-gradient);}</style><linearGradient id="linear-gradient" x1="102.14" y1="116.34" x2="69.54" y2="127.58" gradientTransform="matrix(1, 0, 0, -1, 0, 188)" gradientUnits="userSpaceOnUse"><stop offset="0" stop-color="#ebe4e4"/><stop offset="1" stop-color="#efeff4"/></linearGradient></defs><path class="cls-1" d="M47,133.33a1.12,1.12,0,0,1-1.49,1.1A34,34,0,0,1,25.17,113.5c-4.21-12-7.64-18.13-9.39-20.8a.7.7,0,0,1,.83-1C23.59,94.25,45.73,104.69,47,133.33Z" transform="translate(-15.67 -9.3)"/><path class="cls-2" d="M46,133.75l0,.05a.3.3,0,0,1-.43,0c-.14-.14-13.76-13.88-20.37-30.31a.31.31,0,1,1,.57-.23c6.57,16.31,20.1,30,20.23,30.1A.31.31,0,0,1,46,133.75Z" transform="translate(-15.67 -9.3)"/><path class="cls-3" d="M72,135.08H64.37L67.8,56.72l.47.06Z" transform="translate(-15.67 -9.3)"/><path class="cls-4" d="M86,124.33H50.27v3.59H86Z" transform="translate(-15.67 -9.3)"/><path class="cls-5" d="M89.31,127.92H47.23v3.58H89.31Z" transform="translate(-15.67 -9.3)"/><path class="cls-4" d="M92.35,131.5H43.92v3.58H92.35Z" transform="translate(-15.67 -9.3)"/><path class="cls-3" d="M97.87,69.75H41.27v1.42h56.6Z" transform="translate(-15.67 -9.3)"/><path class="cls-6" d="M24.94,93.13l-.46-.35L42.23,69.09l13.4,23.73-.49.27-13-23Z" transform="translate(-15.67 -9.3)"/><path class="cls-5" d="M43.53,71.54a1.88,1.88,0,1,0-2.66,0A1.88,1.88,0,0,0,43.53,71.54Z" transform="translate(-15.67 -9.3)"/><path class="cls-6" d="M79.85,93.62l-.46-.34L97.14,69.6l13.4,23.72-.49.27-13-23Z" transform="translate(-15.67 -9.3)"/><path class="cls-5" d="M72,74.41a4.71,4.71,0,0,0,0-7.07,5.81,5.81,0,0,0-7.71,0,4.72,4.72,0,0,0,0,7.07A5.81,5.81,0,0,0,72,74.41Z" transform="translate(-15.67 -9.3)"/><path class="cls-5" d="M98.49,70.76a1.89,1.89,0,1,0-2.27,1.4A1.89,1.89,0,0,0,98.49,70.76Z" transform="translate(-15.67 -9.3)"/><path class="cls-5" d="M95,108.79A15.34,15.34,0,0,0,110.3,93.46H79.62A15.33,15.33,0,0,0,95,108.79Z" transform="translate(-15.67 -9.3)"/><path class="cls-4" d="M110.33,94.21H79.22a1.17,1.17,0,1,1,0-2.33h31.11a1.17,1.17,0,0,1,0,2.33Z" transform="translate(-15.67 -9.3)"/><path class="cls-5" d="M40.05,108.29A15.34,15.34,0,0,0,55.39,93H24.71A15.34,15.34,0,0,0,40.05,108.29Z" transform="translate(-15.67 -9.3)"/><path class="cls-4" d="M55.42,93.71H24.31a1.17,1.17,0,1,1,0-2.33H55.42a1.17,1.17,0,0,1,0,2.33Z" transform="translate(-15.67 -9.3)"/><path class="cls-2" d="M118.4,15.8a1.31,1.31,0,0,0-1.22-1.17c-3.09-.17-12-1-17.36-5A1.48,1.48,0,0,0,99,9.3V54.55a1.3,1.3,0,0,0,.93-.07C103.54,52.74,121.21,42.91,118.4,15.8Z" transform="translate(-15.67 -9.3)"/><path class="cls-7" d="M99.39,52.53a.43.43,0,0,1-.24-.08c-7-4.47-11.57-9.82-14-16.35-2.13-5.84-2.24-11.77-2.33-17v-.7a.42.42,0,0,1,.13-.32.45.45,0,0,1,.32-.14,25.18,25.18,0,0,0,15.6-6.18.44.44,0,0,1,.55,0c2.25,1.49,7.41,4.1,16.7,4.78a.45.45,0,0,1,.42.41c.93,10.59-1.28,19.54-6.54,26.61a31.46,31.46,0,0,1-10.43,9A.46.46,0,0,1,99.39,52.53ZM83.31,18.15a.23.23,0,0,0-.17.07.25.25,0,0,0-.06.17v.69c.09,5.22.19,11.14,2.31,16.94,2.37,6.48,6.9,11.8,13.86,16.25a.24.24,0,0,0,.23,0,31.27,31.27,0,0,0,10.36-8.91c5.24-7,7.43-15.92,6.5-26.46a.24.24,0,0,0-.22-.21,51.5,51.5,0,0,1-7.86-1.19,28.08,28.08,0,0,1-8.94-3.62.23.23,0,0,0-.28,0A25.37,25.37,0,0,1,83.31,18.15Z" transform="translate(-15.67 -9.3)"/><path class="cls-8" d="M156.21,168.12a.68.68,0,0,1,0-.2c1-4,6.09-6.57,6.09-6.57l2,.15a13.82,13.82,0,0,1,.82,6.74.29.29,0,0,1,0,.09A48.61,48.61,0,0,1,156.21,168.12Z" transform="translate(-15.67 -9.3)"/><path class="cls-9" d="M165.13,168.32a.89.89,0,0,1-.64.63,27.67,27.67,0,0,1-7.68-.1.74.74,0,0,1-.6-.74A46.85,46.85,0,0,0,165.13,168.32Z" transform="translate(-15.67 -9.3)"/><path class="cls-10" d="M165.14,158.5l-.85,4.1a.7.7,0,0,1-.57.56,5.37,5.37,0,0,1-1.32,0,.84.84,0,0,1-.66-1l.59-3.64Z" transform="translate(-15.67 -9.3)"/><path class="cls-9" d="M147.5,168.28a11.77,11.77,0,0,0,4-.57c0,.22,0,.45,0,.67a.45.45,0,0,1-.41.46l-12.19-.09a.55.55,0,0,1-.45-.8C140,168.08,144.06,168.37,147.5,168.28Z" transform="translate(-15.67 -9.3)"/><path class="cls-8" d="M138.4,168a.24.24,0,0,1,0-.1,15.46,15.46,0,0,1,9.24-5.79l2.59-.08a12.48,12.48,0,0,1,1.19,5.73,11.94,11.94,0,0,1-4,.57C144.06,168.37,140,168.08,138.4,168Z" transform="translate(-15.67 -9.3)"/><path class="cls-10" d="M150.77,158c0,.19-.39,3.14-.53,4.28a.55.55,0,0,1-.47.51,6,6,0,0,1-1.79,0,.76.76,0,0,1-.58-.77v-4.62Z" transform="translate(-15.67 -9.3)"/><path class="cls-9" d="M152.85,104.3a232.17,232.17,0,0,0-6.16,53.8,1.16,1.16,0,0,0,.93,1.13,13.05,13.05,0,0,0,2.9.33,1.08,1.08,0,0,0,1-.9c.88-5.15,5.92-34.19,8.79-38.91,0,0,1.9,25.87,1.29,39.28a.64.64,0,0,0,.56.66,9.92,9.92,0,0,0,2.33,0,.85.85,0,0,0,.76-.72c.63-4.36,4.23-30.34,4.08-49,0-1.06-2.79-5.64-2.79-5.64H152.85Z" transform="translate(-15.67 -9.3)"/><path class="cls-11" d="M144.15,75.38a26.34,26.34,0,0,0,2.65-4c1-2,.08,1.27.37-1,7.79-5.62,19.54-2.78,24.07-2.2a6,6,0,0,1,3.83,2.06c3.89,4.5,12.43,16.84,2.38,29.26a18.86,18.86,0,0,1-4.36-3.18c1.12-3.14,1.21-7.15-1.12-12-.09.39-.18.77-.3,1.15A71.56,71.56,0,0,0,168.29,106a.63.63,0,0,1-.4.6c-4.23,1.7-12.37.69-15.09.29a.92.92,0,0,1-.77-1c1.34-9.72-5.55-25.7-7.36-29.7A2.8,2.8,0,0,0,144.15,75.38Z" transform="translate(-15.67 -9.3)"/><path class="cls-10" d="M163.92,60.09l.82,8.32s-4.68,1.41-8.1-1l2.4-7.57Z" transform="translate(-15.67 -9.3)"/><path class="cls-10" d="M158.49,50.61c-.12.1-4.75,9.23-4.75,9.23L159,62.37l5.69-8S160.38,48.83,158.49,50.61Z" transform="translate(-15.67 -9.3)"/><path class="cls-9" d="M162.35,54.6a.79.79,0,0,1-.06.73l-2.63,4.38a.39.39,0,0,1-.14.17,1.37,1.37,0,0,1-2.2,0,7.25,7.25,0,0,0-2.08-2.24.85.85,0,0,0-1.13.37,30.44,30.44,0,0,0-1.8,4.27.85.85,0,0,0,.48,1,24.26,24.26,0,0,0,5.05,1.47.83.83,0,0,0,.79-.34c.81-1.1,3.07-4.18,3.84-5s2.05-.45,2.65-.27a.87.87,0,0,0,.67-.08,1.86,1.86,0,0,0,.7-2.82.84.84,0,0,1,.26-1.14,1.85,1.85,0,0,0,.71-2.63,2.61,2.61,0,0,0-2.83-1.39.85.85,0,0,1-.91-.51.56.56,0,0,0-.44-.34.82.82,0,0,1-.66-1,2.16,2.16,0,0,0-1.2-2.46c-2.28-1.25-4.27.78-4.77,2.5s2,2.92,3.63,3.14C161.45,52.65,162.09,53.94,162.35,54.6Z" transform="translate(-15.67 -9.3)"/><path class="cls-12" d="M161.49,61.08s1-2.95,2.3-2.84,2.31,1.4.71,2.84C162.51,62.88,161.49,61.08,161.49,61.08Z" transform="translate(-15.67 -9.3)"/><path class="cls-11" d="M172.39,83.59a26.13,26.13,0,0,0,1.08-10.35l-.48.06a25.36,25.36,0,0,1-1.05,10.13Z" transform="translate(-15.67 -9.3)"/><path class="cls-5" d="M160.57,119.16a.22.22,0,0,0,.22-.18c.52-2,4.41-4.21,4.46-4.23a.24.24,0,0,0,.09-.32.23.23,0,0,0-.32-.09c-.17.09-4.11,2.32-4.68,4.52a.24.24,0,0,0,.17.29Z" transform="translate(-15.67 -9.3)"/><path class="cls-11" d="M128.3,78.09c8.82,1.33,14.56-4.24,18.85-7.61,5.65-4.46,10.06-2.29,10.06-2.29l-6,11.5c-9,8.5-18.23,6.61-24.06,3.85A11.15,11.15,0,0,1,128.3,78.09Z" transform="translate(-15.67 -9.3)"/><path class="cls-11" d="M115.91,72.83l2.93,1.58a25.6,25.6,0,0,0,9.46,3.68,11.16,11.16,0,0,0-1.18,5.46,26.9,26.9,0,0,1-6-3.85C114.47,75.75,115.91,72.83,115.91,72.83Z" transform="translate(-15.67 -9.3)"/><path class="cls-11" d="M81.33,16.31a1.28,1.28,0,0,1,1-.34c4,.35,11.34-1.55,16.17-6.49.33-.34.94-.15,1.33.14,5.36,4,14.26,4.84,17.35,5a1.31,1.31,0,0,1,1.22,1.17c2.81,27.11-14.85,36.94-18.51,38.67a1.32,1.32,0,0,1-1.25-.07C80.39,43,81.17,28.25,80.92,17.29A1.31,1.31,0,0,1,81.33,16.31Z" transform="translate(-15.67 -9.3)"/><path class="cls-2" d="M114.52,21.52A2.52,2.52,0,0,0,112.6,19a1.91,1.91,0,0,0-1.94,1.17,2.18,2.18,0,0,0-2-1.37,2.28,2.28,0,0,0-2,2.35,3,3,0,0,0,.74,2.19l3,2.56a.33.33,0,0,0,.43,0l2.93-2.34A2.74,2.74,0,0,0,114.52,21.52Z" transform="translate(-15.67 -9.3)"/><path class="cls-10" d="M173.09,96.4a19,19,0,0,0,4.36,3.19,36.58,36.58,0,0,1-8,7.08l-1,2.22-3.15-3.78S171,102.28,173.09,96.4Z" transform="translate(-15.67 -9.3)"/><path class="cls-13" d="M107.29,77a2.05,2.05,0,0,1,1.25-1.29l5.94-2.25s.09-.71-1.26-1.2a1.66,1.66,0,0,1-1-1.91s1.84.79,4.53,2a6,6,0,0,1,2.85,2.93L118,77.24a28.82,28.82,0,0,1-11.08.83Z" transform="translate(-15.67 -9.3)"/></svg>