<svg id="Layer_1" data-name="Layer 1" xmlns="http://www.w3.org/2000/svg" viewBox="0 0 219.76 152"><defs><style>.cls-1,.cls-10,.cls-11,.cls-8{fill:#fff;}.cls-2{fill:#f2709c;}.cls-11,.cls-2{opacity:0.5;}.cls-10,.cls-11,.cls-2{isolation:isolate;}.cls-3,.cls-4{fill:#f98188;}.cls-3{fill-opacity:0.49;}.cls-5{fill:#ebf3fa;}.cls-28,.cls-6{fill:#3d3d3d;}.cls-7{fill:#263238;}.cls-8{fill-opacity:0.13;}.cls-9{fill:#233862;}.cls-10{opacity:0.7;}.cls-12{fill:#f5fbff;}.cls-13{fill:#a8d29f;}.cls-14{fill:#382515;}.cls-15{fill:#f99746;}.cls-16{fill:#0c1b33;}.cls-17{fill:#0b172b;}.cls-18{fill:#ffb27d;}.cls-19{fill:#5a5a5a;}.cls-20{fill:#2a4a7c;}.cls-21{fill:#f8b5cb;}.cls-22{fill:#ffadc8;}.cls-23{fill:#aec3ff;}.cls-24{fill:#ed985f;}.cls-25{fill:#dde7fe;}.cls-26{fill:#d67098;}.cls-27{fill:#4a5367;}.cls-28{fill-opacity:0.55;}</style></defs><path class="cls-1" d="M145,44.68a5.76,5.76,0,0,1,5.63-3.14s5.75-5.88,11.89-.78c0,0,6.52-1.26,11.36,1.09a10.9,10.9,0,0,1,4.28,3.23Z" transform="translate(0 0)"/><path class="cls-1" d="M178.7,89.28a4.78,4.78,0,0,1,4.67-2.61s4.78-4.89,9.89-.65c0,0,5.41-1,9.43.91a9,9,0,0,1,3.56,2.68Z" transform="translate(0 0)"/><path class="cls-2" d="M104.76,152H57.18c-11.19,0-18.32-.07-18.34-.13v0a.26.26,0,0,1,0-.05,52.43,52.43,0,0,1-4.05-9.08,55.94,55.94,0,0,1-3-14.71,27.23,27.23,0,0,1,21.07,10.45C62.34,150.45,97.67,134.8,104.76,152Z" transform="translate(0 0)"/><path class="cls-3" d="M152.22,73.74a43,43,0,1,1-43-43A42.92,42.92,0,0,1,152.22,73.74Z" transform="translate(0 0)"/><path class="cls-4" d="M152.22,73.73a42.88,42.88,0,0,1-11.84,29.67L77.83,44.32a43,43,0,0,1,74.39,29.41Z" transform="translate(0 0)"/><path class="cls-5" d="M104.7,38.1l-1.48.41-.3-1.17,2.21-.71h1v8.29H104.7Z" transform="translate(0 0)"/><path class="cls-5" d="M107.83,43.78l2.83-2.41c1.13-.95,1.54-1.49,1.54-2.22a1.24,1.24,0,0,0-1.33-1.28c-.75,0-1.27.41-1.91,1.24l-1-.81a3.36,3.36,0,0,1,3-1.72,2.47,2.47,0,0,1,2.72,2.47c0,1.3-.69,2-2.14,3.19l-1.69,1.41h3.91v1.27h-6V43.78Z" transform="translate(0 0)"/><path class="cls-5" d="M106.19,108.44a4.05,4.05,0,0,1-1-3.18c0-2.51,1.2-4.48,3.53-4.48a3.66,3.66,0,0,1,2.5.92l-.77,1.11a2.73,2.73,0,0,0-1.79-.72c-1.22,0-1.9,1.11-2,2.61a2.85,2.85,0,0,1,4.84,1.79,2.86,2.86,0,0,1-3.06,2.8A3.09,3.09,0,0,1,106.19,108.44Zm3.89-1.91a1.69,1.69,0,0,0-3.35,0,1.54,1.54,0,0,0,1.7,1.48A1.5,1.5,0,0,0,110.08,106.53Z" transform="translate(0 0)"/><path class="cls-5" d="M137.18,76.25l1-.94a2.67,2.67,0,0,0,2.16,1.08,1.29,1.29,0,0,0,1.42-1.27c0-.82-.74-1.27-1.88-1.27h-.68l-.23-.91,2.22-2.37h-3.56V69.31h5.43v1.08l-2.3,2.35c1.31.19,2.43.86,2.43,2.34a2.63,2.63,0,0,1-2.88,2.6A3.86,3.86,0,0,1,137.18,76.25Z" transform="translate(0 0)"/><path class="cls-5" d="M75.09,76.78l.79-1.11a2.73,2.73,0,0,0,1.88.78c1.2,0,1.94-1.07,2-2.59a2.42,2.42,0,0,1-1.92.87,2.62,2.62,0,0,1-2.92-2.64A2.85,2.85,0,0,1,78,69.25a2.93,2.93,0,0,1,2.28.87,4.15,4.15,0,0,1,1,3.16c0,2.64-1.32,4.48-3.53,4.48A3.93,3.93,0,0,1,75.09,76.78ZM79.7,72A1.56,1.56,0,0,0,78,70.49,1.52,1.52,0,1,0,79.7,72Z" transform="translate(0 0)"/><path class="cls-6" d="M108.89,127.49l-.93,0a.19.19,0,0,1-.2-.21.2.2,0,0,1,.21-.2h.92a.21.21,0,0,1,.21.21A.23.23,0,0,1,108.89,127.49Zm.93,0a.22.22,0,0,1-.21-.21.21.21,0,0,1,.21-.21h.92a.21.21,0,0,1,.22.2.22.22,0,0,1-.2.21Zm-2.79,0h0l-.93,0a.19.19,0,0,1-.19-.21.21.21,0,0,1,.22-.19l.92,0a.23.23,0,0,1,.2.22A.22.22,0,0,1,107,127.44Zm4.64,0a.22.22,0,0,1-.21-.2.23.23,0,0,1,.2-.22c.31,0,.62,0,.93,0a.19.19,0,0,1,.21.19.2.2,0,0,1-.19.22l-.93.05Zm-6.5-.11h0l-.93-.07A.22.22,0,0,1,104,127a.21.21,0,0,1,.22-.19l.93.08a.21.21,0,0,1,.19.22A.19.19,0,0,1,105.17,127.33Zm8.36,0a.21.21,0,0,1,0-.41l.92-.08a.2.2,0,0,1,.22.19.2.2,0,0,1-.19.23c-.3,0-.62.06-.93.07Zm-10.21-.16h0l-.93-.11a.21.21,0,0,1-.18-.23.22.22,0,0,1,.23-.19c.3.05.61.08.92.12a.19.19,0,0,1,.18.22A.2.2,0,0,1,103.32,127.16Zm12.06,0a.22.22,0,0,1-.21-.18.2.2,0,0,1,.18-.22c.3,0,.62-.07.93-.12a.22.22,0,0,1,.23.19.21.21,0,0,1-.18.23l-.93.11Zm-13.9-.23h0c-.31,0-.62-.1-.92-.15a.2.2,0,1,1,.06-.4l.92.14a.21.21,0,0,1,.17.24A.2.2,0,0,1,101.48,126.92Zm15.74,0a.21.21,0,0,1,0-.41l.91-.14a.22.22,0,0,1,.25.17.22.22,0,0,1-.18.24l-.92.15Zm-17.58-.29h0l-.92-.18a.2.2,0,0,1-.16-.24.21.21,0,0,1,.24-.16l.92.17a.21.21,0,0,1,.16.24A.22.22,0,0,1,99.64,126.62Zm19.42,0a.21.21,0,0,1-.2-.17.22.22,0,0,1,.16-.25l.9-.17a.22.22,0,0,1,.25.17.21.21,0,0,1-.17.24l-.91.17Zm-21.25-.35h0l-.91-.21a.21.21,0,0,1-.16-.25.22.22,0,0,1,.25-.16l.91.21a.2.2,0,0,1,.15.24A.2.2,0,0,1,97.81,126.25Zm23.07,0a.21.21,0,0,1-.2-.17.22.22,0,0,1,.16-.25l.9-.21a.21.21,0,0,1,.25.16.2.2,0,0,1-.15.25c-.3.07-.61.15-.92.21ZM96,125.82h0q-.45-.11-.9-.24a.19.19,0,0,1-.15-.25.2.2,0,0,1,.25-.14l.9.24a.19.19,0,0,1,.14.25A.18.18,0,0,1,96,125.82Zm26.69,0a.21.21,0,0,1-.2-.16.21.21,0,0,1,.15-.25l.9-.24a.2.2,0,0,1,.25.15.21.21,0,0,1-.15.25l-.9.24Zm-28.48-.48h-.06l-.9-.27a.21.21,0,0,1-.14-.26.2.2,0,0,1,.26-.13l.89.27a.2.2,0,0,1,.14.25A.19.19,0,0,1,94.21,125.33Zm30.28,0a.22.22,0,0,1-.2-.15.2.2,0,0,1,.14-.26l.88-.27a.21.21,0,0,1,.26.14.2.2,0,0,1-.14.26l-.89.28Zm-32.06-.54h-.07l-.88-.3a.2.2,0,0,1-.13-.26.21.21,0,0,1,.26-.13c.29.1.58.21.87.3a.2.2,0,0,1,.13.26A.17.17,0,0,1,92.43,124.77Zm33.83,0a.22.22,0,0,1-.2-.14.2.2,0,0,1,.13-.25l.88-.31a.21.21,0,1,1,.14.4l-.88.3S126.28,124.75,126.26,124.75Zm-35.59-.59H90.6l-.87-.34a.22.22,0,0,1-.13-.27.24.24,0,0,1,.27-.12c.29.11.58.23.87.33a.2.2,0,0,1,.12.27A.2.2,0,0,1,90.67,124.16Zm37.34,0a.2.2,0,0,1-.19-.14.22.22,0,0,1,.12-.27l.87-.32a.19.19,0,0,1,.26.12.2.2,0,0,1-.12.27l-.87.33Zm-39.08-.66h-.08l-.86-.37a.19.19,0,0,1-.1-.26.2.2,0,0,1,.27-.11l.85.36a.22.22,0,0,1,.11.27A.19.19,0,0,1,88.93,123.47Zm40.82,0a.21.21,0,0,1-.19-.13.2.2,0,0,1,.11-.27l.85-.36a.2.2,0,0,1,.27.1.21.21,0,0,1-.1.27l-.86.36A.1.1,0,0,1,129.75,123.45Zm-42.53-.72-.08,0c-.29-.13-.57-.25-.85-.39a.21.21,0,0,1-.09-.28.2.2,0,0,1,.27-.1c.28.13.56.27.85.39a.22.22,0,0,1,.1.28A.23.23,0,0,1,87.22,122.73Zm44.23,0a.2.2,0,0,1-.19-.12.2.2,0,0,1,.1-.27l.84-.39a.2.2,0,0,1,.27.09.21.21,0,0,1-.09.28c-.28.13-.56.27-.85.39A.11.11,0,0,1,131.45,122.71Zm-45.92-.78-.09,0-.84-.42a.21.21,0,0,1-.08-.28.2.2,0,0,1,.27-.09l.83.43a.2.2,0,0,1-.09.38Zm47.59,0a.19.19,0,0,1-.18-.11.2.2,0,0,1,.09-.28l.82-.41a.21.21,0,0,1,.28.08.21.21,0,0,1-.09.28l-.83.42Zm-49.24-.85a.16.16,0,0,1-.1,0L83,120.6a.21.21,0,0,1-.07-.29.2.2,0,0,1,.28-.07l.81.44a.21.21,0,0,1,.09.28A.21.21,0,0,1,83.88,121.07Zm50.88,0a.22.22,0,0,1-.18-.12.2.2,0,0,1,.09-.27l.81-.45a.21.21,0,0,1,.21.36c-.27.16-.55.3-.82.45A.23.23,0,0,1,134.76,121.07Zm-52.5-.91a.23.23,0,0,1-.11,0l-.8-.48a.21.21,0,0,1,.22-.36c.26.17.52.32.79.48a.21.21,0,0,1-.1.39Zm54.13,0a.22.22,0,0,1-.18-.1.2.2,0,0,1,.07-.29l.8-.47a.19.19,0,0,1,.28.07.2.2,0,0,1-.07.28l-.8.47A.14.14,0,0,1,136.39,120.15Zm-55.72-1a.23.23,0,0,1-.11,0l-.79-.51a.21.21,0,0,1,.23-.35l.77.5a.21.21,0,0,1,.06.29A.17.17,0,0,1,80.67,119.18Zm57.3,0a.19.19,0,0,1-.17-.09.21.21,0,0,1,.06-.29l.78-.5a.21.21,0,0,1,.22.35c-.26.17-.52.33-.78.51Zm-58.86-1a.2.2,0,0,1-.11,0c-.26-.17-.52-.35-.77-.54a.21.21,0,0,1,0-.28.2.2,0,0,1,.28,0l.76.52a.2.2,0,0,1,0,.29A.17.17,0,0,1,79.11,118.16Zm60.41,0a.25.25,0,0,1-.18-.08.21.21,0,0,1,.06-.29l.75-.53a.21.21,0,0,1,.29.06.2.2,0,0,1-.05.28l-.77.54Zm1.51-1.08a.17.17,0,0,1-.16-.08.2.2,0,0,1,0-.29l.74-.55a.22.22,0,0,1,.3,0,.21.21,0,0,1,0,.3c-.24.19-.49.37-.75.56Zm-63.44,0a.19.19,0,0,1-.12,0l-.75-.56a.21.21,0,0,1,0-.29.2.2,0,0,1,.29,0c.24.19.49.37.74.55a.2.2,0,0,1,.05.29A.2.2,0,0,1,77.59,117.08ZM142.51,116a.23.23,0,0,1-.17-.07.22.22,0,0,1,0-.3l.72-.58a.21.21,0,1,1,.27.32l-.72.59A.25.25,0,0,1,142.51,116Zm-66.4,0a.33.33,0,0,1-.13,0c-.24-.19-.49-.39-.72-.59a.2.2,0,0,1,0-.29.21.21,0,0,1,.29,0l.73.58a.23.23,0,0,1,0,.3A.23.23,0,0,1,76.11,116ZM144,114.78a.24.24,0,0,1-.16-.07.21.21,0,0,1,0-.29l.7-.61a.21.21,0,1,1,.27.31l-.7.62A.37.37,0,0,1,144,114.78Zm-69.28,0a.21.21,0,0,1-.13,0l-.71-.62a.21.21,0,0,1,.28-.31l.7.61a.22.22,0,0,1,0,.29A.21.21,0,0,1,74.67,114.77Zm70.68-1.22a.21.21,0,0,1-.14-.36l.68-.63a.21.21,0,1,1,.28.3c-.22.22-.45.42-.68.63A.16.16,0,0,1,145.35,113.55Zm-72.08,0a.19.19,0,0,1-.14-.05l-.68-.64a.21.21,0,0,1,0-.29.21.21,0,0,1,.3,0c.22.22.45.42.68.63a.23.23,0,0,1,0,.29A.25.25,0,0,1,73.27,113.54Zm73.43-1.27a.19.19,0,0,1-.15-.06.23.23,0,0,1,0-.29l.66-.66a.23.23,0,0,1,.29,0,.22.22,0,0,1,0,.3l-.66.65A.16.16,0,0,1,146.7,112.27Zm-74.78,0a.21.21,0,0,1-.15-.05l-.66-.66a.22.22,0,0,1,0-.3.23.23,0,0,1,.29,0l.66.66a.23.23,0,0,1,0,.3A.2.2,0,0,1,71.92,112.26ZM148,111a.24.24,0,0,1-.15-.06.22.22,0,0,1,0-.29c.22-.23.44-.45.64-.67a.21.21,0,0,1,.3,0,.2.2,0,0,1,0,.29l-.63.68A.22.22,0,0,1,148,111Zm-77.4,0a.18.18,0,0,1-.15-.06l-.64-.68a.21.21,0,0,1,0-.29.2.2,0,0,1,.29,0l.64.67a.21.21,0,0,1-.15.35Zm78.66-1.36a.24.24,0,0,1-.14,0,.22.22,0,0,1,0-.3l.62-.69a.2.2,0,0,1,.29,0,.22.22,0,0,1,0,.29l-.62.7A.17.17,0,0,1,149.27,109.58Zm-79.92,0a.26.26,0,0,1-.16-.07c-.2-.23-.41-.46-.61-.7a.21.21,0,1,1,.31-.27l.61.69a.22.22,0,0,1,0,.3A.27.27,0,0,1,69.35,109.57Zm81.14-1.4a.24.24,0,0,1-.13,0,.21.21,0,0,1,0-.29l.59-.72a.21.21,0,0,1,.29,0,.23.23,0,0,1,0,.3l-.59.72A.22.22,0,0,1,150.49,108.17Zm-82.36,0a.17.17,0,0,1-.15-.07l-.6-.73a.2.2,0,0,1,0-.29.21.21,0,0,1,.29,0l.59.72a.21.21,0,0,1,0,.29A.19.19,0,0,1,68.13,108.16Zm83.53-1.44a.28.28,0,0,1-.13,0,.23.23,0,0,1,0-.3l.56-.73a.21.21,0,0,1,.29,0,.2.2,0,0,1,0,.28l-.57.75A.18.18,0,0,1,151.66,106.72Zm-84.69,0a.23.23,0,0,1-.17-.07l-.56-.75a.19.19,0,0,1,0-.28.19.19,0,0,1,.28,0l.56.73a.22.22,0,0,1,0,.3A.27.27,0,0,1,67,106.71Zm85.8-1.48a.15.15,0,0,1-.12,0,.19.19,0,0,1,0-.28c.18-.25.36-.5.53-.76a.21.21,0,0,1,.34.23c-.18.25-.36.51-.55.76A.16.16,0,0,1,152.77,105.23Zm-86.91,0a.21.21,0,0,1-.17-.09l-.54-.76a.2.2,0,0,1,0-.28.2.2,0,0,1,.29.05c.17.25.35.51.53.75a.2.2,0,0,1,0,.28A.16.16,0,0,1,65.86,105.23ZM64.8,103.7a.24.24,0,0,1-.18-.1l-.51-.77a.21.21,0,0,1,.35-.23c.16.26.34.52.51.78a.21.21,0,0,1-.06.28A.19.19,0,0,1,64.8,103.7Zm89,0a.15.15,0,0,1-.11,0,.2.2,0,0,1-.06-.28l.51-.78a.21.21,0,0,1,.28-.06.22.22,0,0,1,.06.29c-.16.26-.34.52-.52.78A.2.2,0,0,1,153.84,103.7Zm-90.05-1.56a.21.21,0,0,1-.18-.09l-.48-.8a.21.21,0,0,1,.07-.28.2.2,0,0,1,.28.07c.16.27.32.53.49.79a.21.21,0,0,1-.07.29Zm91.06,0a.15.15,0,0,1-.11,0,.2.2,0,0,1-.07-.28l.48-.8a.21.21,0,1,1,.35.22l-.48.8A.19.19,0,0,1,154.85,102.14Zm-92-1.59a.21.21,0,0,1-.18-.11c-.16-.26-.31-.54-.46-.81a.21.21,0,0,1,.08-.28.21.21,0,0,1,.28.07l.46.81a.2.2,0,0,1-.08.28A.13.13,0,0,1,62.83,100.55Zm93,0-.1,0a.22.22,0,0,1-.08-.28c.16-.27.31-.55.46-.81a.19.19,0,0,1,.28-.08.2.2,0,0,1,.07.28l-.45.82A.2.2,0,0,1,155.8,100.53ZM61.93,98.92a.2.2,0,0,1-.18-.11L61.32,98a.2.2,0,0,1,.09-.27.2.2,0,0,1,.27.08c.14.28.29.55.42.82a.2.2,0,0,1-.08.28A.12.12,0,0,1,61.93,98.92Zm94.77,0a.14.14,0,0,1-.09,0,.19.19,0,0,1-.09-.27l.43-.83a.21.21,0,0,1,.28-.1.21.21,0,0,1,.09.28c-.14.27-.28.56-.43.83A.22.22,0,0,1,156.7,98.9ZM61.1,97.27a.22.22,0,0,1-.19-.12c-.14-.27-.27-.56-.4-.83a.21.21,0,1,1,.38-.18l.4.84a.22.22,0,0,1-.1.28Zm96.45,0-.09,0a.19.19,0,0,1-.09-.27l.39-.84A.22.22,0,0,1,158,96a.21.21,0,0,1,.1.27c-.13.29-.26.57-.4.85A.23.23,0,0,1,157.55,97.23ZM60.31,95.58a.21.21,0,0,1-.19-.12c-.13-.28-.25-.57-.37-.85a.21.21,0,0,1,.11-.27.2.2,0,0,1,.27.11c.12.29.24.57.37.85a.21.21,0,0,1-.1.27Zm98,0-.08,0a.2.2,0,0,1-.11-.28c.13-.28.25-.57.37-.85a.21.21,0,0,1,.27-.11.2.2,0,0,1,.11.27c-.12.28-.24.57-.37.86A.19.19,0,0,1,158.33,95.54ZM59.6,93.87a.21.21,0,0,1-.19-.13c-.12-.28-.24-.58-.35-.87a.21.21,0,0,1,.12-.27.21.21,0,0,1,.27.12c.11.29.22.58.34.87a.2.2,0,0,1-.12.26A.1.1,0,0,1,59.6,93.87Zm99.46-.05-.08,0a.2.2,0,0,1-.11-.27c.11-.28.23-.57.33-.86a.22.22,0,0,1,.27-.12.22.22,0,0,1,.12.27c-.11.29-.22.59-.34.87A.21.21,0,0,1,159.06,93.82ZM58.93,92.14a.21.21,0,0,1-.19-.14l-.31-.88a.21.21,0,1,1,.39-.13l.31.87a.22.22,0,0,1-.12.27Zm100.79-.06h-.07a.22.22,0,0,1-.12-.27l.31-.88a.2.2,0,0,1,.26-.13.21.21,0,0,1,.13.26c-.1.29-.21.59-.31.89A.23.23,0,0,1,159.72,92.08ZM58.32,90.37a.21.21,0,0,1-.2-.14c-.09-.3-.19-.6-.27-.89a.2.2,0,0,1,.13-.26.19.19,0,0,1,.26.14l.28.89a.22.22,0,0,1-.13.26Zm102-.06h-.06a.21.21,0,0,1-.13-.26c.1-.3.19-.6.28-.89a.22.22,0,0,1,.26-.14.21.21,0,0,1,.14.26c-.09.29-.18.59-.28.9A.24.24,0,0,1,160.32,90.31ZM57.78,88.59a.2.2,0,0,1-.19-.15c-.09-.29-.18-.6-.25-.9a.2.2,0,0,1,.14-.25.2.2,0,0,1,.25.15c.08.29.17.59.25.9a.21.21,0,0,1-.13.26Zm103.09-.07h-.06a.21.21,0,0,1-.14-.26c.09-.29.16-.6.24-.9a.2.2,0,0,1,.25-.14.2.2,0,0,1,.15.25c-.08.3-.17.6-.25.89A.19.19,0,0,1,160.87,88.52ZM57.3,86.79a.2.2,0,0,1-.2-.15l-.21-.91a.2.2,0,0,1,.15-.25.2.2,0,0,1,.25.15c.07.31.14.61.22.9a.21.21,0,0,1-.15.25Zm104-.08h-.05a.21.21,0,0,1-.16-.25c.08-.3.15-.6.22-.9a.21.21,0,0,1,.25-.16.22.22,0,0,1,.16.25c-.07.3-.14.61-.22.91A.19.19,0,0,1,161.34,86.71ZM56.89,85a.2.2,0,0,1-.2-.17c-.06-.3-.13-.61-.18-.91a.19.19,0,0,1,.16-.24.2.2,0,0,1,.24.16l.18.91a.2.2,0,0,1-.15.24Zm104.87-.08h0a.2.2,0,0,1-.15-.24l.18-.91a.2.2,0,0,1,.4.08l-.18.92A.21.21,0,0,1,161.76,84.9ZM56.53,83.15a.21.21,0,0,1-.2-.18c0-.3-.11-.61-.16-.92a.2.2,0,0,1,.17-.23.21.21,0,0,1,.24.17c.05.3.09.61.15.91a.22.22,0,0,1-.16.25Zm105.58-.08h0a.2.2,0,0,1-.16-.24l.15-.92a.2.2,0,0,1,.23-.17.2.2,0,0,1,.17.23c-.05.3-.09.62-.15.93A.2.2,0,0,1,162.11,83.07ZM56.24,81.31a.22.22,0,0,1-.21-.18c0-.31-.08-.63-.12-.93a.22.22,0,0,1,.18-.23.21.21,0,0,1,.24.18c0,.31.07.61.12.92a.21.21,0,0,1-.17.24Zm106.15-.08h0a.2.2,0,0,1-.17-.23l.12-.93a.21.21,0,0,1,.23-.18.21.21,0,0,1,.18.23c0,.31-.08.63-.12.93A.23.23,0,0,1,162.39,81.23ZM56,79.46a.21.21,0,0,1-.21-.18l-.09-.93a.22.22,0,0,1,.19-.23.21.21,0,0,1,.23.19c0,.3.06.61.08.92a.21.21,0,0,1-.18.23Zm106.6-.08h0a.2.2,0,0,1-.18-.22l.09-.93a.2.2,0,0,1,.22-.19.22.22,0,0,1,.19.23c0,.31,0,.62-.09.93A.22.22,0,0,1,162.62,79.38ZM55.86,77.6a.21.21,0,0,1-.21-.19c0-.31,0-.62-.06-.93a.21.21,0,0,1,.42,0c0,.31,0,.62.06.93a.21.21,0,0,1-.19.22Zm106.91-.08h0a.19.19,0,0,1-.19-.21c0-.3,0-.61.05-.92a.21.21,0,0,1,.21-.2.2.2,0,0,1,.2.21c0,.31,0,.62-.05.93A.21.21,0,0,1,162.77,77.52Zm-107-1.78a.22.22,0,0,1-.21-.2c0-.31,0-.62,0-.93a.2.2,0,0,1,.19-.21.2.2,0,0,1,.21.2l0,.92a.19.19,0,0,1-.2.22Zm107.11-.07a.22.22,0,0,1-.21-.22l0-.92a.22.22,0,0,1,.2-.21.21.21,0,0,1,.21.21l0,.93A.21.21,0,0,1,162.87,75.67ZM55.73,73.88a.2.2,0,0,1-.2-.21v-1a.23.23,0,0,1,.21-.21.22.22,0,0,1,.21.21c0,.31,0,.62,0,.92v0A.21.21,0,0,1,55.73,73.88ZM162.9,73.8a.2.2,0,0,1-.2-.2c0-.32,0-.63,0-.93a.2.2,0,0,1,.2-.21.21.21,0,0,1,.21.21c0,.31,0,.62,0,.93A.21.21,0,0,1,162.9,73.8ZM55.76,72a.21.21,0,0,1-.21-.21c0-.31,0-.62,0-.93a.21.21,0,0,1,.42,0c0,.3,0,.62,0,.93A.2.2,0,0,1,55.76,72Zm107.11,0a.22.22,0,0,1-.21-.2c0-.31,0-.62,0-.92a.21.21,0,0,1,.2-.22.2.2,0,0,1,.21.2c0,.31,0,.62,0,.93a.2.2,0,0,1-.2.21Zm-107-1.83h0a.21.21,0,0,1-.19-.23c0-.31,0-.62.07-.93a.2.2,0,0,1,.22-.19.21.21,0,0,1,.19.22c0,.31-.05.62-.07.93A.21.21,0,0,1,55.85,70.11Zm106.92,0a.21.21,0,0,1-.2-.19c0-.31,0-.62-.07-.92a.21.21,0,0,1,.19-.23.21.21,0,0,1,.22.19c0,.31.05.62.07.94a.21.21,0,0,1-.19.22ZM56,68.25h0a.2.2,0,0,1-.18-.22l.1-.94a.21.21,0,0,1,.23-.18.23.23,0,0,1,.19.24c0,.3-.07.61-.11.92A.22.22,0,0,1,56,68.25Zm106.59,0a.21.21,0,0,1-.21-.18c0-.31-.07-.62-.1-.92a.21.21,0,1,1,.41-.05c0,.31.07.62.11.93a.2.2,0,0,1-.19.22ZM56.24,66.4h0a.2.2,0,0,1-.18-.23c.05-.3.09-.61.14-.92a.21.21,0,0,1,.23-.18.21.21,0,0,1,.18.24c-.06.3-.1.61-.14.91A.22.22,0,0,1,56.24,66.4Zm106.14,0a.21.21,0,0,1-.2-.18c-.05-.31-.09-.62-.14-.92a.2.2,0,0,1,.17-.23.21.21,0,0,1,.24.17c.05.31.09.62.13.92a.21.21,0,0,1-.17.24ZM56.53,64.56h0a.19.19,0,0,1-.16-.24c.05-.3.11-.61.16-.91a.2.2,0,0,1,.24-.17.22.22,0,0,1,.17.24c-.06.31-.12.62-.17.92A.21.21,0,0,1,56.53,64.56Zm105.57,0a.22.22,0,0,1-.21-.18c0-.3-.11-.6-.16-.91a.2.2,0,0,1,.16-.24.19.19,0,0,1,.24.16c.07.3.12.61.18.92a.22.22,0,0,1-.17.24ZM56.88,62.73h0a.19.19,0,0,1-.16-.24c.06-.3.13-.61.2-.91a.21.21,0,0,1,.25-.16.21.21,0,0,1,.15.25c-.06.3-.13.61-.19.91A.24.24,0,0,1,56.88,62.73Zm104.87,0a.2.2,0,0,1-.2-.17c-.06-.3-.13-.6-.2-.9a.2.2,0,0,1,.16-.25.21.21,0,0,1,.25.15c.06.3.13.61.19.92a.2.2,0,0,1-.15.24ZM57.29,60.92h0a.21.21,0,0,1-.15-.25l.24-.91a.2.2,0,0,1,.25-.14.19.19,0,0,1,.14.25c-.07.29-.15.59-.23.89A.21.21,0,0,1,57.29,60.92Zm104,0a.2.2,0,0,1-.2-.15c-.07-.3-.15-.61-.23-.9a.21.21,0,0,1,.15-.25.2.2,0,0,1,.25.15c.08.3.15.6.23.9a.2.2,0,0,1-.15.25ZM57.77,59.11h-.06a.21.21,0,0,1-.14-.26c.09-.31.17-.6.27-.9a.21.21,0,0,1,.26-.14.2.2,0,0,1,.13.26c-.08.29-.18.6-.26.89A.21.21,0,0,1,57.77,59.11Zm103.09,0a.21.21,0,0,1-.2-.15c-.09-.29-.17-.59-.26-.89a.21.21,0,1,1,.4-.12c.08.29.18.6.27.9a.22.22,0,0,1-.14.26ZM58.31,57.33h-.06a.21.21,0,0,1-.13-.26c.1-.29.2-.6.29-.89a.22.22,0,0,1,.26-.13.2.2,0,0,1,.13.26c-.1.29-.2.59-.29.88A.22.22,0,0,1,58.31,57.33Zm102,0a.2.2,0,0,1-.2-.15c-.1-.29-.19-.58-.3-.88A.21.21,0,0,1,160,56a.2.2,0,0,1,.26.13c.11.3.2.59.3.89a.21.21,0,0,1-.13.26ZM58.91,55.56h-.06a.21.21,0,0,1-.13-.27l.33-.88a.22.22,0,0,1,.27-.12.22.22,0,0,1,.12.27q-.16.42-.33.87A.22.22,0,0,1,58.91,55.56Zm100.8,0a.19.19,0,0,1-.19-.14c-.1-.29-.21-.58-.32-.87a.21.21,0,0,1,.39-.15c.11.29.23.59.33.87a.22.22,0,0,1-.12.27A.16.16,0,0,1,159.71,55.55ZM59.58,53.81l-.08,0a.2.2,0,0,1-.11-.26c.11-.29.23-.58.35-.87a.22.22,0,0,1,.27-.11.21.21,0,0,1,.11.27c-.12.28-.24.57-.35.86A.19.19,0,0,1,59.58,53.81Zm99.47,0a.21.21,0,0,1-.19-.13c-.11-.28-.24-.57-.36-.85a.21.21,0,0,1,.12-.27.2.2,0,0,1,.26.11c.13.29.24.58.36.87a.2.2,0,0,1-.12.26Zm-.73-1.71a.22.22,0,0,1-.19-.12c-.12-.28-.25-.56-.38-.84a.2.2,0,0,1,.11-.27.2.2,0,0,1,.27.1l.39.85a.2.2,0,0,1-.1.27Zm-98,0h-.08a.21.21,0,0,1-.11-.28l.39-.86a.21.21,0,1,1,.38.18c-.13.27-.26.56-.39.84A.18.18,0,0,1,60.3,52.09Zm97.25-1.67a.21.21,0,0,1-.19-.11c-.13-.28-.28-.56-.42-.83a.2.2,0,0,1,.1-.28.2.2,0,0,1,.27.1l.42.83a.2.2,0,0,1-.1.28Zm-96.45,0-.09,0a.2.2,0,0,1-.1-.27l.42-.84a.21.21,0,0,1,.27-.1.22.22,0,0,1,.1.28c-.14.28-.28.55-.41.83A.23.23,0,0,1,61.1,50.4Zm95.6-1.64a.2.2,0,0,1-.18-.11c-.15-.27-.29-.55-.44-.81a.21.21,0,0,1,.08-.28.2.2,0,0,1,.27.08c.15.27.31.54.45.82a.2.2,0,0,1-.09.27A.12.12,0,0,1,156.7,48.76Zm-94.77,0a.13.13,0,0,1-.09,0,.2.2,0,0,1-.09-.28c.15-.27.29-.55.45-.82a.2.2,0,0,1,.28-.08.21.21,0,0,1,.08.29c-.14.27-.3.54-.44.82A.22.22,0,0,1,61.93,48.73Zm93.87-1.59a.24.24,0,0,1-.18-.11l-.46-.79a.21.21,0,1,1,.35-.22l.48.81a.2.2,0,0,1-.08.28A.18.18,0,0,1,155.8,47.14Zm-93,0-.11,0a.23.23,0,0,1-.07-.29c.15-.27.31-.54.47-.81a.21.21,0,0,1,.29-.07.22.22,0,0,1,.06.29L63,47A.2.2,0,0,1,62.84,47.1Zm92-1.56a.22.22,0,0,1-.18-.1c-.16-.25-.32-.52-.49-.78a.21.21,0,1,1,.35-.23l.5.79a.2.2,0,0,1-.07.28A.19.19,0,0,1,154.86,45.54Zm-91.06,0a.18.18,0,0,1-.12,0,.21.21,0,0,1-.07-.28c.17-.26.34-.53.5-.8a.21.21,0,1,1,.35.23c-.16.25-.34.52-.5.78A.17.17,0,0,1,63.8,45.5ZM153.85,44a.21.21,0,0,1-.17-.1l-.53-.77a.2.2,0,0,1,0-.28.2.2,0,0,1,.29.05l.52.77a.2.2,0,0,1-.06.28A.1.1,0,0,1,153.85,44Zm-89,0a.23.23,0,0,1-.11,0,.22.22,0,0,1-.06-.29c.17-.26.36-.51.53-.76a.2.2,0,0,1,.28-.06.21.21,0,0,1,0,.29l-.52.77A.18.18,0,0,1,64.8,43.93Zm88-1.48a.21.21,0,0,1-.17-.09c-.18-.25-.36-.5-.55-.74a.2.2,0,0,1,.05-.29.19.19,0,0,1,.28.05l.55.75a.2.2,0,0,1,0,.28A.19.19,0,0,1,152.79,42.45ZM65.87,42.4a.15.15,0,0,1-.12,0,.2.2,0,0,1,0-.28l.55-.75a.2.2,0,0,1,.29,0,.21.21,0,0,1,0,.29l-.55.75A.2.2,0,0,1,65.87,42.4ZM151.68,41a.19.19,0,0,1-.17-.08l-.58-.72a.2.2,0,0,1,0-.29.21.21,0,0,1,.29,0l.58.73a.22.22,0,0,1,0,.3ZM67,40.92a.28.28,0,0,1-.13,0,.22.22,0,0,1,0-.3l.58-.73a.21.21,0,0,1,.29,0,.22.22,0,0,1,0,.3l-.58.72A.2.2,0,0,1,67,40.92Zm83.52-1.41a.18.18,0,0,1-.16-.08l-.59-.7a.21.21,0,0,1,0-.3.2.2,0,0,1,.29,0c.2.23.41.47.61.72a.22.22,0,0,1,0,.29A.24.24,0,0,1,150.51,39.51Zm-82.35,0a.21.21,0,0,1-.13-.05.22.22,0,0,1,0-.3l.61-.71a.2.2,0,0,1,.29,0,.21.21,0,0,1,0,.29l-.61.71A.17.17,0,0,1,68.16,39.46Zm81.13-1.36a.2.2,0,0,1-.15-.06l-.62-.69a.21.21,0,0,1,.3-.28c.21.22.42.46.63.69a.2.2,0,0,1,0,.29A.16.16,0,0,1,149.29,38.1Zm-79.92-.05a.17.17,0,0,1-.13,0,.2.2,0,0,1,0-.29c.21-.24.41-.47.63-.69a.21.21,0,1,1,.3.28l-.62.68A.17.17,0,0,1,69.37,38.05ZM148,36.73a.19.19,0,0,1-.15-.06c-.22-.22-.43-.45-.65-.66a.21.21,0,1,1,.3-.3c.21.22.44.44.64.68a.2.2,0,0,1,0,.29A.19.19,0,0,1,148,36.73Zm-77.4,0a.2.2,0,0,1-.14-.06.21.21,0,0,1,0-.3c.21-.22.43-.45.65-.66a.22.22,0,0,1,.3,0,.23.23,0,0,1,0,.29c-.22.22-.44.44-.65.67A.22.22,0,0,1,70.64,36.69Zm76.09-1.28a.2.2,0,0,1-.15-.06l-.67-.64a.21.21,0,1,1,.28-.3l.67.65a.2.2,0,0,1,0,.29A.15.15,0,0,1,146.73,35.41Zm-74.79,0a.2.2,0,0,1-.14-.06.22.22,0,0,1,0-.3l.67-.64a.2.2,0,0,1,.29,0,.21.21,0,0,1,0,.3c-.22.2-.44.42-.67.64A.17.17,0,0,1,71.94,35.37Zm73.43-1.24a.24.24,0,0,1-.14-.05c-.22-.21-.45-.41-.69-.62a.22.22,0,0,1,0-.3.2.2,0,0,1,.29,0l.7.62a.23.23,0,0,1,0,.29A.25.25,0,0,1,145.37,34.13Zm-72.06,0a.24.24,0,0,1-.16-.07.2.2,0,0,1,0-.29l.7-.63a.22.22,0,0,1,.29,0,.21.21,0,0,1,0,.3c-.23.19-.46.4-.69.61A.24.24,0,0,1,73.31,34.09ZM144,32.91a.16.16,0,0,1-.12-.06l-.72-.59a.21.21,0,1,1,.27-.32l.71.59a.22.22,0,0,1,0,.3A.21.21,0,0,1,144,32.91Zm-69.27,0a.17.17,0,0,1-.15-.07.21.21,0,0,1,0-.29l.72-.6a.21.21,0,0,1,.29,0,.21.21,0,0,1,0,.29l-.71.6A.28.28,0,0,1,74.7,32.86Zm67.83-1.14a.24.24,0,0,1-.13,0l-.73-.57a.21.21,0,0,1,0-.29.2.2,0,0,1,.29-.05l.74.57a.22.22,0,0,1,0,.3A.2.2,0,0,1,142.53,31.72Zm-66.39,0a.21.21,0,0,1-.17-.08.21.21,0,0,1,0-.29l.73-.57a.2.2,0,0,1,.29,0,.21.21,0,0,1,0,.29l-.73.57A.21.21,0,0,1,76.14,31.69Zm64.92-1.1a.25.25,0,0,1-.12,0l-.75-.55a.2.2,0,0,1-.05-.28.2.2,0,0,1,.28,0l.76.54a.21.21,0,0,1,0,.29A.17.17,0,0,1,141.06,30.59Zm-63.44,0a.21.21,0,0,1-.17-.09.2.2,0,0,1,0-.28c.25-.19.5-.38.76-.55a.2.2,0,0,1,.28.05.21.21,0,0,1-.05.29l-.75.54A.19.19,0,0,1,77.62,30.56Zm61.92-1a.2.2,0,0,1-.11,0l-.77-.52a.21.21,0,1,1,.23-.35l.77.52a.2.2,0,0,1,.05.29A.21.21,0,0,1,139.54,29.51Zm-60.4,0A.26.26,0,0,1,79,29.4a.21.21,0,0,1,.06-.29l.77-.51a.21.21,0,1,1,.23.34l-.77.52Zm58.84-1a.15.15,0,0,1-.11,0l-.79-.49a.23.23,0,0,1-.07-.29.23.23,0,0,1,.29-.07l.79.5a.2.2,0,0,1,.06.28A.18.18,0,0,1,138,28.48Zm-57.3,0a.19.19,0,0,1-.17-.1.2.2,0,0,1,.06-.28l.79-.49a.21.21,0,0,1,.29.07.21.21,0,0,1-.07.28l-.79.49A.2.2,0,0,1,80.68,28.46Zm55.71-.94a.19.19,0,0,1-.1,0l-.8-.47a.19.19,0,0,1-.08-.28.21.21,0,0,1,.29-.08l.81.47a.21.21,0,0,1,.07.28A.27.27,0,0,1,136.39,27.52Zm-54.12,0a.21.21,0,0,1-.11-.39l.81-.46a.22.22,0,0,1,.29.07.22.22,0,0,1-.08.29l-.8.46Zm52.5-.9-.09,0c-.27-.15-.55-.3-.82-.43a.22.22,0,0,1-.09-.28.21.21,0,0,1,.28-.09l.83.44a.21.21,0,0,1,.08.28A.23.23,0,0,1,134.77,26.59Zm-50.88,0a.2.2,0,0,1-.1-.38l.82-.44a.22.22,0,0,1,.28.09.21.21,0,0,1-.09.28c-.27.13-.54.28-.82.43A.15.15,0,0,1,83.89,26.58Zm49.23-.84-.1,0c-.27-.14-.55-.28-.83-.4a.21.21,0,0,1-.1-.28.21.21,0,0,1,.28-.1l.84.41a.2.2,0,0,1,.1.28A.23.23,0,0,1,133.12,25.74Zm-47.59,0a.21.21,0,0,1-.18-.11.2.2,0,0,1,.1-.28c.27-.14.56-.28.83-.4a.2.2,0,0,1,.28.09.21.21,0,0,1-.09.28l-.83.4Zm45.9-.79-.09,0-.84-.38a.2.2,0,0,1-.11-.27.2.2,0,0,1,.27-.1l.85.38a.21.21,0,0,1,.11.27A.22.22,0,0,1,131.43,24.94Zm-44.22,0a.21.21,0,0,1-.09-.4l.85-.38a.2.2,0,0,1,.17.37l-.85.37A.12.12,0,0,1,87.21,24.94Zm1.7-.75a.21.21,0,0,1-.19-.13.19.19,0,0,1,.11-.26c.28-.13.58-.24.86-.35a.21.21,0,1,1,.15.39l-.87.34Zm40.81,0h-.08c-.28-.13-.57-.24-.86-.35a.22.22,0,0,1-.12-.27.23.23,0,0,1,.27-.12l.87.35a.2.2,0,0,1,.11.26A.19.19,0,0,1,129.72,24.19Zm-39.08-.67a.19.19,0,0,1-.19-.14.22.22,0,0,1,.12-.27l.88-.32a.23.23,0,0,1,.27.13.22.22,0,0,1-.13.27c-.3.1-.59.21-.87.32Zm37.34,0a.08.08,0,0,1-.07,0l-.87-.32a.2.2,0,0,1-.13-.26.2.2,0,0,1,.27-.13c.29.1.59.2.88.32a.2.2,0,0,1,.12.26A.22.22,0,0,1,128,23.51ZM92.39,22.9a.21.21,0,0,1-.07-.4c.29-.09.6-.2.89-.28a.2.2,0,0,1,.26.13.21.21,0,0,1-.14.26l-.88.29Zm33.83,0h-.07l-.89-.29a.2.2,0,1,1,.12-.39l.89.28a.21.21,0,0,1,.13.26A.17.17,0,0,1,126.22,22.89Zm-32-.55a.21.21,0,0,1-.2-.14.2.2,0,0,1,.14-.26l.89-.26a.21.21,0,0,1,.11.4c-.3.07-.6.16-.89.25Zm30.27,0h-.06c-.29-.09-.59-.18-.89-.25a.21.21,0,0,1-.14-.25.2.2,0,0,1,.25-.15c.29.08.6.16.89.26a.2.2,0,0,1,0,.4ZM96,21.84a.2.2,0,0,1-.2-.15.21.21,0,0,1,.15-.25l.9-.23a.21.21,0,0,1,.25.16.21.21,0,0,1-.15.25l-.9.22Zm26.69,0h-.05l-.9-.22a.21.21,0,1,1,.09-.41l.91.23a.21.21,0,0,1,.15.25A.21.21,0,0,1,122.65,21.84Zm-24.88-.43a.21.21,0,0,1-.2-.16.2.2,0,0,1,.16-.24l.91-.19a.19.19,0,0,1,.24.16.2.2,0,0,1-.16.24l-.91.19Zm23.07,0h0l-.9-.19a.21.21,0,0,1-.16-.24.2.2,0,0,1,.24-.16l.91.19a.21.21,0,0,1,0,.41Zm-21.25-.36a.21.21,0,0,1,0-.42l.92-.16a.22.22,0,0,1,.24.17.22.22,0,0,1-.17.25l-.92.15S99.61,21.05,99.59,21.05ZM119,21h0l-.91-.15a.21.21,0,0,1-.17-.24.21.21,0,0,1,.24-.17l.92.16a.2.2,0,0,1,.16.25A.22.22,0,0,1,119,21Zm-17.59-.29a.21.21,0,0,1-.21-.18.2.2,0,0,1,.17-.23l.93-.13a.21.21,0,0,1,.23.18.21.21,0,0,1-.18.24l-.92.13S101.44,20.75,101.43,20.75Zm15.75,0h0l-.92-.13a.22.22,0,0,1-.18-.23.23.23,0,0,1,.24-.19l.92.13a.21.21,0,0,1,.17.24A.2.2,0,0,1,117.18,20.74Zm-13.91-.23a.21.21,0,0,1-.2-.19.2.2,0,0,1,.18-.22l.93-.1a.21.21,0,0,1,.22.19.21.21,0,0,1-.19.23c-.31,0-.62.06-.92.09Zm12.07,0h0l-.92-.1a.21.21,0,0,1-.19-.22.2.2,0,0,1,.22-.19c.31,0,.62.06.93.09a.21.21,0,0,1,0,.42Zm-10.21-.18a.21.21,0,0,1,0-.41q.47,0,.93-.06a.2.2,0,0,1,.22.19.2.2,0,0,1-.19.21l-.93.06Zm8.35,0h0l-.92-.06a.2.2,0,0,1-.19-.21.21.21,0,0,1,.22-.19l.93.06a.21.21,0,0,1,.19.22A.2.2,0,0,1,113.48,20.32Zm-6.5-.1a.22.22,0,0,1-.21-.2.2.2,0,0,1,.2-.21l.93,0a.21.21,0,1,1,0,.42c-.31,0-.62,0-.92,0Zm4.65,0h0l-.92,0a.2.2,0,0,1-.2-.22.2.2,0,0,1,.21-.2l.94,0a.2.2,0,0,1,.19.21A.22.22,0,0,1,111.63,20.22Zm-2.8,0a.21.21,0,0,1-.2-.21.2.2,0,0,1,.2-.21h.94A.21.21,0,0,1,110,20a.22.22,0,0,1-.21.21h-.94Z" transform="translate(0 0)"/><path class="cls-7" d="M82.66,25.82a2.42,2.42,0,1,1,2.42,2.41A2.42,2.42,0,0,1,82.66,25.82Z" transform="translate(0 0)"/><path class="cls-6" d="M109.32,117.43a43.48,43.48,0,0,1-17-3.44,43.86,43.86,0,0,1,0-80.75,43.87,43.87,0,0,1,34.06,0,43.82,43.82,0,0,1-17,84.19Zm0-85.88A41.93,41.93,0,0,0,79.61,43.87a42,42,0,1,0,29.71-12.32Z" transform="translate(0 0)"/><path class="cls-6" d="M114.75,27.16H103.33V31h11.42Z" transform="translate(0 0)"/><path class="cls-6" d="M110,23.53h-1.84v4.36H110Z" transform="translate(0 0)"/><path class="cls-6" d="M109,24.56A3.56,3.56,0,1,1,112.59,21,3.55,3.55,0,0,1,109,24.56ZM109,19a2,2,0,1,0,2,2A2,2,0,0,0,109,19Z" transform="translate(0 0)"/><path class="cls-6" d="M130.29,74.05a19.87,19.87,0,0,1-.33,3.64,20.21,20.21,0,0,1-38.37,4.54,19.31,19.31,0,0,1-1-2.91,20,20,0,0,1-.7-5.28,20.4,20.4,0,0,1,.46-4.31.1.1,0,0,1,0,0,20.23,20.23,0,0,1,5.44-9.95,21.36,21.36,0,0,1,2.45-2.1c.41-.3.84-.59,1.28-.86a20.15,20.15,0,0,1,10.58-3c.51,0,1,0,1.52.06a18.15,18.15,0,0,1,2.11.26,20.31,20.31,0,0,1,13.45,9.11c.31.49.59,1,.87,1.51a19.69,19.69,0,0,1,1.54,3.93A20.73,20.73,0,0,1,130.29,74.05Z" transform="translate(0 0)"/><path class="cls-8" d="M103.21,65c-.81,1.27.34,3.49-2.08,2.89s-3.9-.87-4,.47,1.81,1.34,1.81,2.76S98,73,96.68,72.32s-1.73-1.65-3.29-1-2.47.2-2.82-1a1.57,1.57,0,0,0-.25-.52.43.43,0,0,1,0,0,20.24,20.24,0,0,1,5.44-9.94,21.36,21.36,0,0,1,2.45-2.1c.41-.31.84-.59,1.28-.86a2.69,2.69,0,0,1,2,1.06c1.41,1.76,2.36.88,2,2.9s.2,2.29,1.34,2.22,2.49-.07,2.63.81S104,63.71,103.21,65Z" transform="translate(0 0)"/><path class="cls-8" d="M114.38,75.86s-1.41.45-1.78-.53.06-1.2-1.19-1.49-1.35-1.14-2.14-1-.4.43-1.33,1.12-1.78.37-1.75,1.65,1.4,1.47,1.68,2.31-.2,1.19.4,1.83,1.7.36,1.19,1.24-1.31,1.55-.92,2.91.12,1.43.8,2.39,2,1.28,2.19.64-.92-1.48-.57-2.12,1-.2,1.19-1.15,1.21-1,1.29-1.63-1.16-1.67-.69-2.1,1.43.77,2.17-.29.25-1.91,1-2.92S114.92,75.27,114.38,75.86Z" transform="translate(0 0)"/><path class="cls-8" d="M130.29,74.05a20.21,20.21,0,0,1-3.52,11.4,2.24,2.24,0,0,1-1.61,0c-2.52-1-.66-3.74.35-5.09s-1.56-.76-3.42-2,.2-4.65-1.72-4.09-4.23,1.26-5.34-.6,1-2.17,0-3.74.55-2.47,2.46-2.63,1.67-1.51,4-1.72,2.32,2.83,4.94,2.63,2.5.41,2.5.41a1.18,1.18,0,0,1,.55.11A20.78,20.78,0,0,1,130.29,74.05Z" transform="translate(0 0)"/><path class="cls-8" d="M128,64.74c-2.18,1.06-3.05-1.82-4.91-1s-1.56-.81-3-1.88-4.43.87-4.3-.81,2.35-1.21,2.82-2.56,2.62-1,2.62-1a1.59,1.59,0,0,1,.39-.09A19.91,19.91,0,0,1,125.5,61a20.31,20.31,0,0,1,1.65,2.25A15.84,15.84,0,0,1,128,64.74Z" transform="translate(0 0)"/><path class="cls-8" d="M109.66,58.93s1.14-1.64-.67-2.14-1.78.15-3.19,0-2,.94-.91,2.14,1.92,3.49,2.88,2.27S108.53,59.05,109.66,58.93Z" transform="translate(0 0)"/><path class="cls-1" d="M109.4,75.11h-.29a.89.89,0,0,1-.93-.88l.14-25.94a.56.56,0,0,1,1.12,0l.83,26A.87.87,0,0,1,109.4,75.11Z" transform="translate(0 0)"/><path class="cls-9" d="M109.28,75.11l0,0s.14-.42.43-.84l15.37-22.46c.17-.26.33-.44.37-.42s-.08.24-.25.5l-15.3,22.57C109.6,74.85,109.33,75.14,109.28,75.11Z" transform="translate(0 0)"/><path class="cls-1" d="M107.64,74.35l.1-.28a1,1,0,0,1,1.34-.47l29.26,11.65a.62.62,0,0,1,.39.76.61.61,0,0,1-.79.3L108.28,75.54A1,1,0,0,1,107.64,74.35Z" transform="translate(0 0)"/><path class="cls-4" d="M104.7,74.12a4.52,4.52,0,1,1,4.59,4.45A4.52,4.52,0,0,1,104.7,74.12Z" transform="translate(0 0)"/><path class="cls-1" d="M167.46,81.33a4.37,4.37,0,0,1,4.24-2.12s4.34-4,9-.53c0,0,4.91-.86,8.56.74a8,8,0,0,1,3.23,2.18Z" transform="translate(0 0)"/><path class="cls-1" d="M113.33,4.21A3.7,3.7,0,0,1,117,2s3.71-4.13,7.66-.55c0,0,4.19-.89,7.3.77a7.2,7.2,0,0,1,2.76,2.26Z" transform="translate(0 0)"/><path class="cls-10" d="M14.93,103.61A8.47,8.47,0,0,1,23,99.94S31.27,93,40.08,99c0,0,9.37-1.48,16.31,1.28,4.63,1.84,6.15,3.77,6.15,3.77Z" transform="translate(0 0)"/><path class="cls-11" d="M36.64,81.74a4.7,4.7,0,0,1,4.53-2.2s4.64-4.13,9.58-.55c0,0,5.26-.89,9.15.76A8.7,8.7,0,0,1,63.35,82Z" transform="translate(0 0)"/><path class="cls-11" d="M0,91.65a4.72,4.72,0,0,1,4.53-2.21s4.64-4.12,9.58-.55c0,0,5.26-.89,9.15.77a8.64,8.64,0,0,1,3.45,2.26Z" transform="translate(0 0)"/><path class="cls-11" d="M32.44,67.5a3.06,3.06,0,0,1,3-1.66s3-3.11,6.29-.41a11.07,11.07,0,0,1,6,.58A5.73,5.73,0,0,1,50,67.71Z" transform="translate(0 0)"/><path class="cls-12" d="M44.25,90A10.63,10.63,0,0,1,41,92,10.41,10.41,0,1,1,36.94,72a9.73,9.73,0,0,0,7.31,18Z" transform="translate(0 0)"/><path class="cls-13" d="M190.51,139.23a8.5,8.5,0,0,0,4.05-.18,8.7,8.7,0,0,0-2.79-3,1.69,1.69,0,1,0-1.26,3.13Z" transform="translate(0 0)"/><path class="cls-13" d="M198.3,140.71a8.54,8.54,0,0,0-.47,4,8.8,8.8,0,0,0,3.36-2.27,1.69,1.69,0,0,0-2.89-1.76Z" transform="translate(0 0)"/><path class="cls-13" d="M194.13,146.77a8.48,8.48,0,0,0,4-.49,8.67,8.67,0,0,0-3-2.74,1.7,1.7,0,0,0-1,3.23Z" transform="translate(0 0)"/><path class="cls-13" d="M198.63,149.77c0-.07-.35-7.08-4.17-10.7l.07-.09c3.87,3.65,4.21,10.71,4.22,10.78Z" transform="translate(0 0)"/><path class="cls-13" d="M211.43,139.38a6,6,0,0,1-2.78.44,5.87,5.87,0,0,1,1.48-2.39,1.17,1.17,0,0,1,1.3,1.95Z" transform="translate(0 0)"/><path class="cls-13" d="M206.34,141.46a6.07,6.07,0,0,1,.88,2.67,6,6,0,0,1-2.6-1.08,1.17,1.17,0,1,1,1.72-1.59Z" transform="translate(0 0)"/><path class="cls-13" d="M210,145a6,6,0,0,1-2.8.23,5.89,5.89,0,0,1,1.65-2.28A1.18,1.18,0,0,1,210,145Z" transform="translate(0 0)"/><path class="cls-13" d="M207.36,147.66s-.74-4.85,1.36-7.84l-.07,0c-2.12,3-1.38,7.85-1.37,7.9Z" transform="translate(0 0)"/><path class="cls-13" d="M203.57,149.36l-.24,0a74.23,74.23,0,0,0-4.81-21.5l.22-.09A75.09,75.09,0,0,1,203.57,149.36Z" transform="translate(0 0)"/><path class="cls-4" d="M196,126.57a6.53,6.53,0,0,0,2.81,1.25,6.56,6.56,0,0,0-.89-2.94,1.28,1.28,0,0,0-1.81-.11A1.25,1.25,0,0,0,196,126.57Z" transform="translate(0 0)"/><path class="cls-4" d="M199.3,124.72a6.7,6.7,0,0,0-.65,3,6.61,6.61,0,0,0,2.7-1.48,1.3,1.3,0,0,0-.25-1.8A1.28,1.28,0,0,0,199.3,124.72Z" transform="translate(0 0)"/><path class="cls-4" d="M201.82,127.19a6.63,6.63,0,0,0-3,.5,6.57,6.57,0,0,0,2.37,2,1.28,1.28,0,0,0,.67-2.48Z" transform="translate(0 0)"/><path class="cls-4" d="M200.27,130.27a6.48,6.48,0,0,0-1.55-2.66,6.8,6.8,0,0,0-1,2.91,1.29,1.29,0,0,0,2.56-.25Z" transform="translate(0 0)"/><path class="cls-4" d="M196.78,130.12a6.4,6.4,0,0,0,1.88-2.44,6.54,6.54,0,0,0-3.07.17,1.28,1.28,0,0,0,1.19,2.27Z" transform="translate(0 0)"/><path class="cls-14" d="M198.25,127.62a.42.42,0,0,1,.48-.36.44.44,0,0,1,.36.49.43.43,0,0,1-.49.35A.42.42,0,0,1,198.25,127.62Z" transform="translate(0 0)"/><path class="cls-13" d="M203.5,136.63c-.7.86-1.45,4.45-1.2,4.65s3.61-1.27,4.3-2.13a2,2,0,0,0-3.1-2.52Z" transform="translate(0 0)"/><path class="cls-13" d="M189.73,150.63h-.16a49.83,49.83,0,0,0-5.08-13.84l.14-.09A50.34,50.34,0,0,1,189.73,150.63Z" transform="translate(0 0)"/><path class="cls-15" d="M182.68,136.18a4.41,4.41,0,0,0,2,.59,4.47,4.47,0,0,0-.84-1.87.86.86,0,0,0-1.21.08A.83.83,0,0,0,182.68,136.18Z" transform="translate(0 0)"/><path class="cls-15" d="M184.74,134.66a4.25,4.25,0,0,0-.17,2.05,4.37,4.37,0,0,0,1.67-1.22.86.86,0,0,0-1.5-.83Z" transform="translate(0 0)"/><path class="cls-15" d="M186.62,136.07a4.49,4.49,0,0,0-2,.6,4.38,4.38,0,0,0,1.74,1.1.86.86,0,1,0,.22-1.7Z" transform="translate(0 0)"/><path class="cls-15" d="M185.87,138.26a4.51,4.51,0,0,0-1.26-1.64,4.56,4.56,0,0,0-.42,2,.86.86,0,0,0,1.68-.39Z" transform="translate(0 0)"/><path class="cls-15" d="M183.54,138.46a4.3,4.3,0,0,0,1-1.78,4.44,4.44,0,0,0-2,.39.85.85,0,0,0-.21,1.19A.87.87,0,0,0,183.54,138.46Z" transform="translate(0 0)"/><path class="cls-16" d="M184.29,136.67a.29.29,0,1,1,.27.29A.28.28,0,0,1,184.29,136.67Z" transform="translate(0 0)"/><path class="cls-13" d="M188.57,142.2a6.68,6.68,0,0,0-.39,3.19,6.87,6.87,0,0,0,2.66-1.79,1.34,1.34,0,0,0-.44-1.84A1.31,1.31,0,0,0,188.57,142.2Z" transform="translate(0 0)"/><path class="cls-13" d="M184.57,151.49a4.6,4.6,0,0,1,4.25-2.64c3.32-.15,5.61,1.88,8.35.93s7.29-3,11.59-1.64,5,3.35,5,3.35Z" transform="translate(0 0)"/><path class="cls-13" d="M140.1,150.64l-.2,0A60.4,60.4,0,0,0,136,133l.18-.08A61,61,0,0,1,140.1,150.64Z" transform="translate(0 0)"/><path class="cls-4" d="M133.85,132a5.58,5.58,0,0,0,2.3,1,5.39,5.39,0,0,0-.73-2.42,1,1,0,1,0-1.57,1.39Z" transform="translate(0 0)"/><path class="cls-4" d="M136.6,130.45a5.54,5.54,0,0,0-.53,2.47,5.34,5.34,0,0,0,2.21-1.21,1,1,0,0,0-1.68-1.26Z" transform="translate(0 0)"/><path class="cls-4" d="M138.67,132.47a5.22,5.22,0,0,0-2.48.42,5.35,5.35,0,0,0,1.93,1.61,1,1,0,0,0,1.28-.73A1.06,1.06,0,0,0,138.67,132.47Z" transform="translate(0 0)"/><path class="cls-4" d="M137.4,135a5.43,5.43,0,0,0-1.27-2.18,5.33,5.33,0,0,0-.83,2.38,1.05,1.05,0,0,0,2.1-.2Z" transform="translate(0 0)"/><path class="cls-4" d="M134.53,134.87a5.32,5.32,0,0,0,1.54-2,5.42,5.42,0,0,0-2.51.13,1,1,0,0,0,1,1.86Z" transform="translate(0 0)"/><path class="cls-9" d="M135.74,132.82a.34.34,0,0,1,.39-.29.35.35,0,0,1,.29.4.34.34,0,0,1-.4.28A.32.32,0,0,1,135.74,132.82Z" transform="translate(0 0)"/><path class="cls-13" d="M139.16,135.82a8.37,8.37,0,0,0-1,3.81,8.5,8.5,0,0,0,3.53-1.75,1.64,1.64,0,0,0-2.55-2.06Z" transform="translate(0 0)"/><path class="cls-13" d="M137.76,144.27a6.3,6.3,0,0,1,1.82,2.22,6.09,6.09,0,0,1-2.87-.06,1.2,1.2,0,0,1,1-2.16Z" transform="translate(0 0)"/><path class="cls-13" d="M145.8,150.64l.24,0a70.09,70.09,0,0,1,4.52-20.22l-.21-.09A70.64,70.64,0,0,0,145.8,150.64Z" transform="translate(0 0)"/><path class="cls-15" d="M153,129.2a6.07,6.07,0,0,1-2.65,1.17,6.08,6.08,0,0,1,.84-2.77,1.18,1.18,0,0,1,1.69-.1A1.2,1.2,0,0,1,153,129.2Z" transform="translate(0 0)"/><path class="cls-15" d="M149.82,127.45a6.23,6.23,0,0,1,.61,2.84,6.16,6.16,0,0,1-2.54-1.4,1.2,1.2,0,1,1,1.93-1.44Z" transform="translate(0 0)"/><path class="cls-15" d="M147.45,129.78a6,6,0,0,1,2.85.47,6,6,0,0,1-2.22,1.86,1.21,1.21,0,0,1-.63-2.33Z" transform="translate(0 0)"/><path class="cls-15" d="M148.92,132.68a6.16,6.16,0,0,1,1.45-2.51,6.35,6.35,0,0,1,.94,2.74,1.2,1.2,0,1,1-2.39-.23Z" transform="translate(0 0)"/><path class="cls-15" d="M152.19,132.54a6.23,6.23,0,0,1-1.76-2.3,6.12,6.12,0,0,1,2.88.16,1.21,1.21,0,0,1-1.12,2.14Z" transform="translate(0 0)"/><path class="cls-17" d="M150.82,130.18a.4.4,0,1,0-.33.46A.41.41,0,0,0,150.82,130.18Z" transform="translate(0 0)"/><path class="cls-13" d="M145.87,138.67c.66.8,1.36,4.19,1.13,4.38s-3.39-1.19-4-2a1.88,1.88,0,1,1,2.91-2.37Z" transform="translate(0 0)"/><path class="cls-13" d="M148.49,143.33a6.89,6.89,0,0,0-2.08,2.55,7.06,7.06,0,0,0,3.28-.08,1.37,1.37,0,0,0-1.2-2.47Z" transform="translate(0 0)"/><path class="cls-13" d="M135.3,151.59s2.79-3.7,6.76-2.34,9.26.12,9.25,2Z" transform="translate(0 0)"/><path class="cls-18" d="M176.87,105.38a1.75,1.75,0,0,1,.12,1.32c-.57,1.71-.56,2.36.45,3.12,0,0,1.41.7,1.22-.08a2.79,2.79,0,0,1,.1-1.41c.43-1.23.44-1.84-.21-2.71l-.29-.44Z" transform="translate(0 0)"/><path class="cls-18" d="M177.33,106.63a.58.58,0,0,0-.41.28c-.3.71-1,1.32-.89,1.44s.7-.23,1-.68A2.19,2.19,0,0,0,177.33,106.63Z" transform="translate(0 0)"/><path class="cls-19" d="M161.42,86.85a3.2,3.2,0,0,1,4.81-3,.48.48,0,0,0,.14.09c3.31,2.13,10.46,12.1,10.95,13.1s1.93,8.93,1.93,8.93-1.8.66-2.63,0c0,0-2.91-7.53-3.34-7.9s-11.65-6.68-11.74-9C161.53,88.36,161.48,87.61,161.42,86.85Z" transform="translate(0 0)"/><path class="cls-20" d="M181.42,145.17s1.34,1.22,1.07,2.09-1.47,1.45-1.63,2.51-.81,1.64-1.4,1.64h-2.8s-.43-.75.61-1,1.44-1.47,1.37-2.63a21.44,21.44,0,0,1,.1-2.71l2.22-.51Z" transform="translate(0 0)"/><path class="cls-20" d="M165,148.32s.23,2.78-.34,3.07h-7.51s0-.87,1.21-1.06,3.32-.9,3.68-2.48S165,148.32,165,148.32Z" transform="translate(0 0)"/><path class="cls-21" d="M158.7,109.09s.4,4.87.85,10.72c.64,8,1.4,17.72,1.47,19.57.13,3.22.66,8.35.66,8.35a4.11,4.11,0,0,0,3.71.71,83,83,0,0,0,2.84-15.1l0-.39c.59-7.9,1.5-24.54,1.5-24.54Z" transform="translate(0 0)"/><path class="cls-22" d="M158.7,109.09s.4,4.87.85,10.72l8.67,13.53,0-.39c.59-7.9,1.5-24.54,1.5-24.54Z" transform="translate(0 0)"/><path class="cls-21" d="M160.51,109.66s7.13,17.64,11.83,25.93,6.15,10.6,6.15,10.6,2.69-1.06,2.94-1.78c0,0-1.79-16-4.94-19.9-1.78-2.2-3.28-8.52-3.52-10.81-.29-2.69-1.06-7.2-1.06-7.2Z" transform="translate(0 0)"/><path class="cls-18" d="M166.66,83.21s-4.78,2.43-7.59,1.62a6.73,6.73,0,0,1,1.2-1.12,1.31,1.31,0,0,0,.51-1.26c0-.22-.07-.43-.1-.62a12.79,12.79,0,0,1-.15-1.48l1.83-1.5,1.74-1.44A7.15,7.15,0,0,0,166.66,83.21Z" transform="translate(0 0)"/><path class="cls-23" d="M171.4,107.87a19.91,19.91,0,0,1-5.89,2.55c-2.52.6-5.62.41-6.66.58a.54.54,0,0,1-.3-.08c-.09,0-.54-3.12-1-7,0-.16,0-.31-.05-.47v-.05c-.18-1.52-.33-3.12-.47-4.72-.11-1.25-.21-2.48-.27-3.64-.08-1.45-.11-2.78-.08-3.87,0-.5.05-.94.09-1.34a9.65,9.65,0,0,1,2.38-5.11l1-1a4.22,4.22,0,0,0,2.76-.75c1-.68,2.14-1.42,2.35-1.29,1.59.87,2.87,3.11,3.8,6.08a34.9,34.9,0,0,1,1.19,5.7c.08.63.15,1.29.2,1.94l0,.35c.13,1.78.32,3.45.55,4.94.3,2,.64,3.69.89,4.87.11.6.21,1.07.26,1.4S171.67,107.71,171.4,107.87Z" transform="translate(0 0)"/><path class="cls-6" d="M171.42,107.88a19.91,19.91,0,0,1-5.89,2.55c-2.52.6-5.62.41-6.66.57a.46.46,0,0,1-.3-.07c-.09,0-.54-3.12-1-7,0-.16,0-.31,0-.47v0c-.18-1.53-.33-3.12-.47-4.72-.11-1.25-.21-2.48-.27-3.64-.07-1.45-.12-2.78-.07-3.87,0-.5,0-.94.08-1.34a9.14,9.14,0,0,1,2.35-5.18,12.51,12.51,0,0,1,1-.88,4.24,4.24,0,0,0,2.77-.75c1-.68,2.14-1.42,2.35-1.29,1.59.87,2.88,3.11,3.8,6.08a34.9,34.9,0,0,1,1.19,5.7c.08.63.15,1.29.2,1.94l0,.35c.13,1.78.32,3.45.55,4.94.3,2,.64,3.69.89,4.87.11.6.21,1.07.26,1.4S171.68,107.72,171.42,107.88Z" transform="translate(0 0)"/><path class="cls-24" d="M164.17,78.91a6.43,6.43,0,0,1-3.48,2.92,13,13,0,0,1-.15-1.48l1.83-1.5Z" transform="translate(0 0)"/><path class="cls-18" d="M159.69,80.29s4.62.67,5-2.17,1.22-4.68-1.71-5.22-3.65.48-4,1.39S158.49,80.05,159.69,80.29Z" transform="translate(0 0)"/><path class="cls-9" d="M166.25,72.5c0-.06.14-.09.35-.11a.81.81,0,0,0-.4-.11,1.11,1.11,0,0,0-.74-.94.63.63,0,0,1,.32.46c-.61-.6-1.89-1-5.41-.68-4.64.46-3.05,3.41-2.44,3.76s2.11-.67,3.22-.59,1.37,1.68,1.76,1.9.22-.17.74-.42.58.61.44,1.17.59,1.27.59,1.27l.69-.78c.7-.78,1.31-4.06,1-4.75Z" transform="translate(0 0)"/><path class="cls-19" d="M164.78,91.42a20.81,20.81,0,0,1-8,3.61c-.08-1.44-.11-2.77-.08-3.87Z" transform="translate(0 0)"/><path class="cls-18" d="M140.86,87.59c-.06-.06-.76-2.25-2.14-2.38-1.1-.11-3.54.43-2.83.81a6.73,6.73,0,0,1,2.27,2.15,2.31,2.31,0,0,0,1.39.77Z" transform="translate(0 0)"/><path class="cls-6" d="M165.27,85.69a3.2,3.2,0,0,1-.33,5.67l-.15.07c-3.65,1.47-14.24,2.06-17,1.36-1.08-.27-8.4-3.59-8.4-3.59s.5-1.85,1.54-2.14l8,1.08c6.71.86,12.57-4.87,14.55-3.58C164,84.9,164.61,85.29,165.27,85.69Z" transform="translate(0 0)"/><path class="cls-25" d="M54.09,31.35A.45.45,0,0,1,54,32a.44.44,0,0,1-.6-.13.45.45,0,0,1,.13-.61A.44.44,0,0,1,54.09,31.35Z" transform="translate(0 0)"/><path class="cls-25" d="M53.62,53.41a.64.64,0,1,1-.89-.19A.64.64,0,0,1,53.62,53.41Z" transform="translate(0 0)"/><path class="cls-1" d="M37.36,56.08a.9.9,0,0,1-.27,1.23A.88.88,0,0,1,35.86,57a.89.89,0,1,1,1.5-1Z" transform="translate(0 0)"/><path class="cls-25" d="M44.68,41.34a.66.66,0,0,1-.2.91.65.65,0,1,1,.2-.91Z" transform="translate(0 0)"/><path class="cls-25" d="M25,58.46a.3.3,0,1,1-.51.33.3.3,0,0,1,.09-.43A.32.32,0,0,1,25,58.46Z" transform="translate(0 0)"/><path class="cls-25" d="M11,99a.62.62,0,1,1-.36-.79A.61.61,0,0,1,11,99Z" transform="translate(0 0)"/><path class="cls-25" d="M14.12,73.5a.4.4,0,0,1-.54.18.39.39,0,0,1-.18-.53.39.39,0,0,1,.53-.18A.4.4,0,0,1,14.12,73.5Z" transform="translate(0 0)"/><path class="cls-1" d="M19.37,83.79a.59.59,0,1,1-.26-.79A.6.6,0,0,1,19.37,83.79Z" transform="translate(0 0)"/><path class="cls-25" d="M24.79,66.9a.6.6,0,0,1-.8.26.6.6,0,1,1,.8-.26Z" transform="translate(0 0)"/><path class="cls-25" d="M49.58,93.13a.31.31,0,0,1-.39.18.3.3,0,0,1,.2-.57A.31.31,0,0,1,49.58,93.13Z" transform="translate(0 0)"/><path class="cls-26" d="M85.76,152c-26.24,0-46.9-.09-46.94-.19v0a.2.2,0,0,1,0-.05,53.82,53.82,0,0,1-4-9.18,36.79,36.79,0,0,1,22.63,3.24C69.73,152,80.11,142.39,85.76,152Z" transform="translate(0 0)"/><path class="cls-6" d="M43.76,144s3.08-10.52,7.81-11S45.59,140.45,43.76,144Z" transform="translate(0 0)"/><path class="cls-6" d="M45.76,144s4.46-6.65,7.39-5.95S47.74,141.93,45.76,144Z" transform="translate(0 0)"/><path class="cls-6" d="M79.76,150s3.73-5.49,6.42-5S81.46,148.28,79.76,150Z" transform="translate(0 0)"/><path class="cls-6" d="M80.76,150s4-4.1,5.69-2.71S82.37,148.88,80.76,150Z" transform="translate(0 0)"/><path class="cls-6" d="M78.76,150s1.24-5.65,3.43-6S79.55,148.07,78.76,150Z" transform="translate(0 0)"/><path class="cls-1" d="M165.94,28.33a4.66,4.66,0,1,0-5.34,3.85A4.66,4.66,0,0,0,165.94,28.33Z" transform="translate(0 0)"/><path class="cls-6" d="M113.53,152h-4.69c-.25-.21.17-.67.62-.7a2.41,2.41,0,0,1,.71.08c.07-.83.44-4.52,1.82-4.38,1.56.17,0,1.63-.44,2.5-.32.64-.67,1.56-.83,2l.39.08c.21-.61,1-2.66,2-2.54,1.16.14.69,1-.12,1.45-.6.36-1.34.87-1.68,1.12a6.74,6.74,0,0,0,.92.07A2,2,0,0,1,113.53,152Z" transform="translate(0 0)"/><path class="cls-9" d="M219.55,152H32c-.12,0-.23-.18-.23-.41v-.18c0-.22.1-.41.23-.41H219.54c.12,0,.22.18.22.41v.18C219.76,151.82,219.66,152,219.55,152Z" transform="translate(0 0)"/><path class="cls-27" d="M151.12,19.19a12.94,12.94,0,0,0-7.56-.71s4.87-.34,7.76,2.76a9.64,9.64,0,0,1,5.36-3.82A9,9,0,0,0,151.12,19.19Z" transform="translate(0 0)"/><path class="cls-27" d="M141.84,17.69a10,10,0,0,0-5.85-.58s3.77-.24,6,2.17a7.42,7.42,0,0,1,4.17-2.92A6.88,6.88,0,0,0,141.84,17.69Z" transform="translate(0 0)"/><path class="cls-27" d="M133.63,16.56a9.14,9.14,0,0,0-5.34-.31s3.42-.36,5.53,1.75a6.81,6.81,0,0,1,3.68-2.83A6.43,6.43,0,0,0,133.63,16.56Z" transform="translate(0 0)"/><path class="cls-27" d="M129,14.19a6.13,6.13,0,0,0-3.62.13,5.12,5.12,0,0,1,3.84.82,4.59,4.59,0,0,1,2.3-2.13A4.28,4.28,0,0,0,129,14.19Z" transform="translate(0 0)"/><path class="cls-27" d="M145.49,8.35a6.19,6.19,0,0,0-3.62-.06,5.09,5.09,0,0,1,3.79,1,4.59,4.59,0,0,1,2.41-2A4.29,4.29,0,0,0,145.49,8.35Z" transform="translate(0 0)"/><path class="cls-27" d="M153.51,14a8.9,8.9,0,0,0-5.24-.59s3.39-.17,5.35,2a6.69,6.69,0,0,1,3.78-2.59A6.39,6.39,0,0,0,153.51,14Z" transform="translate(0 0)"/><path class="cls-27" d="M150.35,10.41a8.42,8.42,0,0,0-4.87-.37,6.89,6.89,0,0,1,5,1.69,6.13,6.13,0,0,1,3.4-2.52A5.85,5.85,0,0,0,150.35,10.41Z" transform="translate(0 0)"/><path class="cls-6" d="M138.29,55a.39.39,0,0,1-.3-.2,24.87,24.87,0,0,0-12.3-10.88.42.42,0,0,1-.23-.55.43.43,0,0,1,.55-.23,25.64,25.64,0,0,1,12.72,11.24.44.44,0,0,1-.15.58A.6.6,0,0,1,138.29,55Z" transform="translate(0 0)"/><path class="cls-6" d="M139.83,57.73l-.32-5.28-1.3,1.92-2.31-.19Z" transform="translate(0 0)"/><path class="cls-28" d="M80.51,91a.43.43,0,0,1,.3.21A24.77,24.77,0,0,0,93.11,102a.44.44,0,0,1,.23.56.43.43,0,0,1-.55.23A25.64,25.64,0,0,1,80.07,91.58a.42.42,0,0,1,.15-.58A.5.5,0,0,1,80.51,91Z" transform="translate(0 0)"/><path class="cls-28" d="M79,88.23l.32,5.28,1.3-1.92,2.31.18Z" transform="translate(0 0)"/></svg>