<svg xmlns="http://www.w3.org/2000/svg" xmlns:xlink="http://www.w3.org/1999/xlink" viewBox="0 0 384 357.2"><defs><style>.cls-1{fill:url(#New_Gradient_Swatch_1);}.cls-2{fill:url(#New_Gradient_Swatch_1-2);}</style><linearGradient id="New_Gradient_Swatch_1" y1="178.6" x2="270.05" y2="178.6" gradientUnits="userSpaceOnUse"><stop offset="0" stop-color="#ff9472"/><stop offset="1" stop-color="#f2709c"/></linearGradient><linearGradient id="New_Gradient_Swatch_1-2" x1="232.33" y1="170.43" x2="384" y2="170.43" xlink:href="#New_Gradient_Swatch_1"/></defs><g id="Layer_2" data-name="Layer 2"><g id="Layer_1-2" data-name="Layer 1"><path class="cls-1" d="M267.62,18A102.6,102.6,0,0,0,118.13,56c-2.85,5.58-8,4.88-13,4.88a72.21,72.21,0,0,0-68.3,48.79,9.36,9.36,0,0,1-5.93,5.66A46.08,46.08,0,0,0,0,160.77c1,24.95,22.07,44.46,47.15,44.46H64.08v20.33H47.63a17.57,17.57,0,1,0,0,11.25H69.71a5.62,5.62,0,0,0,5.62-5.62v-26h50.85v75.09H92.45a20.14,20.14,0,1,0,0,11.25H131.8a5.63,5.63,0,0,0,5.63-5.62V205.23H188.2V310a23.92,23.92,0,1,0,11.25,0V205.23h12.26a5.63,5.63,0,0,0,0-11.25H47.19C28.1,194,12,178.89,11.28,160.34a34.88,34.88,0,0,1,23.38-34.45A20.49,20.49,0,0,0,47.5,113.27a61,61,0,0,1,57.66-41.2c3.86,0,16.62,1.46,23-11A91.35,91.35,0,0,1,261.24,27.3,5.62,5.62,0,0,0,267.62,18ZM31,237.5a6.32,6.32,0,1,1,6.31-6.31A6.32,6.32,0,0,1,31,237.5Zm42.13,57.33A8.89,8.89,0,1,1,82,286a8.9,8.9,0,0,1-8.88,8.88Zm133.36,38.45a12.67,12.67,0,1,1-12.67-12.67,12.68,12.68,0,0,1,12.67,12.67Z"/><path class="cls-2" d="M309.14,194H238a5.63,5.63,0,1,0,0,11.25h12.26V286a5.62,5.62,0,0,0,5.62,5.62h39.35a20.14,20.14,0,1,0,0-11.25H261.47V205.23h47.67q1.77,0,3.54-.09v26.05a5.63,5.63,0,0,0,5.63,5.62h22.07a17.57,17.57,0,1,0,0-11.25H323.93V203.73c34.23-7,60.75-37,60.06-73.45a73.47,73.47,0,0,0-76.08-72,9.18,9.18,0,0,1-8.29-4.76A104,104,0,0,0,288.25,36.8,5.63,5.63,0,0,0,279.62,44a92.35,92.35,0,0,1,10.13,14.86A20.52,20.52,0,0,0,307.61,69.5l.71,0a62.24,62.24,0,0,1,64.42,61c.67,35.14-28.91,63.49-63.6,63.49Zm5.38,83.08a8.89,8.89,0,1,1-8.89,8.89,8.89,8.89,0,0,1,8.89-8.89ZM357,224.87a6.32,6.32,0,1,1-6.32,6.31,6.32,6.32,0,0,1,6.32-6.31Z"/></g></g></svg>