<svg xmlns="http://www.w3.org/2000/svg" xmlns:xlink="http://www.w3.org/1999/xlink" viewBox="0 0 372 372"><defs><style>.cls-1{fill:url(#New_Gradient_Swatch_1);}.cls-2{fill:url(#New_Gradient_Swatch_1-2);}.cls-3{fill:url(#New_Gradient_Swatch_1-3);}.cls-4{fill:url(#New_Gradient_Swatch_1-4);}.cls-5{fill:url(#New_Gradient_Swatch_1-5);}.cls-6{fill:url(#New_Gradient_Swatch_1-6);}.cls-7{fill:url(#New_Gradient_Swatch_1-7);}.cls-8{fill:url(#New_Gradient_Swatch_1-8);}</style><linearGradient id="New_Gradient_Swatch_1" x1="103.76" y1="212.52" x2="196.61" y2="212.52" gradientUnits="userSpaceOnUse"><stop offset="0" stop-color="#ff9472"/><stop offset="1" stop-color="#f2709c"/></linearGradient><linearGradient id="New_Gradient_Swatch_1-2" x1="24" y1="42" x2="60" y2="42" xlink:href="#New_Gradient_Swatch_1"/><linearGradient id="New_Gradient_Swatch_1-3" x1="72" y1="42" x2="108" y2="42" xlink:href="#New_Gradient_Swatch_1"/><linearGradient id="New_Gradient_Swatch_1-4" x1="120" y1="42" x2="156" y2="42" xlink:href="#New_Gradient_Swatch_1"/><linearGradient id="New_Gradient_Swatch_1-5" x1="0" y1="186" x2="372" y2="186" xlink:href="#New_Gradient_Swatch_1"/><linearGradient id="New_Gradient_Swatch_1-6" x1="288" y1="150" x2="300" y2="150" xlink:href="#New_Gradient_Swatch_1"/><linearGradient id="New_Gradient_Swatch_1-7" x1="312" y1="150" x2="324" y2="150" xlink:href="#New_Gradient_Swatch_1"/><linearGradient id="New_Gradient_Swatch_1-8" x1="264" y1="150" x2="276" y2="150" xlink:href="#New_Gradient_Swatch_1"/></defs><g id="Layer_2" data-name="Layer 2"><g id="Layer_1-2" data-name="Layer 1"><path class="cls-1" d="M112.24,217.76l-8.48,8.48,28.64,28.65,64.21-77-9.22-7.68-55.79,67Z"/><path class="cls-2" d="M42,60A18,18,0,1,0,24,42,18,18,0,0,0,42,60Zm0-24a6,6,0,1,1-6,6,6,6,0,0,1,6-6Z"/><path class="cls-3" d="M90,60A18,18,0,1,0,72,42,18,18,0,0,0,90,60Zm0-24a6,6,0,1,1-6,6,6,6,0,0,1,6-6Z"/><path class="cls-4" d="M138,60a18,18,0,1,0-18-18,18,18,0,0,0,18,18Zm0-24a6,6,0,1,1-6,6,6,6,0,0,1,6-6Z"/><path class="cls-5" d="M372,150a78.05,78.05,0,0,0-72-77.7V18A18,18,0,0,0,282,0H18A18,18,0,0,0,0,18V354a18,18,0,0,0,18,18H294a30,30,0,0,0,30-30V252a12,12,0,0,0-12-12V225.82A78.09,78.09,0,0,0,372,150Zm-12,0a66,66,0,1,1-66-66,66.08,66.08,0,0,1,66,66Zm-143.31,9.85A77.42,77.42,0,0,0,228,191.38v16c0,48.5-32,91.21-78,104.41-46-13.2-78-55.9-78-104.41v-46c29-3.27,55.15-10.88,78-22.64C169.85,149,192.27,156,216.69,159.85Zm-.57-12.24c-23.31-3.88-44.59-10.87-63.28-20.9L150,125.19l-2.84,1.52c-23.5,12.6-51,20.45-81.72,23.31l-5.44.51v56.83c0,54.46,36.37,102.34,88.43,116.43l1.57.42,1.57-.42c52.06-14.09,88.43-62,88.43-116.43v-1.21a77.89,77.89,0,0,0,11.66,9.26A131.84,131.84,0,0,1,150,335.84,131.12,131.12,0,0,1,48,207.35V138A203.05,203.05,0,0,0,150,109a201.84,201.84,0,0,0,67.55,25.5,78.39,78.39,0,0,0-1.43,13.08ZM18,12H282a6,6,0,0,1,6,6V72H12V18a6,6,0,0,1,6-6ZM12,354V84H252.62a78.35,78.35,0,0,0-31.69,39,190,190,0,0,1-67.75-26l-3.19-2-3.18,2A191.17,191.17,0,0,1,45.39,126H36v81.37A143.06,143.06,0,0,0,148.7,347.86l1.3.28,1.3-.28A143.85,143.85,0,0,0,263.2,221.63a77.29,77.29,0,0,0,12.8,4.19V240a12,12,0,0,0-12,12v90a29.7,29.7,0,0,0,6.16,18H18a6,6,0,0,1-6-6ZM312,252v12H276V252ZM294,360a18,18,0,0,1-18-18V276h36v66a18,18,0,0,1-18,18Zm6-120H288V227.7c2,.14,4,.3,6,.3s4-.15,6-.3Z"/><rect class="cls-6" x="288" y="144" width="12" height="12"/><rect class="cls-7" x="312" y="144" width="12" height="12"/><rect class="cls-8" x="264" y="144" width="12" height="12"/></g></g></svg>