<svg xmlns="http://www.w3.org/2000/svg" xmlns:xlink="http://www.w3.org/1999/xlink" viewBox="0 0 384 383.81"><defs><style>.cls-1{fill:url(#New_Gradient_Swatch_1);}.cls-2{fill:url(#New_Gradient_Swatch_1-2);}.cls-3{fill:url(#New_Gradient_Swatch_1-3);}.cls-4{fill:url(#New_Gradient_Swatch_1-4);}.cls-5{fill:url(#New_Gradient_Swatch_1-5);}</style><linearGradient id="New_Gradient_Swatch_1" y1="191.9" x2="346.28" y2="191.9" gradientUnits="userSpaceOnUse"><stop offset="0" stop-color="#ff9472"/><stop offset="1" stop-color="#f2709c"/></linearGradient><linearGradient id="New_Gradient_Swatch_1-2" x1="331.23" y1="68.92" x2="371.56" y2="68.92" xlink:href="#New_Gradient_Swatch_1"/><linearGradient id="New_Gradient_Swatch_1-3" x1="294.55" y1="28.24" x2="317.31" y2="28.24" xlink:href="#New_Gradient_Swatch_1"/><linearGradient id="New_Gradient_Swatch_1-4" x1="341.36" y1="128.54" x2="384" y2="128.54" xlink:href="#New_Gradient_Swatch_1"/><linearGradient id="New_Gradient_Swatch_1-5" x1="117.38" y1="107.64" x2="132.38" y2="107.64" xlink:href="#New_Gradient_Swatch_1"/></defs><g id="Layer_2" data-name="Layer 2"><g id="Layer_1-2" data-name="Layer 1"><path class="cls-1" d="M310.61,137.6A40,40,0,0,0,271.3,69.5L239.48,14.39a28.76,28.76,0,0,0-51.65,25l-43.24,39.9a7.5,7.5,0,1,0,10.18,11l40.51-37.38L287,211.74,114.91,265.35l-52.1-90.24L105.16,136A7.5,7.5,0,1,0,95,125L52.76,164a26.51,26.51,0,0,0-7.07-3A26.42,26.42,0,0,0,16,199.65l3.44,6a47.71,47.71,0,0,0,28.34,86.1,47.12,47.12,0,0,0,19-4l3.44,6a26.22,26.22,0,0,0,16,12.31,26.43,26.43,0,0,0,28.63-10.59l46.8,81.05a14.81,14.81,0,0,0,20.22,5.42l34.53-19.94a14.8,14.8,0,0,0,2.18-24.11l-25.1-21.27L164.21,265.7,295,225a28.75,28.75,0,0,0,47.42-32.25Zm-271.4,138A32.68,32.68,0,0,1,27,218.71l32.25,55.87a32.37,32.37,0,0,1-20,1Zm64.93,7.82a11.41,11.41,0,0,1-20.91,2.75L29,192.15A11.42,11.42,0,0,1,38.83,175a11.59,11.59,0,0,1,3,.39,11.32,11.32,0,0,1,6.93,5.32l54.27,94a11.3,11.3,0,0,1,1.14,8.66Zm77.06,41.75a7.43,7.43,0,0,0,1.65,2L208.72,349l-34.12,19.7-52-90.08,26.93-8.39ZM306.14,94.78a25.09,25.09,0,0,1-3.24,29.45L279,82.87a25.07,25.07,0,0,1,27.12,11.91Zm24.68,115.87A13.76,13.76,0,0,1,305.61,214l-103-178.31a13.76,13.76,0,1,1,23.83-13.76l103,178.32a13.66,13.66,0,0,1,1.38,10.44Z"/><path class="cls-2" d="M338.74,83.73a7.47,7.47,0,0,0,3.74-1l25.33-14.62a7.5,7.5,0,0,0-7.5-13L335,69.74a7.5,7.5,0,0,0,3.76,14Z"/><path class="cls-3" d="M300.11,50a7.26,7.26,0,0,0,1.95.26,7.51,7.51,0,0,0,7.24-5.56l7.75-28.95a7.5,7.5,0,1,0-14.48-3.88l-7.76,29a7.49,7.49,0,0,0,5.3,9.18Z"/><path class="cls-4" d="M378.44,125l-27.64-7.41a7.5,7.5,0,1,0-3.88,14.49l27.63,7.41a7.81,7.81,0,0,0,1.95.26A7.5,7.5,0,0,0,378.44,125Z"/><path class="cls-5" d="M124.88,115.14a7.49,7.49,0,1,0-5.31-2.2,7.59,7.59,0,0,0,5.31,2.2Z"/></g></g></svg>