<svg xmlns="http://www.w3.org/2000/svg" xmlns:xlink="http://www.w3.org/1999/xlink" viewBox="0 0 44.66 100.23"><defs><style>.cls-1{fill-rule:evenodd;fill:url(#New_Gradient_Swatch_1);}</style><linearGradient id="New_Gradient_Swatch_1" y1="50.11" x2="44.66" y2="50.11" gradientUnits="userSpaceOnUse"><stop offset="0" stop-color="#ff9472"/><stop offset="0.55" stop-color="#f88287"/><stop offset="1" stop-color="#f2709c"/></linearGradient></defs><g id="Layer_2" data-name="Layer 2"><g id="Layer_1-2" data-name="Layer 1"><path class="cls-1" d="M38.58,88.55c-4,3-6.24,5.58-6.94,5.1-.24-.17-.33-.76.3-2.54a24.7,24.7,0,0,0,1.4-5.28c.18-1,.4-2.1.63-3.68.51-3.43.73-6.19.88-8.17.11-1.45.18-2.68.23-3.58a13.26,13.26,0,0,0,5.25-3.52C50.65,55.19,39,20.91,16,6.48A50.82,50.82,0,0,0,0,0,54.11,54.11,0,0,1,18.81,9.27C38.92,24.79,48.44,56,38.75,66.21a11.2,11.2,0,0,1-3.7,2.55c-.45-8.82-4.9-16.57-12.54-19.94a15.71,15.71,0,0,0-14.45.88C4,52.32,1.73,57,4.14,62.79c3.86,9.45,14,12.29,24.14,10a32.83,32.83,0,0,0,4.8-1.5c0,.6-.11,1.5-.19,2.58-.28,3.9-.27,4.12-.39,5.69-.2,2.5-.37,4.52-.83,7.18a28,28,0,0,1-.86,4c-.1.34-.2.65-.31.94-.41.53-.76.66-1,.66-1.15,0-1.45-2.61-3.93-4.41a7.51,7.51,0,0,0-2.06-1A15.93,15.93,0,0,1,27.09,92a16.12,16.12,0,0,1,1.2,8.19C29.7,98.6,31.22,97,32.84,95.3A115.06,115.06,0,0,1,44.66,84.76,46.69,46.69,0,0,0,38.58,88.55ZM28,71.28c-9.3,2.1-18.68-.47-22.15-9.18C4,57.31,5.8,53.51,9.18,51.39a13.56,13.56,0,0,1,12.39-.75c7.24,3.16,11.28,10.61,11.51,19A31.09,31.09,0,0,1,28,71.28Z"/></g></g></svg>