<svg xmlns="http://www.w3.org/2000/svg" width="29" height="28" viewBox="0 0 29 28" fill="none">
    <path d="M12.7258 7.32886C12.0422 6.33136 10.9105 5.83203 9.33201 5.83203C6.96367 5.83203 2.91534 8.73411 2.91534 11.3515L2.91534 18.0482C2.91534 20.609 5.16117 22.1654 6.96367 22.1654L14.5762 22.1654C15.0403 22.1654 15.4854 21.981 15.8136 21.6528C16.1418 21.3246 16.3262 20.8795 16.3262 20.4154L16.3262 20.4095C16.3262 19.9469 16.1424 19.5033 15.8153 19.1762C15.4882 18.8491 15.0446 18.6654 14.582 18.6654" stroke="black" stroke-opacity="0.6" stroke-width="2" stroke-linecap="round"/>
    <path d="M11.4065 8.15234L23.3299 8.15234C23.5599 8.15242 23.7876 8.19787 24 8.28608C24.2124 8.37429 24.4054 8.50354 24.5678 8.66642C24.7301 8.8293 24.8588 9.02262 24.9464 9.2353C25.034 9.44797 25.0787 9.67584 25.0781 9.90584C25.0769 10.3714 24.891 10.8175 24.5613 11.1462C24.2316 11.475 23.785 11.6595 23.3194 11.6593L14.2375 11.6593" stroke="black" stroke-opacity="0.6" stroke-width="2" stroke-linecap="round"/>
    <path d="M14.2324 11.6641L16.9071 11.6641C17.3657 11.6759 17.8015 11.8664 18.1217 12.1949C18.4419 12.5234 18.6211 12.9641 18.6211 13.4228C18.6211 13.8816 18.4419 14.3222 18.1217 14.6507C17.8015 14.9793 17.3657 15.1698 16.9071 15.1816L14.5784 15.1816" stroke="black" stroke-opacity="0.6" stroke-width="2" stroke-linecap="round" stroke-linejoin="round"/>
    <path d="M14.582 15.1641L16.332 15.1641C16.7962 15.1641 17.2413 15.3484 17.5695 15.6766C17.8977 16.0048 18.082 16.4499 18.082 16.9141C18.082 17.3782 17.8977 17.8233 17.5695 18.1515C17.2413 18.4797 16.7962 18.6641 16.332 18.6641L14.582 18.6641" stroke="black" stroke-opacity="0.6" stroke-width="2" stroke-linecap="round" stroke-linejoin="round"/>
</svg>