<?xml version="1.0" encoding="utf-8"?>
<!-- Generator: Adobe Illustrator 25.2.0, SVG Export Plug-In . SVG Version: 6.00 Build 0)  -->
<svg version="1.1" id="Layer_1" xmlns="http://www.w3.org/2000/svg" xmlns:xlink="http://www.w3.org/1999/xlink" x="0px" y="0px"
	 viewBox="0 0 1691 1146" style="enable-background:new 0 0 791.2 500;" xml:space="preserve">
<style type="text/css">
	.st0{fill:#A3B1C6;}
	.st1{fill:#7A8494;}
	.st2{fill:#181819;}
	.st3{fill:#1C191F;}
	.st4{filter:url(#Adobe_OpacityMaskFilter);}
	.st5{filter:url(#Adobe_OpacityMaskFilter_1_);}
	.st6{mask:url(#SVGID_1_);fill:url(#SVGID_2_);}
	.st7{opacity:0.5;fill:url(#SVGID_3_);}
	.st8{fill:#F8F1DF;}
	.st9{fill:#602F0F;}
	.st10{fill:#1A1A1A;}
	.st11{opacity:0.6;}
	.st12{fill:#4D4D4D;}
	.st13{fill:#451414;}
	.st14{fill:#005548;}
	.st15{fill:#FFB400;}
	.st16{fill:#DBA01B;}
	.st17{fill:#FD6429;}
	.st18{fill:#E25429;}
	.st19{fill:#603813;}
	.st20{fill:#F2709C;}
	.st21{fill:#E6E6E6;}
	.st22{fill:none;stroke:#FFFFFF;stroke-width:4;stroke-miterlimit:10;}
	.st23{fill:#525460;}
	.st24{fill:none;stroke:#545E6B;stroke-width:2;stroke-miterlimit:10;}
	.st25{fill:#EAAE78;}
	.st26{fill:#F4B382;}
	.st27{fill:#E2A379;}
	.st28{fill:url(#SVGID_4_);stroke:#B3B3B3;stroke-width:0.4578;}
	.st29{fill:#FFFFFF;}
	.st30{fill:url(#SVGID_5_);}
	.st31{fill:#828282;}
	.st32{fill:#696969;}
	.st33{fill:url(#SVGID_6_);}
	.st34{fill:url(#SVGID_7_);}
	.st35{fill:url(#SVGID_8_);}
	.st36{fill:url(#SVGID_9_);}
	.st37{fill:url(#SVGID_10_);}
	.st38{fill:url(#SVGID_11_);stroke:#B3B3B3;stroke-width:0.5973;}
	.st39{fill:none;stroke:#353C44;stroke-miterlimit:10;}
	.st40{fill:#7046AA;}
	.st41{fill:none;stroke:#353C44;stroke-width:3;stroke-miterlimit:10;}
	.st42{clip-path:url(#SVGID_13_);}
	.st43{fill:#6B6E7C;}
	.st44{fill:#9C998A;}
	.st45{fill:#009245;}
	.st46{fill:#66B06C;}
	.st47{fill:#FFFEFA;}
	.st48{fill-rule:evenodd;clip-rule:evenodd;fill:#8CC63F;}
	.st49{fill-rule:evenodd;clip-rule:evenodd;fill:#382F61;}
	.st50{fill-rule:evenodd;clip-rule:evenodd;fill:#D9E021;}
	.st51{fill:#ED1C24;}
	.st52{fill:#C1272D;}
	.st53{fill:#F7931E;}
	.st54{fill:#F15A24;}
	.st55{fill:#B3693A;}
	.st56{fill:#E88D30;}
	.st57{fill:#76BA06;}
	.st58{fill:#EEE9E6;}
	.st59{fill:#F2F1EF;}
	.st60{fill:none;stroke:#4F2F3A;stroke-miterlimit:10;}
	.st61{fill:#F2F2F2;}
	.st62{fill:url(#SVGID_14_);stroke:#999999;stroke-width:0.5547;stroke-linecap:round;stroke-linejoin:round;}
	.st63{fill:url(#SVGID_15_);stroke:#999999;stroke-width:0.5547;stroke-linecap:round;stroke-linejoin:round;}
	.st64{fill:url(#SVGID_16_);stroke:#999999;stroke-width:0.5547;stroke-linecap:round;stroke-linejoin:round;}
	.st65{fill:url(#SVGID_17_);stroke:#999999;stroke-width:0.5547;stroke-linecap:round;stroke-linejoin:round;}
	.st66{fill:url(#SVGID_18_);stroke:#999999;stroke-width:0.5547;stroke-linecap:round;stroke-linejoin:round;}
	.st67{fill:url(#SVGID_19_);stroke:#999999;stroke-width:0.5547;stroke-linecap:round;stroke-linejoin:round;}
	.st68{fill:url(#SVGID_20_);stroke:#B3B3B3;stroke-width:0.5547;}
	.st69{opacity:0.6;fill:#FAFAFA;}
	.st70{fill:none;stroke:#B3B3B3;stroke-width:0.5547;}
	.st71{fill:url(#SVGID_21_);stroke:#B3B3B3;stroke-width:0.5547;}
	.st72{fill:#FEB342;}
	.st73{fill:#FFF596;}
	.st74{fill:#FFFDE5;}
	.st75{opacity:0.36;fill:#F2F2F2;}
</style>
<g>
	<g>
		<polygon class="st0" points="185.2,863.2 1522.9,863.2 1677,1120.4 20,1120.4 		"/>
		<rect x="25.3" y="1120.4" class="st1" width="1651.7" height="13.7"/>
	</g>
	<g>
		<polygon class="st2" points="324.8,1128.8 433,1008.1 927,1008.1 1018,1128.8 		"/>
		<polygon class="st3" points="324.8,1114.2 433,993.5 927,993.5 1018,1114.2 		"/>
		<defs>
			<filter id="Adobe_OpacityMaskFilter" filterUnits="userSpaceOnUse" x="324.8" y="993.5" width="523.4" height="120.7">
				<feFlood  style="flood-color:white;flood-opacity:1" result="back"/>
				<feBlend  in="SourceGraphic" in2="back" mode="normal"/>
			</filter>
		</defs>
		<mask maskUnits="userSpaceOnUse" x="324.8" y="993.5" width="523.4" height="120.7" id="SVGID_1_">
			<g class="st4">
				<defs>
					<filter id="Adobe_OpacityMaskFilter_1_" filterUnits="userSpaceOnUse" x="324.8" y="993.5" width="523.4" height="120.7">
						<feFlood  style="flood-color:white;flood-opacity:1" result="back"/>
						<feBlend  in="SourceGraphic" in2="back" mode="normal"/>
					</filter>
				</defs>
				<mask maskUnits="userSpaceOnUse" x="324.8" y="993.5" width="523.4" height="120.7" id="SVGID_1_">
					<g class="st5">
					</g>
				</mask>
				<linearGradient id="SVGID_2_" gradientUnits="userSpaceOnUse" x1="324.8149" y1="1053.827" x2="848.2464" y2="1053.827">
					<stop  offset="1.400000e-07" style="stop-color:#333333"/>
					<stop  offset="0.4827" style="stop-color:#1A1A1A"/>
					<stop  offset="1" style="stop-color:#000000"/>
				</linearGradient>
				<path class="st6" d="M433,993.5c0,0,156,81.2,415.3,120.7H324.8L433,993.5z"/>
			</g>
		</mask>
		<linearGradient id="SVGID_3_" gradientUnits="userSpaceOnUse" x1="324.8149" y1="1053.827" x2="848.2464" y2="1053.827">
			<stop  offset="1.400000e-07" style="stop-color:#FFFFFF"/>
			<stop  offset="0.4827" style="stop-color:#FFFFFF"/>
			<stop  offset="1" style="stop-color:#FFFFFF"/>
		</linearGradient>
		<path class="st7" d="M433,993.5c0,0,156,81.2,415.3,120.7H324.8L433,993.5z"/>
		<path class="st8" d="M426.4,1093.7c0,3.5-6.3,6.3-14.1,6.3c-7.8,0-14.1-2.8-14.1-6.3c0-3.5,6.3-6.3,14.1-6.3
			C420.1,1087.4,426.4,1090.3,426.4,1093.7z"/>
		<path class="st8" d="M484.7,1093.7c0,3.5-6.3,6.3-14.1,6.3c-7.8,0-14.1-2.8-14.1-6.3c0-3.5,6.3-6.3,14.1-6.3
			C478.3,1087.4,484.7,1090.3,484.7,1093.7z"/>
		<path class="st8" d="M906.9,1093.7c0,3.5-6.3,6.3-14.1,6.3c-7.8,0-14.1-2.8-14.1-6.3c0-3.5,6.3-6.3,14.1-6.3
			C900.5,1087.4,906.9,1090.3,906.9,1093.7z"/>
		<path class="st8" d="M965.1,1093.7c0,3.5-6.3,6.3-14.1,6.3c-7.8,0-14.1-2.8-14.1-6.3c0-3.5,6.3-6.3,14.1-6.3
			C958.8,1087.4,965.1,1090.3,965.1,1093.7z"/>
		<rect x="324.8" y="1114.2" class="st2" width="693.2" height="14.6"/>
		<path class="st8" d="M777.4,1098.5c1,3.3-2.7,6-6,6H603.9c-3.3,0-7.1-2.8-6-6l4-9.9c1.1-3.5,2.7-6,6-6h159.5c3.3,0,4.4,2.2,6,6
			L777.4,1098.5z"/>
	</g>
	<g>
		<g>
			<g>
				<rect x="243" y="965.4" class="st3" width="110.6" height="46.8"/>
			</g>
			<g>
				<path class="st9" d="M298.2,993.1c67.5,0,123.8-47.6,137.2-111.1H161C174.5,945.5,230.8,993.1,298.2,993.1z"/>
			</g>
			<g>
				<g>
					<path class="st10" d="M185.3,894.1c7.6,36,35.6,64.3,71.4,72.5c-30-12.7-51.5-40.2-56.5-72.5H185.3z"/>
				</g>
			</g>
			<g class="st11">
				<path class="st12" d="M289.3,980.5c7.3,1.8,14.8,2.8,22.6,2.8c52,0,95.4-43.4,105.7-101.3h-45.1
					C363.6,931.3,330.9,970.1,289.3,980.5z"/>
			</g>
		</g>
		<path class="st13" d="M433.7,882.9c0,12.9-61,23.4-136.3,23.4c-75.3,0-136.3-10.5-136.3-23.4c0-12.9,61-23.4,136.3-23.4
			C372.6,859.5,433.7,870,433.7,882.9z"/>
	</g>
	<g>
		<g>
			<path class="st14" d="M1140.6,979c0,0-39.6-48.4-39.5-55.2c0-6.9,22.6,15.2,22.6,15.2s-20-40.4-14.9-38
				c5.1,2.4,16.3,16.5,17.1,16.4c0.8-0.1-10.6-30.8-4.1-28.2c6.5,2.7,12.5,21.4,12.5,21.4s-2.3-20.3,4.1-17
				c6.4,3.4,24.2,67.4,24.2,67.4l-11.3,18L1140.6,979z"/>
			<path class="st15" d="M1339.6,1087.1c0,0-59.6-25.8-77.1-47.5c-17.4-21.7-58.3-82.5-87.7-88.8c-29.4-6.3-52.9,29.3-24.5,66.4
				C1178.7,1054.4,1292.4,1098.8,1339.6,1087.1z"/>
			<path class="st16" d="M1264.3,1041.7c-49.5-12.6-105.5-40.3-124.3-64.8c-0.5-0.7-1-1.4-1.5-2c-2.8,12,0,27.1,11.8,42.5
				c28.4,37.2,142.1,81.5,189.3,69.9C1339.6,1087.1,1283.6,1062.9,1264.3,1041.7z"/>
			<g>
				<path d="M1179.1,963.8c-15.3-0.6-28.9,13.1-36.6,24.6c-0.4,0.6,0.5,1.1,0.9,0.5c7.5-11.2,20.8-24.7,35.7-24.1
					C1179.8,964.9,1179.8,963.8,1179.1,963.8L1179.1,963.8z"/>
			</g>
			<g>
				<path d="M1181.5,973c-14.7,1.6-26.7,13.9-33.2,26.3c-0.3,0.6,0.6,1.2,0.9,0.5c6.2-12,18-24.2,32.2-25.8
					C1182.2,974,1182.2,972.9,1181.5,973L1181.5,973z"/>
			</g>
			<g>
				<path d="M1219,1005.3c-10.3,0.6-19.6,7.7-24.7,16.3c-0.4,0.6,0.6,1.1,0.9,0.5c4.9-8.3,13.8-15.2,23.8-15.8
					C1219.7,1006.4,1219.7,1005.3,1219,1005.3L1219,1005.3z"/>
			</g>
			<g>
				<path d="M1295,1068.2c-7.1-0.8-9.9,9-10.6,14.1c-0.1,0.7,0.9,1,1,0.3c0.7-4.6,3.1-14,9.6-13.3
					C1295.6,1069.3,1295.6,1068.3,1295,1068.2L1295,1068.2z"/>
			</g>
			<g>
				<path d="M1281.5,1061c-6.8-1.1-10.6,8.5-12.1,13.4c-0.2,0.7,0.8,0.9,1,0.3c1.3-4.2,4.9-13.5,10.8-12.6
					C1281.9,1062.2,1282.2,1061.1,1281.5,1061L1281.5,1061z"/>
			</g>
		</g>
		<g>
			<path class="st14" d="M1220.6,1002.7c0,0-49-33.7-50.7-40c-1.8-6.3,24.7,7.9,24.7,7.9s-29-31.6-23.7-30.7
				c5.3,0.9,19.3,10.7,20,10.5s-17.8-25.3-11.2-24.6c6.6,0.7,17.1,16.2,17.1,16.2s-7.5-18-0.8-16.6c6.7,1.4,40,55.1,40,55.1
				l-5.5,19.5L1220.6,1002.7z"/>
			<path class="st17" d="M1431,1048.7c0,0-61.3-7.7-82.9-22.9c-21.6-15.2-75.1-59.9-103.6-57.8c-28.5,2-40.6,40.8-4.8,67.1
				C1275.4,1061.5,1390.9,1071.8,1431,1048.7z"/>
			<path class="st18" d="M1378.9,1038.4c-51.1,5.8-123.2-5-150.1-24.9c-4.2-3.1-7.8-6.4-10.7-9.8c1.9,10.5,8.5,21.7,21.5,31.3
				c35.8,26.4,151.3,36.7,191.3,13.6C1431,1048.7,1403.6,1045.2,1378.9,1038.4z"/>
			<g>
				<path d="M1251.7,978.6c-14.1,3.5-22.9,19.6-26.9,32.2c-0.2,0.7,0.8,0.9,1,0.3c3.9-12.2,12.4-28,26.2-31.4
					C1252.7,979.5,1252.4,978.4,1251.7,978.6L1251.7,978.6z"/>
			</g>
			<g>
				<path d="M1256.4,986.3c-13,5.4-20.7,19.8-23.3,32.8c-0.1,0.7,0.9,1,1,0.3c2.5-12.7,10.2-26.9,22.6-32.1
					C1257.3,987.1,1257,986.1,1256.4,986.3L1256.4,986.3z"/>
			</g>
			<g>
				<path d="M1299.2,1006c-9.3,3.3-15.8,12.2-18.2,21.5c-0.2,0.7,0.9,1,1,0.3c2.3-8.9,8.6-17.5,17.5-20.7
					C1300.1,1006.8,1299.8,1005.7,1299.2,1006L1299.2,1006z"/>
			</g>
			<g>
				<path d="M1385.2,1043.2c-6.7,1.2-6.7,10.9-6,15.8c0.1,0.7,1.1,0.4,1-0.3c-0.6-4.4-0.9-13.4,5.2-14.5
					C1386.1,1044.1,1385.8,1043.1,1385.2,1043.2L1385.2,1043.2z"/>
			</g>
			<g>
				<path d="M1371,1040.3c-6.5,0.8-7.5,10.6-7.5,15.4c0,0.7,1.1,0.7,1.1,0c0-4.2,1-13.6,6.5-14.4
					C1371.7,1041.2,1371.7,1040.2,1371,1040.3L1371,1040.3z"/>
			</g>
		</g>
		<g>
			<path class="st14" d="M1071.8,1041.8c0,0-57.6-24.4-60.7-30.5c-3.2-6.1,27.1,2.9,27.1,2.9s-36.6-26.4-30.9-26.6
				c5.6-0.2,22.1,7,22.8,6.5c0.7-0.5-23.7-22.4-16.7-23c7-0.7,21,13.1,21,13.1s-11.5-16.9-4.3-16.9c7.2,0,52.8,48.3,52.8,48.3
				l-1.6,21.2L1071.8,1041.8z"/>
			<path class="st17" d="M1298.3,1044.7c0,0-64.8,5-90.3-6.1c-25.5-11.1-90.1-45.8-119-37.7c-28.9,8.1-33.2,50.6,9.3,70.2
				C1140.7,1090.8,1262,1077,1298.3,1044.7z"/>
			<path class="st18" d="M1229.1,1043.8c-51.2,15-122.8,18.3-153.5,4.1c-1.9-0.9-3.7-1.8-5.4-2.8c4.4,9.8,13.5,19.3,28.1,26.1
				c42.4,19.6,163.7,5.9,200-26.4C1298.3,1044.7,1258.6,1047.8,1229.1,1043.8z"/>
			<g>
				<path d="M1098.8,1010.4c-13.8,6.6-19.5,25.1-20.9,38.8c-0.1,0.7,1,0.7,1.1,0c1.4-13.4,6.9-31.5,20.4-37.9
					C1099.9,1011,1099.4,1010.1,1098.8,1010.4L1098.8,1010.4z"/>
			</g>
			<g>
				<path d="M1105.2,1017.4c-12.2,8.3-17.2,24.8-17,38.8c0,0.7,1.1,0.7,1.1,0c-0.1-13.5,4.6-29.8,16.5-37.8
					C1106.4,1017.9,1105.8,1017,1105.2,1017.4L1105.2,1017.4z"/>
			</g>
			<g>
				<path d="M1153.5,1028.6c-8.9,5.4-13.7,15.9-14.2,26c0,0.7,1,0.7,1.1,0c0.5-9.6,5.2-19.9,13.7-25
					C1154.6,1029.1,1154,1028.2,1153.5,1028.6L1153.5,1028.6z"/>
			</g>
			<g>
				<path d="M1250.1,1048.7c-6.7,2.7-4.7,12.5-2.9,17.5c0.2,0.6,1.3,0.4,1-0.3c-1.6-4.5-3.7-13.8,2.2-16.2
					C1251,1049.5,1250.7,1048.5,1250.1,1048.7L1250.1,1048.7z"/>
			</g>
			<g>
				<path d="M1234.7,1048.7c-6.5,2.2-5.4,12.5-4.4,17.5c0.1,0.7,1.2,0.4,1-0.3c-0.8-4.3-2.1-14.2,3.7-16.2
					C1235.6,1049.5,1235.4,1048.5,1234.7,1048.7L1234.7,1048.7z"/>
			</g>
		</g>
		<g>
			<path class="st19" d="M1064.5,1051.9c17.5,45.1,61.3,77.1,112.5,77.1h148.7c51.3,0,95-32,112.5-77.1H1064.5z"/>
			<g>
				<path class="st17" d="M1090.9,1060.3c0,1.9-1.5,3.4-3.4,3.4c-1.9,0-3.4-1.5-3.4-3.4s1.5-3.4,3.4-3.4
					C1089.4,1056.9,1090.9,1058.5,1090.9,1060.3z"/>
				<path class="st17" d="M1120.7,1060.3c0,1.9-1.5,3.4-3.4,3.4c-1.9,0-3.4-1.5-3.4-3.4s1.5-3.4,3.4-3.4
					C1119.2,1056.9,1120.7,1058.5,1120.7,1060.3z"/>
				<path class="st17" d="M1150.5,1060.3c0,1.9-1.5,3.4-3.4,3.4c-1.9,0-3.4-1.5-3.4-3.4s1.5-3.4,3.4-3.4
					C1149,1056.9,1150.5,1058.5,1150.5,1060.3z"/>
				<path class="st17" d="M1180.3,1060.3c0,1.9-1.5,3.4-3.4,3.4s-3.4-1.5-3.4-3.4s1.5-3.4,3.4-3.4S1180.3,1058.5,1180.3,1060.3z"/>
				<path class="st17" d="M1210.1,1060.3c0,1.9-1.5,3.4-3.4,3.4s-3.4-1.5-3.4-3.4s1.5-3.4,3.4-3.4S1210.1,1058.5,1210.1,1060.3z"/>
				<path class="st17" d="M1239.9,1060.3c0,1.9-1.5,3.4-3.4,3.4c-1.9,0-3.4-1.5-3.4-3.4s1.5-3.4,3.4-3.4
					C1238.4,1056.9,1239.9,1058.5,1239.9,1060.3z"/>
				<path class="st17" d="M1269.7,1060.3c0,1.9-1.5,3.4-3.4,3.4c-1.9,0-3.4-1.5-3.4-3.4s1.5-3.4,3.4-3.4
					C1268.2,1056.9,1269.7,1058.5,1269.7,1060.3z"/>
				<path class="st17" d="M1299.5,1060.3c0,1.9-1.5,3.4-3.4,3.4c-1.9,0-3.4-1.5-3.4-3.4s1.5-3.4,3.4-3.4
					C1298,1056.9,1299.5,1058.5,1299.5,1060.3z"/>
				<path class="st17" d="M1329.3,1060.3c0,1.9-1.5,3.4-3.4,3.4c-1.9,0-3.4-1.5-3.4-3.4s1.5-3.4,3.4-3.4
					C1327.8,1056.9,1329.3,1058.5,1329.3,1060.3z"/>
				<path class="st17" d="M1359.1,1060.3c0,1.9-1.5,3.4-3.4,3.4s-3.4-1.5-3.4-3.4s1.5-3.4,3.4-3.4S1359.1,1058.5,1359.1,1060.3z"/>
				<path class="st17" d="M1388.9,1060.3c0,1.9-1.5,3.4-3.4,3.4c-1.9,0-3.4-1.5-3.4-3.4s1.5-3.4,3.4-3.4
					C1387.4,1056.9,1388.9,1058.5,1388.9,1060.3z"/>
				<path class="st17" d="M1418.7,1060.3c0,1.9-1.5,3.4-3.4,3.4c-1.9,0-3.4-1.5-3.4-3.4s1.5-3.4,3.4-3.4
					C1417.2,1056.9,1418.7,1058.5,1418.7,1060.3z"/>
			</g>
		</g>
	</g>
	<g>
		<path class="st3" d="M458.2,363.5c-12.8,8.5-26.1,17-35.3,29.4c-9.7,13.1-13.9,30.1-11.3,46.2c2.5,16.1,11.7,31,24.9,40.5
			c10.4,7.5,22.8,11.5,35,15.4c7.2,2.3,14.4,4.6,21.6,7c31.4,10.1,63.6,20.4,96.6,19.8c33-0.5,67.7-13.8,85.5-41.7
			c12.9-20.2,15.5-45.2,16.5-69.2c2.4-55.5-1.6-111.3-11.8-165.9c-3.3-17.9-7.6-36.2-18.5-50.8c-10.7-14.4-27.4-24.1-45.2-27.1
			c-24.4-4.2-31.1,11.8-52.4,8.6c-29.5-4.5-33.8-36.1-50.9-34.7c-24.6,2-56.6,71.1-39,126c8.4,26.4,25,39.3,18.6,59.5
			C489.1,337.7,480.5,348.5,458.2,363.5z"/>
		<path class="st20" d="M822.6,672.1l-72.4,8.3l-0.6,0.1l-5.2,106.9l-3.7,76.3H440l-9.5-182.9c0,0-49.4-23.8-40-110.9l-58,14.5
			L276,507.1c0,0,104.3-91.1,188.5-100.9l216.7,3.2c0,0,79.8,25.1,99.1,57.8C799.6,499.9,822.6,672.1,822.6,672.1z"/>
		<path class="st21" d="M750.2,680.5l-0.6,0.1l-5.2,106.9L736,784V673c0,0-10-101-4-135L750.2,680.5z"/>
		<path class="st22" d="M457.1,434.8c0,0,30.6,76.3,112.1,72.3c81.5-4.1,119.9-77.8,119.9-77.8"/>
		<path class="st3" d="M410.9,780c0,0,80.8-94.5,29.9-369.2l23.8-4.7c0,0,27.6,120.4,29.4,208.1l164.3,0c0,0-6-101.1,23.1-205
			l23.5,8.5c0,0-57.7,210.3,56.3,372.6l-1.3,73.3H410.9V780z"/>
		<g>
			<g>
				<g>
					<path class="st23" d="M672.8,685.8c6-0.2,11.6,6.3,13.1,11.7c0.9,3.1,5.7,1.8,4.8-1.3c-2.1-7.5-9.6-15.6-17.9-15.3
						C669.6,680.9,669.6,685.9,672.8,685.8L672.8,685.8z"/>
				</g>
				<g>
					<path class="st23" d="M540.1,639.2c3.3-5.4,8.1-8.8,13.6-11.6c2.9-1.5,0.3-5.8-2.5-4.3c-6.3,3.2-11.7,7.3-15.4,13.4
						C534.2,639.4,538.5,641.9,540.1,639.2L540.1,639.2z"/>
				</g>
				<g>
					<path class="st23" d="M470.3,550.2c4.6,2,9.1,4.1,13.5,6.5c2.8,1.5,5.3-2.8,2.5-4.3c-4.4-2.4-8.9-4.5-13.5-6.5
						C469.9,544.5,467.4,548.8,470.3,550.2L470.3,550.2z"/>
				</g>
				<g>
					<path class="st23" d="M477.8,593.3c-6,4.6-9.3,11-11.6,18c-1,3.1,3.8,4.4,4.8,1.3c1.9-5.6,4.5-11.3,9.3-15
						C482.8,595.7,480.4,591.3,477.8,593.3L477.8,593.3z"/>
				</g>
			</g>
		</g>
		<path class="st24" d="M464.3,863.7V745.9c56.3-12.2,56.3-50.8,56.3-50.8h131.2c0,0,4,54.1,52.1,60.5l-5.4,108.2"/>
		<path class="st25" d="M537.4,281.5h-0.3C537.1,281.5,537.2,281.5,537.4,281.5z"/>
		<path class="st26" d="M681.3,409.3c-131.2,131.8-216.7-3.2-216.7-3.2c25-8,42.9-25.1,55.8-44.2c11.3-16.9,15.8-40.4,16.5-63.9
			c1.9-6.1,2.5-9.9,2.5-12.4c0-3.5-1.3-4.1-1.9-4.2l4.1,0l67.5-0.2l6.4,0c-0.1,9.2,0.2,17.8,1.1,25.8v0c0,0.4,0.1,0.7,0.1,1
			c1.4,13.1,4.1,24.7,7.5,34.7C632,366.1,644,381.7,655,392C669,405,681.3,409.3,681.3,409.3z"/>
		<path class="st27" d="M656.9,394.3c-19.5,50.3-94,11-117.9-93.9v0c1.9-6.2,3.4-11.9,4.5-16.6c2-8.5,2.6-13.8,2.6-13.8h64.7
			c-0.1,4.7,0,9.2,0.2,13.6c0.2,4.2,0.5,8.3,0.9,12.2l6.7,14.6c1.4,13.1,4.1,24.7,7.5,34.7C633.9,368.4,645.9,384,656.9,394.3
			L656.9,394.3z"/>
		<path class="st27" d="M830.2,777.1l-7.6-105l-73,8.4C749.6,680.6,778.3,776.2,830.2,777.1z"/>
		<g>
			
				<linearGradient id="SVGID_4_" gradientUnits="userSpaceOnUse" x1="307.6847" y1="390.8883" x2="314.3324" y2="515.5157" gradientTransform="matrix(0.9467 -0.3222 0.3222 0.9467 56.3183 316.0971)">
				<stop  offset="0" style="stop-color:#BABABA"/>
				<stop  offset="1" style="stop-color:#F0F0F0"/>
			</linearGradient>
			<path class="st28" d="M373,729.9c0,0-42-88.7,106.6-139.2c148.6-50.6,171.4,46.1,171.4,46.1s-19,33.7-129.7,71.4
				C410.6,745.8,373,729.9,373,729.9z"/>
			<path class="st29" d="M482.7,599.6c80.9-27.5,124.1-9.1,146.5,12.7c-21.1-23.4-64-45.8-148.1-17.2
				c-83.5,28.4-103.7,71.3-106.2,102.1C379.5,666.9,402.5,627,482.7,599.6z"/>
			
				<linearGradient id="SVGID_5_" gradientUnits="userSpaceOnUse" x1="307.1573" y1="403.0778" x2="324.1465" y2="545.3464" gradientTransform="matrix(0.9467 -0.3222 0.3222 0.9467 56.3183 316.0971)">
				<stop  offset="0" style="stop-color:#BABABA"/>
				<stop  offset="7.049054e-02" style="stop-color:#CACACA"/>
				<stop  offset="0.1756" style="stop-color:#DBDBDB"/>
				<stop  offset="0.3065" style="stop-color:#E7E7E7"/>
				<stop  offset="0.4902" style="stop-color:#EEEEEE"/>
				<stop  offset="1" style="stop-color:#F0F0F0"/>
			</linearGradient>
			<polygon class="st30" points="469,609.1 475.8,724.5 581,687.6 503.9,599.5 			"/>
			<path class="st31" d="M655.7,633.2c-3.3-5.9-7.4-6.7-8.2-6.8c0.2,0.6,0.4,1.1,0.5,1.6c0.5,2,0.9,5.4-1.4,8.4
				c-0.6,0.8-1,1.5-1.3,2.1c-9.5,13.3-39.4,45-123.6,73.8c-84.2,28.5-127.3,21.7-142.9,16.9c-0.6-0.3-1.4-0.6-2.3-0.8
				c-3.6-1-5.4-4-6.2-5.8c-0.2-0.5-0.4-1-0.6-1.6c-0.6,0.6-3.4,3.7-2.4,10.4c0.1,0.9,0.3,1.6,0.6,2.4c0,0.1,0.1,0.1,0.1,0.2
				c1.2,3.4,3.9,5.2,5.7,6c13.7,4.5,58.2,13.2,150.5-18v0c0.2-0.1,0.4-0.1,0.7-0.2c0.2-0.1,0.4-0.2,0.7-0.2l0,0
				c92.2-31.6,122.1-65.6,130.2-77.6c0.9-1.8,1.9-4.8,0.9-8.2c0-0.1,0-0.2,0-0.3C656.4,634.7,656.1,633.9,655.7,633.2z"/>
			<g>
				<path class="st32" d="M533.7,578.4c3.1,9.1-17.5,24.4-45.9,34.1c-28.5,9.7-54.1,10.2-57.2,1c-3.1-9.1,17.5-24.4,45.9-34.1
					C505,569.7,530.6,569.3,533.7,578.4z"/>
				
					<linearGradient id="SVGID_6_" gradientUnits="userSpaceOnUse" x1="312.998" y1="385.1141" x2="312.998" y2="401.64" gradientTransform="matrix(0.9467 -0.3222 0.3222 0.9467 56.3183 316.0971)">
					<stop  offset="0" style="stop-color:#969696"/>
					<stop  offset="1" style="stop-color:#696969"/>
				</linearGradient>
				<path class="st33" d="M476.9,580.5c-26.6,9.1-45.8,23.3-42.9,31.8c2.9,8.5,26.8,8.1,53.4-1c26.6-9.1,45.8-23.3,42.9-31.8
					C527.4,571,503.5,571.4,476.9,580.5z M485.2,604.6c-15,5.1-28.7,4.7-30.6-1c-1.9-5.6,8.7-14.4,23.7-19.5c15-5.1,28.7-4.7,30.6,1
					C510.7,590.8,500.1,599.5,485.2,604.6z"/>
				
					<linearGradient id="SVGID_7_" gradientUnits="userSpaceOnUse" x1="258.5354" y1="410.0133" x2="367.4593" y2="410.0133" gradientTransform="matrix(0.9467 -0.3222 0.3222 0.9467 56.3183 316.0971)">
					<stop  offset="0" style="stop-color:#696969"/>
					<stop  offset="0.6077" style="stop-color:#FFFFFF"/>
					<stop  offset="1" style="stop-color:#696969"/>
				</linearGradient>
				<path class="st34" d="M486.8,609.4c-26.9,9.1-51.2,10.1-56.4,2.5c0,0.6,0.1,1.1,0.3,1.6c3.1,9.1,28.7,8.7,57.2-1
					c28.5-9.7,49-24.9,45.9-34.1c-0.2-0.5-0.4-1-0.8-1.4C533.4,586.1,513.7,600.2,486.8,609.4z"/>
				<path class="st32" d="M440.1,575.6c-5.5-16.2,7.6-28.9,23.5-34.4c16-5.4,33.2-3.9,38.7,12.3c5.5,16.2-2.7,40.9-18.7,46.3
					C467.6,605.3,445.6,591.8,440.1,575.6z"/>
				
					<linearGradient id="SVGID_8_" gradientUnits="userSpaceOnUse" x1="290.492" y1="400.4674" x2="334.8903" y2="400.4674" gradientTransform="matrix(0.9467 -0.3222 0.3222 0.9467 56.3183 316.0971)">
					<stop  offset="0" style="stop-color:#696969"/>
					<stop  offset="0.6077" style="stop-color:#969696"/>
					<stop  offset="1" style="stop-color:#696969"/>
				</linearGradient>
				<path class="st35" d="M458.5,596.1c8.1,4.5,17.3,6.4,25.1,3.7c7.7-2.6,13.5-9.6,16.9-18c-4.1,6.3-10.5,12-18.1,14.6
					C474.6,599,465.8,598.6,458.5,596.1z"/>
				
					<linearGradient id="SVGID_9_" gradientUnits="userSpaceOnUse" x1="281.1092" y1="372.0681" x2="343.1566" y2="372.0681" gradientTransform="matrix(0.9467 -0.3222 0.3222 0.9467 56.3183 316.0971)">
					<stop  offset="0" style="stop-color:#696969"/>
					<stop  offset="0.6077" style="stop-color:#FFFFFF"/>
					<stop  offset="1" style="stop-color:#696969"/>
				</linearGradient>
				<path class="st36" d="M440.2,571.4c0,0,36.7,1.7,58.6-20c0,0,1.6,3.9,2.2,6.4c1,4.2-34.8,25.4-58.3,19.2L440.2,571.4z"/>
				<linearGradient id="SVGID_10_" gradientUnits="userSpaceOnUse" x1="469.8811" y1="558.9418" x2="457.4535" y2="526.9805">
					<stop  offset="0" style="stop-color:#696969"/>
					<stop  offset="1" style="stop-color:#FFFFFF"/>
				</linearGradient>
				<path class="st37" d="M491.3,545.5c1.8,5.4-7.2,13.4-20.2,17.8c-13,4.4-25,3.6-26.8-1.8c-1.8-5.4,7.2-13.4,20.2-17.8
					C477.4,539.3,489.5,540.1,491.3,545.5z"/>
			</g>
			
				<linearGradient id="SVGID_11_" gradientUnits="userSpaceOnUse" x1="160.5103" y1="505.6224" x2="465.4604" y2="505.6224" gradientTransform="matrix(0.9467 -0.3222 0.3222 0.9467 56.3183 316.0971)">
				<stop  offset="0" style="stop-color:#E3E2E2"/>
				<stop  offset="3.611459e-02" style="stop-color:#EBEBEB"/>
				<stop  offset="0.1144" style="stop-color:#F7F6F6"/>
				<stop  offset="0.2246" style="stop-color:#FDFDFD"/>
				<stop  offset="0.5307" style="stop-color:#FFFFFF"/>
				<stop  offset="0.7913" style="stop-color:#FDFDFD"/>
				<stop  offset="0.8852" style="stop-color:#F6F6F6"/>
				<stop  offset="0.9519" style="stop-color:#EBEBEB"/>
				<stop  offset="1" style="stop-color:#DCDCDC"/>
			</linearGradient>
			<path class="st38" d="M654.4,629.4c-3.3-5.9-7.4-6.7-8.2-6.8c0.2,0.6,0.4,1.1,0.5,1.6c0.5,2,0.9,5.4-1.4,8.4
				c-0.6,0.8-1,1.4-1.3,2.1c-9.5,13.3-39.4,45-123.6,73.8c-84.2,28.5-127.3,21.7-142.9,16.9c-0.6-0.3-1.4-0.6-2.3-0.8
				c-3.6-1-5.4-4-6.2-5.8c-0.2-0.5-0.4-1-0.5-1.6c-0.6,0.6-3.4,3.7-2.4,10.4c0.1,0.9,0.4,1.7,0.6,2.4c0,0.1,0.1,0.1,0.1,0.2
				c1.2,3.4,3.9,5.2,5.7,6c13.7,4.5,58.2,13.2,150.5-18h0c0.2-0.1,0.4-0.1,0.7-0.2c0.2-0.1,0.4-0.1,0.7-0.2v0
				c92.2-31.6,122.1-65.6,130.2-77.6c0.9-1.8,1.9-4.8,0.9-8.2c0-0.1,0-0.2,0-0.3C655.1,630.9,654.9,630.2,654.4,629.4z"/>
		</g>
		<path class="st26" d="M276,507.1c0,0-79.7,43.7-84.2,88.9c-4.5,45.2,50.9,64.7,106.9,49.9c55.9-14.7,124.6-73.1,124.6-73.1
			s6.7,8.2,23.6,3.7c17-4.5,19.8-13.3,19.8-13.3s8.1,12,17.5,13.8c9.4,1.7,7.1-5.8,7.1-5.8s5.2,2,10.2-1.8c5-3.8,0.5-11.1,0.5-11.1
			s11.5-0.1,5.2-15.3c-6.3-15.2-23.5-32-39.2-28.5c-15.7,3.5-37.7,23.7-37.7,23.7l-115.2,14.5L276,507.1z"/>
		<line class="st39" x1="491.4" y1="571.1" x2="480.4" y2="560.5"/>
		<path class="st39" d="M502.2,558.2c0,0-10.1-15.6-20.6-24.9"/>
		<path class="st26" d="M675,222c8.1,22.1,8.7,71.7-21.3,110.2c-30,38.5-85.7,41-115.4-30.7c-29.7-71.7-11.1-94.3-9.6-98
			c1.5-3.6,29.2-52,52.1-52.8c22.9-0.8,52.5,2.3,69.3,20.3C666.8,189,666.9,199.9,675,222z"/>
		<path class="st26" d="M522.2,239.3c0,0-7.8-17.1-24.2-6.3c-16.4,10.7-0.5,68.8,41.7,64.9C581.8,294,522.2,239.3,522.2,239.3z"/>
		<path class="st3" d="M584,235.3c-4.6-0.1-9.9,1.1-11.7,5.3c5.6-1.4,11.6-0.7,17.1,1c2.7,0.8,23.4,11.9,21.7,3.9
			C609.6,238.6,589.2,235.3,584,235.3z"/>
		<path class="st3" d="M661.4,235.3c4.6-0.1,9.9,1.1,11.7,5.3c-5.6-1.4-11.6-0.7-17.1,1c-2.7,0.8-23.4,11.9-21.7,3.9
			C635.8,238.6,656.1,235.3,661.4,235.3z"/>
		<g>
			<path class="st3" d="M597.8,266c-1.3,6.2-5.6,10.6-9.7,9.7c-4.1-0.8-6.3-6.6-5-12.8c1.3-6.2,5.6-10.6,9.7-9.7
				C596.9,254.1,599.1,259.8,597.8,266z"/>
			<path class="st29" d="M595.9,268.8c-0.4,1.8-1.7,3.1-2.9,2.9s-1.9-1.9-1.5-3.8c0.4-1.8,1.7-3.1,2.9-2.9
				C595.6,265.3,596.3,267,595.9,268.8z"/>
		</g>
		<g>
			
				<ellipse transform="matrix(0.1145 -0.9934 0.9934 0.1145 321.3263 880.5088)" class="st3" cx="654.6" cy="260" rx="11.5" ry="7.5"/>
			<path class="st29" d="M652.6,265.3c-0.1,1.9,0.8,3.5,2,3.5c1.2,0.1,2.3-1.4,2.4-3.3c0.1-1.9-0.8-3.5-2-3.5
				C653.8,261.9,652.7,263.4,652.6,265.3z"/>
		</g>
		<path class="st3" d="M486.3,183.2c1-16.4,8.9-32.3,21.4-43c18.8-16.1,45.3-19.6,70-18.9c32.2,0.9,66.2,8.6,88.5,31.8
			c17.1,17.8,25.1,42.4,30.6,66.6c10.4,45.8,13.5,93.2,9.3,139.9c-1.7,18.3-5.5,38.4-19.9,49.8c7.2-68.7,0.4-138.7-19.8-204.7
			c-2.5,3.3-5.9,7-10.4,10.4c-15.2,11.5-32.3,11.4-39,11c2.3-9.9,4.6-19.8,7-29.7c-4.3,6-11.7,14.5-23,21.7c-18.9,12-37.6,13-46,13
			c13.1-22.8,15.4-27.2,15.3-27.2c-0.3-0.2-32.1,31.6-31.3,70.2c0.5,24,14,63.9,15.6,67.2c0.1,0.1,0.1,0.2,0.1,0.3
			c-0.4,0.3-24.1-20.3-29.7-47.5c-1.4-7-1.7-14.5-2.1-27.7c-0.6-15.9,0.5-19.2-2.3-24.7c-5.1-10-16.4-10.1-22.8-18.4
			C489.3,212.2,485.4,196.8,486.3,183.2z"/>
		<path class="st29" d="M602,311c0,0,8,11,37,4C639,315,609,363,602,311z"/>
		<path class="st27" d="M635.3,286.9c-2.7,5.5-9.5,8.5-15.4,6.9c3.7,1,8.8-9.3,9.4-11.8c1.5-5.8-1.1-9.8-2-15.1
			C636.7,266.4,638.4,280.8,635.3,286.9z"/>
		<path class="st27" d="M503.3,243.6c-3.3,2.8-3.3,7.9-2.5,12.1c2.4,11.5,9.1,21.9,18.5,28.8c2.8-3.8,1.9-9.8-1.9-12.7
			c-1.4-1-3.2-1.8-3.7-3.5c-0.5-1.5,0.3-3.2,1.3-4.4c1-1.2,2.4-2.2,3.3-3.5C523.2,253.7,511.7,236.6,503.3,243.6z"/>
	</g>
	<g>
		<path class="st40" d="M1280.7,325.8c0,0-230.8,5.7-379.2,346.4l169.9,4.2L1280.7,325.8z"/>
		<path class="st40" d="M901.5,672.2c0,0-19.9-24.6-8.1-38.7c11.8-14.1,43.2-26.3,178,42.8L901.5,672.2z"/>
		<path class="st40" d="M1105,859.2c0,0-15.7-523.7,168.1-534.6c212.1-12.6,292,108.8,320.8,377.8l-116.4,26.1l4.4,130.6H1105z"/>
		<path class="st41" d="M1204,369.6c0,0,45.5,99.8,182.4,12"/>
		<path class="st26" d="M1293.3,387.2c-75.9,0-74.6-41-67.9-46.6c0.1-0.1,0.2-0.1,0.2-0.2c0.2-0.1,0.3-0.2,0.5-0.4
			c13.6-11.4,32.8-33.6,38.5-70.5c1.4-8.9,1.9-18.7,1.4-29.4c-0.1-2.9-0.3-5.8-0.6-8.8l74.6-21.1c0,0,6.6,91.2,50.2,122.5
			C1400,339.9,1381.2,387.2,1293.3,387.2z"/>
		<g>
			<defs>
				<path id="SVGID_12_" d="M1382.4,326.3c0,0-37.3,93-44,214.3h-163.6c0,0-6.1-147.6,50.6-200c0,0-141.6,28-120.4,518.6h302.3
					c0,0-41.9-344.4,8-527.1C1415.2,332.2,1396.8,323.7,1382.4,326.3z"/>
			</defs>
			<use xlink:href="#SVGID_12_"  style="overflow:visible;fill:#1C191F;"/>
			<clipPath id="SVGID_13_">
				<use xlink:href="#SVGID_12_"  style="overflow:visible;"/>
			</clipPath>
			<g class="st42">
				<path class="st43" d="M1143.2,648.2c0,18.2-14.8,33-33,33c-18.2,0-33-14.8-33-33c0-18.2,14.8-33,33-33
					C1128.4,615.2,1143.2,630,1143.2,648.2z"/>
				<path class="st43" d="M1237,649.7c0,11.8-9.6,21.4-21.4,21.4c-11.8,0-21.4-9.6-21.4-21.4c0-11.8,9.6-21.4,21.4-21.4
					C1227.4,628.3,1237,637.9,1237,649.7z"/>
				<path class="st43" d="M1178.5,748.5c0,28.4-23,51.4-51.4,51.4c-28.4,0-51.3-23-51.3-51.4c0-28.4,23-51.3,51.3-51.3
					C1155.5,697.2,1178.5,720.2,1178.5,748.5z"/>
				
					<ellipse transform="matrix(2.628909e-02 -0.9997 0.9997 2.628909e-02 450.7449 2035.9064)" class="st43" cx="1270.4" cy="786.6" rx="31.4" ry="31.4"/>
				<path class="st43" d="M1391.5,666.3c0,16.6-13.4,30-30,30c-16.6,0-30-13.4-30-30c0-16.6,13.4-30,30-30
					C1378.1,636.3,1391.5,649.7,1391.5,666.3z"/>
				<path class="st43" d="M1419.5,538.3c0,14.9-12.1,27-27,27c-14.9,0-27-12.1-27-27c0-14.9,12.1-27,27-27
					C1407.4,511.3,1419.5,523.4,1419.5,538.3z"/>
				<path class="st43" d="M1384.6,378.5c0,10.6-8.6,19.1-19.1,19.1c-10.6,0-19.1-8.6-19.1-19.1c0-10.6,8.6-19.1,19.1-19.1
					C1376.1,359.4,1384.6,368,1384.6,378.5z"/>
				<path class="st43" d="M1397.2,452.4c0,9.2-7.4,16.6-16.6,16.6c-9.2,0-16.6-7.4-16.6-16.6c0-9.2,7.4-16.6,16.6-16.6
					C1389.7,435.8,1397.2,443.2,1397.2,452.4z"/>
				<path class="st43" d="M1272.8,568.7c0,18-14.6,32.7-32.7,32.7c-18,0-32.7-14.6-32.7-32.7c0-18,14.6-32.7,32.7-32.7
					C1258.2,536,1272.8,550.6,1272.8,568.7z"/>
				<path class="st43" d="M1340.8,598.2c0,7.6-6.2,13.7-13.7,13.7c-7.6,0-13.7-6.1-13.7-13.7c0-7.6,6.1-13.7,13.7-13.7
					C1334.6,584.4,1340.8,590.6,1340.8,598.2z"/>
				<path class="st43" d="M1384.4,800.2c0,18.8-15.2,34-34,34c-18.8,0-34-15.2-34-34c0-18.8,15.2-34,34-34
					C1369.2,766.2,1384.4,781.5,1384.4,800.2z"/>
				<path class="st43" d="M1180.8,842.9c0,17-13.7,30.7-30.7,30.7c-17,0-30.7-13.7-30.7-30.7c0-17,13.7-30.7,30.7-30.7
					C1167.1,812.2,1180.8,825.9,1180.8,842.9z"/>
				<path class="st43" d="M1167.4,548.8c0,11-8.9,19.8-19.9,19.8c-11,0-19.9-8.9-19.9-19.8c0-11,8.9-19.9,19.9-19.9
					C1158.5,529,1167.4,537.9,1167.4,548.8z"/>
				<path class="st43" d="M1170.5,432c0,11.3-9.1,20.4-20.4,20.4c-11.3,0-20.4-9.1-20.4-20.4c0-11.3,9.1-20.4,20.4-20.4
					C1161.4,411.6,1170.5,420.7,1170.5,432z"/>
				<path class="st43" d="M1186.5,484.3c0,9.3-7.5,16.8-16.8,16.8c-9.3,0-16.8-7.5-16.8-16.8c0-9.3,7.5-16.8,16.8-16.8
					C1179,467.6,1186.5,475.1,1186.5,484.3z"/>
				<path class="st43" d="M1222,387.2c0,9.9-8,17.9-17.9,17.9c-9.9,0-17.9-8-17.9-17.9c0-9.9,8-17.9,17.9-17.9
					C1213.9,369.3,1222,377.3,1222,387.2z"/>
			</g>
		</g>
		<path class="st24" d="M1125.3,859.1c0,0,3.6-146.1,5.7-171.1c0,0,26-19.6,33.6-47.8h149.5c0,0-1.2,58.9,35.1,66.7L1355,860"/>
		<g>
			<path class="st21" d="M1089.2,759.5c0,0,14.9,115.9,103.4,134.2c88.5,18.3,246.7,17.7,255.7-166.8L1089.2,759.5z"/>
			<path class="st44" d="M1448.4,726.9c0.8,13.8-17.7,24.1-46.7,31.6c-14.5,3.7-31.6,6.7-50.3,9.1c-14.2,1.8-29.2,3.3-44.7,4.4
				c-2.7,0.2-5.5,0.4-8.2,0.6l-6.1,0.4c-5.2,0.3-10.5,0.5-15.8,0.8c-8.1,0.3-16.3,0.6-24.4,0.7c-11.4,0.3-22.7,0.4-33.7,0.4
				c-0.1,0.1-0.2,0.1-0.3,0c-2.7,0.1-5.3,0-7.9,0c-0.9,0-1.8,0-2.7-0.1c-6.8-0.1-13.4-0.2-19.9-0.4c-1.1-0.1-2.3-0.1-3.4-0.1
				c-16.2-0.6-31.2-1.5-44.2-2.6c-30.1-2.8-50-7-50.7-12.2c-0.9-7.2,2.7-13.8,9.9-19.8c7.1-5.9,17.7-11.2,30.9-16
				c2.8-1.1,5.8-2,8.8-3c16.3-5.1,35.6-9.4,56.6-12.9c3.4-0.6,7-1.1,10.6-1.6c12.3-1.8,25.2-3.3,38.2-4.6c6.6-0.6,13.3-1.2,20.1-1.6
				c11.1-0.8,22.3-1.3,33.2-1.7c4-0.1,7.9-0.2,11.9-0.2c0.6,0,1.1-0.1,1.7,0c2.9-0.1,5.7-0.1,8.6-0.1c29-0.1,56,1.4,77.8,4.8
				C1427.6,707.3,1447.7,715.3,1448.4,726.9z"/>
			<path class="st45" d="M1393.4,760.4c6.1-1.2,13.5-12.5,11.2-18.4c-2.3-5.8-8.7-9.8-14.9-9.2c-3.5,0.3-6.8,1.8-10.3,2.1
				c-3.5,0.2-7.6-1.5-8.2-4.9c-0.3-1.7,0.4-3.5,0.8-5.2c1-4.2,0.5-8.9-1.9-12.5c-5.7-8.5-18.6-7.7-28.1-3.7
				c-9.5,4-18.7,10.3-28.9,9.6c-2.3-0.2-4.9-0.8-6.3-2.7c-1.2-1.5-1.4-3.5-1.6-5.4c-1-8.7-8.2-30.5-20.8-31.8
				c-25.5-2.7-40.2,18.5-59.8,32.2c-4.1,2.9-8.6,5.8-13.6,5.9c-10,0.2-17.3-10.6-27.2-11.8c-9.3-1.2-17.4,6.2-23.7,13.1
				c-6.3,7-13.6,14.7-23,14.7c-12.3,0-23.7-13.7-34.9-8.5c0.6,16,4.5,34.4,16.1,45.4C1118.3,769.2,1253.6,788,1393.4,760.4z"/>
			<path class="st46" d="M1391.3,726.8c-11.8-5.9-37,7.4-44.6,8.3c-2.5,0.3-5,0.4-7.4-0.5c-4.3-1.6-6.9-6-8.2-10.4
				c-1.3-4.4-1.5-9.1-2.9-13.4c-0.9-2.8-2.6-5.7-5.4-6.8c-1.6-0.6-3.4-0.6-5.1-0.5c-12.3,1.1-22.9,8.4-34,13.8
				c-11,5.4-24.6,9.1-35.3,3.1c-7.3-4-12.4-12.1-20.6-13.6c-7.9-1.4-15.2,3.9-21.4,8.9c-7.1,5.7-14.2,11.4-21.3,17.1
				c-6.3,5.1-13.9,10.5-21.8,8.8c-3.6-0.7-6.7-2.8-10.2-3.7c-3.5-0.9-8.1,0-9.4,3.4c-0.5,1.3-0.5,2.7-0.3,4
				c0.6,6.2,2.7,19.6,6.5,27.1c10.5,0.7,22,1.4,34.2,1.8c1.1,0,2.3,0,3.4,0.1c6.5,0.2,13.1,0.3,19.9,0.4c0.9,0,1.8,0,2.7,0.1
				c2.6,0,5.3,0.1,7.9,0c0.1,0.1,0.2,0.1,0.3,0c11,0,22.3-0.1,33.7-0.4c8.2-0.2,16.3-0.4,24.4-0.7c5.3-0.2,10.5-0.5,15.8-0.8
				l6.1-0.4c2.8-0.2,5.5-0.3,8.2-0.6c15.5-1.1,30.5-2.6,44.7-4.4c16.6-2.2,32-4.8,45.5-8C1398.9,748.8,1396.4,729.3,1391.3,726.8z"
				/>
			<path class="st47" d="M1365.6,777.6c0,0-1.8,72.1-27.8,103c0,0,57.6-10.9,65.3-110.2C1403.1,770.3,1379.1,778.5,1365.6,777.6z"/>
			<g>
				<path class="st48" d="M1311.5,757c0,0-10.1-36.3,29.2-45.3C1340.7,711.7,1357.9,751.9,1311.5,757z"/>
				<polygon class="st49" points="1338,716 1332.6,724.5 1338.7,724.3 1338.7,725 1332.1,725.2 1321.7,741.6 1329,741.3 1329.1,742 
					1321.3,742.3 1305.8,766.7 1305.2,766.3 1315.2,750.6 1313.5,741.4 1314.2,741.3 1315.7,749.8 1328.2,730.1 1327.4,723.7 
					1328,723.6 1328.8,729.2 1337.4,715.7 				"/>
			</g>
			<g>
				<path class="st50" d="M1227.7,766.9c0,0-36.9,7.8-43.4-32C1184.4,734.9,1225.6,720.2,1227.7,766.9z"/>
				<polygon class="st49" points="1188.6,737.9 1196.7,743.8 1196.9,737.7 1197.5,737.7 1197.4,744.3 1213.1,755.7 1213.2,748.4 
					1213.9,748.4 1213.7,756.2 1237.1,773.2 1236.7,773.7 1221.6,762.8 1212.3,763.9 1212.2,763.2 1220.8,762.2 1202,748.5 
					1195.5,748.9 1195.4,748.3 1201.1,747.9 1188.2,738.4 				"/>
			</g>
			<g>
				<path class="st51" d="M1350.5,729.1c4.5,18.5,23,30.1,41.6,26c18.7-4.2,30.5-22.5,26.7-41.2L1350.5,729.1z"/>
				<path class="st52" d="M1359.4,727.2c3.3,13.7,16.9,22.2,30.7,19.1c13.8-3.1,22.5-16.6,19.7-30.4L1359.4,727.2z"/>
				<path class="st53" d="M1399.8,722.4c-1.6-1.6-3.8,0.6-2.5,2.3c1.4,1.9,3.2,4.5,5.7,4.8c0.9,0.1,1.6-0.9,1.4-1.7
					C1403.9,725.7,1401.3,723.9,1399.8,722.4z"/>
				<path class="st53" d="M1392.2,727.5c-0.9-1.3-2.9-1-3,0.7c-0.3,3,0.1,5.8,1,8.6c1,3.3,6,2.3,5.3-1.2
					C1394.9,732.6,1393.9,730,1392.2,727.5z"/>
				<path class="st53" d="M1382.4,729.7c-0.4-1-2.2-1.1-2.6-0.1c-1.2,2.5-1.4,5.5-1.8,8.3c-0.5,3,4.4,3.3,4.8,0.2
					C1383.2,735.3,1383.5,732.3,1382.4,729.7z"/>
				<path class="st53" d="M1372.7,727.8c-2.1-0.4-4.6,2.3-6,3.7c-1.9,2,0.7,4.7,2.9,3.1c1.6-1.2,4.4-3.2,4.4-5.4
					C1373.8,728.3,1373.4,727.9,1372.7,727.8z"/>
			</g>
			<g>
				<path class="st51" d="M1094.6,718.4c-5.8,18.1,4,37.7,22.1,43.8c18.1,6.1,37.7-3.4,44.2-21.4L1094.6,718.4z"/>
				<path class="st52" d="M1103.3,721.3c-4.3,13.4,3,27.8,16.3,32.3c13.4,4.5,27.9-2.5,32.6-15.8L1103.3,721.3z"/>
				<path class="st53" d="M1140.3,738.2c-0.6-2.2-3.5-1.5-3.3,0.7c0.2,2.3,0.4,5.5,2.3,7.1c0.7,0.6,1.8,0.1,2.1-0.7
					C1142.1,743.1,1140.8,740.2,1140.3,738.2z"/>
				<path class="st54" d="M1131.2,738.6c-0.1-1.6-1.9-2.3-2.9-1c-1.8,2.4-2.9,5-3.6,7.9c-0.8,3.3,4,5.1,5.1,1.7
					C1130.7,744.4,1131.3,741.6,1131.2,738.6z"/>
				<path class="st53" d="M1121.6,735.4c0.2-1.1-1.3-2.1-2.2-1.5c-2.4,1.5-4,4-5.8,6.1c-2,2.3,2,5.1,4,2.7
					C1119.3,740.6,1121.1,738.2,1121.6,735.4z"/>
				<path class="st53" d="M1114.3,728.7c-1.6-1.4-5.2-0.5-7,0c-2.7,0.7-1.8,4.4,0.8,4.1c2-0.2,5.5-0.4,6.5-2.4
					C1115,729.8,1114.8,729.1,1114.3,728.7z"/>
			</g>
		</g>
		<g>
			<path class="st55" d="M1229.5,721.3c-13.8,7.3-56.5-185.1-60.1-205.9c-3.6-20.8,4.7-50,17.1-14.3
				C1199,536.7,1235,718.4,1229.5,721.3z"/>
			<path class="st55" d="M1246.1,782.8c-11.4,4.4-33.7-14.5-38-37.2c-4.3-22.7,7.5-44.8,13.7-45.8c6.3-1,29.4,10.9,35.7,36.6
				C1263.7,762.1,1259.4,777.7,1246.1,782.8z"/>
		</g>
		<path class="st56" d="M1286.6,711.7c-7,0-7,10.8,0,10.8C1293.5,722.5,1293.5,711.7,1286.6,711.7z"/>
		<path class="st57" d="M1150.1,721.4c-7,0-7,10.8,0,10.8C1157.1,732.3,1157.1,721.4,1150.1,721.4z"/>
		<path class="st58" d="M1192,736.2c-7,0-7,10.8,0,10.8C1199,747,1199,736.2,1192,736.2z"/>
		<path class="st58" d="M1347.2,707.8c-7,0-7,10.8,0,10.8C1354.2,718.6,1354.2,707.8,1347.2,707.8z"/>
		<path class="st56" d="M1319.4,748.5c-2.1-2.1-5.6-2.1-7.7,0c-0.3,0.3-0.5,0.5-0.8,0.8c-2.1,2.1-2.1,5.6,0,7.7
			c2.1,2.1,5.6,2.1,7.7,0c0.3-0.3,0.5-0.5,0.8-0.8C1321.5,754.1,1321.5,750.6,1319.4,748.5z"/>
		<g>
			<path class="st59" d="M1224.3,77.2c0,0-18.8,36.9-14.6,74.1c4.2,37.2,36.8-74.5,36.8-74.5L1224.3,77.2z"/>
			<path class="st27" d="M1344.2,253.7c0,0-31.2,81.3-119.2,89.3l1.1-3c13.6-11.4,32.8-33.6,38.5-70.5L1344.2,253.7z"/>
			<g>
				<path class="st26" d="M1258.7,293.1c-28.6-3.6-64.7-36.7-58-91.6c3.9-31.2,19.2-160.1,112.4-140.9
					c93.2,19.2,51.7,124.7,51.7,124.7c17.9-12.8,51.6-6.7,45.1,24.2c-7.3,34.6-48.5,15.1-48.5,15.1S1330.5,302.3,1258.7,293.1z"/>
			</g>
			<path class="st3" d="M1212.3,28.8c-11.6,11.8-17.9,29.2-12.3,44.7c5.6,15.6,20.6,26.9,36.9,29.6c16.3,2.6,33.5-3,46.1-13.7
				c0.2,6.6,5.1,12.4,10.8,15.7c5.7,3.4,13.1,3.6,18.9,0.6c7.1,17.2,25.7,28.9,44.3,27.8c-9.2,24.6-11.8,53.6-8.9,79.7
				c0,0,8.9-25.5,30.1-33.6c0,0,57.5-61.3,17.9-70.9c0,0,23.8-23.3-17.9-50.1C1336.6,31.8,1243.2-2.4,1212.3,28.8z"/>
		</g>
		<path class="st40" d="M1593.9,702.5c0,0,22.5,28.6,6.8,45.2C1590.6,758.5,1475,729,1475,729l-0.1-23.6L1593.9,702.5z"/>
		<path class="st26" d="M1270.4,766.7c0,0,15-2.9,76.8-17.9C1409,733.8,1475,729,1475,729l118.9,14.6c14.6,83.3-70,88-153.4,89.3
			c-83.4,1.3-174-13.1-174-13.1s-55.8,31.5-64.3,3.3c0,0-27.4,4-25.8-16.6c0,0-18.2-4.9-7.3-25.6c0,0-8.7,1.2-5.7-16
			C1166.5,747.7,1224.8,734.1,1270.4,766.7z"/>
		<path class="st60" d="M1593.9,743.6"/>
		<path class="st60" d="M1475,729"/>
		<path class="st26" d="M901.5,672.2c0,0-35.4,30.4-21.2,75.8c14.2,45.4,97.4,37.8,169.8-21.3c72.4-59.1,114.5-101.3,114.5-101.3
			s14.4,1.1,21.7-10.2c7.4-11.4,5.7-33,5.7-33s13.7-1.4,17.4-6.8c3.7-5.4,0-9.2,0-9.2s3-3.7,3.3-8c0.3-4.2-1.9-7.1-1.9-7.1
			s4.7-3.1,4.7-9.6c0-6.6-21.8-10.2-39.8-5.9c-18,4.3-22,16.3-26.5,33.8c-4.5,17.5-4.3,22-4.3,22L901.5,672.2z"/>
		<path class="st39" d="M1210.9,551.2c0,0-24.6-2.1-33.1,2.4"/>
		<path class="st39" d="M1209.5,566.2c0,0-14.4-4.4-23.2,2.7"/>
		<path class="st21" d="M1452.2,504.5c0,0,19.8,11,20.1,47.6c0.3,36.6-5,56.6,9,67.9c14,11.3,37,31.3,29.3,51.6
			c-7.7,20.3,3,31.7,3,31.7h-38.9L1452.2,504.5z"/>
		<path class="st21" d="M1074.5,492c0,0-12.2,23.1-2.6,45.5c9.5,22.4,16.8,18.7,13.2,36.3c-3.7,17.6-11.3,41.3-11.3,41.3l37.2-12.3
			v-5.8L1074.5,492z"/>
		<path class="st60" d="M1169.1,781c0,0,22.3-7.9,38-3.6"/>
		<path class="st60" d="M1176.4,806.5c0,0,22.1-9,32.1-7.8"/>
		<line class="st60" x1="1270.4" y1="767.5" x2="1267.8" y2="776.1"/>
		<path class="st61" d="M1282.8,226.8c-3.7,11.2-10.1,22.5-21,27.1c-9.5,4-21.3,1.8-28.6-5.5c-4.5-4.5-7.2-10.7-7.6-17
			c-0.6-9.7,1.2-10.6,9.6-8.3C1251.2,227.5,1266.1,230.2,1282.8,226.8z"/>
		<path class="st3" d="M1244.9,119.3c-7.4-0.8-14.7,2.2-20.8,6.4c-1.3,0.9-2.7,2.1-2.7,3.6c0,2.1,2.6,3.5,4.7,3.1
			c2.1-0.4,3.9-1.8,5.8-2.7c6.8-3.5,15.6-1,21.1,4.4c1.1,1.1,2.1,2.3,3.4,3.1c2.1,1.3,5.6,0.9,6-2c0.2-1.7-2.5-4.8-3.4-6.2
			C1255.6,123.8,1251.3,120,1244.9,119.3z"/>
		<path class="st3" d="M1309.8,138.6c8.7,1.4,17.4,7.3,19.1,16c0.3,1.6,0.4,3.3-0.3,4.8c-0.7,1.5-2.2,2.7-3.8,2.5
			c-2.3-0.2-3.6-2.6-4.8-4.6c-3.9-6.3-11.5-10.1-18.9-9.5c-3.6,0.3-7.2,1.6-10.8,1.4c-7.3-0.4-8.2-6.4-1.6-8.9
			C1294.9,138.1,1303.3,137.6,1309.8,138.6z"/>
		
			<ellipse transform="matrix(0.2462 -0.9692 0.9692 0.2462 816.41 1392.6748)" class="st3" cx="1303.5" cy="171.5" rx="12.5" ry="8.5"/>
		
			<ellipse transform="matrix(0.2462 -0.9692 0.9692 0.2462 777.9641 1315.2441)" class="st3" cx="1234.5" cy="157.5" rx="12.5" ry="8.5"/>
		<path class="st29" d="M1302,170.7c-0.6,2.3-2.4,3.9-4,3.5c-1.6-0.4-2.4-2.6-1.8-5c0.6-2.3,2.4-3.9,4-3.5
			C1301.8,166.2,1302.6,168.4,1302,170.7z"/>
		<path class="st29" d="M1234,157.7c-0.6,2.3-2.4,3.9-4,3.5c-1.6-0.4-2.4-2.6-1.8-5c0.6-2.3,2.4-3.9,4-3.5
			C1233.8,153.2,1234.6,155.4,1234,157.7z"/>
		<path class="st27" d="M1240.9,188.2c1,4.4,5.2,7.6,9.6,8.6c4.4,1.1,9,0.5,13.5-0.1c0.3-2.4-1.4-4.6-3.4-6c-2-1.4-4.3-2.3-6.1-3.8
			c-6.3-5.4-4.8-17.2,2.3-21.2C1250.9,171.2,1238.7,178.5,1240.9,188.2z"/>
		<path class="st27" d="M1386.4,187.7c3.2,0,6.5,0.9,8.9,3.2c3.1,2.9,3.9,7.5,3.3,11.7c-0.9,5.8-4.3,11.1-9.3,14.3
			c-5,3.1-11.3,4-16.9,2.3c-1.5-0.5-2.9-1.1-4-2.2c-1.1-1.1-1.7-2.7-1.3-4.2c0.5-1.9,2.5-3.1,4.5-3.6s4-0.8,5.7-1.9
			c1.7-1.1,2.7-3.6,1.4-5.2c-1-1.2-2.9-1.3-4.4-1.5c-1.6-0.2-3.4-1.2-3.3-2.8c0.1-1.6,2.1-2.3,3.7-2.5c4.4-0.5,8.9-0.3,13.3,0.7
			c-4.7-3.8-11-5.4-16.9-4.5C1376,189.8,1381,187.6,1386.4,187.7z"/>
	</g>
	<g>
		<g>
			<linearGradient id="SVGID_14_" gradientUnits="userSpaceOnUse" x1="602.9766" y1="898.242" x2="487.5298" y2="889.9971">
				<stop  offset="0" style="stop-color:#969696"/>
				<stop  offset="0" style="stop-color:#F0F0F0"/>
				<stop  offset="0.7079" style="stop-color:#666666"/>
			</linearGradient>
			<path class="st62" d="M541.6,882.9c0,0-26.9-5.4-37.9,0.8c-11,6.1-7.4,18.8-7.4,18.8s12.2-3.7,42.8-1.2
				C569.8,903.7,541.6,882.9,541.6,882.9z"/>
			<linearGradient id="SVGID_15_" gradientUnits="userSpaceOnUse" x1="534.9048" y1="943.541" x2="468.9355" y2="875.7379">
				<stop  offset="0" style="stop-color:#969696"/>
				<stop  offset="0" style="stop-color:#F0F0F0"/>
				<stop  offset="0.7079" style="stop-color:#666666"/>
			</linearGradient>
			<path class="st63" d="M513.5,881c0,0-47.7,2.4-42.8,31.8c4.9,29.4,64.9,20.8,64.9,20.8l-1.2-24.5
				C534.3,909.2,491.4,908,513.5,881z"/>
			<g>
				
					<linearGradient id="SVGID_16_" gradientUnits="userSpaceOnUse" x1="1570.8182" y1="886.9103" x2="1566.5331" y2="911.391" gradientTransform="matrix(-1 0 0 1 2068.8789 0)">
					<stop  offset="0" style="stop-color:#FFFFFF"/>
					<stop  offset="1" style="stop-color:#000000"/>
				</linearGradient>
				<path class="st64" d="M530.8,912.6c0.2,4.1,0.7,13.4,0.9,17.8c-17.4,1.9-54.1,1.8-57.4-18.1c-0.2-1.2-0.3-2.4-0.3-3.5
					c0-3.9,1.2-7.3,3.6-10.3c6.5-8.1,20-11.5,28.5-12.8c-1.6,3.2-2.6,6.2-2.6,8.9c0,1.9,0.4,3.8,1.2,5.5
					C509,909.6,523.9,912,530.8,912.6z"/>
			</g>
		</g>
		<path class="st29" d="M508.9,891"/>
		<g>
			
				<linearGradient id="SVGID_17_" gradientUnits="userSpaceOnUse" x1="1131.8831" y1="898.242" x2="1016.4342" y2="889.9969" gradientTransform="matrix(-1 0 0 1 1890.293 0)">
				<stop  offset="0" style="stop-color:#969696"/>
				<stop  offset="0" style="stop-color:#F0F0F0"/>
				<stop  offset="0.7079" style="stop-color:#666666"/>
			</linearGradient>
			<path class="st65" d="M819.7,882.9c0,0,26.9-5.4,37.9,0.8c11,6.1,7.4,18.8,7.4,18.8s-12.2-3.7-42.8-1.2
				C791.6,903.7,819.7,882.9,819.7,882.9z"/>
			
				<linearGradient id="SVGID_18_" gradientUnits="userSpaceOnUse" x1="1063.8074" y1="943.5425" x2="997.8362" y2="875.7374" gradientTransform="matrix(-1 0 0 1 1890.293 0)">
				<stop  offset="0" style="stop-color:#969696"/>
				<stop  offset="0" style="stop-color:#F0F0F0"/>
				<stop  offset="0.7079" style="stop-color:#666666"/>
			</linearGradient>
			<path class="st66" d="M847.9,881c0,0,47.7,2.4,42.8,31.8c-4.9,29.4-64.9,20.8-64.9,20.8l1.2-24.5
				C827.1,909.2,869.9,908,847.9,881z"/>
			<g>
				
					<linearGradient id="SVGID_19_" gradientUnits="userSpaceOnUse" x1="1041.9187" y1="886.9104" x2="1037.6337" y2="911.3907" gradientTransform="matrix(1 0 0 1 -178.5859 0)">
					<stop  offset="0" style="stop-color:#FFFFFF"/>
					<stop  offset="1" style="stop-color:#000000"/>
				</linearGradient>
				<path class="st67" d="M856.7,900c0.8-1.7,1.2-3.6,1.2-5.5c0-2.8-0.9-5.8-2.6-8.9c8.5,1.4,22,4.7,28.5,12.8
					c2.4,3,3.6,6.4,3.6,10.3c0,1.1-0.1,2.3-0.3,3.5c-3.3,19.9-40,20-57.4,18.1c0.2-4.3,0.7-13.7,0.9-17.8
					C837.5,912,852.3,909.6,856.7,900z"/>
			</g>
		</g>
		<linearGradient id="SVGID_20_" gradientUnits="userSpaceOnUse" x1="532.6842" y1="958.3855" x2="828.3231" y2="958.3855">
			<stop  offset="0" style="stop-color:#969696"/>
			<stop  offset="0.1348" style="stop-color:#E6E6E6"/>
			<stop  offset="0.2865" style="stop-color:#D1D1D1"/>
			<stop  offset="0.4719" style="stop-color:#F0F0F0"/>
			<stop  offset="0.7079" style="stop-color:#666666"/>
			<stop  offset="0.9106" style="stop-color:#B8B8B8"/>
			<stop  offset="1" style="stop-color:#DBDBDB"/>
		</linearGradient>
		<path class="st68" d="M827.4,907.2c-0.5-69.8-87.8-55.6-149-40.1c-61.2-15.5-145.3-24.1-145.8,45.8
			c-0.6,72.7,6.9,123.2,73.7,141.2c1.1,0.3,31.4,9.1,72,8.2c37.3,0.8,76.8-7.8,78.3-8.2C843.5,1030.7,826.8,943.3,827.4,907.2z"/>
		<path class="st31" d="M756.7,1046.7c-1.5,0.4-41,9-78.3,8.2c-40.6,0.9-70.9-7.9-72-8.2c-63.4-17.1-73.4-63.5-73.7-130.4
			c-0.3,70.9,8,120.2,73.7,137.8c1.1,0.3,31.4,9.1,72,8.2c37.3,0.8,76.8-7.8,78.3-8.2c65.7-17.7,72.1-72,71.6-113
			C827.8,981,818.5,1030,756.7,1046.7z"/>
		<path class="st69" d="M680.6,936.2c67.8,0,125.4-13.7,146.7-32.9c-3.8-65.3-88.8-51.3-148.8-36.2c-58-14.7-136.7-23.1-145,35.7
			C554.4,922.3,612.3,936.2,680.6,936.2z"/>
		<path class="st70" d="M827.4,907.2c-0.5-69.8-87.8-55.6-149-40.1c-61.2-15.5-145.3-24.1-145.8,45.8
			c-0.6,72.7,6.9,123.2,73.7,141.2c1.1,0.3,31.4,9.1,72,8.2c37.3,0.8,76.8-7.8,78.3-8.2C843.5,1030.7,826.8,943.3,827.4,907.2z"/>
		<linearGradient id="SVGID_21_" gradientUnits="userSpaceOnUse" x1="731.2249" y1="884.8292" x2="465.248" y2="892.7924">
			<stop  offset="0" style="stop-color:#969696"/>
			<stop  offset="0.1348" style="stop-color:#E6E6E6"/>
			<stop  offset="0.2865" style="stop-color:#D1D1D1"/>
			<stop  offset="0.4719" style="stop-color:#F0F0F0"/>
			<stop  offset="0.7079" style="stop-color:#666666"/>
			<stop  offset="0.9831" style="stop-color:#B8B8B8"/>
		</linearGradient>
		<path class="st71" d="M827.2,886.3c0,23.9-65.7,43.2-146.7,43.2c-81,0-146.7-19.3-146.7-43.2c0-23.8,65.7-43.2,146.7-43.2
			C761.6,843.2,827.2,862.5,827.2,886.3z"/>
		<path class="st72" d="M588.3,918.3c26.3,7.1,58.1,11.2,92.2,11.2c34.2,0,65.9-4.1,92.2-11.2c-26.3-7.1-58.1-11.2-92.2-11.2
			C646.4,907.1,614.7,911.2,588.3,918.3z"/>
		<path class="st70" d="M827.2,886.3c0,23.9-65.7,43.2-146.7,43.2c-81,0-146.7-19.3-146.7-43.2c0-23.8,65.7-43.2,146.7-43.2
			C761.6,843.2,827.2,862.5,827.2,886.3z"/>
		<rect x="650.8" y="917.1" class="st73" width="12" height="6.4"/>
		
			<rect x="678.1" y="914.5" transform="matrix(0.9139 -0.4059 0.4059 0.9139 -313.4607 356.1774)" class="st73" width="9.9" height="5.3"/>
		
			<rect x="703.3" y="917.1" transform="matrix(0.9635 -0.2677 0.2677 0.9635 -220.4737 223.4596)" class="st73" width="11.9" height="6.4"/>
		<polygon class="st73" points="635.6,921.9 623.7,921.9 623.7,915.5 635.6,915.5 		"/>
		<rect x="725.7" y="918.2" class="st73" width="4.1" height="4.1"/>
		
			<rect x="663.8" y="910.7" transform="matrix(0.4163 -0.9092 0.9092 0.4163 -441.2428 1138.1741)" class="st73" width="4.1" height="4.1"/>
		
			<rect x="691.9" y="920.8" transform="matrix(0.4183 -0.9083 0.9083 0.4183 -434.5615 1167.2319)" class="st73" width="4.1" height="4.1"/>
		<polygon class="st73" points="643.7,925.6 639.9,923.9 641.6,920.2 645.4,921.9 		"/>
		<polygon class="st73" points="750.1,921.1 746.4,919.4 748.1,915.7 751.8,917.4 		"/>
		<polygon class="st73" points="608.4,921.9 604.7,920.2 606.4,916.4 610.1,918.1 		"/>
	</g>
	<g>
		<g>
			<g>
				<path class="st74" d="M678.2,823.8c-15.6,1.3,20.7-192.4,25.6-212.9c4.9-20.5,24-44.1,21.4-6.5
					C722.7,642.1,684.4,823.3,678.2,823.8z"/>
				<path class="st74" d="M669.3,886.9c-12.2-0.5-25.3-26.6-20.3-49.2c5-22.6,24.5-38.3,30.6-36.8c6.1,1.5,22.7,21.6,18.4,47.7
					C693.7,874.7,683.6,887.5,669.3,886.9z"/>
			</g>
		</g>
		<path class="st26" d="M813.2,743.6c0,0,31.8,35.6,9.4,66.8c-22.4,31.1-61.2-5.5-71.2-41c-10-35.5-12.8-51.6-12.8-51.6
			s-22.6,7.7-24-15.4c0,0-11.3,9.9-21.4,4.6c0,0-14.7,5-12.2-10.5c0,0-12,3.2-13.2-2.6c-1.3-5.7,18.6-44,36.1-44.7
			c17.5-0.7,56.9,33.4,57.5,34.4C762.1,684.5,813.2,743.6,813.2,743.6z"/>
		<path class="st39" d="M680.5,696c0,0,6.1-11.6,15-19.1"/>
		<path class="st39" d="M693.2,707c0,0,7.2-15.8,16.9-22.5"/>
		<line class="st39" x1="738.6" y1="717.8" x2="738.6" y2="701.4"/>
		<path class="st39" d="M714,702.9c0,0,5.3-6.2,7.8-11.2"/>
	</g>
	<path class="st75" d="M635.1,885.3c-9.4-17.8-9.6-40.2-0.5-58.1c10.1-20,29.9-33.1,43.9-50.6c29.7-37.1,29.1-95.2-1.5-131.5
		c40.7,19.1,60.9,72.9,42.9,114.1c-9.6,21.9-28.5,41.7-26.2,65.5c1.4,14.3,10.4,26.5,17.9,38.9c7.4,12.3,13.7,27.2,8.8,40.8
		C706.1,944.9,646.6,906.9,635.1,885.3z"/>
</g>
</svg>
