<?xml version="1.0" encoding="utf-8"?>
<!-- Generator: Adobe Illustrator 25.2.0, SVG Export Plug-In . SVG Version: 6.00 Build 0)  -->
<svg version="1.1" xmlns="http://www.w3.org/2000/svg" xmlns:xlink="http://www.w3.org/1999/xlink" x="0px" y="0px"
	 viewBox="0 0 791.2 500" style="enable-background:new 0 0 791.2 500;" xml:space="preserve">
<style type="text/css">
	.st0{fill:#5C3C8C;}
	.st1{fill:#785BA5;}
	.st2{fill:#9A68EA;}
	.st3{fill:#7047A8;}
	.st4{fill:#F87097;}
	.st5{fill:#DC658D;}
	.st6{fill:#7C62AF;}
	.st7{fill:#DFDBF2;}
	.st8{fill:#6D6875;}
	.st9{fill:none;stroke:#FFFFFF;stroke-width:2;stroke-miterlimit:10;}
	.st10{fill:#504C56;}
	.st11{fill:#1C191F;}
	.st12{fill:none;stroke:#5C3C8C;stroke-linecap:round;stroke-linejoin:round;stroke-miterlimit:10;}
	.st13{fill:#FDB997;}
	.st14{fill:#FD947D;}
	.st15{fill:#FFFFFF;}
	.st16{fill:none;stroke:#FFFFFF;stroke-linecap:round;stroke-linejoin:round;stroke-miterlimit:10;}
	.st17{fill:none;stroke:#7047A8;stroke-linecap:round;stroke-linejoin:round;stroke-miterlimit:10;}
	.st18{fill:#342F3A;}
</style>
<g id="BACKGROUND">
	<g>
		<g>
			<g>
				<g>
					<path class="st0" d="M161.1,353.7c0,0-34.2-8.9-40.1-42.3c-5.9-33.4,12-53.1,13.6-60.6c0,0,31.8,19.2,37.5,48.3
						C177.9,328.2,161.1,353.7,161.1,353.7z"/>
					<g>
						<path class="st1" d="M139.6,269.7c0,0,3.2,40.5,21.4,83.9"/>
						<path class="st1" d="M129.5,275.1c0,0,4.8,3.7,13.6,18.6"/>
						<path class="st1" d="M150,269.6c0,0-4.7,18.4-5.3,31.6"/>
						<path class="st1" d="M125.3,294.9c0,0,12.9,7.7,22.4,19"/>
						<path class="st1" d="M158.3,285.9c0,0-7.7,21.6-8.8,34.8"/>
						<path class="st1" d="M127.7,313.5c0,0,16.6,8.3,24.8,16.9"/>
						<path class="st1" d="M164,306.5c-5.1,11-8.3,24.9-8.3,33.4"/>
					</g>
				</g>
				<g>
					<path class="st2" d="M16.7,341.9c3.7,0.4,25-19.1,52.1-3.5c0,0,32.1-11.6,52.7,24.5c0,0,24.4,7,13.7,41.4
						c0,0-15.7,24.5-41.7,13.1c0,0-22,3-35.6-5.7c-18.6-11.8-19.3-28.8-19.3-28.8S20.2,369.8,16.7,341.9z"/>
					<g>
						<path class="st3" d="M38.5,350.2c0,0,57.5,19.9,96.8,54.1"/>
						<path class="st3" d="M39.3,361.6c0,0,12.5-3,24.5-1.1"/>
						<path class="st3" d="M53.7,341.5c0,0,8.4,13.6,21.7,24.5"/>
						<path class="st3" d="M49.9,383.1c0,0,17.2-12,36.7-11.3"/>
						<path class="st3" d="M82.2,346c0,0,6.9,20.4,16.6,32.5"/>
						<path class="st3" d="M70,397.7c0,0,21.1-13,40.7-11.8"/>
						<path class="st3" d="M108.4,359.8c0,0,6,23.4,12,32.8"/>
						<path class="st3" d="M102.3,406.9c0,0,13.4-7.6,27.7-6.7"/>
					</g>
				</g>
				<g>
					<g>
						<path class="st4" d="M102.9,312.2c0,0-10-16.2-12.8-29.6c-2.8-13.4,2.6-26.2,6.5-26.7c3.9-0.4,6.1,8.2,7,19.5
							C104.8,291.8,101.4,297.4,102.9,312.2z"/>
						<path class="st4" d="M123.5,343.1c0,0-10-16.2-12.9-29.6c-2.8-13.4,2.5-26.3,6.4-26.7c3.9-0.4,6.1,8.2,7,19.5
							C125.3,322.7,122,328.3,123.5,343.1z"/>
						<path class="st4" d="M143.4,378c0,0-10-16.2-12.9-29.6c-2.8-13.4,2.5-26.3,6.4-26.7c3.9-0.4,6.1,8.2,7,19.5
							C145.2,357.6,141.9,363.2,143.4,378z"/>
						<path class="st4" d="M92.5,297.6c0,0-9.2-13.5-18.6-20.3c-9.5-6.9-21.4-7.2-23.1-4.3c-1.7,2.9,4.3,7.6,12.8,12.3
							C75.9,291.9,81.5,291.3,92.5,297.6z"/>
						<path class="st4" d="M115.8,331.2c0,0-10.3-17.2-21.5-26.3c-11.2-9.1-25.8-10.3-28.1-6.9c-2.3,3.4,4.7,9.7,14.9,16
							C95.8,323.1,102.7,322.7,115.8,331.2z"/>
						<path class="st4" d="M135.8,364c0,0-10.1-17.3-21.2-26.5c-11.1-9.2-25.7-10.6-28-7.2c-2.3,3.4,4.6,9.7,14.7,16.1
							C115.9,355.7,122.8,355.4,135.8,364z"/>
						<path class="st4" d="M148.9,390.5c0,0-8.9-16.6-18.9-25.6c-10-9-23.6-10.9-26-7.8c-2.3,3.1,3.9,9.3,13.2,15.6
							C130.6,381.9,137,381.8,148.9,390.5z"/>
					</g>
					<path class="st5" d="M70.7,268.4c0,0,57.8,73.2,78.7,122.9"/>
				</g>
			</g>
		</g>
		<g>
			<g>
				<g>
					<path class="st0" d="M629.9,337.6c0,0,34.2-8.9,40.1-42.3c5.9-33.4-12-53.1-13.6-60.6c0,0-31.8,19.2-37.5,48.3
						C613.1,312.1,629.9,337.6,629.9,337.6z"/>
					<g>
						<path class="st1" d="M651.4,253.6c0,0-3.2,40.5-21.4,83.9"/>
						<path class="st1" d="M661.4,259c0,0-4.8,3.7-13.6,18.6"/>
						<path class="st1" d="M641,253.5c0,0,4.7,18.4,5.3,31.6"/>
						<path class="st1" d="M665.6,278.8c0,0-12.9,7.7-22.4,19"/>
						<path class="st1" d="M632.7,269.7c0,0,7.7,21.6,8.8,34.8"/>
						<path class="st1" d="M663.3,297.4c0,0-16.6,8.3-24.8,16.9"/>
						<path class="st1" d="M627,290.4c5.1,11,8.3,24.9,8.3,33.4"/>
					</g>
				</g>
				<g>
					<path class="st4" d="M774.3,325.8c-3.7,0.4-25-19.1-52.1-3.5c0,0-32.1-11.6-52.7,24.5c0,0-24.4,7-13.7,41.4
						c0,0,15.7,24.5,41.7,13.1c0,0,22,3,35.6-5.7c18.6-11.8,19.3-28.8,19.3-28.8S770.8,353.7,774.3,325.8z"/>
					<g>
						<path class="st5" d="M752.5,334.1c0,0-57.5,19.9-96.8,54.1"/>
						<path class="st5" d="M751.7,345.5c0,0-12.5-3-24.5-1.1"/>
						<path class="st5" d="M737.3,325.4c0,0-8.4,13.6-21.7,24.5"/>
						<path class="st5" d="M741.1,367c0,0-17.2-12-36.7-11.3"/>
						<path class="st5" d="M708.8,329.9c0,0-6.9,20.4-16.6,32.5"/>
						<path class="st5" d="M721,381.6c0,0-21.1-13-40.7-11.8"/>
						<path class="st5" d="M682.6,343.7c0,0-6,23.4-12,32.8"/>
						<path class="st5" d="M688.7,390.8c0,0-13.4-7.6-27.7-6.7"/>
					</g>
				</g>
				<g>
					<g>
						<path class="st6" d="M688.1,296.1c0,0,10-16.2,12.8-29.6c2.8-13.4-2.6-26.2-6.5-26.7c-3.9-0.4-6.1,8.2-7,19.5
							C686.2,275.7,689.5,281.3,688.1,296.1z"/>
						<path class="st6" d="M667.5,327c0,0,10-16.2,12.9-29.6s-2.5-26.3-6.4-26.7c-3.9-0.4-6.1,8.2-7,19.5
							C665.7,306.6,669,312.2,667.5,327z"/>
						<path class="st6" d="M647.6,361.9c0,0,10-16.2,12.9-29.6c2.8-13.4-2.5-26.3-6.4-26.7c-3.9-0.4-6.1,8.2-7,19.5
							C645.8,341.5,649.1,347.1,647.6,361.9z"/>
						<path class="st6" d="M698.4,281.5c0,0,9.2-13.5,18.6-20.3c9.5-6.9,21.4-7.2,23.1-4.3c1.7,2.9-4.3,7.6-12.8,12.3
							C715,275.8,709.5,275.2,698.4,281.5z"/>
						<path class="st6" d="M675.2,315.1c0,0,10.3-17.2,21.5-26.3c11.2-9.1,25.8-10.3,28.1-6.9s-4.7,9.7-14.9,16
							C695.2,307,688.3,306.6,675.2,315.1z"/>
						<path class="st6" d="M655.1,347.9c0,0,10.1-17.3,21.2-26.5c11.1-9.2,25.7-10.6,28-7.2c2.3,3.4-4.6,9.7-14.7,16.1
							C675,339.6,668.2,339.2,655.1,347.9z"/>
						<path class="st6" d="M642.1,374.3c0,0,8.9-16.6,18.9-25.6c10-9,23.6-10.9,26-7.8c2.3,3.1-3.9,9.3-13.2,15.6
							C660.4,365.8,654,365.7,642.1,374.3z"/>
					</g>
					<path class="st0" d="M720.3,252.3c0,0-57.8,73.2-78.7,122.9"/>
				</g>
			</g>
		</g>
	</g>
	<path class="st7" d="M139,417.6c0,0-14.1-33.5,6.2-77.3c20.4-44.1,33.9-62.3,30.3-113.2c-3.7-51.6-1.7-85.3,41.4-113.6
		c43-28.2,74.7-22,94.6-35.6c19.9-13.5,37.8-57,91.9-53c53.4,4,66.4,61.4,107.4,72.2c40.6,10.7,84.6,30.6,93.9,83.4
		c9.2,52-2.6,80.7,17.3,115c19.7,33.9,46,72.8,23.4,122H139z"/>
</g>
<g id="OBJECTS">
	<g>
		<g>
			<polygon class="st8" points="619.5,378.3 170.6,378.3 66.8,467.2 723.3,467.2 			"/>
			<line class="st9" x1="211.4" y1="378.3" x2="126.4" y2="467.2"/>
			<line class="st9" x1="578.7" y1="378.3" x2="663.7" y2="467.2"/>
			<rect x="66.8" y="467.2" class="st10" width="656.4" height="2.9"/>
		</g>
		<g>
			<g>
				<g>
					<path class="st11" d="M578.9,392.3c-1.8-5.8-23.6-14.8-57.7-20.4s-67.1-5.3-67.1-5.3l-56.9,10.6l-56.9-10.6
						c0,0-33-0.3-67.1,5.3s-55.9,14.6-57.7,20.4s-2.6,28.5,3.8,33.5c6.5,5,176.8,9.7,177.9,9.7v0c0,0,0,0,0,0l0,0v0
						c1.1,0,171.4-4.7,177.9-9.7C581.5,420.7,580.6,398.1,578.9,392.3z"/>
					<path class="st12" d="M341,372.5c0,0,27.8,17.4,44.3,51.8"/>
					<path class="st12" d="M453.3,372.5c0,0-27.8,17.4-44.3,51.8"/>
				</g>
			</g>
			<g>
				<path class="st11" d="M411.5,196.5c13.2-4.7,8.8-17.3,8.8-17.3c3.5,6.8,10.2,7.5,10.2,7.5c-4-9.3,6.7-20.2,10.3-26.5
					c3.7-6.3,3.3-25.2,1.4-36h-90c-1.9,10.8-2.2,29.7,1.4,36c3.7,6.3,14.3,17.2,10.3,26.5c0,0,6.7-0.7,10.2-7.5
					c0,0-4.3,12.7,8.8,17.3H411.5z"/>
				<g>
					<path class="st13" d="M397.1,246.2C397.1,246.2,397.1,246.2,397.1,246.2L397.1,246.2c23.6-14,32-32.5,32-32.5l-14.8-7.5
						c-2.5-10.9,0-20.7,0-20.7l-17.3,1l-17.3-1c0,0,2.5,9.8,0,20.7l-14.8,7.5C365.1,213.7,373.5,232.2,397.1,246.2L397.1,246.2z"/>
					<path class="st14" d="M413.5,190.9c0.3-3.3,0.9-5.5,0.9-5.5l-17.3,1l-17.3-1c0,0,0.5,2.1,0.9,5.5c3.6,3.3,9.6,7.8,16.4,7.8
						C403.9,198.7,409.9,194.3,413.5,190.9z"/>
				</g>
				<g>
					<path class="st13" d="M397.2,100.6L397.2,100.6C397.1,100.6,397.1,100.6,397.2,100.6C397.1,100.6,397.1,100.6,397.2,100.6
						L397.2,100.6c-30.2,0-41.5,27.4-39.4,47.5c2.6,25.1,13.7,40.4,39.4,40.4v0c0,0,0,0,0,0c0,0,0,0,0,0v0
						c25.7,0,36.9-15.3,39.4-40.4C438.6,128,427.4,100.6,397.2,100.6z"/>
					<g>
						<path class="st11" d="M419.1,100.6c0,0-4.8-17.3-13.8-17.6s-15.3,6.5-23.8,7.8c-8.5,1.3-19.3,2.3-30.7-5.5
							c0,0-1.5,11.3,4.4,16.5c0,0-7.5-0.2-10.8,6.8c-3.3,7-0.2,19-12.7,23.4c0,0,9.3,13.6,33.4,9.4c24.1-4.2,43.7-30.5,43.7-30.5
							s5.5,21.2,18.5,28.4c13,7.1,26.5-3,26.5-3s-7-3.8-9-9.2c-2-5.3-1.5-20.3-7.3-26.6C431.7,94.3,419.1,100.6,419.1,100.6z"/>
						<g>
							<g>
								<path class="st10" d="M419.1,100.6c-2.2,0-4.3-0.1-6.5-0.3l0.5-0.5c0.6,2.6,1.2,5.2,1.7,7.8l0.1,0.3l-0.3,0.1
									c-1.9,0.8-3.8,1.6-5.8,2.3c1.8-1.1,3.6-2.1,5.4-3.1l-0.2,0.5c-0.6-2.6-1.2-5.2-1.7-7.8l-0.1-0.6l0.6,0.1
									C414.9,99.7,417,100.1,419.1,100.6z"/>
							</g>
							<g>
								<path class="st10" d="M453.9,136.3c-2.2,0.6-4.5,0.7-6.8,0.4c-2.3-0.3-4.5-1-6.5-2.4c-1.9-1.3-3.4-3.2-4.5-5.3
									c-1.1-2-1.9-4.2-2.8-6.3c-1.6-4.2-3.3-8.5-6.5-11.6c-1.6-1.5-3.6-2.6-5.7-3.2c-2.2-0.6-4.4-0.6-6.7-0.4
									c2.2-0.4,4.5-0.5,6.8-0.1c2.3,0.5,4.4,1.5,6.2,3.1c1.7,1.6,3,3.5,4.1,5.5c1.1,2,1.9,4.1,2.8,6.2c0.8,2.1,1.6,4.2,2.6,6.2
									c1,2,2.4,3.7,4.1,5.1c1.7,1.3,3.9,2.1,6.1,2.5C449.4,136.7,451.6,136.7,453.9,136.3z"/>
							</g>
							<g>
								<path class="st10" d="M422.4,99.3c2.2,0.2,4.2,1.5,5.8,3.1c1.6,1.6,2.7,3.6,3.5,5.7l0.3,0.8l0.2,0.8l0.4,1.6
									c0.2,1.1,0.4,2.2,0.5,3.3c0.1,1.1,0.2,2.2,0.2,3.3c0,1.1-0.1,2.2-0.1,3.3c-0.2-1.1-0.2-2.2-0.4-3.2
									c-0.1-1.1-0.3-2.1-0.5-3.2c-0.2-1.1-0.4-2.1-0.7-3.1l-0.5-1.5l-0.2-0.8l-0.3-0.7c-0.7-2-1.7-3.9-3.1-5.5
									c-0.3-0.4-0.7-0.8-1.1-1.2c-0.4-0.3-0.8-0.7-1.2-1C424.4,100.1,423.5,99.6,422.4,99.3z"/>
							</g>
							<g>
								<path class="st10" d="M412.7,99.8c-3.2-2.1-6.7-3.7-10.3-4.6c-3.6-1-7.4-1.4-11.2-1c-3.7,0.4-7.4,1.5-10.7,3.2
									c-3.2,1.8-5.8,4.7-7.7,7.9c-3.9,6.4-6.1,13.8-9.5,20.7c-1.7,3.4-3.7,6.8-6.3,9.5c-1.3,1.4-2.8,2.6-4.5,3.6
									c-1.7,1-3.4,1.7-5.3,2.2c1.8-0.6,3.5-1.4,5.1-2.4c1.6-1,3-2.3,4.3-3.7c2.5-2.8,4.4-6.1,6-9.5c1.6-3.4,3-7,4.4-10.5
									c1.4-3.5,2.9-7.1,4.9-10.4c2-3.3,4.7-6.3,8.1-8.2c3.5-1.7,7.2-2.8,11.1-3.1C398.8,92.9,406.6,95.3,412.7,99.8z"/>
							</g>
							<g>
								<path class="st10" d="M331.7,132.1c1.7-0.1,3.3-0.3,4.9-0.6c1.6-0.2,3.3-0.6,4.9-0.9c3.2-0.8,6.4-1.7,9.4-3
									c3.1-1.2,5.9-2.8,8.7-4.6l2-1.4c0.6-0.5,1.2-1.1,1.9-1.6l0.9-0.8l0.9-0.9c0.6-0.6,1.2-1.2,1.7-1.8c-2,2.7-4.3,5.2-7,7.1
									c-2.7,2-5.6,3.7-8.7,4.9c-3.1,1.2-6.3,2.2-9.6,2.8C338.4,131.8,335,132.2,331.7,132.1z"/>
							</g>
						</g>
					</g>
					<g>
						<path class="st11" d="M375.1,143.2c2,1.1,4.5,2.6,6.7,2.7c0,0,0,0,0,0c2.4,0,4.3-1.2,6.1-2.7c-0.7,2.7-3.3,4.6-6.1,4.7
							C379.1,147.8,376.2,145.7,375.1,143.2z"/>
					</g>
					<g>
						<path class="st11" d="M419.1,143.2c-1.1,2.5-4,4.7-6.8,4.7c-2.7,0-5.4-1.9-6.1-4.7c1.8,1.5,3.8,2.7,6.1,2.7c0,0,0,0,0,0
							C414.6,145.8,417.1,144.3,419.1,143.2z"/>
					</g>
					<g>
						<path class="st11" d="M397.1,132.1c-0.8,2.7-1.2,5.5-1.4,8.3c-0.1,1.4-0.1,2.8-0.1,4.2c0,1.4,0.2,2.8,0.3,4.1l-0.9-0.9
							c1.8,0.2,3.6,0.4,5.3,0.9c0.9,0.2,1.8,0.4,2.8,1.1c0.2,0.2,0.6,0.4,0.7,1c0,0.2,0,0.5,0,0.7l-0.1,0.4
							c-0.2,0.5-0.4,0.9-0.6,1.4c-0.9,1.6-1.9,3.1-3,4.5c-1.1,1.4-2.3,2.7-3.7,3.8c1.1-1.4,2-2.9,2.9-4.4c0.9-1.5,1.7-3,2.4-4.6
							c0.2-0.4,0.3-0.8,0.4-1.1l0-0.2c0,0,0,0,0,0c0.1,0.1,0,0.1-0.1,0c-0.5-0.3-1.4-0.5-2.2-0.7c-1.6-0.4-3.4-0.6-5.1-0.8l-0.8-0.1
							l-0.1-0.8c-0.1-0.7-0.1-1.4-0.2-2.2c0-0.7,0-1.5,0-2.2c0-1.5,0.2-2.9,0.4-4.3c0.2-1.4,0.6-2.8,1-4.2
							C395.8,134.6,396.4,133.3,397.1,132.1z"/>
					</g>
					<g>
						<path class="st11" d="M384.2,166.7c2,1,4.1,1.8,6.2,2.3c2.1,0.5,4.2,0.7,6.3,0.5c0.5,0,1-0.1,1.6-0.2c0.5-0.1,1-0.1,1.6-0.3
							l1.5-0.4c0.5-0.2,1-0.4,1.5-0.5l0.8-0.3l0.7-0.3l1.5-0.7c1-0.5,1.9-1.1,3-1.6c-0.8,0.8-1.6,1.7-2.4,2.4l-1.4,1
							c-0.2,0.2-0.5,0.3-0.7,0.5l-0.8,0.4c-2,1.2-4.4,1.7-6.7,1.9c-0.6,0-1.2,0.1-1.8,0c-0.6-0.1-1.2-0.1-1.8-0.2l-1.7-0.4
							c-0.6-0.1-1.1-0.4-1.7-0.5C387.8,169.7,385.8,168.4,384.2,166.7z"/>
					</g>
					<path class="st11" d="M371.8,133.2c0.1-4,4.1-7.1,7.6-8.1c3.8-1.1,8.3-0.4,11,2.7c0.1,0.1,0.6,0.8,0.1,0.8
						c-0.9-0.1-1.7-0.3-2.6-0.3c-2.1-0.1-4,0-6,0.3c-2.2,0.4-4.3,1.2-6.2,2.3c-0.9,0.5-1.7,1.1-2.5,1.7
						C372.8,132.9,372.1,133.8,371.8,133.2z"/>
					<path class="st11" d="M405.1,129.6c1.6-3.3,6.3-4.7,9.6-4c3.5,0.7,6.9,2.8,7.7,6.5c0.1,0.3,0.1,1-0.3,0.7
						c-0.7-0.5-1.5-0.9-2.2-1.3c-1.6-0.9-3.4-1.5-5.1-1.8c-1.8-0.3-3.6-0.5-5.4-0.3c-1,0.1-1.9,0.2-2.9,0.4
						C406,129.7,405.1,130.3,405.1,129.6z"/>
					<g>
						<g>
							<path class="st13" d="M362.4,167.7l-4.6-18.4c0,0-6-14.1-15.6-8.6C334.1,145.3,343.4,171.4,362.4,167.7z"/>
							<path class="st14" d="M342.1,157.3C342.1,157.3,342.1,157.3,342.1,157.3c3.7,6.7,10.8,12.3,20.3,10.4l-4.6-18.4
								C357.8,149.3,343.8,140.8,342.1,157.3z"/>
						</g>
					</g>
					<g>
						<g>
							<path class="st13" d="M431.9,167.7l4.6-18.4c0,0,6-14.1,15.6-8.6C460.2,145.3,450.9,171.4,431.9,167.7z"/>
							<path class="st14" d="M452.2,157.3C452.2,157.3,452.2,157.3,452.2,157.3c-3.7,6.7-10.8,12.3-20.3,10.4l4.6-18.4
								C436.4,149.3,450.5,140.8,452.2,157.3z"/>
						</g>
					</g>
				</g>
			</g>
			<g>
				<g>
					<path class="st13" d="M230.3,368.9c-1.2,1.2-5.8-2.3-7.8-2.6c-2-0.2-10.8,0.6-12.7,0.4c-1.9-0.2-4.5-1.7-6.6-1.3
						c-2.2,0.4-6.3,2.5-6.8,3.4c-0.5,1-0.4,2.7,1.6,2.8c2,0.1,4.7,0.7,6.1,0.6c1.4-0.2,3.9,0.2,5.1,1.2c1.2,1,2.1,4.8,1.9,6.4
						c-0.2,1.6-2,3.4-2.6,3.9c-0.6,0.4-4.2,0.6-5.6,1.7c0,0-3.3-0.1-3.4-0.9c-0.2-0.8-0.7-4.3-0.6-6.2c0.1-1.8,1.2-3.7,0.2-6
						c-0.8-1.6-2.9-3.7-3.8-2.4c-0.9,1.3-0.6,4.1-2.2,9.5c-1,3.3,0.7,9.8,1.6,10.5c0.9,0.8,7.2,1.5,7.2,1.5c0.5,0.1-6.3,4.6-8.5,5.3
						c-2.1,0.7-10.5,2-12.5,3.2c-2,1.2-4,4.3-3.5,5.1c0.5,0.8,6.9-1,11.2-1.3c4.3-0.3,7.4-1.9,8.2-2.1s3.7-1.6,3.8-1.4
						c0.1,0.2-3.8,4.7-4.6,5.2c-0.8,0.5-5.7,2.2-7.6,4c-1.9,1.7-2.8,5.6-2.1,6c0.7,0.4,5.6-3,8.1-3.5c2.5-0.6,5.4-1.9,6.2-2.6
						c0.8-0.6,5.9-5.9,6.4-6.2c0.4-0.3-2.6,3.1-3.4,5c-0.8,2-1,4.1-0.6,4.6c0.4,0.4,1.4,0.9,2,0.3c0.6-0.6,4.3-4.9,5.8-6.2
						c1.5-1.3,4.9-5.6,5.4-6.4c0.5-0.8,1.2-4.4,1.8-5.7c0.6-1.3,14-10.8,15.5-12c2.6-2.1,56.5-40.6,59-45.3
						c2.5-4.7-9-24.5-19.1-19.7C263,322.7,236.3,363.1,230.3,368.9z"/>
					<g>
						<path class="st14" d="M207,403.2c0.5-1.3,1.1-2.4,1.8-3.5c0.2-0.3,0.3-0.5,0.4-0.8c0.1-0.3,0.3-0.6,0.5-0.9
							c0.3-0.6,0.7-1.1,1.2-1.6c-0.1,0.7-0.3,1.3-0.5,1.9c-0.1,0.3-0.2,0.6-0.3,0.9c-0.1,0.3-0.3,0.6-0.4,0.9
							C208.9,401.3,208.1,402.3,207,403.2z"/>
					</g>
					<g>
						<path class="st14" d="M200.7,400.2c0.2-0.8,0.7-1.5,1.2-2.1c0.5-0.6,1-1.2,1.6-1.8l0.9-0.8l0.2-0.2c0.1-0.1,0.1-0.1,0.1-0.1
							c0.1-0.1,0.2-0.3,0.2-0.5c0.1-0.3,0.3-0.7,0.4-1.1c0.1-0.4,0.3-0.8,0.2-1.1c0.3,0.3,0.2,0.8,0.2,1.2c0,0.4,0,0.8-0.1,1.2
							c0,0.2-0.1,0.4-0.2,0.6c0,0.1-0.1,0.3-0.2,0.4l-0.2,0.2l-0.8,0.8C203,398.1,201.8,399.1,200.7,400.2z"/>
					</g>
					<g>
						<path class="st14" d="M228.7,374.8c-1.6,0.7-3,1.6-4.4,2.6c-1.3,1.1-2.4,2.3-3.1,3.8c-0.8,1.5-1.5,3-2.3,4.6
							c-0.7,1.5-1.5,3.1-2.4,4.6c0.5-1.7,1-3.3,1.6-4.9c0.6-1.6,1.3-3.2,2.1-4.7c0.4-0.8,0.9-1.5,1.5-2.2c0.6-0.7,1.3-1.3,2-1.7
							C225.4,375.9,227,375.2,228.7,374.8z"/>
					</g>
				</g>
				<g>
					<path class="st13" d="M564,368.9c1.2,1.2,5.8-2.3,7.8-2.6c2-0.2,10.8,0.6,12.7,0.4c1.9-0.2,4.5-1.7,6.6-1.3
						c2.2,0.4,6.3,2.5,6.8,3.4c0.5,1,0.4,2.7-1.6,2.8c-2,0.1-4.7,0.7-6.1,0.6c-1.4-0.2-3.9,0.2-5.1,1.2c-1.2,1-2.1,4.8-1.9,6.4
						c0.2,1.6,2,3.4,2.6,3.9c0.6,0.4,4.2,0.6,5.6,1.7c0,0,3.3-0.1,3.4-0.9c0.2-0.8,0.7-4.3,0.6-6.2c-0.1-1.8-1.2-3.7-0.2-6
						c0.8-1.6,2.9-3.7,3.8-2.4c0.9,1.3,0.6,4.1,2.2,9.5c1,3.3-0.7,9.8-1.6,10.5c-0.9,0.8-7.2,1.5-7.2,1.5c-0.5,0.1,6.3,4.6,8.5,5.3
						c2.1,0.7,10.5,2,12.5,3.2c2,1.2,4,4.3,3.5,5.1c-0.5,0.8-6.9-1-11.2-1.3c-4.3-0.3-7.4-1.9-8.2-2.1s-3.7-1.6-3.8-1.4
						c-0.1,0.2,3.8,4.7,4.6,5.2c0.8,0.5,5.7,2.2,7.6,4c1.9,1.7,2.8,5.6,2.1,6c-0.7,0.4-5.6-3-8.1-3.5s-5.4-1.9-6.2-2.6
						c-0.8-0.6-5.9-5.9-6.4-6.2c-0.4-0.3,2.6,3.1,3.4,5c0.8,2,1,4.1,0.6,4.6c-0.4,0.4-1.4,0.9-2,0.3s-4.3-4.9-5.8-6.2
						c-1.5-1.3-4.9-5.6-5.4-6.4c-0.5-0.8-1.2-4.4-1.8-5.7c-0.6-1.3-14-10.8-15.5-12c-2.6-2.1-56.5-40.6-59-45.3
						c-2.5-4.7,9-24.5,19.1-19.7C531.2,322.7,558,363.1,564,368.9z"/>
					<g>
						<path class="st14" d="M587.3,403.2c-1.1-0.8-1.9-1.9-2.6-3c-0.2-0.3-0.3-0.6-0.4-0.9c-0.1-0.3-0.2-0.6-0.3-0.9
							c-0.2-0.6-0.4-1.2-0.5-1.9c0.5,0.5,0.8,1.1,1.2,1.6c0.2,0.3,0.3,0.6,0.5,0.9c0.1,0.3,0.3,0.5,0.4,0.8
							C586.2,400.8,586.8,401.9,587.3,403.2z"/>
					</g>
					<g>
						<path class="st14" d="M593.6,400.2c-1.2-1.1-2.3-2.1-3.4-3.2l-0.8-0.8l-0.2-0.2c-0.1-0.1-0.2-0.3-0.2-0.4
							c-0.1-0.2-0.2-0.4-0.2-0.6c-0.1-0.4-0.1-0.8-0.1-1.2c0-0.4,0-0.8,0.2-1.2c0,0.4,0.1,0.8,0.2,1.1c0.1,0.4,0.2,0.7,0.4,1.1
							c0.1,0.2,0.1,0.3,0.2,0.5c0,0.1,0.1,0.1,0.1,0.1l0.2,0.2l0.9,0.8c0.6,0.6,1.1,1.1,1.6,1.8
							C592.9,398.8,593.4,399.5,593.6,400.2z"/>
					</g>
					<g>
						<path class="st14" d="M565.6,374.8c1.7,0.3,3.3,1,4.8,2c0.7,0.5,1.4,1.1,2,1.7c0.6,0.7,1.1,1.4,1.5,2.2
							c0.8,1.5,1.5,3.1,2.1,4.7c0.6,1.6,1.2,3.2,1.6,4.9c-0.8-1.5-1.6-3.1-2.4-4.6c-0.8-1.5-1.5-3.1-2.3-4.6
							c-0.8-1.5-1.8-2.7-3.1-3.8C568.6,376.4,567.1,375.5,565.6,374.8z"/>
					</g>
				</g>
				<g>
					<g>
						<path class="st0" d="M531,317.1c-1-1.9-9-4.1-9.5-5.1s1-7.8,0-9.2s-8.5-4.8-10.7-7.2c-2.2-2.5-11.5-14.5-14.1-19.2
							c-2.6-4.8-20.4-39.5-25.6-44.5s-17.8-11-29-15.9s-24.8-10.3-24.8-10.3S409,222,397.1,222c-11.8,0-20.1-16.5-20.1-16.5
							s-13.5,5.4-24.8,10.3c-11.2,4.9-23.7,10.9-29,15.9s-23,39.8-25.6,44.5c-2.6,4.8-11.9,16.8-14.1,19.2s-9.8,5.8-10.8,7.2
							s0.5,8.2,0,9.2s-8.5,3.2-9.5,5.1c-1,1.9-1.2,10.4,3.8,16.4s19.1,12,23.8,10.5s5-6.8,6.8-8.5c1.9-1.8,6.9-1.5,9.1-4
							s5.5-10.2,7.5-12.8s24.2-21,25-21.2c0.8-0.2,4.8,27.2,5.3,31.2s-2.3,7.2-2.4,9c-0.1,1.8,2.2,6,2.4,6.5s-3.3,3.5-3.5,5
							c-0.2,1.5,2,7.5,1.1,8.5c-0.8,1-8.1,1-9.6,3.2s-1.3,5.7-1.3,5.7s18.4,21.3,66.4,21.3s65.3-21.3,65.3-21.3s0.2-3.5-1.3-5.7
							s-8.8-2.2-9.6-3.2c-0.8-1,1.3-7,1.1-8.5c-0.2-1.5-3.8-4.5-3.5-5s2.5-4.7,2.4-6.5c-0.1-1.8-2.9-5-2.4-9s4.5-31.5,5.3-31.2
							c0.8,0.2,23,18.8,25,21.2s5.2,10.2,7.5,12.8s7.2,2.2,9.1,4c1.9,1.8,2.1,7,6.8,8.5c4.7,1.5,18.8-4.5,23.8-10.5
							S532,319,531,317.1z"/>
						<path class="st3" d="M283.5,295.5c-2.2,2.5-9.8,5.8-10.8,7.2s0.5,8.2,0,9.2s-8.5,3.2-9.5,5.1c-1,1.9-1.2,10.4,3.8,16.4
							s19.1,12,23.8,10.5s5-6.8,6.8-8.5c1.9-1.8,6.9-1.5,9.1-4s5.5-10.2,7.5-12.8s24.2-21,25-21.2c0,0-3.7-27.8-7.5-44.8
							s-8.5-21-8.5-21c-5.2,5-23,39.8-25.6,44.5C295,281,285.8,293,283.5,295.5z"/>
						<path class="st3" d="M510.7,295.5c2.2,2.5,9.7,5.8,10.7,7.2s-0.5,8.2,0,9.2s8.5,3.2,9.5,5.1c1,1.9,1.2,10.4-3.8,16.4
							s-19.1,12-23.8,10.5c-4.7-1.5-5-6.8-6.8-8.5c-1.9-1.8-6.9-1.5-9.1-4s-5.5-10.2-7.5-12.8s-24.2-21-25-21.2
							c0,0,3.7-27.8,7.5-44.8s8.5-21,8.5-21c5.2,5,23,39.8,25.6,44.5C499.2,281,508.5,293,510.7,295.5z"/>
						<g>
							<path class="st15" d="M397.1,286.5c-25.1,0-49.5-2.5-60-3.7c1.3,8.4,2.1,14.7,2.1,14.7c0.3-0.1,1.3,4.9,2.3,10.9
								c12.9,1.3,33.8,3.1,55.6,3.1c21.8,0,42.7-1.7,55.6-3.1c1-6.1,1.9-11,2.3-10.9c0,0,0.8-6.3,2.1-14.7
								C446.6,284,422.3,286.5,397.1,286.5z"/>
						</g>
						<path class="st15" d="M460.6,261.9c-8.6,1.1-35.5,4.1-63.5,4.1c-28,0-54.9-3-63.5-4.1c0.8,4.4,1.6,9,2.3,13.4
							c11.5,1.3,35.6,3.7,61.2,3.7c25.6,0,49.7-2.4,61.2-3.7C459,270.9,459.8,266.3,460.6,261.9z"/>
						<path class="st3" d="M423.5,208c-3.7-1.5-6.2-2.5-6.2-2.5S409,222,397.1,222c-11.8,0-20.1-16.5-20.1-16.5s-2.5,1-6.2,2.5
							c2.6,7.5,12.1,21,26.3,21S420.8,215.6,423.5,208z"/>
					</g>
					<g>
						<path class="st16" d="M275.7,306.2c0,0,2.8,14.8,20.3,25.5"/>
						<path class="st16" d="M283.5,313.5c0,0,12,1.2,25.3,5.5"/>
						<path class="st16" d="M266.5,319c0,0,8.8,9.2,27.8,16"/>
					</g>
					<g>
						<g>
							<path class="st16" d="M518.6,306.2c0,0-2.8,14.8-20.3,25.5"/>
							<path class="st16" d="M510.7,313.5c0,0-12,1.2-25.3,5.5"/>
							<path class="st16" d="M527.7,319c0,0-8.8,9.2-27.7,16"/>
						</g>
					</g>
					<g>
						<g>
							<g>
								<path class="st17" d="M375.1,261.7c0,0,26.7-11.8,56.9-15.5"/>
								<path class="st17" d="M405.3,254c0,0,18-1,32.2,6"/>
							</g>
						</g>
						<g>
							<g>
								<path class="st17" d="M344.8,358c0,0,45,26.7,98,16.8"/>
								<path class="st17" d="M448,346c0,0-22.8,20.5-62.8,24c0,0,41,0.7,50-3.4c9-4.1,12.8-15.6,12.8-15.6"/>
								<path class="st17" d="M352.3,339.8c0,0,20,15.3,46.5,23.8"/>
							</g>
						</g>
					</g>
				</g>
			</g>
			<g>
				<path class="st18" d="M485.3,403.9c3-10,9.5-24.6,13.6-26.2s9.8,3,11.5,3.3c1.6,0.3,3.1-2.9,6-3c3-0.1,5.4,4.2,6.6,4.1
					c1.2-0.1,44.4-0.9,51,5.5c6.7,6.4,9.9,28.6,0.5,38.6c-9.4,9.9-46.3,8.9-53.6,8.7c-7.3-0.2-12.4,0.9-15-0.3
					c-6.4-3-8.7,0.4-12.1-0.2c-5.2-1-8.9,0.6-13.3-1.1C476.1,431.5,485.3,403.9,485.3,403.9z"/>
				<g>
					<path class="st14" d="M325.5,407.9c3.3-0.6,11.3-4.1,20.7-4.2c9.5-0.1,17-2.4,21-6.8c3.9-4.4,12.7-13.7,20.7-10.4
						s9.1,18.2,16.7,19.1c6.4,0.8,75.2-13.1,96.2-17.4c-1.6,9.2-5.8,28.2-15.3,41.7c-28.1-2.7-80.7-6.5-92.1-7.3
						c-14.1-0.9-70.6-7.7-74.3-8.6C315.3,413.2,322.2,408.5,325.5,407.9z"/>
					<path class="st12" d="M501.6,382.7c0,0-3.6,32.5-18.7,50.7"/>
				</g>
				<g>
					<path class="st12" d="M510.1,384.5c0,0,4.1,11,3.9,25.4c-0.2,14.4-4.9,21.4-6.5,20.9c-1.5-0.5,2.4-23.6,2.7-36.7"/>
					<path class="st12" d="M507.4,400.8c0,0-4.5,19.4-11.8,30.5"/>
				</g>
			</g>
			<g>
				<path class="st18" d="M304.9,412.9c-2.2-10.2-7.5-25.3-11.4-27.3c-3.9-2-10,2.2-11.7,2.4c-1.6,0.2-2.8-3.1-5.8-3.5
					c-2.9-0.4-5.7,3.7-6.9,3.5c-1.2-0.2-44.1-4.6-51.3,1.2c-7.2,5.8-12.3,27.7-3.8,38.4c8.5,10.7,45.4,12.8,52.7,13.1
					c7.3,0.4,12.3,2,15,1c6.6-2.4,8.7,1.2,12.1,0.8c5.3-0.6,8.8,1.4,13.3,0C311.8,441.1,304.9,412.9,304.9,412.9z"/>
				<g>
					<path class="st13" d="M463.9,430.2c-3.2-0.9-10.9-5-20.3-5.9c-9.4-0.9-16.8-3.8-20.3-8.5c-3.5-4.7-11.5-14.7-19.7-12.1
						c-8.2,2.6-10.6,17.4-18.3,17.7c-6.5,0.2-73.8-19.3-94.4-25.3c0.8,9.3,3.5,28.6,11.7,42.9c28.2-0.4,80.9,0.2,92.4,0.4
						c14.1,0.3,70.9-1.8,74.8-2.4C473.6,436.3,467.1,431,463.9,430.2z"/>
					<path class="st12" d="M290.5,390.4c0,0,0.9,32.7,14.4,52.1"/>
				</g>
				<g>
					<path class="st12" d="M281.8,391.5c0,0-5,10.6-6,25c-1,14.4,3.1,21.7,4.7,21.3c1.6-0.4-0.5-23.7,0.4-36.8"/>
					<path class="st12" d="M283.2,408c0,0,2.9,19.7,9.2,31.3"/>
				</g>
			</g>
		</g>
	</g>
</g>
</svg>
