<?xml version="1.0" encoding="utf-8"?>
<!-- Generator: Adobe Illustrator 25.2.0, SVG Export Plug-In . SVG Version: 6.00 Build 0)  -->
<svg version="1.1" id="Layer_1" xmlns="http://www.w3.org/2000/svg" xmlns:xlink="http://www.w3.org/1999/xlink" x="0px" y="0px"
	 viewBox="0 0 1587.1 1767.8" style="enable-background:new 0 0 791.2 500;" xml:space="preserve">
<style type="text/css">
	.st0{fill:#FFFFFF;}
	.st1{opacity:0.1;fill:#A7D3F9;}
	.st2{fill:#262525;}
	.st3{fill:none;stroke:#262525;stroke-width:16;stroke-miterlimit:10;}
	.st4{fill:#F2DBD5;}
	.st5{opacity:0.52;fill:#7A8494;}
	.st6{fill:#4E6B5C;}
	.st7{fill:#96BC9F;}
	.st8{fill:#CAD9FC;}
	.st9{fill:#603B23;}
	.st10{fill:#2F2933;}
	.st11{fill:#1E1D40;}
	.st12{fill:#D6807C;}
	.st13{fill:#42210B;}
	.st14{fill:#F4B382;}
	.st15{fill:#1C191F;}
	.st16{fill:none;stroke:#1C191F;stroke-width:1.6089;stroke-linecap:round;stroke-linejoin:round;stroke-miterlimit:10;}
	.st17{fill:none;stroke:#1C191F;stroke-width:3.2178;stroke-linecap:round;stroke-linejoin:round;stroke-miterlimit:10;}
	.st18{fill:#383438;}
	.st19{fill:#474747;}
	.st20{fill:#F2709C;}
	.st21{fill:#E2A379;}
	.st22{opacity:0.61;fill:#F9788E;}
	.st23{fill:none;stroke:#E2A379;stroke-width:1.2706;stroke-linecap:round;stroke-linejoin:round;stroke-miterlimit:10;}
	.st24{fill:none;stroke:#242638;stroke-width:0.8265;stroke-linecap:round;stroke-linejoin:round;stroke-miterlimit:10;}
	.st25{fill:#E5B587;}
	.st26{opacity:0.25;fill:#FFFFFF;}
	.st27{fill:#ACCA90;}
	.st28{fill:#F96767;}
	.st29{fill:#B4C9FF;}
	.st30{fill:#7A8494;}
	.st31{fill:#A3B1C6;}
	.st32{fill:#242638;}
	.st33{fill:#D16161;}
	.st34{fill:#8CBBEA;}
	.st35{fill:#945661;}
	.st36{fill:#F7B661;}
	.st37{opacity:0.64;fill:#FFFFFF;}
	.st38{fill:#F2F2F2;}
</style>
<rect x="4187.4" y="189.2" class="st0" width="2489.6" height="2000"/>
<g>
	<ellipse class="st1" cx="847.7" cy="1584.5" rx="506.3" ry="27"/>
	<g>
		<rect x="1194.1" class="st2" width="15.8" height="401.5"/>
		<line class="st3" x1="1341.4" y1="507.8" x2="1505" y2="1508.3"/>
		<polygon class="st4" points="1430.2,246 962.7,246 817.8,916.9 1285.3,916.9 		"/>
		<rect x="797.9" y="913.4" class="st2" width="496.7" height="21"/>
		<line class="st3" x1="1271.3" y1="923.9" x2="1174.8" y2="1514.7"/>
		<line class="st3" x1="829.5" y1="923.9" x2="733" y2="1514.7"/>
	</g>
	<path class="st5" d="M1295.3,511.4c15.3-34.6,43.3-65,46.5-102.7c2.1-24.8-7.1-49.3-19.8-70.7c-12.5-20.9-29.4-40.5-52.3-49
		c-18.7-6.9-39.3-5.7-59.1-4.4c-70,4.6-142,9.6-205,40.4c-26,12.7-52.1,32.9-55.9,61.6c-3.3,25.2,11.6,48.6,23.7,70.9
		c19.4,35.6,32.7,80.9,11.6,115.5c-5.2,8.5-12.5,16.3-14,26.2c-0.9,5.9,0.3,12,0.9,18c3.1,34.1-17.4,65.7-39.2,92
		c-21.9,26.4-46.9,52.1-56,85.1c-3.1,11.1-3.8,24.3,3.8,33c5.5,6.4,14.2,8.9,22.4,10.6c36.5,7.4,75.2,3.7,109.6-10.4
		c19.8-8.1,38.2-19.6,58.8-25.7c42.9-12.7,89.7-0.5,133.2-10.4c45.8-10.5,85.6-49,91.3-95.6c4.4-36.3-10.8-71.9-13.5-108.4
		C1280.3,561.4,1284.8,535.1,1295.3,511.4z"/>
	<g>
		<g>
			<path class="st6" d="M1163.2,462.7c-5.4-2-18.2-3.7-26.7-4.7c-0.3-0.6-0.7-1.2-1-1.7c-1.7-2.6-3.7-6-5.9-9.9l26.8-0.9l-31.8-8.4
				c-10-19.6-19-45.3-5.7-55.4c10.2-7.8,25.3-0.3,39.3,14.7l-2.3,35l11.6-23.7c5.9,8.1,11.4,17.4,15.8,27.1l-7.1,24.6l10.7-16.1
				c0.1,0.3,0.3,0.7,0.4,1c0.9,2.4,1.7,4.7,2.4,7.1l-13.6,29.2l16.6-17.7c1.1,5,1.9,9.9,2.5,14.7l-14,22.7l14.9-12.1
				c1.1,22.3-3.5,39.3-9.6,40.8c-18.8,4.6-36.4-44-47.2-66C1149.2,462.5,1163.2,462.7,1163.2,462.7z"/>
			<path class="st6" d="M1180,662.8C1180,662.8,1180,662.8,1180,662.8c-0.5-0.1-0.9-0.5-0.8-1c0.1-0.7,8.6-71.2,2.7-132.9
				c-6-61.6-52.8-133.4-53.3-134.1c-0.3-0.4-0.2-1,0.3-1.3c0.4-0.3,1-0.2,1.3,0.3c0.5,0.7,47.6,72.9,53.6,134.9
				c6,61.9-2.6,132.6-2.7,133.3C1181,662.5,1180.5,662.8,1180,662.8z"/>
			<path class="st7" d="M1221.9,516.2l-11.1-11c-0.1-3.2-0.1-6.4-0.1-9.8l16.6,10.6l-16.3-20c0.6-10.9,1.8-22.6,3.7-34l24.5,19.5
				l-21.4-35.4c3.2-13.8,7.4-26.6,12.6-36.6l15.6,16.8c-0.9-15-2.1-25.6-3.4-32.9c4.5-3.6,9.4-5.3,14.7-4.5
				c17.7,2.7,22,28.9,18.2,59.4c-7.7,10-20.3,26-23.9,28.6l20.5-8.6c-9,41.2-29.5,82.8-49.4,82.3c-5.8-0.1-9.4-9.3-11-23.2
				L1221.9,516.2z"/>
			<path class="st7" d="M1193.7,672.5c-0.5,0-0.8-0.4-0.8-0.9c-0.3-40.9,6.4-61.4,17.6-95.3c3.4-10.3,7.2-21.9,11.4-35.8
				c18-59.5,33-143.4,33.2-144.2c0.1-0.5,0.6-0.8,1.1-0.7c0.5,0.1,0.8,0.6,0.7,1.1c-0.1,0.8-15.2,84.8-33.2,144.4
				c-4.2,13.9-8,25.6-11.4,35.9c-11.4,34.9-17.7,54.1-17.5,94.7C1194.7,672.1,1194.3,672.5,1193.7,672.5
				C1193.8,672.5,1193.7,672.5,1193.7,672.5z"/>
			<path class="st7" d="M1273.1,537.5c-1,7.4-2.6,21.6-2.6,21.6l20.2-23.3c29.2,1.5,55.3,17.1,52.1,36l-33.5-14.7l22.5,25.9
				c-7.7,1.7-21.7,2.1-47.5-0.5c-0.8-0.1-1.6-0.1-2.3-0.2l-18.2-16.4l9.8,16.1c-4.9,0-9.3,0.3-13.2,0.9l-13.6-11.9l7.9,13
				c-19.9,4.6-25,15-29.9,4.9C1219,576.7,1244,545.4,1273.1,537.5z"/>
			<path class="st7" d="M1196.7,672.3C1196.7,672.3,1196.7,672.3,1196.7,672.3c-0.6-0.1-0.9-0.6-0.8-1.1c0.1-0.5,9.5-53,29.6-83.5
				c20.2-30.7,60.3-30.8,81.8-30.9l0.9,0c0.5,0,0.9,0.4,0.9,0.9c0,0.5-0.4,0.9-0.9,0.9l-0.9,0c-21.2,0.1-60.6,0.3-80.3,30.1
				c-19.9,30.1-29.2,82.2-29.3,82.8C1197.6,672,1197.2,672.3,1196.7,672.3z"/>
			<path class="st7" d="M1127.3,523.9c-0.4,7.5-1.4,21.7-1.4,21.7l-15.6-26.6c-29-4-57.6,6.6-57.9,25.8l35.6-8.3l-26.9,21.3
				c7.2,3,20.9,6.1,46.8,8.3c0.8,0.1,1.6,0.2,2.3,0.2l20.9-12.8l-12.6,14c4.9,0.9,9.1,2.1,12.8,3.4l15.6-9.2l-10.2,11.3
				c18.7,8.2,21.8,19.3,28.5,10.3C1173.3,572.5,1154.5,537.1,1127.3,523.9z"/>
			<path class="st7" d="M1177.5,670.5c-0.5,0-0.8-0.4-0.8-0.9c0-0.5,0.4-53.5-13.5-86.8c-13.8-32.9-52.5-40.4-73.4-44.4l-0.8-0.2
				c-0.5-0.1-0.8-0.6-0.7-1.1c0.1-0.5,0.6-0.9,1.1-0.7l0.8,0.2c21.1,4.1,60.5,11.7,74.7,45.5c14.1,33.6,13.7,87,13.7,87.5
				C1178.5,670.1,1178.1,670.5,1177.5,670.5C1177.6,670.5,1177.6,670.5,1177.5,670.5z"/>
			<path class="st6" d="M1228.8,641.2l-2.5-11.7c1.5-1.8,3.3-3.7,5.1-5.4l5.1,12.2l-1.5-15.3c8.2-6.4,18.2-10.3,27.5-6.7l-14.7,18.9
				l24.3-11.9c0.5,0.5,0.9,1.1,1.4,1.7c23.9,31.1-47.7,32.4-54.4,27c-3.2-2.6-0.6-10.3,5.2-18L1228.8,641.2z"/>
			<path class="st6" d="M1204.4,677.3c-0.4,0-0.8-0.4-0.8-0.9c-0.7-15.6,8.1-24.2,12.3-28.3c4.8-4.6,29.2-12.8,30.3-13.2
				c0.5-0.2,1,0.1,1.2,0.6c0.2,0.5-0.1,1-0.6,1.2c-0.3,0.1-25.1,8.4-29.6,12.8c-4,3.9-12.4,12.1-11.8,26.9c0,0.5-0.4,0.9-0.9,1
				C1204.5,677.3,1204.4,677.3,1204.4,677.3z"/>
		</g>
		<path class="st4" d="M1240.3,658.1l-88.3-8.2l-2,21.4c-2.3,24.3,2.3,48.7,13.2,70.4l0,0l49.1,4.6l0,0c14.7-19.4,23.8-42.5,26-66.8
			L1240.3,658.1z"/>
		<path class="st4" d="M1214.1,754.6l-54.2-5c-5.4-0.5-9.4-5.3-8.9-10.7l0.1-1.3l73.7,6.9l-0.1,1.3
			C1224.3,751.2,1219.5,755.2,1214.1,754.6z"/>
	</g>
	<g>
		<polygon class="st0" points="1139.4,674 1132.7,746.3 1016,736.3 1014.9,660.7 		"/>
		<path class="st8" d="M1136.7,703.2l2.7-29.3l-124.5-13.2l0.4,25.5c24.3,8.6,74,26,83.9,27.4C1106,714.5,1122.4,708.9,1136.7,703.2
			z"/>
		<path class="st0" d="M974.4,652.1c0,0,96.7,49.6,125.1,49.8c28.4,0.2,69.7-34.1,69.7-34.1l-40.4-45.1l14-63.6c0,0,34-34.1,35.2-47
			c1.2-12.9,3.7-39.4,3.9-41.8c0.2-2.4,13.9-10.1,14.5-25.4c0.6-15.3-16.7-12.1-18.4-20.4s-5.3-30.5-19.7-32.6
			c-14.4-2.2-17.9,0.8-35.5-1.7c-17.6-2.5-11.6-23.8-29.2-17.3c-17.6,6.5-9.2,11.3-23.1,13.3c-14,1.9-50.8-20.1-59.9-1.5
			c-9,18.6,14.5,35.4,14.5,35.4s-16.5,12.2-12.4,19.9c4.1,7.7,18.6,18,18.6,18s0.1,34.1-1.2,47.7c-1.3,13.7-7.4,53.6-1.6,60.7
			c5.8,7,14.6,8.7,14.6,8.7l-7.2,42.3L974.4,652.1z"/>
	</g>
	<g>
		<path class="st9" d="M978.7,559l-11.6-1.1c-0.2,0-0.3-0.2-0.3-0.4l0.8-8.8c0-0.2,0.2-0.3,0.4-0.3l11.6,1.1c0.2,0,0.3,0.2,0.3,0.4
			l-0.8,8.8C979.1,558.9,978.9,559,978.7,559z"/>
		<path class="st10" d="M976.4,594.2l3.5-37.9c0.1-1.3-0.8-2.4-2.1-2.5l-8.4-0.8c-1.3-0.1-2.4,0.8-2.5,2.1l-3.5,37.7
			c-0.1,1-0.8,1.8-1.8,2c-11.2,2.3-20.1,11.5-21.2,23.2l-11.5,123.8c-0.1,1.3,0.8,2.4,2.1,2.5l48.7,4.5c1.3,0.1,2.4-0.8,2.5-2.1
			L993.9,623c1.1-11.6-5.7-22.1-16.1-26.5C976.9,596.1,976.3,595.2,976.4,594.2z"/>
		<path class="st11" d="M980.4,563.9l-15.7-1.5c-0.2,0-0.4-0.2-0.4-0.4l0.9-9.9c0-0.2,0.2-0.4,0.4-0.4l15.7,1.5
			c0.2,0,0.4,0.2,0.4,0.4l-0.9,9.9C980.8,563.8,980.6,563.9,980.4,563.9z"/>
		<path class="st10" d="M977.6,581.4l0.1-0.9l2.1-22.7c0.1-1-0.9-2-2.2-2.1l-8.4-0.8c-1.3-0.1-2.4,0.6-2.5,1.7l-2.1,22.6l-0.1,1
			L977.6,581.4z"/>
	</g>
	<g>
		<g>
			<g>
				<path class="st7" d="M1044.4,678.5c4.8-0.4,8.7-4,11.7-7.9c2.9-3.9,5.3-8.2,9.2-11.2c-7.9-1.4-16.3-2.7-23.5,0.7
					c-5.6,2.7-9.8,8-15.7,9.9c3.1,1.5,5.8,3.7,8.7,5.5C1037.6,677.3,1041,678.8,1044.4,678.5z"/>
			</g>
		</g>
		<path class="st12" d="M1060.6,698.9c-1.9-10.2-10.3-16.6-20.5-19.9c-1.2,0-2.4,0.1-3.6,0.3c-2,0.4-3.8,1.3-5.7,1.8
			c-5.6,1.7-11.6,1.1-17.4-0.1c-3.4-0.7-6.8-1.6-10.2-1.1c-0.3,0-0.5,0.1-0.8,0.2c-7.4,3.8-13,10.6-13,19.6c0,5.2,1.8,10.3,3.6,15.2
			c2.6,7.2,5.2,14.5,7.8,21.7c2.2,6,4.2,11.6,10.6,11.7c3.6,0,6.5-1.4,10.1-1.3c4.1,0.1,8.1,4.6,12.1,3.8c3.5-0.7,7.5-4.7,9.2-7.9
			c4.5-8.7,9-17.4,13.6-26.1c1.8-3.4,3.5-6.8,4.2-10.6C1061,703.8,1061,701.3,1060.6,698.9z"/>
		<g>
			<path class="st13" d="M1025.8,660.9c0,3.6-0.6,7.2-1.8,10.6c-0.5,1.4-1.1,2.8-1.5,4.2c-1,3.7-0.5,7.7,0.3,11.4
				c0.1,0.5,0.6,1.1,0.9,0.8c-1-4-0.9-8.2,0.3-12.1c0.6-2.1,1.6-4.1,3.2-5.5c1.6-1.4,3.9-2.2,5.9-1.6
				C1032,665.2,1029.2,662.3,1025.8,660.9z"/>
		</g>
	</g>
	<g>
		<g>
			<g>
				<rect x="426.2" y="1058.9" class="st9" width="285.8" height="49.1"/>
				<rect x="667" y="1086.4" class="st9" width="28.1" height="438.3"/>
				<rect x="446.1" y="1086.4" class="st9" width="28.1" height="438.3"/>
				<rect x="451.9" y="1291.5" class="st9" width="226.7" height="28.1"/>
			</g>
		</g>
		<path class="st14" d="M818.9,1450.6c-7.5-12.3,18.4-114.7,18.4-114.7l-50,1.8c0,0-20.1,93.3-25.9,113.8
			c-5.7,20.5,37.2,39.3,37.2,39.3L818.9,1450.6z"/>
		<g>
			<g>
				<path class="st2" d="M761.4,1442.5c0,0-16.8,33.8-17.2,81.1c0,0,4.9,6.8,26.2,10.4c21.3,3.6,43.6,7.2,52.5,10.5
					c8.9,3.3,54.6,26.8,90.8,8.2c0,0,2.6-22.4-3.5-28.7c-6-6.3-72-48.9-75.3-56.1c-3.3-7.2-10.7-24.4-16.6-24.8
					c-5.9-0.4-30.5,6-29.7,9.8c0.8,3.8,9,9.7,9,9.7S762.6,1456.6,761.4,1442.5z"/>
				<path class="st15" d="M823,1528.9c-9.1-3.3-31.7-7-53.3-10.6c-15-2.5-22-6.5-24.9-8.8c-0.4,4.5-0.6,9.2-0.6,14.1
					c0,0,4.9,6.8,26.2,10.4c21.3,3.6,43.6,7.2,52.5,10.5c8.9,3.3,54.6,26.8,90.8,8.2c0,0,0.8-7.4,0.4-14.9
					C877.5,1555.2,831.9,1532.1,823,1528.9z"/>
				<path class="st16" d="M797.7,1462.7c0,0,23.9,12.3,28.8,15.9c4.9,3.6,40.6,27.7,44.6,29l9.2-5"/>
				<path class="st16" d="M874.3,1506.1c0,0,20.4,14.3,9.2,19.6c-11.2,5.3-58.4-12.4-66.3-15.3c-7.9-2.9-53.6-0.3-69.2-20.7"/>
				<line class="st17" x1="864.8" y1="1506.3" x2="874.8" y2="1498.3"/>
				<line class="st17" x1="855.7" y1="1500.8" x2="865.7" y2="1492.6"/>
				<line class="st17" x1="847.4" y1="1495" x2="858.3" y2="1486.1"/>
				<line class="st17" x1="838.4" y1="1488.4" x2="849.7" y2="1479.5"/>
				<line class="st17" x1="829.3" y1="1482.5" x2="841.2" y2="1473.8"/>
				<line class="st17" x1="819.1" y1="1476" x2="834.6" y2="1467.2"/>
				<path class="st17" d="M807,1469.7c0,0,15.5-9.4,23.7-11.1"/>
				<path class="st17" d="M824.1,1460.5c-2.9-2.6-7-3.7-10.8-3c-3.8,0.7-7.2,3.2-9,6.6c-1.6,3.1-1.9,6.7-2.1,10.1
					c0,0.8-0.1,1.5,0.2,2.2c0.7,1.7,3.1,2.2,4.8,1.5c1.7-0.7,2.9-2.2,4.1-3.7c3.8-4.9,7.8-9.8,12.5-13.8c4.8-4,10.5-7,16.7-7.7
					c1.5-0.2,3.2-0.1,4.6,0.5c1.4,0.6,2.6,2,2.6,3.5c0,2.5-2.8,4-5.2,4.5c-4.2,1-8.7,0.8-12.9-0.6c-1.1-0.4-2.3-0.8-3.5-0.6
					c-1.3,0.2-2.3,1.1-3.2,2.1c-3.3,3.9-4.3,9.3-4.7,14.4c-0.4,5.1-0.5,10.4-2.3,15.2c-1.9,5-5.7,9.3-6.2,14.6"/>
			</g>
		</g>
		<path class="st14" d="M946.9,1482.3c-8.8-11.4-41.2-106.9-41.2-106.9l-52.6,20.2c0,0,40.3,72.8,36.8,93.8
			c-3.5,21,41.2,35.1,41.2,35.1L946.9,1482.3z"/>
		<g>
			<g>
				<path class="st2" d="M888.8,1480.4c0,0-13,35.4-8.4,82.5c0,0,5.6,6.2,27.1,7.5c21.5,1.3,44.1,2.5,53.3,4.8
					c9.2,2.3,57.2,20.7,91.2-1.6c0,0,0.2-22.5-6.5-28.2c-6.7-5.6-76.8-40.9-80.8-47.7c-4-6.8-13.3-23.1-19.2-22.8
					c-5.9,0.2-29.7,9.3-28.5,13c1.2,3.7,10,8.7,10,8.7S891.6,1494.3,888.8,1480.4z"/>
				<path class="st15" d="M959.4,1559.7c-9.4-2.3-32.3-3.5-54.2-4.8c-15.2-0.9-22.6-4.1-25.7-6c0.1,4.5,0.4,9.2,0.9,14
					c0,0,5.6,6.2,27.1,7.5c21.5,1.3,44.1,2.5,53.3,4.8c9.2,2.3,57.2,20.7,91.2-1.6c0,0,0-7.5-1.2-14.9
					C1016.4,1580,968.6,1561.9,959.4,1559.7z"/>
				<path class="st16" d="M927.1,1496.6c0,0,25.1,9.7,30.3,12.7c5.2,3,43.4,23.2,47.4,24.1l8.6-6"/>
				<path class="st16" d="M1007.9,1531.5c0,0,21.8,12,11.2,18.5c-10.6,6.5-59.4-6-67.6-8.1c-8.1-2.1-53.3,5.5-71-13.1"/>
				<line class="st17" x1="998.5" y1="1532.7" x2="1007.6" y2="1523.7"/>
				<line class="st17" x1="988.9" y1="1528.3" x2="998" y2="1519"/>
				<line class="st17" x1="980" y1="1523.4" x2="989.9" y2="1513.3"/>
				<line class="st17" x1="970.3" y1="1517.8" x2="980.6" y2="1507.7"/>
				<line class="st17" x1="960.7" y1="1512.9" x2="971.6" y2="1503"/>
				<line class="st17" x1="949.8" y1="1507.5" x2="964.3" y2="1497.1"/>
				<path class="st17" d="M937.1,1502.6c0,0,14.4-11.1,22.4-13.6"/>
				<path class="st17" d="M953.1,1491.6c-3.1-2.2-7.3-3-11-1.9c-3.7,1.1-6.8,4-8.3,7.6c-1.3,3.2-1.2,6.8-1,10.3
					c0,0.8,0.1,1.5,0.5,2.2c0.9,1.6,3.3,1.9,4.9,1c1.6-0.9,2.7-2.5,3.7-4.1c3.3-5.3,6.7-10.6,11-15.1c4.3-4.5,9.7-8.1,15.8-9.4
					c1.5-0.3,3.1-0.5,4.6,0c1.5,0.5,2.8,1.7,2.9,3.3c0.2,2.5-2.3,4.2-4.7,5c-4.1,1.4-8.6,1.7-12.8,0.8c-1.2-0.2-2.4-0.6-3.6-0.3
					c-1.2,0.3-2.2,1.4-2.9,2.4c-2.8,4.3-3.2,9.7-3.1,14.8c0.1,5.1,0.7,10.4-0.6,15.3c-1.4,5.1-4.7,9.9-4.6,15.2"/>
			</g>
		</g>
		<path class="st14" d="M692.7,537l-9.4-9.4l17.5-56.1l-51.4-33.9c0,0-38.6,78.3-49.1,87.7c-10.5,9.4,59.6,40.9,59.6,40.9L692.7,537
			z"/>
		<path class="st14" d="M700.9,711.2c0,0,61.9,114.5,92.3,112.2c30.4-2.3,141.7-156.3,141.7-156.3l-17.8-16.7l-119.2,93.5L757,665.6
			L700.9,711.2z"/>
		<polygon class="st18" points="913.6,1115.6 832.1,1424.4 760.2,1395.5 814.3,1106.2 		"/>
		<path class="st19" d="M475.3,851.6c0,0-51.4,162.3-3.5,202.1c47.9,39.7,220.9,59.6,232.6,66.6c11.7,7,154.3,343.6,154.3,343.6
			l83-39.7L838.8,1091l-133.2-86.5L530.3,871.3L475.3,851.6z"/>
		<path class="st20" d="M607.4,513.7c0,0,53.8,45.6,85.3,23.4c0,0,31.6,23.4,46.8,37.4c15.2,14,31.6,92.3,50.3,130.9
			c0,0-31.6,36.2-78.3,61.9l-21-40.9L487,831.6l7-111l-17.5,18.7c0,0-33.9-3.5-78.3-42.1c0,0,74.8-139.1,98.2-155.4
			C519.7,525.4,589.9,525.4,607.4,513.7z"/>
		<polygon class="st2" points="580.5,658.6 574.4,521.6 588,519.4 594.1,659.2 		"/>
		<polygon class="st2" points="704.4,658.6 708.1,547.9 698.8,541.3 692.3,665.3 		"/>
		<path class="st2" d="M509.2,746.3l70.1-92.3l125.1,4.7l7,84.2c0,0-16.4,35.1-42.1,35.1l-8.2,64.3l21,35.1
			c0,0,236.7,113.4,238.4,137.9c1.8,24.5,0,138.5,0,138.5s-73.6,56.1-205.1,42.1l-38.6-121c0,0-185.8-98.2-189.3-156
			C484.1,860.8,509.2,746.3,509.2,746.3z"/>
		<path class="st14" d="M471.2,738.1l-11.1,23.4l134.4,129.7l-21,22.2c0,0-201.3-101.9-190.2-146.4c11.4-45.6,22.8-63.4,22.8-63.4
			S440.8,731.9,471.2,738.1z"/>
		<path class="st14" d="M930.3,671.5c0,0,18.1-16.8,20.4-32.9c2.3-16.1-7.7-59-7.7-59s-6.3-0.6-4.6,13.8c0.8,6.9-4.2,18-4.2,18
			l-10.5-12.7c0,0,18-25.8,16.9-29.5c-1.9-6.6-25.9,21.1-25.9,21.1s23.3-30.2,15.4-32.4l-26.9,28.5c0,0,9.2-37.9,1.5-36
			c0,0-16.1,46.7-12.2,55.9c3.8,9.2,22.2,36,23,40.6c0.8,4.6-1.5,6.1-1.5,6.1L930.3,671.5z"/>
		<path class="st14" d="M705.4,303.6c34.6,20.7,39.2,35.8,41.2,45.8c2,10-4.9,36.4-2.6,43.5c4.9,14.9,16.8,22.6,17.2,24.7
			c0.3,2.1-3.9,9.9-11,11.3c0,0-3.2,7.7-1.8,9.4c1.4,1.7,3.6,3.1,3.2,7.5c-0.3,2.9-6.5,6.9-6.5,6.9s3.1,4.8,2.1,8.2
			c-1,3.5-6.3,5.4-7,7.4c-0.7,2-4.6,18.6-12.7,22.1c-8,3.5-37.6-4.9-41.9-6.4s-66.1-40.8-66.1-40.8s-59.7-63-12.9-122.9
			C643.6,272.9,705.4,303.6,705.4,303.6z"/>
		<path class="st21" d="M728,490.5c-27.7-12.4-60.4-55.1-56.9-73.2c3.5-18.1-31.6,33.9-31.6,33.9s26.9,35.9,49.6,59.9l7.5-23.9
			C707.3,489.8,722.6,492.9,728,490.5z"/>
		
			<ellipse transform="matrix(5.304085e-02 -0.9986 0.9986 5.304085e-02 302.2533 1099.96)" class="st2" cx="731.1" cy="390.6" rx="11.1" ry="4.2"/>
		<path class="st2" d="M741.9,375.4c3.1-2.8-0.4-5.8-2.6-7.4c-4.1-2.7-9.3-3.2-14.1-1.9c-2.4,0.7-5,1.9-7,3.5c-1.5,1.2-3,3.1-3,5.2
			c1.8,0,4.3-1.8,6.2-2.3c2.4-0.7,4.9-1,7.4-0.6c2.6,0.4,4.8,1.4,7.1,2.6C737.6,375.4,740.1,377.1,741.9,375.4z"/>
		<path class="st22" d="M751.6,445.8c0.3-2.8-0.6-4.3-1.6-5.6c-0.8-0.3-1.7-0.4-2.8-0.2c-3.3,0.7-12.4,10.4-16.5,10.1
			c0,0,7.1,12.3,13.3,14.6c1.4-1.1,2.7-2.3,3.1-3.9c1-3.5-2.1-8.2-2.1-8.2S751.3,448.8,751.6,445.8z"/>
		<path class="st2" d="M731.5,319.4c-0.1,10.9-8.7,59.9-47.7,81.2c0,0-12.7,25-18.3,36.8c-5.5,11.7-31.6,28.1-31.6,28.1
			s-33.8-30.8-35.6-35c-1.9-4.2-35.7-81.8,16.9-126.6c38.8-33.1,104.1,5.9,114.6,12.5C730.9,317,731.5,318.2,731.5,319.4z"/>
		<path class="st14" d="M565.6,907.7c0,0,28.5,40.8,28.9,43.4s45.1,15.8,45.1,15.8l21-7.5l12.3-13.1c0,0-10.5-3.9-18.8-3.9
			c-8.3,0-25.9-14.5-25.9-14.5l-17.1-18L565.6,907.7z"/>
		<g>
			<path class="st14" d="M691.3,399.2c0,0-0.1-20.8-20-12c-7.9,3.5-7.4,27.1,15.1,29.2C686.3,416.4,694,414.1,691.3,399.2z"/>
			<path class="st23" d="M669.6,394.6c0,0,2.1-8.7,13.4-5.8c5.4,1.3,5.9,11.6,5.9,11.6s-2.7-2.1-4.6,0.8c-1.9,2.9,1.1,5.8,1.1,6.6
				c0,0.8-9.5,1.4-13.1-3.2"/>
		</g>
		<path class="st24" d="M745.1,452.7c0,0-6.8,0.2-14.4-2.5"/>
		<path class="st25" d="M753.5,904.6c-100.4-46.7-108.7,14.6-139.1,18c-94.7,10.4-129.6,72-67.8,109.8
			c109.9,67.2,212.7,43.6,247.8,20.8C826.7,1032.4,871.5,959.5,753.5,904.6z M671.8,941.5c-2.1,3.4-6,5.6-9.9,6.3
			c-4,0.7-8.1,0.1-12-1c-6.7-1.9-13.3-5.6-17.1-11.4c-1.3-2.1-2.4-4.6-1.7-6.9c0.4-1.4,1.3-2.5,2.3-3.5c1.8-1.7,4.2-2.9,6.6-3.6
			c8.9-2.7,18.5,0.6,26.7,5.1c1.8,1,3.6,2.1,4.9,3.7C674,933.2,673.9,938,671.8,941.5z"/>
		<path class="st14" d="M594.5,891.2c14.6,3.5,31.7,6.6,45.1,11.2c13.4,4.7,29.1,35.5,29.1,35.5s-4.7,2.9-14.6-5.8
			c-9.9-8.8-21-11.2-21-11.2l-39.2-0.4l-20.5-7l3.5-19.9L594.5,891.2z"/>
		<path class="st2" d="M729.7,317.3c3.3,0.6,4.6,4.6,5.1,7.9c2.5,18.8-3.9,37.5-10.2,55.3c-2.7,7.7-5.4,15.3-8.4,22.9
			c-3.3,8.4-6.9,16.7-8.6,25.5c-1.8,8.8-1.6,18.3,2.5,26.3c-9-3.7-13.8-14.2-13.3-23.9c0.4-9.7,5-18.8,10.2-27
			c5.2-8.2,11.1-16.1,14.7-25.2c2.6-6.7,3.9-13.8,5.1-20.9c1.4-7.8,2.7-16,0.1-23.4c-1.2-3.5-3.3-6.7-3.5-10.4
			C723.3,320.9,726.1,316.7,729.7,317.3z"/>
		<path class="st2" d="M676.3,441.3c1.6,8.2,1.9,16.8,0.7,25.1c-1.4,9.6-4.9,19.3-11.9,26c-7,6.7-18.1,9.8-26.8,5.5
			c12.3-1.2,22.3-11.2,26.9-22.6c4.6-11.4,4.7-24.1,4-36.4c-0.5-8.3-0.6-18.2,6-23.1C671.5,423.6,674.6,432.8,676.3,441.3z"/>
		<path class="st2" d="M560.6,487.2c12.2-15.3,18.2-35.4,16.3-54.8c-1.4-14.5-7-28.4-7.7-43c-0.7-14.6,5.4-31.2,19.2-35.9
			c-1.4,16.9-1.3,33.8,0.1,50.7c0.9,10.9,2.7,22.4,9.7,30.9c7.9,9.5,22,14.4,25.7,26.2c3.5,11.2-6.9,24.3-18.6,23.5
			c11,4.7,24.3-2.9,29.4-13.7c5.2-10.8,4-23.5,1.4-35.2c-2.6-11.7-6.7-23.1-7-35.1c-0.9-29.4,22.2-56.1,50.2-65.3
			c15.9-5.2,34.2-6.3,46-18.1C704.6,302.2,680.6,290,655,289c-25.6-1-52.8,11.4-63.8,34.5c-11.8-7.5-17.2-23.7-12.3-36.8
			c-6.8,4.4-10.9,12.8-10.2,20.9c0.7,8.1,6.2,15.6,13.7,18.7c-15.5-4.3-32.6-6.2-47.1,0.9c-14.1,6.9-23.1,21.3-29,35.8
			c-5.9,14.6-9.4,30.1-16.6,44.1c-7.2,14-19,26.8-34.5,29.7c11.7,1.3,23.4-4.7,31.6-13.2c8.2-8.5,13.6-19.2,18.6-29.9
			c-10.2,22.9,0.5,49.4-0.4,74.4c-0.9,26.9-16.3,52.9-39.5,66.6c17.4,0,34.4-10.1,42.9-25.2c-0.9,8.7-5.7,17-12.8,22.1
			c22.1-4.4,40.6-20.7,51.2-40.5c10.6-19.9,13.8-42.9,13-65.4C568.4,444.9,568.7,467.7,560.6,487.2z"/>
		<path class="st26" d="M649.3,329c-3.1,7.6-5.5,15.5-7.3,23.6c16-10,31.2-21.2,45.4-33.6c0.3,7.5-0.1,15.1-1.3,22.5
			c5.4-6.2,11.2-12.1,17.4-17.7c1.8,8.5,2.8,17.1,3,25.7c7.2-7.3,13.2-15.7,17.7-24.8c-3.5,17.4-13.3,33.4-27.2,44.5
			c2.6-9.8,3.4-20.1,2.4-30.1c-4.6,6.6-11.5,11.6-19.3,13.9c0.2-2.3,0.4-4.6,0.6-6.9c0-0.4,0.1-0.9-0.2-1.2
			c-0.4-0.5-1.2-0.2-1.8,0.1c-11.8,6-23.6,12.1-33.8,20.5c-6.7,5.6-12.6,12.2-18.4,18.7c1.5-9.5,3-19.1,4.4-28.6
			c-8.7,4.4-18.6,6.3-28.3,5.4c3.9-9.5,3.1-20.5,7.1-30c5.2-12.2,17.3-19.7,26.7-29c-6,12.9-10.3,26.6-12.8,40.6
			C632.8,339.3,641.4,334.7,649.3,329z"/>
		<path class="st27" d="M689.6,901.7c4.3-1.2,9-2.2,13.2-0.7c6.1,2.1,9.6,8.6,15.2,11.5c5.3,2.8,12.5,2.6,15.9,7.5
			c2.8,4,1.3,10-2.3,13.2c-3.7,3.2-8.9,4.1-13.8,3.5c-4.8-0.6-9.4-2.5-14-4.2c-4-1.5-8.5-3.3-9.9-7.3c-0.3-0.8-0.4-1.7-0.8-2.5
			c-0.5-1.1-1.6-2-2.5-2.7c-2.5-2-5.1-4.2-6.6-7.1c-1.5-2.9-1.4-6.8,1-9C686.3,902.7,688,902.1,689.6,901.7z"/>
		<path class="st11" d="M589.7,994.6c4.3-1.2,9-2.2,13.2-0.7c6.1,2.1,9.6,8.6,15.2,11.5c5.3,2.8,12.5,2.6,15.9,7.5
			c2.8,4,1.3,10-2.3,13.2c-3.7,3.2-8.9,4.1-13.8,3.5c-4.8-0.6-9.4-2.5-14-4.2c-4-1.5-8.5-3.3-9.9-7.3c-0.3-0.8-0.4-1.7-0.8-2.5
			c-0.5-1.1-1.6-2-2.5-2.7c-2.5-2-5.1-4.2-6.6-7.1c-1.5-2.9-1.4-6.8,1-9C586.3,995.6,588,995,589.7,994.6z"/>
		<path class="st0" d="M771.2,938.8c-2.5-1.2-4.8-2.9-7.5-4c-2.6-1-5.8-1.4-8.1,0.2c-2.7,1.8-3.5,5.2-5.2,8c-1.8,2.9-4.6,5-6.9,7.5
			c-2.3,2.5-4.2,5.9-3.4,9.2c0.8,3.6,4.6,5.9,8.2,6.6s7.4,0.2,11.2,0.5c7.1,0.5,13.6,3.8,20.4,5.7c1.4,0.4,2.9,0.7,4.1,0
			c0.9-0.5,1.4-1.5,1.9-2.5c2-4.2,3.5-8.6,3.5-13.2c0-4.6-1.7-9.4-5.2-12.3C780.5,941.6,775.5,940.9,771.2,938.8z"/>
		<path class="st28" d="M752.5,1008.1c2.5-1.7,4.5-4.1,6.8-6.1c5.7-5.1,13.7-8.4,21.1-6.3c7.4,2.1,12.7,11.1,9.2,17.9
			c-2.7,5.1-8.9,7.2-13.3,10.9c-3.4,2.8-5.8,6.7-9.1,9.7c-6.2,5.6-16.1,7.5-23.2,3.1c-7.1-4.4-9.5-15.6-3.7-21.6
			C743.5,1012.1,748.5,1010.9,752.5,1008.1z"/>
		<path class="st29" d="M682.3,1038.4c-6.2-0.1-12.8-0.2-18.3-3.2c-5.5-2.9-9.6-9.6-7.5-15.4c2.1-5.9,8.9-8.4,14.9-10.2
			c7.1-2.1,14.1-4.2,21.2-6.2c5.1-1.5,10.4-3,15.7-2.4c5.3,0.6,10.6,4,11.8,9.2c1,4.1-0.8,8.3-2.5,12.2c-2.5,5.8-5.5,12-11.3,14.6
			c-3.5,1.6-7.4,1.5-11.2,1.5C690.8,1038.6,686.5,1038.5,682.3,1038.4z"/>
		<path class="st5" d="M632.5,746.3c0,0-32.1,15.2-76.6-2.9C556,743.3,585.2,791.8,632.5,746.3z"/>
		<g>
			<path class="st30" d="M934.2,585.4c44-27.3,78.7-51,77.4-53.1c-1.3-2.1-38,18.4-82.1,45.6c-44,27.3-78.7,51-77.4,53.1
				C853.5,633.1,890.2,612.7,934.2,585.4z"/>
			<path class="st31" d="M968.2,563.9c26.5-17.3,44.4-30.1,43.4-31.5c-0.9-1.5-20.3,8.8-47.6,24.8L968.2,563.9z"/>
			<path class="st32" d="M1005.6,534.1l1.8,3c0,0,3.7,0.4,9.6-3.2c5.9-3.6,13-13.8,13-13.8s-13.6,4-18.6,7.2
				C1006.3,530.3,1005.6,534.1,1005.6,534.1z"/>
			<path class="st33" d="M1019.7,531.9c5.2-4.4,10.3-11.8,10.3-11.8s-10.6,3.2-16.6,6c0.1,0.2,0.2,0.4,0.4,0.6
				c0.3,0.4,0.6,0.9,1.1,1.1c1,0.3,2.1-0.7,3.1-0.2c0.8,0.4,0.8,1.6,0.9,2.5C1019,530.7,1019.3,531.3,1019.7,531.9z"/>
		</g>
		<g>
			<rect x="35.3" y="1170.5" class="st9" width="374" height="37.4"/>
			<polygon class="st9" points="377.1,1197.4 401.7,1523.5 384.2,1523.5 336.8,1195.6 			"/>
			<polygon class="st9" points="73.3,1197.4 48.7,1523.5 66.3,1523.5 113.6,1195.6 			"/>
		</g>
	</g>
	<g>
		
			<ellipse transform="matrix(0.1926 -0.9813 0.9813 0.1926 -927.1872 1002.5983)" class="st32" cx="145.6" cy="1064.7" rx="93.8" ry="4.4"/>
		<path class="st34" d="M157.3,1026c5.4-31.2,8.1-53,6.4-53.3c-1.7-0.3-7.4,20.9-14.2,51.8L157.3,1026z"/>
		<path class="st32" d="M160.9,978.3l3.4,0.7c0,0,2.8-2.5,4.2-9.2c1.3-6.8-1.3-18.9-1.3-18.9s-6.3,12.7-7.4,18.5
			C158.6,975.2,160.9,978.3,160.9,978.3z"/>
	</g>
	<g>
		<path class="st32" d="M115.3,1067.2c-9.9-50.8-21.9-91.3-26.9-90.3c-4.9,1-0.9,43,9,93.8c9.9,50.8,21.9,91.3,26.9,90.3
			C129.3,1160.1,125.2,1118.1,115.3,1067.2z"/>
		<path class="st34" d="M106.8,1027.9c-7.5-30.8-14.7-51.7-18.3-51c-3.6,0.7-2.5,22.8,2.2,54.1L106.8,1027.9z"/>
		<path class="st35" d="M86.2,983.5l7.2-1.4c0,0,4.1-3.8,2.8-10.6c-1.3-6.8-13.6-16-13.6-16s-5,14.9-3.9,20.7
			C79.9,982.1,86.2,983.5,86.2,983.5z"/>
	</g>
	<g>
		
			<ellipse transform="matrix(4.393164e-02 -0.999 0.999 4.393164e-02 -942.9824 1152.6217)" class="st28" cx="130.7" cy="1069" rx="68.3" ry="3.2"/>
		<path class="st34" d="M134.9,1039.9c0.5-23,0.1-39-1.2-39.1c-1.3-0.1-3.1,15.8-4.6,38.8L134.9,1039.9z"/>
		<path class="st35" d="M132.3,1005.2l2.5,0.1c0,0,1.8-2.1,2-7.1c0.2-5-3-13.5-3-13.5s-3.1,9.8-3.3,14.1
			C130.3,1003.2,132.3,1005.2,132.3,1005.2z"/>
	</g>
	<polygon class="st8" points="165.9,1060.9 88.8,1060.9 101,1170.2 153.6,1170.2 	"/>
	<g>
		<g>
			<g>
				<rect x="308.5" y="1145.9" class="st36" width="12.3" height="24.6"/>
				<polygon class="st37" points="312.7,1146.4 312.9,1170.4 309.9,1170.6 309.2,1146.2 				"/>
			</g>
			<g>
				<path class="st8" d="M297.8,1079l6.7,61.4c0,3.3,2.7,6.1,6.1,6.1h9c3.3,0,6.1-2.7,6.1-6.1l7.7-61.4H297.8z"/>
				<polygon class="st37" points="302.5,1078.4 310.1,1078.4 312.7,1146.2 309.2,1145.9 				"/>
			</g>
			<rect x="297.8" y="1075" class="st8" width="35.5" height="3.9"/>
		</g>
		<polygon class="st36" points="299.6,1096.6 331.1,1096.9 328.5,1118.3 301.9,1118.3 		"/>
		<polygon class="st38" points="330.9,1097.8 299.8,1097.8 300,1098.9 330.8,1098.9 		"/>
		<polygon class="st38" points="328.8,1115.2 301.7,1115.2 301.8,1116.3 328.6,1116.3 		"/>
		<polygon class="st37" points="304.3,1096.6 310.8,1096.8 311.6,1118.3 306.6,1118.3 		"/>
	</g>
	<g>
		<g>
			<g>
				<rect x="352" y="1145.9" class="st28" width="12.3" height="24.6"/>
				<polygon class="st37" points="356.2,1146.4 356.5,1170.4 353.5,1170.6 352.7,1146.2 				"/>
			</g>
			<g>
				<path class="st8" d="M341.4,1079l6.7,61.4c0,3.3,2.7,6.1,6.1,6.1h9c3.3,0,6.1-2.7,6.1-6.1l7.7-61.4H341.4z"/>
				<polygon class="st37" points="346.1,1078.4 353.6,1078.4 356.2,1146.2 352.7,1145.9 				"/>
			</g>
			<rect x="341.4" y="1075" class="st8" width="35.5" height="3.9"/>
		</g>
		<polygon class="st28" points="343.2,1096.6 374.7,1096.9 372,1118.3 345.5,1118.3 		"/>
		<polygon class="st38" points="374.4,1097.8 343.4,1097.8 343.5,1098.9 374.3,1098.9 		"/>
		<polygon class="st38" points="372.3,1115.2 345.2,1115.2 345.3,1116.3 372.2,1116.3 		"/>
		<polygon class="st37" points="347.9,1096.6 354.3,1096.8 355.1,1118.3 350.1,1118.3 		"/>
	</g>
	<g>
		<g>
			<g>
				<rect x="264.3" y="1145.9" class="st27" width="12.3" height="24.6"/>
				<polygon class="st37" points="268.6,1146.4 268.8,1170.4 265.8,1170.6 265,1146.2 				"/>
			</g>
			<g>
				<path class="st8" d="M253.7,1079l6.7,61.4c0,3.3,2.7,6.1,6.1,6.1h9c3.3,0,6.1-2.7,6.1-6.1l7.7-61.4H253.7z"/>
				<polygon class="st37" points="258.4,1078.4 265.9,1078.4 268.6,1146.2 265,1145.9 				"/>
			</g>
			<rect x="253.7" y="1075" class="st8" width="35.5" height="3.9"/>
		</g>
		<polygon class="st27" points="255.5,1096.6 287,1096.9 284.4,1118.3 257.8,1118.3 		"/>
		<polygon class="st38" points="286.8,1097.8 255.7,1097.8 255.8,1098.9 286.6,1098.9 		"/>
		<polygon class="st38" points="284.7,1115.2 257.6,1115.2 257.7,1116.3 284.5,1116.3 		"/>
		<polygon class="st37" points="260.2,1096.6 266.7,1096.8 267.4,1118.3 262.4,1118.3 		"/>
	</g>
</g>
</svg>
