<?xml version="1.0" encoding="utf-8"?>
<!-- Generator: Adobe Illustrator 25.2.0, SVG Export Plug-In . SVG Version: 6.00 Build 0)  -->
<svg version="1.1" id="Ñëîé_1" xmlns="http://www.w3.org/2000/svg" xmlns:xlink="http://www.w3.org/1999/xlink" x="0px" y="0px"
	 viewBox="0 0 3130.4 2660.9" style="enable-background:new 0 0 791.2 500;" xml:space="preserve">
<style type="text/css">
	.st0{fill:#C1C9D1;}
	.st1{fill:#D0D6DD;}
	.st2{fill:#C8CFD6;}
	.st3{fill:#EAEAEA;}
	.st4{fill:#F9626B;}
	.st5{fill:#1C191F;}
	.st6{fill:#FFFFFF;}
	.st7{fill:#F9B573;}
	.st8{fill:#F9C77B;}
	.st9{fill:#F9B97B;}
	.st10{fill:#1F3249;}
	.st11{fill:#F9A863;}
	.st12{fill:#A57D67;}
	.st13{fill:#CCA37F;}
	.st14{fill:#F4B382;}
	.st15{fill:#E2A379;}
	.st16{fill:#7046AA;}
	.st17{fill:#602F0F;}
	.st18{fill:#2F2933;}
	.st19{fill:#545454;}
</style>
<g>
	<g>
		<g>
			<g>
				<g>
					<path class="st0" d="M1266.7,2005.4c0,0,13.2,71.8,26.5,139.9c13.2,68,47.3,211.7,26.5,232.5c-20.8,20.8-54.8,20.8-49.1,47.3
						s75.6,24.6,117.2,11.3c13.2-5.7,9.5-34,17-56.7c7.6-22.7,11.3-73.7,9.5-132.3c-1.9-58.6-5.7-139.9,11.3-240
						C1425.5,2007.3,1336.7,1988.4,1266.7,2005.4z"/>
					<path class="st0" d="M1768.4,1933.6c0,0,17,130.4,68,190.9c51,60.5,77.5,45.4,86.9,77.5c9.5,32.1-26.5,172-45.4,179.6
						c-18.9,7.6-52.9,11.3-58.6,37.8c-5.7,26.5,81.3,24.6,96.4,22.7c15.1-1.9,47.3-75.6,73.7-134.2c26.5-58.6,77.5-132.3,58.6-158.8
						c-18.9-26.5-3.8-245.7-15.1-304.3C2021.7,1786.2,1768.4,1933.6,1768.4,1933.6z"/>
				</g>
				<g>
					<path class="st1" d="M2050,1711.9c0,0,92.6,27.7,151.2,104.5c51.4,67.4,143.6,209.8,311.9,102.1c0,0-111.6,128-243.8,15.1
						c-112.1-95.8-117.8-126-211.7-151.2L2050,1711.9z"/>
					<g>
						<path class="st1" d="M1138.8,1408.8c0,0,27.1,96.7,83.8,140.7c56.7,43.9,92.2,26.9,168.7,72.3
							c54.6,32.4,153.9,66.6,423.2,63.8s279.2,38.3,289.2,131.8c9.9,93.6-85,167.3-235.3,151.7c-150.3-15.6-220.5,14.2-365.1,55.3
							c-144.6,41.1-375.6,2.8-423.8-147.4s4.3-193-59.5-297.7L1138.8,1408.8z"/>
						<g>
							<path class="st2" d="M1834.4,1845.7c0,0,27.5,62.1,25,122.4c3,0.3,6,0.6,9,0.9c32.3,3.3,62,2.6,88.6-1.6
								C1939.8,1931.8,1896.4,1856.5,1834.4,1845.7z"/>
							<path class="st2" d="M1117.4,1789.9c0,0-20.9,33.1-25.1,57.2c-2.1,11.7-6.1,24.4-10.7,35.7c25.7,71.5,93.6,116.7,173,139.4
								c17.7-25.9,48.3-79,46.2-132L1117.4,1789.9z"/>
							<path class="st3" d="M1503.4,2024.3c144.6-41.1,214.8-70.9,365.1-55.3c50.4,5.2,94.5,0.4,130.6-11.8
								c-19.7-4-42.3-9-68.3-15.3c-175.5-42.1-338.2,11-458.9,34.7c-120.7,23.8-256,1.8-312.6-51.2c-56.7-53-51.2-115.2-58.5-192
								c-7.3-76.8-29.3-117-40.2-137.1c-11-20.1-40.4-17.2-40.4-17.2c63.8,104.7,11.3,147.4,59.5,297.7S1358.8,2065.4,1503.4,2024.3
								z"/>
							<path class="st0" d="M1814.6,1685.6c-269.3,2.8-368.6-31.4-423.2-63.8c-59-35-93.6-32.9-132.4-50.2
								c2.8,9.1,10.1,23.4,29.5,35.1c31.2,18.9,55.8,19.8,56.7,50.1c0.9,30.2-8.5,100.2,30.2,112.5c38.7,12.3,69-5.7,100.2-12.3
								c31.2-6.6,61.4-4.7,70.9,15.1c9.5,19.8,0,39.7,23.6,43.5c10.4,1.9,12.3-17,23.6-9.5c11.3,7.6,27.4,50.1,74.7,43.5
								c47.3-6.6,26.5-37.8,51-59.5c24.6-21.7,36.9-5.7,44.4-21.7c7.6-16.1,20.8-17,32.1-4.7c11.3,12.3,29.3,6.6,37.8,0
								s32.1,14.2,53.9-37.8c6.6-15.9,11.6-28.8,15.3-39.2C1877.1,1685.5,1847.8,1685.2,1814.6,1685.6z"/>
						</g>
					</g>
				</g>
				<g>
					<path class="st1" d="M1117.4,1789.9c0,0-13.2,60.5-13.2,104s-41.6,124.7-73.7,213.6c-32.1,88.8-94.5,230.6-115.3,251.4
						c-20.8,20.8-73.7,15.1-81.3,60.5c-7.6,45.4,69.9,32.1,107.7,34c37.8,1.9,43.5-49.1,56.7-79.4s104-158.8,138-215.5
						s88.8-124.7,109.6-156.9c20.8-32.1,47.3-58.6,54.8-111.5S1181.7,1767.3,1117.4,1789.9z"/>
					<path class="st1" d="M1834.4,1845.7c0,0,56.7,73.7,68,171.5c11.3,97.8,35.4,127.6,114.8,158.8c79.4,31.2,97.8,41.1,100.6,62.4
						c2.8,21.3-4.3,126.2-12.8,136.1c-8.5,9.9-78,17-78,59.5s97.8,15.6,117.7,11.3c19.8-4.3,31.2-43.9,34-80.8
						c2.8-36.9,15.6-99.2,28.3-143.2c12.8-43.9,7.1-56.7-28.3-72.3c-35.4-15.6-63.8-42.5-48.2-103.5s69.5-286.3-90.7-338.8
						C1901.9,1661.6,1834.4,1845.7,1834.4,1845.7z"/>
				</g>
			</g>
			<g>
				<g>
					<path class="st0" d="M978.5,1348.6c0,0,10.4-74.7,4.7-110.6c-5.7-35.9,61.4,18.9,69,100.2
						C1052.2,1338.2,1011.6,1368.5,978.5,1348.6z"/>
					<path class="st4" d="M1017.4,1353.8c0.2-89.8-23.3-110-34-114.5c5.2,36.4-4.9,109.3-4.9,109.3
						C991.3,1356.3,1005.2,1356.5,1017.4,1353.8z"/>
				</g>
				<g>
					<g>
						<circle class="st1" cx="1015.4" cy="1449.7" r="130.4"/>
						<path class="st1" d="M887.3,1428.5c0,0-6.1,30.7-57.2,44.9c-52.6,14.6-63.8,25.5-42.5,66.6c21.3,41.1,45.9,58.3,64.3,52.6
							c18.4-5.7,73.1-26.1,109.9-24.7C961.9,1567.9,939.8,1466.7,887.3,1428.5z"/>
					</g>
					<g>
						<path class="st0" d="M1015.4,1319.3c-66,0-120.6,49.1-129.2,112.8c-3.4,8.5-15.7,30.1-56,41.3c-42.9,11.9-58.3,21.4-50.9,46.8
							c9.7,0.1,19.3-6.8,19.3-6.8s29.2-10.2,35.8-16.8c6.6-6.6,21.3-13.7,36.9-19.4c15.6-5.7,25.5-9.5,34-4.3s23.6,13.7,36.9-4.7
							c13.2-18.4,0-24.6,9.9-33.5c9.9-9,18-17,9.5-32.6c-8.5-15.6,3.8-31.7,13.2-36.9c8.9-4.9,80.7-15.5,97.5-32.8
							C1055.1,1324,1035.8,1319.3,1015.4,1319.3z"/>
						<path class="st5" d="M801,1482.9c-26.4,10-29.1,23.3-17.1,49.6c2.3-7.3,6.6-16.1,14.6-19.2
							C811.4,1508.3,820,1494.2,801,1482.9z"/>
						<g>
							
								<ellipse transform="matrix(0.2506 -0.9681 0.9681 0.2506 -710.8436 1972.4739)" class="st5" cx="918.6" cy="1445.4" rx="17.6" ry="9.8"/>
							<path class="st6" d="M914.6,1450.3c-0.4,2.2-1.7,3.9-3.1,3.7c-1.3-0.2-2.1-2.2-1.8-4.4c0.4-2.2,1.7-3.9,3.1-3.7
								C914.2,1446,915,1448,914.6,1450.3z"/>
						</g>
					</g>
				</g>
				<g>
					<path class="st1" d="M1035.2,1357.1c0,0,30.2-94.5,35-126.6c4.7-32.1,66.2,51,52.9,162.5
						C1123.1,1393,1060.7,1400.6,1035.2,1357.1z"/>
					<path class="st4" d="M1069.2,1235.9c-6.8,36.2-34,121.2-34,121.2c10.1,17.2,25.9,26.4,41.4,31.2c12.7-39.2,13.9-84.3,8.7-118.8
						C1081.8,1246.1,1074.4,1238.4,1069.2,1235.9z"/>
				</g>
			</g>
		</g>
		<g>
			<path class="st5" d="M1048.9,1658c21.1-7.3,114.4-45.4,166.7-115c2.2-2.9,6.4-3.6,9.4-1.4l10,7.2c2.7,2,3.6,5.7,2,8.7
				c-9.8,18-57.9,82.5-181.3,123.8c-3.2,1.1-6.7-0.8-7.5-4.2l-3-12.3C1044.4,1661.9,1046,1659,1048.9,1658z"/>
			<g>
				<path class="st5" d="M1232,1553.9c-6.9,0-12.5-5.6-12.5-12.5c0-6.9,5.6-12.5,12.5-12.5c6.9,0,12.5,5.6,12.5,12.5
					C1244.5,1548.3,1238.9,1553.9,1232,1553.9z M1232,1532.6c-4.9,0-8.8,4-8.8,8.8c0,4.9,4,8.8,8.8,8.8c4.9,0,8.8-4,8.8-8.8
					C1240.8,1536.6,1236.9,1532.6,1232,1532.6z"/>
				<path class="st5" d="M1237.5,1536.3c-0.5,0-1.1-0.1-1.6-0.4c-1.6-0.9-2.2-2.9-1.3-4.5c1.1-2.1,30.2-51.9,231.1-112.5
					c19-5.7,37.3-11.2,54.9-16.5c399.2-120.2,460.6-138.7,567.3-292.9c1.1-1.5,3.1-1.9,4.7-0.8c1.5,1.1,1.9,3.1,0.8,4.7
					c-108,156.2-169.7,174.8-570.9,295.5c-17.6,5.3-35.9,10.8-54.9,16.5c-198.3,59.8-226.9,108.8-227.1,109.3
					C1239.8,1535.6,1238.7,1536.3,1237.5,1536.3z"/>
			</g>
		</g>
	</g>
	<g>
		<g>
			<g>
				<g>
					<path class="st7" d="M363.9,2128c0,0,4.7,50.2-43.9,92.6c-48.7,42.4-78.5,78.5-86.3,124c-7.8,45.5-31.4,155.4-3.1,157
						s48.7-14.1,54.9-53.4c6.3-39.2,7.8-102,20.4-113c12.6-11,199.3-54.9,219.7-153.8L363.9,2128z"/>
					<path class="st7" d="M855.2,2115.5c0,0,11,102,40.8,149.1c29.8,47.1,51.8,87.9,48.7,116.1c-3.1,28.3-20.4,108.3-31.4,117.7
						c-11,9.4-54.9,26.7-45.5,58.1c9.4,31.4,81.6,6.3,92.6,1.6c11-4.7,20.4-45.5,39.2-78.5c18.8-33,70.6-127.1,70.6-144.4
						c0-17.3-20.4-48.7,0-81.6c20.4-33,73.8-124,78.5-186.8C1153.4,2004,924.2,2079.4,855.2,2115.5z"/>
				</g>
				<g>
					<path class="st8" d="M1155,1850.2c0,0,83.2,25.1,147.5,67.5c64.4,42.4,213.5,51.8,243.3-61.2c0,0,7.8,31.4-4.7,56.5
						c0,0,31.4-33,33-108.3c0,0,61.2,80,1.6,164.8c0,0,23.5-7.8,34.5-22c0,0-9.4,53.4-54.9,69.1c0,0,34.5,6.3,48.7-3.1
						c0,0-33,48.7-108.3,43.9c0,0,25.1,12.6,45.5,11c0,0-102,69.1-188.3,1.6c-86.3-67.5-75.3-98.9-150.7-141.3
						C1131.9,1889.2,1155,1850.2,1155,1850.2z"/>
					<g>
						<path class="st8" d="M372.8,1651.9c0,0,31.9,79,85.3,110.4c53.4,31.4,111.4,22,188.3,48.7s208.8,36.1,293.5,22
							c84.8-14.1,209-13.3,262.4,66.7c53.4,80,47.7,204.1-102,229.2c-142.8,23.9-132.2-5.5-282.9,25.1
							c-225.1,45.7-414.3,100.1-499-54.2c-58.5-106.6,2.3-145.9-67.5-293.5L372.8,1651.9z"/>
						<path class="st9" d="M975.3,2139.1c21.2,0.3,44,0.2,77.6-3.5c-13.1-30.1-57.8-119.6-127.1-119
							C925.8,2016.6,968.3,2068.5,975.3,2139.1z"/>
						<path class="st9" d="M613.8,2193.5c-1.4-14.4-2.5-36.7,1.3-57.6c6.3-34.5,14.1-78.5,14.1-78.5s-130.3-40.8-210.3-20.4
							c0,0-1.6,32.2-6.3,53.4c-4,18.1-2.9,61.2-0.5,94.4C467.1,2206.7,535.8,2205,613.8,2193.5z"/>
					</g>
				</g>
				<g>
					<path class="st8" d="M925.8,2016.6c0,0,62.8,50.2,76.9,117.7c14.1,67.5,40.8,127.1,100.5,147.5s98.9,29.8,130.3,58.1
						c31.4,28.3,83.2,116.1,83.2,138.1c0,22-18.8,42.4,6.3,67.5s47.1-9.4,65.9-26.7s-1.6-58.1-14.1-87.9
						c-12.6-29.8-48.7-116.1-59.6-149.1c-11-33-28.3-25.1-48.7-36.1c-20.4-11-36.1-45.5-25.1-80c11-34.5,67.5-273.1-106.7-321.8
						C946.8,1791.5,925.8,2016.6,925.8,2016.6z"/>
					<path class="st8" d="M418.8,2037c0,0,4.7,25.1,4.7,58.1c0,33,18.8,131.8,22,172.7c3.1,40.8-62.8,208.8-81.6,241.7
						c-18.8,7.8-56.5,20.4-58.1,53.4c-1.6,33,62.8,12.6,89.5,11c26.7-1.6,40.8-39.2,51.8-72.2c11-33,69.1-111.4,94.2-158.5
						c25.1-47.1,48.7-97.3,50.2-144.4c1.6-47.1,25.1-114.6,36.1-138.1C638.6,2037,513,1983.6,418.8,2037z"/>
				</g>
			</g>
			<g>
				<g>
					<circle class="st8" cx="246.2" cy="1683.8" r="130.3"/>
					<g>
						<path class="st8" d="M117.5,1677.5c0,0-22,26.7-61.2,34.5s-22,40.8-17.3,53.4c4.7,12.6,14.1,22,20.4,25.1
							c0,0,11,18.8,34.5,20.4c23.5,1.6,117.7,3.1,139.7,3.1C233.6,1814.1,188.1,1712.1,117.5,1677.5z"/>
						<path class="st10" d="M59.4,1790.3c3.9-0.5,7.7-1,11.5-1.6c1.9-0.3,3.8-0.6,5.7-0.9l2.9-0.5l2.8-0.5c0.9-0.2,1.9-0.4,2.8-0.6
							c0.9-0.2,1.9-0.4,2.8-0.7c0.9-0.2,1.9-0.4,2.8-0.6c0.9-0.2,1.9-0.4,2.8-0.5c1-0.1,1.9-0.3,2.8-0.4l2.9-0.3
							c1-0.1,1.9-0.2,2.9-0.3c1-0.1,2-0.2,3-0.2l0.2,0.4c-0.8,0.7-1.6,1.2-2.5,1.8c-0.9,0.5-1.8,1-2.7,1.4c-0.9,0.5-1.8,0.8-2.8,1.2
							c-0.9,0.3-1.9,0.7-2.8,0.9c-1,0.3-1.9,0.5-2.9,0.7c-1,0.2-2,0.3-2.9,0.4c-1,0.1-2,0.1-3,0.2l-2.9,0.2l-2.9,0.2l-2.9,0.2
							c-2,0.1-3.9,0.1-5.9,0.2c-3.9,0-7.8,0-11.7-0.2L59.4,1790.3z"/>
						<path class="st5" d="M36.2,1758.4c1.8-2.6,4.3-5.5,7.5-7.9c7.2-5.3,25.2-22.5,14.8-38.9c-0.7,0.2-1.5,0.3-2.2,0.5
							C23,1718.7,30.3,1743.4,36.2,1758.4z"/>
					</g>
					<g>
						<path class="st5" d="M162.5,1690.4c-1,9-6.2,15.9-11.4,15.3c-5.3-0.6-8.7-8.4-7.7-17.5c1-9,6.2-15.9,11.4-15.3
							C160.1,1673.6,163.6,1681.4,162.5,1690.4z"/>
						<path class="st6" d="M148.8,1694.9c0,1.6-0.8,2.9-1.9,2.9c-1,0-1.9-1.3-1.9-2.9s0.8-2.9,1.9-2.9
							C147.9,1692,148.8,1693.3,148.8,1694.9z"/>
					</g>
				</g>
				<path class="st11" d="M230.6,1607.4c-2.8,2.8-1.2,7.5,2.7,8.2c10.8,1.7,28.1,6.9,33.3,22.7c7.8,23.5,1.6,53.4-9.4,86.3
					c-11,33-17.3,69.1,11,67.5c28.3-1.6,89.2-17.1,103.3-36c14.1-18.8-1.7-81.9-17.4-124.3c-7.7-20.7-23.7-41.5-47.5-46.6
					C284.1,1580.4,251.5,1586.7,230.6,1607.4z"/>
			</g>
		</g>
		<g>
			<path class="st5" d="M280.7,1887.9c0,0-14.1,1.6-11,15.7c3.1,14.1,1.6,23.5,20.4,20.4c18.8-3.1,155.4-28.3,202.5-146
				c4.7-7.8-17.3-28.3-34.5-15.7C454.9,1767,417.3,1847.1,280.7,1887.9z"/>
			<g>
				<g>
					<path class="st5" d="M267.9,1956c-1.8-27,2.8-47.6,3-48.4l4.6,1c0,0.2-4.7,20.8-2.9,47.1L267.9,1956z"/>
				</g>
				<ellipse class="st9" cx="272.9" cy="1978.9" rx="6.6" ry="41.9"/>
				<rect x="266.8" y="1937" class="st9" width="6.1" height="83.7"/>
				<ellipse class="st8" cx="266.8" cy="1978.9" rx="6.6" ry="41.9"/>
			</g>
			<path class="st5" d="M481.9,1775.4c-9.4,0-17.1-7.7-17.1-17.1c0-9.4,7.7-17.1,17.1-17.1c9.4,0,17.1,7.7,17.1,17.1
				C498.9,1767.8,491.3,1775.4,481.9,1775.4z M481.9,1745c-7.4,0-13.4,6-13.4,13.4c0,7.4,6,13.4,13.4,13.4s13.4-6,13.4-13.4
				C495.3,1751,489.3,1745,481.9,1745z"/>
			<path class="st5" d="M494.7,1752.6c-1.2,0-2.4-0.7-3-1.9c-0.8-1.7-0.1-3.7,1.5-4.5c1.7-0.8,43.6-20.5,225-25.3
				c27.4-0.7,56.6-0.6,87.4-0.4c177.7,0.9,398.7,2,617.6-154.9c102.9-73.8,195.5-113.2,285.1-151.4
				c134.4-57.3,250.4-106.7,360.1-257.3c1.1-1.5,3.2-1.8,4.7-0.7c1.5,1.1,1.8,3.2,0.7,4.7c-110.8,152.1-227.6,201.9-362.9,259.5
				c-89.2,38-181.5,77.3-283.8,150.7c-98,70.3-205.3,115.3-328,137.7c-105.9,19.4-205.6,18.9-293.6,18.4
				c-30.8-0.1-59.9-0.3-87.2,0.4c-179.1,4.8-221.8,24.4-222.3,24.6C495.7,1752.5,495.2,1752.6,494.7,1752.6z"/>
		</g>
	</g>
	<g>
		<g>
			<g>
				<path class="st12" d="M1573,2391.6c0,0,3,32.3,1.2,54.8c-1.8,22.5,4.3,40.8,15.2,54.2c11,13.4,11,40.2,3.7,57.9
					c-7.3,17.7-9.1,11.6-16.5,12.8c-7.3,1.2-21.9,8.5-24.4,22.5c-2.4,14,14,12.8,29.2,16.5c15.2,3.7,37.8,1.2,44.5-14.6
					c6.7-15.8,20.7-58.5,29.2-71.9c8.5-13.4,16.5-29.2,5.5-58.5c-11-29.2,14-60.3,19.5-69.5
					C1680.3,2395.8,1613.2,2372.7,1573,2391.6z"/>
				<path class="st12" d="M1354.3,2424.5c0,0,22.5,43.3,32.3,56.7c9.7,13.4,11,20.7,8.5,31.1s-12.8,40.8,3,57.3
					c15.8,16.5,37.2,11.6,45.7,6.1c8.5-5.5,11-21.3,1.8-29.2c-9.1-7.9-14-17.1-7.3-26.8c6.7-9.7,26.8-44.5,28-54.8
					s-25-36.6-32.9-48.7C1425.6,2403.7,1392.6,2403.7,1354.3,2424.5z"/>
			</g>
			<g>
				<g>
					<path class="st13" d="M1775.9,2269.1c0,0,25,31.7,43.9,40.8s3.7,32.9-23.8,24.4L1775.9,2269.1z"/>
					<g>
						<path class="st13" d="M1221.4,2263c0,0,29.2,11,37.2,37.2c7.9,26.2,20.1,154.8,149.3,151.7c39.6-1.2,104.2-21.9,142.6-37.8
							c38.4-15.8,81-9.1,103-8.5c21.9,0.6,117.6,25,138.3-45.1s-35.3-147.5-128-149.9c-86.7-2.3-189.5,0-237.7-7.3
							s-70.1-10.4-84.1-32.9c-14-22.5-25-41.4-38.4-50L1221.4,2263z"/>
						<path class="st12" d="M1426.2,2203.3c-28.1-4.3-47.3-7.1-61.1-13.2c3.7,7.4,7.6,18.5,2.6,26.8c-14.5,24.2,1.8,52.1,32.9,37.5
							c31.1-14.6,53.9-10.1,68.5,12.8c14.6,22.9,45.7,37.5,64,26.5c18.3-11,7.3-54.8,30.2-53.9c22.8,0.9,39.3,20.1,51.2-4.6
							c11.2-23.3,29-2.5,35.5-25C1566.4,2208.5,1471.8,2210.2,1426.2,2203.3z"/>
						<path class="st12" d="M1286.8,2385.3c19.1,34.1,52.2,65.1,112.1,66.6c4.2-14.9,10.7-38.7,12.6-49
							c2.8-15.4-80.8-45.5-112.1-52.8C1299.4,2350.1,1292.6,2371.5,1286.8,2385.3z"/>
						<path class="st12" d="M1578.5,2327c0,0,17.5,30.1,18.3,56.1c0.2,7.5,1.3,14.6,2.7,20.9c12.3-0.6,23.8-0.1,33.9,0.5
							C1626.8,2378.4,1611.1,2334.8,1578.5,2327z"/>
					</g>
				</g>
				<g>
					<path class="st5" d="M1260.7,2320.8c-0.2-1.6,0-3.1,0.7-4.5c3.2-6.4,14.1-26,36.7-42.3c40.2-28.8,104.5-30.5,107.2-73.4
						c0.1-1.8,1.7-3.1,3.5-2.9c15.2,1.9,78.3,9.2,122.2,6.2c2.8-0.2,4.9,2.5,4,5.2c-7.6,23.1-32.3,113.2,7.1,209.1
						c0.2,0.6,0.1,1.3-0.5,1.7c-4,2.8-21.3,14-50.3,16.3c-0.6,0-1-0.5-0.9-1.1c3.3-12.6,29.7-126.4-71-160.3
						c-94-31.7-133.5,66.3-141.6,90c-0.6,1.8-3.1,1.9-3.9,0.2C1270.4,2356.7,1263.6,2339.8,1260.7,2320.8z"/>
					<g>
						<g>
							<path class="st5" d="M1465.6,2222.3c-11.7,0-21.2-9.5-21.2-21.2c0-11.7,9.5-21.2,21.2-21.2c11.7,0,21.2,9.5,21.2,21.2
								C1486.8,2212.7,1477.3,2222.3,1465.6,2222.3z M1465.6,2184.1c-9.4,0-17,7.6-17,17c0,9.4,7.6,17,17,17c9.4,0,17-7.6,17-17
								C1482.5,2191.7,1474.9,2184.1,1465.6,2184.1z"/>
						</g>
						<path class="st5" d="M1465.6,2187.4c-0.4,0-0.7-0.1-1.1-0.2c-1.7-0.6-2.7-2.5-2.1-4.3c0.6-1.6,59.4-164.9,226.4-290.8
							c78.5-59.2,163.6-171.8,239.4-317c71.6-137,127.7-289.9,154.2-419.6c0.4-1.8,2.1-3,4-2.6c1.8,0.4,3,2.1,2.6,4
							c-26.5,130.3-83,283.8-154.8,421.3c-76.3,146.1-162,259.4-241.3,319.2c-165.5,124.7-223.6,286-224.1,287.6
							C1468.2,2186.6,1466.9,2187.4,1465.6,2187.4z"/>
					</g>
				</g>
			</g>
			<g>
				<g>
					<path class="st13" d="M1299.4,2350.1c0,0-4.9,43.3-5.5,75c-0.6,31.7,5.5,43.9,4.9,62.8s-16.5,64.6-22.5,77.4
						c-4.9,2.4-34.1,4.9-38.4,26.8s9.1,27.4,17.1,28.6s45.7,1.8,52.4-9.1s20.7-37.2,33.5-56.7c12.8-19.5,20.7-36,23.8-53.6
						c3-17.7,28-71.9,44.5-94.5C1425.6,2384.2,1361.6,2320.3,1299.4,2350.1z"/>
					<path class="st12" d="M1307.3,2611.5c5.6-9.2,16.3-29,27.2-46.6c-6-6.4-1.7-14.9,0.9-24.6c3-11.6,3.7-19.5-1.2-14.6
						s-10.4,7.9-14.6,2.4c-4.3-5.5,0-14.6-4.9-16.5c-4.9-1.8-14,8.5-15.2,15.8c-0.7,4.4-6.1,3.9-10.3,2.9
						c-4.7,14.8-9.9,28.7-12.9,34.9c-4.9,2.4-34.1,4.9-38.4,26.8s9.1,27.4,17.1,28.6S1300.6,2622.5,1307.3,2611.5z"/>
				</g>
				<g>
					<path class="st13" d="M1578.5,2327c0,0,31.7,43.3,39.6,78.6c7.9,35.3,29.9,68.2,70.1,78.6c40.2,10.4,51.8,20.1,52.4,42
						c0.6,21.9-1.8,46.9-7.3,51.8c-5.5,4.9-32.3,2.4-36,26.2c-3.7,23.8,19.5,23.2,35.3,22.5c15.8-0.6,45.7-8.5,51.8-25.6
						s13.4-60.9,18.9-87.1c5.5-26.2,1.2-49.4-18.9-54.2c-20.1-4.9-26.8-20.7-18.9-36.6c7.9-15.8,34.7-99.9,12.2-131
						S1604.1,2266.6,1578.5,2327z"/>
					<path class="st12" d="M1775.5,2586.5c-4.1-5.3,0.4-18.3-8.9-15c-9.3,3.2-1.2-11.4-2.4-21.1s-4.1-8.1-10.2-7.3
						c-6.1,0.8-4.5-14.6-6.1-24.8c-0.8-5.2-4.9-4.4-8.7-2.5c0.9,3.1,1.3,6.6,1.4,10.4c0.6,21.9-1.8,46.9-7.3,51.8
						c-5.5,4.9-32.3,2.4-36,26.2c-3.7,23.8,19.5,23.2,35.3,22.5c15.8-0.6,45.7-8.5,51.8-25.6c1.5-4.1,3-9.8,4.6-16.5
						C1785.8,2578.8,1779.1,2591.2,1775.5,2586.5z"/>
				</g>
			</g>
		</g>
		<g>
			<g>
				<path class="st12" d="M1185.3,2085.7c0,0,8.1-39,8.1-57.7s31.7-8.1,43.5,54.4C1236.9,2082.4,1205.6,2101.1,1185.3,2085.7z"/>
				<path class="st4" d="M1210.4,2091.4c3-46-17-63.5-17-63.5c0,18.7-8.1,57.7-8.1,57.7C1192.8,2091.4,1201.9,2092.4,1210.4,2091.4z
					"/>
			</g>
			<g>
				<g>
					<g>
						
							<ellipse transform="matrix(0.7071 -0.7071 0.7071 0.7071 -1175.6573 1501.4167)" class="st13" cx="1224.5" cy="2169.9" rx="93.7" ry="93.7"/>
						<path class="st12" d="M1286.7,2099.8c-0.1,4.5,3.5,17.4,2.5,24.4c0,0,3.2-8.5,4.4-17.6
							C1291.5,2104.2,1289.2,2102,1286.7,2099.8z"/>
					</g>
					<g>
						<path class="st13" d="M1132.7,2160.3c0,0-9.1,8.2-22.8,14.6c-13.7,6.4-17.4,24.7-12.8,40.2s12.8,32.9,21,32
							c0,0,2.7,11.9,16.5,14.6c13.7,2.7,43-7.3,55.8-12.8C1203.1,2243.4,1132.7,2160.3,1132.7,2160.3z"/>
						<g>
							<path class="st5" d="M1109.8,2174.9c0,0-19.2,7.3-22.8,11s0.9,25.6,10.1,29.2c0,0,3.7-15.5,7.3-20.1
								C1108,2190.4,1110.7,2186.8,1109.8,2174.9z"/>
							<path class="st10" d="M1118.1,2246.9c1.8-0.4,3.7-0.8,5.5-1.2c0.9-0.2,1.8-0.5,2.7-0.7c0.9-0.2,1.8-0.5,2.6-0.8
								c1.7-0.5,3.3-1.5,5-1.9c0.4-0.1,0.9-0.2,1.3-0.3c0.4-0.1,0.9-0.2,1.3-0.3c0.4-0.1,0.9-0.2,1.3-0.3c0.4-0.1,0.9-0.2,1.5-0.3
								l0.2,0.3c-0.2,0.5-0.5,1-0.7,1.4c-0.3,0.4-0.7,0.8-1,1.2c-0.2,0.2-0.4,0.4-0.6,0.5c-0.2,0.2-0.4,0.3-0.6,0.5
								c-0.2,0.1-0.4,0.3-0.6,0.4l-0.7,0.4c-0.9,0.5-1.8,0.8-2.8,0.9l-2.9,0.4c-1,0.1-1.9,0.2-2.9,0.3c-1,0.1-1.9,0.1-2.9,0.1
								c-1.9,0-3.8,0-5.7-0.2L1118.1,2246.9z"/>
						</g>
						<g>
							<path class="st12" d="M1136.6,2174c0.5-0.7,0.9-1.5,1.3-2.3c1.3-2.7,4.3-9.7,4-14.7c-0.3-6.4,4-13.7,10.1-16.5
								c6.1-2.7,9.4-11,12.5-14.9c3-4,11.9-6.1,14,3.7c2.1,9.7-4.3,14.6,0.6,22.2s11.3,18,1.8,24.4c-9.4,6.4-13.4,7-22.9,13.7
								c-9.4,6.7-26.2,7.3-28.6-1.5C1127.1,2179.7,1132.4,2180.3,1136.6,2174z"/>
							<g>
								<path class="st5" d="M1164.1,2167.2c-0.6,6.2-4.2,11-7.8,10.6c-3.7-0.4-6.1-5.8-5.5-12c0.6-6.2,4.2-11,7.8-10.6
									C1162.3,2155.6,1164.8,2160.9,1164.1,2167.2z"/>
								<path class="st6" d="M1155.3,2170c0,1.5-0.7,2.6-1.5,2.6c-0.8,0-1.5-1.2-1.5-2.6c0-1.5,0.7-2.6,1.5-2.6
									C1154.6,2167.4,1155.3,2168.5,1155.3,2170z"/>
							</g>
						</g>
					</g>
				</g>
				<g>
					<path class="st13" d="M1214,2099.9c0,0,20.1-50.3,22.8-71.3c2.7-21,44.8,5.5,54.8,97.8
						C1291.7,2126.4,1251.5,2160.3,1214,2099.9z"/>
					<path class="st4" d="M1247.9,2132.5c22.8-78-11-103.8-11-103.8c-2.7,21-22.8,71.3-22.8,71.3
						C1225.5,2118.3,1237.1,2128,1247.9,2132.5z"/>
				</g>
			</g>
		</g>
	</g>
	<g>
		<g>
			<g>
				<g>
					<g>
						<path class="st14" d="M2274.6,806.6c0,0-4.9,82.9,0,173.1c0,0,173.1,13.4,258.4-19.5c0,0-15.8-81.7,2.4-157.2
							C2535.4,802.9,2322.1,774.9,2274.6,806.6z"/>
						<path class="st15" d="M2462.1,941.8c0,0,29.7-83.3,41.6-142.5c-40.3-4.2-111-10.1-165-6.9c-2.1,24.5-3.7,40.6-3.7,40.6
							s-41.7,34.8-62.6,55.4c-0.1,27.1,0.4,58.7,2.2,91.2c0,0,79.9,6.2,157.9-0.2C2455.1,961.3,2462.1,941.8,2462.1,941.8z"/>
					</g>
					<g>
						<path class="st14" d="M2458.6,224c0,0-7.3,80.4,19.5,126.7c26.8,46.3,48.7,69.5,56.1,98.7c0,0-187.7,153.6-273,101.2
							c0,0,76.8-65.8,86.5-120.7c8.5-47.8-1.2-85.3-13.4-121.9L2458.6,224z"/>
						<path class="st15" d="M2421.5,290.7c8-15.4,16.2-35.1,22.2-56.6l-109.4,74c5,14.9,9.5,30,12.6,45.8
							C2377.9,340.2,2406.8,318.9,2421.5,290.7z"/>
					</g>
					<g>
						<g>
							<path class="st16" d="M2513.5,405.6c0,0-35.3-24.4-65.8-12.2c-30.5,12.2-69.5,53.6-95.1,93.8c-25.6,40.2-70.7,62.2-91.4,63.4
								c0,0-43.9,36.6-47.5,108.5c0,39,39,75.6,59.7,89c0,0,1.2,29.2,1.2,58.5c0,0,140.2,0,260.8-3.7c0,0,18.3-121.9,23.2-160.9
								C2563.4,603,2556.1,456.8,2513.5,405.6z"/>
							<path class="st16" d="M2366.1,546c0,0-16.5,71.3-20.1,142.6c-2.3,44.6-6,90-8.5,117.7c43.9-0.3,105.2-1,165.2-2.5
								c1.7-8.1,3.1-15.8,4.1-22.9c8.2-58.5,31.1-242.2,10.1-276.9C2495.9,469.3,2397.2,472,2366.1,546z"/>
						</g>
						<path class="st15" d="M2452.9,416.2c0,0-60.3,15.5-82.3,88.7c-21.9,73.1,4.6,123.4,45.7,133.4s107.9-4.6,112.4-64.9
							C2533.4,513.1,2532.5,405.3,2452.9,416.2z"/>
					</g>
				</g>
				<g>
					<path class="st5" d="M2268.3,75.3c0,0-15.8,17-16.6,42.6c0,0,12.1-23,19.8-31.3L2268.3,75.3z"/>
					<path class="st14" d="M2418.7,51.5c-35.1-17.7-76.8-15.8-110.6,4.2c-26.7,15.9-55.7,44.3-67.5,95.1
						c-24.4,104.8-13.4,173.1,20.7,190.1c34.1,17.1,146.2-11,180.4-76.8C2470.6,208.3,2503.1,94.2,2418.7,51.5z"/>
					<path class="st5" d="M2268.3,75.3c0,0-19.6,22.6,24.3,71.9c23.8,26.7,46.9,52.7,48.7,82.9c1.8,30.2,19.3,105,38.5,125.1
						c8.2,8.2,91.4-2.1,124.3-16.7c7.3-3.7,0.8-23.6-2.4-34.1c-6.5-21.1-15-39.6-5.9-87.1s1.8-184.6-123.3-189.5
						C2295.7,26.9,2268.3,75.3,2268.3,75.3z"/>
					<path class="st14" d="M2232,198.4c0,0-2.4,14.2-13.4,23.6c-11.2,9.5-11,24,11,24L2232,198.4z"/>
					
						<ellipse transform="matrix(5.281679e-02 -0.9986 0.9986 5.281679e-02 1927.7831 2439.6318)" class="st17" cx="2249.9" cy="203.6" rx="13.7" ry="7"/>
					<path class="st15" d="M2237.8,243.1c-1.4-3.7-0.2-7.8,2.7-10.5c2.5-2.4,6.7-5.1,12.8-5.5c11-0.6,21.3,1.2,27.4,2.4
						c6.1,1.2,7.9,13.4-4.3,15.8c-12.2,2.4-20.1,3.7-26.8,4.3C2244.8,250,2239.6,247.9,2237.8,243.1z"/>
					<g>
						<path class="st17" d="M2268.5,178.9c-0.5,0-1-0.2-1.3-0.6c-11-11.6-23.4-4.3-23.9-4c-0.9,0.5-2,0.3-2.5-0.6
							c-0.5-0.9-0.3-2,0.6-2.5c0.2-0.1,15.4-9.1,28.5,4.6c0.7,0.7,0.7,1.9-0.1,2.6C2269.4,178.7,2269,178.9,2268.5,178.9z"/>
					</g>
					<path class="st6" d="M2248.6,209.3c0,1.5-0.6,2.7-1.4,2.7c-0.8,0-1.4-1.2-1.4-2.7c0-1.5,0.6-2.7,1.4-2.7
						C2248,206.5,2248.6,207.8,2248.6,209.3z"/>
					<path class="st15" d="M2261.8,282.1c0.7-0.3,1.4-0.6,2.1-1l2.1-1l-2.3,0.7c-0.8,0.2-1.5,0.5-2.3,0.6c-1.5,0.3-3,0.7-4.6,0.9
						c-3,0.5-6.1,0.6-9.2,0.6c-3-0.1-6-0.5-9-1.1c-1.5-0.3-2.9-0.7-4.3-1.1c-0.7-0.2-1.4-0.5-2.1-0.7c-0.3-0.1-0.7-0.3-1-0.4
						c-0.2-0.1-0.3-0.1-0.5-0.2c-0.1-0.1-0.3-0.1-0.4-0.2c-0.2-0.1-0.4-0.2-0.6-0.3c-0.4-0.1-0.8-0.2-1.2-0.2
						c0.3,2.2,0.6,4.4,0.9,6.5c0.4,0.1,0.8,0.2,1.2,0.3c0.8,0.2,1.6,0.3,2.5,0.4c1.6,0.2,3.3,0.4,4.9,0.5c3.3,0.1,6.5,0,9.7-0.4
						c3.2-0.5,6.3-1.1,9.3-2.1C2258.9,283.3,2260.3,282.6,2261.8,282.1z"/>
					<g>
						<g>
							<path class="st14" d="M2333.6,211.5c3.4-9.1,9.2-17.2,16.9-23.1c7.9-6,18.5-10.8,28.1-4.6c18.3,11.9-6.4,70.4-34.7,74
								C2320.7,260.8,2326.3,231.3,2333.6,211.5z"/>
							<g>
								<g>
									<path class="st15" d="M2342,232.2c-0.1,0-0.2,0-0.3,0c-1-0.2-1.7-1.1-1.5-2.1c0.1-0.3,1.5-8.6,5.8-16.7
										c5.9-11,14.4-16.2,24.6-15c1,0.1,1.7,1,1.6,2c-0.1,1-1,1.7-2,1.6c-20.9-2.5-26.3,28.3-26.3,28.6
										C2343.7,231.6,2342.9,232.2,2342,232.2z"/>
								</g>
								<g>
									<path class="st15" d="M2346.6,219.4c-0.6,0-1.2-0.3-1.6-0.9c-0.5-0.9-0.2-2,0.7-2.5c0.5-0.3,12.5-7.1,17.9,0.5
										c0.6,0.8,0.4,2-0.4,2.6c-0.8,0.6-2,0.4-2.6-0.4c-3.5-4.9-13,0.5-13.1,0.5C2347.2,219.3,2346.9,219.4,2346.6,219.4z"/>
								</g>
							</g>
						</g>
						<path class="st16" d="M2343.9,250.3c0,3.2-2.6,5.8-5.8,5.8c-3.2,0-5.8-2.6-5.8-5.8c0-3.2,2.6-5.8,5.8-5.8
							C2341.3,244.5,2343.9,247.1,2343.9,250.3z"/>
					</g>
				</g>
			</g>
			<g>
				<g>
					<g>
						<path class="st18" d="M2274.6,979.6c0,0-7.5,88.5,61.9,207.3c69.5,118.8,190.1,42.1,215.7-5.5s18.3-124.3,12.8-142.6
							c-5.5-18.3-22.2-24-32.1-78.7C2533,960.1,2326,975.2,2274.6,979.6z"/>
						<path class="st18" d="M2337.4,1130.1c0,0-8.8,9.7-18.7,23.5c4.9,9.9,10.3,20,16.2,30.4L2337.4,1130.1z"/>
					</g>
					<g>
						<g>
							<path class="st19" d="M2813.7,2044.4c0,0,115.2,138.9,137.1,186.5c0,0,51.2,0,69.5-14.6c18.3-14.6,0-62.2,0-62.2
								s-20.1-14.6-42.1-69.5s-43.9-102.4-71.3-155.4L2813.7,2044.4z"/>
							<g>
								<path class="st18" d="M2782.9,2356.5l13.2,31.4c1.8,4.3,6.1,7.1,10.7,7c22.5-0.5,88.9-3.7,130.4-24.5
									c50.6-25.4,68.6-41.8,98.6-54.2c30-12.4,62.2-35,63-40.9c0.8-6-16-46.1-16-46.1L2782.9,2356.5z"/>
								<path class="st18" d="M2955,2207.2c0,0-11.7-40.4-41.8-28.4c-17.2,6.8,7.8,43-53,87.2c-7,5.1-13.3,10.2-19.7,14.2
									c-44.5,27.4-66.6,37.8-57.9,75.5c3.1,12.8,98.7,8.5,152.5-21.9c53.8-30.3,80.1-46.1,106.5-60.6s44.3-31,42.7-39.2
									s-35.7-101.6-66.7-87.6c-7.9,4.4-8.5,15.1-5.4,26.7C3015.2,2184.8,3008.6,2193.5,2955,2207.2z"/>
								<path class="st18" d="M2955,2207.2c0,0-11.7-40.4-41.8-28.4c-17.2,6.8,7.8,43-53,87.2c-7,5.1-13.5,9.8-19.7,14.2
									c13.4,2.4,34.6-5.2,65.6-24.6C2942.1,2233,2955,2207.2,2955,2207.2z"/>
							</g>
						</g>
						<g>
							<path class="st18" d="M2406,1561.7c0,0,88.3,132.9,132.2,206c43.9,73.1,175.5,277.8,201,332.6c0,0,175.5-69.5,244.9-157.2
								c0,0-106-160.8-212-277.8c-33.4-41.5-70-151.2-104.7-209.7s-49.4-91.4-53-126.2c-3.7-34.7-7.3-64-20.1-96.9
								C2594.3,1232.6,2434.1,1307.1,2406,1561.7z"/>
							<path class="st5" d="M2503.4,1711.5c26.6-87.4,83.6-316.7,95.4-332.1c6.3-8.2,13.7-19.8,19.2-29c-1.7-7-2.9-13.9-3.6-20.9
								c-3.7-34.7-7.3-64-20.1-96.9c0,0-160.3,74.5-188.3,329.1C2406,1561.7,2459.1,1641.5,2503.4,1711.5z"/>
						</g>
					</g>
					<g>
						<g>
							<path class="st19" d="M2237.8,2143.1c0,0-9.1,166.4-27.4,243.2c0,0,45.7,36.6,100.6,9.1c0,0,9.1-54.8,31.1-117
								c21.9-62.2,42.1-122.5,45.7-188.3L2237.8,2143.1z"/>
							<g>
								<path class="st18" d="M1994.3,2486v40.1c0,2.8,1.3,5.5,3.5,7.2c7.4,5.7,28.6,16.4,81.8,13.6c71.9-3.7,114.6-18.3,158.4-18.3
									c43.9,0,85.4,0.5,90.2-6.1c9.7-13.4,3.7-67.6,3.7-67.6L1994.3,2486z"/>
								<path class="st18" d="M2227.1,2383.6c0,0,9.7-26.8,1.2-32.9c-8.5-6.1-19.5-9.7-28-11s-23.2,40.2-62.2,59.7
									c-30.3,15.2-79.2,23.2-107.2,35.3c-28,12.2-35.3,39-36.6,51.2c0,0,9.7,23.2,64.6,21.9c43.9-1,119.4-14.6,163.3-18.3
									c43.9-3.7,92.6-6.1,103.6-17.1c11-11,3.7-23.2,4.9-46.3c1.2-23.2,4.9-35.3,1.2-45.1c0,0-8.5-11-19.5,1.2
									C2308.7,2388.5,2279.5,2410.4,2227.1,2383.6z"/>
								<path class="st18" d="M2228.3,2350.7c-8.5-6.1-19.5-9.7-28-11s-23.2,40.2-62.2,59.7c-19.7,9.8-47.1,16.6-71.7,23.6
									c22.9,4,64,0.1,91.8-5.9c34.1-7.3,68.9-33.5,68.9-33.5S2236.8,2356.8,2228.3,2350.7z"/>
							</g>
						</g>
						<g>
							<path class="st18" d="M2561.4,1031.5c0,0,38.4,30.8,54.8,75c13.4,36,43.4,136.4-42,241.3c-16.5,25.6-84.1,305.3-115.2,389.4
								c1.8,53,0,345.5-14.6,440.6c0,0-146.3,27.4-283.4-21.9c0,0,18.3-217.6,25.6-373c7.3-155.4,36.6-219.4,56.7-290.7
								c20.1-71.3,75-259.6,85.9-338.2C2340.2,1075.4,2490.1,971.2,2561.4,1031.5z"/>
						</g>
					</g>
				</g>
				<path class="st18" d="M2272.7,925c0.3,17.4,0.9,35.9,1.9,54.7c0,0,173.1,13.4,258.4-19.5c0,0-3.8-19.7-5.5-48.6
					C2430.9,930.9,2308,926.7,2272.7,925z"/>
			</g>
		</g>
		<g>
			<g>
				<path class="st5" d="M2608.3,628.3c0,0-13.7-9.1-21-43c-7.3-33.8-26.5-191.9-124.3-175.5s-122.5,133.4-120.6,233.1
					c1.8,99.6,77.7,181.9,200.2,274.2l3.7-31.1c0,0-85.9-53-137.1-128.9c-51.2-75.9-63.1-228.5,6.4-303.4
					c69.5-74.9,121.6,24.7,136.2,65.8c14.6,41.1,12.8,81.3,46.6,128L2608.3,628.3z"/>
				<g>
					<path class="st5" d="M2616.8,620.2c0,0,3.2-52.4,24.4-57.3c21.1-4.9-2,35.3,1.6,56.1h-7.7c0,0,1.6-26.4,6.5-40.2
						c4.9-13.8-15-3.2-13.8,40.2L2616.8,620.2z"/>
					<path class="st5" d="M2656.1,618.9c0,0-40.2-6.1-53.6,7.3c-13.4,13.4-32.9,102.4-45.1,162.1c-12.2,59.7-35.3,146.2-3.7,158.4
						s119.4,25.6,140.2,11c20.7-14.6,26.8-57.3,31.7-101.2c4.9-43.9,14.6-84.1-12.2-85.3c0,0,6.1-97.5,2.4-118.2
						C2712.1,632.3,2695.1,626.2,2656.1,618.9z"/>
					<g>
						<path class="st19" d="M2671.9,965.6c-0.1,0-0.1,0-0.2,0c-1-0.1-1.8-1-1.7-2c6.3-75.1,17.3-123.6,25.4-151
							c8.8-29.9,16-41.8,16.3-42.3c0.5-0.9,1.7-1.1,2.5-0.6c0.9,0.5,1.1,1.7,0.6,2.5c-0.1,0.1-7.4,12.2-16,41.7
							c-8,27.3-18.9,75.4-25.1,150C2673.7,964.9,2672.9,965.6,2671.9,965.6z"/>
					</g>
					<g>
						<path class="st19" d="M2593,958.4c0,0-0.1,0-0.1,0c-1-0.1-1.8-1-1.7-2c11.3-150,27.9-233.9,39.8-278
							c13-48,23.3-60.3,23.7-60.8c0.7-0.8,1.8-0.9,2.6-0.2c0.8,0.7,0.8,1.8,0.2,2.6c-0.1,0.2-10.4,12.7-23.2,60.3
							c-11.8,43.9-28.2,127.4-39.4,276.4C2594.7,957.7,2593.9,958.4,2593,958.4z"/>
					</g>
				</g>
			</g>
			<g>
				<g>
					<path class="st14" d="M2356.7,838.2c0,0-38.4,45.2-93.2,94.6c-54.8,49.4-109.7,122.5-144.4,135.3
						c-34.7,12.8-54.8-20.1-71.3,14.6c0,0-12.8,14.6-29.3,23.8c-16.5,9.1-12.8,34.7-5.5,45.7c7.3,11,49.4,36.6,71.3,36.6
						c21.9,0,56.7-42.1,84.1-58.5c27.4-16.5,273.8-126.5,304.9-280.1C2473.3,850.1,2413.3,798,2356.7,838.2z"/>
					<path class="st14" d="M2466.4,424.5c0,0-76.8,3.7-95.1,126.2c-18.3,122.5-7.3,259.6-18.3,323.6c-5.5,38.4,12.8,60.3,29.3,65.8
						c16.5,5.5,73-6.1,95.1-106c23.8-107.9,38.4-239.5,42.1-266.9C2523,539.7,2524.9,428.2,2466.4,424.5z"/>
				</g>
				<path class="st10" d="M2177.4,1092.6c-2.8-20.8-16.1-39.1-27.8-46.4c-6.5-4.1-12.6-5-18.1-2.6c-11.7,5-15.6,23-15.8,23.8
					c-0.1,0.6-0.1,1.2,0.1,1.7c1-0.3,2.1-0.6,3.2-1c1.3-0.5,2.6-1,3.9-1.7c1.5-5.2,5.2-14.1,11.2-16.6c3.4-1.5,7.3-0.8,12,2.1
					c10.3,6.5,22.1,22.8,24.7,41.6c1.4,10.2,0.4,25.1-12,38.6c-1.3,1.4-1.2,3.5,0.2,4.7c0.6,0.6,1.5,0.9,2.3,0.9
					c0.9,0,1.8-0.4,2.5-1.1C2174.9,1124.5,2179.6,1109.3,2177.4,1092.6z"/>
			</g>
		</g>
	</g>
</g>
</svg>
